<?xml version="1.0" encoding="utf-8"?>
<!-- Generator: Adobe Illustrator 24.1.0, SVG Export Plug-In . SVG Version: 6.00 Build 0)  -->
<svg version="1.1" id="Layer_1" xmlns="http://www.w3.org/2000/svg" xmlns:xlink="http://www.w3.org/1999/xlink" x="0px" y="0px"
	 viewBox="0 0 600 130.83" style="enable-background:new 0 0 600 130.83;" xml:space="preserve">
<style type="text/css">
	.st0{fill:#E3A925;}
	.st1{fill:#F7DE03;}
	.st2{opacity:0.6;}
	.st3{fill:#FFFFFF;}
</style>
<g>
	<g>
		<path class="st0" d="M68.57,58.76c1.94-0.8,3.74-2.01,5.34-3.61c3.12-3.13,4.77-7.02,4.77-11.27c0-5.7-3.2-10.69-9.55-14.84
			c-7.18-4.54-15.27-6.85-24.05-6.85c-12.4,0-23.12,4.42-31.84,13.15C4.46,44.12,0,54.87,0,67.28c0,12.34,4.46,23.06,13.24,31.84
			c8.73,8.72,19.44,13.15,31.84,13.15c9.27,0,17.84-2.66,25.46-7.93c6.57-4.63,10.01-9.88,10.17-15.06
			c0.31-1.21,0.48-3.67,0.48-12.72c0-5.91-1.18-10.2-3.58-13.08C75.59,60.94,72.55,59.36,68.57,58.76z M51.95,58.1
			c-4.59,0-8.13,0.83-10.55,2.49c-3.24,2.33-4.89,5.6-4.89,9.71c0,2.8,0.68,6.77,4.02,9.41c-1.71-0.64-3.26-1.67-4.66-3.12
			c-2.56-2.56-3.8-5.61-3.8-9.31c0-3.63,1.25-6.68,3.86-9.37c2.49-2.65,5.35-3.95,8.75-3.95c2.41,0,4.89,0.63,7.31,1.83
			c1.93,1,3.5,1.77,4.8,2.34C55.24,58.12,53.63,58.1,51.95,58.1z"/>
		<path class="st0" d="M100.07,23.7c-4.67,0-8.74,1.79-11.74,5.15c-2.76,3-4.1,7.59-4.1,14.02V92.8c0,5.81,1.35,10.04,4.1,12.91
			c3.11,3.35,7.05,5.05,11.74,5.05c4.65,0,8.64-1.81,11.88-5.4c2.63-2.98,3.96-7.21,3.96-12.56V42.87c0-5.76-1.05-10.1-3.15-12.94
			C109.56,25.79,105.3,23.7,100.07,23.7z"/>
		<path class="st0" d="M162.61,21.28c2.4,0,4.68-1.08,6.58-3.11c3.91-4.14,5.79-7.27,5.93-9.82c0.15-2.09-0.74-4.14-2.45-5.7
			c-1.51-1.51-3.18-2.34-5.1-2.52C167.3,0.05,167.03,0,166.74,0c-2.23,0-4.38,1.18-6.8,3.75c-3.6,3.95-5.2,6.87-5.2,9.46
			c0,2.14,0.81,4.08,2.35,5.62C158.68,20.41,160.63,21.28,162.61,21.28z"/>
		<path class="st0" d="M227.87,23.7c-4.67,0-8.74,1.79-11.74,5.15c-0.23,0.25-0.38,0.57-0.59,0.83c-0.42-1.49-1.04-2.89-2.05-4.14
			c-3.63-4.47-10.2-4.29-13.54-0.18c-1.78,2.03-2.64,4.49-2.64,7.51c0,2.56,0.86,4.97,2.56,7.17c-0.02,0.06-0.01,0.09-0.03,0.15
			c-1.28-1.66-2.53-3.33-4.08-4.87c-8.73-8.72-19.44-13.15-31.84-13.15c-12.44,0-23.15,4.35-31.83,12.93
			c-8.8,8.69-13.26,19.24-13.26,31.35c0,12.66,4.38,23.57,13.01,32.41c8.57,8.88,19.25,13.38,31.77,13.38
			c12.5,0,23.31-4.42,32.16-13.16c8.78-8.89,13.23-19.64,13.23-31.94c0-6.24-1.13-12.05-3.35-17.38c2.82-0.08,4.97-1.9,6.38-5.23
			V92.8c0,5.81,1.35,10.04,4.1,12.91c3.11,3.35,7.05,5.05,11.74,5.05c4.66,0,8.65-1.81,11.88-5.4c2.63-2.98,3.96-7.21,3.96-12.56
			V42.87c0-5.76-1.05-10.1-3.15-12.94C237.37,25.79,233.1,23.7,227.87,23.7z M176.93,67.08c0,3.69-1.26,6.78-3.8,9.41
			c-5.3,5.29-13.15,5.17-18.29,0.03c-2.58-2.66-3.83-5.82-3.83-9.64c0-3.51,1.28-6.49,3.9-9.11c5.13-5.12,13.14-5.08,18.19-0.03
			C175.72,60.44,176.93,63.41,176.93,67.08z"/>
		<path class="st0" d="M344.41,31.26c-1.58-2.55-3.71-4.42-6.18-5.43c-2.29-1.05-6.56-1.52-13.82-1.52h-26.93
			c-7.72,0-12.89,0.5-15.46,1.54c-2.47,1.11-4.45,2.91-6.05,5.51c-1.52,2.46-2.3,5.15-2.3,7.98c0,3.8,1.41,7.26,4.2,10.28
			c2.77,3.01,6.86,4.54,12.15,4.54h4.44V92.1c0,3.47,0.39,6.28,1.16,8.31c1.07,2.97,3.01,5.45,5.78,7.38
			c2.68,1.86,5.66,2.77,9.1,2.77c5.6,0,10-2.42,13.12-7.22c1.66-2.62,2.51-6.47,2.51-11.44V54.17h3.53c5.35,0,9.16-1.02,11.61-3.11
			c3.74-3.13,5.64-7.11,5.64-11.82C346.9,36.3,346.04,33.57,344.41,31.26z"/>
		<path class="st0" d="M405.21,23.7c-5.08,0-9.23,2.11-12.33,6.29c-2.15,2.98-3.2,7.33-3.2,13.28v8.77h-11.3v-9.08
			c0-3.4-0.16-6.31-0.48-8.17c-0.39-1.57-1.23-3.17-2.6-4.91c-3.29-4.11-7.55-6.19-12.66-6.19c-5.12,0-9.23,2.02-12.6,6.24
			c-2.25,2.96-3.34,7.02-3.34,12.42v48.62c0,3.83,0.31,6.82,0.94,8.96c1.1,3.29,3.05,5.92,5.8,7.84c2.84,1.97,5.94,2.97,9.21,2.97
			c5.56,0,9.96-2.38,13.03-6.98c1.25-1.71,2.07-3.46,2.36-5.07c0.14-0.8,0.34-2.47,0.34-7.61v-9.08h11.3v9.28
			c0,6.07,0.99,10.35,3.02,13.1c3.13,4.23,7.41,6.37,12.72,6.37c5.75,0,10.37-2.66,13.37-7.71c1.7-2.92,2.57-6.88,2.57-11.76V42.36
			c0-5.43-1.17-9.65-3.45-12.53C414.79,25.77,410.52,23.7,405.21,23.7z"/>
		<path class="st0" d="M443.44,23.7c-4.62,0-8.57,1.73-11.78,5.2c-2.63,2.98-3.96,7.68-3.96,13.97V92.8c0,5.67,1.34,10.02,4,12.91
			c3.11,3.35,7.05,5.05,11.74,5.05c4.72,0,8.6-1.76,11.88-5.4c2.63-2.98,3.96-7.21,3.96-12.56V42.87c0-6-1.03-10.24-3.12-12.91
			C453.11,25.87,448.71,23.7,443.44,23.7z"/>
		<path class="st0" d="M507.8,54.27c5.11,0,8.99-1.1,11.93-3.43c3.46-2.97,5.22-6.97,5.22-11.9c0-4.6-1.89-8.39-5.57-11.24
			c-2-1.63-3.87-2.57-6-2.97c-2-0.27-5.86-0.43-10.32-0.43h-0.42c1.84-0.13,3.54-0.86,5.03-2.35c1.56-1.57,2.35-3.42,2.35-5.51
			c0-2.31-1.19-4.54-3.31-6.26l-4.79-4.07c-3.92-3.18-7.48-3.52-11.57-0.67l-5.57,4.15c-2.33,1.78-3.51,4.05-3.51,6.74
			c0,2.28,0.84,4.25,2.27,5.54c2.82,3.1,7.96,3.15,11.04,0.33l0.83-0.69l1.19,0.98c1.52,1.13,3.18,1.69,4.93,1.81h-14.31
			c-6,0-7.65,0.2-8.26,0.33c-3.75,0.59-6.76,2.12-9.21,4.69c-2.06,2.19-3.3,4.77-3.74,7.67c-0.35,1.37-0.48,3.58-0.48,7.88v43.98
			c0,3.92,0.19,6.95,0.56,8.79c1.09,5.2,3.99,8.85,8.55,10.84c2.32,1.1,6.22,1.65,11.57,1.65h20.78c4.09,0,7.37-0.51,9.76-1.51
			c2.41-1.02,4.47-2.93,5.93-5.48c1.53-2.58,2.28-5.21,2.28-8.04c0-4.52-1.8-8.46-5.32-11.48c-3.11-2.39-7.27-3.55-12.73-3.55h-9.68
			v-1.01h7.06c3.64,0,6.29-0.51,8.1-1.54c4.01-2.25,6.13-5.94,6.13-10.67c0-3.49-1.3-6.43-3.87-8.74c-2.41-2.17-5.62-3.27-9.55-3.27
			h-7.87v-0.61H507.8z"/>
		<path class="st0" d="M488.57,113.81c-1.94,1.94-2.97,4.33-2.97,6.93c0,2.86,1.04,5.34,2.9,7.07c1.84,1.97,4.33,3.01,7.19,3.01
			c2.77,0,5.12-1.01,6.87-2.9c2-1.87,3.01-4.22,3.01-6.99c0-2.79-1.04-5.25-2.96-7.03C498.58,109.87,492.48,110.16,488.57,113.81z"
			/>
		<path class="st0" d="M596.32,29.49c-0.01-0.01-0.03-0.03-0.04-0.05c-3.21-3.81-7.39-5.74-12.42-5.74c-4.9,0-9.05,1.97-12.35,5.88
			c-1.5,1.85-2.39,3.48-2.79,5.06c-0.35,1.29-0.49,3.41-0.49,7.31v32.18c0,5.87-2.45,6.36-4.74,6.36c-1.61,0-4.95,0-4.95-6.76V41.96
			c0-4.2-0.49-7.33-1.38-9.09c-1.12-2.86-3.13-5.12-5.88-6.68c-2.75-1.67-5.49-2.48-8.37-2.48c-5.23,0-9.35,2.03-12.59,6.24
			c-2.29,2.99-3.44,7.68-3.44,13.93v28.65c0,5.03,0.47,9.45,1.38,13.12c0.87,3.47,2.54,7,5.13,10.84
			c3.51,4.93,7.91,8.82,13.08,11.56c5.28,2.81,11.01,4.23,17.02,4.23c10.36,0,19.4-4,26.87-11.91c6.4-6.94,9.64-16.31,9.64-27.83
			V43.88C600,37.39,598.76,32.55,596.32,29.49z"/>
	</g>
	<g>
		<g>
			<path class="st1" d="M65.78,61.22c-4.54-0.3-9.18-0.4-13.92-0.4c-4.14,0-7.16,0.71-9.08,2.02c-2.52,1.82-3.83,4.34-3.83,7.67
				c0,6.46,3.83,9.68,11.4,9.68h3.73c-3.13,2.02-6.15,3.03-9.08,3.03c-4.34,0-7.97-1.51-10.99-4.64c-3.03-3.03-4.54-6.76-4.54-11.1
				c0-4.24,1.51-7.97,4.54-11.1c3.03-3.23,6.56-4.74,10.59-4.74c2.82,0,5.65,0.71,8.47,2.12c4.84,2.52,8.07,3.83,9.48,3.83
				c3.63,0,6.86-1.41,9.48-4.03c2.62-2.62,4.04-5.85,4.04-9.48c0-4.84-2.82-9.08-8.37-12.71C60.83,27.02,53.27,24.9,45,24.9
				c-11.7,0-21.79,4.14-30.06,12.41C6.56,45.68,2.43,55.67,2.43,67.47c0,11.7,4.14,21.69,12.51,30.06
				c8.27,8.27,18.36,12.41,30.06,12.41c8.88,0,16.85-2.52,24.01-7.46c5.85-4.14,8.98-8.68,9.18-13.62c0.3-1.21,0.4-5.25,0.4-12.11
				c0-5.25-1.01-9.08-3.03-11.5C73.55,62.73,70.22,61.42,65.78,61.22z"/>
			<path class="st1" d="M99.97,26.41c-4.04,0-7.36,1.51-9.89,4.34c-2.32,2.52-3.43,6.66-3.43,12.31v49.93
				c0,5.04,1.11,8.78,3.43,11.2c2.62,2.82,5.95,4.24,9.89,4.24c3.93,0,7.26-1.51,9.99-4.54c2.22-2.52,3.33-6.15,3.33-10.89V43.06
				c0-5.25-0.91-9.08-2.62-11.4C107.94,28.13,104.41,26.41,99.97,26.41z"/>
			<path class="st1" d="M206.6,24.9c-1.92,0-3.53,0.71-4.84,2.32c-1.41,1.61-2.02,3.53-2.02,5.85c0,2.42,1.01,4.64,2.93,6.66
				c-0.71,1.71-1.01,3.03-1.01,3.93c0,1.01,0.4,1.92,1.11,2.72c0.71,0.71,1.61,1.11,2.62,1.11c2.02,0,3.43-1.41,4.54-4.34l2.72-5.85
				c0.5-1.31,0.81-2.72,0.81-4.24c0-2.22-0.71-4.14-2.02-5.75C210.13,25.71,208.52,24.9,206.6,24.9z M204.48,28.13c0,0,0,0-0.1,0.1
				c0,0-0.1-0.1-0.2-0.1H204.48z"/>
			<path class="st1" d="M163.83,24.9c-11.8,0-21.79,4.04-30.06,12.21c-8.37,8.27-12.51,18.06-12.51,29.56
				c0,12.11,4.14,22.29,12.31,30.67c8.17,8.47,18.16,12.61,29.96,12.61c11.9,0,21.99-4.14,30.36-12.41
				c8.27-8.37,12.51-18.36,12.51-30.16c0-11.8-4.14-21.79-12.51-30.06C185.62,29.04,175.53,24.9,163.83,24.9z M153.03,56.17
				c3.03-3.03,6.66-4.54,10.89-4.54c4.24,0,7.87,1.51,10.89,4.54c3.03,3.13,4.54,6.76,4.54,11.1c0,4.34-1.51,8.07-4.54,11.2
				c-3.03,3.03-6.66,4.64-10.89,4.64c-4.34,0-7.97-1.61-11-4.64c-3.03-3.13-4.54-6.96-4.54-11.4
				C148.39,62.93,149.91,59.3,153.03,56.17z"/>
			<path class="st1" d="M162.52,18.95c1.71,0,3.33-0.81,4.74-2.32c3.43-3.63,5.14-6.36,5.25-8.27c0.1-1.31-0.5-2.62-1.71-3.73
				c-1.21-1.21-2.52-1.82-4.14-1.82v-0.1c-1.51,0-3.13,1.01-4.94,2.93c-3.03,3.33-4.54,5.85-4.54,7.77c0,1.41,0.5,2.72,1.61,3.83
				C159.89,18.34,161.2,18.95,162.52,18.95z"/>
			<path class="st1" d="M227.78,26.41c-4.03,0-7.36,1.51-9.89,4.34c-2.32,2.52-3.43,6.66-3.43,12.31v49.93
				c0,5.04,1.11,8.78,3.43,11.2c2.62,2.82,5.95,4.24,9.89,4.24c3.93,0,7.26-1.51,9.99-4.54c2.22-2.52,3.33-6.15,3.33-10.89V43.06
				c0-5.25-0.91-9.08-2.62-11.4C235.75,28.13,232.22,26.41,227.78,26.41z"/>
			<path class="st1" d="M337.13,28.33c-1.92-0.91-6.25-1.31-12.81-1.31h-26.93c-7.57,0-12.41,0.5-14.42,1.31
				c-2.02,0.91-3.63,2.42-4.94,4.54c-1.31,2.12-1.92,4.34-1.92,6.66c0,3.23,1.21,6.05,3.53,8.57s5.75,3.73,10.29,3.73h6.96v40.45
				c0,3.43,0.4,5.85,1.01,7.46c0.91,2.52,2.52,4.54,4.84,6.15c2.32,1.61,4.84,2.32,7.67,2.32c4.74,0,8.37-2.02,11-6.05
				c1.41-2.22,2.12-5.65,2.12-10.09V51.83h6.05c4.64,0,7.97-0.81,9.99-2.52c3.13-2.62,4.74-5.85,4.74-9.89
				c0-2.42-0.71-4.64-2.12-6.66C340.86,30.65,339.15,29.14,337.13,28.33z"/>
			<path class="st1" d="M405.12,26.41c-4.24,0-7.67,1.71-10.29,5.25c-1.82,2.52-2.72,6.46-2.72,11.8v11.3h-16.34v-11.6
				c0-3.83-0.2-6.36-0.4-7.57c-0.3-1.21-1.01-2.52-2.12-3.93c-2.82-3.53-6.36-5.25-10.69-5.25c-4.34,0-7.77,1.71-10.59,5.25
				c-1.92,2.52-2.82,6.15-2.82,10.89v48.62c0,3.73,0.3,6.46,0.81,8.17c0.91,2.72,2.52,4.94,4.84,6.56c2.32,1.61,4.94,2.52,7.77,2.52
				c4.74,0,8.37-2.02,11-5.95c1.11-1.51,1.71-2.93,1.92-4.04c0.2-1.11,0.3-3.53,0.3-7.16v-11.6h16.34v11.8
				c0,5.35,0.81,9.28,2.52,11.6c2.62,3.53,6.15,5.35,10.69,5.35c4.84,0,8.68-2.22,11.2-6.46c1.41-2.42,2.22-5.95,2.22-10.49V42.55
				c0-4.84-1.01-8.57-2.93-10.99C413.19,28.13,409.66,26.41,405.12,26.41z"/>
			<path class="st1" d="M443.35,26.41c-4.03,0-7.26,1.51-9.89,4.34c-2.22,2.52-3.33,6.66-3.33,12.31v49.93
				c0,5.04,1.11,8.78,3.33,11.2c2.62,2.82,5.95,4.24,9.89,4.24c4.04,0,7.26-1.51,9.99-4.54c2.22-2.52,3.33-6.15,3.33-10.89V43.06
				c0-5.25-0.81-9.08-2.62-11.4C451.42,28.13,447.79,26.41,443.35,26.41z"/>
			<path class="st1" d="M489.05,21.98c1.41,0,2.72-0.5,3.83-1.51l2.42-2.02l2.72,2.22c1.21,0.91,2.52,1.41,4.03,1.41
				c1.41,0,2.62-0.61,3.73-1.72c1.11-1.11,1.61-2.32,1.61-3.73c0-1.51-0.81-3.03-2.42-4.34l-4.74-4.04
				c-1.61-1.31-3.13-2.02-4.64-2.02c-1.21,0-2.52,0.5-3.83,1.41l-5.55,4.14c-1.71,1.31-2.52,2.82-2.52,4.74
				c0,1.51,0.5,2.82,1.61,3.83C486.32,21.47,487.53,21.98,489.05,21.98z"/>
			<path class="st1" d="M507.71,51.94c4.44,0,7.87-0.91,10.29-2.82c2.82-2.42,4.34-5.65,4.34-9.99c0-3.73-1.51-6.86-4.64-9.28
				c-1.61-1.31-3.13-2.12-4.74-2.42c-1.51-0.2-4.84-0.4-9.99-0.4h-15.84c-4.34,0-6.96,0.1-7.87,0.3c-3.23,0.5-5.75,1.82-7.77,3.93
				c-1.72,1.82-2.72,3.93-3.13,6.56c-0.3,1.21-0.4,3.63-0.4,7.26v43.98c0,4.04,0.2,6.76,0.5,8.27c0.91,4.34,3.23,7.36,7.16,9.08
				c1.92,0.91,5.45,1.41,10.49,1.41h20.78c3.93,0,6.86-0.5,8.78-1.31c1.92-0.81,3.53-2.32,4.74-4.44c1.31-2.22,1.92-4.44,1.92-6.76
				c0-3.83-1.51-7.06-4.34-9.48c-2.62-2.02-6.25-3.03-11.2-3.03h-12.21v-6.05h9.58c3.13,0,5.45-0.4,6.86-1.21
				c3.23-1.82,4.84-4.64,4.84-8.47c0-2.82-1.01-5.04-3.03-6.86c-2.02-1.82-4.64-2.62-7.87-2.62h-10.39v-5.65H507.71z"/>
			<path class="st1" d="M495.7,113.67c-2.12,0-3.93,0.71-5.45,2.12c-1.41,1.41-2.22,3.13-2.22,5.14c0,2.12,0.71,3.93,2.22,5.35
				c1.41,1.51,3.23,2.22,5.35,2.22c2.02,0,3.73-0.71,5.14-2.22c1.51-1.41,2.22-3.13,2.22-5.14c0-2.02-0.71-3.83-2.22-5.25
				C499.34,114.48,497.62,113.67,495.7,113.67z"/>
			<path class="st1" d="M594.26,31.26c-2.72-3.23-6.15-4.84-10.49-4.84c-4.24,0-7.67,1.71-10.39,4.94
				c-1.31,1.61-2.02,2.93-2.32,4.14c-0.3,1.11-0.4,3.33-0.4,6.66v32.18c0,5.95-2.42,8.88-7.26,8.88c-4.94,0-7.46-3.13-7.46-9.28
				V42.15c0-3.73-0.4-6.56-1.21-8.17c-0.91-2.32-2.52-4.14-4.84-5.45c-2.32-1.41-4.64-2.12-7.06-2.12c-4.44,0-7.87,1.71-10.59,5.25
				c-1.92,2.52-2.93,6.66-2.93,12.41v28.65c0,5.14,0.5,9.28,1.31,12.51c0.81,3.23,2.42,6.56,4.74,9.99
				c3.23,4.54,7.26,8.17,12.21,10.79c4.94,2.62,10.19,3.93,15.84,3.93c9.68,0,18.06-3.73,25.02-11.1
				c5.95-6.46,8.98-15.23,8.98-26.13V44.07C597.39,38.01,596.28,33.78,594.26,31.26z"/>
		</g>
		<g class="st2">
			<path class="st3" d="M63.68,79.71c0,1.61-0.81,2.42-2.22,2.42c-1.01,0-1.61-0.61-1.82-1.72c-0.5-2.12-1.11-3.33-1.71-3.93
				c-0.61-0.5-2.02-0.81-4.14-0.81h-4.54c-3.83,0-5.65-1.61-5.65-4.84c0-2.72,1.01-4.03,3.13-4.03c1.41,0,2.12,0.71,2.12,2.12
				c0,0.3-0.1,0.61-0.3,1.21c-0.3,0.5-0.4,0.81-0.4,0.91c0,0.4,0.4,0.71,1.11,0.71h4.64c2.93,0,5.14,0.5,6.46,1.71
				C62.57,74.97,63.68,77.09,63.68,79.71z"/>
			<path class="st3" d="M68.82,48.84c0,1.01-0.71,1.92-2.12,2.82c-1.31,0.91-2.72,1.41-4.14,1.41c-1.61,0-3.63-0.71-6.15-2.22
				c-3.73-2.22-7.36-3.33-10.99-3.33c-3.23,0-6.05,0.61-8.47,1.82c-1.31,0.61-2.22,0.91-2.72,0.91c-1.31,0-1.92-0.61-1.92-2.02
				c0-1.11,1.41-2.22,4.14-3.23c2.72-1.01,5.75-1.51,8.98-1.51c4.64,0,9.28,1.31,13.72,4.03c1.41,0.81,2.42,1.21,3.03,1.21
				c0.81,0,1.61-0.4,2.62-1.01c1.01-0.71,1.71-1.11,2.02-1.11C68.22,46.62,68.92,47.33,68.82,48.84z"/>
			<path class="st3" d="M22.42,43.19c0,1.61-0.81,2.42-2.42,2.42c-1.61,0-2.32-0.81-2.32-2.42c0-1.61,0.81-2.42,2.42-2.42
				C21.61,40.77,22.42,41.58,22.42,43.19z"/>
			<path class="st3" d="M64.58,98.57c0,1.51-2.12,2.93-6.46,4.44c-4.34,1.51-8.57,2.22-12.71,2.22c-10.49,0-19.27-3.63-26.63-11
				C11.53,86.87,7.89,78.1,7.89,67.71c0-4.44,0.91-9.08,2.72-14.12c1.92-4.94,3.63-7.36,5.25-7.36c1.21,0,1.82,0.61,1.82,1.92
				c0,0.4-0.2,0.91-0.61,1.72c-3.43,6.25-5.14,12.31-5.14,17.96c0,9.28,3.33,17.05,9.78,23.6c6.46,6.46,14.43,9.68,23.71,9.68
				c5.35,0,10.69-1.31,15.84-3.93c0.81-0.4,1.31-0.61,1.71-0.61C64.08,96.56,64.58,97.26,64.58,98.57z"/>
			<path class="st3" d="M98.07,35.12c0,1.61-0.81,2.42-2.42,2.42c-1.61,0-2.32-0.81-2.32-2.42c0-1.51,0.81-2.22,2.42-2.22
				C97.27,32.9,98.07,33.61,98.07,35.12z"/>
			<path class="st3" d="M101.91,101.4c0,1.51-0.91,2.32-2.62,2.32c-1.31,0-2.62-0.5-3.93-1.41c-2.52-1.61-3.73-5.04-3.73-10.29
				V42.18c0-1.92,0.71-2.93,2.02-2.93s2.02,1.01,2.02,2.93v49.83c0,3.63,0.61,5.85,2.02,6.56c0.3,0.2,0.71,0.3,1.11,0.4
				c1.41,0.3,2.32,0.61,2.62,0.81C101.71,100.09,101.91,100.59,101.91,101.4z"/>
			<path class="st3" d="M166.06,5.26c0,0.61-0.3,0.81-0.91,0.81c-0.4,0-0.71-0.2-0.71-0.81s0.3-0.81,0.91-0.81v0.1
				C165.86,4.56,166.06,4.76,166.06,5.26z"/>
			<path class="st3" d="M164.15,7.58c0,0.1-0.1,0.1-0.1,0.2l-0.5,0.61l-1.92,3.33c-0.61,0.91-0.91,1.61-0.91,2.02
				c0,0.61,0.4,1.11,1.11,1.41c0.81,0.4,1.21,0.61,1.21,0.91c0,0.4-0.3,0.61-0.81,0.61c-0.81,0-1.61-0.4-2.32-1.01
				c-0.71-0.71-1.01-1.51-1.01-2.32c0-0.81,0.81-2.22,2.32-4.24c1.21-1.51,1.92-2.22,2.22-2.22C163.85,6.88,164.15,7.08,164.15,7.58
				z"/>
			<path class="st3" d="M207.83,38.05c0,1.01-0.3,2.22-1.01,3.73c-0.4,1.01-0.81,1.51-1.31,1.51c-0.61,0-0.81-0.5-0.81-1.31
				c0-0.3,0.1-0.81,0.5-1.71c0.4-0.81,0.5-1.51,0.5-1.92s-0.2-0.71-0.5-1.11c-1.21-1.11-1.82-1.72-1.92-1.82
				c-0.4-0.91-0.71-1.92-0.71-2.93c0-1.01,0.3-1.92,0.81-2.93c0.4-0.71,0.81-1.21,1.21-1.21c0.61,0,0.81,0.4,0.81,1.01
				c0,0.1-0.2,0.5-0.5,1.11c-0.3,0.61-0.5,1.21-0.5,1.61c0,0.81,0.3,1.41,0.91,1.82C207.02,35.43,207.83,36.74,207.83,38.05z"/>
			<path class="st3" d="M188.46,67.5c0,2.93-0.4,5.55-1.31,7.87c-0.81,2.22-1.82,3.33-2.82,3.33c-1.31,0-1.92-0.61-1.92-1.92
				c0-0.4,0.1-0.81,0.3-1.31c1.11-2.72,1.61-5.25,1.61-7.46c0-6.05-1.92-11-5.85-14.93c-3.93-3.93-8.88-5.95-14.73-5.95
				c-3.23,0-6.15,0.71-8.68,1.92l-0.4,0.3c-0.71,0.3-1.21,0.5-1.51,0.5c-1.31,0-2.02-0.71-2.02-2.02c0-1.11,1.41-2.12,4.14-3.13
				c2.62-1.01,5.55-1.51,8.78-1.51c6.76,0,12.51,2.32,17.25,7.06C186.04,55,188.46,60.74,188.46,67.5z"/>
			<path class="st3" d="M141.35,42.18c0,1.61-0.81,2.42-2.32,2.42c-1.61,0-2.42-0.81-2.42-2.42c0-1.51,0.81-2.32,2.42-2.32
				C140.54,39.86,141.35,40.67,141.35,42.18z"/>
			<path class="st3" d="M182.91,98.67c0,1.21-1.31,2.42-3.93,3.43c-4.94,2.12-9.99,3.13-14.93,3.13c-10.29,0-19.07-3.63-26.53-11.1
				c-7.36-7.36-11.1-16.14-11.1-26.43c0-6.46,1.51-12.31,4.24-17.55c1.82-3.33,3.23-4.94,4.14-4.94c1.41,0,2.12,0.71,2.12,2.02
				c0,0.5-0.4,1.31-1.11,2.32c-3.53,5.04-5.25,11-5.25,18.06c0,9.08,3.33,16.95,9.78,23.5c6.56,6.56,14.42,9.79,23.71,9.79
				c5.45,0,10.39-1.21,14.83-3.53c0.91-0.5,1.61-0.71,2.12-0.71C182.2,96.66,182.91,97.36,182.91,98.67z"/>
			<path class="st3" d="M229.72,101.4c0,1.51-0.91,2.32-2.62,2.32c-1.31,0-2.62-0.5-3.93-1.41c-2.52-1.61-3.73-5.04-3.73-10.29
				V42.18c0-1.92,0.71-2.93,2.02-2.93s2.02,1.01,2.02,2.93v49.83c0,3.63,0.61,5.85,2.02,6.56c0.3,0.2,0.71,0.3,1.11,0.4
				c1.41,0.3,2.32,0.61,2.62,0.81C229.51,100.09,229.72,100.59,229.72,101.4z"/>
			<path class="st3" d="M225.88,35.12c0,1.61-0.81,2.42-2.42,2.42c-1.61,0-2.32-0.81-2.32-2.42c0-1.51,0.81-2.22,2.42-2.22
				C225.08,32.9,225.88,33.61,225.88,35.12z"/>
			<path class="st3" d="M338.16,43.6c0,1.01-0.61,1.92-1.92,2.62c-1.31,0.81-2.82,1.21-4.74,1.21h-6.25c-2.32,0-3.53-0.71-3.53-1.92
				c0-0.61,0.2-1.11,0.61-1.51c0.4-0.3,1.92-0.5,4.64-0.5h3.63c1.21,0,2.32-0.3,3.33-0.91c1.01-0.71,1.72-1.01,2.22-1.01
				C337.45,41.58,338.16,42.29,338.16,43.6z"/>
			<path class="st3" d="M312.53,101.5c0,1.51-0.91,2.32-2.52,2.32c-2.42,0-4.44-1.01-6.05-3.03c-1.41-1.82-2.12-5.04-2.12-9.79
				V53.08c0-2.02,0.61-3.03,1.82-3.03c1.51,0,2.22,1.01,2.22,3.03v37.93c0,2.62,0.1,4.44,0.3,5.25c0.5,1.82,1.72,2.82,3.53,3.23
				C311.63,99.78,312.53,100.49,312.53,101.5z"/>
			<path class="st3" d="M299.12,45.41c0,1.31-1.41,2.02-4.03,2.02h-4.44c-2.62,0-4.74-0.61-6.56-1.72
				c-1.71-1.11-2.52-2.42-2.52-4.03c0-1.51,0.61-2.32,2.02-2.32c0.81,0,1.31,0.3,1.61,0.91c1.11,1.61,1.92,2.52,2.42,2.82
				c0.5,0.3,1.92,0.4,4.03,0.4h4.04C297.91,43.5,299.12,44.1,299.12,45.41z"/>
			<path class="st3" d="M287.42,35.53c0,1.51-0.71,2.32-2.22,2.32c-1.61,0-2.42-0.81-2.42-2.42c0-1.51,0.81-2.32,2.42-2.32
				C286.71,33.11,287.42,33.91,287.42,35.53z"/>
			<path class="st3" d="M403.32,35.43c0,1.61-0.81,2.42-2.42,2.42s-2.42-0.81-2.42-2.42c0-1.61,0.81-2.42,2.42-2.42
				S403.32,33.81,403.32,35.43z"/>
			<path class="st3" d="M407.46,101.6c0,1.51-0.91,2.32-2.72,2.32c-1.31,0-2.72-0.4-4.04-1.31c-2.42-1.51-3.63-4.74-3.63-9.58v-11.7
				c0-2.42-0.4-4.14-1.21-5.04c-0.81-0.81-2.22-1.31-4.54-1.31h-14.12c-2.02,0-3.03-0.71-3.03-2.02c0-1.41,1.01-2.12,3.03-2.12
				h14.12c3.53,0,5.95,0.81,7.46,2.42c1.51,1.61,2.22,4.34,2.22,8.07v11.6c0,3.73,1.21,5.85,3.53,6.36
				C406.45,99.78,407.46,100.59,407.46,101.6z"/>
			<path class="st3" d="M401,42.18v11.7c0,1.92-0.71,2.82-2.22,2.82c-1.21,0-1.71-1.01-1.71-2.93v-11.6c0-1.92,0.61-2.93,1.92-2.93
				C400.29,39.26,401,40.27,401,42.18z"/>
			<path class="st3" d="M364.48,101.6c0,1.51-1.01,2.32-2.82,2.32c-2.12,0-4.03-0.81-5.55-2.52c-1.41-1.51-2.02-4.14-2.02-7.87
				V42.18c0-1.92,0.61-2.93,1.92-2.93c1.31,0,2.02,1.01,2.02,2.93v49.83c0,4.44,1.11,6.86,3.23,7.26
				C363.37,99.78,364.48,100.59,364.48,101.6z"/>
			<path class="st3" d="M360.35,35.32c0,1.61-0.81,2.42-2.42,2.42c-1.51,0-2.32-0.81-2.32-2.42c0-1.51,0.81-2.32,2.42-2.32
				C359.54,33,360.35,33.81,360.35,35.32z"/>
			<path class="st3" d="M445.28,101.4c0,1.51-0.91,2.32-2.62,2.32c-1.31,0-2.62-0.5-3.93-1.41c-2.42-1.61-3.73-5.04-3.73-10.29
				V42.18c0-1.92,0.71-2.93,2.12-2.93c1.21,0,1.92,1.01,1.92,2.93v49.83c0,3.63,0.71,5.85,2.02,6.56c0.3,0.2,0.71,0.3,1.11,0.4
				c1.41,0.3,2.32,0.61,2.62,0.81C445.18,100.09,445.28,100.59,445.28,101.4z"/>
			<path class="st3" d="M441.45,35.12c0,1.61-0.81,2.42-2.42,2.42c-1.51,0-2.32-0.81-2.32-2.42c0-1.51,0.81-2.22,2.42-2.22
				C440.64,32.9,441.45,33.61,441.45,35.12z"/>
			<path class="st3" d="M498.55,125.3c0,0.91-0.91,1.41-2.72,1.41c-1.51,0-2.72-0.5-3.73-1.51c-1.01-1.01-1.51-2.32-1.51-3.73
				c0-1.01,0.2-1.61,0.71-1.61c0.61,0,0.91,0.5,0.91,1.41c0,2.42,1.11,3.63,3.33,3.63h0.61l1.11-0.3l0.4-0.1
				C498.24,124.5,498.55,124.8,498.55,125.3z"/>
			<path class="st3" d="M493.5,118.34c0,0.71-0.3,1.11-1.01,1.11c-0.71,0-1.11-0.4-1.11-1.11s0.4-1.11,1.11-1.11
				C493.2,117.23,493.5,117.64,493.5,118.34z"/>
			<path class="st3" d="M516.4,99.38c0,1.11-0.81,2.12-2.42,3.03c-1.21,0.61-3.43,0.91-6.56,0.91h-16.85
				c-1.92,0-2.93-0.71-2.93-2.02s0.91-2.02,2.82-2.02h16.95c2.12,0,4.04-0.4,5.55-1.41c0.61-0.3,1.11-0.5,1.41-0.5
				C515.69,97.36,516.4,98.07,516.4,99.38z"/>
			<path class="st3" d="M510.55,69.72c0,1.71-1.31,2.62-3.83,2.62h-10.89c-1.82,0-2.72-0.71-2.72-2.02c0-1.31,0.91-2.02,2.72-2.02
				h8.07c1.51,0,2.82-0.1,3.73-0.5l1.11-0.1C509.94,67.71,510.55,68.41,510.55,69.72z"/>
			<path class="st3" d="M516,43.39c0,2.72-2.72,4.14-8.07,4.14h-11.4c-1.31,0-2.12-0.1-2.42-0.1c-0.71-0.3-1.01-0.91-1.01-1.82
				c0-1.41,1.11-2.12,3.43-2.12h11.4c0.91,0,1.72,0,2.22-0.1c0.5-0.1,1.21-0.4,2.12-1.01c0.91-0.61,1.41-0.91,1.72-0.91
				C515.29,41.48,516,42.08,516,43.39z"/>
			<path class="st3" d="M477.66,97.67c0,1.31-0.81,2.02-2.32,2.02c-1.61,0-2.42-2.22-2.42-6.66V42.18c0-1.82,0.61-2.82,1.92-2.82
				c1.41,0,2.02,1.01,2.02,2.82v50.74c0,1.41,0.1,2.42,0.3,3.03C477.46,96.86,477.66,97.36,477.66,97.67z"/>
			<path class="st3" d="M479.08,35.43c0,1.61-0.81,2.42-2.32,2.42c-1.51,0-2.32-0.81-2.32-2.42c0-1.51,0.81-2.32,2.32-2.32
				C478.27,33.11,479.08,33.91,479.08,35.43z"/>
			<path class="st3" d="M488.16,13.94c0,0.61-0.2,0.91-0.71,0.91c-0.61,0-0.91-0.3-0.91-0.91c0-0.5,0.3-0.81,0.91-0.81
				C487.95,13.13,488.16,13.43,488.16,13.94z"/>
			<path class="st3" d="M494.61,16.36c0,0.4-0.5,0.91-1.51,1.61c-1.82,1.41-3.13,2.02-3.93,2.02c-2.12,0-3.23-1.11-3.23-3.33
				c0-0.71,0.3-1.11,0.81-1.11c0.4,0,0.61,0.4,0.61,1.31c0,0.91,0.4,1.31,1.21,1.31s2.02-0.61,3.63-1.82
				c0.71-0.5,1.11-0.81,1.31-0.81l0.61,0.1C494.41,15.65,494.61,15.96,494.61,16.36z"/>
			<path class="st3" d="M504.7,18.18c0,0.4-0.3,0.91-1.01,1.41c-0.71,0.4-1.31,0.71-2.02,0.71c-0.61,0-1.31-0.3-2.02-0.91
				l-1.61-1.21c-1.01-0.81-1.51-1.31-1.51-1.51c0-0.5,0.2-0.71,0.61-0.71c0.2,0,0.5,0.1,0.81,0.3c0.3,0.3,0.5,0.4,0.61,0.5
				l2.22,0.81c0.5,0.61,1.11,0.91,1.51,0.91c0.3,0,0.61-0.1,0.91-0.3c0.5-0.4,0.81-0.71,0.91-0.71
				C504.5,17.47,504.7,17.77,504.7,18.18z"/>
			<path class="st3" d="M579.65,43.5v30.16c0,4.44-0.81,8.07-2.42,11c-1.31,2.42-2.72,3.63-3.93,3.63c-1.21,0-1.82-0.71-1.82-2.12
				c0-0.5,0.2-1.11,0.71-1.71c2.22-3.13,3.33-6.56,3.33-10.59V43.5c0-2.42,0.71-3.63,2.12-3.63
				C578.94,39.86,579.65,41.07,579.65,43.5z"/>
			<path class="st3" d="M581.97,35.73c0,1.61-0.81,2.32-2.42,2.32c-1.61,0-2.42-0.81-2.42-2.42c0-1.51,0.81-2.32,2.42-2.32
				C581.16,33.31,581.97,34.11,581.97,35.73z"/>
			<path class="st3" d="M575.51,101.09c0,1.11-1.21,2.12-3.73,3.03c-2.62,0.91-5.55,1.41-8.78,1.41c-4.64,0-9.08-1.21-13.32-3.53
				c-4.34-2.32-7.77-5.35-10.49-9.28c-3.23-4.84-4.94-11.5-4.94-19.97V43.5c0-2.52,0.71-3.83,2.12-3.83c0.71,0,1.21,0.2,1.51,0.81
				c0.2,0.5,0.4,1.51,0.4,3.03v29.15c0,8.78,2.12,15.53,6.36,20.38c4.84,5.45,10.89,8.07,18.16,8.07c3.63,0,6.36-0.4,8.37-1.31
				c1.31-0.5,2.12-0.81,2.52-0.81C574.91,98.98,575.51,99.68,575.51,101.09z"/>
			<path class="st3" d="M541.01,35.32c0,1.61-0.81,2.42-2.42,2.42c-1.51,0-2.22-0.81-2.22-2.42c0-1.61,0.81-2.42,2.42-2.42
				C540.31,32.9,541.01,33.71,541.01,35.32z"/>
		</g>
	</g>
</g>
</svg>
