<?xml version="1.0" encoding="utf-8"?>
<!-- Generator: Adobe Illustrator 24.1.0, SVG Export Plug-In . SVG Version: 6.00 Build 0)  -->
<svg version="1.1" id="Layer_1" xmlns="http://www.w3.org/2000/svg" xmlns:xlink="http://www.w3.org/1999/xlink" x="0px" y="0px"
	 viewBox="0 0 600 522.83" style="enable-background:new 0 0 600 522.83;" xml:space="preserve">
<style type="text/css">
	.st0{fill-rule:evenodd;clip-rule:evenodd;fill:#6F2312;}
	.st1{fill-rule:evenodd;clip-rule:evenodd;fill:#CB7439;}
	.st2{clip-path:url(#SVGID_2_);fill-rule:evenodd;clip-rule:evenodd;fill:#9F3A23;}
	.st3{clip-path:url(#SVGID_2_);fill-rule:evenodd;clip-rule:evenodd;fill:#A03A22;}
	.st4{clip-path:url(#SVGID_2_);fill-rule:evenodd;clip-rule:evenodd;fill:#A13B23;}
	.st5{clip-path:url(#SVGID_2_);fill-rule:evenodd;clip-rule:evenodd;fill:#A23C23;}
	.st6{clip-path:url(#SVGID_2_);fill-rule:evenodd;clip-rule:evenodd;fill:#A43C23;}
	.st7{clip-path:url(#SVGID_2_);fill-rule:evenodd;clip-rule:evenodd;fill:#A43D23;}
	.st8{clip-path:url(#SVGID_2_);fill-rule:evenodd;clip-rule:evenodd;fill:#A53E23;}
	.st9{clip-path:url(#SVGID_2_);fill-rule:evenodd;clip-rule:evenodd;fill:#A73E24;}
	.st10{clip-path:url(#SVGID_2_);fill-rule:evenodd;clip-rule:evenodd;fill:#A73F24;}
	.st11{clip-path:url(#SVGID_2_);fill-rule:evenodd;clip-rule:evenodd;fill:#A93F25;}
	.st12{clip-path:url(#SVGID_2_);fill-rule:evenodd;clip-rule:evenodd;fill:#A94025;}
	.st13{clip-path:url(#SVGID_2_);fill-rule:evenodd;clip-rule:evenodd;fill:#AA4025;}
	.st14{clip-path:url(#SVGID_2_);fill-rule:evenodd;clip-rule:evenodd;fill:#AB4125;}
	.st15{clip-path:url(#SVGID_2_);fill-rule:evenodd;clip-rule:evenodd;fill:#AC4225;}
	.st16{clip-path:url(#SVGID_2_);fill-rule:evenodd;clip-rule:evenodd;fill:#AE4226;}
	.st17{clip-path:url(#SVGID_2_);fill-rule:evenodd;clip-rule:evenodd;fill:#AE4225;}
	.st18{clip-path:url(#SVGID_2_);fill-rule:evenodd;clip-rule:evenodd;fill:#AF4326;}
	.st19{clip-path:url(#SVGID_2_);fill-rule:evenodd;clip-rule:evenodd;fill:#B04426;}
	.st20{clip-path:url(#SVGID_2_);fill-rule:evenodd;clip-rule:evenodd;fill:#B14426;}
	.st21{clip-path:url(#SVGID_2_);fill-rule:evenodd;clip-rule:evenodd;fill:#B24426;}
	.st22{clip-path:url(#SVGID_2_);fill-rule:evenodd;clip-rule:evenodd;fill:#B34526;}
	.st23{clip-path:url(#SVGID_4_);}
	.st24{opacity:0.2;fill-rule:evenodd;clip-rule:evenodd;fill:#6F2312;}
	.st25{opacity:0.4;fill-rule:evenodd;clip-rule:evenodd;fill:#CB7439;}
	.st26{fill-rule:evenodd;clip-rule:evenodd;fill:#EA7B48;}
	.st27{fill-rule:evenodd;clip-rule:evenodd;fill:#8A3A22;}
	.st28{fill-rule:evenodd;clip-rule:evenodd;fill:#913E24;}
	.st29{opacity:0.05;fill-rule:evenodd;clip-rule:evenodd;}
	.st30{fill-rule:evenodd;clip-rule:evenodd;fill:none;stroke:#F4AF51;stroke-width:1.2563;stroke-miterlimit:22.9256;}
	.st31{fill-rule:evenodd;clip-rule:evenodd;fill:none;}
	.st32{fill-rule:evenodd;clip-rule:evenodd;fill:#FCF4A7;}
	.st33{clip-path:url(#SVGID_6_);fill-rule:evenodd;clip-rule:evenodd;fill:#FFD380;}
	.st34{clip-path:url(#SVGID_6_);fill-rule:evenodd;clip-rule:evenodd;fill:#FFD481;}
	.st35{clip-path:url(#SVGID_6_);fill-rule:evenodd;clip-rule:evenodd;fill:#FFD682;}
	.st36{clip-path:url(#SVGID_6_);fill-rule:evenodd;clip-rule:evenodd;fill:#FFD784;}
	.st37{clip-path:url(#SVGID_6_);fill-rule:evenodd;clip-rule:evenodd;fill:#FFD785;}
	.st38{clip-path:url(#SVGID_6_);fill-rule:evenodd;clip-rule:evenodd;fill:#FFDA88;}
	.st39{clip-path:url(#SVGID_6_);fill-rule:evenodd;clip-rule:evenodd;fill:#FFDB88;}
	.st40{clip-path:url(#SVGID_6_);fill-rule:evenodd;clip-rule:evenodd;fill:#FBDB8A;}
	.st41{clip-path:url(#SVGID_6_);fill-rule:evenodd;clip-rule:evenodd;fill:#FCDC8B;}
	.st42{clip-path:url(#SVGID_6_);fill-rule:evenodd;clip-rule:evenodd;fill:#FCDF8C;}
	.st43{clip-path:url(#SVGID_6_);fill-rule:evenodd;clip-rule:evenodd;fill:#FCDF8D;}
	.st44{clip-path:url(#SVGID_6_);fill-rule:evenodd;clip-rule:evenodd;fill:#FCE18E;}
	.st45{clip-path:url(#SVGID_6_);fill-rule:evenodd;clip-rule:evenodd;fill:#FCE290;}
	.st46{clip-path:url(#SVGID_6_);fill-rule:evenodd;clip-rule:evenodd;fill:#FCE392;}
	.st47{clip-path:url(#SVGID_6_);fill-rule:evenodd;clip-rule:evenodd;fill:#FBE493;}
	.st48{clip-path:url(#SVGID_6_);fill-rule:evenodd;clip-rule:evenodd;fill:#FBE594;}
	.st49{clip-path:url(#SVGID_6_);fill-rule:evenodd;clip-rule:evenodd;fill:#FBE695;}
	.st50{clip-path:url(#SVGID_6_);fill-rule:evenodd;clip-rule:evenodd;fill:#FCE797;}
	.st51{clip-path:url(#SVGID_6_);fill-rule:evenodd;clip-rule:evenodd;fill:#FCE898;}
	.st52{clip-path:url(#SVGID_6_);fill-rule:evenodd;clip-rule:evenodd;fill:#FCE999;}
	.st53{clip-path:url(#SVGID_6_);fill-rule:evenodd;clip-rule:evenodd;fill:#FCEA9A;}
	.st54{clip-path:url(#SVGID_6_);fill-rule:evenodd;clip-rule:evenodd;fill:#FBEC9B;}
	.st55{clip-path:url(#SVGID_6_);fill-rule:evenodd;clip-rule:evenodd;fill:#FBED9C;}
	.st56{clip-path:url(#SVGID_6_);fill-rule:evenodd;clip-rule:evenodd;fill:#FBEC9D;}
	.st57{clip-path:url(#SVGID_6_);fill-rule:evenodd;clip-rule:evenodd;fill:#FBEE9E;}
	.st58{clip-path:url(#SVGID_6_);fill-rule:evenodd;clip-rule:evenodd;fill:#FDF09F;}
	.st59{clip-path:url(#SVGID_6_);fill-rule:evenodd;clip-rule:evenodd;fill:#FBF0A0;}
	.st60{clip-path:url(#SVGID_6_);fill-rule:evenodd;clip-rule:evenodd;fill:#FBF0A2;}
	.st61{clip-path:url(#SVGID_6_);fill-rule:evenodd;clip-rule:evenodd;fill:#FBF1A2;}
	.st62{clip-path:url(#SVGID_6_);fill-rule:evenodd;clip-rule:evenodd;fill:#FCF3A3;}
	.st63{clip-path:url(#SVGID_6_);fill-rule:evenodd;clip-rule:evenodd;fill:#FCF3A4;}
	.st64{clip-path:url(#SVGID_6_);fill-rule:evenodd;clip-rule:evenodd;fill:#FCF4A5;}
	.st65{clip-path:url(#SVGID_6_);fill-rule:evenodd;clip-rule:evenodd;fill:#FCF4A6;}
	.st66{opacity:0.4;fill-rule:evenodd;clip-rule:evenodd;fill:#FDC258;}
	.st67{fill-rule:evenodd;clip-rule:evenodd;fill:#F4AF51;}
	.st68{opacity:0.5;fill-rule:evenodd;clip-rule:evenodd;fill:#FCF4A7;}
	.st69{fill-rule:evenodd;clip-rule:evenodd;fill:#FDC258;}
	.st70{fill-rule:evenodd;clip-rule:evenodd;fill:#FFD283;}
	.st71{fill-rule:evenodd;clip-rule:evenodd;fill:#FFCD75;}
	.st72{fill-rule:evenodd;clip-rule:evenodd;fill:#FFCC74;}
</style>
<g>
	<g>
		<path class="st0" d="M112.21,13.53C174.25,4.65,235.63,0.21,296.99,0.21c61.36,0,122.74,4.44,184.78,13.32
			c24.15,3.46,44.46,10.43,59.73,20.7c14.87,10,24.9,23.09,28.98,39.05c1.73,6.78,3.36,13.5,4.86,20.15
			c1.46,6.49,2.89,13.24,4.28,20.28l0.26,1.33l-1.45,0.93c-2.76,1.76-4.99,3.9-6.52,6.29c-1.46,2.29-2.28,4.83-2.28,7.51
			c0,3.45,1.36,6.68,3.73,9.46c2.47,2.9,6.03,5.31,10.29,6.98l1.73,0.68l0.2,1.34c3.58,23.97,6.02,48.12,7.31,72.34
			c1.29,24.26,1.43,48.6,0.43,72.88l-0.1,2.42L566.61,297l26.9,1.46l6.48,5.18l-22.7,7.04l8.49-1.38l6.36,5.37l-0.14,1.87
			c-1.62,22.55-4.23,45.01-7.83,67.29c-3.59,22.2-8.16,44.2-13.71,65.92c-4.08,15.96-14.11,29.05-28.98,39.05
			c-15.27,10.27-35.58,17.25-59.73,20.7c-62.04,8.88-123.42,13.32-184.78,13.32c-61.36,0-122.74-4.44-184.78-13.32
			c-24.15-3.46-44.47-10.43-59.74-20.7c-14.87-10-24.9-23.08-28.98-39.05c-1.73-6.79-3.36-13.52-4.86-20.17
			c-1.46-6.48-2.89-13.24-4.28-20.26l-0.3-1.51c2.93-2.34,4.23-4.34,6.1-6.89c2.54-1.35,3.14-2.19,3.14-4.25
			c0-2.61-1.13-5.02-3.06-7.03c-2.01-2.08-4.89-3.75-8.3-4.77l-2.08-0.62l-0.24-1.51c-5.37-33.49-8.49-67.41-9.36-101.41
			c-0.88-34.06,0.5-68.14,4.13-101.91l0.2-1.88l6.3-3.12l14.72-0.7l-21.2-5.72l2.46-3.32l6.27-2.92l6.47-1.63l-12.62-2.07l0.31-2.26
			c1.94-13.96,4.27-27.84,6.97-41.6c2.71-13.8,5.79-27.45,9.23-40.91c4.08-15.96,14.11-29.05,28.98-39.05
			C67.75,23.96,88.06,16.98,112.21,13.53z"/>
		<path class="st1" d="M116.2,13.1C176.9,4.37,236.96,0,296.99,0c60.03,0,120.09,4.37,180.79,13.1
			c23.64,3.4,43.52,10.26,58.45,20.35c14.54,9.84,24.36,22.71,28.35,38.42c1.7,6.67,3.28,13.28,4.75,19.81
			c1.44,6.38,2.83,13.04,4.19,19.95l0.26,1.32l-1.43,0.91c-2.7,1.73-4.89,3.84-6.38,6.19c-1.43,2.25-2.23,4.75-2.23,7.37
			c0,3.4,1.33,6.58,3.64,9.3c2.4,2.83,5.89,5.2,10.09,6.85l1.69,0.67l0.2,1.34c3.5,23.56,5.89,47.32,7.15,71.16
			c1.26,23.86,1.4,47.8,0.41,71.68l-0.1,2.39l-25.93,1.11l32.61,6.53l-22.22,6.92l14.49,3.92l-0.13,1.86
			c-1.58,22.19-4.13,44.28-7.66,66.18c-3.51,21.83-7.99,43.48-13.41,64.84c-3.99,15.71-13.81,28.59-28.35,38.42
			c-14.93,10.09-34.81,16.95-58.45,20.35c-60.71,8.73-120.76,13.1-180.79,13.1c-60.03,0-120.09-4.37-180.79-13.1
			c-23.64-3.4-43.52-10.26-58.45-20.35c-14.54-9.84-24.36-22.71-28.35-38.42c-1.7-6.68-3.29-13.29-4.76-19.83
			c-1.43-6.38-2.83-13.03-4.19-19.94l-0.29-1.49l1.76-0.92c2.27-1.18,4.12-2.71,5.39-4.45c1.21-1.67,1.89-3.57,1.89-5.59
			c0-2.55-1.1-4.92-3-6.9c-1.97-2.05-4.79-3.69-8.13-4.7l-2.03-0.61l-0.24-1.5c-5.25-32.93-8.31-66.29-9.16-99.74
			c-0.86-33.5,0.49-67.03,4.04-100.24l0.2-1.86l20.52-3.75l-20.71-5.61l2.44-3.3l12.4-4.45l-12.3-2.03l0.31-2.24
			c1.9-13.73,4.17-27.38,6.82-40.92c2.65-13.57,5.67-27,9.03-40.24c3.99-15.71,13.81-28.59,28.35-38.42
			C72.68,23.36,92.56,16.51,116.2,13.1L116.2,13.1z M296.99,5.25c-59.54,0-119.06,4.33-179.19,12.98
			c-22.15,3.19-40.71,9.57-54.57,18.94c-13.42,9.08-22.49,21-26.2,35.6c-3.39,13.32-6.39,26.68-9,40.04
			c-2.5,12.78-4.66,25.61-6.47,38.47l25.57,4.22l-21.92,7.86l30.58,8.29l-37.57,6.87c-3.4,32.54-4.68,65.29-3.84,97.93
			c0.84,32.74,3.81,65.47,8.91,97.85c3.81,1.43,7.04,3.47,9.41,5.93c2.7,2.81,4.27,6.16,4.27,9.74c0,2.81-0.98,5.49-2.72,7.88
			c-1.46,2.01-3.45,3.8-5.85,5.3c1.18,5.95,2.48,12.09,3.91,18.43c1.5,6.69,3.08,13.27,4.72,19.73c3.71,14.59,12.78,26.52,26.2,35.6
			c13.86,9.37,32.42,15.75,54.57,18.94c60.13,8.65,119.65,12.98,179.19,12.98c59.54,0,119.06-4.33,179.19-12.98
			c22.15-3.19,40.71-9.57,54.57-18.94c13.42-9.08,22.49-21,26.2-35.6c5.41-21.29,9.86-42.83,13.35-64.51
			c3.41-21.23,5.91-42.59,7.49-64.01l-26.07-7.05l19.87-6.19l-54.72-10.95l62.43-2.67c0.87-22.97,0.71-46-0.51-68.97
			c-1.23-23.26-3.54-46.48-6.93-69.54c-4.58-2.05-8.41-4.82-11.17-8.06c-2.99-3.52-4.7-7.58-4.7-11.9c0-3.35,1.02-6.54,2.86-9.44
			c1.64-2.58,3.94-4.93,6.75-6.95c-1.19-6-2.5-12.19-3.94-18.58c-1.5-6.68-3.08-13.25-4.72-19.71c-3.71-14.59-12.78-26.52-26.2-35.6
			c-13.86-9.37-32.42-15.75-54.57-18.94C416.05,9.57,356.53,5.25,296.99,5.25z"/>
		<g>
			<g>
				<defs>
					<path id="SVGID_1_" d="M117,15.66c120.84-17.39,239.14-17.39,359.98,0c45.14,6.5,75.97,25.9,83.79,56.66
						c3.34,13.13,6.31,26.36,8.92,39.66c-6.05,3.88-9.82,9.37-9.82,15.46c0,7.86,6.29,14.72,15.65,18.41
						c7,47.09,9.52,94.9,7.55,142.52l-44.18,1.89l43.66,8.74l-21.04,6.56l20.28,5.49c-3.14,44.12-10.15,87.93-21.03,130.69
						c-7.82,30.76-38.65,50.16-83.79,56.66c-120.84,17.39-239.14,17.39-359.98,0c-45.14-6.5-75.97-25.9-83.79-56.66
						c-3.34-13.13-6.32-26.36-8.92-39.67c5.35-2.8,8.8-7.18,8.8-12.11c0-6.23-5.52-11.6-13.43-13.98
						C9.16,310.15,7.46,242.79,14.55,176.46l29.05-5.31l-27.57-7.47l0,0l20.3-7.28l-18.93-3.12c3.77-27.27,9.04-54.32,15.82-80.95
						C41.03,41.57,71.86,22.16,117,15.66z"/>
				</defs>
				<clipPath id="SVGID_2_">
					<use xlink:href="#SVGID_1_"  style="overflow:visible;"/>
				</clipPath>
				<rect x="7.46" y="-1.72" class="st2" width="577.57" height="517.51"/>
				<ellipse class="st2" cx="299.97" cy="261.51" rx="288.87" ry="256.28"/>
				<ellipse class="st3" cx="299.97" cy="261.51" rx="275.11" ry="244.08"/>
				<ellipse class="st4" cx="299.97" cy="261.51" rx="261.36" ry="231.88"/>
				<ellipse class="st5" cx="299.97" cy="261.51" rx="247.6" ry="219.67"/>
				<ellipse class="st6" cx="299.97" cy="261.51" rx="233.85" ry="207.47"/>
				<ellipse class="st7" cx="299.97" cy="261.51" rx="220.09" ry="195.26"/>
				<ellipse class="st8" cx="299.97" cy="261.51" rx="206.33" ry="183.06"/>
				<ellipse class="st9" cx="299.97" cy="261.51" rx="192.58" ry="170.86"/>
				<ellipse class="st10" cx="299.97" cy="261.51" rx="178.82" ry="158.65"/>
				<ellipse class="st11" cx="299.97" cy="261.51" rx="165.07" ry="146.45"/>
				<ellipse class="st12" cx="299.97" cy="261.51" rx="151.31" ry="134.24"/>
				<ellipse class="st13" cx="299.97" cy="261.51" rx="137.56" ry="122.04"/>
				<ellipse class="st14" cx="299.97" cy="261.51" rx="123.8" ry="109.84"/>
				<path class="st15" d="M410.02,261.5c0,53.92-49.26,97.63-110.04,97.64c-60.78,0-110.05-43.71-110.05-97.63
					c0-53.92,49.26-97.63,110.04-97.64C360.74,163.87,410.02,207.58,410.02,261.5z"/>
				<path class="st16" d="M396.26,261.5c0,47.18-43.11,85.43-96.29,85.43c-53.18,0-96.29-38.24-96.29-85.42
					c0-47.18,43.11-85.43,96.29-85.43C353.15,176.08,396.26,214.32,396.26,261.5z"/>
				<path class="st17" d="M382.51,261.5c0,40.44-36.95,73.23-82.53,73.23c-45.58,0-82.54-32.78-82.54-73.22
					c0-40.44,36.95-73.23,82.53-73.23C345.55,188.28,382.5,221.06,382.51,261.5z"/>
				<path class="st18" d="M368.75,261.5c0,33.7-30.79,61.02-68.78,61.02c-37.99,0-68.78-27.32-68.78-61.02
					c0-33.7,30.79-61.02,68.78-61.02C337.96,200.49,368.75,227.8,368.75,261.5z"/>
				<path class="st19" d="M355,261.5c0,26.96-24.63,48.82-55.02,48.82c-30.39,0-55.02-21.85-55.02-48.81
					c0-26.96,24.63-48.82,55.02-48.82C330.36,212.69,354.99,234.54,355,261.5z"/>
				<path class="st20" d="M341.24,261.51c0,20.22-18.47,36.61-41.27,36.61c-22.79,0-41.27-16.39-41.27-36.61
					c0-20.22,18.47-36.61,41.26-36.61C322.76,224.89,341.24,241.29,341.24,261.51z"/>
				<path class="st21" d="M327.48,261.51c0,13.48-12.32,24.41-27.51,24.41c-15.19,0-27.51-10.93-27.51-24.41
					c0-13.48,12.32-24.41,27.51-24.41C315.17,237.1,327.48,248.03,327.48,261.51z"/>
				<path class="st22" d="M313.73,261.51c0,6.74-6.16,12.2-13.76,12.2c-7.6,0-13.76-5.46-13.76-12.2c0-6.74,6.16-12.2,13.75-12.21
					C307.57,249.3,313.73,254.77,313.73,261.51z"/>
			</g>
		</g>
		<g>
			<defs>
				<path id="SVGID_3_" d="M117,15.66c120.84-17.39,239.14-17.39,359.98,0c45.14,6.5,75.97,25.9,83.79,56.66
					c3.34,13.13,6.31,26.36,8.92,39.66c-6.05,3.88-9.82,9.37-9.82,15.46c0,7.86,6.29,14.72,15.65,18.41
					c7,47.09,9.52,94.9,7.55,142.52l-44.18,1.89l43.66,8.74l-21.04,6.56l20.28,5.49c-3.14,44.12-10.15,87.93-21.03,130.69
					c-7.82,30.76-38.65,50.16-83.79,56.66c-120.84,17.39-239.14,17.39-359.98,0c-45.14-6.5-75.97-25.9-83.79-56.66
					c-3.34-13.13-6.32-26.36-8.92-39.67c5.35-2.8,8.8-7.18,8.8-12.11c0-6.23-5.52-11.6-13.43-13.98
					C9.16,310.15,7.46,242.79,14.55,176.46l29.05-5.31l-27.57-7.47l0,0l20.3-7.28l-18.93-3.12c3.77-27.27,9.04-54.32,15.82-80.95
					C41.03,41.57,71.86,22.16,117,15.66z"/>
			</defs>
			<clipPath id="SVGID_4_">
				<use xlink:href="#SVGID_3_"  style="overflow:visible;"/>
			</clipPath>
			<g class="st23">
				<path class="st24" d="M-32.43,415.45L11.5,300.3c20.21,26.85,3.53,63.74,24.09,67.31c10.67,1.86,7.89,12.16,11.51,18.74
					c9.16,16.66-15.35,31.05,5.45,46.71c25.25,19.01,42.63,35.91,84.68,32.41c46.98-3.91,74.98,1.04,118.77,10.72
					c30.9,6.84,71.47,17.1,102.41,5.9c33.66-12.18,37.97-23.88,89.08-22.4c11.34,0.33,63.97-4.76,75.59-12.26
					c42.91-27.7-5.54-79.1,41.21-95.62c7.07-2.5,32.75-35.18,34.88-40.56l-21.39,230.8L25.13,553.96L-32.43,415.45z"/>
				<path class="st25" d="M117,15.66c120.84-17.39,239.14-17.39,359.98,0c44.83,6.45,75.54,25.64,83.62,56.02
					c-21.6-5.38-37.09-14.01-54.25-29.92c-30.52-28.31-142.72-29.8-177.15-20.83c-30.71,8-80.49,14.98-118.72,6.35
					C155.71,14.91,65.65,31.67,31.92,77.51c0.43-1.73,0.86-3.46,1.3-5.18C41.03,41.57,71.86,22.16,117,15.66z"/>
				<g>
					<g>
						<path class="st26" d="M617.89-24.1c-99.39,4.44-198.71,6.94-297.89,6.57c-99.21-0.36-198.42-3.57-297.61-10.53
							c96.2,13.74,260.68,15.08,297.51,15.22C356.93-12.7,569.37-14.62,617.89-24.1z"/>
						<path class="st26" d="M324.67-13.36c62.7,22.19,244.8,53.64,338.45,58.6c-112.78-16.71-237.11-31.85-330.78-62.2L324.67-13.36
							z"/>
						<path class="st26" d="M599.01-12.47c-22.83-0.13-115.34-2.92-116.12,7.11h-0.01c-1.29,8.23,78.36,23.62,132.38,25.66
							C594.15,15.57,494,0.76,494.92-5.09C494.92-13.12,572.11-8.99,599.01-12.47z"/>
						<path class="st26" d="M618.32-43.68c-100.49,6.89-201.45,10.75-302.83,11.76c-101.45,1.01-203.49-0.83-306.07-5.35
							c77.37,13.22,268.66,10.41,306.35,10.04C353.11-27.61,561.67-31.6,618.32-43.68z"/>
						<path class="st26" d="M9.41-12.71C3.77-3.78,550.42,44.55,613.2,50.64C618.84,41.7,72.19-6.63,9.41-12.71z"/>
						<path class="st26" d="M13.47,5.2c53.53,8.87,671.55,81.29,681.34,67.23C572.57,67.48,19.2-0.05,13.47,5.2z"/>
						<path class="st26" d="M699.33,95.68C465.14,74.04,233.27,47.78-3.52,30.74C-5.19,34.29,693.54,105.21,699.33,95.68z"/>
						<path class="st26" d="M720.91,120.77c-233.88-15.03-467.77-33.49-701.69-62.4C7.78,72.49,715.26,134.29,720.91,120.77z"/>
						<path class="st26" d="M-52.12,93.84c-8.3,15.86,662.05,42.42,738.54,45.06C686.92,136.64,27.67,100.18-52.12,93.84z"/>
						<path class="st26" d="M522.47,164.98c-175.45-25.85-355.98-41.74-542.08-50.36C237.32,138.83,521.26,166.23,522.47,164.98z"/>
					</g>
					<g>
						<path class="st27" d="M617.89-24.74c-99.39,4.44-198.71,6.94-297.89,6.57c-99.21-0.36-198.42-3.57-297.61-10.53
							c96.2,13.74,260.68,15.08,297.51,15.22C356.93-13.34,569.37-15.26,617.89-24.74z"/>
						<path class="st27" d="M324.67-13.99c62.7,22.19,244.8,53.64,338.45,58.6C550.34,27.9,426.01,12.75,332.34-17.6L324.67-13.99z"
							/>
						<path class="st27" d="M599.01-13.11c-22.83-0.13-115.34-2.92-116.12,7.11h-0.01c-1.29,8.23,78.36,23.62,132.38,25.66
							C594.15,14.93,494,0.12,494.92-5.73C494.92-13.76,572.11-9.63,599.01-13.11z"/>
						<path class="st27" d="M618.32-44.32c-100.49,6.89-201.45,10.75-302.83,11.76c-101.45,1.01-203.49-0.82-306.07-5.35
							C86.78-24.69,278.07-27.5,315.76-27.87C353.11-28.25,561.67-32.24,618.32-44.32z"/>
						<path class="st27" d="M9.41-13.35C3.77-4.42,550.42,43.92,613.2,50C618.84,41.07,72.19-7.27,9.41-13.35z"/>
						<path class="st27" d="M13.47,4.56c53.53,8.87,671.55,81.29,681.34,67.23C572.57,66.84,19.2-0.69,13.47,4.56z"/>
						<path class="st27" d="M699.33,95.04C465.14,73.41,233.27,47.15-3.52,30.1C-5.19,33.66,693.54,104.57,699.33,95.04z"/>
						<path class="st27" d="M720.91,120.13C487.03,105.1,253.14,86.64,19.22,57.73C7.78,71.85,715.26,133.65,720.91,120.13z"/>
						<path class="st27" d="M-52.12,93.2c-8.3,15.85,662.05,42.42,738.54,45.06C686.92,136.01,27.67,99.54-52.12,93.2z"/>
						<path class="st27" d="M522.47,164.34c-175.45-25.85-355.98-41.74-542.08-50.36C237.32,138.19,521.26,165.59,522.47,164.34z"/>
					</g>
				</g>
				<g>
					<g>
						<path class="st26" d="M-13.94,169.11c109,4.44,217.91,6.94,326.69,6.57c108.8-0.36,217.6-3.57,326.38-10.53
							c-105.5,13.74-285.88,15.08-326.27,15.22C272.23,180.5,39.26,178.58-13.94,169.11z"/>
						<path class="st26" d="M307.62,179.85c-68.76,22.19-268.46,53.64-371.17,58.6c123.68-16.71,260.03-31.85,362.75-62.2
							L307.62,179.85z"/>
						<path class="st26" d="M6.75,180.73c25.04-0.13,126.49-2.92,127.34,7.11h0.01c1.41,8.23-85.93,23.62-145.18,25.66
							c23.17-4.72,133-19.54,131.99-25.38C120.91,180.08,36.26,184.22,6.75,180.73z"/>
						<path class="st26" d="M-14.42,149.53c110.2,6.89,220.92,10.75,332.1,11.76c111.26,1.01,223.16-0.82,335.66-5.35
							c-84.85,13.22-294.63,10.41-335.96,10.04C276.42,165.6,47.7,161.6-14.42,149.53z"/>
						<path class="st26" d="M653.35,180.49c6.19,8.93-593.3,57.27-662.15,63.35C-14.99,234.91,584.49,186.58,653.35,180.49z"/>
						<path class="st26" d="M648.9,198.4c-58.7,8.87-736.46,81.29-747.2,67.23C35.75,260.68,642.61,193.16,648.9,198.4z"/>
						<path class="st26" d="M-103.26,288.89c256.82-21.64,511.11-47.9,770.79-64.94C669.36,227.5-96.91,298.42-103.26,288.89z"/>
						<path class="st26" d="M-126.93,313.97c256.48-15.03,512.98-33.49,769.52-62.4C655.13,265.69-120.74,327.5-126.93,313.97z"/>
						<path class="st26" d="M720.82,287.04C729.93,302.9-5.21,329.46-89.1,332.1C-89.65,329.85,633.32,293.39,720.82,287.04z"/>
						<path class="st26" d="M90.7,358.19c192.4-25.85,390.39-41.74,594.47-50.36C403.4,332.04,92.02,359.43,90.7,358.19z"/>
					</g>
					<g>
						<path class="st27" d="M-13.94,168.47c109,4.44,217.91,6.94,326.69,6.57c108.8-0.36,217.6-3.57,326.38-10.53
							c-105.5,13.74-285.88,15.08-326.27,15.22C272.23,179.86,39.26,177.94-13.94,168.47z"/>
						<path class="st27" d="M307.62,179.21c-68.76,22.19-268.46,53.64-371.17,58.6c123.68-16.71,260.03-31.85,362.75-62.2
							L307.62,179.21z"/>
						<path class="st27" d="M6.75,180.09c25.04-0.13,126.49-2.92,127.34,7.1h0.01c1.41,8.23-85.93,23.62-145.18,25.66
							c23.17-4.72,133-19.54,131.99-25.38C120.91,179.44,36.26,183.58,6.75,180.09z"/>
						<path class="st27" d="M-14.42,148.89c110.2,6.89,220.92,10.75,332.1,11.76c111.26,1.01,223.16-0.82,335.66-5.35
							c-84.85,13.22-294.63,10.41-335.96,10.04C276.42,164.96,47.7,160.96-14.42,148.89z"/>
						<path class="st27" d="M653.35,179.85c6.19,8.94-593.3,57.27-662.15,63.35C-14.99,234.27,584.49,185.94,653.35,179.85z"/>
						<path class="st27" d="M648.9,197.76c-58.7,8.87-736.46,81.29-747.2,67.23C35.75,260.05,642.61,192.52,648.9,197.76z"/>
						<path class="st27" d="M-103.26,288.25c256.82-21.64,511.11-47.9,770.79-64.94C669.36,226.86-96.91,297.78-103.26,288.25z"/>
						<path class="st27" d="M-126.93,313.33c256.48-15.03,512.98-33.48,769.52-62.4C655.13,265.05-120.74,326.86-126.93,313.33z"/>
						<path class="st27" d="M720.82,286.4c9.11,15.85-726.04,42.42-809.93,45.06C-89.65,329.21,633.32,292.75,720.82,286.4z"/>
						<path class="st27" d="M90.7,357.55c192.4-25.85,390.39-41.74,594.47-50.36C403.4,331.4,92.02,358.8,90.7,357.55z"/>
					</g>
				</g>
				<g>
					<g>
						<path class="st26" d="M-13.94,369.26c109,4.44,217.91,6.94,326.69,6.57c108.8-0.36,217.6-3.57,326.38-10.53
							c-105.5,13.74-285.88,15.08-326.27,15.22C272.23,380.65,39.26,378.73-13.94,369.26z"/>
						<path class="st26" d="M307.62,380c-68.76,22.19-268.46,53.64-371.17,58.6c123.68-16.71,260.03-31.85,362.75-62.2L307.62,380z"
							/>
						<path class="st26" d="M6.75,380.88c25.04-0.13,126.49-2.92,127.34,7.11h0.01c1.41,8.23-85.93,23.62-145.18,25.66
							c23.17-4.72,133-19.54,131.99-25.38C120.91,380.23,36.26,384.37,6.75,380.88z"/>
						<path class="st26" d="M-14.42,349.67c110.2,6.89,220.92,10.75,332.1,11.76c111.26,1.01,223.16-0.83,335.66-5.35
							c-84.85,13.22-294.63,10.41-335.96,10.04C276.42,365.75,47.7,361.75-14.42,349.67z"/>
						<path class="st26" d="M653.35,380.64c6.19,8.94-593.3,57.27-662.15,63.35C-14.99,435.06,584.49,386.73,653.35,380.64z"/>
						<path class="st26" d="M648.9,398.55c-58.7,8.87-736.46,81.29-747.2,67.23C35.75,460.83,642.61,393.31,648.9,398.55z"/>
						<path class="st26" d="M-103.26,489.04c256.82-21.64,511.11-47.9,770.79-64.94C669.36,427.65-96.91,498.57-103.26,489.04z"/>
						<path class="st26" d="M-126.93,514.12c256.48-15.03,512.98-33.49,769.52-62.4C655.13,465.84-120.74,527.65-126.93,514.12z"/>
						<path class="st26" d="M720.82,487.19c9.11,15.85-726.04,42.42-809.93,45.06C-89.65,530,633.32,493.54,720.82,487.19z"/>
						<path class="st26" d="M90.7,558.34c192.4-25.85,390.39-41.74,594.47-50.36C403.4,532.19,92.02,559.59,90.7,558.34z"/>
					</g>
					<g>
						<path class="st27" d="M-13.94,368.62c109,4.44,217.91,6.94,326.69,6.57c108.8-0.36,217.6-3.57,326.38-10.53
							c-105.5,13.74-285.88,15.08-326.27,15.22C272.23,380.01,39.26,378.09-13.94,368.62z"/>
						<path class="st27" d="M307.62,379.36C238.86,401.55,39.16,433-63.55,437.96c123.68-16.71,260.03-31.85,362.75-62.2
							L307.62,379.36z"/>
						<path class="st27" d="M6.75,380.24c25.04-0.13,126.49-2.92,127.34,7.11h0.01c1.41,8.23-85.93,23.62-145.18,25.66
							c23.17-4.72,133-19.54,131.99-25.38C120.91,379.59,36.26,383.73,6.75,380.24z"/>
						<path class="st27" d="M-14.42,349.04c110.2,6.89,220.92,10.75,332.1,11.76c111.26,1.01,223.16-0.82,335.66-5.35
							c-84.85,13.22-294.63,10.41-335.96,10.04C276.42,365.11,47.7,361.11-14.42,349.04z"/>
						<path class="st27" d="M653.35,380c6.19,8.94-593.3,57.27-662.15,63.35C-14.99,434.42,584.49,386.09,653.35,380z"/>
						<path class="st27" d="M648.9,397.91c-58.7,8.87-736.46,81.29-747.2,67.23C35.75,460.2,642.61,392.67,648.9,397.91z"/>
						<path class="st27" d="M-103.26,488.4c256.82-21.64,511.11-47.9,770.79-64.94C669.36,427.01-96.91,497.93-103.26,488.4z"/>
						<path class="st27" d="M-126.93,513.48c256.48-15.03,512.98-33.49,769.52-62.4C655.13,465.2-120.74,527.01-126.93,513.48z"/>
						<path class="st27" d="M720.82,486.55c9.11,15.85-726.04,42.42-809.93,45.06C-89.65,529.36,633.32,492.9,720.82,486.55z"/>
						<path class="st27" d="M90.7,557.7c192.4-25.85,390.39-41.74,594.47-50.36C403.4,531.55,92.02,558.94,90.7,557.7z"/>
					</g>
				</g>
			</g>
		</g>
		<g>
			<path class="st26" d="M71.15,36.9c28.24-5.38,35.6,2.96,35.6,13.76S78.28,81.38,61.46,81.38C35.89,81.38,41.62,42.53,71.15,36.9z
				"/>
			<path class="st27" d="M70.58,36.07c27.97-5.33,35.26,2.93,35.26,13.63c0,10.69-28.2,30.42-44.86,30.42
				C35.66,80.12,41.33,41.64,70.58,36.07z"/>
			<path class="st28" d="M71.5,39.41c23.88-4.55,30.11,2.5,30.11,11.63c0,9.13-24.08,25.98-38.3,25.98
				C41.68,77.03,46.52,44.17,71.5,39.41z"/>
		</g>
		<g>
			<path class="st26" d="M111.07,46.57c-1.26-11.99,3.45-14.39,9.03-13.59c5.58,0.8,14.36,13.97,13.46,20.87
				C132.18,64.35,112.39,59.12,111.07,46.57z"/>
			<path class="st27" d="M111.14,45.59c-1.25-11.88,3.41-14.26,8.95-13.46c5.53,0.79,14.22,13.83,13.33,20.67
				C132.05,63.19,112.45,58.01,111.14,45.59z"/>
			<path class="st28" d="M113,46.31c-1.01-9.58,2.75-11.5,7.21-10.86c4.46,0.64,11.47,11.15,10.75,16.67
				C129.87,60.51,114.06,56.33,113,46.31z"/>
		</g>
		<g>
			<path class="st26" d="M522.35,475.05c-28.24,5.38-35.6-2.96-35.6-13.76s28.47-30.72,45.29-30.72
				C557.61,430.57,551.89,469.42,522.35,475.05z"/>
			<path class="st27" d="M522.32,473.58c-27.97,5.33-35.26-2.93-35.26-13.63c0-10.69,28.2-30.43,44.86-30.43
				C557.24,429.53,551.57,468.01,522.32,473.58z"/>
			<path class="st28" d="M521.4,472.49c-23.88,4.55-30.11-2.5-30.11-11.63c0-9.13,24.08-25.98,38.3-25.98
				C551.22,434.88,546.38,467.73,521.4,472.49z"/>
		</g>
		<g>
			<path class="st26" d="M487.11,448.77c-8.55,10.83-14.26,10.65-18.12,7.32c-3.86-3.33-0.42-18.71,5.82-24.17
				C484.29,423.62,496.05,437.45,487.11,448.77z"/>
			<path class="st27" d="M486.57,448.33c-8.47,10.72-14.12,10.55-17.95,7.25c-3.82-3.29-0.42-18.53,5.76-23.94
				C483.78,423.42,495.43,437.12,486.57,448.33z"/>
			<path class="st28" d="M485.06,447.81c-6.42,8.13-10.7,7.99-13.6,5.5c-2.9-2.5-0.32-14.04,4.37-18.14
				C482.94,428.94,491.77,439.32,485.06,447.81z"/>
		</g>
		<g>
			<path class="st26" d="M510.52,394.85c-19.58,7.19-21.36,15.18-17.66,21.96c3.69,6.78,28.4,8.65,38.97,2.35
				C547.89,409.6,531,387.33,510.52,394.85z"/>
			<path class="st27" d="M511,394.3c-19.39,7.12-21.15,15.04-17.49,21.75c3.66,6.72,28.12,8.56,38.59,2.33
				C548.01,408.9,531.28,386.85,511,394.3z"/>
			<path class="st28" d="M511.05,398.15c-15.41,5.66-16.81,11.95-13.9,17.29c2.91,5.34,22.35,6.8,30.67,1.85
				C540.46,409.76,527.17,392.24,511.05,398.15z"/>
		</g>
		<g>
			<path class="st26" d="M16.35,243.6c7.73-23.26,23.12-22.7,32.43-19.04c9.31,3.66,14.88,30.78,7.62,43.24
				C45.36,286.73,8.62,266.85,16.35,243.6z"/>
			<path class="st27" d="M17.19,242.22c7.66-23.03,22.95-22.45,32.17-18.83c9.22,3.63,14.74,30.48,7.55,42.82
				C45.97,284.96,9.53,265.25,17.19,242.22z"/>
			<path class="st28" d="M19.9,240.3c6.54-19.67,20.35-18.78,28.23-15.69c7.87,3.09,12.69,25.92,6.55,36.46
				C45.34,277.08,13.36,259.97,19.9,240.3z"/>
		</g>
	</g>
	<g>
		<path class="st29" d="M124.68,45.4c119.25-16.08,236-16.08,355.25,0c44.54,6.01,74.97,23.95,82.68,52.38
			c8.7,32.06,14.46,288.27,0,341.53c-7.72,28.43-38.14,46.38-82.68,52.38c-119.25,16.08-236,16.08-355.25,0
			c-44.54-6-74.97-23.95-82.68-52.38c-23.62-87.04-19.6-269.33,0-341.53C49.71,69.34,80.13,51.4,124.68,45.4z"/>
		<path class="st29" d="M126.25,45.36c118.17-16.03,233.86-16.03,352.03,0c44.14,5.99,74.29,23.88,81.93,52.23
			c8.62,31.96,14.33,287.42,0,340.53c-7.65,28.35-37.79,46.24-81.93,52.23c-118.17,16.03-233.86,16.03-352.03,0
			c-44.14-5.99-74.29-23.88-81.93-52.23c-23.41-86.78-19.42-268.53,0-340.53C51.96,69.24,82.11,51.35,126.25,45.36z"/>
		<path class="st29" d="M127.47,45.33c117.34-15.99,232.21-15.99,349.55,0c43.83,5.97,73.76,23.81,81.36,52.09
			c8.56,31.88,14.22,286.66,0,339.63c-7.59,28.28-37.53,46.12-81.36,52.09c-117.34,15.99-232.21,15.99-349.55,0
			c-43.83-5.97-73.77-23.81-81.36-52.09c-23.24-86.55-19.29-267.83,0-339.63C53.7,69.14,83.64,51.3,127.47,45.33z"/>
	</g>
	<g>
		<g>
			<path class="st30" d="M132.61,42.67c112.76-15.59,223.16-15.59,335.93,0c42.12,5.83,70.89,23.23,78.19,50.8
				c8.23,31.09,13.67,279.59,0,331.25c-7.3,27.58-36.07,44.98-78.19,50.8c-112.76,15.59-223.16,15.59-335.93,0
				c-42.12-5.82-70.89-23.23-78.19-50.8c-22.33-84.42-18.53-261.22,0-331.25C61.71,65.9,90.48,48.5,132.61,42.67z"/>
			<path class="st31" d="M132.61,42.67c112.76-15.59,223.16-15.59,335.93,0c42.12,5.83,70.89,23.23,78.19,50.8
				c8.23,31.09,13.67,279.59,0,331.25c-7.3,27.58-36.07,44.98-78.19,50.8c-112.76,15.59-223.16,15.59-335.93,0
				c-42.12-5.82-70.89-23.23-78.19-50.8c-22.33-84.42-18.53-261.22,0-331.25C61.71,65.9,90.48,48.5,132.61,42.67z"/>
		</g>
		<path class="st32" d="M134.83,40.14c55.63-7.64,110.66-11.47,165.67-11.47s110.04,3.82,165.67,11.47
			c21.66,2.98,39.87,8.98,53.56,17.82c13.34,8.61,22.34,19.88,26,33.63c4.55,17.1,8.24,100.67,8.24,179.77
			c0,62.31-2.29,121.95-8.24,144.31c-3.66,13.75-12.66,25.02-26,33.63c-13.69,8.84-31.91,14.84-53.56,17.82
			c-55.63,7.64-110.66,11.47-165.67,11.47s-110.04-3.82-165.67-11.47c-21.66-2.98-39.87-8.98-53.56-17.82
			c-13.34-8.61-22.34-19.88-26-33.63c-10.5-39.44-15.14-99.38-15.14-158.7c0-65.07,5.58-129.49,15.14-165.38
			c3.66-13.75,12.66-25.02,26-33.63C94.96,49.11,113.18,43.11,134.83,40.14L134.83,40.14z M300.51,33.29
			c-54.57,0-109.12,3.79-164.23,11.36c-20.31,2.79-37.31,8.37-50.01,16.57c-12.29,7.94-20.6,18.37-24,31.15
			c-9.48,35.62-15.03,99.74-15.03,164.6c0,59.12,4.61,118.78,15.03,157.93c3.4,12.77,11.71,23.21,24,31.14
			c12.7,8.2,29.7,13.78,50.01,16.57c55.11,7.57,109.66,11.36,164.23,11.36c54.57,0,109.12-3.79,164.23-11.36
			c20.31-2.79,37.31-8.37,50.01-16.57c12.29-7.94,20.6-18.37,24-31.14c5.87-22.06,8.13-81.42,8.13-143.53
			c0-78.92-3.64-162.13-8.13-178.99c-3.4-12.77-11.7-23.21-24-31.15c-12.7-8.2-29.7-13.78-50.01-16.57
			C409.63,37.08,355.07,33.29,300.51,33.29z"/>
		<g>
			<g>
				<defs>
					<path id="SVGID_5_" d="M135.56,42.39c110.74-15.22,219.16-15.22,329.9,0c41.37,5.68,69.62,22.67,76.78,49.58
						c8.08,30.35,13.43,272.88,0,323.3c-7.17,26.92-35.42,43.9-76.78,49.58c-110.74,15.22-219.16,15.22-329.9,0
						c-41.37-5.68-69.62-22.67-76.79-49.58c-21.93-82.39-18.2-254.95,0-323.3C65.94,65.06,94.19,48.08,135.56,42.39z"/>
				</defs>
				<clipPath id="SVGID_6_">
					<use xlink:href="#SVGID_5_"  style="overflow:visible;"/>
				</clipPath>
				<rect x="36.84" y="27.18" class="st33" width="518.83" height="452.91"/>
				<path class="st33" d="M554.1,151.39c6.12,124.97-102.14,231.83-241.81,238.66c-139.67,6.84-257.85-88.93-263.96-213.9
					C45.27,113.66,70.8,55.71,114.56,12.52v8.9H472.2V-4.99C519.97,33.72,551.04,88.9,554.1,151.39z"/>
				<path class="st34" d="M547.45,151.71C553.4,273.4,447.99,377.44,312,384.1c-135.99,6.66-251.06-86.59-257.02-208.27
					C52,114.98,76.87,58.55,119.47,16.5v4.92H467.7V-0.55C514.21,37.14,544.47,90.87,547.45,151.71z"/>
				<path class="st35" d="M540.79,152.04c5.8,118.4-96.77,219.62-229.08,226.1C179.39,384.62,67.43,293.89,61.64,175.5
					c-2.9-59.2,21.29-114.1,62.75-155.02v0.94H463.2V3.89C508.45,40.56,537.89,92.84,540.79,152.04z"/>
				<path class="st36" d="M534.14,152.37c5.64,115.11-94.08,213.52-222.72,219.82c-128.64,6.3-237.49-81.91-243.13-197.02
					c-2.82-57.55,20.7-110.93,61.01-150.71c10.08-9.95,21.2-19.04,33.23-27.14v24.1H458.7V8.33
					C502.7,43.98,531.32,94.81,534.14,152.37z"/>
				<path class="st37" d="M527.48,152.69c5.47,111.82-91.39,207.42-216.36,213.54c-124.96,6.12-230.71-79.57-236.18-191.39
					c-2.74-55.91,20.11-107.76,59.26-146.41c19.58-19.32,43.23-35.34,69.8-46.91v39.89H454.2v-8.64
					C496.94,47.41,524.74,96.78,527.48,152.69z"/>
				<path class="st38" d="M520.83,153.02c5.31,108.53-88.7,201.32-209.99,207.26C189.54,366.21,86.91,283.05,81.6,174.52
					c-2.66-54.26,19.52-104.6,57.52-142.1c19-18.75,41.96-34.3,67.75-45.53v34.53H449.7v-4.2
					C491.18,50.83,518.17,98.75,520.83,153.02z"/>
				<path class="st39" d="M514.17,153.34c5.15,105.24-86.02,195.22-203.63,200.98c-117.61,5.76-217.13-74.89-222.29-180.13
					c-2.58-52.62,18.93-101.43,55.78-137.8c18.42-18.19,40.69-33.26,65.69-44.15v29.17h165.79v-37.28
					c25.95,8.39,49.58,21.23,69.69,37.52C485.43,54.25,511.59,100.72,514.17,153.34z"/>
				<path class="st40" d="M507.52,153.67c4.99,101.95-83.33,189.12-197.27,194.7c-113.94,5.58-210.35-72.55-215.34-174.5
					c-2.5-50.98,18.34-98.26,54.03-133.49c17.85-17.62,39.41-32.22,63.64-42.77v23.81h160.6v-31.67
					c25.14,8.13,48.03,20.56,67.51,36.35C479.67,57.67,505.02,102.69,507.52,153.67z"/>
				<path class="st41" d="M500.86,153.99c4.83,98.66-80.64,183.02-190.9,188.42c-110.26,5.4-203.56-70.21-208.39-168.87
					C96.74,74.88,182.2-9.48,292.47-14.88c55.13-2.7,106.02,14.85,143.73,45.41C473.91,61.1,498.45,104.66,500.86,153.99z"/>
				
					<ellipse transform="matrix(0.9988 -0.0489 0.0489 0.9988 -7.6479 14.9252)" class="st42" cx="301.21" cy="163.77" rx="193.22" ry="172.9"/>
				
					<ellipse transform="matrix(0.9988 -0.0489 0.0489 0.9988 -7.6474 14.9242)" class="st43" cx="301.21" cy="163.77" rx="186.56" ry="166.93"/>
				
					<ellipse transform="matrix(0.9988 -0.0489 0.0489 0.9988 -7.6466 14.9225)" class="st44" cx="301.21" cy="163.77" rx="179.9" ry="160.97"/>
				
					<ellipse transform="matrix(0.9988 -0.0489 0.0489 0.9988 -7.6467 14.9228)" class="st45" cx="301.21" cy="163.77" rx="173.23" ry="155.01"/>
				
					<ellipse transform="matrix(0.9988 -0.0489 0.0489 0.9988 -7.6489 14.9274)" class="st46" cx="301.21" cy="163.77" rx="166.57" ry="149.05"/>
				
					<ellipse transform="matrix(0.9988 -0.0489 0.0489 0.9988 -7.6479 14.9253)" class="st46" cx="301.21" cy="163.77" rx="159.91" ry="143.09"/>
				
					<ellipse transform="matrix(0.9988 -0.0489 0.0489 0.9988 -7.6498 14.9291)" class="st47" cx="301.21" cy="163.77" rx="153.25" ry="137.12"/>
				
					<ellipse transform="matrix(0.9988 -0.0489 0.0489 0.9988 -7.6479 14.9251)" class="st48" cx="301.21" cy="163.77" rx="146.58" ry="131.16"/>
				
					<ellipse transform="matrix(0.9988 -0.0489 0.0489 0.9988 -7.6436 14.9164)" class="st49" cx="301.21" cy="163.77" rx="139.92" ry="125.2"/>
				
					<ellipse transform="matrix(0.9988 -0.0489 0.0489 0.9988 -7.6471 14.9235)" class="st50" cx="301.21" cy="163.77" rx="133.26" ry="119.24"/>
				
					<ellipse transform="matrix(0.9988 -0.0489 0.0489 0.9988 -7.6481 14.9256)" class="st51" cx="301.21" cy="163.77" rx="126.6" ry="113.28"/>
				
					<ellipse transform="matrix(0.9988 -0.0489 0.0489 0.9988 -7.648 14.9255)" class="st52" cx="301.21" cy="163.77" rx="119.93" ry="107.31"/>
				
					<ellipse transform="matrix(0.9988 -0.0489 0.0489 0.9988 -7.6469 14.9232)" class="st53" cx="301.21" cy="163.77" rx="113.27" ry="101.35"/>
				
					<ellipse transform="matrix(0.9988 -0.0489 0.0489 0.9988 -7.6463 14.9218)" class="st54" cx="301.21" cy="163.77" rx="106.61" ry="95.39"/>
				<path class="st55" d="M401.04,158.88c2.41,49.33-40.32,91.51-95.45,94.21s-101.78-35.1-104.2-84.44
					c-2.42-49.33,40.32-91.51,95.45-94.21C351.97,71.75,398.62,109.55,401.04,158.88z"/>
				
					<ellipse transform="matrix(0.9988 -0.0489 0.0489 0.9988 -7.6489 14.9273)" class="st56" cx="301.21" cy="163.77" rx="93.28" ry="83.47"/>
				<path class="st57" d="M387.73,159.53c2.09,42.75-34.94,79.31-82.72,81.65c-47.78,2.34-88.21-30.42-90.3-73.18
					c-2.09-42.75,34.94-79.31,82.72-81.65C345.2,84.02,385.63,116.78,387.73,159.53z"/>
				<path class="st58" d="M381.07,159.86c1.93,39.47-32.26,73.21-76.36,75.37c-44.1,2.16-81.42-28.08-83.36-67.55
					c-1.93-39.47,32.26-73.21,76.36-75.37S379.14,120.39,381.07,159.86z"/>
				
					<ellipse transform="matrix(0.9988 -0.0489 0.0489 0.9988 -7.6464 14.9221)" class="st59" cx="301.21" cy="163.77" rx="73.29" ry="65.58"/>
				<path class="st60" d="M367.76,160.51c1.61,32.89-26.88,61.01-63.63,62.81c-36.75,1.8-67.85-23.4-69.46-56.29
					c-1.61-32.89,26.88-61.01,63.63-62.81C335.05,102.42,366.15,127.62,367.76,160.51z"/>
				
					<ellipse transform="matrix(0.9988 -0.0489 0.0489 0.9988 -7.6462 14.9217)" class="st61" cx="301.21" cy="163.77" rx="59.97" ry="53.66"/>
				<path class="st62" d="M354.45,161.16c1.29,26.31-21.5,48.81-50.91,50.24c-29.4,1.44-54.28-18.72-55.57-45.03
					c-1.29-26.31,21.5-48.81,50.91-50.24C328.28,114.69,353.16,134.85,354.45,161.16z"/>
				<path class="st63" d="M347.8,161.49c1.13,23.02-18.82,42.71-44.54,43.96c-25.73,1.26-47.5-16.38-48.62-39.4
					c-1.13-23.02,18.82-42.7,44.54-43.96C324.9,120.82,346.67,138.47,347.8,161.49z"/>
				<path class="st64" d="M341.14,161.81c0.97,19.73-16.13,36.6-38.18,37.68c-22.05,1.08-40.71-14.04-41.68-33.77
					c-0.97-19.73,16.13-36.6,38.18-37.68C321.52,126.96,340.18,142.08,341.14,161.81z"/>
				<path class="st64" d="M334.49,162.14c0.81,16.44-13.44,30.5-31.82,31.4c-18.38,0.9-33.93-11.7-34.73-28.15
					c-0.8-16.44,13.44-30.5,31.82-31.4C318.13,133.09,333.68,145.7,334.49,162.14z"/>
				<path class="st64" d="M327.83,162.46c0.64,13.16-10.75,24.4-25.45,25.12c-14.7,0.72-27.14-9.36-27.79-22.52
					c-0.64-13.16,10.75-24.4,25.45-25.12C314.75,139.23,327.19,149.31,327.83,162.46z"/>
				<path class="st65" d="M321.18,162.79c0.48,9.87-8.06,18.3-19.09,18.84c-11.03,0.54-20.36-7.02-20.84-16.89
					c-0.48-9.87,8.06-18.3,19.09-18.84C311.36,145.36,320.69,152.92,321.18,162.79z"/>
				<path class="st65" d="M314.52,163.12c0.32,6.58-5.38,12.2-12.73,12.56c-7.35,0.36-13.57-4.68-13.89-11.26
					c-0.32-6.58,5.38-12.2,12.73-12.56C307.98,151.5,314.2,156.54,314.52,163.12z"/>
				<path class="st65" d="M307.87,163.44c0.16,3.29-2.69,6.1-6.36,6.28c-3.68,0.18-6.79-2.34-6.95-5.63
					c-0.16-3.29,2.69-6.1,6.36-6.28C304.6,157.63,307.71,160.15,307.87,163.44z"/>
			</g>
		</g>
		<path class="st66" d="M548.82,352.83c-1.29,27.97-3.41,50.55-6.58,62.45c-7.17,26.92-35.42,43.9-76.79,49.59
			c-110.74,15.22-219.16,15.22-329.9,0c-41.36-5.69-69.62-22.67-76.78-49.59c-4.46-16.75-7.86-37.22-10.29-59.79
			c39.7,35.58,136.11,60.69,248.75,60.69C412.65,416.18,511.03,389.81,548.82,352.83z"/>
		<path class="st32" d="M56.1,93.81c3.66,0,7.89,5.91,6.94,11.04c-0.95,5.13-7.6,10.67-11.26,10.67c-3.66,0-2.95-5.54-2.01-10.67
			C50.72,99.72,52.44,93.81,56.1,93.81z"/>
		<path class="st67" d="M55.42,93.26c3.55,0,7.65,5.64,6.73,10.54c-0.92,4.9-7.37,10.19-10.93,10.19c-3.56,0-2.87-5.29-1.95-10.19
			C50.2,98.9,51.86,93.26,55.42,93.26z"/>
		<path class="st32" d="M550.62,229.59c-5.74-0.48-14.25,8.06-14.41,16.08c-0.16,8.02,8.49,17.41,14.23,17.89
			c5.74,0.48,6.4-8.14,6.56-16.15C557.15,239.38,556.35,230.07,550.62,229.59z"/>
		<path class="st67" d="M551.86,228.81c-5.57-0.47-13.8,7.82-13.93,15.62c-0.13,7.8,8.29,16.95,13.86,17.42
			c5.57,0.47,6.18-7.91,6.31-15.7C558.23,238.35,557.43,229.29,551.86,228.81z"/>
		<path class="st68" d="M120.44,43.84c31.02-7.01,59.82-5.95,64.33,2.37c4.51,8.32-16.99,20.74-48.01,27.75
			c-31.02,7.01-59.82,5.95-64.33-2.37C67.92,63.28,89.42,50.85,120.44,43.84z"/>
		<path class="st68" d="M497.84,436.89c12.72-7.39,26.88-10.62,31.63-7.2c4.75,3.41-1.71,12.17-14.43,19.55
			c-12.72,7.39-26.88,10.62-31.63,7.21C478.67,453.04,485.13,444.28,497.84,436.89z"/>
		<path class="st32" d="M550.62,258.68c-5.74-0.33-9.85,5.35-10.01,10.87c-0.16,5.52,4.1,12.2,9.83,12.53
			c5.74,0.33,6.4-5.6,6.56-11.13C557.15,265.43,556.35,259.01,550.62,258.68z"/>
		<path class="st67" d="M551.86,258.14c-5.57-0.32-9.4,5.19-9.53,10.56c-0.13,5.37,3.9,11.88,9.46,12.21
			c5.57,0.33,6.18-5.45,6.31-10.82C558.23,264.72,557.43,258.47,551.86,258.14z"/>
		<path class="st32" d="M54.85,405.17c4.65-1.3,15.03,4.7,18.19,11.54c3.16,6.84-0.57,16.22-5.22,17.52
			c-4.65,1.3-8.45-5.98-11.61-12.82C53.05,414.57,50.21,406.47,54.85,405.17z"/>
		<path class="st67" d="M53.52,404.71c4.51-1.26,14.51,4.45,17.5,10.99c3,6.54-0.69,15.54-5.2,16.8
			c-4.51,1.26-8.13-5.69-11.13-12.24C51.7,413.72,49.01,405.97,53.52,404.71z"/>
		<g>
			<path class="st32" d="M496.76,86.82c-12.2,4.77-28.83,1.45-37.16-7.41C417.93,35,562.31,61.17,496.76,86.82z"/>
			<path class="st69" d="M498.08,86.31c-11.47,4.49-27.51,0.93-35.83-7.93C420.75,34.15,560.06,62.05,498.08,86.31z"/>
			<path class="st70" d="M496.51,86.9c-10.61,4.15-25.95,0.33-34.26-8.52C421.03,34.45,554.17,64.33,496.51,86.9z"/>
		</g>
		<g>
			<path class="st32" d="M533.37,96.36c-1.16,5.29-9.58,8.9-18.8,8.06C468.38,100.2,539.59,67.93,533.37,96.36z"/>
			<path class="st69" d="M533.5,95.78c-1.09,4.97-9.45,8.32-18.67,7.48C468.83,99.07,539.38,68.9,533.5,95.78z"/>
			<path class="st70" d="M533.33,96.46c-1.01,4.6-9.29,7.65-18.51,6.81C469.14,99.1,538.8,71.44,533.33,96.46z"/>
		</g>
		<g>
			<path class="st32" d="M94.75,271.93c0.6,6.17-8.97,7.41-21.39,2.76C11.2,251.43,91.5,238.77,94.75,271.93z"/>
			<path class="st69" d="M94.68,271.27c0.57,5.8-9.04,6.74-21.45,2.09C11.33,250.19,91.61,239.91,94.68,271.27z"/>
			<path class="st71" d="M94.73,272.04c0.52,5.37-9.1,5.96-21.5,1.32C11.75,250.35,91.87,242.87,94.73,272.04z"/>
		</g>
		<g>
			<path class="st32" d="M80.43,293.14c2.79,7.79-1.96,13.17-10.62,12.03C26.48,299.43,65.44,251.29,80.43,293.14z"/>
			<path class="st69" d="M80.13,292.3c2.62,7.32-2.27,12.33-10.92,11.18C26.06,297.77,65.95,252.72,80.13,292.3z"/>
			<path class="st71" d="M80.46,293.29c2.43,6.77-2.61,11.34-11.25,10.19C26.35,297.81,67.27,256.47,80.46,293.29z"/>
		</g>
	</g>
	<g>
		<path class="st32" d="M119.74,65.97h357.69c12.23,0,22.24,12.67,22.24,28.13v320.76c0,15.46-10.02,28.12-22.24,28.12H119.74
			c-12.22,0-22.24-12.65-22.24-28.12V94.1C97.5,78.62,107.51,65.97,119.74,65.97z"/>
		<path class="st67" d="M119.34,65.29h358.49c12.01,0,21.84,12.44,21.84,27.62v320.05c0,15.18-9.84,27.62-21.84,27.62H119.34
			c-12,0-21.84-12.43-21.84-27.62V92.92C97.5,77.72,107.33,65.29,119.34,65.29z"/>
		<path class="st72" d="M119.86,74.93h357.46c10.42,0,18.95,10.8,18.95,23.96v314.85c0,13.17-8.53,23.96-18.95,23.96H119.86
			c-10.41,0-18.95-10.78-18.95-23.96V98.89C100.91,85.71,109.44,74.93,119.86,74.93z"/>
	</g>
</g>
</svg>
