<?xml version="1.0" encoding="utf-8"?>
<!-- Generator: Adobe Illustrator 24.0.3, SVG Export Plug-In . SVG Version: 6.00 Build 0)  -->
<svg version="1.1" id="Layer_1" xmlns="http://www.w3.org/2000/svg" xmlns:xlink="http://www.w3.org/1999/xlink" x="0px" y="0px"
	 viewBox="0 0 1366 768" style="enable-background:new 0 0 1366 768;" xml:space="preserve">
<style type="text/css">
	.st0{opacity:0.5;fill:#AEDB11;}
	.st1{fill:#CAEB1A;}
	.st2{fill:#AEDB11;}
	.st3{fill:#92CB09;}
</style>
<g>
	<path class="st0" d="M-0.76,236.38c0.1-0.05,0.21-0.11,0.31-0.16v51.34c-0.1,0.06-0.21,0.13-0.31,0.19V236.38z"/>
	<path class="st0" d="M1366.76,200.51v55.81c-0.07-0.01-0.14-0.02-0.21-0.04V200.5C1366.62,200.5,1366.69,200.51,1366.76,200.51z"/>
	<path class="st1" d="M1366.55,200.5v55.78c-55.11-9.21-110.12-19.1-165.43-26.91c-61.72-8.73-124.81-16.38-187.25-13.48
		c-60.94,2.84-120.59,17.42-179.28,33.13c-61.81,16.54-123.78,28.43-187.62,33.69c-63.31,5.21-127.06,4.51-190.37-0.41
		c-99.1-7.71-196.58-33.12-296.28-33.37c-56.01-0.14-113.54,9.5-160.77,38.63v-51.34c33.11-17.17,71.64-23.57,108.82-27.04
		c59.2-5.52,118.32-3.3,177.55,0.89c63.6,4.51,127.1,10.76,190.92,11.18c66.39,0.43,132.64-8.1,198.82-12.68
		C905.6,192.68,1136.29,191.57,1366.55,200.5z"/>
	<path class="st2" d="M1366.55,256.28v396.4c-124.36,32.98-249.89,62.8-377.26,81.62c-130.53,19.3-261.07,8.38-391.24-8.45
		c-64.61-8.35-128.87-18.97-193.46-27.36c-65.23-8.46-131.51-13.87-197.23-8.28c-60.88,5.19-119.55,18.72-173.92,46.97
		c-11.34,5.9-22.6,12.13-33.89,18.36V287.56c47.23-29.13,104.76-38.77,160.77-38.63c99.7,0.25,197.18,25.66,296.28,33.37
		c63.31,4.92,127.06,5.62,190.37,0.41c63.84-5.26,125.81-17.15,187.62-33.69c58.69-15.71,118.34-30.29,179.28-33.13
		c62.44-2.9,125.53,4.75,187.25,13.48C1256.43,237.18,1311.44,247.07,1366.55,256.28z"/>
	<path class="st3" d="M1366.55,652.68V768h-1367v-12.46c11.29-6.23,22.55-12.46,33.89-18.36c54.37-28.25,113.04-41.78,173.92-46.97
		c65.72-5.59,132-0.18,197.23,8.28c64.59,8.39,128.85,19.01,193.46,27.36c130.17,16.83,260.71,27.75,391.24,8.45
		C1116.66,715.48,1242.19,685.66,1366.55,652.68z"/>
</g>
</svg>
