<?xml version="1.0" encoding="utf-8"?>
<!-- Generator: Adobe Illustrator 24.0.3, SVG Export Plug-In . SVG Version: 6.00 Build 0)  -->
<svg version="1.1" id="Layer_1" xmlns="http://www.w3.org/2000/svg" xmlns:xlink="http://www.w3.org/1999/xlink" x="0px" y="0px"
	 viewBox="0 0 140.17 139.24" style="enable-background:new 0 0 140.17 139.24;" xml:space="preserve">
<style type="text/css">
	.st0{fill:url(#SVGID_1_);}
	.st1{fill:url(#SVGID_2_);}
	.st2{fill:url(#SVGID_3_);}
	.st3{fill:url(#SVGID_4_);}
	.st4{fill:url(#SVGID_5_);}
	.st5{fill:url(#SVGID_6_);}
	.st6{fill:url(#SVGID_7_);}
</style>
<g>
	<g>
		<linearGradient id="SVGID_1_" gradientUnits="userSpaceOnUse" x1="70.0865" y1="168.5477" x2="70.0865" y2="4.5959">
			<stop  offset="0" style="stop-color:#781214"/>
			<stop  offset="1" style="stop-color:#CA1D5B"/>
		</linearGradient>
		<path class="st0" d="M68.64,0C53.76,0,39.21,4.21,26.57,12.16C14.72,19.63,6.03,33.4,2.1,50.94c-3.55,15.84-2.56,32.37,2.65,44.2
			c8.18,18.58,25.14,34.23,44.28,40.84c6.25,2.16,12.81,3.26,19.49,3.26c5.9,0,11.93-0.86,17.9-2.55
			c23.5-6.66,42.79-25.41,50.36-48.93c6.86-21.33,3.26-43.03-9.88-59.54C112.4,10.02,91.71,0,68.64,0z"/>
		<linearGradient id="SVGID_2_" gradientUnits="userSpaceOnUse" x1="70.0812" y1="137.1092" x2="70.0812" y2="6.2418">
			<stop  offset="0" style="stop-color:#EB1948"/>
			<stop  offset="1" style="stop-color:#F0628E"/>
		</linearGradient>
		<path class="st1" d="M49.86,133.55C31.2,127.1,14.96,111.98,7.1,94.1c-9.97-22.66-3.63-64.35,20.84-79.77
			C57.54-4.3,99.56-1.98,124.88,29.82c28.45,35.74,6.41,91.47-39.17,104.39C73.59,137.65,61.35,137.52,49.86,133.55z"/>
		<linearGradient id="SVGID_3_" gradientUnits="userSpaceOnUse" x1="70.0831" y1="155.0354" x2="70.0831" y2="6.7371">
			<stop  offset="0" style="stop-color:#991B28"/>
			<stop  offset="1" style="stop-color:#E51A51"/>
		</linearGradient>
		<path class="st2" d="M48.86,41.82c1.7,4.8,6.63,7.79,9.84,11.49c3.01,3.45,5.41,7.11,9.28,9.79c4.21,2.91,8.69,5.15,13.14,7.66
			c8.56,4.83,23.58,7.29,29.97-1.74c3.17-4.47,6.84-7.74,5.36-13.66c-1.35-5.39-1.74-10.89-3.61-16.1
			c-2.69-7.47-15.81-18.52-24.47-16.78c-6.63,1.33-3.44,10.65-1.58,14.87c1.72,3.92,8.08,9.76,13.07,7.34
			c1.93-0.94,2.11-2.97,2.11-4.92c0-3.28-0.31-4.09-3.24-4.53c-1.06-0.16-1.38,0.82-2.56,0.16c-1.2-0.67-1.72-2.1-0.33-2.97
			c3.07-1.9,8.94,3.9,10.06,6.12c3.28,6.47,3.65,19.18-5.35,20.89c-9.87,1.86-21.91-3.47-27.05-11.79
			c-4.96-8.01-13.48-21.71-7.5-30.75c1.79-2.71,4.74-5.57,7.24-7.65c2.96-2.46,5.2-2.37,8.73-2.77c1.36-0.15,3.28-0.75,4.93-1.59
			C75.58,1.96,63.75,1.87,52.47,4.33C51.79,5.57,50.7,6.8,50.1,8c-1.22,2.43-2.05,4.67-2.79,7.24c-1.42,4.92-3.2,8.01-1.52,13.28
			C47.18,32.87,47.36,37.6,48.86,41.82z M124.88,29.82c-4.87-6.12-10.37-11.14-16.27-15.14c0.7,1.65,2.1,3.25,3.24,4.67
			c6.03,7.54,14.36,16.29,15.83,26.25c1.4,9.54-1.99,21.71-4.21,30.72c-5.07,20.51-24.76,31.44-45.9,28.24
			c-11.09-1.68-24.27-8.32-32.14-16.13C38.93,82,31.6,68.02,30.66,58.98c-0.5-4.76-0.66-9.32-1.38-13.8
			c-0.84-5.27-1.17-10.22,0.05-15.46c1.29-5.56,4.24-8.17,7.57-12.79c1.43-1.99,3.05-6.41,4.72-9.38c-4.76,1.8-9.35,4.06-13.67,6.78
			c-3.53,2.22-6.67,5.01-9.45,8.19c-0.42,0.91-0.83,1.83-1.2,2.76c-5.94,15.02-3.88,34.66,2.82,50.78
			c-4.4-4.89-8.27-10.21-10.86-16.23c-0.94-2.19-2.19-7.01-3.84-11.6C3.39,55.8,2.46,63.68,2.6,71.18c0.13-0.01,0.27-0.01,0.42,0.02
			c2.67,0.38,3.62,5.68,4.18,7.5c1.69,5.44,4.34,9.46,8.07,14.05c3.2,3.94,5.44,9.08,8.83,12.69c4.12,4.4,11.2,7.13,16.45,9.76
			c5.73,2.87,10.07,6.46,15.5,9.63c5.9,3.45,12.57,3.69,19.29,3.7c10.11,0.02,20.99-1.86,30.57-4.61c0.85-0.24,1.7-0.56,2.55-0.9
			C137.72,101.32,148.05,58.94,124.88,29.82z M94.23,115.84c-10.15,0.89-20.44,0.55-29.78-3.77c4.7,1,9.54,1.69,14.41,2.23
			c11.45,1.28,23.11-1.36,32.99-7.04C107.27,112.04,101.68,115.19,94.23,115.84z"/>
		<linearGradient id="SVGID_4_" gradientUnits="userSpaceOnUse" x1="70.7599" y1="165.7" x2="70.7599" y2="-1.3595">
			<stop  offset="0" style="stop-color:#F6ACCC"/>
			<stop  offset="1" style="stop-color:#F9E6F1"/>
		</linearGradient>
		<path class="st3" d="M86.87,71.44c12.69,2.72,20.85,1.36,25.38-5.89s3.17-23.57-1.81-29.91c-4.99-6.35-16.77-14.05-21.3-11.33
			s-3.17,13.6,1.81,17.22c4.99,3.63,8.61,4.53,9.97,1.36c1.36-3.17-0.91-7.25-0.91-7.25S98.2,37,97.75,39.72
			c-0.45,2.72-6.8-2.27-6.35-6.8c0.45-4.53,8.61-4.53,12.69-0.45s7.25,15.86,4.99,22.66c-2.27,6.8-9.97,9.52-19.94,6.35
			S62.39,38.81,62.39,27.48c0-10.42,8.43-24.65,24.23-22.65c-10.19-2.6-20.78-2.9-31-1.11C50.17,9.26,43.6,19.56,48.8,34.28
			C56.96,57.39,74.18,68.72,86.87,71.44z M137.22,59.9c-1.15-10.63-5.12-21-12.34-30.08c-2.69-3.38-5.58-6.41-8.62-9.14
			c5.68,6.02,11.93,15.49,13.67,27.64c2.27,15.86-5.44,43.06-19.49,52.12s-35.35,10.42-55.75-1.36S25.23,63.28,25.68,39.72
			c0.3-15.49,8.62-26.08,14.29-31.53c-4.17,1.69-8.21,3.74-12.03,6.15C15.3,22.3,7.51,37.29,4.29,53.03
			C4.75,74.81,17,94.08,22.96,100.45c6.8,7.25,47.14,42.15,84.75,18.58C133.82,102.68,137.44,75.19,137.22,59.9z"/>
		<linearGradient id="SVGID_5_" gradientUnits="userSpaceOnUse" x1="70.7599" y1="192.8103" x2="70.7599" y2="-54.3875">
			<stop  offset="0" style="stop-color:#FBE8F1"/>
			<stop  offset="1" style="stop-color:#FFFFFF"/>
		</linearGradient>
		<path class="st4" d="M93.36,27.3c5.45,0.64,10.85,4.63,14.73,8.41c2.48,2.41,3.94,5.77,5.95,8.54c-0.78-3.48-2.01-6.56-3.61-8.61
			c-4.99-6.35-16.77-14.05-21.3-11.33c-3.44,2.06-3.48,8.82-1.13,13.54C86.89,33.32,88.66,26.75,93.36,27.3z M57.87,51.5
			c2.9,3.04,6.94,6.63,10.57,6.95l-3.63-3.02c-5.99-7.39-10.52-15.5-13.07-24.47c-0.63-2.23-1.46-4.9-1.13-7.26
			c0.32-2.28,1.91-3.27,2.71-5.43c2.26-6.07,1.5-9.51,8.76-10.56c3.62-0.53,3.77,0,2.44,3.9c-1.03,3.02-2.73,5.72-3.71,8.78
			c-1.49,4.67-3.59,10.92-0.76,15.41c1.59,2.53,4.02,4.52,5.52,7.13c1.6,2.78,2.87,5.25,4.99,7.67c3.72,4.25,8.68,8.99,13.74,11.61
			c4.53,2.35,11.86,2.91,16.88,1.96c5.56-1.06,10.71-7.31,8.61-13.1c-0.08,1.46-0.31,2.84-0.71,4.06c-2.27,6.8-9.97,9.52-19.94,6.35
			S62.39,38.81,62.39,27.48c0-9.19,6.56-21.33,18.95-22.71c0.04-0.36,0.07-0.71,0.07-1.06c-8.56-1.52-17.3-1.48-25.79,0
			C50.17,9.26,43.6,19.56,48.8,34.28C51.17,40.99,54.3,46.7,57.87,51.5z M137.22,59.9c-1.15-10.63-5.12-21-12.34-30.08
			c-0.11-0.14-0.22-0.27-0.33-0.4c-0.36,0.31-0.66,0.68-0.91,1.11c2.92,5,5.32,10.97,6.29,17.79c2.27,15.86-5.44,43.06-19.49,52.12
			s-35.35,10.42-55.75-1.36S25.23,63.28,25.68,39.72c0.3-15.49,8.62-26.08,14.29-31.53c-4.17,1.69-8.21,3.74-12.03,6.15
			C15.3,22.3,7.51,37.29,4.29,53.03C4.75,74.81,17,94.08,22.96,100.45c0.05,0.05,0.1,0.1,0.15,0.16l5.74,2.26
			c-3.46-4.1-7.05-8.53-10.05-12.98c-3.26-4.86-4.59-10.15-6.87-15.54c-5.15-12.19-4.94-25.38,0.98-37.58
			c1.52-3.12,2.82-7.17,4.75-10.05c2-2.99,4.69-3.82,7.19-5.92c3.15,3.12-2,12.22-2.96,15.91c-1.54,5.88-0.3,10.85,0.58,16.75
			c1.06,7.11,2.86,14.2,5.46,20.99c2.14,5.57,5.22,12.68,9.23,17.21c4.86,5.5,13.41,8.54,19.77,12.1
			c5.87,3.29,11.62,6.87,18.52,7.27c7.62,0.44,16.39,1.37,23.82-0.9c7.33-2.23,13.43-7.45,18.47-13.08c2.9-3.24,5.8-6.89,8.35-10.43
			c2.13-2.96,2.5-6.77,3.31-10.28c1.28-5.61,3.51-11.32,4.29-16.87c0.81,1.84-1,4.54-1.12,6.62c-0.16,2.58,0.12,5.16,0.23,7.78
			c0.26,5.96-1.05,8.5-4.17,13.22c-1.27,1.92-1.47,4.31-2.47,6.34c-0.96,1.95-2.73,3.56-3.93,5.42c-2.58,4.02-6.1,9.71-7.38,14.99
			C134.5,97.33,137.42,73.67,137.22,59.9z"/>
		<linearGradient id="SVGID_6_" gradientUnits="userSpaceOnUse" x1="70.7599" y1="159.0694" x2="70.7599" y2="6.7965">
			<stop  offset="0" style="stop-color:#F385AF"/>
			<stop  offset="1" style="stop-color:#F7BAD5"/>
		</linearGradient>
		<path class="st5" d="M89.28,24.9c2.05-0.6,7.19,1.16,9.22,1.78c2.65,0.82,5.13,2.62,7.34,4.29c-5.65-4.79-13.27-8.74-16.71-6.67
			c-0.69,0.41-1.23,1.04-1.65,1.78C87.91,25.55,88.5,25.13,89.28,24.9z M98.95,43.34c-1.9,0.92-6.15-1.73-7.7-3.02
			c-2.19-1.81-4.99-7.58-4.7-11.58c-0.75,4.34,0.96,10.29,4.4,12.79c4.99,3.63,8.61,4.53,9.97,1.36c1.11-2.6-0.2-5.8-0.72-6.88
			C100.46,38.59,101.62,42.05,98.95,43.34z M137.22,59.9c-1.15-10.63-5.12-21-12.34-30.08c-2.69-3.38-5.58-6.41-8.62-9.14
			c5.68,6.02,11.93,15.49,13.67,27.64c2.27,15.86-5.44,43.06-19.49,52.12s-35.35,10.42-55.75-1.36S25.23,63.28,25.68,39.72
			c0.3-15.49,8.62-26.08,14.29-31.53c-4.17,1.69-8.21,3.74-12.03,6.15C15.3,22.3,7.51,37.29,4.29,53.03
			C4.75,74.81,17,94.08,22.96,100.45c6.8,7.25,47.14,42.15,84.75,18.58C133.82,102.68,137.44,75.19,137.22,59.9z M133.62,81.12
			c-2.22,4.86-3.2,9.27-6.34,13.58c-3.37,4.64-5.77,9.8-9.66,14.14c-8.38,9.34-21.1,13.5-33.18,15.85
			c-6.19,1.21-13.3-0.83-19.38-1.89c-4.38-0.76-7.65-2.93-11.43-5.13c-3.43-2-7.06-2.87-10.58-4.53
			c-4.75-2.24-9.56-7.32-13.61-10.81c-4.22-3.65-7.73-7.93-11.78-11.61c-3.26-2.97-3.38-8.22-5.37-12.09
			c-2.19-4.25-2.86-8.51-4.14-12.91c-1.27-4.34-2.58-7.8-1.39-12.28C7.81,49.51,8,45.4,9.07,41.4c1.15-4.31,4.09-7.07,5.59-11.07
			c0.65-1.72,1.15-3.45,1.77-5.12c2.26-2.85,5.17-5.33,7.91-7.18c1.97-1.32,4.03-3.69,6.21-4.58c0.69-0.28,1.49-0.32,2.28-0.36
			c-1.36,2.15-2.77,4.36-3.81,6.5c-1.59,3.26-1.96,6.95-3.52,10.29c-3.31,7.07-2.41,17-0.94,24.33c0.74,3.67,2.21,7.05,3.09,10.83
			c1.1,4.73,2.31,9.07,4.91,13.27c2.2,3.55,3.74,7.08,5.66,10.79c2.03,3.92,7.03,5.74,10.87,7.55c4.54,2.14,8,5.16,12.18,7.78
			c5.53,3.48,9.45,4.13,15.88,4.15c5.75,0.03,11.39,1.18,17.2,0.91c6.39-0.3,9.78-3.44,14.88-6.34c5.25-2.99,7.22-6,10.7-10.88
			c3.16-4.44,6.29-8.59,7.36-13.89c0.8-3.98,1.81-7.49,2.56-11.49c0.72-3.8,2.98-8.16,2.42-12.09c-0.52-3.64-1.6-7.54-2.17-11.17
			c-0.13-0.85-0.31-2.43-0.57-4.3c0.93,0.94,1.9,1.84,2.43,3.06c0.95,2.18,0.7,4.74,1.45,6.98c1,2.97,1.85,4.37,1.8,7.58
			c-0.04,2.7-0.32,4.91-0.82,7.62C133.25,70.54,136.24,75.4,133.62,81.12z M86.87,71.44c12.69,2.72,20.85,1.36,25.38-5.89
			s3.17-23.57-1.81-29.91c-0.36-0.46-0.77-0.93-1.19-1.4c0.4,1.24,0.89,2.44,1.57,3.6c1.57,2.67,2.35,4.03,2.34,7.33
			c-0.01,4.8-0.25,9.5-0.97,14.13c-1.33,8.49-11.85,12.47-19.54,10.97c-10.05-1.97-19.48-5.84-26.39-13.62
			c-3.77-4.25-8.6-8.3-12.03-12.69c-2.73-3.49-2.82-10.07-4.15-14.19c-1.57-4.86-1.34-9.98,1.51-14.13c2.19-3.2,3.12-6.9,4.88-10.31
			c0.94-0.07,1.92-0.1,2.98-0.04c3.72,0.19,6.66-0.61,10.36-0.61c1.03,0,1.92,0.1,2.75,0.25c-0.87,0.8-1.9,1.53-2.54,2.47
			c-1.08,1.61-1.45,3.06-2.78,4.46c-2.64,2.77-3.83,4.84-4.81,8.68c-0.88,3.45-2.03,7.25-1.84,10.88c0.21,4.01,3.27,7,5.14,10.36
			c3.82,6.83,9.47,11.45,15.55,16.38c5.89,4.79,12.6,5.31,20.1,4.83c5.08-0.32,8.61-5.51,8.74-10.71c0.09-0.37,0.12-0.78,0.11-1.19
			c1.37-2.62-0.5-9.26-1.07-10.74c-1.27-3.29-3.81-8.1-6.95-9.91c-2.62-1.51-10.61-2.19-12.03,1.42c-1.19,3.02,4.42,10.38,7.52,8.73
			c0.56-1.57,1.62-3.04,2.49-4.59c-0.11-0.22-0.18-0.35-0.18-0.35S98.2,37,97.75,39.72c-0.45,2.72-6.8-2.27-6.35-6.8
			c0.45-4.53,8.61-4.53,12.69-0.45s7.25,15.86,4.99,22.66c-2.27,6.8-9.97,9.52-19.94,6.35S62.39,38.81,62.39,27.48
			c0-10.42,8.43-24.65,24.23-22.65c-10.19-2.6-20.78-2.9-31-1.11C50.17,9.26,43.6,19.56,48.8,34.28
			C56.96,57.39,74.18,68.72,86.87,71.44z"/>

			<radialGradient id="SVGID_7_" cx="90.2835" cy="150.3491" r="9.6507" gradientTransform="matrix(1.8229 0 0 1.8229 -120.0121 -151.2328)" gradientUnits="userSpaceOnUse">
			<stop  offset="0" style="stop-color:#F4A9CA"/>
			<stop  offset="1" style="stop-color:#F05E94"/>
		</radialGradient>
		<path class="st6" d="M22.21,111.93c0,0,25.38,18.73,44.72,21.76C66.93,133.68,39.73,136.1,22.21,111.93z"/>
	</g>
</g>
</svg>
