<?xml version="1.0" encoding="utf-8"?>
<!-- Generator: Adobe Illustrator 24.0.3, SVG Export Plug-In . SVG Version: 6.00 Build 0)  -->
<svg version="1.1" id="Layer_1" xmlns="http://www.w3.org/2000/svg" xmlns:xlink="http://www.w3.org/1999/xlink" x="0px" y="0px"
	 viewBox="0 0 290.78 115.19" style="enable-background:new 0 0 290.78 115.19;" xml:space="preserve">
<style type="text/css">
	.st0{fill:url(#SVGID_1_);}
	.st1{fill:url(#SVGID_2_);}
	.st2{fill:url(#SVGID_3_);}
	.st3{fill:url(#SVGID_4_);}
	.st4{fill:url(#SVGID_5_);}
	.st5{fill:url(#SVGID_6_);}
	.st6{fill:url(#SVGID_7_);}
	.st7{fill:url(#SVGID_8_);}
	.st8{fill:url(#SVGID_9_);}
	.st9{fill:url(#SVGID_10_);}
	.st10{fill:url(#SVGID_11_);}
	.st11{fill:url(#SVGID_12_);}
	.st12{fill:url(#SVGID_13_);}
	.st13{fill:url(#SVGID_14_);}
	.st14{fill:url(#SVGID_15_);}
	.st15{fill:url(#SVGID_16_);}
	.st16{fill:url(#SVGID_17_);}
	.st17{fill:url(#SVGID_18_);}
	.st18{fill:url(#SVGID_19_);}
	.st19{fill:url(#SVGID_20_);}
	.st20{fill:url(#SVGID_21_);}
	.st21{fill:url(#SVGID_22_);}
	.st22{fill:url(#SVGID_23_);}
	.st23{fill:url(#SVGID_24_);}
	.st24{fill:url(#SVGID_25_);}
	.st25{fill:url(#SVGID_26_);}
	.st26{fill:url(#SVGID_27_);}
	.st27{fill:url(#SVGID_28_);}
	.st28{fill:url(#SVGID_29_);}
	.st29{fill:url(#SVGID_30_);}
	.st30{fill:url(#SVGID_31_);}
	.st31{fill:url(#SVGID_32_);}
	.st32{fill:url(#SVGID_33_);}
	.st33{fill:url(#SVGID_34_);}
	.st34{fill:url(#SVGID_35_);}
	.st35{fill:url(#SVGID_36_);}
	.st36{fill:url(#SVGID_37_);}
	.st37{fill:url(#SVGID_38_);}
</style>
<g>
	<g>
		<g>

				<linearGradient id="SVGID_1_" gradientUnits="userSpaceOnUse" x1="-546.7529" y1="272.1205" x2="-544.1662" y2="294.9698" gradientTransform="matrix(0.6641 0.0517 -0.0934 1.2013 458.6352 -267.2298)">
				<stop  offset="0" style="stop-color:#056440"/>
				<stop  offset="0.2976" style="stop-color:#045F40"/>
				<stop  offset="0.7432" style="stop-color:#02533E"/>
				<stop  offset="1" style="stop-color:#004A3C"/>
			</linearGradient>
			<path class="st0" d="M101.65,93.24c-0.01-0.05-0.02-0.11-0.04-0.16c-0.09-0.31-8.47-29.7-11.79-43.96
				c-1.89-8.12-3.26-9.97-5.15-10.59c-0.28-0.09-0.57-0.16-0.87-0.23c-0.33-0.08-0.67-0.16-1.04-0.27c-0.7-0.23-1.33-0.55-1.96-1.03
				c-0.16-0.12-0.32-0.25-0.48-0.39c-0.64-1.2-5.54-10.03-12.21-12.28c-1.85-0.62-3.7-0.69-5.5-0.18c-3.02-0.2-5.62,1.2-7.52,4.08
				l-0.46,0.7c-4.55,6.93-14.67,22.34-19.65,22.31c-0.21,0-0.38,0.27-0.43,0.65c-0.04,0.38,0.06,0.78,0.24,0.96
				c0,0,0.15,0.15,0.44,0.37c0.17,0.13,0.39,0.29,0.66,0.47c0,0,0.05,0.04,0.05,0.04c0.13,0.08,0.26,0.17,0.44,0.28l0.05,0.03
				c0.15,0.09,0.31,0.18,0.5,0.28c0.17,0.09,0.35,0.18,0.55,0.28l0.11,0.05c0.18,0.09,0.38,0.17,0.58,0.26l0.14,0.06
				c0.2,0.08,0.41,0.16,0.65,0.24l0.05,0.02c0.22,0.08,0.46,0.15,0.7,0.22l0.17,0.05c0.24,0.07,0.49,0.13,0.75,0.19l0.18,0.04
				c0.26,0.06,0.53,0.11,0.81,0.15c0,0,0.06,0.01,0.06,0.01c0.29,0.04,0.58,0.07,0.89,0.1l0.2,0.02c0.3,0.02,0.61,0.04,0.93,0.04
				l0.2,0c0.33,0,0.67-0.01,1.04-0.03c0.35-0.02,0.71-0.06,1.08-0.1l0.21-0.03c0.36-0.05,0.72-0.11,1.09-0.19l0.21-0.05
				c0.39-0.08,0.78-0.18,1.19-0.29c5.38-1.52,8.18-4.41,10.83-7.14c1.48-1.53,2.86-2.95,4.6-4.03c0.29-0.18,0.57-0.35,0.84-0.52
				l0.81-0.48l0.78-0.45c0.12-0.07,0.75-0.41,0.75-0.41c0.15-0.08,0.73-0.37,0.73-0.37c0.15-0.07,0.29-0.14,0.44-0.2l0.27-0.12
				c0.15-0.06,0.29-0.12,0.44-0.18l0.25-0.1c0.15-0.06,0.3-0.11,0.44-0.16l0.22-0.07c0.15-0.05,0.3-0.09,0.45-0.13l0.2-0.05
				c0.16-0.04,0.31-0.07,0.46-0.1l0.16-0.03c0.16-0.03,0.33-0.05,0.49-0.07l0.11-0.01c0.17-0.01,0.34-0.02,0.51-0.02
				c0.64,3.46,1.33,8.19,2.14,13.72c2.2,15.01,5.07,34.59,9.47,47.36l20.09,4.77c0-0.1-0.01-0.2-0.03-0.3L101.65,93.24z"/>
			<g>
				<g>

						<linearGradient id="SVGID_2_" gradientUnits="userSpaceOnUse" x1="-582.2319" y1="300.2418" x2="-556.3308" y2="276.5822" gradientTransform="matrix(0.6641 0.0517 -0.0934 1.2013 458.6352 -267.2298)">
						<stop  offset="0" style="stop-color:#07744C"/>
						<stop  offset="0.3128" style="stop-color:#066F4C"/>
						<stop  offset="0.7812" style="stop-color:#046149"/>
						<stop  offset="1" style="stop-color:#025A48"/>
					</linearGradient>
					<path class="st1" d="M66.52,26c0,0-6.75-3.87-11.16,2.86C50.77,35.87,40.3,52.12,34.99,52.1c0,0,5.02,4.84,13.65,2.43
						c8.3-2.32,10.47-8.08,15.35-11.1c4.74-2.93,8-4.57,11.88-2.68c3.84,1.88-1.52-8.31-1.52-8.31L66.52,26z"/>
					<g>

							<linearGradient id="SVGID_3_" gradientUnits="userSpaceOnUse" x1="-582.9837" y1="299.4176" x2="-557.0782" y2="275.7539" gradientTransform="matrix(0.6641 0.0517 -0.0934 1.2013 458.6352 -267.2298)">
							<stop  offset="0" style="stop-color:#056440"/>
							<stop  offset="0.2976" style="stop-color:#045F40"/>
							<stop  offset="0.7432" style="stop-color:#02533E"/>
							<stop  offset="1" style="stop-color:#004A3C"/>
						</linearGradient>
						<path class="st2" d="M75.52,35.08c-0.01-0.11-0.03-0.23-0.05-0.35c-0.6-1.3-1.12-2.29-1.12-2.29L66.52,26
							c0,0-6.75-3.87-11.16,2.86C50.77,35.87,40.3,52.12,34.99,52.1c0,0,5.02,4.84,13.65,2.43c8.3-2.32,10.47-8.08,15.35-11.1
							c4.41-2.73,7.53-4.33,11.05-3.02C75.44,38.05,75.64,36.15,75.52,35.08z M50.76,44.63c-1.62,1.88-4.04,2.94-6.33,3.53
							c2.06-3.73,8.02-14.43,10.79-18.32c2.34-1.28,5.01-1.3,6.44-0.58C63.55,30.2,54.6,40.18,50.76,44.63z"/>
					</g>
					<g>

							<linearGradient id="SVGID_4_" gradientUnits="userSpaceOnUse" x1="-582.0132" y1="300.4713" x2="-556.1157" y2="276.8149" gradientTransform="matrix(0.6641 0.0517 -0.0934 1.2013 458.6352 -267.2298)">
							<stop  offset="0" style="stop-color:#038354"/>
							<stop  offset="0.3431" style="stop-color:#047D55"/>
							<stop  offset="0.8569" style="stop-color:#036E54"/>
							<stop  offset="1" style="stop-color:#036954"/>
						</linearGradient>
						<path class="st3" d="M48.64,54.53c8.3-2.32,10.47-8.08,15.35-11.1c4.74-2.93,8-4.57,11.88-2.68c3.84,1.88-1.52-8.31-1.52-8.31
							l-1.37-1.13c-0.76-0.43-1.58-0.81-2.46-1.1c-7.78-2.57-13.78,10.97-20.25,17.13c-5.52,5.26-12.5,5.27-14.88,5.1
							C36.76,53.51,41.46,56.54,48.64,54.53z"/>
					</g>
				</g>
				<g>

						<linearGradient id="SVGID_5_" gradientUnits="userSpaceOnUse" x1="-524.6362" y1="266.3855" x2="-523.343" y2="297.4239" gradientTransform="matrix(0.6641 0.0517 -0.0934 1.2013 458.6352 -267.2298)">
						<stop  offset="0" style="stop-color:#16A572"/>
						<stop  offset="0.3364" style="stop-color:#129F71"/>
						<stop  offset="0.8403" style="stop-color:#069170"/>
						<stop  offset="1" style="stop-color:#018B6F"/>
					</linearGradient>
					<path class="st4" d="M103.81,106.47l-19.18-4.55c-6.75-19.01-10.01-54.76-12.46-64.65c-2.63-10.58-9.72-12.3-9.72-12.3
						c9.77-3.04,17.7,12.27,17.7,12.27c0.2,0.17,0.39,0.33,0.58,0.47c4.17,3.12,5.66-1.71,8.76,11.62
						c3.36,14.49,11.81,44.1,11.81,44.1L103.81,106.47z"/>

						<linearGradient id="SVGID_6_" gradientUnits="userSpaceOnUse" x1="-530.9666" y1="266.6282" x2="-529.7043" y2="296.9224" gradientTransform="matrix(0.6641 0.0517 -0.0934 1.2013 458.6352 -267.2298)">
						<stop  offset="0" style="stop-color:#129465"/>
						<stop  offset="0.3731" style="stop-color:#0F8E65"/>
						<stop  offset="0.932" style="stop-color:#087D63"/>
						<stop  offset="1" style="stop-color:#077A63"/>
					</linearGradient>
					<path class="st5" d="M95.46,104.49l-10.83-2.57c-6.75-19.01-10.01-54.76-12.46-64.65c-2.63-10.58-9.72-12.3-9.72-12.3
						c9.77-3.04,17.7,12.27,17.7,12.27c0.2,0.17,0.39,0.33,0.58,0.47c0.89,3.53,3.88,16,5.58,30.52
						C87.88,81.59,92.22,95.78,95.46,104.49z"/>
					<g>

							<linearGradient id="SVGID_7_" gradientUnits="userSpaceOnUse" x1="-530.9666" y1="266.6282" x2="-529.7043" y2="296.9224" gradientTransform="matrix(0.6641 0.0517 -0.0934 1.2013 458.6352 -267.2298)">
							<stop  offset="0" style="stop-color:#058D5E"/>
							<stop  offset="0.365" style="stop-color:#04865E"/>
							<stop  offset="0.9117" style="stop-color:#01765D"/>
							<stop  offset="1" style="stop-color:#01735C"/>
						</linearGradient>
						<path class="st6" d="M86.31,68.22c-1.7-14.52-4.69-26.99-5.58-30.52c-0.19-0.14-0.38-0.3-0.58-0.47c0,0-7.93-15.31-17.7-12.27
							c0,0,7.09,1.73,9.72,12.3c2.46,9.89,5.72,45.65,12.46,64.65l2.23,0.53c-5.34-11.37-9.91-39.42-10.95-50.56
							c-0.74-7.93-2.65-16.53-3.68-20.8c2.55,1.47,5.42,3.85,7.61,7.66c0,0,4.08,18.64,4.92,27.96c0.78,8.64,4.69,29.44,7.77,37.08
							l2.93,0.7C92.22,95.78,87.88,81.59,86.31,68.22z"/>
					</g>
				</g>
			</g>
		</g>

			<radialGradient id="SVGID_8_" cx="-545.8953" cy="264.7482" r="10.7073" gradientTransform="matrix(0.6641 0.0517 -0.0934 1.2013 458.6352 -267.2298)" gradientUnits="userSpaceOnUse">
			<stop  offset="0" style="stop-color:#B7DEBC"/>
			<stop  offset="0.1684" style="stop-color:#B0DBB7"/>
			<stop  offset="0.4212" style="stop-color:#9CD3AA"/>
			<stop  offset="0.7253" style="stop-color:#7BC796"/>
			<stop  offset="1" style="stop-color:#4FBC81"/>
		</radialGradient>
		<path class="st7" d="M66.19,25.73c0,0,7.26-0.1,13.3,10.97C79.49,36.7,74.19,28.4,66.19,25.73z"/>

			<radialGradient id="SVGID_9_" cx="-520.8844" cy="279.2935" r="2.4178" gradientTransform="matrix(0.6641 0.0517 -0.0934 1.2013 458.6352 -267.2298)" gradientUnits="userSpaceOnUse">
			<stop  offset="0" style="stop-color:#B7DEBC"/>
			<stop  offset="0.1684" style="stop-color:#B0DBB7"/>
			<stop  offset="0.4212" style="stop-color:#9CD3AA"/>
			<stop  offset="0.7253" style="stop-color:#7BC796"/>
			<stop  offset="1" style="stop-color:#4FBC81"/>
		</radialGradient>
		<path class="st8" d="M83.21,40c0,0,3.84-1.32,5.17,7.01C88.38,47.01,86.94,41.04,83.21,40z"/>

			<radialGradient id="SVGID_10_" cx="-506.0467" cy="303.8078" r="6.6831" gradientTransform="matrix(0.6641 0.0517 -0.0934 1.2013 458.6352 -267.2298)" gradientUnits="userSpaceOnUse">
			<stop  offset="0" style="stop-color:#B7DEBC"/>
			<stop  offset="0.1684" style="stop-color:#B0DBB7"/>
			<stop  offset="0.4212" style="stop-color:#9CD3AA"/>
			<stop  offset="0.7253" style="stop-color:#7BC796"/>
			<stop  offset="1" style="stop-color:#4FBC81"/>
		</radialGradient>
		<path class="st9" d="M89.84,53.08c0,0,6.62,26.38,10.67,37.53C100.5,90.61,94.91,78.14,89.84,53.08z"/>

			<radialGradient id="SVGID_11_" cx="-577.8109" cy="289.1717" r="5.8314" gradientTransform="matrix(0.6641 0.0517 -0.0934 1.2013 458.6352 -267.2298)" gradientUnits="userSpaceOnUse">
			<stop  offset="0" style="stop-color:#6BC6AF"/>
			<stop  offset="0.1638" style="stop-color:#67C4AA"/>
			<stop  offset="0.4097" style="stop-color:#5ABF9C"/>
			<stop  offset="0.7056" style="stop-color:#42B887"/>
			<stop  offset="1" style="stop-color:#0BB06C"/>
		</radialGradient>
		<path class="st10" d="M39.51,53.96c0,0,11.28,3.78,19.6-7.34C59.11,46.63,48.9,55.16,39.51,53.96z"/>
	</g>
	<g>
		<g>
			<linearGradient id="SVGID_12_" gradientUnits="userSpaceOnUse" x1="43.6425" y1="69.664" x2="45.6315" y2="87.2338">
				<stop  offset="0" style="stop-color:#056440"/>
				<stop  offset="0.2976" style="stop-color:#045F40"/>
				<stop  offset="0.7432" style="stop-color:#02533E"/>
				<stop  offset="1" style="stop-color:#004A3C"/>
			</linearGradient>
			<path class="st11" d="M92.09,106.92c-0.01-0.03-0.03-0.07-0.04-0.1c-0.11-0.19-10.98-18.98-15.39-28.79
				c-2.59-5.76-4.66-6.85-7.56-6.85c-0.43,0-0.87,0.02-1.34,0.04c-0.51,0.02-1.03,0.05-1.58,0.05c-1.07,0-2.01-0.1-2.97-0.3
				c-0.24-0.05-0.48-0.11-0.73-0.18c-0.96-0.77-8.32-6.41-18.34-6.41c-2.74,0-5.46,0.44-8.08,1.29c-4.37,0.62-8.02,2.35-10.55,4.99
				l-0.61,0.63C19.03,77.43,6.78,90.2,0.48,91.13C0.22,91.17,0.02,91.38,0,91.64c-0.02,0.26,0.14,0.5,0.39,0.58
				c0,0,0.2,0.07,0.59,0.16c0.22,0.05,0.51,0.12,0.86,0.19c0,0,0.07,0.01,0.07,0.01c0.17,0.03,0.34,0.06,0.57,0.1l0.06,0.01
				c0.19,0.03,0.4,0.06,0.64,0.09c0.22,0.03,0.45,0.05,0.71,0.08l0.14,0.01c0.24,0.02,0.49,0.04,0.75,0.06l0.18,0.01
				c0.26,0.02,0.53,0.03,0.84,0.04l0.06,0c0.29,0.01,0.6,0.01,0.91,0.01l0.22,0c0.31,0,0.64-0.01,0.97-0.02l0.23-0.01
				c0.34-0.01,0.69-0.03,1.05-0.06c0,0,0.08-0.01,0.08-0.01c0.37-0.03,0.75-0.06,1.14-0.1l0.26-0.03c0.39-0.04,0.79-0.09,1.19-0.15
				l0.26-0.04c0.42-0.06,0.86-0.13,1.33-0.21c0.45-0.08,0.91-0.17,1.38-0.27l0.27-0.06c0.46-0.1,0.93-0.21,1.41-0.33l0.28-0.07
				c0.5-0.13,1.01-0.27,1.53-0.42c7.03-2.08,10.67-4.63,14.19-7.1c1.99-1.4,3.87-2.71,6.28-3.88c0.4-0.19,0.79-0.38,1.18-0.56
				l1.14-0.53l1.1-0.5c0.17-0.08,1.06-0.47,1.06-0.47c0.21-0.09,1.04-0.44,1.04-0.44c0.21-0.09,0.42-0.17,0.62-0.25l0.39-0.15
				c0.21-0.08,0.42-0.16,0.63-0.24l0.36-0.13c0.21-0.08,0.43-0.15,0.64-0.22l0.32-0.1c0.22-0.07,0.44-0.14,0.65-0.2l0.29-0.08
				c0.23-0.06,0.45-0.13,0.67-0.18l0.24-0.06c0.24-0.06,0.48-0.12,0.71-0.17l0.16-0.03c0.24-0.05,0.49-0.1,0.74-0.14
				c0.95,2.42,1.96,5.73,3.13,9.54c3.08,10.03,6.9,22.47,12.73,29.85h28.29c0-0.06-0.01-0.12-0.03-0.19L92.09,106.92z"/>
			<g>
				<g>
					<linearGradient id="SVGID_13_" gradientUnits="userSpaceOnUse" x1="12.9457" y1="97.9584" x2="38.8031" y2="74.3386">
						<stop  offset="0" style="stop-color:#07744C"/>
						<stop  offset="0.3128" style="stop-color:#066F4C"/>
						<stop  offset="0.7812" style="stop-color:#046149"/>
						<stop  offset="1" style="stop-color:#025A48"/>
					</linearGradient>
					<path class="st12" d="M41.84,66.08c0,0-9.95-1.24-15.91,4.97C19.96,77.27,7.28,90.7,0.56,91.69c0,0,6.71,2.24,17.65-0.99
						s13.67-7.71,20.39-10.94c6.71-3.23,11.44-5.22,17.16-4.72c5.72,0.5-2.24-5.97-2.24-5.97L41.84,66.08z"/>
					<g>
						<linearGradient id="SVGID_14_" gradientUnits="userSpaceOnUse" x1="12.3059" y1="97.2579" x2="38.1633" y2="73.6382">
							<stop  offset="0" style="stop-color:#056440"/>
							<stop  offset="0.2976" style="stop-color:#045F40"/>
							<stop  offset="0.7432" style="stop-color:#02533E"/>
							<stop  offset="1" style="stop-color:#004A3C"/>
						</linearGradient>
						<path class="st13" d="M55.26,70.81c-0.02-0.08-0.04-0.17-0.07-0.26c-0.89-0.85-1.67-1.48-1.67-1.48l-11.69-2.98
							c0,0-9.95-1.24-15.91,4.97C19.96,77.27,7.28,90.7,0.56,91.69c0,0,6.71,2.24,17.65-0.99s13.67-7.71,20.39-10.94
							c6.23-3,10.75-4.93,15.94-4.79C55.14,73.09,55.43,71.6,55.26,70.81z M20.45,83.49c-2.06,1.65-5.18,2.87-8.14,3.73
							c2.45-2.98,9.82-11.88,13.47-15.4c3.23-1.53,7.02-2.2,9.09-2.01C37.61,70.06,25.43,79.51,20.45,83.49z"/>
					</g>
					<g>
						<linearGradient id="SVGID_15_" gradientUnits="userSpaceOnUse" x1="13.1068" y1="98.1347" x2="38.9642" y2="74.515">
							<stop  offset="0" style="stop-color:#038354"/>
							<stop  offset="0.3431" style="stop-color:#047D55"/>
							<stop  offset="0.8569" style="stop-color:#036E54"/>
							<stop  offset="1" style="stop-color:#036954"/>
						</linearGradient>
						<path class="st14" d="M18.22,90.7c10.94-3.23,13.67-7.71,20.39-10.94c6.71-3.23,11.44-5.22,17.16-4.72
							c5.72,0.5-2.24-5.97-2.24-5.97l-2.05-0.52c-1.14-0.14-2.36-0.22-3.67-0.22c-11.44,0-19.39,11.44-27.85,17.16
							c-6.92,4.68-15.85,6.03-18.85,6.37C2.91,92.28,9.09,93.39,18.22,90.7z"/>
					</g>
				</g>
				<g>
					<linearGradient id="SVGID_16_" gradientUnits="userSpaceOnUse" x1="64.0366" y1="64.7641" x2="65.0311" y2="88.6325">
						<stop  offset="0" style="stop-color:#16A572"/>
						<stop  offset="0.3364" style="stop-color:#129F71"/>
						<stop  offset="0.8403" style="stop-color:#069170"/>
						<stop  offset="1" style="stop-color:#018B6F"/>
					</linearGradient>
					<path class="st15" d="M94.37,115.19H67.36c-9.01-11.02-13.46-35.11-17.08-41.89c-3.98-7.46-14.42-6.96-14.42-6.96
						c14.42-4.97,26.35,4.97,26.35,4.97c0.3,0.08,0.59,0.16,0.88,0.22c6.31,1.37,8.77-2.77,13.05,6.74
						c4.48,9.95,15.41,28.84,15.41,28.84L94.37,115.19z"/>
					<linearGradient id="SVGID_17_" gradientUnits="userSpaceOnUse" x1="58.0796" y1="65.0059" x2="59.0647" y2="88.6476">
						<stop  offset="0" style="stop-color:#129465"/>
						<stop  offset="0.3731" style="stop-color:#0F8E65"/>
						<stop  offset="0.932" style="stop-color:#087D63"/>
						<stop  offset="1" style="stop-color:#077A63"/>
					</linearGradient>
					<path class="st16" d="M82.44,115.19H67.36c-9.01-11.02-13.46-35.11-17.08-41.89c-3.98-7.46-14.42-6.96-14.42-6.96
						c14.42-4.97,26.35,4.97,26.35,4.97c0.3,0.08,0.59,0.16,0.88,0.22c1.28,2.49,5.48,11.12,7.58,21.16
						C72.52,101.55,78.21,110.13,82.44,115.19z"/>
					<g>
						<linearGradient id="SVGID_18_" gradientUnits="userSpaceOnUse" x1="58.0796" y1="65.0059" x2="59.0647" y2="88.6476">
							<stop  offset="0" style="stop-color:#058D5E"/>
							<stop  offset="0.365" style="stop-color:#04865E"/>
							<stop  offset="0.9117" style="stop-color:#01765D"/>
							<stop  offset="1" style="stop-color:#01735C"/>
						</linearGradient>
						<path class="st17" d="M70.68,92.69c-2.09-10.04-6.3-18.68-7.58-21.16c-0.28-0.06-0.58-0.13-0.88-0.22
							c0,0-11.93-9.95-26.35-4.97c0,0,10.44-0.5,14.42,6.96c3.62,6.79,8.07,30.87,17.08,41.89h3.06
							c-7.14-6.35-13.23-24.26-14.67-31.95c-1.06-5.64-3.87-11.66-5.41-14.68c3.81,0.49,8.12,1.6,11.38,3.99
							c0,0,5.72,12.93,6.71,19.39c0.89,5.82,5.82,18.88,9.87,23.25h4.13C78.21,110.13,72.52,101.55,70.68,92.69z"/>
					</g>
				</g>
			</g>
		</g>
		<radialGradient id="SVGID_19_" cx="48.2568" cy="63.8084" r="8.9636" gradientUnits="userSpaceOnUse">
			<stop  offset="0" style="stop-color:#B7DEBC"/>
			<stop  offset="0.1684" style="stop-color:#B0DBB7"/>
			<stop  offset="0.4212" style="stop-color:#9CD3AA"/>
			<stop  offset="0.7253" style="stop-color:#7BC796"/>
			<stop  offset="1" style="stop-color:#4FBC81"/>
		</radialGradient>
		<path class="st18" d="M41.34,65.96c0,0,10.82-1.99,19.89,5.1C61.23,71.06,53.27,65.96,41.34,65.96z"/>
		<radialGradient id="SVGID_20_" cx="71.5468" cy="73.1687" r="2.0084" gradientUnits="userSpaceOnUse">
			<stop  offset="0" style="stop-color:#B7DEBC"/>
			<stop  offset="0.1684" style="stop-color:#B0DBB7"/>
			<stop  offset="0.4212" style="stop-color:#9CD3AA"/>
			<stop  offset="0.7253" style="stop-color:#7BC796"/>
			<stop  offset="1" style="stop-color:#4FBC81"/>
		</radialGradient>
		<path class="st19" d="M66.82,72.67c0,0,5.97-1.99,7.71,4.1C74.53,76.77,72.54,72.55,66.82,72.67z"/>
		<radialGradient id="SVGID_21_" cx="82.4865" cy="93.059" r="5.1014" gradientUnits="userSpaceOnUse">
			<stop  offset="0" style="stop-color:#B7DEBC"/>
			<stop  offset="0.1684" style="stop-color:#B0DBB7"/>
			<stop  offset="0.4212" style="stop-color:#9CD3AA"/>
			<stop  offset="0.7253" style="stop-color:#7BC796"/>
			<stop  offset="1" style="stop-color:#4FBC81"/>
		</radialGradient>
		<path class="st20" d="M76.52,81c0,0,8.7,17.53,14.05,24.37C90.57,105.37,82.98,97.91,76.52,81z"/>
		<radialGradient id="SVGID_22_" cx="17.2313" cy="87.5446" r="5.3156" gradientUnits="userSpaceOnUse">
			<stop  offset="0" style="stop-color:#6BC6AF"/>
			<stop  offset="0.1638" style="stop-color:#67C4AA"/>
			<stop  offset="0.4097" style="stop-color:#5ABF9C"/>
			<stop  offset="0.7056" style="stop-color:#42B887"/>
			<stop  offset="1" style="stop-color:#0BB06C"/>
		</radialGradient>
		<path class="st21" d="M6.41,92.06c0,0,14.79,0.37,25.48-8.95C31.89,83.11,18.59,91.07,6.41,92.06z"/>
	</g>
	<g>
		<linearGradient id="SVGID_23_" gradientUnits="userSpaceOnUse" x1="190.2173" y1="139.433" x2="190.2173" y2="3.8018">
			<stop  offset="0" style="stop-color:#781214"/>
			<stop  offset="1" style="stop-color:#CA1D5B"/>
		</linearGradient>
		<path class="st22" d="M282.42,57.22c-7.84-19.31-20.67-34.11-38.12-43.99C228.77,4.45,212.26,0,195.22,0
			c-28.03,0-55.72,12.43-75.98,34.09c-10.05,10.75-17.73,23.09-22.81,36.69c-5.34,14.27-7.54,29.22-6.53,44.41h200.37
			C292,94.19,289.29,74.15,282.42,57.22z"/>
		<linearGradient id="SVGID_24_" gradientUnits="userSpaceOnUse" x1="190.2192" y1="115.56" x2="190.2192" y2="4.5255">
			<stop  offset="0" style="stop-color:#EB1948"/>
			<stop  offset="1" style="stop-color:#F0628E"/>
		</linearGradient>
		<path class="st23" d="M288.85,115.19H91.31C85.98,35.97,170.7-26.78,243.6,14.46C280,35.05,292.15,75.73,288.85,115.19z"/>
		<g>
			<linearGradient id="SVGID_25_" gradientUnits="userSpaceOnUse" x1="209.6265" y1="115.56" x2="209.6265" y2="4.5255">
				<stop  offset="0" style="stop-color:#991B28"/>
				<stop  offset="1" style="stop-color:#E51A51"/>
			</linearGradient>
			<path class="st24" d="M225.99,10.47c2.98,1.66,6.96,7.29,11.6,9.61c4.64,2.32,10.94,8.95,13.92,13.59
				c2.98,4.64,2.98,13.26,4.31,17.57c1.33,4.31-9.61,14.92-15.25,16.58c-5.64,1.66-24.53,4.64-28.84,6.3
				c-4.31,1.66-24.86-0.99-28.84-2.65c-3.98-1.66-12.27-7.62-15.58-11.6c-3.32-3.98-5.97-7.29-4.97-11.6
				c0.99-4.31,2.32-7.96,4.64-12.93c2.32-4.97,6.63-9.28,11.27-11.6c4.64-2.32,13.59-2.65,18.23-4.31
				c4.64-1.66,12.93-0.66,16.91,0.66c3.98,1.33,8.29,6.3,11.27,8.62c2.98,2.32,4.31,8.29,1.99,10.94c-2.32,2.65-7.96,4.31-11.27,6.3
				c-3.32,1.99-7.96,2.98-12.27,2.65c-4.31-0.33-10.28-2.32-12.93-4.64c-2.65-2.32-5.64-4.97-3.98-6.96
				c1.66-1.99,5.64-3.98,9.28-4.64c3.65-0.66,6.3-0.99,6.96,0.33c0.66,1.33-2.32,2.98,0,4.97c2.32,1.99,5.64,2.98,7.62,1.66
				c1.99-1.33,3.98-4.97,2.65-6.96c-1.33-1.99-3.65-4.31-7.96-5.64c-4.31-1.33-8.95-1.99-12.93-0.66c-3.98,1.33-9.61,4.31-11.6,5.64
				c-1.99,1.33-6.63,8.95-4.64,11.93s6.96,7.62,9.28,8.95c2.32,1.33,6.63,3.98,10.94,3.98c4.31,0,12.27-1.66,15.25-1.66
				s18.56-3.32,21.55-5.64c2.98-2.32,5.97-6.3,6.3-9.61c0.33-3.32-0.66-8.29-2.65-12.27s-4.97-7.62-9.28-9.61
				c-4.31-1.99-7.96-4.64-12.6-5.97c-4.64-1.33-7.96-3.65-14.25-2.98c-6.3,0.66-16.58,1.66-20.55,2.32
				c-3.98,0.66-14.59,3.65-17.57,6.3c-2.98,2.65-11.93,10.28-14.25,12.6c-2.32,2.32-10.94,10.94-10.94,23.87
				c0,0-0.33,7.29,2.98,11.6c3.32,4.31,7.62,7.62,9.61,9.95c1.99,2.32,3.98,7.29,9.28,9.28c5.3,1.99,14.59,4.64,18.56,6.3
				c3.98,1.66,37.13,5.97,43.1,4.31c5.97-1.66,18.23-4.64,22.87-4.64s17.24-4.31,21.55-7.29c4.31-2.98,11.6-13.26,14.25-14.25
				c1.92-0.72,3.14-4.74,3.42-7.91c-6.96-19.15-19.47-35.81-38.85-46.78c-16.3-9.22-33.2-13.24-49.55-13.04
				c3.99,1.38,11.59,3.93,14.7,4.41C213.06,6.49,223,8.82,225.99,10.47z"/>
			<linearGradient id="SVGID_26_" gradientUnits="userSpaceOnUse" x1="124.0975" y1="115.56" x2="124.0975" y2="4.5255">
				<stop  offset="0" style="stop-color:#991B28"/>
				<stop  offset="1" style="stop-color:#E51A51"/>
			</linearGradient>
			<path class="st25" d="M126.87,98.98c-1.66-2.98-9.61-11.93-11.93-15.91c-2.32-3.98-3.65-14.59-1.66-18.23
				c1.99-3.65,4.64-11.93,5.3-16.24c0.66-4.31,12.6-19.89,15.91-22.21c2.31-1.62,4.46-6.13,7.68-9.39
				c-27.58,17.25-47.63,47.23-50.7,81.84c0.54,2.44,1.45,5.15,2.9,6.45c2.31,2.05,3.62,6.47,4.71,9.9h57.63
				c-3.17-1.64-8.41-4.38-11.29-5.93C141.12,106.94,128.52,101.97,126.87,98.98z"/>
		</g>
		<g>
			<linearGradient id="SVGID_27_" gradientUnits="userSpaceOnUse" x1="120.8752" y1="115.56" x2="120.8752" y2="4.5255">
				<stop  offset="0" style="stop-color:#F385AF"/>
				<stop  offset="1" style="stop-color:#F7BAD5"/>
			</linearGradient>
			<path class="st26" d="M113.46,54.42c2.65-12.82,15.52-26.42,25.57-35.38C115.28,35.07,97.66,60.7,92.57,90.43
				c1.98,11.71,7.97,20.32,11.73,24.75h44.88C102.36,93,109.01,75.92,113.46,54.42z"/>
			<linearGradient id="SVGID_28_" gradientUnits="userSpaceOnUse" x1="209.3699" y1="115.56" x2="209.3699" y2="4.5255">
				<stop  offset="0" style="stop-color:#F385AF"/>
				<stop  offset="1" style="stop-color:#F7BAD5"/>
			</linearGradient>
			<path class="st27" d="M259.01,44.54c3.09,10.32-6.39,18.88-14.32,23.4c-11.11,6.33-24.3,8.4-36.93,8.5
				c-41.11,0.33-49.06-21.22-47.41-32.82c1.66-11.6,15.58-25.86,37.46-27.18c21.88-1.33,28.18,10.61,31.49,15.25
				c3.32,4.64-0.66,11.93-14.25,16.91c-13.59,4.97-26.85-0.99-30.5-7.96c-3.65-6.96,6.96-10.61,13.92-10.61s9.28,3.98,7.62,5.3
				c-1.66,1.33-0.99,2.32-0.99,2.32c3.65,0.66,5.64,0.33,6.3-2.98c0.66-3.32-2.65-6.3-10.28-7.29c-7.62-0.99-19.23,1.99-22.54,8.62
				s3.65,19.56,21.88,18.9s37.46-7.62,36.8-19.56c-0.66-11.93-20.88-25.86-44.09-24.53c-23.21,1.33-45.75,15.25-52.71,35.47
				c-6.96,20.22,14.25,35.8,38.12,42.76s65.97,1.99,86.19-9.28c16.37-9.13,15.36-21.95,14.38-26.49
				c-7.35-15.78-18.91-29.39-35.56-38.81c-15.03-8.5-30.56-12.58-45.7-13.01c14.37,0.7,28.2,5.51,39.47,14.85
				C246.12,23.55,255.66,33.36,259.01,44.54z"/>
		</g>
		<g>
			<linearGradient id="SVGID_29_" gradientUnits="userSpaceOnUse" x1="118.2821" y1="115.56" x2="118.2821" y2="4.5255">
				<stop  offset="0" style="stop-color:#F6ACCC"/>
				<stop  offset="1" style="stop-color:#F9E6F1"/>
			</linearGradient>
			<path class="st28" d="M118.25,99.98c-4.64-2.32-5.64-7.29-6.96-13.26c-1.33-5.97-1.33-10.61-3.32-14.59
				c-1.99-3.98,1.99-11.93,3.65-16.24c1.66-4.31,6.63-16.58,6.63-16.58c-4.64,3.32-14.25,22.87-16.24,25.53
				c-1.99,2.65-3.98,10.28-4.97,15.58c-0.99,5.3-2.32,9.61-2.32,9.61s0,3.65,2.32,6.63c2.32,2.98,3.32,10.61,5.64,12.6
				c1.66,1.42,4.16,4.36,5.45,5.93h33.73c-3.04-1.88-6.86-4.43-9.02-6.59C128.86,104.62,122.89,102.3,118.25,99.98z"/>
			<linearGradient id="SVGID_30_" gradientUnits="userSpaceOnUse" x1="210.0379" y1="115.56" x2="210.0379" y2="4.5255">
				<stop  offset="0" style="stop-color:#F6ACCC"/>
				<stop  offset="1" style="stop-color:#F9E6F1"/>
			</linearGradient>
			<path class="st29" d="M259.8,40.64c2.65,2.98,3.32,13.59-2.98,19.56c-6.3,5.97-13.59,11.27-16.24,12.6
				c-2.65,1.33-16.58,5.64-23.87,5.3c-7.29-0.33-23.54-0.66-28.51-0.99c-4.97-0.33-15.91-4.97-20.55-9.95s-7.29-8.95-9.28-13.26
				s-2.32-12.6,0.66-15.91c2.98-3.32,4.97-6.96,8.29-10.94c3.32-3.98,10.28-8.29,13.59-9.28c3.32-0.99,14.92-2.65,17.9-2.98
				c2.98-0.33,15.58,1.99,18.23,3.32c2.65,1.33,7.96,6.63,10.28,8.95s4.64,4.31,3.65,9.61c-0.99,5.3-3.98,6.96-6.96,8.95
				c-2.98,1.99-9.61,4.97-14.25,5.64c-4.64,0.66-11.93,0-15.25-1.33s-7.62-4.31-9.95-6.96c-2.32-2.65-2.98-4.97-1.66-7.29
				c1.33-2.32,6.3-4.97,8.95-5.64c2.65-0.66,5.97-1.66,8.62-0.99c2.65,0.66,5.64,1.33,6.3,2.65c0.66,1.33,0.33,2.65,0.99,3.98
				c0.66,1.33,1.99-0.33,1.99-1.66c0-1.33-5.64-9.95-19.56-4.97c0,0-12.6,4.64-10.94,11.27c1.66,6.63,5.97,9.95,11.6,11.27
				c5.64,1.33,16.91,3.98,28.18-1.33c11.27-5.3,16.24-7.29,16.58-12.93c0.33-5.64-5.97-18.9-22.21-22.87s-32.82-2.32-44.75,3.98
				c-11.93,6.3-13.92,9.95-17.24,13.92c-3.32,3.98-11.27,11.6-9.95,19.56c0,0,0.33,10.61,5.3,15.25c4.97,4.64,9.95,7.62,13.26,10.94
				c3.32,3.32,14.25,9.28,23.21,10.28c8.95,0.99,17.24,0.66,25.53,1.33c8.29,0.66,20.55-0.33,28.18-3.32
				c7.62-2.98,16.58-4.64,22.54-6.3c5.97-1.66,11.93-4.97,14.59-11.6c2.5-6.25,6.47-8.38,3.86-17.78
				c-7.38-14.69-18.58-27.34-34.31-36.25c-5.25-2.97-10.57-5.39-15.9-7.31c5.1,3.56,12.2,8.81,17.19,13.61
				C253.5,29.04,257.15,37.66,259.8,40.64z"/>
		</g>
		<g>
			<linearGradient id="SVGID_31_" gradientUnits="userSpaceOnUse" x1="118.2821" y1="115.56" x2="118.2821" y2="4.5255">
				<stop  offset="0" style="stop-color:#FBE8F1"/>
				<stop  offset="1" style="stop-color:#FFFFFF"/>
			</linearGradient>
			<path class="st30" d="M132.83,108.6c-3.98-3.98-9.95-6.3-14.59-8.62c-4.64-2.32-5.64-7.29-6.96-13.26
				c-1.33-5.97-1.33-10.61-3.32-14.59c-1.99-3.98,1.99-11.93,3.65-16.24c1.66-4.31,6.63-16.58,6.63-16.58
				c-4.64,3.32-14.25,22.87-16.24,25.53c-1.99,2.65-3.98,10.28-4.97,15.58c-0.99,5.3-2.32,9.61-2.32,9.61s0,3.65,2.32,6.63
				c2.32,2.98,3.32,10.61,5.64,12.6c1.1,0.94,2.56,2.54,3.8,3.97l0.01-0.41c-4.25-3.67-4.43-10.49-6.89-15.17
				c-1.35-2.58-3.31-4.1-3.18-7.09c0.15-3.16,1.03-6.73,1.8-9.81c1.46-5.89,2.79-12.54,6.16-17.67c3.3-5.02,5.51-10.6,9.18-15.3
				c-1.27,2.08-2.53,4.18-3.53,6.42c-1.27,2.85-1.57,5.63-2.49,8.64c-0.88,2.87-2.39,6.21-1.8,9.45c0.59,3.27,2.52,6.03,2.99,9.46
				c0.57,4.16,0.61,8.43,1.8,12.48c1.95,6.63,5.09,7.6,10.94,10.21c5.83,2.6,9.9,7.13,14.83,10.75h5.56
				C138.81,113.31,134.99,110.76,132.83,108.6z"/>
			<linearGradient id="SVGID_32_" gradientUnits="userSpaceOnUse" x1="255.8102" y1="115.56" x2="255.8102" y2="4.5255">
				<stop  offset="0" style="stop-color:#FBE8F1"/>
				<stop  offset="1" style="stop-color:#FFFFFF"/>
			</linearGradient>
			<path class="st31" d="M277.91,50.7c-7.38-14.69-18.58-27.34-34.31-36.25c-3.56-2.01-7.15-3.77-10.75-5.29
				c4.65,2.77,10.18,4.46,14.41,7.74c2.31,1.8,3.96,4.19,5.97,6.34c2.22,2.37,5.03,4.03,7.4,6.28c2.65,2.52,4.68,5.31,6.72,8.33
				c1.86,2.75,4.39,5.12,5.89,8.08c1.29,2.55,1.68,5.54,2.61,8.2c1.16,3.31,0.96,5.03,0.46,8.32c-0.08,0.54-0.14,1.16-0.17,1.81
				C278.17,60.65,279.86,57.68,277.91,50.7z"/>
			<linearGradient id="SVGID_33_" gradientUnits="userSpaceOnUse" x1="212.0479" y1="115.56" x2="212.0479" y2="4.5255">
				<stop  offset="0" style="stop-color:#FBE8F1"/>
				<stop  offset="1" style="stop-color:#FFFFFF"/>
			</linearGradient>
			<path class="st32" d="M166.91,66.95c1.32,1.79,1.96,4.21,3.6,5.85c3.12,3.14,8.53,3.67,12.57,4.93c3.3,1.03,6.64,1.94,10.07,2.29
				c2.61,0.27,4.75-0.46,7.37-0.71c6.83-0.67,14.22,0.41,21.08,0.75c6.09,0.3,10.91-1.82,16.64-3.83c8.12-2.85,17.89-11,22.29-18.48
				c2.42-4.12,2.82-10.14,1.72-14.91c-1.11-4.8-5.74-9.54-9.4-12.73c3.31,4.72,5.33,8.69,6.96,10.52
				c2.65,2.98,3.32,13.59-2.98,19.56c-6.3,5.97-13.59,11.27-16.24,12.6c-2.65,1.33-16.58,5.64-23.87,5.3
				c-7.29-0.33-23.54-0.66-28.51-0.99c-4.97-0.33-15.91-4.97-20.55-9.95c-2.72-2.91-4.75-5.48-6.37-7.98
				c0.5,1.11,1.06,2.17,1.71,3.17C164.1,64.08,165.71,65.34,166.91,66.95z"/>
			<linearGradient id="SVGID_34_" gradientUnits="userSpaceOnUse" x1="193.6917" y1="115.56" x2="193.6917" y2="4.5255">
				<stop  offset="0" style="stop-color:#FBE8F1"/>
				<stop  offset="1" style="stop-color:#FFFFFF"/>
			</linearGradient>
			<path class="st33" d="M192.5,29.04c3.79-0.74,7.83-1.28,11.69-0.06c1.66,0.53,2.81,1.45,4.1,2.58c-2.46-2.7-8.17-6.07-18.11-2.53
				c0,0-12.6,4.64-10.94,11.27c0.06,0.25,0.14,0.49,0.21,0.74C180.24,34.61,185.99,30.3,192.5,29.04z"/>
			<linearGradient id="SVGID_35_" gradientUnits="userSpaceOnUse" x1="188.4591" y1="115.56" x2="188.4591" y2="4.5255">
				<stop  offset="0" style="stop-color:#FBE8F1"/>
				<stop  offset="1" style="stop-color:#FFFFFF"/>
			</linearGradient>
			<path class="st34" d="M146.02,42.94c3.48-3.99,6.19-8.26,9.44-12.41c3.17-4.05,8.48-6.19,12.58-9.22
				c7.84-5.79,18.39-8.19,27.94-8.19c9.42,0,20.02,1.21,27.33,7.4c5.04,4.27,9.45,8.41,10.45,15.1c0.79,5.28-2.59,7.8-6.27,10.57
				c5.35-2.76,7.87-4.92,8.1-8.87c0.33-5.64-5.97-18.9-22.21-22.87s-32.82-2.32-44.75,3.98c-11.93,6.3-13.92,9.95-17.24,13.92
				c-3.32,3.98-11.27,11.6-9.95,19.56c0,0,0.2,6.51,2.68,11.56c-0.47-2.07-0.46-4.31-0.61-6.96
				C143.24,51.34,142.26,47.25,146.02,42.94z"/>
		</g>
		<g>
			<radialGradient id="SVGID_36_" cx="168.3878" cy="11.832" r="18.1414" gradientUnits="userSpaceOnUse">
				<stop  offset="0" style="stop-color:#FFFFFF"/>
				<stop  offset="1" style="stop-color:#EBC4DD"/>
			</radialGradient>
			<path class="st35" d="M144.46,20.41c-0.13,0.12-0.19,0.18-0.19,0.18C144.33,20.52,144.4,20.47,144.46,20.41z"/>
			<radialGradient id="SVGID_37_" cx="168.3878" cy="11.832" r="18.1414" gradientUnits="userSpaceOnUse">
				<stop  offset="0" style="stop-color:#FFFFFF"/>
				<stop  offset="1" style="stop-color:#EBC4DD"/>
			</radialGradient>
			<path class="st36" d="M144.46,20.41C146.05,18.97,158,9.16,192.5,3.18C192.5,3.18,165.32,0.71,144.46,20.41z"/>
			<radialGradient id="SVGID_38_" cx="283.6051" cy="90.8628" r="15.3707" gradientUnits="userSpaceOnUse">
				<stop  offset="0" style="stop-color:#F4A9CA"/>
				<stop  offset="1" style="stop-color:#F05E94"/>
			</radialGradient>
			<path class="st37" d="M283.34,69.48l-3.65,5.3c3.98,7.62,7.29,37.46,7.29,37.46C289.3,87.38,283.34,69.48,283.34,69.48z"/>
		</g>
	</g>
</g>
</svg>
