<?xml version="1.0" encoding="utf-8"?>
<!-- Generator: Adobe Illustrator 24.0.3, SVG Export Plug-In . SVG Version: 6.00 Build 0)  -->
<svg version="1.1" id="Layer_1" xmlns="http://www.w3.org/2000/svg" xmlns:xlink="http://www.w3.org/1999/xlink" x="0px" y="0px"
	 viewBox="0 0 150 157.71" style="enable-background:new 0 0 150 157.71;" xml:space="preserve">
<style type="text/css">
	.st0{fill:url(#SVGID_1_);}
	.st1{fill:url(#SVGID_2_);}
	.st2{fill:url(#SVGID_3_);}
	.st3{fill:url(#SVGID_4_);}
	.st4{fill:url(#SVGID_5_);}
	.st5{fill:url(#SVGID_6_);}
	.st6{fill:url(#SVGID_7_);}
	.st7{fill:url(#SVGID_8_);}
</style>
<g>
	<linearGradient id="SVGID_1_" gradientUnits="userSpaceOnUse" x1="75" y1="190.9054" x2="75" y2="5.2056">
		<stop  offset="0" style="stop-color:#781214"/>
		<stop  offset="1" style="stop-color:#CA1D5B"/>
	</linearGradient>
	<path class="st0" d="M149.98,75.16c-0.35-13.48-4.62-28.1-11.73-40.11c-8.77-14.81-21.62-25.63-37.19-31.29
		C94.23,1.26,86.9,0,79.28,0c-27.82,0-57,16.97-70.95,41.26c-16.75,29.16-3.16,66.06-2.57,67.62c0.01,0.04,0.03,0.07,0.04,0.11
		c3.26,7.17,10.89,19.06,21.66,29c14.19,13.09,29.96,19.72,46.88,19.72c4.06,0,8.23-0.4,12.37-1.18
		c25.84-4.89,41.08-21.65,49.3-34.86C146.75,104.45,150.27,86.35,149.98,75.16z"/>
	<linearGradient id="SVGID_2_" gradientUnits="userSpaceOnUse" x1="75.0279" y1="156.4785" x2="75.0279" y2="5.9605">
		<stop  offset="0" style="stop-color:#EB1948"/>
		<stop  offset="1" style="stop-color:#F0628E"/>
	</linearGradient>
	<path class="st1" d="M7.39,108.27c0,0-14.09-37.36,2.45-66.14s56.96-49,90.64-36.75s47.16,45.93,47.77,69.82
		c0.61,23.89-16.54,71.04-61.86,79.62C41.07,163.39,13.51,121.75,7.39,108.27z"/>
	<linearGradient id="SVGID_3_" gradientUnits="userSpaceOnUse" x1="67.3816" y1="171.2393" x2="67.3816" y2="14.3087">
		<stop  offset="0" style="stop-color:#991B28"/>
		<stop  offset="1" style="stop-color:#E51A51"/>
	</linearGradient>
	<path class="st2" d="M130.25,54.47c-2.32-6.78-3.67-13.62-7.87-19.47c-0.6-1.66-1.77-3.24-3.13-4.51
		c-3.32-7.03-12.33-11.72-18.84-14.45c-10.8-4.53-20.16-8.48-32.03-4.45c-7.31,2.48-14.5,7.81-19.52,14.36
		c-2.47,2.37-4.01,5.23-5.65,8.92c-1.65,3.7-4.76,7.49-5.14,11.57c-0.44,4.78,1.83,8.16,3.61,12.24c1.83,4.19,2.6,8.33,6.36,11.42
		c5.67,4.66,15.03,9,21.94,11.19c8.11,2.57,16.43,0.51,23.76-3.32c4.02-2.1,7.18-5.43,9.12-9.55c1.63-3.46,3.76-6.64,4.36-10.44
		c1.17-7.48,0.34-13.96-2.75-20.81c-3-6.66-7.97-10.58-15.57-10.4c-4.99,0.12-11.86,3.43-14.39,8.03
		c-2.85,5.18-2.66,10.4,2.48,14.09c3.08,2.21,13.78,3.38,8.42-2.36c-2.86-3.06-5.82-5.62-1.76-9.75c4.25-4.32,8.49-3.54,11.84,1.09
		c4.84,6.67,4.88,16.19,0.09,22.66c-5.62,7.6-13.99,5.89-22.43,5.14c-6.99-0.63-15.24-10.15-16.78-16.76
		c-0.98-4.21,1.33-8.2,3-11.87c1.59-3.5,3.15-7.09,5.53-10.18c0.91-0.44,1.84-0.83,2.84-1.16c5.58-1.84,9.54-4.29,15.82-3.75
		c5.12,0.44,11.89,2.61,16.62,4.67c5.03,2.19,9.18,7.22,12.37,11.54c3.25,4.41,3.47,9.76,4.12,15c0.82,6.56-0.01,12.69-0.93,19.12
		c-0.76,5.3-0.96,9.4-3.41,14.34c-5.1,10.31-11.5,16.75-21.96,21.67c-11.38,5.36-22.01,4.38-34.02,2.74
		c-4.76-0.65-8.44-2.43-12.7-4.56c-3.55-1.77-7.87-3.11-11.1-5.32c-2.97-2.03-7.09-5.54-8.65-8.8c-1.71-3.58-2.71-7.51-4.51-11.03
		c-4.16-8.12-5.12-14.59-5.59-23.57c-0.34-6.6-1.2-13.49,2.45-19.45c1.89-3.09,4.12-5.46,5.58-8.65c0.68-1.49,1.53-3.6,2.56-5.49
		c-5.84,5.36-10.82,11.45-14.57,17.97c-8.09,14.08-8.85,30.2-7.52,43.01c5.67,11.71,14.56,22.55,25.16,29.67
		c11.49,7.72,25.1,9.98,38.68,9.68c9.14-0.2,19.08-1.77,27.71-4.88c6.63-2.39,10-6.81,15-11.34c4.9-4.44,8.05-9.28,10.15-14.76
		c-3.47,14.15-11.76,28.42-24.96,34.92c-8.7,4.28-18.74,5.56-28.25,6.51c-2.06,0.21-4.94,0.36-7.65,0l20.26,8.25
		c3.86,0.05,9.26-1.33,12.55-3.37c1.94-1.2,3.22-2.53,5.52-3.05c2.12-0.48,4.23-0.41,6.33-1.3c4.69-1.98,7.41-6.98,11.11-10.33
		c4.38-3.96,8.87-7.34,11.57-12.81c2.25-4.56,4.67-10.17,5.97-15.07c1.27-4.77,1.08-9.3,0.83-14.32c-0.23-4.66,0.43-9.28,0.63-13.85
		C133.19,63.4,132.02,59.64,130.25,54.47z M107.82,27.78c0.25,0.1,0.49,0.2,0.74,0.31c0.33,0.37,0.66,0.74,0.98,1.12
		C108.98,28.71,108.4,28.23,107.82,27.78z M122.73,73.46c0.1-7.92-1.27-15.79-2.91-23.58c-0.78-3.7-1.43-7.53-2.84-11.02
		c0.86,1.33,1.69,2.71,2.47,4.17C124.37,52.25,124.2,62.97,122.73,73.46z M58.17,134.94l-6.07-2.47
		C53.54,133.91,55.79,134.62,58.17,134.94z"/>
	<linearGradient id="SVGID_4_" gradientUnits="userSpaceOnUse" x1="66.4987" y1="180.8947" x2="66.4987" y2="7.2814">
		<stop  offset="0" style="stop-color:#F6ACCC"/>
		<stop  offset="1" style="stop-color:#F9E6F1"/>
	</linearGradient>
	<path class="st3" d="M78.12,140.43c22.97-2.45,36.13-16.54,46.24-31.54s8.27-50.22-0.61-68.59S91.9,9.98,74.14,11.51
		s-34.3,23.89-32.77,38.28c1.53,14.39,19.6,32.46,37.67,31.23s26.34-15.31,26.95-24.8s-2.45-26.03-13.47-28.17
		s-18.37,6.74-18.68,12.25c-0.31,5.51,6.74,10.11,9.8,10.41c3.06,0.31,4.59-3.06,2.45-3.37s-5.51-1.22-5.82-5.82
		c-0.31-4.59,4.9-8.88,11.02-8.57s10.72,10.41,9.8,19.9S90.37,70.3,79.96,69.08c-10.41-1.22-21.44-6.12-24.5-17.76
		s2.45-20.82,10.72-26.95s26.34-4.9,37.97,2.76s18.68,30.32,15.62,46.55c-3.06,16.23-13.17,31.23-27.87,37.67
		c-14.7,6.43-38.89,4.9-58.18-6.12S8.92,64.79,9.83,52.85c0.54-7.03,4.69-15.86,8.01-21.94c-3.06,3.54-5.76,7.3-8.01,11.22
		c-16.54,28.79-2.45,66.14-2.45,66.14c1.99,4.38,6.25,11.74,12.64,19.38C36.17,136.37,60.68,142.29,78.12,140.43z"/>
	<linearGradient id="SVGID_5_" gradientUnits="userSpaceOnUse" x1="66.4987" y1="196.458" x2="66.4987" y2="-44.054">
		<stop  offset="0" style="stop-color:#FBE8F1"/>
		<stop  offset="1" style="stop-color:#FFFFFF"/>
	</linearGradient>
	<path class="st4" d="M123.75,40.29C114.87,21.92,91.9,9.98,74.14,11.51s-34.3,23.89-32.77,38.28
		c1.08,10.13,10.36,22.08,22.06,27.84L51.69,67.24c-3.34-2.8-3.51-9.44-5.05-13.27c-1.6-4-3.33-9.2-1.59-13.39
		c2.13-5.12,5.98-9.77,9.39-14.08c3.71-4.71,9.14-8.4,15.03-9.57c5.78-1.15,12.28-2.58,18.14-1.28c5.93,1.32,11.44,4.94,16.7,7.91
		c4.57,2.58,10.07,6.7,12.7,11.28c3.63,6.32,6.36,14.37,7.87,21.48c1.5,7.02,2.75,13.91,2.75,21.15
		c-0.01,10.04-1.94,21.05-4.99,30.57c-0.76,2.38-2.31,4.82-2.92,7.34c1.63-2.12,3.17-4.29,4.64-6.47
		C134.47,93.88,132.63,58.67,123.75,40.29z M119.52,74.91c-3.33,15.75-13.29,30.16-27.62,36.43c-14.7,6.43-38.89,4.9-58.18-6.12
		S8.92,64.79,9.83,52.85c0.52-6.81,4.43-15.3,7.69-21.35c-0.03-0.03-0.07-0.06-0.1-0.09c-2.89,3.4-5.44,6.99-7.59,10.72
		c-11.3,19.66-8.3,43.32-5.27,56.35l2.41-0.61c-0.33-1.25-0.36-2.83-0.83-3.96c-0.42-1.01-1.58-1.84-1.98-2.98
		C3.38,88.69,5,87.41,5.55,85.5c0.64-2.22,0.62-4.58,0.41-6.93c-0.19-2.1-1.11-3.69-1.02-5.86c0.12-2.96,1.15-5.99,1.06-8.88
		c1.94,3.07,3.32,7.31,4.39,10.79c1.48,4.78,2.58,9.67,4.13,14.45c1.36,4.19,1.56,7.17,5.5,10.05c3.76,2.75,8,4.99,12,7.34
		c4.3,2.53,8.81,4.79,13.48,6.61c5.69,2.21,11.56,5.4,17.6,6.43c1.91,0.33,3.92-0.08,5.94-0.3c3.93-0.44,7.89-0.47,11.85-0.51
		c2.7-0.03,5.39-0.2,8.05-0.66c4.57-0.8,7.56-3.47,11.02-6.39c7.24-6.1,13.68-10.69,17.47-19.74c1.41-3.36,2.52-6.46,2.65-10.11
		C120.16,79.51,119.88,77.21,119.52,74.91z M56.58,54.52l-1.62,1.49c0.96,4.66,6.13,5.72,8.62,9.14c2.49,3.4,4.81,5.9,9.29,6.18
		c8.58,0.53,19.42,0.65,25.1-7.14c1.26-1.73,3.73-7.73,3.07-11.02c-1.11,9.35-10.8,17.12-21.09,15.91
		C70.56,67.97,60.67,63.87,56.58,54.52z M92.21,31.32c1.69,0.32,3.18,0.6,4.82,1.33c1.64,0.74,3.26,2.02,4.9,3.01
		c-2.13-3.85-5.18-6.8-9.41-7.62c-11.02-2.14-18.37,6.74-18.68,12.25c-0.17,3.06,1.92,5.83,4.34,7.75l0.25-0.4
		c-4.49-2.35-1.4-10.38,0.86-13.22C82.35,30.58,87.84,30.49,92.21,31.32z"/>
	<linearGradient id="SVGID_6_" gradientUnits="userSpaceOnUse" x1="66.4987" y1="174.0037" x2="66.4987" y2="15.7573">
		<stop  offset="0" style="stop-color:#F385AF"/>
		<stop  offset="1" style="stop-color:#F7BAD5"/>
	</linearGradient>
	<path class="st5" d="M124.36,108.89c10.11-15.01,8.27-50.22-0.61-68.59S91.9,9.98,74.14,11.51s-34.3,23.89-32.77,38.28
		c1.53,14.39,19.6,32.46,37.67,31.23s26.34-15.31,26.95-24.8s-2.45-26.03-13.47-28.17s-18.37,6.74-18.68,12.25
		c-0.31,5.51,6.74,10.11,9.8,10.41c3.06,0.31,4.59-3.06,2.45-3.37s-5.51-1.22-5.82-5.82c-0.31-4.59,4.9-8.88,11.02-8.57
		s10.72,10.41,9.8,19.9S90.37,70.3,79.96,69.08c-10.41-1.22-21.44-6.12-24.5-17.76s2.45-20.82,10.72-26.95s26.34-4.9,37.97,2.76
		s18.68,30.32,15.62,46.55c-3.06,16.23-13.17,31.23-27.87,37.67c-14.7,6.43-38.89,4.9-58.18-6.12S8.92,64.79,9.83,52.85
		c0.54-7.03,4.69-15.86,8.01-21.94c-3.06,3.54-5.76,7.3-8.01,11.22c-16.54,28.79-2.45,66.14-2.45,66.14
		c0.26,0.58,0.57,1.22,0.92,1.9c3-2.85,0.48-10.19-0.66-13.28c-1.02-2.76-3.15-4.95-3.52-8c-0.36-3.03,0.86-5.83,0.57-8.79
		c-0.26-2.58-0.94-4.94-1.17-7.55c-0.23-2.48,0.71-4.43,0.81-6.95c0.12-2.94,0.53-5.84,0.82-8.78c0.26-2.64,1.35-3.96,2.7-6.13
		c0.49-0.78,0.86-1.6,1.22-2.43c-0.2,1.73-0.25,3.47-0.25,5.29c0,2.17-0.69,3.88-0.82,5.92c-0.39,6.4,2.68,11.7,4.49,17.64
		c1.81,5.92,1.98,15.1,7.76,18.55c2.94,1.75,5.31,3.36,7.91,5.61c2.48,2.16,4.84,4.72,7.76,6.33c3.46,1.91,7.33,2.81,10.98,4.29
		c4.51,1.83,8.88,4.04,13.76,4.79c4.88,0.75,9.55,0.2,14.44-0.05c5.2-0.27,10.59,1.34,15.55-0.92c4.42-2.01,8.92-6.05,12.79-8.99
		c4.44-3.38,7.73-8.19,11.1-12.55c3.09-3.99,3.95-8.69,5.17-13.41c0.69-2.64,1.49-4.86,1.55-7.65c0.04-2.13-0.17-4.23,0.05-6.39
		c0.46-4.66,1.41-8.1-0.25-12.59c-1.41-3.82-1.36-8.3-4.05-11.45c-0.22-0.26-0.47-0.56-0.75-0.88c0.04-1.39-0.44-3.19-0.74-4.02
		c-1.1-3.01-4.05-5.86-6.45-7.85c-2.84-2.35-6.28-3.5-9.2-5.66c-5.16-3.81-9.59-5.89-16.22-5.81c-5.74,0.08-10.3,1.35-15.38,3.75
		c-4.04,1.91-6.73,3.37-9.27,7.06c-2.47,3.58-5.71,6.88-6.09,11.53c-0.23,2.84,0.39,5.69,0.42,8.58c0.03,3.27,0.5,5.87,2.24,8.68
		c1.75,2.82,3.93,3.75,6.49,5.55c2.19,1.53,3.68,3.55,6.17,4.8c4.32,2.18,10.19,1.28,14.95,1.28c2.28,0,4.46-0.24,6.49-1.01
		c2.24-0.85,3.61-2.59,5.59-3.69c2.7-1.5,2.92-2.27,4.19-5.19c0.48-1.11,0.84-2.24,1.08-3.39c1.39-3.33,2.09-8.15,1.12-11.53
		c-1.76-6.18-5.85-13.68-13.11-12.54c-2.57,0.41-5.29,2.03-7.13,3.99c-2.49,2.65-1.77,4.72-0.94,7.64c0.39,1.35,0.09,1.76,1.3,2.68
		c0.76,0.58,2.91,0.6,3.35,1.45c1.42,2.72-4.37,0.28-5.1-0.14c-1.44-0.83-3.7-2.32-4.51-3.79c-0.66-1.18-0.3-1.57-0.1-2.86
		c0.42-2.75,1.02-5.07,2.81-7.54c3.13-4.31,9.03-5.77,13.88-4.05c4.31,1.53,7.64,2.8,9.54,7.3c1.01,2.4,0.68,4.77,1.28,7.14
		c0.61,2.44,1.7,4.02,1.84,6.64c0.17,3.25,0.07,7.19-0.45,10.7c-0.74,1.3-1.56,2.56-2.4,3.71c-1.24,1.69-2.2,3.66-3.42,5.29
		c-1.32,1.77-4.15,3.85-6.02,5.1c-5.26,3.52-10.83,2.89-16.74,2.65c-3.93-0.15-7.51-1.48-11.01-3.18c-3.87-1.88-8.61-3-11.63-5.98
		c-3.03-3-5.19-6.94-6.32-11.05c-0.8-2.92-2.52-5.35-3.28-8.25c-0.99-3.77,0.01-7.89,1.1-11.52c1.45-4.82,5.69-7.44,7.71-11.89
		c1.45-3.19,2.24-4.37,5.65-6.32c2.3-1.32,4.8-2.17,7.1-3.46c1.39-0.79,2.69-1.99,4.11-2.66c2.62-1.25,5.08-0.54,7.83-0.2
		c2.88,0.35,5.76-0.33,8.61,0.04c5.34,0.69,10.99,4.16,15.62,6.69c5.29,2.89,10.38,6.51,14.92,10.47c3.08,2.69,3.93,8.05,6.27,11.54
		c2.87,4.28,4.99,7.86,5.21,13.16c0.08,2.01-0.05,3.95,0.25,5.92c0.38,2.55,1.4,4.87,2,7.36c0.92,3.85-0.42,8.06-0.61,11.96
		c-0.21,4.43,0.08,9.11-1.28,13.34c-1.18,3.65-2.31,7.48-3.62,11.06c-1.89,5.15-6.07,9.02-10,12.73c-3.14,2.95-5.99,6.43-9.75,8.68
		c-2.97,1.78-5.99,2.78-8.82,4.83c-3.39,2.46-5.76,4.02-9.78,4.92c-3.8,0.85-7.44,0.07-11.25,0.4l-3.45,3.92
		c2.36,0,4.65-0.11,6.82-0.34C101.09,137.98,114.26,123.89,124.36,108.89z"/>
	<radialGradient id="SVGID_7_" cx="84.8166" cy="11.7574" r="26.6966" gradientUnits="userSpaceOnUse">
		<stop  offset="0" style="stop-color:#FFFFFF"/>
		<stop  offset="1" style="stop-color:#EBC4DD"/>
	</radialGradient>
	<path class="st6" d="M48.42,10.9c0,0,39.2-15.52,73.09,9.39C121.5,20.29,94.97-11.15,48.42,10.9z"/>
	<radialGradient id="SVGID_8_" cx="123.1379" cy="113.9907" r="28.1479" gradientUnits="userSpaceOnUse">
		<stop  offset="0" style="stop-color:#F4A9CA"/>
		<stop  offset="1" style="stop-color:#F05E94"/>
	</radialGradient>
	<path class="st7" d="M100.68,146.86c0,0,36.34-21.64,44.91-65.74C145.59,81.12,146,124.81,100.68,146.86z"/>
</g>
</svg>
