<?xml version="1.0" encoding="utf-8"?>
<!-- Generator: Adobe Illustrator 24.0.3, SVG Export Plug-In . SVG Version: 6.00 Build 0)  -->
<svg version="1.1" id="Layer_1" xmlns="http://www.w3.org/2000/svg" xmlns:xlink="http://www.w3.org/1999/xlink" x="0px" y="0px"
	 viewBox="0 0 142.27 59.14" style="enable-background:new 0 0 142.27 59.14;" xml:space="preserve">
<style type="text/css">
	.st0{fill:url(#SVGID_1_);}
	.st1{fill:#E1F3F7;}
	.st2{fill:url(#SVGID_2_);}
	.st3{fill:url(#SVGID_3_);}
	.st4{fill:url(#SVGID_4_);}
	.st5{fill:url(#SVGID_5_);}
	.st6{fill:url(#SVGID_6_);}
	.st7{fill:url(#SVGID_7_);}
	.st8{fill:url(#SVGID_8_);}
	.st9{fill:url(#SVGID_9_);}
	.st10{fill:url(#SVGID_10_);}
	.st11{fill:url(#SVGID_11_);}
	.st12{fill:url(#SVGID_12_);}
	.st13{fill:url(#SVGID_13_);}
	.st14{fill:url(#SVGID_14_);}
	.st15{fill:url(#SVGID_15_);}
	.st16{fill:url(#SVGID_16_);}
	.st17{fill:url(#SVGID_17_);}
	.st18{fill:url(#SVGID_18_);}
	.st19{fill:url(#SVGID_19_);}
	.st20{fill:url(#SVGID_20_);}
	.st21{fill:url(#SVGID_21_);}
	.st22{fill:url(#SVGID_22_);}
	.st23{fill:url(#SVGID_23_);}
	.st24{fill:url(#SVGID_24_);}
	.st25{fill:url(#SVGID_25_);}
	.st26{fill:url(#SVGID_26_);}
	.st27{fill:url(#SVGID_27_);}
	.st28{fill:url(#SVGID_28_);}
	.st29{fill:url(#SVGID_29_);}
	.st30{fill:url(#SVGID_30_);}
	.st31{fill:url(#SVGID_31_);}
	.st32{fill:url(#SVGID_32_);}
	.st33{fill:url(#SVGID_33_);}
	.st34{fill:url(#SVGID_34_);}
	.st35{fill:url(#SVGID_35_);}
	.st36{fill:url(#SVGID_36_);}
	.st37{fill:url(#SVGID_37_);}
</style>
<g>

		<linearGradient id="SVGID_1_" gradientUnits="userSpaceOnUse" x1="71.134" y1="-21.5354" x2="71.134" y2="65.0848" gradientTransform="matrix(-1 0 0 1 142.268 0)">
		<stop  offset="0" style="stop-color:#D9EEE6"/>
		<stop  offset="0.1597" style="stop-color:#E1F1EA"/>
		<stop  offset="0.6636" style="stop-color:#F5FAF8"/>
		<stop  offset="1" style="stop-color:#FFFFFF"/>
	</linearGradient>
	<path class="st0" d="M131.63,54.9c0,0,1.73,1.91,4.85,2.08c3.12,0.17,6.76-2.6,5.55-5.2c-1.21-2.6-3.64-2.43-3.64-2.43
		s4.16-3.81,2.77-7.8c-1.39-3.99-3.81-4.85-3.81-4.85s1.56-0.52,1.04-2.08c0,0,2.09-1.44,1.56-3.47c-0.87-3.29-3.64-3.64-3.64-3.64
		s2.95-3.12,1.73-5.72c-1.21-2.6-2.95-2.77-2.95-2.77s0-3.99-4.51-6.07c-4.51-2.08-8.15-1.39-9.71-0.35c0,0-1.39-3.12-5.72-2.43
		c0,0,0.17-6.07-8.84-9.02S89.67,1.51,86.38,4.11c0,0-8.67-2.77-16.82,3.64c-8.15,6.41-5.55,13.7-5.55,13.7s-5.2,0.69-6.76,4.33
		c-1.56,3.64,0.87,5.89,0.87,5.89s-3.12,1.73-2.77,4.85c0,0-1.73-1.91-5.37-1.39c-3.64,0.52-3.99,4.16-3.99,4.16
		s-1.04-1.04-2.43-0.17c-1.39,0.87-0.69,2.77-0.69,2.77s-1.91-0.69-3.12,0.69c-1.21,1.39-0.69,2.6-0.69,2.6s-10.23,3.47-16.3,0
		c0,0,0.52-2.08-2.08-2.77c-2.6-0.69-3.47,0.52-3.47,0.52s-0.35-2.6-3.81-2.95c-3.47-0.35-4.16,1.21-4.16,1.21s-1.73,0.35-3.99-0.87
		c-2.25-1.21-4.68-2.25-5.2-1.04c-0.52,1.21,4.16,1.56,6.59,3.12c2.43,1.56,6.41,3.47,9.71,3.12c0,0,1.91,1.91,5.55,1.73
		c0,0,4.33,1.73,8.5,1.91c4.16,0.17,7.63-0.17,9.88,1.21c2.25,1.39,10.4,4.33,16.99,0.52c0,0,3.29,3.99,8.32,5.2
		c5.03,1.21,9.02,1.04,9.02,1.04s4.51,2.43,12.48,1.91c7.97-0.52,11.44-2.43,11.44-2.43s6.07,2.77,12.31,1.04
		c6.24-1.73,8.67-4.68,8.67-4.68s4.33,4.51,11.96,1.56L131.63,54.9z"/>
	<path class="st1" d="M49.62,52.51c1.54-0.12,6.22-1.2,4.83-3.61c1.96,0.95,5.49,1.83,7.41,0.29c-0.57,0.59-1.03,1.32-1.83,1.67
		c1.04,2.41,4.72,4.4,7.33,3.99c3.42-0.54-0.9-2.25-0.1-3.88c1.35,3.76,9.62,4.83,11.35,0.82c-0.12,0.77,0,1.78-0.73,2.31
		c1.71-1.32,4.46-2.84,3.32-5.42c2.29,3.04,4.74,3.85,8.42,3.85c-1.15,0.19-3,0.58-4.12,0.12c-2.15,1.52-5.75,3.97-8.54,3.65
		c1.16,1.1,2.83,2.08,4.55,2.68c-4.49-0.48-6.94-1.8-6.94-1.8s-3.99,0.17-9.02-1.04c-5.03-1.21-8.32-5.2-8.32-5.2
		c-3.76,2.18-8.02,2.15-11.41,1.47C47.12,52.31,48.69,52.58,49.62,52.51z"/>
	<g>

			<linearGradient id="SVGID_2_" gradientUnits="userSpaceOnUse" x1="3.8239" y1="-21.5354" x2="3.8239" y2="65.0848" gradientTransform="matrix(-1 0 0 1 142.268 0)">
			<stop  offset="0" style="stop-color:#B1E0E7"/>
			<stop  offset="0.3733" style="stop-color:#CDEBEF"/>
			<stop  offset="0.749" style="stop-color:#E1F3F6"/>
			<stop  offset="1" style="stop-color:#E9F6F8"/>
		</linearGradient>
		<path class="st2" d="M138.95,54.08c-1.47-0.99-1.91-3.76-4.33-2.36c1.38-0.94,2.82-1.9,4.2-2.85c0.03-0.02,0.05-0.03,0.08-0.05
			c-0.3,0.34-0.51,0.53-0.51,0.53s2.43-0.17,3.64,2.43c0.31,0.67,0.3,1.35,0.06,1.98C141.43,54.58,140.2,54.93,138.95,54.08z"/>

			<linearGradient id="SVGID_3_" gradientUnits="userSpaceOnUse" x1="5.889" y1="-21.5354" x2="5.889" y2="65.0848" gradientTransform="matrix(-1 0 0 1 142.268 0)">
			<stop  offset="0" style="stop-color:#B1E0E7"/>
			<stop  offset="0.3733" style="stop-color:#CDEBEF"/>
			<stop  offset="0.749" style="stop-color:#E1F3F6"/>
			<stop  offset="1" style="stop-color:#E9F6F8"/>
		</linearGradient>
		<path class="st3" d="M137.56,46.1c1.05-2.51,0.32-7.98-3.34-8.08c1.03-0.37,1.91-1.05,2.42-2.05c-3.25,1.23-3.2-0.36-2.81-2.58
			c0.26-1.52,0.27-5.67-2.51-3.42c0.56-0.54,1.17-1.31,1.57-1.99c1.16,0,2.58-0.21,3.7-0.81c-0.17,0.21-0.28,0.33-0.28,0.33
			s2.77,0.35,3.64,3.64c0.53,2.03-1.56,3.47-1.56,3.47c0.52,1.56-1.04,2.08-1.04,2.08s2.43,0.87,3.81,4.85
			c0.6,1.73,0.16,3.43-0.54,4.8C139.75,46.77,138.74,46.78,137.56,46.1z"/>

			<linearGradient id="SVGID_4_" gradientUnits="userSpaceOnUse" x1="7.9645" y1="-21.5354" x2="7.9645" y2="65.0848" gradientTransform="matrix(-1 0 0 1 142.268 0)">
			<stop  offset="0" style="stop-color:#B1E0E7"/>
			<stop  offset="0.3733" style="stop-color:#CDEBEF"/>
			<stop  offset="0.749" style="stop-color:#E1F3F6"/>
			<stop  offset="1" style="stop-color:#E9F6F8"/>
		</linearGradient>
		<path class="st4" d="M134.62,51.73c-0.21,0.14-0.43,0.29-0.64,0.43C134.21,51.98,134.42,51.84,134.62,51.73z"/>

			<linearGradient id="SVGID_5_" gradientUnits="userSpaceOnUse" x1="73.2284" y1="-21.5354" x2="73.2284" y2="65.0848" gradientTransform="matrix(-1 0 0 1 142.268 0)">
			<stop  offset="0" style="stop-color:#B1E0E7"/>
			<stop  offset="0.3733" style="stop-color:#CDEBEF"/>
			<stop  offset="0.749" style="stop-color:#E1F3F6"/>
			<stop  offset="1" style="stop-color:#E9F6F8"/>
		</linearGradient>
		<path class="st5" d="M0.04,39.3c0.52-1.21,2.95-0.17,5.2,1.04c2.25,1.21,3.99,0.87,3.99,0.87s0.69-1.56,4.16-1.21
			c3.47,0.35,3.81,2.95,3.81,2.95s0.87-1.21,3.47-0.52c2.6,0.69,2.08,2.77,2.08,2.77c6.07,3.47,16.3,0,16.3,0s-0.52-1.21,0.69-2.6
			c1.21-1.39,3.12-0.69,3.12-0.69s-0.69-1.91,0.69-2.77c1.39-0.87,2.43,0.17,2.43,0.17s0.35-3.64,3.99-4.16
			c3.64-0.52,5.37,1.39,5.37,1.39c-0.35-3.12,2.77-4.85,2.77-4.85s-2.43-2.25-0.87-5.89c1.56-3.64,6.76-4.33,6.76-4.33
			s-2.6-7.28,5.55-13.7c8.15-6.41,16.82-3.64,16.82-3.64c3.29-2.6,10.92-5.89,19.94-2.95c9.02,2.95,8.84,9.02,8.84,9.02
			c4.33-0.69,5.72,2.43,5.72,2.43c1.56-1.04,5.2-1.73,9.71,0.35c4.51,2.08,4.51,6.07,4.51,6.07s1.73,0.17,2.95,2.77
			c0.01,0.03,0.02,0.06,0.04,0.09c-1.12-1.25-3.27-1.59-4.66-0.17c-1.88,1.92-3.31,5.94-7.04,4.09c0.52-0.61,0.99-1.41,1.28-2.18
			c-1.42,1.58-4.31,2.76-6.43,2.49c1.79,1.35,4.4,0.39,1.79,3.4c-1.62,1.88-4.33,3.09-6.7,3.38c-3.3,0.4-14.55-0.64-14.13-5.94
			c0.98-0.43,2.03-0.85,2.98-1.36c-2.22-0.05-3.08,0.22-5.06-0.74c0.71,4.01-5.68,2.71-7.36,1.11c-0.88-0.84-2.59-3.26-2.32-4.53
			c0.25-1.21,2.28-2.15,3.03-3.35c-1.86,1.83-6.81,2.78-9.16,1.78c6.25,5.89-1.31,8.86-7.35,8.04c0.27-0.47,0.56-1.46,0.98-1.95
			c-1.78,1.24-3.47,2.23-5.62,2.78c12.38,5.25-10.42,12.71-10.26,6.02c-2.71,0.73-7.68,1.7-7.73,5.38c5.04-0.29,2.29,6.59-1.81,6.25
			c0.25-0.59,0.21-1.12,0.78-1.7c-1.62,1.08-3,1.43-4.9,1.72c0.24,0.35,0.25,0.72,0.4,1c-2.85,1.67-6.1-0.51-9.01-0.21
			c-2.96,0.3-6.04,0.31-9.03,0.13c-3.64-0.22-11.8-0.18-13.65-3.81c-0.1,0.27-0.42,0.6-0.51,0.98c-1.63-2.08-3.95-1.69-6.25-1.98
			c-2.17-0.27-3.86-1.75-5.87-2.31c-0.91-0.25-2.43,0.02-3.71,0.01C0.2,39.95-0.12,39.66,0.04,39.3z"/>
	</g>
	<g>

			<linearGradient id="SVGID_6_" gradientUnits="userSpaceOnUse" x1="3.8239" y1="-21.5354" x2="3.8239" y2="65.0848" gradientTransform="matrix(-1 0 0 1 142.268 0)">
			<stop  offset="0" style="stop-color:#9DDAE7"/>
			<stop  offset="0.38" style="stop-color:#BBE4EE"/>
			<stop  offset="0.7521" style="stop-color:#D0ECF3"/>
			<stop  offset="1" style="stop-color:#D8EFF5"/>
		</linearGradient>
		<path class="st6" d="M142.09,53.77c-0.66,0.81-1.9,1.16-3.14,0.32c-1.47-0.99-1.91-3.76-4.33-2.36c1.38-0.94,2.82-1.9,4.2-2.85
			c0.03-0.02,0.05-0.03,0.08-0.05c-0.3,0.34-0.51,0.53-0.51,0.53s0.64-0.04,1.42,0.26c-0.68-0.17-1.53,0.04-2.01,0.54
			c-0.8,0.85,0.03,0.88,0.41,1.5c0.43,0.69,0.12,1.4,1.1,1.76c1.42,0.52,2.79-0.55,2.63-1.82c0.03,0.06,0.06,0.12,0.09,0.19
			C142.34,52.45,142.33,53.13,142.09,53.77z"/>

			<linearGradient id="SVGID_7_" gradientUnits="userSpaceOnUse" x1="2.8434" y1="-21.5354" x2="2.8434" y2="65.0848" gradientTransform="matrix(-1 0 0 1 142.268 0)">
			<stop  offset="0" style="stop-color:#9DDAE7"/>
			<stop  offset="0.38" style="stop-color:#BBE4EE"/>
			<stop  offset="0.7521" style="stop-color:#D0ECF3"/>
			<stop  offset="1" style="stop-color:#D8EFF5"/>
		</linearGradient>
		<path class="st7" d="M139.35,38.27c0.05,0.06,0.1,0.12,0.15,0.18c-0.02-0.01-0.05-0.01-0.07-0.02L139.35,38.27z"/>

			<linearGradient id="SVGID_8_" gradientUnits="userSpaceOnUse" x1="5.9066" y1="-21.5354" x2="5.9066" y2="65.0848" gradientTransform="matrix(-1 0 0 1 142.268 0)">
			<stop  offset="0" style="stop-color:#9DDAE7"/>
			<stop  offset="0.38" style="stop-color:#BBE4EE"/>
			<stop  offset="0.7521" style="stop-color:#D0ECF3"/>
			<stop  offset="1" style="stop-color:#D8EFF5"/>
		</linearGradient>
		<path class="st8" d="M137.56,46.1c1.05-2.51,0.32-7.98-3.34-8.08c1.03-0.37,1.91-1.05,2.42-2.05c-3.25,1.23-3.2-0.36-2.81-2.58
			c0.26-1.52,0.27-5.67-2.51-3.42c0.56-0.54,1.17-1.31,1.57-1.99c1.16,0,2.58-0.21,3.7-0.81c-0.17,0.21-0.28,0.33-0.28,0.33
			s1.2,0.15,2.27,1.19c-1.22-0.53-2.47-0.64-3.74-0.08c-1.11,0.48-0.76,1.26-0.43,2.18c0.48,1.35,0.45,1.9,0.16,3.25
			c-0.3,1.42,0.66,1.53,1.78,1.43c0.54-0.05,1.25,0.2,1.91,0.22c0.07-0.53-0.05-0.95-0.61-1.25c1.67-0.53,2.15-1.67,2.32-3.26
			c0.5,2.01-1.57,3.43-1.57,3.43c0.52,1.56-1.04,2.08-1.04,2.08s0.39,0.14,0.95,0.57c-0.73-0.14-1.6,0.26-1.47,1.17
			c0.1,0.74,1.19,1.42,1.54,2.17c0.45,0.97,0.41,1.79,0.46,2.86c0.05,1.03,0.44,2.17,1.74,1.5c0.41-0.21,0.68-0.63,0.85-1.11
			c-0.1,0.9-0.4,1.75-0.79,2.51C139.75,46.77,138.74,46.78,137.56,46.1z"/>

			<linearGradient id="SVGID_9_" gradientUnits="userSpaceOnUse" x1="7.9645" y1="-21.5354" x2="7.9645" y2="65.0848" gradientTransform="matrix(-1 0 0 1 142.268 0)">
			<stop  offset="0" style="stop-color:#9DDAE7"/>
			<stop  offset="0.38" style="stop-color:#BBE4EE"/>
			<stop  offset="0.7521" style="stop-color:#D0ECF3"/>
			<stop  offset="1" style="stop-color:#D8EFF5"/>
		</linearGradient>
		<path class="st9" d="M134.62,51.73c-0.21,0.14-0.43,0.29-0.64,0.43C134.21,51.98,134.42,51.84,134.62,51.73z"/>

			<linearGradient id="SVGID_10_" gradientUnits="userSpaceOnUse" x1="59.0165" y1="-21.5354" x2="59.0165" y2="65.0848" gradientTransform="matrix(-1 0 0 1 142.268 0)">
			<stop  offset="0" style="stop-color:#9DDAE7"/>
			<stop  offset="0.38" style="stop-color:#BBE4EE"/>
			<stop  offset="0.7521" style="stop-color:#D0ECF3"/>
			<stop  offset="1" style="stop-color:#D8EFF5"/>
		</linearGradient>
		<path class="st10" d="M92.16,4.54c-3.52,0.05-6.24,1.73-8.71,4.24c0.14-1.02,1.07-1.92,0.37-2.94c-0.56-0.82-1.9-1.07-2.8-1.22
			c-1.19-0.2-2.37-0.19-3.57-0.08c-0.79,0.07-1.56,0.1-2.33,0.26c-0.45,0.1-0.9,0.23-1.34,0.38c6.66-2.97,12.59-1.08,12.59-1.08
			c1.4-1.11,3.59-2.34,6.34-3.16c-1.87,0.85-3.62,2.01-4.93,3.32C89.22,4.12,90.75,4.29,92.16,4.54z"/>

			<linearGradient id="SVGID_11_" gradientUnits="userSpaceOnUse" x1="57.6219" y1="-21.5354" x2="57.6219" y2="65.0848" gradientTransform="matrix(-1 0 0 1 142.268 0)">
			<stop  offset="0" style="stop-color:#9DDAE7"/>
			<stop  offset="0.38" style="stop-color:#BBE4EE"/>
			<stop  offset="0.7521" style="stop-color:#D0ECF3"/>
			<stop  offset="1" style="stop-color:#D8EFF5"/>
		</linearGradient>
		<path class="st11" d="M138.04,21.79c0.01,0.03,0.02,0.06,0.04,0.09c-1.12-1.25-3.27-1.59-4.66-0.17
			c-1.88,1.92-3.31,5.94-7.04,4.09c0.52-0.61,0.99-1.41,1.28-2.18c-1.42,1.58-4.31,2.76-6.43,2.49c1.79,1.35,4.4,0.39,1.79,3.4
			c-1.62,1.88-4.33,3.09-6.7,3.38c-3.3,0.4-14.55-0.64-14.13-5.94c0.98-0.43,2.03-0.85,2.98-1.36c-2.22-0.05-3.08,0.22-5.06-0.74
			c0.71,4.01-5.68,2.71-7.36,1.11c-0.88-0.84-2.59-3.26-2.32-4.53c0.25-1.21,2.28-2.15,3.03-3.35c-1.86,1.83-6.81,2.78-9.16,1.78
			c6.25,5.89-1.31,8.86-7.35,8.04c0.27-0.47,0.56-1.46,0.98-1.95c-1.78,1.24-3.47,2.23-5.62,2.78c12.38,5.25-10.42,12.71-10.26,6.02
			c-2.71,0.73-7.68,1.7-7.73,5.38c5.04-0.29,2.29,6.59-1.81,6.25c0.25-0.59,0.21-1.12,0.78-1.7c-1.62,1.08-3,1.43-4.9,1.72
			c0.24,0.35,0.25,0.72,0.4,1c-2.85,1.67-6.1-0.51-9.01-0.21c-2.81,0.29-5.73,0.3-8.59,0.15c1.51-0.02,3.01-0.14,4.41-0.32
			c2.63-0.33,5.73-0.63,8.33,0.16c1.35-0.02,2.52-0.26,2.65-1.28c1.76-0.09,5.29-0.46,6.08-2.43c0.62,0.96,2.54,0.01,2.88-0.92
			c0.65-1.78-2.34-1.97-3.39-1.86c0.85-1.08,1.49-2.28,2.59-3.15c0.9-0.71,1.87-1.32,2.86-1.88c1.86-1.06,3.88-1.75,5.85-2.61
			c-0.83,1.62,1.31,2.49,2.59,2.53c2.12,0.06,7.13-1.12,7.56-3.82c0.32-1.99-2.52-3.39-4.03-3.72c0.96-0.29,2.13-0.16,3.13-0.35
			c0.97-0.18,1.91-0.44,2.83-0.83c1.12-0.47,3.54-1.49,3.81-2.88c-0.3,1.31-1.14,2.96,0.86,2.85c1.39-0.08,2.34-0.59,3.26-1.32
			c0.54-0.74,0.78-1.63,0.39-2.84c-0.56-1.75-1.8-2.59-3.36-3.21c2-0.36,5.92-0.22,7.12-2.36c-0.28,0.73-0.18,1.54-0.72,2.24
			c2.69,0.16,4.6-0.31,6.07-2.57c0.78,1.48,1.95,2.58,3.48,3.28c-0.47,0.03-1.31-0.54-1.92-0.38c-0.55,0.15-1.3,0.95-1.6,1.4
			c-1,1.52-0.7,3.41,0.72,4.56c2.02,1.64,5.95,1.62,4.63-1.94c1-0.25,1.98-0.31,2.8-1.03c-1.93,1.75,2.45,2.17,3.2,2.14
			c1.84-0.07,3.72-0.65,4.78-2.16c0.08,1.21,0.99,2.2,1.98,2.77c-0.7-0.24-1.26-0.63-1.95-0.53c-0.88,0.12-1.98,0.65-2.71,1.13
			c-4.03,2.61,1.15,5.17,3.7,5.74c2.1,0.47,5.53,0.71,7.96-0.18c1.09-0.64,1.91-1.48,2.05-2.62c0.23-1.78-1.46-3.5-3.09-3.81
			c1.21,0.29,2.78,0.13,4,0c3.74-0.38,7.01-1.69,8.63-5.26c0.02,0.87-0.25,1.95-0.84,2.58c1.46-0.75,4.21-1.76,4.8-3.47
			c0.32-0.93,0.24-2.64-0.17-3.97c1.66,1.93,1.66,3.97,1.66,3.97S136.83,19.19,138.04,21.79z"/>

			<linearGradient id="SVGID_12_" gradientUnits="userSpaceOnUse" x1="25.5225" y1="-21.5354" x2="25.5225" y2="65.0848" gradientTransform="matrix(-1 0 0 1 142.268 0)">
			<stop  offset="0" style="stop-color:#9DDAE7"/>
			<stop  offset="0.38" style="stop-color:#BBE4EE"/>
			<stop  offset="0.7521" style="stop-color:#D0ECF3"/>
			<stop  offset="1" style="stop-color:#D8EFF5"/>
		</linearGradient>
		<path class="st12" d="M125.13,15.51c-1.91-2.01-5.74-1.5-8.06-0.58c0.61-0.51,1.43-1.38,1.29-2.29c-0.19-1.22-1.49-1.24-2.42-1.41
			c0.41,0.61,0.03,1.39-0.19,2.02c-0.12-1.44-1.99-2.13-3.17-2.48c2.08-2.03-0.31-5.47-1.85-7.01c-0.82-0.82-2.04-1.51-3.07-2.08
			c-0.06-0.03-0.12-0.06-0.17-0.09c7.81,3.07,7.66,8.59,7.66,8.59c4.33-0.69,5.72,2.43,5.72,2.43c0.98-0.65,2.79-1.17,5.12-0.95
			c-1.37,0.14-2.7,0.57-3.79,1.21C123.53,13.37,124.33,14.4,125.13,15.51z"/>

			<linearGradient id="SVGID_13_" gradientUnits="userSpaceOnUse" x1="99.11" y1="-21.5354" x2="99.11" y2="65.0848" gradientTransform="matrix(-1 0 0 1 142.268 0)">
			<stop  offset="0" style="stop-color:#9DDAE7"/>
			<stop  offset="0.38" style="stop-color:#BBE4EE"/>
			<stop  offset="0.7521" style="stop-color:#D0ECF3"/>
			<stop  offset="1" style="stop-color:#D8EFF5"/>
		</linearGradient>
		<path class="st13" d="M43.15,42.41C43.14,42.41,43.14,42.4,43.15,42.41C43.15,42.4,43.15,42.4,43.15,42.41
			C43.18,42.44,43.18,42.44,43.15,42.41z"/>

			<linearGradient id="SVGID_14_" gradientUnits="userSpaceOnUse" x1="128.4573" y1="-21.5354" x2="128.4573" y2="65.0848" gradientTransform="matrix(-1 0 0 1 142.268 0)">
			<stop  offset="0" style="stop-color:#9DDAE7"/>
			<stop  offset="0.38" style="stop-color:#BBE4EE"/>
			<stop  offset="0.7521" style="stop-color:#D0ECF3"/>
			<stop  offset="1" style="stop-color:#D8EFF5"/>
		</linearGradient>
		<path class="st14" d="M18.29,42.51c-0.62,0.2-0.83,0.57-1.19,0.93c0.03,0.01,0.07,0.02,0.1,0.03c1.39,0.29,2.26,1.1,3.55,1.71
			c1.48,0.7,2.86,1.19,4.46,1.58c0.67,0.16,1.36,0.29,2.08,0.38c-3.91-0.26-8.8-0.93-10.18-3.63c-0.1,0.27-0.42,0.6-0.51,0.98
			c-1.63-2.08-3.95-1.69-6.25-1.98c-2.17-0.27-3.86-1.75-5.87-2.31c-0.91-0.25-2.43,0.02-3.71,0.01c-0.18-0.08-0.33-0.17-0.45-0.25
			c0.66-0.21,1.46-0.26,2.06-0.23c0.59,0.03,1.24,0.04,1.86,0.09c0.33,0.16,0.67,0.34,1,0.52c0.86,0.46,1.64,0.7,2.28,0.81
			c1.56,0.79,3.23,0.93,4.96,1.09c0.9,0.09,1.96,0.05,2.81,0.35c0.2,0.07,0.38,0.16,0.57,0.26c0.07-0.67-0.19-1.36-0.69-1.87
			c-0.78-0.8-1.86-0.98-2.95-1.03c0.35-0.01,0.73,0,1.16,0.05c3.47,0.35,3.81,2.95,3.81,2.95s0.77-1.07,3.01-0.63
			C19.54,42.27,18.85,42.32,18.29,42.51z"/>

			<linearGradient id="SVGID_15_" gradientUnits="userSpaceOnUse" x1="97.9659" y1="-21.5354" x2="97.9659" y2="65.0848" gradientTransform="matrix(-1 0 0 1 142.268 0)">
			<stop  offset="0" style="stop-color:#9DDAE7"/>
			<stop  offset="0.38" style="stop-color:#BBE4EE"/>
			<stop  offset="0.7521" style="stop-color:#D0ECF3"/>
			<stop  offset="1" style="stop-color:#D8EFF5"/>
		</linearGradient>
		<path class="st15" d="M47.65,36.46c-0.76,0.85-0.87,1.88-1.05,2.91c0.49,0.02,0.96,0.15,1.43,0.27c-0.88,0.2-1.91,0.42-2.47,1.21
			c-0.21-0.85-1.12-1.28-1.84-0.69c-0.55,0.45-0.71,1.59-0.58,2.24c-1.28-0.43-2.73,0.07-3.89,0.9c0.12-0.23,0.27-0.46,0.49-0.7
			c1.21-1.39,3.12-0.69,3.12-0.69s-0.69-1.91,0.69-2.77c1.39-0.87,2.43,0.17,2.43,0.17s0.31-3.22,3.37-4.03
			C48.74,35.56,48.16,35.89,47.65,36.46z"/>

			<linearGradient id="SVGID_16_" gradientUnits="userSpaceOnUse" x1="84.4691" y1="-21.5354" x2="84.4691" y2="65.0848" gradientTransform="matrix(-1 0 0 1 142.268 0)">
			<stop  offset="0" style="stop-color:#9DDAE7"/>
			<stop  offset="0.38" style="stop-color:#BBE4EE"/>
			<stop  offset="0.7521" style="stop-color:#D0ECF3"/>
			<stop  offset="1" style="stop-color:#D8EFF5"/>
		</linearGradient>
		<path class="st16" d="M58.12,31.67c0,0-1.45-1.35-1.39-3.63c0.04,0.2,0.1,0.41,0.19,0.62c0.53,1.2,1.57,2.19,2.92,2.25
			c-0.76,0.48-1.4,1.33-2.11,1.79c-0.76,0.5-1.37,0.88-1.98,1.48C56.54,32.55,58.12,31.67,58.12,31.67z"/>

			<linearGradient id="SVGID_17_" gradientUnits="userSpaceOnUse" x1="79.5054" y1="-21.5354" x2="79.5054" y2="65.0848" gradientTransform="matrix(-1 0 0 1 142.268 0)">
			<stop  offset="0" style="stop-color:#9DDAE7"/>
			<stop  offset="0.38" style="stop-color:#BBE4EE"/>
			<stop  offset="0.7521" style="stop-color:#D0ECF3"/>
			<stop  offset="1" style="stop-color:#D8EFF5"/>
		</linearGradient>
		<path class="st17" d="M65.77,20.04c0.85-0.45,1.62-1.08,2.55-1.36c-1.57,1.76-2.3,2.96-2.41,5.34c-1.5-1.29-3.51-1.18-5.32-0.63
			c-1.22,0.38-2.63,1.31-3.38,2.49c0.01-0.04,0.03-0.07,0.04-0.11c1.56-3.64,6.76-4.33,6.76-4.33s-1.86-5.22,2.51-10.71
			C64.79,13.58,63.79,17.22,65.77,20.04z"/>

			<linearGradient id="SVGID_18_" gradientUnits="userSpaceOnUse" x1="54.574" y1="-21.5354" x2="54.574" y2="65.0848" gradientTransform="matrix(-1 0 0 1 142.268 0)">
			<stop  offset="0" style="stop-color:#9DDAE7"/>
			<stop  offset="0.38" style="stop-color:#BBE4EE"/>
			<stop  offset="0.7521" style="stop-color:#D0ECF3"/>
			<stop  offset="1" style="stop-color:#D8EFF5"/>
		</linearGradient>
		<path class="st18" d="M87.62,17.11c0.04-0.11,0.09-0.21,0.15-0.32C87.73,16.9,87.67,17.01,87.62,17.11z"/>
	</g>

		<radialGradient id="SVGID_19_" cx="51.0134" cy="9.6433" r="6.6218" gradientTransform="matrix(-1 0 0 1 142.268 0)" gradientUnits="userSpaceOnUse">
		<stop  offset="0" style="stop-color:#FFFFFF"/>
		<stop  offset="0.6644" style="stop-color:#FFFAFC"/>
		<stop  offset="1" style="stop-color:#FEF6F9"/>
	</radialGradient>
	<path class="st19" d="M83.85,10.92c0.85-0.65,0.51-0.22,1.51-0.16c0.43-3.28,3.15-5.33,6.33-5.19c1.01,0.05,2.96,0.33,3.61,1.28
		c0.73,1.06,0.07,2.12,1.66,2.77l2.73,0.91c-1.22,0-2.36-0.07-3.38,0.58c-2.49,1.59-4.12,3.43-7.36,2.24
		c-2.26-0.83-3.76-2.28-6.12-0.86C83.12,12.01,83.39,11.27,83.85,10.92z"/>

		<radialGradient id="SVGID_20_" cx="70.1018" cy="19.6139" r="1.1267" gradientTransform="matrix(-1 0 0 1 142.268 0)" gradientUnits="userSpaceOnUse">
		<stop  offset="0" style="stop-color:#FFFFFF"/>
		<stop  offset="0.6644" style="stop-color:#FFFAFC"/>
		<stop  offset="1" style="stop-color:#FEF6F9"/>
	</radialGradient>
	<path class="st20" d="M72.77,18.19c0,0.97,0.28,1.91-0.02,2.84c-1.39,0.01-1.71-0.97-0.76-1.93L72.77,18.19z"/>

		<radialGradient id="SVGID_21_" cx="71.8429" cy="16.0848" r="2.1686" gradientTransform="matrix(-1 0 0 1 142.268 0)" gradientUnits="userSpaceOnUse">
		<stop  offset="0" style="stop-color:#FFFFFF"/>
		<stop  offset="0.6644" style="stop-color:#FFFAFC"/>
		<stop  offset="1" style="stop-color:#FEF6F9"/>
	</radialGradient>
	<path class="st21" d="M68.09,17.12c-1.15-0.79,0.47-1.82,1.43-2.18c1.08-0.4,2.54-0.28,3.64,0.13
		C72.99,14.91,70.24,18.61,68.09,17.12z"/>

		<radialGradient id="SVGID_22_" cx="77.0174" cy="26.7192" r="0.8843" gradientTransform="matrix(-1 0 0 1 142.268 0)" gradientUnits="userSpaceOnUse">
		<stop  offset="0" style="stop-color:#FFFFFF"/>
		<stop  offset="0.6644" style="stop-color:#FFFAFC"/>
		<stop  offset="1" style="stop-color:#FEF6F9"/>
	</radialGradient>
	<path class="st22" d="M66.01,25.73c0.1,0.58-0.26,2.07-1.17,1.96c-0.93-0.11,0.23-1.13,0.39-1.44L66.01,25.73z"/>

		<radialGradient id="SVGID_23_" cx="66.9985" cy="10.6374" r="6.0699" gradientTransform="matrix(-1 0 0 1 142.268 0)" gradientUnits="userSpaceOnUse">
		<stop  offset="0" style="stop-color:#FFFFFF"/>
		<stop  offset="0.6644" style="stop-color:#FFFAFC"/>
		<stop  offset="1" style="stop-color:#FEF6F9"/>
	</radialGradient>
	<path class="st23" d="M67.95,14.77c-0.15-1.82,1.01-2.61,1.89-3.86c0.92-1.29,0.8-2.46,2.64-3.45c1.23-0.66,2.5-1.16,3.87-1.23
		c1.07-0.06,2.36-0.12,3.39,0.13c1.04,0.25,1.85,1.52,2.88,0.91c-0.35,0.54-0.87,1.5-0.98,2.17c-0.17,0.96,0.37,1.6-0.66,2.26
		c-1.5,0.97-2.25,3.64-4.81,3.39C73.82,14.85,70.13,13.26,67.95,14.77z"/>

		<radialGradient id="SVGID_24_" cx="73.0808" cy="22.5231" r="2.4101" gradientTransform="matrix(-1 0 0 1 142.268 0)" gradientUnits="userSpaceOnUse">
		<stop  offset="0" style="stop-color:#FFFFFF"/>
		<stop  offset="0.6644" style="stop-color:#FFFAFC"/>
		<stop  offset="1" style="stop-color:#FEF6F9"/>
	</radialGradient>
	<path class="st24" d="M67.07,21.96c0.36-1.41,2.11-2.04,3.35-2.08c0.02,0.25,1.5,1.71,0.65,2.94c-0.81,1.18-2.5,1.25-3.4,2.34
		C68.21,24.07,66.77,23.17,67.07,21.96z"/>

		<radialGradient id="SVGID_25_" cx="122.276" cy="43.4765" r="0.9366" gradientTransform="matrix(-1 0 0 1 142.268 0)" gradientUnits="userSpaceOnUse">
		<stop  offset="0" style="stop-color:#FFFFFF"/>
		<stop  offset="0.6644" style="stop-color:#FFFAFC"/>
		<stop  offset="1" style="stop-color:#FEF6F9"/>
	</radialGradient>
	<path class="st25" d="M21.15,44.07l-2.34-0.91C19.61,42.8,21.43,42.54,21.15,44.07z"/>

		<radialGradient id="SVGID_26_" cx="129.7021" cy="40.9379" r="1.5181" gradientTransform="matrix(-1 0 0 1 142.268 0)" gradientUnits="userSpaceOnUse">
		<stop  offset="0" style="stop-color:#FFFFFF"/>
		<stop  offset="0.6644" style="stop-color:#FFFAFC"/>
		<stop  offset="1" style="stop-color:#FEF6F9"/>
	</radialGradient>
	<path class="st26" d="M14.65,41.47l-4.16-0.26C11.44,40.45,14.13,39.77,14.65,41.47z"/>

		<radialGradient id="SVGID_27_" cx="94.9363" cy="41.1289" r="0.5115" gradientTransform="matrix(-1 0 0 1 142.268 0)" gradientUnits="userSpaceOnUse">
		<stop  offset="0" style="stop-color:#FFFFFF"/>
		<stop  offset="0.6644" style="stop-color:#FFFAFC"/>
		<stop  offset="1" style="stop-color:#FEF6F9"/>
	</radialGradient>
	<path class="st27" d="M47.8,40.95l-0.26,0.52C46.23,42.45,47.09,39.6,47.8,40.95z"/>

		<radialGradient id="SVGID_28_" cx="91.7562" cy="38.6113" r="2.1874" gradientTransform="matrix(-1 0 0 1 142.268 0)" gradientUnits="userSpaceOnUse">
		<stop  offset="0" style="stop-color:#FFFFFF"/>
		<stop  offset="0.6644" style="stop-color:#FFFAFC"/>
		<stop  offset="1" style="stop-color:#FEF6F9"/>
	</radialGradient>
	<path class="st28" d="M53,36.79l-1.04,0.13c-0.98,0.86-0.78,2.05-1.56,2.93c-0.81,0.91-2.03,0.81-2.31-0.46
		C47.45,36.49,51.23,36.79,53,36.79z"/>

		<radialGradient id="SVGID_29_" cx="81.0627" cy="26.0416" r="2.6204" gradientTransform="matrix(-1 0 0 1 142.268 0)" gradientUnits="userSpaceOnUse">
		<stop  offset="0" style="stop-color:#FFFFFF"/>
		<stop  offset="0.6644" style="stop-color:#FFFAFC"/>
		<stop  offset="1" style="stop-color:#FEF6F9"/>
	</radialGradient>
	<path class="st29" d="M60.68,24.4c1.44-0.71,3.35-0.49,3.64,1.33c-0.28,1.34-1.03,2.22-2.6,2.22c-1.29,0-2.49-0.93-3.62,0.1
		C58.39,26.34,58.92,25.26,60.68,24.4z"/>

		<radialGradient id="SVGID_30_" cx="13.2532" cy="15.7466" r="3.2643" gradientTransform="matrix(-1 0 0 1 142.268 0)" gradientUnits="userSpaceOnUse">
		<stop  offset="0" style="stop-color:#FFFFFF"/>
		<stop  offset="0.6644" style="stop-color:#FFFAFC"/>
		<stop  offset="1" style="stop-color:#FEF6F9"/>
	</radialGradient>
	<path class="st30" d="M129.46,12.99c0.83,0.3,2.59,1.26,2.9,2.21c0.4,1.25-0.34,0.87-0.82,1.46c-0.42,0.53-0.59,1.28-1.17,1.72
		c-1.29,0.97-3.09,0.18-3.52-1.15c-0.4-1.23,0.06-2.86-1.29-3.72C125.92,12.53,128.16,12.52,129.46,12.99z"/>

		<radialGradient id="SVGID_31_" cx="3.5758" cy="38.9952" r="0.4614" gradientTransform="matrix(-1 0 0 1 142.268 0)" gradientUnits="userSpaceOnUse">
		<stop  offset="0" style="stop-color:#FFFFFF"/>
		<stop  offset="0.6644" style="stop-color:#FFFAFC"/>
		<stop  offset="1" style="stop-color:#FEF6F9"/>
	</radialGradient>
	<path class="st31" d="M138.56,39.52l-0.26-1.04C139.09,38.39,139.45,39.45,138.56,39.52z"/>

		<radialGradient id="SVGID_32_" cx="3.975" cy="30.9986" r="1.6555" gradientTransform="matrix(-1 0 0 1 142.268 0)" gradientUnits="userSpaceOnUse">
		<stop  offset="0" style="stop-color:#FFFFFF"/>
		<stop  offset="0.6644" style="stop-color:#FFFAFC"/>
		<stop  offset="1" style="stop-color:#FEF6F9"/>
	</radialGradient>
	<path class="st32" d="M139.7,31.98c-0.32,0.58-1.88,0.98-2.39,0.67c-0.73-0.44-0.44-1.67-0.44-2.49l-0.13-0.91
		C137.78,29.33,140.49,30.51,139.7,31.98z"/>

		<radialGradient id="SVGID_33_" cx="2.3942" cy="51.3047" r="0.7936" gradientTransform="matrix(-1 0 0 1 142.268 0)" gradientUnits="userSpaceOnUse">
		<stop  offset="0" style="stop-color:#FFFFFF"/>
		<stop  offset="0.6644" style="stop-color:#FFFAFC"/>
		<stop  offset="1" style="stop-color:#FEF6F9"/>
	</radialGradient>
	<path class="st33" d="M140.75,51.85c-0.66,0.3-1.31-0.16-1.8-0.63l0.39-0.52C140.15,50.54,141,50.92,140.75,51.85z"/>

		<radialGradient id="SVGID_34_" cx="2.1533" cy="42.1249" r="1.488" gradientTransform="matrix(-1 0 0 1 142.268 0)" gradientUnits="userSpaceOnUse">
		<stop  offset="0" style="stop-color:#FFFFFF"/>
		<stop  offset="0.6644" style="stop-color:#FFFAFC"/>
		<stop  offset="1" style="stop-color:#FEF6F9"/>
	</radialGradient>
	<path class="st34" d="M140.71,43.55c-1.3,1.82-1.13-1.57-1.11-2.08l-0.26-1.3C140.16,40.52,141.33,42.68,140.71,43.55z"/>

		<radialGradient id="SVGID_35_" cx="37.329" cy="9.327" r="9.2262" gradientTransform="matrix(-1 0 0 1 142.268 0)" gradientUnits="userSpaceOnUse">
		<stop  offset="0" style="stop-color:#FFFFFF"/>
		<stop  offset="0.6644" style="stop-color:#FFFAFC"/>
		<stop  offset="1" style="stop-color:#FEF6F9"/>
	</radialGradient>
	<path class="st35" d="M97.3,7.87c-0.55-1.21,0.24-2.44,1.42-2.8c-1.08-0.69-2.54-1.25-3.74-0.44c0.6-0.95,2.03-1.48,2.85-2.19
		c1.02-0.89,2.18-1.46,3.54-1.53c2.4-0.12,8,1.41,8.3,4.27c-0.3-0.02-0.73,0.13-0.98,0.12c1.74,0.7,3.07,1.47,3.08,3.54
		c0,1.97-1.57,1.87-2.56,3.1c1.33-0.1,2.58-0.49,3.91,0.3c1.15,0.68,2.12,2.28,1.64,3.63c-0.8,0.5-1.68,1.25-2.35,1.91
		c0.41-2.1-1.16-1.91-2.85-2.4c-0.69-0.2-1.94-0.52-2.38-1.14c-0.36-0.52-0.08-0.92-0.1-1.44c-0.03-0.77,0.35-0.45-0.24-1.12
		c-0.56-0.63-1.86-0.71-2.62-0.85C102.12,10.42,98.37,10.2,97.3,7.87z"/>

		<radialGradient id="SVGID_36_" cx="22.6627" cy="18.6735" r="4.9971" gradientTransform="matrix(-1 0 0 1 142.268 0)" gradientUnits="userSpaceOnUse">
		<stop  offset="0" style="stop-color:#FFFFFF"/>
		<stop  offset="0.6644" style="stop-color:#FFFAFC"/>
		<stop  offset="1" style="stop-color:#FEF6F9"/>
	</radialGradient>
	<path class="st36" d="M114.79,17.43c1.44,0.96,3.07-1.62,4.73-2.12c2.1-0.62,3.62,0.16,5.4,1.19c0.75-0.06,0.8,0.92,0.79,1.64
		c-0.67-0.6-1.52-0.99-2.33-0.71c-0.13,1.26,1.01,2.2,0.11,3.48c-0.8,1.15-2.63,1.43-3.91,1.3c-1.19-0.12-2.27-0.52-3.25-1.2
		c-0.89-0.62-1.69-1.69-2.82-0.87C114.31,19.52,115.17,18.43,114.79,17.43z"/>

		<radialGradient id="SVGID_37_" cx="6.3621" cy="30.8149" r="0.4982" gradientTransform="matrix(-1 0 0 1 142.268 0)" gradientUnits="userSpaceOnUse">
		<stop  offset="0" style="stop-color:#FFFFFF"/>
		<stop  offset="0.6644" style="stop-color:#FFFAFC"/>
		<stop  offset="1" style="stop-color:#FEF6F9"/>
	</radialGradient>
	<path class="st37" d="M136.33,31.31c-0.31,0.08-0.63,0.04-0.89-0.11l0.39-0.91C136.29,30.42,136.45,30.8,136.33,31.31z"/>
</g>
</svg>
