<?xml version="1.0" encoding="utf-8"?>
<!-- Generator: Adobe Illustrator 24.0.3, SVG Export Plug-In . SVG Version: 6.00 Build 0)  -->
<svg version="1.1" id="Layer_1" xmlns="http://www.w3.org/2000/svg" xmlns:xlink="http://www.w3.org/1999/xlink" x="0px" y="0px"
	 viewBox="0 0 318.17 111.23" style="enable-background:new 0 0 318.17 111.23;" xml:space="preserve">
<style type="text/css">
	.st0{fill:url(#SVGID_1_);}
	.st1{fill:#E1F3F7;}
	.st2{fill:url(#SVGID_2_);}
	.st3{fill:url(#SVGID_3_);}
	.st4{fill:url(#SVGID_4_);}
	.st5{fill:url(#SVGID_5_);}
	.st6{fill:url(#SVGID_6_);}
	.st7{fill:url(#SVGID_7_);}
	.st8{fill:url(#SVGID_8_);}
	.st9{fill:url(#SVGID_9_);}
	.st10{fill:url(#SVGID_10_);}
	.st11{fill:url(#SVGID_11_);}
	.st12{fill:url(#SVGID_12_);}
	.st13{fill:url(#SVGID_13_);}
	.st14{fill:url(#SVGID_14_);}
	.st15{fill:url(#SVGID_15_);}
	.st16{fill:url(#SVGID_16_);}
	.st17{fill:url(#SVGID_17_);}
	.st18{fill:url(#SVGID_18_);}
	.st19{fill:url(#SVGID_19_);}
	.st20{fill:url(#SVGID_20_);}
	.st21{fill:url(#SVGID_21_);}
	.st22{fill:url(#SVGID_22_);}
	.st23{fill:url(#SVGID_23_);}
	.st24{fill:url(#SVGID_24_);}
	.st25{fill:url(#SVGID_25_);}
	.st26{fill:url(#SVGID_26_);}
	.st27{fill:url(#SVGID_27_);}
	.st28{fill:url(#SVGID_28_);}
	.st29{fill:url(#SVGID_29_);}
	.st30{fill:url(#SVGID_30_);}
	.st31{fill:url(#SVGID_31_);}
	.st32{fill:url(#SVGID_32_);}
	.st33{fill:url(#SVGID_33_);}
	.st34{fill:url(#SVGID_34_);}
	.st35{fill:url(#SVGID_35_);}
	.st36{fill:url(#SVGID_36_);}
	.st37{fill:url(#SVGID_37_);}
	.st38{fill:url(#SVGID_38_);}
	.st39{fill:url(#SVGID_39_);}
	.st40{fill:url(#SVGID_40_);}
	.st41{fill:url(#SVGID_41_);}
	.st42{fill:url(#SVGID_42_);}
	.st43{fill:url(#SVGID_43_);}
	.st44{fill:url(#SVGID_44_);}
	.st45{fill:url(#SVGID_45_);}
	.st46{fill:url(#SVGID_46_);}
	.st47{fill:url(#SVGID_47_);}
	.st48{fill:url(#SVGID_48_);}
	.st49{fill:url(#SVGID_49_);}
	.st50{fill:url(#SVGID_50_);}
	.st51{fill:url(#SVGID_51_);}
	.st52{fill:url(#SVGID_52_);}
	.st53{fill:url(#SVGID_53_);}
	.st54{fill:url(#SVGID_54_);}
	.st55{fill:url(#SVGID_55_);}
	.st56{fill:url(#SVGID_56_);}
	.st57{fill:url(#SVGID_57_);}
	.st58{fill:url(#SVGID_58_);}
	.st59{fill:url(#SVGID_59_);}
	.st60{fill:url(#SVGID_60_);}
	.st61{fill:url(#SVGID_61_);}
	.st62{fill:url(#SVGID_62_);}
	.st63{fill:url(#SVGID_63_);}
	.st64{fill:url(#SVGID_64_);}
	.st65{fill:url(#SVGID_65_);}
	.st66{fill:url(#SVGID_66_);}
	.st67{fill:url(#SVGID_67_);}
	.st68{fill:url(#SVGID_68_);}
	.st69{fill:url(#SVGID_69_);}
	.st70{fill:url(#SVGID_70_);}
	.st71{fill:url(#SVGID_71_);}
	.st72{fill:url(#SVGID_72_);}
	.st73{fill:url(#SVGID_73_);}
	.st74{fill:url(#SVGID_74_);}
</style>
<g>
	<linearGradient id="SVGID_1_" gradientUnits="userSpaceOnUse" x1="159.087" y1="6.5253" x2="159.087" y2="93.1456">
		<stop  offset="0" style="stop-color:#D9EEE6"/>
		<stop  offset="0.1597" style="stop-color:#E1F1EA"/>
		<stop  offset="0.6636" style="stop-color:#F5FAF8"/>
		<stop  offset="1" style="stop-color:#FFFFFF"/>
	</linearGradient>
	<path class="st0" d="M5.65,63.03c0,0-1.39-0.87-3.47-0.17c-2.08,0.69-2.95,2.6-1.39,3.29s3.99,0,5.2-0.87c0,0,1.39,1.56,5.2,0
		c3.81-1.56,13.35-4.51,24.79-3.64c11.44,0.87,22.88,3.47,28.61,5.03c5.72,1.56,10.58-0.69,10.58-0.69s-1.56,2.77,1.21,3.64
		c2.77,0.87,3.99-0.17,3.99-0.17s-0.35,2.95,1.91,3.29c2.25,0.35,3.29-0.35,3.29-0.35s0.69,4.51,5.37,4.68
		c4.68,0.17,6.07-0.87,6.07-0.87s2.43,6.41,10.58,8.84c8.15,2.43,10.06,1.56,10.06,1.56s3.12,6.41,11.79,8.84
		c8.67,2.43,13.35,2.25,13.35,2.25s2.43,4.51,7.97,1.21c0,0,8.15,6.07,24.1,7.8c15.95,1.73,20.11,1.56,20.11,1.56
		s1.73,3.12,10.23,2.95c8.5-0.17,11.27-2.95,11.27-2.95s12.31,1.39,18.03-4.16c0,0,12.48-0.69,23.06-8.15
		c10.58-7.45,19.94-15.43,32.94-19.42c13-3.99,23.23-2.6,26.01-2.25c2.77,0.35,1.91-3.12-1.21-3.12c0,0-1.91-2.95-5.72-2.95
		c-3.81,0-6.93,3.12-6.93,3.12s-0.87-2.08-2.95-2.43c-2.08-0.35-3.81,0.87-3.81,0.87s0-2.77-3.47-2.77c0,0,2.77-5.03-0.87-8.84
		c-3.64-3.81-10.06-3.64-11.62,0.17c0,0-3.29-3.47-7.45-1.73c-4.16,1.73-4.85,6.24-3.99,8.67c0,0-2.95,0.17-4.51,2.08
		c0,0-0.17-2.08-2.25-2.6c0,0,2.6-2.43,1.73-5.55c-0.87-3.12-3.12-4.51-3.12-4.51s3.99-3.99,2.77-11.1
		c-1.21-7.11-5.03-8.32-5.03-8.32s0.87-4.33-3.12-4.16c0,0,1.04-6.07-2.95-9.19c-3.99-3.12-11.44-1.56-11.44-1.56
		s0.17-4.51-4.85-4.68c0,0-0.52-8.84-8.32-11.62c-7.8-2.77-14.22,0.87-14.22,0.87s-6.59-7.8-17.51-3.81s-11.44,8.5-11.96,11.96
		c0,0-2.43,0.87-2.95,3.47c0,0-2.6-1.04-4.51,1.39c0,0-7.97-2.25-13.35,2.6c-5.37,4.85-6.93,10.23-6.93,14.22
		c0,0-7.8,3.64-3.29,9.88c0,0-2.43-1.04-5.03,1.56c0,0-1.21-5.72-6.59-6.93c-5.37-1.21-7.28,0.52-7.28,0.52s-1.39-3.12-5.55-1.91
		c0,0-3.64-7.63-10.92-6.76c-7.28,0.87-10.92,4.85-9.88,9.36c0,0-6.41,1.39-4.51,7.28c0,0-3.12,1.04-4.51,4.51
		c0,0-1.73-2.25-4.51-1.73c-2.77,0.52-3.47,2.08-3.47,2.08l-2.08-1.39c0,0,1.21-4.85-1.56-6.24c-2.77-1.39-3.64-0.52-3.64-0.52
		s-3.81-8.15-12.66-8.15c-8.84,0-13.35,4.33-13.35,4.33s-5.03-3.12-9.54-0.69c-4.17,2.25-5.22,4.79-5.5,6.94
		c-0.02,0.17-0.04,0.35-0.05,0.51c0,0-2.08,0.17-3.29,2.08c0,0-3.99-2.08-7.97-0.69c-3.99,1.39-3.64,5.2-3.64,5.2
		s-4.85,1.04-2.25,5.37c0,0-1.56,1.04-3.99,0.35c-2.43-0.69-3.99-0.69-4.68,1.04c0,0-1.73-2.95-4.85-2.25
		C8.25,59.21,5.31,60.77,5.65,63.03z"/>
	<path class="st1" d="M123.8,90.7c-1.31-1.78-0.96-4.96,0.78-6.39c1.18-0.96,2.44-1.22,3.2-2.67c-3,2.91-9.29,3.61-12.79,1.41
		c0.51,0.94,1.21,1.62,1.94,2.34c-2.67,1.09-7.64-0.23-10.17-1.53c-0.78-0.4-4.83-3.67-2.34-4.35c-0.92-0.63-2.37-1.84-2.5-3.09
		c-0.1-0.99,0.52-1.17,0.92-2.06c-2.38,0.98-6.02,0.93-7.67-1.28c0.28,0.75,0.41,1.51,1.06,2c-1.69,0.93-4.01,1.32-5.4-0.22
		c-1.01-1.11-1.28-3.19-0.1-4.3c-2.02,0.53-5.19,0.86-6.59-1.11c0,0.84,0.38,1.66,0.91,2.27c-2.07,0.18-4.77-0.29-3.75-3.04
		c-1.35,0.3-3.81-0.4-3.37-2.25c0.98,0.51,2.18,1.2,3.32,1.16c-1.17-0.71-2.9-2.09-1.69-3.63c-3,0.82-6.44,0.8-9.13-1.07
		c1,0.95,1.81,2.18,3.32,2.25c-1.14,0.92-2.34,1.59-3.62,2.03c3.01-0.24,5.06-1.19,5.06-1.19s-1.56,2.77,1.21,3.64
		c2.77,0.87,3.99-0.17,3.99-0.17s-0.35,2.95,1.91,3.29c2.25,0.35,3.29-0.35,3.29-0.35s0.69,4.51,5.37,4.68
		c4.68,0.17,6.07-0.87,6.07-0.87s2.43,6.41,10.58,8.84c8.15,2.43,10.06,1.56,10.06,1.56s3.12,6.41,11.79,8.84
		c0.25,0.07,0.49,0.14,0.74,0.2c-1.33-0.73-2.9-1.34-3.7-2C125.52,92.87,124.53,91.69,123.8,90.7z M156.91,100.82
		c-2.7-1.24-5.56-2.5-7.76-4.58c0.35,0.79,0.78,1.71,0.11,2.39c-0.58,0.59-2.15,0.64-2.83,0.2c-2-1.3-0.39-3.72,0.81-4.79
		c-2.56,1.2-6.03,0.72-8.3-0.78c1.07,0.64,1.74,1.92,3.04,2.02c-0.84,0.96-2.69,1.62-4.52,1.96c3.5,0.55,5.34,0.48,5.34,0.48
		s2.43,4.51,7.97,1.21c0,0,8.11,6.04,23.98,7.79c-1.41-0.32-2.82-0.66-4.22-1.05C165.86,104.34,161.3,102.84,156.91,100.82z
		 M265.85,88.51c-4.44,2.69-8,6.68-12.46,9.24c-2.66,1.53-5.92,3.87-9.18,3.26c-2.08-0.39-2.15-1.85-0.83-3.14
		c-1.17,0.33-2.5,0.89-3.73,0.37c-1.25-0.53-0.97-1.16-1.17-2.31c-0.32-1.87-1.25-3.55-2.82-4.79c2.55,3.32,1.47,11.22-3.91,10.91
		c0.63,0.14,1.45,0.23,1.92,0.65c-0.77,1.77-2.25,3.31-3.97,4.26c1.79-0.64,3.46-1.55,4.78-2.83c0,0,12.48-0.69,23.06-8.15
		c8.3-5.85,15.86-12.03,25.02-16.34C276.62,81.48,271.03,85.38,265.85,88.51z"/>
	<g>
		<linearGradient id="SVGID_2_" gradientUnits="userSpaceOnUse" x1="159.1053" y1="6.5253" x2="159.1053" y2="93.1456">
			<stop  offset="0" style="stop-color:#B1E0E7"/>
			<stop  offset="0.3733" style="stop-color:#CDEBEF"/>
			<stop  offset="0.749" style="stop-color:#E1F3F6"/>
			<stop  offset="1" style="stop-color:#E9F6F8"/>
		</linearGradient>
		<path class="st2" d="M315.29,71.18c0,0-1.91-2.95-5.72-2.95c-3.81,0-6.93,3.12-6.93,3.12s-0.87-2.08-2.95-2.43
			s-3.81,0.87-3.81,0.87s0-2.77-3.47-2.77c0,0,2.77-5.03-0.87-8.84c-3.64-3.81-10.06-3.64-11.62,0.17c0,0-3.29-3.47-7.45-1.73
			c-4.16,1.73-4.85,6.24-3.99,8.67c0,0-2.95,0.17-4.51,2.08c0,0-0.17-2.08-2.25-2.6c0,0,2.6-2.43,1.73-5.55
			c-0.87-3.12-3.12-4.51-3.12-4.51s3.99-3.99,2.77-11.1c-1.21-7.11-5.03-8.32-5.03-8.32s0.87-4.33-3.12-4.16
			c0,0,1.04-6.07-2.95-9.19c-3.99-3.12-11.44-1.56-11.44-1.56s0.17-4.51-4.85-4.68c0,0-0.52-8.84-8.32-11.62
			c-7.8-2.77-14.22,0.87-14.22,0.87s-6.59-7.8-17.51-3.81c-10.92,3.99-11.44,8.5-11.96,11.96c0,0-2.43,0.87-2.95,3.47
			c0,0-2.6-1.04-4.51,1.39c0,0-7.97-2.25-13.35,2.6c-5.37,4.85-6.93,10.23-6.93,14.22c0,0-7.8,3.64-3.29,9.88
			c0,0-2.43-1.04-5.03,1.56c0,0-1.21-5.72-6.59-6.93c-5.37-1.21-7.28,0.52-7.28,0.52s-1.39-3.12-5.55-1.91c0,0-3.64-7.63-10.92-6.76
			c-7.28,0.87-10.92,4.85-9.88,9.36c0,0-6.41,1.39-4.51,7.28c0,0-3.12,1.04-4.51,4.51c0,0-1.73-2.25-4.51-1.73
			c-2.77,0.52-3.47,2.08-3.47,2.08l-2.08-1.39c0,0,1.21-4.85-1.56-6.24c-2.77-1.39-3.64-0.52-3.64-0.52s-3.81-8.15-12.66-8.15
			c-8.84,0-13.35,4.33-13.35,4.33s-5.03-3.12-9.54-0.69c-4.17,2.25-5.22,4.79-5.5,6.94c-0.02,0.17-0.04,0.35-0.05,0.51
			c0,0-2.08,0.17-3.29,2.08c0,0-3.99-2.08-7.97-0.69c-3.99,1.39-3.64,5.2-3.64,5.2s-4.85,1.04-2.25,5.37c0,0-1.56,1.04-3.99,0.35
			c-2.43-0.69-3.99-0.69-4.68,1.04c0,0-1.73-2.95-4.85-2.25c-3.12,0.69-6.07,2.25-5.72,4.51c0,0-1.39-0.87-3.47-0.17
			c-1.19,0.4-1.98,1.19-2.15,1.93c0.18,0.26,0.71,0.41,1.7,0.35c1.91-0.12,3.08-1.92,5.27-1.11c-0.27-0.53-0.05-0.92-0.18-1.47
			c3.05-1.19,6.98,0.23,10.16-1.02c2.96-1.17,6.54-1.1,9.8-1.68c-0.5-0.3-0.61-0.83-1.05-1.24c1.32-0.85,3.58-1.24,3.19-3.34
			c2.33,1.26,4.91,0.16,6.99-0.97c0.2,0.88,0.32,1.35-0.23,2.19c3.19-1,9.88,2.47,11.38-2.77c-1.05-0.08-2.12-0.3-3.01-0.85
			c2.03,0.18,3.47-0.32,5.06-1.52c-0.47,3.12,12.24-0.54,5.07-5.52c1.72,1.1,4.25,0.61,5.84-0.45c0.5,0.53,1.14,1.25,1.53,1.79
			c-2.63,1.19-1.06,4.62,0.38,6.11c2.17,2.25,5.93,3.11,8.76,1.45c1.81,3.09,10.19,4.4,10.68-0.23c-0.63-0.37-1.28-0.82-1.92-1.24
			c1.69,0.96,3.51,0.31,5.35,0.64c1.69,0.31,1.84,0.83,3.56,2.07c-0.92-0.33-2.36-1.27-3.22-0.77c-1.46,0.85-0.86,3.51-0.22,4.66
			c2.11,3.79,6.45,3.95,8.76,1.55c2.74,2.66,9.87-2.01,7.68-4.59c1.04,0.58,2.25,0.96,3.35,1.25c-1.33,1.16-2.05,3.18-2.26,4.86
			c1.13-2.12,3.2-3.54,5.43-3.07c-0.36-3.13,4.6-2.61,6.45-2.57c-1.6,0.44-1.93,2.09-1.94,3.58c1.86-3.54,7.57-2.77,10.58-1.31
			c-2.6-4.91,8.01-3.75,10.17-3.01c3.88,1.33,8.31,6.8,3.47,9.61c2.6-0.19,4.6,2.39,3.59,4.84c2.87-2.94,8.98,1.5,11.31,3.21
			c-0.88,0.38-1.58,1.33-1.95,2.05c2.19-2.66,6.19-1.89,9.3-2.1c-2.12-1.9-2.01-4.87,0.32-6.71c-4.22-2.23,2.23-5.99,5.13-5.25
			c-0.61-2.32-1.27-4.71-0.5-7.16c1.41-4.47,7.8-10.98,12.72-11.31c-1.22-2.7,2.04-6.62,4.89-4.93c0.14,0.32,0.25,0.66,0.34,1
			c2.21-7.2,14.93-5.77,20.04-3.92c-1.03-4.98,11.26-6.25,14.09-6.14c6.6,0.25,12.3,2.55,13.24,9.59c9.2-2.3,23.33,14.91,11.68,19.6
			c1.42,0.94,0.98,2.72,1.06,4.27c2.01-1.04,5.07-0.34,7.1,0.37c1.4,0.49,6.96,4.25,2.5,4.19c2.9,1.88,5.77,5.56,6,9.23
			c1.81-1.91,3.85-2.79,6.22-3.72c-0.28,0.78-0.43,1.56-0.56,2.42c2.05-3.5,8.96-4.88,12.74-4.56c-1.53,2.99,3.58,3.81,5.49,3.54
			c2.56-0.36,4.64-1.99,7.02-2.53c4.25-0.98,8.4,0.99,12.76,0.52c1.55-0.17,2.74-1.16,4.21-1.52c2.05-0.5,3.36,0.38,5.42,0.71
			c1.65,0.27,3.52,0.5,5.12,0.85c0.87,0.19,0.82,1,2.09,0.66c0.06-0.02,0.12-0.03,0.17-0.05C318.2,72.4,317.14,71.18,315.29,71.18z"
			/>
	</g>
	<g>
		<linearGradient id="SVGID_3_" gradientUnits="userSpaceOnUse" x1="159.1053" y1="6.5253" x2="159.1053" y2="93.1456">
			<stop  offset="0" style="stop-color:#9DDAE7"/>
			<stop  offset="0.38" style="stop-color:#BBE4EE"/>
			<stop  offset="0.7521" style="stop-color:#D0ECF3"/>
			<stop  offset="1" style="stop-color:#D8EFF5"/>
		</linearGradient>
		<path class="st3" d="M0.04,64.78c0.18,0.26,0.71,0.41,1.7,0.35c1.91-0.12,3.08-1.92,5.27-1.11c-0.27-0.53-0.05-0.92-0.18-1.47
			c3.05-1.19,6.98,0.23,10.16-1.02c2.96-1.17,6.54-1.1,9.8-1.68c-0.5-0.3-0.61-0.83-1.05-1.24c1.32-0.85,3.58-1.24,3.19-3.34
			c2.33,1.26,4.91,0.16,6.99-0.97c0.2,0.88,0.32,1.35-0.23,2.19c3.19-1,9.88,2.47,11.38-2.77c-1.05-0.08-2.12-0.3-3.01-0.85
			c2.03,0.18,3.47-0.32,5.06-1.52c-0.47,3.12,12.24-0.54,5.07-5.52c1.72,1.1,4.25,0.61,5.84-0.45c0.5,0.53,1.14,1.25,1.53,1.79
			c-2.63,1.19-1.06,4.62,0.38,6.11c2.17,2.25,5.93,3.11,8.76,1.45c1.81,3.09,10.19,4.4,10.68-0.23c-0.63-0.37-1.28-0.82-1.92-1.24
			c1.69,0.96,3.51,0.31,5.35,0.64c1.69,0.31,1.84,0.83,3.56,2.07c-0.92-0.33-2.36-1.27-3.22-0.77c-1.46,0.85-0.86,3.51-0.22,4.66
			c2.11,3.79,6.45,3.95,8.76,1.55c2.74,2.66,9.87-2.01,7.68-4.59c1.04,0.58,2.25,0.96,3.35,1.25c-1.33,1.16-2.05,3.18-2.26,4.86
			c1.13-2.12,3.2-3.54,5.43-3.07c-0.36-3.13,4.6-2.61,6.45-2.57c-1.6,0.44-1.93,2.09-1.94,3.58c1.86-3.54,7.57-2.77,10.58-1.31
			c-2.6-4.91,8.01-3.75,10.17-3.01c3.88,1.33,8.31,6.8,3.47,9.61c2.6-0.19,4.6,2.39,3.59,4.84c2.87-2.94,8.98,1.5,11.31,3.21
			c-0.88,0.38-1.58,1.33-1.95,2.05c2.19-2.66,6.19-1.89,9.3-2.1c-2.12-1.9-2.01-4.87,0.32-6.71c-4.22-2.23,2.23-5.99,5.13-5.25
			c-0.61-2.32-1.27-4.71-0.5-7.16c1.41-4.47,7.8-10.98,12.72-11.31c-1.22-2.7,2.04-6.62,4.89-4.93c0.14,0.32,0.25,0.66,0.34,1
			c2.21-7.2,14.93-5.77,20.04-3.92c-1.03-4.98,11.26-6.25,14.09-6.14c6.6,0.25,12.3,2.55,13.24,9.59c9.2-2.3,23.33,14.91,11.68,19.6
			c1.42,0.94,0.98,2.72,1.06,4.27c2.01-1.04,5.07-0.34,7.1,0.37c1.4,0.49,6.96,4.25,2.5,4.19c2.9,1.88,5.77,5.56,6,9.23
			c1.81-1.91,3.85-2.79,6.22-3.72c-0.28,0.78-0.43,1.56-0.56,2.42c2.05-3.5,8.96-4.88,12.74-4.56c-1.53,2.99,3.58,3.81,5.49,3.54
			c2.56-0.36,4.64-1.99,7.02-2.53c4.25-0.98,8.4,0.99,12.76,0.52c1.55-0.17,2.74-1.16,4.21-1.52c2.05-0.5,3.36,0.38,5.42,0.71
			c1.65,0.27,3.52,0.5,5.12,0.85c0.87,0.19,0.82,1,2.09,0.66c0.06-0.02,0.12-0.03,0.17-0.05c0.03-0.92-1.03-2.15-2.88-2.15
			c0,0-1.91-2.95-5.72-2.95c-0.67,0-1.31,0.1-1.93,0.25c2.08-0.19,4.2,0.1,5.74,1.72c0.29,0.31,0.67,1.22,0.99,1.41
			c0.33,0.2,1.13-0.04,1.61,0.1c0.35,0.11,0.7,0.38,1.04,0.7c-0.93,0.13-1.66-0.15-2.68-0.37c-1.58-0.33-3.19-0.5-4.83-0.57
			c-0.46-0.19-0.89-0.36-1.19-0.49c-0.41-0.17-1.3-0.85-1.6-0.9c-0.33-0.06-0.9,0.21-1.24,0.33c-0.7,0.25-1.49,0.44-2.17,0.76
			c-0.63,0.3-1.21,0.78-1.88,0.96c-1.15,0.3-2.56,0.03-3.7-0.19c-1.69-0.33-3.39-0.6-5.12-0.68c-3.31-0.15-6.4,0.86-9.51,1.82
			c-1.56,0.48-5.99,0.65-5.78-1.89c-2.13-0.71-4.06-0.82-6.3-0.34c-1.2,0.26-5.41,2.51-6.28,0.61c-0.87,0.79-1.98,1.28-3.11,1.6
			c-3.73,1.05-5.06-2.58-7.49-4.7c0.16-0.5,0.08-1.13-0.32-1.92c-1.64-3.26-6.21-3.11-7.88-6.21c-1.09-2.02,0.89-4.22,0.87-6.35
			c-0.02-1.75-0.65-3.57-1.42-5.15c-2.1-4.29-5.44-7.38-9.83-9.16c-1.2-0.49-2.65-0.69-3.76-1.38c-0.55-0.35-1.37-1.97-0.11-1.95
			c-2.27-2.36-4.93-4.68-8.09-5.82c-3.96-1.43-8.7-1.66-12.86-1.3c-2.15,0.18-4.28,0.85-6.39,1.28c-1.59,0.32-3.57,1.15-5.19,0.97
			c1.82,1.46-1.67,2-2.58,2c-3.4,0-6.83-0.51-10.11,0.41c-1.87,0.53-4.36,1.78-5.85,3.45c-0.56,0.15-1.11,0.31-1.61,0.46
			c-1.29,0.38-2.74,1.06-3.65,2.08c-0.9,1-1.43,2.22-2.47,3.19c-2.78,2.59-5.93,4.49-8,7.82c-1.26,2.03-1.89,4.41-3.57,6.14
			c-0.11-0.05-0.22-0.07-0.33-0.13c0.44,1.06,1.21,2.17,0.6,3.37c-0.61,1.22-2.38,1.61-3.22,2.64c-0.86,1.06-1.24,2.86-1.76,4.17
			c-0.58,1.43-1.32,2.32-2.65,2.79c2.19,0.12,1.6,2.05-0.51,1.91c-1.73-0.11-3.21-1.22-4.85-1.58c-1.29-0.28-2.64-0.17-3.95-0.55
			c-2.62-0.75-6.51-3.67-2.74-5.76c-0.38-2.24-2.52-4.5-4.3-5.81c-2.99-2.19-7.16-3-10.79-2.86c-1.58,0.06-3.14,0.16-4.68,0.44
			c-1.24,0.23-2.72,0.73-3.98,0.6c0.6,0.38,1.78,0.82,2.24,1.63c-0.97,0-1.95-0.06-2.94-0.13c-0.24-0.13-0.47-0.23-0.66-0.32
			c-1.69-0.7-3.42-0.75-5.21-0.49c-1.46,0.22-2.82,0.51-4.05,1.31c-0.45,0.29-1.05,0.86-1.67,0.53c-0.59-0.32-0.47-0.9,0.15-1
			c-0.81-0.28-6.51-2.31-6.69-0.5c-0.03,0.33,0.41,0.66,0.39,1.04c-0.05,1.19-1.85,1.73-2.79,2c-1.51,0.44-3.35,0.59-4.72-0.27
			c0.13,2.08-4.39,0.74-5.15-0.1c-0.81-0.89-0.48-2.21,0.64-2.76c0.58-0.29,1.22-0.03,1.79-0.27c-2.26-3.86-7.75-4.46-11.77-3.78
			c0.79,0.26,1.54,1.19,0.9,2.02c-0.67,0.86-2.37,0.85-3.37,0.73c-0.96-0.11-1.94-0.49-2.75-1.01c-0.59-0.38-1.04-0.95-1.76-0.97
			c-0.71-0.02-1.55,0.41-2.3,0.52c-0.89,0.12-1.76,0.03-2.64-0.17c-1.52-0.34-3.29-0.98-4.14-2.43c-0.28-0.49-0.58-1.36-0.65-2.2
			c0.03-0.17,0.08-0.33,0.15-0.49c0.37-0.75,1.4-1.82,2.22-2c-1.44-0.24-2.78-2.14-3.85-3.02c-1.27,1.42-3.14,1.41-4.82,1.4
			c-0.41,0-1.28,0.04-1.37,0.59c-0.11,0.66,0.82,0.64,1.17,0.96c1.47,1.32-0.08,3.29-1.51,3.73c-1.17,0.36-3.24,0.04-4-1.02
			c-2.19,1.95-4.71,2.81-7.59,2.93c1.15,0.37,3.38,1.86,1.18,2.52c-1.3,0.39-3.99,0.67-5.05-0.41c-0.6-0.6-0.54-1.53-1.66-1.34
			c-0.35,0.06-0.8,0.43-1.16,0.56c-1.28,0.47-2.67,0.73-4.03,0.83c-0.62,0.05-1.27,0.03-1.9-0.05c-0.54-0.46-0.91-1.04-0.92-1.93
			c-0.01-1.21,0.59-2.35,1.45-3.27c-2.4,1.68-2.15,4.45-2.15,4.45s-1.42,0.31-2.31,1.27c0.75-0.42,1.87-0.36,2.66-0.14
			c0.21,0.06,0.4,0.16,0.59,0.27c0.06,0.65-0.24,1.32-0.72,1.85c-0.29,0.32-0.81,0.73-1.19,0.9c-0.31,0.14-0.93,0.06-1.15,0.33
			c-0.31,0.38,0.11,0.78-0.12,1.13c-0.18,0.27-0.65,0.25-0.97,0.29c-0.94,0.14-1.94,0.2-2.86,0.35c-1.37,0.22-2.73,0.53-4.08,0.84
			c0.05-0.64,0.49-1.26,1.08-1.78c-0.86,0.1-1.48,0.52-1.85,1.45c0,0-1.47-2.5-4.14-2.35c1.41,0.48,3,1.48,3.48,2.99
			c-3.19,0.55-6.69-0.32-9.71,1.09c1.05,1.3-1.78,1.58-2.51,1.75c-0.6,0.14-2.05,0.51-2.29-0.27c-0.07-0.21-0.03-0.41,0.06-0.6
			C0.53,63.79,0.15,64.3,0.04,64.78z"/>
		<linearGradient id="SVGID_4_" gradientUnits="userSpaceOnUse" x1="182.2057" y1="6.5253" x2="182.2057" y2="93.1456">
			<stop  offset="0" style="stop-color:#9DDAE7"/>
			<stop  offset="0.38" style="stop-color:#BBE4EE"/>
			<stop  offset="0.7521" style="stop-color:#D0ECF3"/>
			<stop  offset="1" style="stop-color:#D8EFF5"/>
		</linearGradient>
		<path class="st4" d="M171.34,20.56c1.99-1.39,5.83-0.88,7.65,0.68c-0.8-0.84-2.45-2.06-1.57-3.28c0.91-1.27,2.9-1.34,4.04-0.38
			c-0.25-0.75,0.18-1.81,0.65-2.44c0.74-0.98,1.74-0.89,2.79-1.16c-0.01,0.72-0.26,1.39-0.07,2.13c-0.12-1.66,1.87-2.97,3.18-3.53
			c-0.93-0.05-2.2-0.28-2.67-1.21c-0.72-1.43,0.48-3.33,1.39-4.4c1.84-2.16,4.38-3.76,7-5.08c-9.06,3.79-9.55,7.96-10.03,11.21
			c0,0-2.43,0.87-2.95,3.47c0,0-2.6-1.04-4.51,1.39c0,0-2.46-0.69-5.57-0.48c1.37,0.06,2.71,0.28,4,1.07
			C173.49,18.63,172.13,19.77,171.34,20.56z"/>
		<linearGradient id="SVGID_5_" gradientUnits="userSpaceOnUse" x1="95.8031" y1="6.5253" x2="95.8031" y2="93.1456">
			<stop  offset="0" style="stop-color:#9DDAE7"/>
			<stop  offset="0.38" style="stop-color:#BBE4EE"/>
			<stop  offset="0.7521" style="stop-color:#D0ECF3"/>
			<stop  offset="1" style="stop-color:#D8EFF5"/>
		</linearGradient>
		<path class="st5" d="M86.64,51.5c1.82,0.4,3.43,1.31,4.31,3c0.47-1.87,1.08-3.13,3.21-3.52c2-0.37,3.14,0.34,3.98,2.06
			c-0.55,0.26-0.96,0.61-1.43,0.98c1.35-0.74,3.23-0.3,4.53,0.26c-0.5-0.39-1.22-0.63-1.42-1.31c-0.26-0.85,0.44-1.78,0.89-2.42
			c0.91-1.29,2.73-2.04,4.26-1.41c-0.82-0.71-1.73-1.54-2.14-2.59c-0.58-1.5,0.26-2.46,0.66-3.66c-0.84,1.11-1.29,2.68-0.58,4.88
			c0,0-3.12,1.04-4.51,4.51c0,0-1.73-2.25-4.51-1.73c-2.77,0.52-3.47,2.08-3.47,2.08l-2.08-1.39c0,0,0.23-0.91,0.26-2.06
			C88.22,50.17,87.59,51.23,86.64,51.5z"/>
		<linearGradient id="SVGID_6_" gradientUnits="userSpaceOnUse" x1="212.1571" y1="6.5253" x2="212.1571" y2="93.1456">
			<stop  offset="0" style="stop-color:#9DDAE7"/>
			<stop  offset="0.38" style="stop-color:#BBE4EE"/>
			<stop  offset="0.7521" style="stop-color:#D0ECF3"/>
			<stop  offset="1" style="stop-color:#D8EFF5"/>
		</linearGradient>
		<path class="st6" d="M211.69,5.28c-1.12,0.08-2.28,0.46-3.42,0.69c3.24,0.01,6.95,1.86,8.96,4.06c-0.72-1.24-2.06-2.39-2.33-3.82
			c-0.32-1.68,2.03-2.42,3.37-2.82c0.22-0.06,0.44-0.13,0.66-0.18c-3.48,0.46-5.76,1.75-5.76,1.75s-2.81-3.32-7.79-4.52
			C207.88,1.48,210.25,3.56,211.69,5.28z"/>
		<linearGradient id="SVGID_7_" gradientUnits="userSpaceOnUse" x1="207.4019" y1="6.5253" x2="207.4019" y2="93.1456">
			<stop  offset="0" style="stop-color:#9DDAE7"/>
			<stop  offset="0.38" style="stop-color:#BBE4EE"/>
			<stop  offset="0.7521" style="stop-color:#D0ECF3"/>
			<stop  offset="1" style="stop-color:#D8EFF5"/>
		</linearGradient>
		<path class="st7" d="M208.28,5.97c-0.6,0-1.19,0.06-1.75,0.2C207.1,6.18,207.68,6.09,208.28,5.97z"/>
		<linearGradient id="SVGID_8_" gradientUnits="userSpaceOnUse" x1="149.6016" y1="6.5253" x2="149.6016" y2="93.1456">
			<stop  offset="0" style="stop-color:#9DDAE7"/>
			<stop  offset="0.38" style="stop-color:#BBE4EE"/>
			<stop  offset="0.7521" style="stop-color:#D0ECF3"/>
			<stop  offset="1" style="stop-color:#D8EFF5"/>
		</linearGradient>
		<path class="st8" d="M146.24,46.54c-0.66,0.04-1.45,0.41-2.04,0.71c1.86-0.03,3.43,0.42,4.99,1.43c-0.6-1.09-0.76-2.35,0.44-3.15
			c1.49-1,2.77-0.3,4.06,0.38c0.1-0.83,0.74-1.35,1.31-1.86c-1.44,0.06-2.95-1.34-3.53-2.56c-0.08-0.16-0.14-0.32-0.2-0.47
			c0.04,1.08,0.44,2.29,1.4,3.62c0,0-2.43-1.04-5.03,1.56c0,0-0.55-2.57-2.53-4.63l-0.08,0.04
			C146.47,42.56,146.66,45.05,146.24,46.54z"/>
		<linearGradient id="SVGID_9_" gradientUnits="userSpaceOnUse" x1="108.9895" y1="6.5253" x2="108.9895" y2="93.1456">
			<stop  offset="0" style="stop-color:#9DDAE7"/>
			<stop  offset="0.38" style="stop-color:#BBE4EE"/>
			<stop  offset="0.7521" style="stop-color:#D0ECF3"/>
			<stop  offset="1" style="stop-color:#D8EFF5"/>
		</linearGradient>
		<path class="st9" d="M108.77,41.88c-1.1-1.18-1.13-3.28-0.75-4.77c0.32-1.27,1.17-2.16,2.13-3.06c0.71-0.66,1.71-1.14,2.49-1.77
			c-4.12,1.69-6.01,4.8-5.23,8.21c0,0-1,0.22-2.09,0.84C106.5,41.12,107.79,41.34,108.77,41.88z"/>
		<linearGradient id="SVGID_10_" gradientUnits="userSpaceOnUse" x1="130.6328" y1="6.5253" x2="130.6328" y2="93.1456">
			<stop  offset="0" style="stop-color:#9DDAE7"/>
			<stop  offset="0.38" style="stop-color:#BBE4EE"/>
			<stop  offset="0.7521" style="stop-color:#D0ECF3"/>
			<stop  offset="1" style="stop-color:#D8EFF5"/>
		</linearGradient>
		<path class="st10" d="M126.55,39.87c0.34-0.85,2.12-1.33,3.01-1.38c2-0.09,3.49,0.63,4.21,2.49c0.77-1.01,1.8-1.68,2.94-2.11
			c-2.11,0.16-2.94,0.92-2.94,0.92s-1.39-3.12-5.55-1.91c0,0-1.23-2.56-3.67-4.55c0.51,0.53,0.98,1.13,1.4,1.86
			C126.86,36.79,126.99,38.18,126.55,39.87z"/>
		<linearGradient id="SVGID_11_" gradientUnits="userSpaceOnUse" x1="156.3131" y1="6.5253" x2="156.3131" y2="93.1456">
			<stop  offset="0" style="stop-color:#9DDAE7"/>
			<stop  offset="0.38" style="stop-color:#BBE4EE"/>
			<stop  offset="0.7521" style="stop-color:#D0ECF3"/>
			<stop  offset="1" style="stop-color:#D8EFF5"/>
		</linearGradient>
		<path class="st11" d="M159.79,35.86c-0.81-0.48-2.1-0.92-2.79-1.5c-0.53-0.44-0.71-1.47-0.78-2.18c-0.01-0.06-0.01-0.12-0.01-0.19
			c-0.17,0.98-0.25,1.91-0.25,2.78c0,0-1.76,0.82-3.13,2.36c0.81-0.61,1.65-1.18,2.66-1.5C156.82,35.2,158.54,35.53,159.79,35.86z"
			/>
		<linearGradient id="SVGID_12_" gradientUnits="userSpaceOnUse" x1="294.6601" y1="6.5253" x2="294.6601" y2="93.1456">
			<stop  offset="0" style="stop-color:#9DDAE7"/>
			<stop  offset="0.38" style="stop-color:#BBE4EE"/>
			<stop  offset="0.7521" style="stop-color:#D0ECF3"/>
			<stop  offset="1" style="stop-color:#D8EFF5"/>
		</linearGradient>
		<path class="st12" d="M292.32,60.6c0.39,1.35,0.47,3.87-0.44,5.07c-0.5,0.66-1.7,0.16-2.57-0.01c1.31,0.65,2.29,1.84,2.77,3.23
			c1.09-1.69,3.33,0.1,3.29,1.58c1.48-0.86,2.9-1.46,4.64-1.48c-0.11-0.03-0.21-0.05-0.32-0.07c-2.08-0.35-3.81,0.87-3.81,0.87
			s0-2.77-3.47-2.77c0,0,2.77-5.03-0.87-8.84c-0.55-0.57-1.16-1.06-1.81-1.45C290.89,57.8,291.87,59.02,292.32,60.6z"/>
		<linearGradient id="SVGID_13_" gradientUnits="userSpaceOnUse" x1="259.2214" y1="6.5253" x2="259.2214" y2="93.1456">
			<stop  offset="0" style="stop-color:#9DDAE7"/>
			<stop  offset="0.38" style="stop-color:#BBE4EE"/>
			<stop  offset="0.7521" style="stop-color:#D0ECF3"/>
			<stop  offset="1" style="stop-color:#D8EFF5"/>
		</linearGradient>
		<path class="st13" d="M261.72,50.07c-0.58,1.25-1.02,2.65-2.41,3.23c-1.46,0.61-3.06,0.27-4.49-0.17
			c1.02,0.87,1.84,1.63,2.05,3.03c0.13,0.83-0.09,1.54-0.08,2.34c0.53-0.53,0.93-1.19,0.87-1.96c1.94-0.51,4.18-0.28,5.19,1.72
			c0.53,1.06,0.58,4.78-1.37,4.52c0.01,1.24-1.02,1.75-1.3,2.75c1.14-0.35,2.12-0.24,3.11,0.21c-0.34-0.41-0.83-0.79-1.57-0.98
			c0,0,2.6-2.43,1.73-5.55c-0.87-3.12-3.12-4.51-3.12-4.51s3.41-3.42,2.96-9.56c-0.02,0.27-0.06,0.54-0.11,0.8
			C262.9,47.43,262.34,48.72,261.72,50.07z"/>
		<linearGradient id="SVGID_14_" gradientUnits="userSpaceOnUse" x1="274.9491" y1="6.5253" x2="274.9491" y2="93.1456">
			<stop  offset="0" style="stop-color:#9DDAE7"/>
			<stop  offset="0.38" style="stop-color:#BBE4EE"/>
			<stop  offset="0.7521" style="stop-color:#D0ECF3"/>
			<stop  offset="1" style="stop-color:#D8EFF5"/>
		</linearGradient>
		<path class="st14" d="M279.92,58.35c0,0-3.29-3.47-7.45-1.73c-4.16,1.73-4.85,6.24-3.99,8.67c0,0-1.18,0.07-2.44,0.6
			c0.74-0.03,1.51,0.14,2.15,0.41c-0.33,0.37-0.63,0.87-0.56,1.38c1.28-1.16,3.1-2.12,4.9-1.61c-2.08-0.86-3.88-2.54-3.17-5.03
			c0.85-2.96,3.25-4.75,6.36-4.15c1.64,0.31,2.4,1.23,3.15,2.6c-0.72,0.24-1.53,0.62-2.24,0.82c1.93-0.43,4.02,0.11,5.62,1.23
			c-0.55-1.51-1.6-2.4-0.62-4.12c0.43-0.75,1.19-1.46,2-1.82c0.07-0.03,0.15-0.06,0.22-0.09C282.07,55.8,280.57,56.75,279.92,58.35z
			"/>
		<linearGradient id="SVGID_15_" gradientUnits="userSpaceOnUse" x1="57.1405" y1="6.5253" x2="57.1405" y2="93.1456">
			<stop  offset="0" style="stop-color:#9DDAE7"/>
			<stop  offset="0.38" style="stop-color:#BBE4EE"/>
			<stop  offset="0.7521" style="stop-color:#D0ECF3"/>
			<stop  offset="1" style="stop-color:#D8EFF5"/>
		</linearGradient>
		<path class="st15" d="M57.14,42.54c0.88-1.68,2.08-3.14,3.75-4.17c0.11-0.07,0.22-0.13,0.33-0.2c-2.71,1.18-4.08,2.5-4.08,2.5
			s-1.74-1.08-4.08-1.47c0.6,0.24,1.17,0.54,1.71,0.91C55.57,40.65,57.07,41.43,57.14,42.54z"/>
		<linearGradient id="SVGID_16_" gradientUnits="userSpaceOnUse" x1="78.9781" y1="6.5253" x2="78.9781" y2="93.1456">
			<stop  offset="0" style="stop-color:#9DDAE7"/>
			<stop  offset="0.38" style="stop-color:#BBE4EE"/>
			<stop  offset="0.7521" style="stop-color:#D0ECF3"/>
			<stop  offset="1" style="stop-color:#D8EFF5"/>
		</linearGradient>
		<path class="st16" d="M79.49,39.8c-0.3-0.27-0.62-0.53-0.96-0.79l-0.06,0C78.83,39.26,79.17,39.53,79.49,39.8z"/>
		<linearGradient id="SVGID_17_" gradientUnits="userSpaceOnUse" x1="83.8897" y1="6.5253" x2="83.8897" y2="93.1456">
			<stop  offset="0" style="stop-color:#9DDAE7"/>
			<stop  offset="0.38" style="stop-color:#BBE4EE"/>
			<stop  offset="0.7521" style="stop-color:#D0ECF3"/>
			<stop  offset="1" style="stop-color:#D8EFF5"/>
		</linearGradient>
		<path class="st17" d="M83.15,44.48c0,0-0.84-1.79-2.63-3.69c1.23,1.37,2.01,3.04,2.03,5.08c0.78-1.14,2.33-1.34,3.79-1.01
			c0.24,0.05,0.58,0.24,0.93,0.43c-0.14-0.11-0.3-0.21-0.47-0.3C84.02,43.61,83.15,44.48,83.15,44.48z"/>
		<linearGradient id="SVGID_18_" gradientUnits="userSpaceOnUse" x1="41.5862" y1="6.5253" x2="41.5862" y2="93.1456">
			<stop  offset="0" style="stop-color:#9DDAE7"/>
			<stop  offset="0.38" style="stop-color:#BBE4EE"/>
			<stop  offset="0.7521" style="stop-color:#D0ECF3"/>
			<stop  offset="1" style="stop-color:#D8EFF5"/>
		</linearGradient>
		<path class="st18" d="M43.26,48.88c-0.68-0.91-0.77-2.36-0.68-3.5c0.02-0.27,0.08-0.52,0.16-0.76c-0.36,0.79-0.54,1.56-0.63,2.28
			c-0.02,0.17-0.04,0.35-0.05,0.51c0,0-1.09,0.09-2.15,0.87C41.08,48.26,42.21,48.16,43.26,48.88z"/>
		<linearGradient id="SVGID_19_" gradientUnits="userSpaceOnUse" x1="256.4386" y1="6.5253" x2="256.4386" y2="93.1456">
			<stop  offset="0" style="stop-color:#9DDAE7"/>
			<stop  offset="0.38" style="stop-color:#BBE4EE"/>
			<stop  offset="0.7521" style="stop-color:#D0ECF3"/>
			<stop  offset="1" style="stop-color:#D8EFF5"/>
		</linearGradient>
		<path class="st19" d="M253.3,32.14c1.21-0.79,2.91-1.46,3.82,0c0.84,1.34,0.48,2.99-0.4,4.19c0.89-0.3,2.13-0.17,3.2,0.25
			c-1.01-1.01-1.85-1.28-1.85-1.28s0.87-4.33-3.12-4.16c0,0,0.86-5.04-2-8.3c0.78,1.31,1.34,2.75,1.4,4.14
			C254.42,28.89,253.84,30.41,253.3,32.14z"/>
		<linearGradient id="SVGID_20_" gradientUnits="userSpaceOnUse" x1="237.5839" y1="6.5253" x2="237.5839" y2="93.1456">
			<stop  offset="0" style="stop-color:#9DDAE7"/>
			<stop  offset="0.38" style="stop-color:#BBE4EE"/>
			<stop  offset="0.7521" style="stop-color:#D0ECF3"/>
			<stop  offset="1" style="stop-color:#D8EFF5"/>
		</linearGradient>
		<path class="st20" d="M234.05,14.99c-1.09-0.07-2.39,0.43-3.34,0.88c3.14-0.05,8.31,0.69,8.89,4.57
			c-0.93,0.17-1.47,0.95-2.14,1.52c1.94-0.83,5.05-0.84,7,0.3c-0.68-0.63-1.77-0.95-2.4-1.61c0.39-0.29,0.91-0.5,1.49-0.64
			c-1.74,0.1-2.97,0.35-2.97,0.35s0.17-4.51-4.85-4.68c0,0-0.32-5.31-4.09-9C233.16,9.12,234.21,12.14,234.05,14.99z"/>
	</g>
	<radialGradient id="SVGID_21_" cx="75.8871" cy="47.6842" r="3.0535" gradientUnits="userSpaceOnUse">
		<stop  offset="0" style="stop-color:#FFFFFF"/>
		<stop  offset="0.6644" style="stop-color:#FFFAFC"/>
		<stop  offset="1" style="stop-color:#FEF6F9"/>
	</radialGradient>
	<path class="st21" d="M79.34,48.07c-0.58-0.98-2.14-0.24-1.32-2.06c-0.87-0.05-1.72,0.18-2.62,0.11c-1.08-0.08-2.04-0.49-3.09-0.78
		c-0.46,2.15,2.05,4.69,4.78,4.68C78.06,50.02,80.14,49.42,79.34,48.07z"/>
	<radialGradient id="SVGID_22_" cx="80.131" cy="49.7159" r="1.1019" gradientUnits="userSpaceOnUse">
		<stop  offset="0" style="stop-color:#FFFFFF"/>
		<stop  offset="0.6644" style="stop-color:#FFFAFC"/>
		<stop  offset="1" style="stop-color:#FEF6F9"/>
	</radialGradient>
	<path class="st22" d="M80.27,48.75c-0.18,0.6-0.39,1.41-1.06,1.54l-0.26,0.13C81.02,51.76,82.36,48.29,80.27,48.75z"/>
	<radialGradient id="SVGID_23_" cx="62.2331" cy="41.6473" r="1.7768" gradientUnits="userSpaceOnUse">
		<stop  offset="0" style="stop-color:#FFFFFF"/>
		<stop  offset="0.6644" style="stop-color:#FFFAFC"/>
		<stop  offset="1" style="stop-color:#FEF6F9"/>
	</radialGradient>
	<path class="st23" d="M61.26,40.66l-1.04-0.52c0.01,1.85,0.52,3.18,2.67,2.99C66.16,42.84,62.66,41,61.26,40.66z"/>
	<radialGradient id="SVGID_24_" cx="70.5706" cy="41.2065" r="6.7242" gradientUnits="userSpaceOnUse">
		<stop  offset="0" style="stop-color:#FFFFFF"/>
		<stop  offset="0.6644" style="stop-color:#FFFAFC"/>
		<stop  offset="1" style="stop-color:#FEF6F9"/>
	</radialGradient>
	<path class="st24" d="M79.08,43.78c0.58-1.35-0.62-2.65-1.49-3.58c-1.78-1.9-4.5-3.01-7.1-2.92c-3.38,0.12-7.37,1.08-8.58,2.6
		c1.49-0.09,2.24,0.68,3.39,1.4c1.31,0.83,2.16,0.11,3.44,0.29c1.01,0.14,2.15,1.36,3,1.95c1.17,0.81,2.54,1.39,3.95,1.56
		C76.91,45.23,78.5,45.13,79.08,43.78z"/>
	<radialGradient id="SVGID_25_" cx="52.8152" cy="43.6568" r="1.5435" gradientUnits="userSpaceOnUse">
		<stop  offset="0" style="stop-color:#FFFFFF"/>
		<stop  offset="0.6644" style="stop-color:#FFFAFC"/>
		<stop  offset="1" style="stop-color:#FEF6F9"/>
	</radialGradient>
	<path class="st25" d="M51.51,43.78l-0.65,0.52c0.99,0.65,3.17,0.28,3.91-0.78C54.17,42.67,51.2,42.08,51.51,43.78z"/>
	<radialGradient id="SVGID_26_" cx="94.9803" cy="54.8793" r="2.931" gradientUnits="userSpaceOnUse">
		<stop  offset="0" style="stop-color:#FFFFFF"/>
		<stop  offset="0.6644" style="stop-color:#FFFAFC"/>
		<stop  offset="1" style="stop-color:#FEF6F9"/>
	</radialGradient>
	<path class="st26" d="M95.01,54.12c0.1-0.73,1.26-0.63,0.71-1.63c-0.31-0.56-1.37-0.58-1.95-0.52c-2.77,1.99-1.86,4.93,0.36,5.83
		c1.06-1.81,1.95-1.98,3.79-2.22C97.19,54.68,94.81,55.62,95.01,54.12z"/>
	<radialGradient id="SVGID_27_" cx="96.6399" cy="57.0032" r="0.7496" gradientUnits="userSpaceOnUse">
		<stop  offset="0" style="stop-color:#FFFFFF"/>
		<stop  offset="0.6644" style="stop-color:#FFFAFC"/>
		<stop  offset="1" style="stop-color:#FEF6F9"/>
	</radialGradient>
	<path class="st27" d="M95.85,57.57l1.69-0.78C96.9,56.08,95.32,56.51,95.85,57.57z"/>
	<radialGradient id="SVGID_28_" cx="85.9116" cy="47.5021" r="1.6265" gradientUnits="userSpaceOnUse">
		<stop  offset="0" style="stop-color:#FFFFFF"/>
		<stop  offset="0.6644" style="stop-color:#FFFAFC"/>
		<stop  offset="1" style="stop-color:#FEF6F9"/>
	</radialGradient>
	<path class="st28" d="M85.06,45.99h-0.13c-1.43,0.3-0.12,2.15-0.1,3.11c0.69-0.79,2.38-0.08,2.71-1.22
		C87.85,46.76,85.83,45.56,85.06,45.99z"/>
	<radialGradient id="SVGID_29_" cx="83.2251" cy="47.9516" r="0.7159" gradientUnits="userSpaceOnUse">
		<stop  offset="0" style="stop-color:#FFFFFF"/>
		<stop  offset="0.6644" style="stop-color:#FFFAFC"/>
		<stop  offset="1" style="stop-color:#FEF6F9"/>
	</radialGradient>
	<path class="st29" d="M82.46,47.42c0.01,0.89,0.73,1.31,1.54,1.15c-0.14-0.43-0.3-0.82-0.37-1.28L82.46,47.42z"/>
	<radialGradient id="SVGID_30_" cx="80.2087" cy="44.9026" r="1.5386" gradientUnits="userSpaceOnUse">
		<stop  offset="0" style="stop-color:#FFFFFF"/>
		<stop  offset="0.6644" style="stop-color:#FFFAFC"/>
		<stop  offset="1" style="stop-color:#FEF6F9"/>
	</radialGradient>
	<path class="st30" d="M80.31,46.65c1.77-0.54,0.72-2.8-0.2-3.65l0.13,1.04C80.34,44.89,77.68,47.45,80.31,46.65z"/>
	<radialGradient id="SVGID_31_" cx="104.8398" cy="46.3782" r="1.1801" gradientUnits="userSpaceOnUse">
		<stop  offset="0" style="stop-color:#FFFFFF"/>
		<stop  offset="0.6644" style="stop-color:#FFFAFC"/>
		<stop  offset="1" style="stop-color:#FEF6F9"/>
	</radialGradient>
	<path class="st31" d="M105.71,47.65c-0.42-0.49-0.87-1.12-0.89-1.79l-0.52-0.91C103.49,45.96,104.26,48.43,105.71,47.65z"/>
	<radialGradient id="SVGID_32_" cx="104.5869" cy="51.7687" r="2.5672" gradientUnits="userSpaceOnUse">
		<stop  offset="0" style="stop-color:#FFFFFF"/>
		<stop  offset="0.6644" style="stop-color:#FFFAFC"/>
		<stop  offset="1" style="stop-color:#FEF6F9"/>
	</radialGradient>
	<path class="st32" d="M103.91,50.28c-1.43-0.91-3.87,2.37-1.54,3.12c1.96,0.63,3.25-1.85,5.4-1.32c-0.86-0.82-2.34-2.01-3.34-2.06
		L103.91,50.28z"/>
	<radialGradient id="SVGID_33_" cx="10.4188" cy="60.1642" r="1.8446" gradientUnits="userSpaceOnUse">
		<stop  offset="0" style="stop-color:#FFFFFF"/>
		<stop  offset="0.6644" style="stop-color:#FFFAFC"/>
		<stop  offset="1" style="stop-color:#FEF6F9"/>
	</radialGradient>
	<path class="st33" d="M9.9,59.91L7.95,60.3c1.28,0.32,3.49,1.08,4.92,0.5C13.12,58.67,10.93,59.3,9.9,59.91z"/>
	<radialGradient id="SVGID_34_" cx="37.3294" cy="50.2082" r="0.8359" gradientUnits="userSpaceOnUse">
		<stop  offset="0" style="stop-color:#FFFFFF"/>
		<stop  offset="0.6644" style="stop-color:#FFFAFC"/>
		<stop  offset="1" style="stop-color:#FEF6F9"/>
	</radialGradient>
	<path class="st34" d="M36.3,49.63l0.26,0.13c0.6,0.34,1.19,0.83,1.81,1.02C38.09,50.08,37.03,49.67,36.3,49.63z"/>
	<radialGradient id="SVGID_35_" cx="41.6055" cy="49.6275" r="1.2929" gradientUnits="userSpaceOnUse">
		<stop  offset="0" style="stop-color:#FFFFFF"/>
		<stop  offset="0.6644" style="stop-color:#FFFAFC"/>
		<stop  offset="1" style="stop-color:#FEF6F9"/>
	</radialGradient>
	<path class="st35" d="M40.72,48.72c-1.38,0.21-0.31,1.07-0.13,1.82h2.6C42.77,49.81,41.68,48.58,40.72,48.72z"/>
	<radialGradient id="SVGID_36_" cx="49.2628" cy="43.9999" r="4.6501" gradientUnits="userSpaceOnUse">
		<stop  offset="0" style="stop-color:#FFFFFF"/>
		<stop  offset="0.6644" style="stop-color:#FFFAFC"/>
		<stop  offset="1" style="stop-color:#FEF6F9"/>
	</radialGradient>
	<path class="st36" d="M54.76,42.09c-1.85-1.49-3.98-2.16-6.3-1.37c-1.82,0.62-4.03,2.45-4.59,4.36c-0.5,1.69,1,3.05,2.64,2.33
		c0.8-0.35,0.79-1.11,1.41-1.55c0.5-0.36,1.33-0.1,1.8-0.64c1.03-1.18-0.3-3.39,2.18-3.52L54.76,42.09z"/>
	<radialGradient id="SVGID_37_" cx="33.4185" cy="51.1861" r="2.8267" gradientUnits="userSpaceOnUse">
		<stop  offset="0" style="stop-color:#FFFFFF"/>
		<stop  offset="0.6644" style="stop-color:#FFFAFC"/>
		<stop  offset="1" style="stop-color:#FEF6F9"/>
	</radialGradient>
	<path class="st37" d="M31.35,49.89c-2.73-0.44-1.69,4.12,0.85,2.52c1.01-0.64,0.51-1.68,1.82-1.99c0.85-0.2,2.23,0.27,3.07,0.38
		C35.61,50.04,33.28,49.16,31.35,49.89z"/>
	<radialGradient id="SVGID_38_" cx="275.3967" cy="63.6907" r="2.2921" gradientUnits="userSpaceOnUse">
		<stop  offset="0" style="stop-color:#FFFFFF"/>
		<stop  offset="0.6644" style="stop-color:#FFFAFC"/>
		<stop  offset="1" style="stop-color:#FEF6F9"/>
	</radialGradient>
	<path class="st38" d="M274.64,62.18c-0.96,0.34-2.52,1.17-1.81,2.46c1.46,2.64,3.58-2.4,5.32-2.14
		C277.1,62.19,276.06,61.68,274.64,62.18z"/>
	<radialGradient id="SVGID_39_" cx="250.8487" cy="32.9182" r="1.2593" gradientUnits="userSpaceOnUse">
		<stop  offset="0" style="stop-color:#FFFFFF"/>
		<stop  offset="0.6644" style="stop-color:#FFFAFC"/>
		<stop  offset="1" style="stop-color:#FEF6F9"/>
	</radialGradient>
	<path class="st39" d="M252.14,31.69c-0.59,0.79-1.6,1.52-2.58,1.58c-0.01,0.3,0.08,0.63,0.26,0.87c0.5-0.27,0.94-0.66,1.54-0.63
		L252.14,31.69z"/>
	<radialGradient id="SVGID_40_" cx="248.8143" cy="25.9372" r="4.0773" gradientUnits="userSpaceOnUse">
		<stop  offset="0" style="stop-color:#FFFFFF"/>
		<stop  offset="0.6644" style="stop-color:#FFFAFC"/>
		<stop  offset="1" style="stop-color:#FEF6F9"/>
	</radialGradient>
	<path class="st40" d="M251.98,26.75c0.17-1.52,0.8-3.08-0.75-4.43c-1.54-1.35-4.2-1.06-5.85-0.77c0.75,0.26,1.91,0.92,2.1,1.76
		c0.21,0.93-0.71,1.76-0.8,2.72c-0.17,1.91,0.8,4.15,2.87,4.49C252.15,30.95,251.78,28.5,251.98,26.75z"/>
	<radialGradient id="SVGID_41_" cx="253.4004" cy="34.9245" r="2.2448" gradientUnits="userSpaceOnUse">
		<stop  offset="0" style="stop-color:#FFFFFF"/>
		<stop  offset="0.6644" style="stop-color:#FFFAFC"/>
		<stop  offset="1" style="stop-color:#FEF6F9"/>
	</radialGradient>
	<path class="st41" d="M255.65,35.72h0.26c0.2-1.43,0.26-2.76-1.35-2.59c-0.66,0.07-2.5,0.56-3.07,0.96
		c-1.38,0.98-0.51,2.07,0.75,2.5C253.75,37.12,254.32,35.91,255.65,35.72z"/>
	<radialGradient id="SVGID_42_" cx="241.4017" cy="25.4868" r="3.6121" gradientUnits="userSpaceOnUse">
		<stop  offset="0" style="stop-color:#FFFFFF"/>
		<stop  offset="0.6644" style="stop-color:#FFFAFC"/>
		<stop  offset="1" style="stop-color:#FEF6F9"/>
	</radialGradient>
	<path class="st42" d="M244.14,23.45c-1.48-1.11-5.39-1.92-6.7-0.21c0.01,4.5,4.88,2.98,6.11,5.48c-0.19-1.87,0.75-1.51,1.56-2.65
		C245.76,25.15,245.01,24.1,244.14,23.45z"/>
	<radialGradient id="SVGID_43_" cx="224.0419" cy="8.7211" r="6.0177" gradientUnits="userSpaceOnUse">
		<stop  offset="0" style="stop-color:#FFFFFF"/>
		<stop  offset="0.6644" style="stop-color:#FFFAFC"/>
		<stop  offset="1" style="stop-color:#FEF6F9"/>
	</radialGradient>
	<path class="st43" d="M225.76,5.32c-0.1,0.75,0.42,1.3,0.35,2.04c-0.82-0.03-1.75-2.19-2.74-2.68c-2.04-1.02-7.07-0.64-6.48,2.71
		c0.23,1.29,1.74,2.1,2.53,3.05c0.7,0.84,0.79,1.77,1.25,2.53c0.49,0.7,1.44,0,2.78-0.38c1.75-0.49,3.38-0.33,5.15-0.15
		c1.36,0.14,2.4,0.3,2.59-1.23C231.57,8.33,228.62,5.17,225.76,5.32z"/>
	<radialGradient id="SVGID_44_" cx="229.3444" cy="18.026" r="0.9908" gradientUnits="userSpaceOnUse">
		<stop  offset="0" style="stop-color:#FFFFFF"/>
		<stop  offset="0.6644" style="stop-color:#FFFAFC"/>
		<stop  offset="1" style="stop-color:#FEF6F9"/>
	</radialGradient>
	<path class="st44" d="M229.62,19.06c0.16-0.39,0.34-0.78,0.54-1.15l0.13-0.91C228.49,16.93,227.44,18.88,229.62,19.06z"/>
	<radialGradient id="SVGID_45_" cx="209.4462" cy="11.0444" r="6.023" gradientUnits="userSpaceOnUse">
		<stop  offset="0" style="stop-color:#FFFFFF"/>
		<stop  offset="0.6644" style="stop-color:#FFFAFC"/>
		<stop  offset="1" style="stop-color:#FEF6F9"/>
	</radialGradient>
	<path class="st45" d="M215.98,11.8c-0.91-0.82-1.05-0.78-1.54-1.7c-1.25-2.33-5.19-3.49-7.72-2.07c-1.25,0.71-0.96,1.99-1.9,2.95
		c-0.98,1-2.06,1.56-2.86,2.76c-0.07,0.49-0.15,0.78-0.21,0.92c2.21-1.15,4.78-0.99,7.25-0.78c1.36,0.11,2.62,0.5,3.99,0.51
		c1.43,0.01,2.76-0.36,4.16-0.41C217.25,13.15,216.58,12.35,215.98,11.8z"/>
	<radialGradient id="SVGID_46_" cx="233.8837" cy="19.8174" r="2.4952" gradientUnits="userSpaceOnUse">
		<stop  offset="0" style="stop-color:#FFFFFF"/>
		<stop  offset="0.6644" style="stop-color:#FFFAFC"/>
		<stop  offset="1" style="stop-color:#FEF6F9"/>
	</radialGradient>
	<path class="st46" d="M231.17,19.47c0.38,0.75,2.26,1.78,3.03,2.11c1.65,0.72,1.36-0.44,2.6-0.94
		C236.74,17.78,229.71,16.62,231.17,19.47z"/>
	<radialGradient id="SVGID_47_" cx="256.9545" cy="44.0288" r="5.5493" gradientUnits="userSpaceOnUse">
		<stop  offset="0" style="stop-color:#FFFFFF"/>
		<stop  offset="0.6644" style="stop-color:#FFFAFC"/>
		<stop  offset="1" style="stop-color:#FEF6F9"/>
	</radialGradient>
	<path class="st47" d="M258.51,50.16c2.62-0.59,2.23-3.17,2.34-5.08c0.06-1.09,0.83-1.88,0.91-2.92c0.1-1.36-0.76-2.46-1.81-3.22
		c-1.09-0.78-2.42-1.12-3.75-1.12c-1.21,0.01-2.94,0.52-4.06,0.1l2.6,1.3c1.33,1.7-0.33,4.39-0.26,6.37
		C254.55,47.59,256.06,50.72,258.51,50.16z"/>
	<radialGradient id="SVGID_48_" cx="287.4758" cy="60.3661" r="3.8818" gradientUnits="userSpaceOnUse">
		<stop  offset="0" style="stop-color:#FFFFFF"/>
		<stop  offset="0.6644" style="stop-color:#FFFAFC"/>
		<stop  offset="1" style="stop-color:#FEF6F9"/>
	</radialGradient>
	<path class="st48" d="M290.52,60.32c-0.13,0.46-0.45,0.83-0.92,0.87c0.89-2.26-2.29-4.81-4.44-4.53c-2.99,0.38-1.22,2.95-0.91,4.55
		c0.15,0.55,3.59,2.66,4.75,2.87C291.07,64.43,292.58,61.16,290.52,60.32z"/>
	<radialGradient id="SVGID_49_" cx="201.7051" cy="14.7297" r="0.0482" gradientUnits="userSpaceOnUse">
		<stop  offset="0" style="stop-color:#FFFFFF"/>
		<stop  offset="0.6644" style="stop-color:#FFFAFC"/>
		<stop  offset="1" style="stop-color:#FEF6F9"/>
	</radialGradient>
	<path class="st49" d="M201.74,14.67c-0.01,0.01-0.02,0.01-0.03,0.02C201.64,14.82,201.67,14.84,201.74,14.67z"/>
	<radialGradient id="SVGID_50_" cx="256.9527" cy="51.4713" r="1.3338" gradientUnits="userSpaceOnUse">
		<stop  offset="0" style="stop-color:#FFFFFF"/>
		<stop  offset="0.6644" style="stop-color:#FFFAFC"/>
		<stop  offset="1" style="stop-color:#FEF6F9"/>
	</radialGradient>
	<path class="st50" d="M258.49,51.47c-0.83,0.04-1.48-0.15-2.19-0.54l-0.91-0.52c0.09,1.02,0.47,1.91,1.57,2.09
		C257.68,52.62,258.68,52.36,258.49,51.47z"/>
	<radialGradient id="SVGID_51_" cx="288.6832" cy="68.1584" r="1.0274" gradientUnits="userSpaceOnUse">
		<stop  offset="0" style="stop-color:#FFFFFF"/>
		<stop  offset="0.6644" style="stop-color:#FFFAFC"/>
		<stop  offset="1" style="stop-color:#FEF6F9"/>
	</radialGradient>
	<path class="st51" d="M287.77,68.1l-0.39,0.13c0.72,0.37,1.97,0.91,2.61,0.26C289.29,66.59,288.88,68.07,287.77,68.1z"/>
	<radialGradient id="SVGID_52_" cx="309.9441" cy="69.9569" r="1.1488" gradientUnits="userSpaceOnUse">
		<stop  offset="0" style="stop-color:#FFFFFF"/>
		<stop  offset="0.6644" style="stop-color:#FFFAFC"/>
		<stop  offset="1" style="stop-color:#FEF6F9"/>
	</radialGradient>
	<path class="st52" d="M308.83,69.66l-0.39,0.13c0.69,0.53,2.34,1.24,3.01,0.39C310.84,69.33,309.58,69.07,308.83,69.66z"/>
	<radialGradient id="SVGID_53_" cx="285.2153" cy="65.497" r="2.3002" gradientUnits="userSpaceOnUse">
		<stop  offset="0" style="stop-color:#FFFFFF"/>
		<stop  offset="0.6644" style="stop-color:#FFFAFC"/>
		<stop  offset="1" style="stop-color:#FEF6F9"/>
	</radialGradient>
	<path class="st53" d="M287.22,64.75c-1.08-1.01-1.77-0.72-2.96-0.29l-1.82-0.65c1.11,1.03,3.03,4.06,4.88,3.24
		C288.45,66.54,287.99,65.47,287.22,64.75z"/>
	<radialGradient id="SVGID_54_" cx="259.0017" cy="62.5826" r="0.921" gradientUnits="userSpaceOnUse">
		<stop  offset="0" style="stop-color:#FFFFFF"/>
		<stop  offset="0.6644" style="stop-color:#FFFAFC"/>
		<stop  offset="1" style="stop-color:#FEF6F9"/>
	</radialGradient>
	<path class="st54" d="M258.9,62.12l-1.04,0.39C258.85,64.63,261.8,61.19,258.9,62.12z"/>
	<radialGradient id="SVGID_55_" cx="260.0655" cy="59.4546" r="1.7247" gradientUnits="userSpaceOnUse">
		<stop  offset="0" style="stop-color:#FFFFFF"/>
		<stop  offset="0.6644" style="stop-color:#FFFAFC"/>
		<stop  offset="1" style="stop-color:#FEF6F9"/>
	</radialGradient>
	<path class="st55" d="M259.31,57.85c0.09,0.41,0.02,0.79-0.02,1.15l-1.04,2.08c1.01,0,2.97,0.17,3.5-0.99
		C262.41,58.66,260.47,57.67,259.31,57.85z"/>
	<radialGradient id="SVGID_56_" cx="273.285" cy="59.8887" r="2.6766" gradientUnits="userSpaceOnUse">
		<stop  offset="0" style="stop-color:#FFFFFF"/>
		<stop  offset="0.6644" style="stop-color:#FFFAFC"/>
		<stop  offset="1" style="stop-color:#FEF6F9"/>
	</radialGradient>
	<path class="st56" d="M276.32,60.69c-1-0.98-0.47-2.67-2.31-3.02c-1.28-0.24-3.04,0.95-3.55,2.17c-0.62,1.5,0.2,2.58,1.54,2.25
		c1.15-0.29,2.28-1.06,3.42-1.4H276.32z"/>
	<radialGradient id="SVGID_57_" cx="180.331" cy="19.6824" r="1.3265" gradientUnits="userSpaceOnUse">
		<stop  offset="0" style="stop-color:#FFFFFF"/>
		<stop  offset="0.6644" style="stop-color:#FFFAFC"/>
		<stop  offset="1" style="stop-color:#FEF6F9"/>
	</radialGradient>
	<path class="st57" d="M179.06,18.3l0.39,0.26c0,0.82,0.34,3.31,1.85,2.25C182.5,19.96,179.7,18.64,179.06,18.3z"/>
	<radialGradient id="SVGID_58_" cx="135.4236" cy="41.7673" r="1.3215" gradientUnits="userSpaceOnUse">
		<stop  offset="0" style="stop-color:#FFFFFF"/>
		<stop  offset="0.6644" style="stop-color:#FFFAFC"/>
		<stop  offset="1" style="stop-color:#FEF6F9"/>
	</radialGradient>
	<path class="st58" d="M134.52,43.01c0.92,1.09,1.06-1.68,1.5-1.96l0.52-0.78C135.77,40.44,133.61,41.92,134.52,43.01z"/>
	<radialGradient id="SVGID_59_" cx="140.5703" cy="44.1876" r="4.0485" gradientUnits="userSpaceOnUse">
		<stop  offset="0" style="stop-color:#FFFFFF"/>
		<stop  offset="0.6644" style="stop-color:#FFFAFC"/>
		<stop  offset="1" style="stop-color:#FEF6F9"/>
	</radialGradient>
	<path class="st59" d="M141.16,45.99c0.82-0.19,2.77-0.42,3.3-1.12c2.35-3.06-4.85-5.05-6.88-4.22c-3.28,2.08,0.35,4.99,0.29,7.24
		C138.77,46.68,139.78,46.32,141.16,45.99z"/>
	<radialGradient id="SVGID_60_" cx="147.9646" cy="51.8298" r="6.4439" gradientUnits="userSpaceOnUse">
		<stop  offset="0" style="stop-color:#FFFFFF"/>
		<stop  offset="0.6644" style="stop-color:#FFFAFC"/>
		<stop  offset="1" style="stop-color:#FEF6F9"/>
	</radialGradient>
	<path class="st60" d="M153.73,48.83c-0.39-1.22-2-2.15-2.95-1.01c-0.62,0.75,0,3.06-1.73,2.75c0.05,0.72,1.03,1.49,0.02,2.05
		c-0.98-1.6-1.8-2.9-3.74-3.51c-1.19-0.38-3.34-0.5-4.49,0.27c-2.35,2.98,1.11,5.42,3.76,4.1c1.44-0.72,4.09-2.34,4.07,0.82
		c1.06,0.16,2.18,1,2.45,2.06c0.13-2.19,1.64-7.66,4.76-7.37C155.2,48.6,154.46,48.78,153.73,48.83z"/>
	<radialGradient id="SVGID_61_" cx="130.0283" cy="42.4637" r="2.3798" gradientUnits="userSpaceOnUse">
		<stop  offset="0" style="stop-color:#FFFFFF"/>
		<stop  offset="0.6644" style="stop-color:#FFFAFC"/>
		<stop  offset="1" style="stop-color:#FEF6F9"/>
	</radialGradient>
	<path class="st61" d="M128.74,40.14l-0.26,0.26c-1.84,1.31,0.2,3,0.25,4.51c0.87-1.03,3.09-1.11,3.51-2.23
		C132.9,40.93,130.01,39.6,128.74,40.14z"/>
	<radialGradient id="SVGID_62_" cx="138.6324" cy="50.2116" r="0.8215" gradientUnits="userSpaceOnUse">
		<stop  offset="0" style="stop-color:#FFFFFF"/>
		<stop  offset="0.6644" style="stop-color:#FFFAFC"/>
		<stop  offset="1" style="stop-color:#FEF6F9"/>
	</radialGradient>
	<path class="st62" d="M138.73,51.18c0.03-0.53,0.23-1.02,0.54-1.41l-0.26-0.52C137.89,49.37,137.54,50.92,138.73,51.18z"/>
	<radialGradient id="SVGID_63_" cx="126.5225" cy="42.0841" r="0.7904" gradientUnits="userSpaceOnUse">
		<stop  offset="0" style="stop-color:#FFFFFF"/>
		<stop  offset="0.6644" style="stop-color:#FFFAFC"/>
		<stop  offset="1" style="stop-color:#FEF6F9"/>
	</radialGradient>
	<path class="st63" d="M126.27,41.18c-0.99,0.67-0.01,1.85,0.89,1.8c-0.19-0.45-0.3-0.93,0.02-1.28L126.27,41.18z"/>
	<radialGradient id="SVGID_64_" cx="109.3551" cy="45.2682" r="3.5188" gradientUnits="userSpaceOnUse">
		<stop  offset="0" style="stop-color:#FFFFFF"/>
		<stop  offset="0.6644" style="stop-color:#FFFAFC"/>
		<stop  offset="1" style="stop-color:#FEF6F9"/>
	</radialGradient>
	<path class="st64" d="M110.8,43.26c-0.65-0.07-0.67,0.08-1.36-0.17c-0.67-0.24-1.04-0.62-1.82-0.6c-2.53,0.05-3.15,3.15-1.36,4.68
		c0.3,1.29,3.89,1.15,4.62-0.26c0.51-0.98,0.37-4.01,2.61-2.46C112.77,43.59,111.83,43.36,110.8,43.26z"/>
	<radialGradient id="SVGID_65_" cx="117.0097" cy="38.5819" r="6.876" gradientUnits="userSpaceOnUse">
		<stop  offset="0" style="stop-color:#FFFFFF"/>
		<stop  offset="0.6644" style="stop-color:#FFFAFC"/>
		<stop  offset="1" style="stop-color:#FEF6F9"/>
	</radialGradient>
	<path class="st65" d="M118.8,32.34c-0.45,0-2.65,0.17-2.78,0.81c-0.17,0.83,1.4,0.78,1.12,1.91c-1.29-0.42-2.08-1.25-3.68-1.03
		c-2.23,0.31-4.33,2.77-3.84,5.08c0.53,2.54,3.54,1.72,5.08,3.12l0.65,2.6c1.19-2.14,3.95-1.91,5.84-2.96
		c0.89-0.49,2.28-1.43,2.22-2.57c-0.05-0.88-1.12-1.63-1.94-1.65c0.52-0.83,2.02-1.15,2.96-1.17
		C124.87,34.01,120.72,32.35,118.8,32.34z"/>
	<radialGradient id="SVGID_66_" cx="176.2491" cy="24.9067" r="3.5135" gradientUnits="userSpaceOnUse">
		<stop  offset="0" style="stop-color:#FFFFFF"/>
		<stop  offset="0.6644" style="stop-color:#FFFAFC"/>
		<stop  offset="1" style="stop-color:#FEF6F9"/>
	</radialGradient>
	<path class="st66" d="M176.99,22.43c-1.57-0.39-3.38,0.11-4.88-0.27l1.89,0.56c0.92,1.03,1.66,1.8,2.24,3.12
		c0.55,1.25,0.75,2.14,2.44,1.7C182.47,26.56,179.09,22.96,176.99,22.43z"/>
	<radialGradient id="SVGID_67_" cx="196.9291" cy="18.6792" r="0.0246" gradientUnits="userSpaceOnUse">
		<stop  offset="0" style="stop-color:#FFFFFF"/>
		<stop  offset="0.6644" style="stop-color:#FFFAFC"/>
		<stop  offset="1" style="stop-color:#FEF6F9"/>
	</radialGradient>
	<path class="st67" d="M196.91,18.65c0,0.01,0.01,0.01,0.01,0.01c0.05,0.05,0.05,0.05,0,0C196.92,18.66,196.91,18.66,196.91,18.65z"
		/>
	<radialGradient id="SVGID_68_" cx="158.0616" cy="43.2167" r="0.7602" gradientUnits="userSpaceOnUse">
		<stop  offset="0" style="stop-color:#FFFFFF"/>
		<stop  offset="0.6644" style="stop-color:#FFFAFC"/>
		<stop  offset="1" style="stop-color:#FEF6F9"/>
	</radialGradient>
	<path class="st68" d="M157.09,43.13c0.43,0.82,2.1,0.72,1.93-0.38C158.39,42.98,157.77,43.15,157.09,43.13z"/>
	<radialGradient id="SVGID_69_" cx="189.8161" cy="16.8588" r="5.5174" gradientUnits="userSpaceOnUse">
		<stop  offset="0" style="stop-color:#FFFFFF"/>
		<stop  offset="0.6644" style="stop-color:#FFFAFC"/>
		<stop  offset="1" style="stop-color:#FEF6F9"/>
	</radialGradient>
	<path class="st69" d="M192.97,15.73c-0.84-0.9-0.79-1.97-2.47-2.12c-1.66-0.15-3.26,1.11-4.33,2.22c-0.62,0.65-1.35,1.97-2.07,2.44
		c-1.11,0.73-2.05,0.19-0.75,1.85c1.58-0.76,4.63-1.46,7.02-1.89c1.68-0.3,5.16-0.79,6.53,0.42
		C195.9,17.12,194.14,16.97,192.97,15.73z"/>
	<radialGradient id="SVGID_70_" cx="194.6257" cy="15.3667" r="2.8144" gradientUnits="userSpaceOnUse">
		<stop  offset="0" style="stop-color:#FFFFFF"/>
		<stop  offset="0.6644" style="stop-color:#FFFAFC"/>
		<stop  offset="1" style="stop-color:#FEF6F9"/>
	</radialGradient>
	<path class="st70" d="M195.38,14.66c-1.14-0.83-2.62-1.25-3.92-1.7c1.01,0.67,1.07,1.53,1.83,2.29c0.69,0.7,1.77,0.58,2.68,0.97
		l1.82,1.56C197.88,16.81,196.16,15.23,195.38,14.66z"/>
	<radialGradient id="SVGID_71_" cx="108.4743" cy="51.1391" r="1.0236" gradientUnits="userSpaceOnUse">
		<stop  offset="0" style="stop-color:#FFFFFF"/>
		<stop  offset="0.6644" style="stop-color:#FFFAFC"/>
		<stop  offset="1" style="stop-color:#FEF6F9"/>
	</radialGradient>
	<path class="st71" d="M107.55,50.02l0.13,0.65c0.54,0.43,0.93,1.08,1.43,1.58C110.08,51.29,108.37,50.27,107.55,50.02z"/>
	<radialGradient id="SVGID_72_" cx="157.8997" cy="39.6638" r="4.0361" gradientUnits="userSpaceOnUse">
		<stop  offset="0" style="stop-color:#FFFFFF"/>
		<stop  offset="0.6644" style="stop-color:#FFFAFC"/>
		<stop  offset="1" style="stop-color:#FEF6F9"/>
	</radialGradient>
	<path class="st72" d="M154.73,38.56c-1.19,0.35-2.28,1.47-1.41,2.62c0.22,2.04,3.75,1.48,4.94,0.78c1.48-0.87,2.68-2.39,4.53-2.23
		C162.51,37.12,154.33,35.12,154.73,38.56z"/>
	<radialGradient id="SVGID_73_" cx="167.427" cy="27.7857" r="8.7046" gradientUnits="userSpaceOnUse">
		<stop  offset="0" style="stop-color:#FFFFFF"/>
		<stop  offset="0.6644" style="stop-color:#FFFAFC"/>
		<stop  offset="1" style="stop-color:#FEF6F9"/>
	</radialGradient>
	<path class="st73" d="M174.78,28.5c-0.43-0.82-0.26-2.06-0.73-2.99c-0.68-1.32-1.76-2.34-3.02-3.08c-0.86-0.51-2.07-0.78-2.77-1.4
		c0.23-0.45,0.57-0.89,1.01-1.18c-2.59,0.15-5.75,1.64-7.12,3.91c-1.66,2.75,1.54,1.93,3.18,3c-3.22-0.81-6.45,0.22-7.21,3.82
		c-0.85,4.07,3.25,2.83,5.33,4.49l2.08,0.65c-0.28-0.1-1.76-2.13-1.8-2.55c-0.14-1.41,2.45-0.82,3.61-0.83
		c1.34-0.01,2.65-0.11,3.83-0.81c0.75-0.44,1.33-1.24,2.17-1.54c1.17-0.42,2.41,0.02,3.49,0.43
		C176.42,30.05,175.12,29.14,174.78,28.5z"/>
	<radialGradient id="SVGID_74_" cx="197.935" cy="8.7315" r="8.898" gradientUnits="userSpaceOnUse">
		<stop  offset="0" style="stop-color:#FFFFFF"/>
		<stop  offset="0.6644" style="stop-color:#FFFAFC"/>
		<stop  offset="1" style="stop-color:#FEF6F9"/>
	</radialGradient>
	<path class="st74" d="M201.94,11.54c0.97-1.32,2.69-2.14,2.48-4.01c-0.12-1.12-0.96-1.72,0.08-2.62c0.84-0.73,2.6-0.77,3.64-0.78
		c-2.56-2.76-10.23-4.05-13.17-1.01c1.25,0.44,3.06,0.63,3.84,1.69c-2.69-0.97-6.31-1.08-8.63,0.74c-1.07,0.84-3.06,2.82-2.28,4.24
		c0.71,1.27,2.63,0.77,3.84,0.96c2.56,0.4,5.64,1.04,7.74,2.73l1.04,2.6C199.92,14.87,201.22,12.53,201.94,11.54z"/>
</g>
</svg>
