<?xml version="1.0" encoding="utf-8"?>
<!-- Generator: Adobe Illustrator 24.0.3, SVG Export Plug-In . SVG Version: 6.00 Build 0)  -->
<svg version="1.1" id="Layer_1" xmlns="http://www.w3.org/2000/svg" xmlns:xlink="http://www.w3.org/1999/xlink" x="0px" y="0px"
	 viewBox="0 0 251.46 250" style="enable-background:new 0 0 251.46 250;" xml:space="preserve">
<style type="text/css">
	.st0{fill:#E3A815;}
	.st1{fill:#F8DE04;}
	.st2{opacity:0.2;fill:#FFFFFF;}
	.st3{opacity:0.6;fill:#FFFFFF;}
	.st4{opacity:0.6;}
	.st5{fill:#FDB325;}
	.st6{fill:#E48215;}
	.st7{fill:#FFF6D4;}
	.st8{fill:#DD7349;}
</style>
<g>
	<g>
		<g>
			<path class="st0" d="M157.85,178.94c1.11,2.87,16.96,42.77,38.52,42.77c5.49,0,11.02-2.64,16.45-7.84
				c6.71-6.42,9.48-13.18,8.24-20.07c-3.58-19.56-37.76-35.02-40.91-36.42c-7.89-0.1-13.85,2-17.65,6.25
				C157.29,169.52,157.75,177.71,157.85,178.94L157.85,178.94z"/>
			<g>
				<path class="st1" d="M180.43,156.07c0,0,65.6,27.86,33.29,58.76c-32.28,30.9-57.16-35.6-57.16-35.6S153.81,155.54,180.43,156.07
					z"/>
				<path class="st0" d="M196.37,224.34c-24.06,0-40.37-42.81-41.05-44.64l-0.08-0.3c-0.04-0.42-1.11-10.3,5.3-17.51
					c4.22-4.73,10.63-7.13,19.02-7.13l1.15,0.01l0.24,0.09c1.56,0.68,38.71,16.69,42.69,38.47c1.43,7.83-1.6,15.38-9,22.47
					C208.7,221.47,202.55,224.34,196.37,224.34z M157.85,178.94c1.11,2.87,16.96,42.77,38.52,42.77c5.49,0,11.02-2.64,16.45-7.84
					c6.71-6.42,9.48-13.18,8.24-20.07c-3.58-19.55-37.74-35.01-40.91-36.42h-0.59c-7.62,0-13.35,2.11-17.05,6.25
					C157.29,169.52,157.75,177.71,157.85,178.94z"/>
			</g>
		</g>
		<g>
			<path class="st1" d="M189.04,123.03c0,0,70.1-12.8,60.13,30.75c-9.96,43.58-67.32,1.73-67.32,1.73S166.51,137.24,189.04,123.03z"
				/>
			<path class="st0" d="M226.47,174.92c-20.03,0-44.38-17.6-45.42-18.34l-0.22-0.23c-0.27-0.32-6.68-8.09-5.18-17.72
				c1.01-6.42,5.26-12.04,12.68-16.72l0.22-0.13l0.25-0.06c0.09-0.01,9.86-1.76,21.44-1.76c12.41,0,28.82,2.05,36.63,11.85
				c4.48,5.62,5.69,13.1,3.58,22.26C247.28,167.92,239.22,174.92,226.47,174.92z M182.76,154.54c2.02,1.44,25.31,17.74,43.71,17.74
				c11.36,0,18.56-6.32,21.41-18.79c1.91-8.34,0.87-15.09-3.06-20.04c-7.17-8.98-22.76-10.87-34.57-10.87
				c-10.32,0-19.16,1.43-20.72,1.7c-6.59,4.21-10.39,9.17-11.26,14.72C177.03,146.86,182,153.57,182.76,154.54z"/>
		</g>
		<g>
			<path class="st1" d="M156.66,180.87c0,0,38.31,60.09-5.8,67.29c-44.11,7.21-27-61.71-27-61.71S134.99,165.36,156.66,180.87z"/>
			<path class="st0" d="M144.72,250c-7.81,0-13.95-2.78-18.23-8.26c-13.3-17-4.3-54.04-3.9-55.61l0.12-0.29
				c0.26-0.5,6.46-11.99,18.78-11.99c5.06,0,10.43,1.99,15.93,5.93l0.22,0.15l0.13,0.22c0.92,1.45,22.48,35.64,13.44,55.87
				c-3.25,7.27-10.03,11.77-20.14,13.44C148.87,249.83,146.71,250,144.72,250z M125.1,186.93c-0.64,2.74-8.6,37.76,3.46,53.18
				c4.77,6.09,12.22,8.35,22.09,6.73c9.18-1.5,15.29-5.49,18.14-11.89c8.14-18.15-11.29-50.25-13.11-53.17
				c-4.96-3.52-9.74-5.29-14.19-5.29C131.44,176.5,125.81,185.71,125.1,186.93z"/>
		</g>
		<g>
			<path class="st1" d="M122.55,186.83c0,0,1.16,71.25-40.19,54.28c-41.35-16.97,9.33-66.71,9.33-66.71S112.22,162.27,122.55,186.83
				z"/>
			<path class="st0" d="M94.18,245.02c-3.8,0-7.93-0.89-12.33-2.7c-9.5-3.89-15.08-9.84-16.61-17.65
				c-4.25-21.7,24.3-50.02,25.53-51.22l0.25-0.2c0.22-0.12,5.46-3.18,12.12-3.18c6.29,0,14.98,2.81,20.63,16.22l0.09,0.25l0.01,0.25
				c0.02,1.49,0.42,36.71-14.3,51.68C105.29,242.82,100.09,245.02,94.18,245.02z M92.49,175.45c-2.02,2.03-28.51,29.08-24.66,48.71
				c1.35,6.89,6.41,12.17,15.04,15.72c10.2,4.18,18.56,3.1,24.83-3.26c13.33-13.57,13.56-46.33,13.55-49.53
				c-4.08-9.54-10.16-14.39-18.1-14.39C97.76,172.7,93.31,175.01,92.49,175.45z"/>
		</g>
		<g>
			<path class="st1" d="M89.92,174.38c0,0-35.71,61.65-62.4,25.82c-26.71-35.84,42.35-52.35,42.35-52.35S93.71,148.01,89.92,174.38z
				"/>
			<path class="st0" d="M46.4,212.71c-7.44,0-14.15-3.94-19.95-11.73c-6.14-8.24-7.88-16.2-5.15-23.69
				c7.52-20.78,46.59-30.35,48.25-30.74l0.17-0.04h0.15c0.42,0,10.5,0.16,16.83,7.56c4.25,4.92,5.77,11.83,4.52,20.5l-0.04,0.24
				l-0.13,0.23C90.17,176.58,68.98,212.71,46.4,212.71z M70.01,149.16c-2.79,0.7-39.42,10.24-46.23,29.03
				c-2.39,6.61-0.77,13.74,4.79,21.24c5.28,7.08,11.28,10.66,17.84,10.66c20.21,0,40.45-33.13,42.25-36.15
				c1.08-7.76-0.26-13.87-3.94-18.15C79.53,149.76,71.24,149.22,70.01,149.16z"/>
		</g>
		<g>
			<path class="st1" d="M69.93,146.17c0,0-65.25,33.66-68.48-12.26c-3.25-45.93,65.82-21.9,65.82-21.9S87.87,125.4,69.93,146.17z"/>
			<path class="st0" d="M27.49,159.38c-16.74,0-26.2-8.77-27.37-25.39c-0.64-8.94,1.39-16,6.02-20.96
				c5.32-5.72,14.03-8.62,25.85-8.62c17.24,0,34.96,6.1,35.72,6.35l0.28,0.14c0.36,0.24,8.99,5.96,10.39,15.88
				c0.96,6.61-1.56,13.44-7.46,20.26l-0.17,0.2l-0.22,0.12C69.57,147.83,46.97,159.38,27.49,159.38z M31.98,107.04
				c-11.06,0-19.11,2.62-23.91,7.76c-4.1,4.42-5.9,10.81-5.32,19.01c1.08,15.22,9.4,22.94,24.74,22.94
				c17.83,0,39.19-10.43,41.6-11.64c5.25-6.14,7.51-12.18,6.7-17.94c-1.14-8.13-8.09-13.25-9.11-13.98
				C64.84,112.58,47.93,107.04,31.98,107.04z"/>
		</g>
		<g>
			<path class="st1" d="M84.16,81.53c0,0-43.51-57.88-66.09-18.5c-22.59,39.39,49.06,47.68,49.06,47.68S91.17,107.66,84.16,81.53z"
				/>
			<path class="st0" d="M67.14,112.05l-0.16-0.01c-1.72-0.2-42.27-5.11-52.37-25.14c-3.65-7.22-2.88-15.47,2.32-24.49
				C22.41,52.84,29.59,48,38.26,48c22.09,0,45.94,31.4,46.95,32.74l0.15,0.2l0.06,0.25c2.31,8.6,1.62,15.72-2.05,21.2
				c-5.5,8.22-15.64,9.59-16.06,9.65L67.14,112.05z M38.26,50.62c-7.68,0-14.07,4.4-19.04,13.07c-4.72,8.24-5.48,15.63-2.26,22.01
				c9.17,18.15,47.28,23.33,50.15,23.69c1.22-0.19,9.58-1.79,14.07-8.51c3.19-4.76,3.79-11.08,1.76-18.78
				C80.87,79.42,58.14,50.62,38.26,50.62z"/>
		</g>
		<g>
			<path class="st1" d="M114.97,64.9c0,0-5.34-71.04-44.96-50.4C30.37,35.17,85.37,80.08,85.37,80.08S106.92,90.31,114.97,64.9z"/>
			<path class="st0" d="M95.12,83.44c0,0,0,0-0.01,0c-5.68,0-10.12-2.08-10.3-2.17l-0.27-0.16c-1.32-1.07-32.33-26.69-30.08-48.68
				c0.81-7.93,5.84-14.34,14.95-19.08c4.98-2.61,9.72-3.92,14.1-3.92c11.82,0,21.25,9.69,27.27,27.99
				c4.43,13.56,5.51,27.27,5.51,27.4l0.02,0.26l-0.07,0.23C111.47,80.3,102.13,83.44,95.12,83.44z M86.08,78.96
				c0.75,0.32,4.48,1.85,9.04,1.85l0,0c8.84,0,15.06-5.4,18.52-16.04c-0.34-3.96-5.19-52.7-30.13-52.7c-3.94,0-8.28,1.22-12.87,3.62
				C62.35,20,57.79,25.73,57.07,32.7C55.04,52.6,83.86,77.12,86.08,78.96z"/>
		</g>
		<g>
			<path class="st1" d="M150.35,67.76c0,0,32.03-63.65-12.58-66.37c-44.6-2.7-20.61,64.13-20.61,64.13S130.38,85.38,150.35,67.76z"
				/>
			<path class="st0" d="M134.04,76.36L134.04,76.36c-11.11,0-17.71-9.7-17.97-10.12l-0.13-0.28c-0.57-1.58-13.72-38.76-1.13-56.68
				C119.15,3.13,126.01,0,135.2,0c0.85,0,1.75,0.02,2.66,0.09c10.23,0.62,17.43,4.42,21.38,11.31c11.06,19.21-6.94,55.41-7.72,56.96
				l-0.12,0.23l-0.18,0.16C145.49,73.81,139.7,76.36,134.04,76.36z M118.35,64.9c0.78,1.1,6.65,8.83,15.7,8.83
				c4.96,0,10.08-2.28,15.24-6.79c1.51-3.1,17.58-36.99,7.68-54.21c-3.5-6.08-9.98-9.45-19.26-10.01
				c-9.68-0.58-16.54,2.15-20.72,8.09C105.57,27.04,117.42,62.21,118.35,64.9z"/>
		</g>
		<g>
			<path class="st1" d="M178.36,89.29c0,0,60.64-37.44,24.04-63.11c-36.58-25.67-51.14,43.83-51.14,43.83S152.11,93.83,178.36,89.29
				z"/>
			<path class="st0" d="M172.08,91.2c0,0,0,0-0.01,0c-21.13-0.01-22.11-20.93-22.12-21.15l-0.01-0.17l0.03-0.15
				c0.02-0.13,2.68-12.67,8.44-25.04c7.75-16.7,17.58-25.52,28.45-25.52c5.21,0,10.68,2,16.3,5.94c8.39,5.88,12.53,12.9,12.3,20.84
				c-0.66,22.14-34.95,43.58-36.41,44.49l-0.22,0.13l-0.25,0.03C176.32,90.99,174.11,91.2,172.08,91.2z M152.58,70.12
				c0.12,1.92,1.64,18.43,19.5,18.43l0,0c1.8,0,3.76-0.16,5.8-0.51c2.91-1.85,34.35-22.31,34.94-42.17c0.2-7-3.56-13.26-11.18-18.6
				c-5.14-3.62-10.11-5.45-14.78-5.45C163.68,21.82,153.26,67.04,152.58,70.12z"/>
		</g>
		<g>
			<path class="st1" d="M189.81,121.62c0,0,71.17,3.44,55.54-38.43c-15.65-41.87-66.97,7.2-66.97,7.2S165.59,110.51,189.81,121.62z"
				/>
			<path class="st0" d="M193.61,123L193.61,123c-2.43,0-3.87-0.06-3.87-0.06l-0.24-0.01l-0.24-0.1c-7.97-3.67-12.94-8.68-14.78-14.9
				c-2.75-9.35,2.56-17.89,2.79-18.25l0.21-0.26c1.04-0.98,25.84-24.47,46.59-24.47c10.54,0,18.11,5.98,22.51,17.77
				c3.52,9.38,3.05,17.36-1.35,23.73C234.84,121.39,205.67,123,193.61,123z M190.12,120.31c0.51,0.02,1.73,0.05,3.49,0.05l0,0
				c9.08,0,39.51-1.11,49.44-15.41c3.89-5.61,4.24-12.78,1.06-21.3c-3.98-10.65-10.72-16.07-20.04-16.07
				c-18.98,0-42.72,21.82-44.66,23.63c-0.61,1.06-4.64,8.37-2.38,15.98C178.62,112.6,183.02,117,190.12,120.31z"/>
		</g>
	</g>
	<g>
		<g>
			<path class="st2" d="M169.41,57.24c-7.33-6.24-7.16-18.43,0.34-27.23c7.5-8.81,19.51-10.9,26.83-4.67
				c7.32,6.24,7.17,18.42-0.33,27.23C188.74,61.38,176.74,63.47,169.41,57.24z"/>
			<path class="st3" d="M185.77,31.93c-3.82-0.9-6.47-3.52-5.9-5.87c0.54-2.36,4.1-3.53,7.91-2.64c3.81,0.9,6.45,3.53,5.91,5.88
				C193.12,31.65,189.58,32.83,185.77,31.93z"/>
		</g>
		<g>
			<path class="st2" d="M201.2,91.87c-3.08-9.1,3.29-19.49,14.26-23.21c10.96-3.72,22.34,0.66,25.43,9.76
				c3.08,9.1-3.3,19.5-14.26,23.2C215.67,105.34,204.29,100.97,201.2,91.87z"/>
			<path class="st3" d="M227.4,79.27c-2.79-2.75-3.67-6.38-1.99-8.1c1.68-1.72,5.34-0.89,8.13,1.88c2.79,2.75,3.68,6.37,1.98,8.09
				C233.82,82.86,230.2,82.02,227.4,79.27z"/>
		</g>
		<g>
			<path class="st2" d="M208.14,133.66c3.21-9.06,14.65-13.3,25.56-9.45c10.91,3.85,17.16,14.3,13.98,23.38
				c-3.19,9.06-14.63,13.29-25.55,9.46C211.22,153.19,204.95,142.73,208.14,133.66z"/>
			<path class="st3" d="M235.85,140.32c-2.02-3.35-1.96-7.08,0.1-8.32c2.07-1.25,5.39,0.47,7.4,3.84c2.01,3.35,1.96,7.08-0.11,8.34
				C241.16,145.4,237.86,143.69,235.85,140.32z"/>
		</g>
		<g>
			<path class="st2" d="M186.6,179.72c6.14-7.39,18.33-7.36,27.23,0.03c8.91,7.4,11.13,19.39,4.98,26.78
				c-6.14,7.39-18.35,7.37-27.24-0.03C182.67,199.1,180.44,187.11,186.6,179.72z"/>
			<path class="st3" d="M211.04,197.7c-0.55-3.89,0.93-7.31,3.31-7.65c2.4-0.35,4.79,2.52,5.34,6.41c0.56,3.87-0.95,7.3-3.33,7.64
				C213.97,204.43,211.59,201.57,211.04,197.7z"/>
		</g>
		<g>
			<path class="st2" d="M148.24,203.84c9.21-2.75,19.36,4,22.68,15.09c3.32,11.08-1.46,22.31-10.67,25.06
				c-9.2,2.74-19.36-4-22.67-15.09C134.26,217.82,139.03,206.6,148.24,203.84z"/>
			<path class="st3" d="M159.58,230.15c2.09-3.31,5.44-4.96,7.48-3.67c2.03,1.27,2.02,5.02-0.07,8.33c-2.1,3.32-5.43,4.96-7.48,3.68
				C157.46,237.2,157.5,233.47,159.58,230.15z"/>
		</g>
		<g>
			<path class="st2" d="M104.68,203.13c8.96,3.48,12.82,15.04,8.64,25.84c-4.21,10.8-14.86,16.7-23.83,13.22
				c-8.96-3.47-12.81-15.06-8.62-25.83C85.07,205.57,95.72,199.66,104.68,203.13z"/>
			<path class="st3" d="M97.4,230.18c3.77-1.1,7.36-0.11,8.04,2.21c0.67,2.31-1.83,5.08-5.59,6.18c-3.76,1.1-7.36,0.11-8.03-2.21
				C91.14,234.05,93.64,231.27,97.4,230.18z"/>
		</g>
		<g>
			<path class="st2" d="M68.09,181.38c4.98,8.21,1.01,19.75-8.86,25.75c-9.9,6.02-21.97,4.23-26.95-3.97
				c-4.99-8.23-1.03-19.75,8.87-25.76C51.02,171.38,63.08,173.16,68.09,181.38z"/>
			<path class="st3" d="M46.42,198.62c3.81,0.89,6.47,3.5,5.93,5.87c-0.54,2.34-4.07,3.54-7.88,2.66c-3.82-0.86-6.48-3.49-5.95-5.84
				C39.06,198.95,42.59,197.74,46.42,198.62z"/>
		</g>
		<g>
			<path class="st2" d="M46.54,142.02c-0.4,9.61-10.13,16.97-21.7,16.47c-11.56-0.51-20.58-8.71-20.16-18.32
				c0.43-9.59,10.15-16.96,21.7-16.46C37.94,124.22,46.98,132.43,46.54,142.02z"/>
			<path class="st3" d="M20.57,144.18c2.97,2.55,4.11,6.11,2.54,7.93c-1.58,1.83-5.26,1.24-8.24-1.32c-2.97-2.55-4.1-6.11-2.53-7.93
				C13.92,141.02,17.6,141.62,20.57,144.18z"/>
		</g>
		<g>
			<path class="st2" d="M54.87,87.76c-3.17,9.07-14.6,13.32-25.52,9.47c-10.92-3.82-17.19-14.28-14.01-23.35
				c3.19-9.07,14.63-13.3,25.54-9.48C51.8,68.23,58.07,78.7,54.87,87.76z"/>
			<path class="st3" d="M27.64,80.47c0.4,3.91-1.22,7.27-3.64,7.52c-2.39,0.24-4.67-2.71-5.07-6.6c-0.41-3.9,1.21-7.26,3.61-7.51
				C24.95,73.62,27.23,76.57,27.64,80.47z"/>
		</g>
		<g>
			<path class="st2" d="M87.06,55.47c-7.96,5.38-19.68,1.98-26.15-7.61c-6.48-9.59-5.29-21.73,2.68-27.1
				c7.97-5.38,19.68-1.99,26.16,7.6C96.23,37.94,95.02,50.08,87.06,55.47z"/>
			<path class="st3" d="M69.74,31.71c-1.85,3.45-5.08,5.32-7.21,4.19c-2.13-1.13-2.35-4.87-0.51-8.31c1.85-3.46,5.07-5.35,7.2-4.2
				C71.36,24.53,71.58,28.26,69.74,31.71z"/>
		</g>
		<g>
			<path class="st2" d="M131.53,46.02c-9.57,0.9-18.19-7.71-19.28-19.24c-1.08-11.52,5.79-21.6,15.37-22.48
				c9.55-0.89,18.19,7.71,19.27,19.23C147.97,35.05,141.09,45.12,131.53,46.02z"/>
			<path class="st3" d="M128.1,15.39c-3.55,1.68-7.24,1.27-8.28-0.92c-1.04-2.17,0.99-5.31,4.54-6.98c3.55-1.67,7.24-1.27,8.28,0.92
				C133.67,10.6,131.63,13.73,128.1,15.39z"/>
		</g>
	</g>
	<g class="st4">
		<path class="st5" d="M194.65,147.76c-12.95,36.86-53.33,56.24-90.2,43.31c-36.87-12.95-56.25-53.33-43.3-90.19
			c12.95-36.86,53.33-56.24,90.19-43.31C188.19,70.51,207.58,110.88,194.65,147.76z"/>
	</g>
	<path class="st6" d="M31.9,129.67c0,0,72.76-18.36,178.75,15.06C210.65,144.73,112.29,122.15,31.9,129.67z"/>
	<path class="st6" d="M87,48.11c0,0,46.98,58.5,60.72,168.79C147.72,216.9,127.32,118.06,87,48.11z"/>
	<path class="st6" d="M149.64,100.61c9.32-17.3,19.8-34.54,31.22-50.03c0,0-15.81,15.72-34.4,47.48
		C147.5,98.91,148.56,99.77,149.64,100.61z"/>
	<path class="st6" d="M132.02,91.2c1.68-19.58,4.42-39.59,8.73-58.33c0,0-8.24,20.72-12.64,57.24
		C129.41,90.48,130.71,90.85,132.02,91.2z"/>
	<path class="st6" d="M164.8,116.53c17.37-9.2,35.65-17.75,53.74-24.31c0,0-21.87,4.33-54.96,20.43
		C163.98,113.94,164.38,115.24,164.8,116.53z"/>
	<path class="st6" d="M154.39,153.14c14.62,13.14,28.91,27.39,41.28,42.13c0,0-11.58-19.07-38.05-44.59
		C156.54,151.48,155.46,152.31,154.39,153.14z"/>
	<path class="st6" d="M101.71,146.68c-16.39,10.85-32.62,22.84-47.01,35.6c0,0,14.24-17.15,44.18-38.53
		C99.83,144.72,100.78,145.69,101.71,146.68z"/>
	<path class="st6" d="M94.79,108.06C77.95,97.92,60.17,88.39,42.46,80.84c0,0,21.6,5.51,53.75,23.41
		C95.75,105.52,95.27,106.8,94.79,108.06z"/>
	<path class="st6" d="M118.97,137.65c-9.01,20.35-17.59,44.25-24.44,71.79c0,0,10.54-31.42,28.62-70.39
		C121.75,138.6,120.36,138.12,118.97,137.65z"/>
	<g>
		<path class="st7" d="M184.65,145.26c-11.08,31.54-45.6,48.1-77.11,37.02c-31.52-11.06-48.11-45.59-37.03-77.1
			c11.06-31.51,45.59-48.09,77.1-37.03C179.13,79.23,195.71,113.74,184.65,145.26z"/>
		<path class="st8" d="M127.58,187.04c-6.96,0-13.85-1.19-20.49-3.52c-15.58-5.46-28.08-16.68-35.23-31.56
			c-7.16-14.88-8.07-31.66-2.6-47.23c8.69-24.71,32.12-41.34,58.32-41.34c6.95,0,13.84,1.19,20.47,3.52
			c32.16,11.29,49.12,46.63,37.85,78.79C177.19,170.42,153.78,187.04,127.58,187.04z M127.58,66.04c-25.08,0-47.5,15.9-55.82,39.57
			c-5.24,14.92-4.37,30.98,2.48,45.22c6.84,14.25,18.83,24.97,33.73,30.22c6.35,2.22,12.96,3.35,19.62,3.35
			c25.07,0,47.51-15.89,55.81-39.57c10.81-30.78-5.43-64.62-36.21-75.44C140.83,67.18,134.24,66.04,127.58,66.04z"/>
	</g>
</g>
</svg>
