<?xml version="1.0" encoding="utf-8"?>
<!-- Generator: Adobe Illustrator 24.0.3, SVG Export Plug-In . SVG Version: 6.00 Build 0)  -->
<svg version="1.1" id="Layer_1" xmlns="http://www.w3.org/2000/svg" xmlns:xlink="http://www.w3.org/1999/xlink" x="0px" y="0px"
	 viewBox="0 0 129.75 150" style="enable-background:new 0 0 129.75 150;" xml:space="preserve">
<style type="text/css">
	.st0{fill:url(#SVGID_1_);}
	.st1{fill:url(#SVGID_2_);}
	.st2{fill:url(#SVGID_3_);}
	.st3{fill:url(#SVGID_4_);}
	.st4{fill:url(#SVGID_5_);}
	.st5{fill:url(#SVGID_6_);}
	.st6{fill:url(#SVGID_7_);}
	.st7{fill:url(#SVGID_8_);}
	.st8{fill:url(#SVGID_9_);}
	.st9{fill:url(#SVGID_10_);}
	.st10{fill:url(#SVGID_11_);}
	.st11{fill:url(#SVGID_12_);}
	.st12{fill:url(#SVGID_13_);}
	.st13{fill:url(#SVGID_14_);}
	.st14{fill:url(#SVGID_15_);}
	.st15{fill:url(#SVGID_16_);}
	.st16{fill:url(#SVGID_17_);}
	.st17{fill:url(#SVGID_18_);}
	.st18{fill:url(#SVGID_19_);}
	.st19{fill:url(#SVGID_20_);}
	.st20{fill:url(#SVGID_21_);}
	.st21{fill:url(#SVGID_22_);}
	.st22{fill:url(#SVGID_23_);}
	.st23{fill:url(#SVGID_24_);}
	.st24{fill:url(#SVGID_25_);}
	.st25{fill:url(#SVGID_26_);}
	.st26{fill:url(#SVGID_27_);}
	.st27{fill:url(#SVGID_28_);}
	.st28{fill:url(#SVGID_29_);}
	.st29{fill:url(#SVGID_30_);}
	.st30{fill:url(#SVGID_31_);}
	.st31{fill:url(#SVGID_32_);}
	.st32{fill:url(#SVGID_33_);}
	.st33{fill:url(#SVGID_34_);}
	.st34{fill:url(#SVGID_35_);}
	.st35{fill:url(#SVGID_36_);}
	.st36{fill:url(#SVGID_37_);}
	.st37{fill:url(#SVGID_38_);}
	.st38{fill:url(#SVGID_39_);}
	.st39{fill:#FFFEF1;}
	.st40{fill:#F47741;}
	.st41{fill:#F7914A;}
</style>
<g>
	<g>
		<g>

				<linearGradient id="SVGID_1_" gradientUnits="userSpaceOnUse" x1="2725.0227" y1="-29.1706" x2="2725.0227" y2="-127.9489" gradientTransform="matrix(-0.9521 0.3058 0.3058 0.9521 2724.9229 -589.3821)">
				<stop  offset="0" style="stop-color:#0C6154"/>
				<stop  offset="0.1954" style="stop-color:#0D5D50"/>
				<stop  offset="0.4887" style="stop-color:#0C5344"/>
				<stop  offset="0.8419" style="stop-color:#064332"/>
				<stop  offset="1" style="stop-color:#033B28"/>
			</linearGradient>
			<path class="st0" d="M80.07,88.83c0.14,0.3,0.28,0.6,0.41,0.91c0.23-0.31,0.46-0.62,0.68-0.94c-0.21-0.2-0.44-0.38-0.67-0.56
				C80.35,88.43,80.21,88.63,80.07,88.83z"/>

				<linearGradient id="SVGID_2_" gradientUnits="userSpaceOnUse" x1="2750.0879" y1="-29.1706" x2="2750.0879" y2="-127.9489" gradientTransform="matrix(-0.9521 0.3058 0.3058 0.9521 2724.9229 -589.3821)">
				<stop  offset="0" style="stop-color:#0C6154"/>
				<stop  offset="0.1954" style="stop-color:#0D5D50"/>
				<stop  offset="0.4887" style="stop-color:#0C5344"/>
				<stop  offset="0.8419" style="stop-color:#064332"/>
				<stop  offset="1" style="stop-color:#033B28"/>
			</linearGradient>
			<path class="st1" d="M60.56,97.32c-2.5-0.5-4.78-1.56-6.87-2.98c-0.36,0.09-0.71,0.2-1.08,0.28c2.14,1.55,4.49,2.74,7.09,3.36
				c-0.22,11.62,2.51,29.69,15.85,52.01h0.98C62.5,126.7,60.24,108.1,60.56,97.32z"/>

				<linearGradient id="SVGID_3_" gradientUnits="userSpaceOnUse" x1="2741.4165" y1="-29.1706" x2="2741.4165" y2="-127.9489" gradientTransform="matrix(-0.9521 0.3058 0.3058 0.9521 2724.9229 -589.3821)">
				<stop  offset="0" style="stop-color:#0C6154"/>
				<stop  offset="0.1954" style="stop-color:#0D5D50"/>
				<stop  offset="0.4887" style="stop-color:#0C5344"/>
				<stop  offset="0.8419" style="stop-color:#064332"/>
				<stop  offset="1" style="stop-color:#033B28"/>
			</linearGradient>
			<path class="st2" d="M69.91,97.53c0.25-0.08,0.5-0.17,0.76-0.26c-0.04-0.27-0.1-0.55-0.16-0.84c-1.54,0.58-3.22,0.97-5.04,1.14
				c-0.01,11.25,2.87,29.67,16.97,52.43h0.99c-13.83-22.14-16.99-40.17-17.12-51.67C67.55,98.17,68.75,97.9,69.91,97.53z"/>

				<linearGradient id="SVGID_4_" gradientUnits="userSpaceOnUse" x1="2744.6387" y1="-29.1706" x2="2744.6387" y2="-127.9489" gradientTransform="matrix(-0.9521 0.3058 0.3058 0.9521 2724.9229 -589.3821)">
				<stop  offset="0" style="stop-color:#0C6154"/>
				<stop  offset="0.1954" style="stop-color:#0D5D50"/>
				<stop  offset="0.4887" style="stop-color:#0C5344"/>
				<stop  offset="0.8419" style="stop-color:#064332"/>
				<stop  offset="1" style="stop-color:#033B28"/>
			</linearGradient>
			<path class="st3" d="M67.52,91.51c-4.27-1.97-6.61,4.83-9.14,4.4c-0.76-0.13-1.26-1.27-1.56-2.52c-1.03,0.36-2.07,0.67-3.13,0.95
				c2.08,1.42,4.37,2.48,6.87,2.98C60.24,108.1,62.5,126.7,76.53,150h5.9c-14.1-22.75-16.97-41.17-16.97-52.43
				c1.82-0.17,3.5-0.56,5.04-1.14C70.03,94.35,68.96,92.17,67.52,91.51z"/>

				<linearGradient id="SVGID_5_" gradientUnits="userSpaceOnUse" x1="2744.6387" y1="-29.1706" x2="2744.6387" y2="-127.9489" gradientTransform="matrix(-0.9521 0.3058 0.3058 0.9521 2724.9229 -589.3821)">
				<stop  offset="0" style="stop-color:#0C8761"/>
				<stop  offset="0.2083" style="stop-color:#0D825D"/>
				<stop  offset="0.5211" style="stop-color:#0C7551"/>
				<stop  offset="0.8978" style="stop-color:#055F3F"/>
				<stop  offset="1" style="stop-color:#025939"/>
			</linearGradient>
			<path class="st4" d="M67.52,91.51c-4.27-1.97-6.61,4.83-9.14,4.4c-0.76-0.13-1.26-1.27-1.56-2.52c-1.03,0.36-2.07,0.67-3.13,0.95
				c2.08,1.42,4.37,2.48,6.87,2.98C60.24,108.1,62.5,126.7,76.53,150h5.9c-14.1-22.75-16.97-41.17-16.97-52.43
				c1.82-0.17,3.5-0.56,5.04-1.14C70.03,94.35,68.96,92.17,67.52,91.51z"/>

				<linearGradient id="SVGID_6_" gradientUnits="userSpaceOnUse" x1="2725.3779" y1="-29.1706" x2="2725.3779" y2="-127.9489" gradientTransform="matrix(-0.9521 0.3058 0.3058 0.9521 2724.9229 -589.3821)">
				<stop  offset="0" style="stop-color:#0C6154"/>
				<stop  offset="0.1954" style="stop-color:#0D5D50"/>
				<stop  offset="0.4887" style="stop-color:#0C5344"/>
				<stop  offset="0.8419" style="stop-color:#064332"/>
				<stop  offset="1" style="stop-color:#033B28"/>
			</linearGradient>
			<path class="st5" d="M80.07,88.83c0.14-0.2,0.28-0.4,0.42-0.6c-0.36-0.28-0.73-0.56-1.12-0.8
				C79.61,87.89,79.84,88.35,80.07,88.83z"/>

				<linearGradient id="SVGID_7_" gradientUnits="userSpaceOnUse" x1="2725.3779" y1="-29.1706" x2="2725.3779" y2="-127.9489" gradientTransform="matrix(-0.9521 0.3058 0.3058 0.9521 2724.9229 -589.3821)">
				<stop  offset="0" style="stop-color:#0C8761"/>
				<stop  offset="0.2083" style="stop-color:#0D825D"/>
				<stop  offset="0.5211" style="stop-color:#0C7551"/>
				<stop  offset="0.8978" style="stop-color:#055F3F"/>
				<stop  offset="1" style="stop-color:#025939"/>
			</linearGradient>
			<path class="st6" d="M80.07,88.83c0.14-0.2,0.28-0.4,0.42-0.6c-0.36-0.28-0.73-0.56-1.12-0.8
				C79.61,87.89,79.84,88.35,80.07,88.83z"/>

				<linearGradient id="SVGID_8_" gradientUnits="userSpaceOnUse" x1="2731.2595" y1="-29.1706" x2="2731.2595" y2="-127.9489" gradientTransform="matrix(-0.9521 0.3058 0.3058 0.9521 2724.9229 -589.3821)">
				<stop  offset="0" style="stop-color:#0C6154"/>
				<stop  offset="0.1954" style="stop-color:#0D5D50"/>
				<stop  offset="0.4887" style="stop-color:#0C5344"/>
				<stop  offset="0.8419" style="stop-color:#064332"/>
				<stop  offset="1" style="stop-color:#033B28"/>
			</linearGradient>
			<path class="st7" d="M70.5,96.43c0.06,0.28,0.12,0.56,0.16,0.84c4.16-1.52,7.35-4.29,9.81-7.53c-0.13-0.31-0.27-0.61-0.41-0.91
				C77.68,92.1,74.56,94.9,70.5,96.43z"/>

				<linearGradient id="SVGID_9_" gradientUnits="userSpaceOnUse" x1="2731.2595" y1="-29.1706" x2="2731.2595" y2="-127.9489" gradientTransform="matrix(-0.9521 0.3058 0.3058 0.9521 2724.9229 -589.3821)">
				<stop  offset="0" style="stop-color:#0C6154"/>
				<stop  offset="0.1954" style="stop-color:#0D5D50"/>
				<stop  offset="0.4887" style="stop-color:#0C5344"/>
				<stop  offset="0.8419" style="stop-color:#064332"/>
				<stop  offset="1" style="stop-color:#033B28"/>
			</linearGradient>
			<path class="st8" d="M70.5,96.43c0.06,0.28,0.12,0.56,0.16,0.84c4.16-1.52,7.35-4.29,9.81-7.53c-0.13-0.31-0.27-0.61-0.41-0.91
				C77.68,92.1,74.56,94.9,70.5,96.43z"/>

				<linearGradient id="SVGID_10_" gradientUnits="userSpaceOnUse" x1="2736.01" y1="-29.1706" x2="2736.01" y2="-127.9489" gradientTransform="matrix(-0.9521 0.3058 0.3058 0.9521 2724.9229 -589.3821)">
				<stop  offset="0" style="stop-color:#0C6154"/>
				<stop  offset="0.1954" style="stop-color:#0D5D50"/>
				<stop  offset="0.4887" style="stop-color:#0C5344"/>
				<stop  offset="0.8419" style="stop-color:#064332"/>
				<stop  offset="1" style="stop-color:#033B28"/>
			</linearGradient>
			<path class="st9" d="M36.86,67.1c0,0,12.56-14.14,16.78-15.49c4.23-1.36,25.03,0.51,25.03,0.51l8.95,15.77
				c0,0-1.1,11.63-7.13,20.35c0.23,0.18,0.46,0.36,0.67,0.56c6.06-8.68,7.23-20.14,7.3-20.83c0.01-0.18-0.02-0.34-0.1-0.49
				L79.4,51.7c-0.14-0.24-0.38-0.4-0.66-0.42c-0.86-0.08-21.02-1.87-25.36-0.47c-4.32,1.39-15.85,14.27-17.16,15.73
				c-0.19,0.22-0.26,0.51-0.18,0.78c0.25,0.93,5.36,19.17,16.57,27.31c0.36-0.08,0.72-0.19,1.08-0.28
				C42.14,86.44,36.86,67.1,36.86,67.1z"/>

				<linearGradient id="SVGID_11_" gradientUnits="userSpaceOnUse" x1="2736.01" y1="-29.1706" x2="2736.01" y2="-127.9489" gradientTransform="matrix(-0.9521 0.3058 0.3058 0.9521 2724.9229 -589.3821)">
				<stop  offset="0" style="stop-color:#0C6154"/>
				<stop  offset="0.1954" style="stop-color:#0D5D50"/>
				<stop  offset="0.4887" style="stop-color:#0C5344"/>
				<stop  offset="0.8419" style="stop-color:#064332"/>
				<stop  offset="1" style="stop-color:#033B28"/>
			</linearGradient>
			<path class="st10" d="M36.86,67.1c0,0,12.56-14.14,16.78-15.49c4.23-1.36,25.03,0.51,25.03,0.51l8.95,15.77
				c0,0-1.1,11.63-7.13,20.35c0.23,0.18,0.46,0.36,0.67,0.56c6.06-8.68,7.23-20.14,7.3-20.83c0.01-0.18-0.02-0.34-0.1-0.49
				L79.4,51.7c-0.14-0.24-0.38-0.4-0.66-0.42c-0.86-0.08-21.02-1.87-25.36-0.47c-4.32,1.39-15.85,14.27-17.16,15.73
				c-0.19,0.22-0.26,0.51-0.18,0.78c0.25,0.93,5.36,19.17,16.57,27.31c0.36-0.08,0.72-0.19,1.08-0.28
				C42.14,86.44,36.86,67.1,36.86,67.1z"/>

				<linearGradient id="SVGID_12_" gradientUnits="userSpaceOnUse" x1="2736.0076" y1="-29.1706" x2="2736.0076" y2="-127.9489" gradientTransform="matrix(-0.9521 0.3058 0.3058 0.9521 2724.9229 -589.3821)">
				<stop  offset="0" style="stop-color:#0C6154"/>
				<stop  offset="0.1954" style="stop-color:#0D5D50"/>
				<stop  offset="0.4887" style="stop-color:#0C5344"/>
				<stop  offset="0.8419" style="stop-color:#064332"/>
				<stop  offset="1" style="stop-color:#033B28"/>
			</linearGradient>
			<path class="st11" d="M80.07,88.83c-0.22-0.47-0.45-0.94-0.7-1.39c0.39,0.24,0.76,0.51,1.12,0.8c6.03-8.72,7.13-20.35,7.13-20.35
				l-8.95-15.77c0,0-20.8-1.87-25.03-0.51C49.41,52.96,36.86,67.1,36.86,67.1s5.28,19.34,16.84,27.25c1.06-0.28,2.1-0.59,3.13-0.95
				c0.31,1.25,0.8,2.39,1.56,2.52c2.53,0.44,4.87-6.37,9.14-4.4c1.44,0.66,2.5,2.84,2.98,4.92C74.56,94.9,77.68,92.1,80.07,88.83z"
				/>

				<linearGradient id="SVGID_13_" gradientUnits="userSpaceOnUse" x1="2736.0076" y1="-29.1706" x2="2736.0076" y2="-127.9489" gradientTransform="matrix(-0.9521 0.3058 0.3058 0.9521 2724.9229 -589.3821)">
				<stop  offset="0" style="stop-color:#0C8761"/>
				<stop  offset="0.2083" style="stop-color:#0D825D"/>
				<stop  offset="0.5211" style="stop-color:#0C7551"/>
				<stop  offset="0.8978" style="stop-color:#055F3F"/>
				<stop  offset="1" style="stop-color:#025939"/>
			</linearGradient>
			<path class="st12" d="M80.07,88.83c-0.22-0.47-0.45-0.94-0.7-1.39c0.39,0.24,0.76,0.51,1.12,0.8c6.03-8.72,7.13-20.35,7.13-20.35
				l-8.95-15.77c0,0-20.8-1.87-25.03-0.51C49.41,52.96,36.86,67.1,36.86,67.1s5.28,19.34,16.84,27.25c1.06-0.28,2.1-0.59,3.13-0.95
				c0.31,1.25,0.8,2.39,1.56,2.52c2.53,0.44,4.87-6.37,9.14-4.4c1.44,0.66,2.5,2.84,2.98,4.92C74.56,94.9,77.68,92.1,80.07,88.83z"
				/>

				<linearGradient id="SVGID_14_" gradientUnits="userSpaceOnUse" x1="2736.0076" y1="-29.1706" x2="2736.0076" y2="-127.9489" gradientTransform="matrix(-0.9521 0.3058 0.3058 0.9521 2724.9229 -589.3821)">
				<stop  offset="0" style="stop-color:#0C6154"/>
				<stop  offset="0.1954" style="stop-color:#0D5D50"/>
				<stop  offset="0.4887" style="stop-color:#0C5344"/>
				<stop  offset="0.8419" style="stop-color:#064332"/>
				<stop  offset="1" style="stop-color:#033B28"/>
			</linearGradient>
			<path class="st13" d="M80.07,88.83c-0.22-0.47-0.45-0.94-0.7-1.39c0.39,0.24,0.76,0.51,1.12,0.8c6.03-8.72,7.13-20.35,7.13-20.35
				l-8.95-15.77c0,0-20.8-1.87-25.03-0.51C49.41,52.96,36.86,67.1,36.86,67.1s5.28,19.34,16.84,27.25c1.06-0.28,2.1-0.59,3.13-0.95
				c0.31,1.25,0.8,2.39,1.56,2.52c2.53,0.44,4.87-6.37,9.14-4.4c1.44,0.66,2.5,2.84,2.98,4.92C74.56,94.9,77.68,92.1,80.07,88.83z"
				/>
		</g>
		<g>
			<g>

					<radialGradient id="SVGID_15_" cx="2841.5537" cy="-105.4167" r="97.0176" gradientTransform="matrix(-1.0134 0.3256 0.3256 1.0134 2983.3567 -737.8688)" gradientUnits="userSpaceOnUse">
					<stop  offset="0" style="stop-color:#0696C4"/>
					<stop  offset="1" style="stop-color:#6BCFF6"/>
				</radialGradient>
				<path class="st14" d="M0,79.22c0.16-6.62,4.39-12.2,11.66-15.47c-1.92-1.71-5.75-5.62-6.19-9.95c-0.22-2.18,0.44-4.18,1.96-5.93
					c3.69-4.25,8.15-6.33,11.24-7.32c0.9-0.29,1.67-0.48,2.27-0.61c-0.7-1.2-1.53-3.19-0.94-5.19c0.57-1.93,2.29-3.37,5.11-4.28
					c1.37-0.44,3.03-0.76,4.94-0.96c15.11-1.54,26.31,7.24,26.78,7.61c0.04,0.03,0.08,0.07,0.12,0.12l4.02,4.81l2.96-6.01
					c0.02-0.05,0.05-0.1,0.09-0.14c0.27-0.35,6.83-8.71,18.29-12.39c1.94-0.62,3.93-1.08,5.92-1.35c5.47-0.76,9.08,0.01,10.74,2.29
					c1.37,1.88,1.01,4.24,0.59,5.68c2.7-0.08,9.01,0.27,15,4.51c1.89,1.34,3.01,3.13,3.31,5.3c0.6,4.31-2.19,9.02-3.65,11.14
					c7.84,1.45,13.27,5.86,15,12.26c1.66,6.15-0.56,12.87-5.51,16.73c-1.35,1.06-2.66,1.78-4.01,2.21
					c-4.81,1.54-9.11-1.06-14.09-4.07c-3.3-1.99-7.04-4.25-11.62-5.81c-7.55-2.56-13.46-2.84-17.47-2.48
					c12.68,3.87,26.07,11.89,31.09,18.89c2.37,3.3,2.97,7.03,1.74,10.77c-1.68,5.11-6.73,9.56-13.18,11.63
					c-2.57,0.83-5.29,1.26-8.08,1.3c-13.32,0.16-15.03-13.19-16.27-22.94c-0.24-1.89-0.47-3.67-0.76-5.17
					c-0.63-3.23-2.58-6.28-5.8-9.07c-1.94,2.64-3.97,6.43-3.78,10.58c0.07,1.52,0.28,3.31,0.49,5.2c1.05,9.32,2.49,22.08-8.92,25.75
					c-0.46,0.15-0.95,0.28-1.45,0.4c-8.73,2.02-17.78-0.34-22.5-5.88c-3.12-3.65-3.86-8.1-2.08-12.52
					c3.22-7.98,14.31-18.95,25.72-25.72c-1.54,0.24-3.35,0.64-5.4,1.3c-3.64,1.17-7.33,2.94-10.97,5.25
					c-4.08,2.6-7.18,5.68-9.91,8.4c-3.13,3.12-5.84,5.81-9.1,6.86c0,0,0,0,0,0c-2.49,0.8-5.13,0.55-8.04-0.76
					C3.6,91.59-0.15,85.58,0,79.22z"/>

					<radialGradient id="SVGID_16_" cx="2838.7644" cy="-134.9956" r="43.0985" gradientTransform="matrix(-1.0134 0.3256 0.3256 1.0134 2983.3567 -737.8688)" gradientUnits="userSpaceOnUse">
					<stop  offset="4.743300e-03" style="stop-color:#86D4EB"/>
					<stop  offset="0.1607" style="stop-color:#8ED6EC"/>
					<stop  offset="0.3754" style="stop-color:#A2DCEF"/>
					<stop  offset="0.6242" style="stop-color:#C1E7F3"/>
					<stop  offset="0.8967" style="stop-color:#EAF7FB"/>
					<stop  offset="1" style="stop-color:#FFFFFF"/>
				</radialGradient>
				<path class="st15" d="M13.26,63.99c0,0-11.25-8.59-5.19-15.58c6.06-6.98,14.29-7.88,14.29-7.88s-7.17-8.67,7.78-10.2
					c14.94-1.53,26.17,7.44,26.17,7.44l4.85,5.8l3.53-7.17c0,0,8.78-11.37,23.66-13.43s9.97,8.06,9.97,8.06s8.2-1.08,15.75,4.27
					c7.55,5.35-1.35,16.36-1.35,16.36c18.69,2.54,19.78,20.46,10.46,27.72c-9.32,7.27-15.41-3.21-28.93-7.8
					c-11.03-3.75-18.69-2.63-21.71-1.91c13.18,3.16,28.81,11.84,34.38,19.59c7.03,9.79-3.75,22.19-18.85,22.37
					c-15.09,0.19-14.42-18.29-16.2-27.44c-0.84-4.35-3.85-7.75-6.76-10.11c-2.38,3.02-4.7,7.2-4.48,11.83
					c0.45,9.3,5.48,27.1-9.23,30.49c-14.71,3.4-28.12-6.09-23.61-17.27c3.57-8.86,16.7-20.99,28.76-27.19
					c-3.1,0.01-10.81,0.74-20.64,7C23.88,86.63,20.45,98.25,9.67,93.4C-1.11,88.55-4.3,70.89,13.26,63.99z"/>

					<radialGradient id="SVGID_17_" cx="2838.301" cy="-131.5201" r="45.6041" gradientTransform="matrix(-1.0134 0.3256 0.3256 1.0134 2983.3567 -737.8688)" gradientUnits="userSpaceOnUse">
					<stop  offset="0" style="stop-color:#61CAE1"/>
					<stop  offset="1" style="stop-color:#ADE1F5"/>
				</radialGradient>
				<path class="st16" d="M32.3,60.95c-11.68,1.37-23.24,6.98-28.49,9.82c2-2.68,5.08-5.06,9.45-6.78c0,0-6.45-4.93-6.95-10.36
					c1.64,2.02,4.45,4.67,8.86,6.45c7.31,2.95,19.17-0.81,16.14-10.24c-1.28-3.99-5.79-7.28-6.3-7.64
					c-2.16-0.53-4.47-0.84-6.64-0.67c2.35-0.82,3.99-1,3.99-1s-1.43-1.73-1.68-3.79c1.07,0.9,2.75,2.1,5.01,3.03
					c2.8-2.19,2.43-6.81,2.04-9.1c0.73-0.14,1.53-0.25,2.41-0.34c1.7-0.17,3.35-0.21,4.94-0.14c0.53,1.87,0.85,3.56,0.62,4.25
					c-0.32,0.92-0.56,3.76-0.72,6.25l1.14,1.04c4.63,0.84,6.49,2.15,6.49,2.15l-4.05,0.76l3.19,10.74l1.91-0.96l0.6,0.24
					c0.37-0.15,0.57-0.23,0.57-0.23s0.7,0.45,1.72,1.16l5.14,2.08l5.56,5.21l-0.04,0.1l1.05-0.11c-0.84-2.34-1.55-4.09-1.55-4.09
					l11.72,1.2l0.8-2.11l1.01-6.54c0,0,1.65-11.8,1.08-13.56c-0.3-0.94,1.49-5.47,3.18-9.75c3.69-2.25,8.35-4.28,13.83-5.04
					c2.08-0.29,3.75-0.33,5.13-0.2c0.68,4.2,2.28,5.92,3.45,6.62c0.97-1.07,1.73-2.3,1.84-3.58c0.94,2.37-0.45,5.23-0.45,5.23
					s5.52-0.72,11.67,1.97c-3.24-0.74-8.14-1.07-13.96,1.1c-2.04,2.96-3.67,10.17-2.04,13.56c1.62,3.37,6.53,1.53,9.15,0.74
					c3.17-0.96,6.45-1.71,9.53-2.94c2.39-0.96,3.69-2.33,4.39-3.48c-0.43,4.83-4.34,9.68-4.34,9.68c4.98,0.68,8.69,2.45,11.31,4.82
					c-8.32-4.87-25.73-3.4-32.34-2.61c-3.97,0.47-14.04,8.82-7.22,11.92c4.7,2.13,9.56,3.1,14.09,5.83
					c3.22,1.95,6.26,4.22,9.01,6.78c-3.71-2.21-7.92-4.98-13.32-6.81c-11.03-3.75-18.69-2.63-21.71-1.91
					c13.18,3.16,28.81,11.84,34.38,19.59c0.51,0.71,0.91,1.43,1.24,2.16c-4.22-5.7-10.81-9.47-17.12-12.44
					c-4.04-1.9-8.26-4.61-12.83-4.9c-7.57-0.48-4.96,7.36-3.78,12.02c1.17,4.6,1.38,13.97,1.42,17.54
					c-2.75-6.08-2.97-14.26-3.97-19.44c-0.84-4.35-3.85-7.75-6.76-10.11c-2.38,3.02-4.7,7.2-4.48,11.83
					c0.35,7.33,3.54,19.92-2.31,26.6c2.87-4.13,2.9-11.99,1.38-17.8c-1.21-4.65,1.61-15.95-5.19-17.12
					c-4.34-0.74-10.09,4.45-13.32,6.93c-3.62,2.79-7.03,5.85-10.27,9.07c5.56-7.86,15.93-16.67,25.61-21.64
					c-3.1,0.01-10.81,0.74-20.64,7c-6.05,3.85-9.92,8.7-13.65,11.96c3.85-5.59,8.87-10.36,14.08-14.66c3.59-2.97,10-7.83,4.39-12.27
					C38.8,62.46,34.87,60.65,32.3,60.95z"/>
				<g>

						<radialGradient id="SVGID_18_" cx="2838.301" cy="-131.5201" r="45.6041" gradientTransform="matrix(-1.0134 0.3256 0.3256 1.0134 2983.3567 -737.8688)" gradientUnits="userSpaceOnUse">
						<stop  offset="0" style="stop-color:#0696C4"/>
						<stop  offset="1" style="stop-color:#6BCFF6"/>
					</radialGradient>
					<path class="st17" d="M92.32,48.63c1.07,1.73,2.78,2.6,2.78,2.6s-6.23,2.39-9.37,4.69c-3.14,2.31-6.42,5.43-7.68,7.13
						c-1.27,1.7-6.25,4.34-11.99,5.41c-5.74,1.07-10.62,0.82-14.88-1.18c-4.27-2-9.17-6.38-12.32-7.31
						c-3.15-0.93-6.66-0.97-6.66-0.97s2.78-1.41,1.81-4.85c-0.98-3.44-2.63-9-5.73-11.37l-1.74-1.38c0,0,2.27-0.6,3.04-3.44
						c0.38-1.38,3.05-1.75,5.79-1.78c-0.16,1.27-0.29,2.96-0.39,4.5l1.14,1.04c4.63,0.84,6.49,2.15,6.49,2.15l-4.05,0.76l3.19,10.74
						l1.91-0.96l0.6,0.24c0.37-0.15,0.57-0.23,0.57-0.23s0.7,0.45,1.72,1.16l5.14,2.08l5.56,5.21l-0.04,0.1l1.05-0.11
						c-0.84-2.34-1.55-4.09-1.55-4.09l11.72,1.2l0.8-2.11l1.01-6.54c0,0,1.13-8.11,1.2-11.88l20.79,2.1
						C92.24,41.53,91.24,46.9,92.32,48.63z"/>

						<radialGradient id="SVGID_19_" cx="2838.301" cy="-131.5201" r="45.6041" gradientTransform="matrix(-1.0134 0.3256 0.3256 1.0134 2983.3567 -737.8688)" gradientUnits="userSpaceOnUse">
						<stop  offset="0" style="stop-color:#0696C4"/>
						<stop  offset="1" style="stop-color:#6BCFF6"/>
					</radialGradient>
					<path class="st18" d="M61.07,71.1c-2.54,0.11-7.89,2.94-11.02,4.71c2.17-1.44,4.36-2.75,6.51-3.86
						c-3.1,0.01-10.81,0.74-20.64,7c-1.11,0.7-2.12,1.45-3.09,2.2c2.15-1.98,7.93-6.88,14.26-8.81
						C55.11,69.91,61.07,71.1,61.07,71.1z"/>

						<radialGradient id="SVGID_20_" cx="2838.301" cy="-131.5201" r="45.6041" gradientTransform="matrix(-1.0134 0.3256 0.3256 1.0134 2983.3567 -737.8688)" gradientUnits="userSpaceOnUse">
						<stop  offset="0" style="stop-color:#0696C4"/>
						<stop  offset="1" style="stop-color:#6BCFF6"/>
					</radialGradient>
					<path class="st19" d="M21.45,40.68c0.56-0.11,0.9-0.15,0.9-0.15s-0.82-1-1.32-2.37l3.21,2.55L21.45,40.68z"/>

						<radialGradient id="SVGID_21_" cx="2838.301" cy="-131.5201" r="45.6041" gradientTransform="matrix(-1.0134 0.3256 0.3256 1.0134 2983.3567 -737.8688)" gradientUnits="userSpaceOnUse">
						<stop  offset="0" style="stop-color:#0696C4"/>
						<stop  offset="1" style="stop-color:#6BCFF6"/>
					</radialGradient>
					<path class="st20" d="M72.62,69.66c-1.57-0.55-2.59-0.91-2.59-0.91c11.37-2.61,21.42,1.42,24.9,3.09
						c-0.23-0.08-0.45-0.17-0.68-0.25C83.3,67.86,75.68,68.94,72.62,69.66z"/>

						<radialGradient id="SVGID_22_" cx="2838.301" cy="-131.5201" r="45.6041" gradientTransform="matrix(-1.0134 0.3256 0.3256 1.0134 2983.3567 -737.8688)" gradientUnits="userSpaceOnUse">
						<stop  offset="0" style="stop-color:#0696C4"/>
						<stop  offset="1" style="stop-color:#6BCFF6"/>
					</radialGradient>
					<path class="st21" d="M20.1,62.51c0,0-5.57,1.68-8.51,2.2c0.54-0.25,1.09-0.49,1.67-0.72c0,0-2.1-1.61-4-4
						C10.9,61.18,14.55,63.17,20.1,62.51z"/>

						<radialGradient id="SVGID_23_" cx="2838.301" cy="-131.5201" r="45.6041" gradientTransform="matrix(-1.0134 0.3256 0.3256 1.0134 2983.3567 -737.8688)" gradientUnits="userSpaceOnUse">
						<stop  offset="0" style="stop-color:#0696C4"/>
						<stop  offset="1" style="stop-color:#6BCFF6"/>
					</radialGradient>
					<path class="st22" d="M86.25,74.52c-3.69-1.34-9.7-3.47-13.28-4.74C77.29,70.85,81.86,72.51,86.25,74.52z"/>

						<radialGradient id="SVGID_24_" cx="2838.301" cy="-131.5201" r="45.6041" gradientTransform="matrix(-1.0134 0.3256 0.3256 1.0134 2983.3567 -737.8688)" gradientUnits="userSpaceOnUse">
						<stop  offset="0" style="stop-color:#0696C4"/>
						<stop  offset="1" style="stop-color:#6BCFF6"/>
					</radialGradient>
					<path class="st23" d="M94.55,33.41c0,0,0.12-0.43,1.54-1.66c1.08-0.94,2.42-2.94,3-3.84c-0.07,1.68-0.77,3.12-0.77,3.12
						s0.94-0.12,2.45-0.08C97.67,31.56,94.55,33.41,94.55,33.41z"/>

						<radialGradient id="SVGID_25_" cx="2838.301" cy="-131.5201" r="45.6041" gradientTransform="matrix(-1.0134 0.3256 0.3256 1.0134 2983.3567 -737.8688)" gradientUnits="userSpaceOnUse">
						<stop  offset="0" style="stop-color:#0696C4"/>
						<stop  offset="1" style="stop-color:#6BCFF6"/>
					</radialGradient>
					<path class="st24" d="M111.93,49.2c2.15-0.85,3.49-2.42,4.22-3.54c-1.29,3.34-3.43,6.01-3.43,6.01
						c0.84,0.11,1.63,0.27,2.39,0.44c-5.15-0.43-13.69-0.41-15.39-0.34C101.33,51.57,108.81,50.42,111.93,49.2z"/>

						<radialGradient id="SVGID_26_" cx="2838.301" cy="-131.5201" r="45.6041" gradientTransform="matrix(-1.0134 0.3256 0.3256 1.0134 2983.3567 -737.8688)" gradientUnits="userSpaceOnUse">
						<stop  offset="0" style="stop-color:#0696C4"/>
						<stop  offset="1" style="stop-color:#6BCFF6"/>
					</radialGradient>
					<path class="st25" d="M99.42,51.79c0.02-0.01,0.13-0.02,0.3-0.02C99.49,51.8,99.37,51.8,99.42,51.79z"/>

						<radialGradient id="SVGID_27_" cx="2838.301" cy="-131.5201" r="45.6041" gradientTransform="matrix(-1.0134 0.3256 0.3256 1.0134 2983.3567 -737.8688)" gradientUnits="userSpaceOnUse">
						<stop  offset="0" style="stop-color:#0696C4"/>
						<stop  offset="1" style="stop-color:#6BCFF6"/>
					</radialGradient>
					<path class="st26" d="M61.48,76.41c1.04-2.41,3.3-5.46,3.3-5.46s1.5,2.24,4,5.19c2.5,2.95,3.15,8.18,3.15,8.18l-0.01,0.02
						c-0.01-0.04-0.02-0.09-0.02-0.14c-0.84-4.35-3.85-7.75-6.76-10.11c-2.38,3.02-4.7,7.2-4.48,11.83c0.04,0.79,0.11,1.63,0.2,2.53
						C59.63,85.35,60.51,78.65,61.48,76.41z"/>
				</g>
			</g>
			<g>

					<linearGradient id="SVGID_28_" gradientUnits="userSpaceOnUse" x1="2708.7361" y1="-270.7654" x2="2733.3748" y2="-204.0963" gradientTransform="matrix(-0.9521 0.3058 0.3058 0.9521 2724.9229 -589.3821)">
					<stop  offset="0" style="stop-color:#F78F30"/>
					<stop  offset="0.1605" style="stop-color:#F1882F"/>
					<stop  offset="0.4015" style="stop-color:#E5772D"/>
					<stop  offset="0.6931" style="stop-color:#D75C29"/>
					<stop  offset="1" style="stop-color:#C63427"/>
				</linearGradient>
				<path class="st27" d="M29.8,40.98c-0.1-0.34-0.19-0.68-0.27-1.03c0,0-0.09-0.37-0.11-0.48c-0.1-0.44-0.18-0.88-0.27-1.37
					l-0.02-0.13c-0.08-0.51-0.15-1.02-0.21-1.53l-0.03-0.35c-0.04-0.39-0.07-0.79-0.09-1.18l-0.02-0.45
					c-0.02-0.38-0.02-0.76-0.02-1.13l0-0.72c0.01-0.35,0.03-0.7,0.05-1.1c0-0.01,0-0.09,0-0.09c0.03-0.49,0.07-0.97,0.12-1.44
					l0.01-0.12l0.83,0.12l-0.82-0.19c0.05-0.49,0.12-0.98,0.2-1.47l0.05-0.27c0.07-0.43,0.15-0.85,0.24-1.28l0.09-0.44
					c-0.09-0.21-0.17-0.43-0.26-0.66c-0.94-2.64-0.65-5.51,0.86-8.55C33.71,9.84,43.5,3.44,49.19,1.62
					c0.27-0.09,0.54-0.17,0.79-0.23c7.58-2.02,15.35-1.82,21.87,0.57c3.19,1.17,10.81,5,13.98,9.38c1.2,1.65,1.7,3.26,1.49,4.79
					l0.3,0.38c0.18,0.23,0.36,0.46,0.54,0.7l0.23,0.32c0.23,0.32,0.46,0.64,0.68,0.97c2.63,3.89,4.11,7.84,4.4,11.72
					c0.61,8.19-1.24,15.77-5.35,21.91l-0.7-0.47l0,0l0.65,0.53c-0.26,0.38-0.53,0.76-0.84,1.19l-0.05,0.07
					c-0.27,0.35-0.54,0.7-0.82,1.05l-0.13,0.16c-0.27,0.33-0.55,0.65-0.84,0.96l-0.19,0.2c-0.28,0.3-0.56,0.6-0.85,0.88l-0.24,0.23
					c-0.28,0.28-0.57,0.55-0.87,0.81l-0.29,0.26c-0.29,0.25-0.58,0.5-0.89,0.75L81.73,59c-0.27,0.21-0.55,0.42-0.87,0.66l-0.42,0.3
					c-0.3,0.21-0.61,0.42-0.91,0.62l-0.07,0.05c-0.12,0.08-0.25,0.16-0.37,0.24c-0.3,0.19-0.62,0.38-0.93,0.57l-0.49,0.29
					c-0.19,0.11-0.37,0.21-0.56,0.31c0,0-0.81,0.43-0.93,0.49c-0.32,0.16-0.65,0.31-1.02,0.49l-0.54,0.25
					c-0.31,0.14-0.64,0.27-1.02,0.43l-0.2,0.08c-0.14,0.06-0.27,0.11-0.41,0.17l-0.29,0.11l-0.79,0.28c0,0-0.49,0.18-0.63,0.22
					l-0.14,0.05c0,0-1.03,0.32-1.19,0.37c0,0-0.35,0.11-0.45,0.14c-0.6,0.17-1.21,0.33-1.84,0.49c-5.26,1.27-10.2,1.36-14.67,0.28
					c-0.47-0.12-0.94-0.24-1.4-0.38c-0.9-0.27-1.8-0.6-2.67-0.97c-0.43-0.19-0.85-0.38-1.27-0.59c-0.82-0.41-1.63-0.87-2.41-1.36
					c-2.21-1.4-4.3-3.19-6.22-5.32c-0.6-0.66-1.19-1.37-1.76-2.11c-2.33-3-4.42-6.59-6.22-10.69c-0.21-0.48-0.4-0.97-0.59-1.46
					l-0.16-0.46c-0.12-0.34-0.23-0.69-0.34-1.03C29.9,41.33,29.85,41.15,29.8,40.98z"/>
				<g>

						<linearGradient id="SVGID_29_" gradientUnits="userSpaceOnUse" x1="2717.6912" y1="-245.8798" x2="2734.4617" y2="-200.5007" gradientTransform="matrix(-0.9521 0.3058 0.3058 0.9521 2724.9229 -589.3821)">
						<stop  offset="0" style="stop-color:#FEC556"/>
						<stop  offset="0.1921" style="stop-color:#FEBF54"/>
						<stop  offset="0.4804" style="stop-color:#FBB04D"/>
						<stop  offset="0.8276" style="stop-color:#F89843"/>
						<stop  offset="1" style="stop-color:#F68A3E"/>
					</linearGradient>
					<path class="st28" d="M73.1,4.94c0,0,18.45,10.65,19.53,25.33c1.09,14.67-5.94,29.88-25.18,34.51
						c-19.24,4.63-29.87-7.5-35.65-20.67c-5.78-13.17,0.47-29.16,9.9-35.3C51.13,2.67,63.79,0.16,73.1,4.94z"/>
					<g>

							<linearGradient id="SVGID_30_" gradientUnits="userSpaceOnUse" x1="2719.4924" y1="-246.5455" x2="2736.2632" y2="-201.1665" gradientTransform="matrix(-0.9521 0.3058 0.3058 0.9521 2724.9229 -589.3821)">
							<stop  offset="0" style="stop-color:#FBAE50"/>
							<stop  offset="0.1904" style="stop-color:#FAA84C"/>
							<stop  offset="0.4764" style="stop-color:#F89943"/>
							<stop  offset="0.8205" style="stop-color:#F58236"/>
							<stop  offset="1" style="stop-color:#F3732F"/>
						</linearGradient>
						<path class="st29" d="M67.46,64.78c-19.24,4.63-29.87-7.5-35.65-20.67c-5.78-13.17,0.47-29.16,9.9-35.3
							c9.43-6.14,22.09-8.65,31.4-3.87c0,0,9.51,5.49,15.28,14.03c-1.39,2.31-6.12,1.04-5.22,4.79c0.78,3.25,4.34,4.51,5.27,7.93
							c0.83,3.08-0.28,6.42-2.77,8.32c-2.94,2.26-5.89,2.04-9.36,1.7c-7.14-0.7-11.3,7.68-17.91,8.66
							c-7.15,1.06-12-3.97-13.86-10.21c-1.13-3.81-2.26-6.14-6.69-6.63c-0.54-0.06-1.08-0.09-1.59-0.09
							c-5.26,0.96,0.62,4.75,0.24,8.32c-0.39,3.62,0.53,10.71,7.13,11.31c6.6,0.6,6.96,5.34,8.87,7.64
							c1.91,2.3,5.55,0.94,12.71-1.56c7.16-2.5,6.82,1.89,12.29-0.45c3.71-1.59,8.2-5.75,10.7-8.26
							C84.22,57.05,77.51,62.36,67.46,64.78z"/>
					</g>
					<g>

							<linearGradient id="SVGID_31_" gradientUnits="userSpaceOnUse" x1="2720.1123" y1="-246.7746" x2="2736.8828" y2="-201.3955" gradientTransform="matrix(-0.9521 0.3058 0.3058 0.9521 2724.9229 -589.3821)">
							<stop  offset="0" style="stop-color:#F78F30"/>
							<stop  offset="0.1971" style="stop-color:#F58A2F"/>
							<stop  offset="0.493" style="stop-color:#F07B2B"/>
							<stop  offset="0.8493" style="stop-color:#E96026"/>
							<stop  offset="1" style="stop-color:#E65225"/>
						</linearGradient>
						<path class="st30" d="M67.46,64.78c-19.24,4.63-29.87-7.5-35.65-20.67c-3.57-8.13-2.55-17.34,0.97-24.64
							c3.45-0.48,7.43,0.44,10.48,1.59c4.9,1.85,9.56,3.95,14.75,4.98c3.91,0.77,7.79,0.52,11.73,0.8c2.55,0.18,6.02,0.43,8.32,1.57
							l9.04,2.73c1.97,6.13-2.38,9.36-8.16,9.44c-2.41,0.03-4.7-0.34-7.07,0.31c-2.91,0.79-4.36,2.34-6.52,4.19
							c-4.02,3.44-7.94,5.59-13.06,2.88c-2.02-1.07-4.08-2.66-5.46-4.46c-1.78-2.33-1.17-4.94-1.93-7.54
							c-0.91-3.13-3.84-3.35-6.78-3.7c-1.49-0.18-2.75-0.35-3.86-0.34c-1.44,0.85-2.63,2.41-2.69,3.85
							c-0.1,2.64,3.09,4.23,3.18,6.85c0.09,2.71-0.88,4.55,0.45,7.14c1.17,2.29,2.8,3.91,5.1,5c2.14,1.01,5.03,1.51,6.94,3.02
							c1.85,1.46,2.23,3.87,4.51,4.97c5.69,2.75,10.89-1.28,16.42-1.68c1.18-0.08,2.26,0.3,3.42,0.5c1.8,0.31,2.71-0.11,4.44-0.85
							c2.78-1.18,5.1-2.81,7.55-4.43C79.61,60.13,74.31,63.13,67.46,64.78z"/>

							<linearGradient id="SVGID_32_" gradientUnits="userSpaceOnUse" x1="2698.6956" y1="-238.8597" x2="2715.4661" y2="-193.4807" gradientTransform="matrix(-0.9521 0.3058 0.3058 0.9521 2724.9229 -589.3821)">
							<stop  offset="0" style="stop-color:#F78F30"/>
							<stop  offset="0.1971" style="stop-color:#F58A2F"/>
							<stop  offset="0.493" style="stop-color:#F07B2B"/>
							<stop  offset="0.8493" style="stop-color:#E96026"/>
							<stop  offset="1" style="stop-color:#E65225"/>
						</linearGradient>
						<path class="st31" d="M83.09,27.11c-3.22-1.27-6.08-4.66-6.36-8.2c-0.23-3.04,2.23-5.1,4.13-7.14
							c0.19-0.2,0.38-0.41,0.57-0.62c2.05,1.84,4.18,4.04,6.03,6.52c-1.29,1.79-3.08,1.85-4.76,3.2
							C80.77,22.42,82.33,25.2,83.09,27.11z"/>
					</g>

						<linearGradient id="SVGID_33_" gradientUnits="userSpaceOnUse" x1="2719.1282" y1="-246.1282" x2="2742.0642" y2="-195.8167" gradientTransform="matrix(-0.9521 0.3058 0.3058 0.9521 2724.9229 -589.3821)">
						<stop  offset="0" style="stop-color:#FEEC7A"/>
						<stop  offset="0.1638" style="stop-color:#FDE776"/>
						<stop  offset="0.4097" style="stop-color:#FCD86D"/>
						<stop  offset="0.7056" style="stop-color:#FBC05D"/>
						<stop  offset="1" style="stop-color:#F9A34B"/>
					</linearGradient>
					<path class="st32" d="M85.16,11.83c1.71,2.36,2.08,4.89-0.39,7.26c-2.19,2.1-5.34,1.13-2.99,5.2c1.68,2.9,4.63,3.4,5.42,7.21
						c0.67,3.22-0.34,5.5-3.17,7.33c-6.69,4.33-11.64-4.92-16.85,1.43c-4.04,4.92-7.98,12.27-15.71,8.15
						c-3.22-1.71-4.95-4.86-5.08-8.49c-0.12-3.32,1.79-5.62-1.4-7.99c-5.03-3.74-12.03,1.64-14.94-6.56
						C26.59,15.62,42.48,4.26,50.2,2.19c6.93-1.85,14.58-1.94,21.37,0.55C74.43,3.8,82.03,7.52,85.16,11.83z"/>
					<g>

							<linearGradient id="SVGID_34_" gradientUnits="userSpaceOnUse" x1="2707.7146" y1="-240.9249" x2="2730.6506" y2="-190.6133" gradientTransform="matrix(-0.9521 0.3058 0.3058 0.9521 2724.9229 -589.3821)">
							<stop  offset="0" style="stop-color:#FAF28B"/>
							<stop  offset="0.2064" style="stop-color:#FAEA83"/>
							<stop  offset="0.5161" style="stop-color:#FBDC71"/>
							<stop  offset="0.8892" style="stop-color:#FCC452"/>
							<stop  offset="1" style="stop-color:#FDBC47"/>
						</linearGradient>
						<path class="st33" d="M74.31,36.93c0,0-2.8-0.65-5.07,0.33c-2.27,0.99-2.37,2.31-3.45,1.37
							C64.71,37.68,69.12,33.68,74.31,36.93z"/>

							<linearGradient id="SVGID_35_" gradientUnits="userSpaceOnUse" x1="2721.5527" y1="-247.2335" x2="2744.4888" y2="-196.9219" gradientTransform="matrix(-0.9521 0.3058 0.3058 0.9521 2724.9229 -589.3821)">
							<stop  offset="0" style="stop-color:#FAF28B"/>
							<stop  offset="0.2064" style="stop-color:#FAEA83"/>
							<stop  offset="0.5161" style="stop-color:#FBDC71"/>
							<stop  offset="0.8892" style="stop-color:#FCC452"/>
							<stop  offset="1" style="stop-color:#FDBC47"/>
						</linearGradient>
						<path class="st34" d="M57.77,44.32c2.09,1.66,3.46,4.33-2.85,4.02c-6.31-0.3-6.11-11.77-6.11-11.77
							C50.61,42.99,55.69,42.65,57.77,44.32z"/>

							<linearGradient id="SVGID_36_" gradientUnits="userSpaceOnUse" x1="2701.4329" y1="-238.0611" x2="2724.3689" y2="-187.7496" gradientTransform="matrix(-0.9521 0.3058 0.3058 0.9521 2724.9229 -589.3821)">
							<stop  offset="0" style="stop-color:#FAF28B"/>
							<stop  offset="0.2064" style="stop-color:#FAEA83"/>
							<stop  offset="0.5161" style="stop-color:#FBDC71"/>
							<stop  offset="0.8892" style="stop-color:#FCC452"/>
							<stop  offset="1" style="stop-color:#FDBC47"/>
						</linearGradient>
						<path class="st35" d="M84.19,17.7c-2.44,2.08-4.33-3.01-4.85-5.43c-0.52-2.42-4.3-6.13-4.3-6.13
							C83.81,10.05,86.63,15.62,84.19,17.7z"/>

							<linearGradient id="SVGID_37_" gradientUnits="userSpaceOnUse" x1="2695.864" y1="-235.5225" x2="2718.8003" y2="-185.211" gradientTransform="matrix(-0.9521 0.3058 0.3058 0.9521 2724.9229 -589.3821)">
							<stop  offset="0" style="stop-color:#FAF28B"/>
							<stop  offset="0.2064" style="stop-color:#FAEA83"/>
							<stop  offset="0.5161" style="stop-color:#FBDC71"/>
							<stop  offset="0.8892" style="stop-color:#FCC452"/>
							<stop  offset="1" style="stop-color:#FDBC47"/>
						</linearGradient>
						<path class="st36" d="M81.82,34.52c1.89-1.38,0.54-6.39,0.54-6.39c4.4,4.03,3.73,8.39,1.69,9.3S79.94,35.9,81.82,34.52z"/>

							<linearGradient id="SVGID_38_" gradientUnits="userSpaceOnUse" x1="2740.3284" y1="-255.793" x2="2763.2646" y2="-205.4814" gradientTransform="matrix(-0.9521 0.3058 0.3058 0.9521 2724.9229 -589.3821)">
							<stop  offset="0" style="stop-color:#FAF28B"/>
							<stop  offset="0.2064" style="stop-color:#FAEA83"/>
							<stop  offset="0.5161" style="stop-color:#FBDC71"/>
							<stop  offset="0.8892" style="stop-color:#FCC452"/>
							<stop  offset="1" style="stop-color:#FDBC47"/>
						</linearGradient>
						<path class="st37" d="M41.86,8.5c0,0-5.48,8.75-5.36,12.34c0.12,3.59-2.1,6.37-4.35,5.8C29.89,26.07,30.11,13.83,41.86,8.5z"
							/>

							<linearGradient id="SVGID_39_" gradientUnits="userSpaceOnUse" x1="2732.9993" y1="-252.4519" x2="2755.9355" y2="-202.1403" gradientTransform="matrix(-0.9521 0.3058 0.3058 0.9521 2724.9229 -589.3821)">
							<stop  offset="0" style="stop-color:#FAF28B"/>
							<stop  offset="0.2064" style="stop-color:#FAEA83"/>
							<stop  offset="0.5161" style="stop-color:#FBDC71"/>
							<stop  offset="0.8892" style="stop-color:#FCC452"/>
							<stop  offset="1" style="stop-color:#FDBC47"/>
						</linearGradient>
						<path class="st38" d="M46.3,30.39c0,0-4.12-1.53-6.22-1.63C37.98,28.66,42.92,26.29,46.3,30.39z"/>
					</g>

						<ellipse transform="matrix(0.9992 -0.0406 0.0406 0.9992 -0.3411 2.4246)" class="st39" cx="59.54" cy="9.61" rx="13.85" ry="7.78"/>
					<path class="st40" d="M47.4,9.62c0.15,3.52,5.69,6.16,12.38,5.88c6.69-0.27,12-3.35,11.85-6.87
						c-0.15-3.52-5.69-6.16-12.38-5.88C52.56,3.02,47.25,6.1,47.4,9.62z"/>
					<path class="st41" d="M50.46,8.72c0.11,2.63,4.26,4.61,9.26,4.4c5.01-0.2,8.98-2.51,8.87-5.14c-0.11-2.64-4.26-4.61-9.26-4.4
						C54.32,3.78,50.35,6.08,50.46,8.72z"/>
				</g>
			</g>
		</g>
	</g>
</g>
</svg>
