<?xml version="1.0" encoding="utf-8"?>
<!-- Generator: Adobe Illustrator 24.0.3, SVG Export Plug-In . SVG Version: 6.00 Build 0)  -->
<svg version="1.1" id="Layer_1" xmlns="http://www.w3.org/2000/svg" xmlns:xlink="http://www.w3.org/1999/xlink" x="0px" y="0px"
	 viewBox="0 0 150 126.1" style="enable-background:new 0 0 150 126.1;" xml:space="preserve">
<style type="text/css">
	.st0{opacity:0.5;fill:#AED136;}
	.st1{fill:url(#SVGID_1_);}
	.st2{fill:url(#SVGID_2_);}
	.st3{fill:url(#SVGID_3_);}
	.st4{fill:url(#SVGID_4_);}
	.st5{fill:url(#SVGID_5_);}
	.st6{fill:url(#SVGID_6_);}
	.st7{fill:url(#SVGID_7_);}
	.st8{fill:url(#SVGID_8_);}
	.st9{fill:url(#SVGID_9_);}
	.st10{fill:url(#SVGID_10_);}
	.st11{fill:url(#SVGID_11_);}
	.st12{fill:url(#SVGID_12_);}
	.st13{fill:url(#SVGID_13_);}
	.st14{fill:url(#SVGID_14_);}
	.st15{fill:url(#SVGID_15_);}
	.st16{fill:url(#SVGID_16_);}
	.st17{fill:url(#SVGID_17_);}
	.st18{fill:url(#SVGID_18_);}
	.st19{fill:url(#SVGID_19_);}
	.st20{fill:url(#SVGID_20_);}
	.st21{fill:url(#SVGID_21_);}
	.st22{fill:url(#SVGID_22_);}
	.st23{fill:url(#SVGID_23_);}
	.st24{fill:url(#SVGID_24_);}
	.st25{fill:url(#SVGID_25_);}
	.st26{fill:url(#SVGID_26_);}
	.st27{fill:url(#SVGID_27_);}
	.st28{fill:url(#SVGID_28_);}
	.st29{fill:url(#SVGID_29_);}
	.st30{fill:url(#SVGID_30_);}
	.st31{fill:url(#SVGID_31_);}
	.st32{fill:url(#SVGID_32_);}
	.st33{fill:url(#SVGID_33_);}
	.st34{fill:url(#SVGID_34_);}
	.st35{fill:url(#SVGID_35_);}
	.st36{fill:url(#SVGID_36_);}
	.st37{fill:url(#SVGID_37_);}
	.st38{fill:url(#SVGID_38_);}
	.st39{fill:url(#SVGID_39_);}
	.st40{fill:url(#SVGID_40_);}
	.st41{fill:url(#SVGID_41_);}
	.st42{fill:url(#SVGID_42_);}
	.st43{fill:url(#SVGID_43_);}
	.st44{fill:url(#SVGID_44_);}
	.st45{fill:url(#SVGID_45_);}
	.st46{fill:url(#SVGID_46_);}
	.st47{fill:url(#SVGID_47_);}
	.st48{fill:url(#SVGID_48_);}
	.st49{fill:url(#SVGID_49_);}
	.st50{fill:url(#SVGID_50_);}
	.st51{fill:url(#SVGID_51_);}
	.st52{fill:url(#SVGID_52_);}
	.st53{fill:url(#SVGID_53_);}
	.st54{fill:url(#SVGID_54_);}
	.st55{fill:url(#SVGID_55_);}
	.st56{fill:url(#SVGID_56_);}
	.st57{fill:url(#SVGID_57_);}
	.st58{fill:url(#SVGID_58_);}
	.st59{fill:url(#SVGID_59_);}
	.st60{fill:url(#SVGID_60_);}
	.st61{fill:url(#SVGID_61_);}
	.st62{fill:url(#SVGID_62_);}
	.st63{fill:url(#SVGID_63_);}
	.st64{fill:url(#SVGID_64_);}
	.st65{fill:url(#SVGID_65_);}
	.st66{fill:url(#SVGID_66_);}
	.st67{fill:url(#SVGID_67_);}
	.st68{fill:url(#SVGID_68_);}
	.st69{fill:url(#SVGID_69_);}
	.st70{fill:url(#SVGID_70_);}
	.st71{fill:url(#SVGID_71_);}
	.st72{fill:url(#SVGID_72_);}
	.st73{fill:url(#SVGID_73_);}
	.st74{fill:url(#SVGID_74_);}
	.st75{fill:url(#SVGID_75_);}
	.st76{fill:url(#SVGID_76_);}
	.st77{fill:url(#SVGID_77_);}
	.st78{fill:url(#SVGID_78_);}
	.st79{fill:url(#SVGID_79_);}
	.st80{fill:url(#SVGID_80_);}
	.st81{fill:url(#SVGID_81_);}
	.st82{fill:url(#SVGID_82_);}
	.st83{fill:url(#SVGID_83_);}
	.st84{fill:url(#SVGID_84_);}
	.st85{fill:url(#SVGID_85_);}
	.st86{fill:url(#SVGID_86_);}
	.st87{fill:url(#SVGID_87_);}
	.st88{fill:url(#SVGID_88_);}
	.st89{fill:url(#SVGID_89_);}
	.st90{fill:url(#SVGID_90_);}
	.st91{fill:url(#SVGID_91_);}
	.st92{fill:url(#SVGID_92_);}
	.st93{fill:url(#SVGID_93_);}
	.st94{fill:url(#SVGID_94_);}
	.st95{fill:url(#SVGID_95_);}
	.st96{fill:url(#SVGID_96_);}
	.st97{fill:url(#SVGID_97_);}
	.st98{fill:url(#SVGID_98_);}
	.st99{fill:url(#SVGID_99_);}
	.st100{fill:url(#SVGID_100_);}
	.st101{fill:url(#SVGID_101_);}
	.st102{fill:url(#SVGID_102_);}
	.st103{fill:url(#SVGID_103_);}
	.st104{fill:url(#SVGID_104_);}
</style>
<g>
	<path class="st0" d="M60.18,120.17c1.68,0,3.62,0.56,5.28,0.21c1.27-0.26,2.37-1.1,3.64-1.42c3.97-0.99,8.2,0.52,12.26,0.16
		c3.1-0.28,5.73-0.93,8.94-0.63c3,0.28,5.23-0.06,8.05-0.68c2.96-0.65,6.29,0.27,9.37-0.31c2.68-0.51,3.89-2.61,6.85-2.97
		c2.34-0.29,5.71,0.4,7.54-1.47c2.95-3.01-1.78-3.9-4.09-4.39c-2.53-0.53-4.37-2.05-7.06-2.53c-1.67-0.29-3.7,0.11-5.28-0.45
		c-1.26-0.45-1.96-1.15-3.36-1.42c-3.64-0.69-7.72-1.39-11.45-1.25c-3.09,0.11-5.48,0.82-8.42-0.05c-3.12-0.92-6.75-1.1-10.05-0.99
		c-2.9,0.09-5.44,0.98-8.21,0.41c-3.1-0.64-6.17-0.86-9.32-0.26c-1.42,0.27-2.8,0.67-4.02,0.62c-1.64-0.07-2.88-0.29-4.63,0.03
		c-1.51,0.28-3.11,0.92-4.6,1.07c-1.19,0.12-2.4-0.39-3.73-0.41c-2.82-0.05-5.46,0.95-8.19,0.84c-4.15-0.17-8.56,1.32-12.47,1.27
		c-0.53-0.01-1.06-0.01-1.59-0.01c-7.54,1.59-12,3.56-12,5.69c0,4.35,18.59,8.02,44.03,9.18l-0.18-0.22
		C51.82,120.39,55.91,120.18,60.18,120.17z"/>
	<path class="st0" d="M16.71,125.88c2.82,0.14,5.49,0.01,8.29,0c1.1,0,2.36,0.36,3.45,0.14c0.83-0.17,1.55-0.72,2.38-0.93
		c2.6-0.64,5.36,0.34,8.02,0.1c2.02-0.18,3.75-0.61,5.84-0.41c1.96,0.18,3.42-0.04,5.26-0.44c1.93-0.42,4.11,0.17,6.12-0.21
		c2.95-0.56,5.38-2.37,8.57-2.78c-2.53-0.83-6.9-0.93-9.78-1.2c-3.36-0.32-6.31-1.16-9.63-1.17c-3.73-0.01-7.22-0.57-10.79-1.56
		c-4-1.11-7.96-0.97-12-1.8c-7.28-1.5-15.04,0.25-22.44,0.63v8.23c4.65,0.71,10.4,1.25,16.83,1.55L16.71,125.88z"/>
	<g>
		<g>
			<g>
				<linearGradient id="SVGID_1_" gradientUnits="userSpaceOnUse" x1="53.503" y1="99.2559" x2="53.503" y2="49.5872">
					<stop  offset="0" style="stop-color:#0C5146"/>
					<stop  offset="0.1937" style="stop-color:#0C4D42"/>
					<stop  offset="0.4845" style="stop-color:#0B4338"/>
					<stop  offset="0.8346" style="stop-color:#063327"/>
					<stop  offset="1" style="stop-color:#022A1E"/>
				</linearGradient>
				<path class="st1" d="M76,51.83c-0.01-0.05-0.04-0.1-0.07-0.14c-0.06-0.08-6.43-7.92-15.18-7.92c-0.91,0-1.84,0.09-2.74,0.26
					c-5.21,0.98-9.55,3.28-12.92,6.85c-3.78,4.01-6.47,9.75-7.99,17.07c-1.45-5.61-2.38-11.09-2.84-16.69
					c-0.96-11.7,1.76-22.57,7.09-28.36c2.75-2.99,6.02-4.5,9.73-4.5c1.31,0,2.68,0.2,4.08,0.58c0.02,0.01,0.04,0.01,0.06,0.01
					l3.14,0.31c0.01,0,0.02,0,0.04,0c0.1,0,0.21-0.05,0.27-0.13c0.08-0.09,0.1-0.21,0.07-0.33l-0.63-2.2
					c-0.03-0.11-0.11-0.2-0.22-0.24c-0.09-0.03-2.27-0.82-5.49-0.82c-4.71,0-11.47,1.69-16.9,9.74
					c-8.63,12.79-4.36,32.79-1.54,46.03c0.19,0.89,0.37,1.75,0.55,2.58c0.53,2.54,1.15,5.21,1.75,7.79
					c2.6,11.19,5.3,22.76,2.05,29.01c-0.09,0.17-0.03,0.37,0.13,0.47c0.13,0.08,3.28,1.94,6.72,1.94c0.84,0,1.63-0.11,2.36-0.34
					c4.18-1.29,5.19-3.24,5.24-3.32c0.05-0.09,0.05-0.2,0.01-0.29c-0.04-0.11-4.43-10.75-7.22-17.89c-0.42-1.08-0.92-2.27-1.5-3.66
					c-0.97-2.33-2.08-4.96-3.22-8.02c-0.57-5.8-0.94-19.99,7.76-27.48c3.97-3.42,8.06-5.16,12.14-5.16c4.96,0,9.97,2.73,13.4,7.3
					c0.06,0.07,0.14,0.12,0.23,0.14l1.88,0.31c0.02,0,0.04,0,0.06,0c0.1,0,0.19-0.04,0.26-0.11c0.08-0.09,0.11-0.21,0.08-0.33
					L76,51.83z"/>
				<linearGradient id="SVGID_2_" gradientUnits="userSpaceOnUse" x1="53.4911" y1="99.0016" x2="53.4911" y2="49.6952">
					<stop  offset="0" style="stop-color:#0E7756"/>
					<stop  offset="0.1937" style="stop-color:#0F7252"/>
					<stop  offset="0.4845" style="stop-color:#0E6648"/>
					<stop  offset="0.8346" style="stop-color:#095338"/>
					<stop  offset="1" style="stop-color:#054930"/>
				</linearGradient>
				<path class="st2" d="M75.65,51.92c0,0-7.53-9.42-17.58-7.53c-9.16,1.72-17.81,7.88-20.92,25.16c-1.47-5.38-2.7-11.48-3.25-18.25
					c-1.57-19.15,6.59-36.73,21.34-32.65l3.14,0.31l-0.63-2.2c0,0-12.87-4.71-21.97,8.79s-3.77,34.84-0.94,48.34
					s7.85,29.19,3.77,37.04c0,0,4.71,2.83,8.79,1.57c4.08-1.26,5.02-3.14,5.02-3.14s-4.39-10.67-7.22-17.89
					c-1.13-2.88-2.91-6.82-4.74-11.72c-0.58-5.88-0.97-20.22,7.87-27.83c11.3-9.73,21.34-4.08,26.05,2.2l1.88,0.31L75.65,51.92z"/>
				<linearGradient id="SVGID_3_" gradientUnits="userSpaceOnUse" x1="45.204" y1="99.0016" x2="45.204" y2="49.6952">
					<stop  offset="0" style="stop-color:#10A074"/>
					<stop  offset="0.2758" style="stop-color:#0F986D"/>
					<stop  offset="0.6886" style="stop-color:#0B855B"/>
					<stop  offset="1" style="stop-color:#03734C"/>
				</linearGradient>
				<path class="st3" d="M47.09,110.3c2.51,0,3.45-1.73,3.45-1.73c-2.35-9.89-10.67-27.47-10.67-27.47
					C45.36,103.71,44.58,110.3,47.09,110.3z"/>
				<linearGradient id="SVGID_4_" gradientUnits="userSpaceOnUse" x1="56.7396" y1="99.0016" x2="56.7396" y2="49.6952">
					<stop  offset="0" style="stop-color:#10A074"/>
					<stop  offset="0.2758" style="stop-color:#0F986D"/>
					<stop  offset="0.6886" style="stop-color:#0B855B"/>
					<stop  offset="1" style="stop-color:#03734C"/>
				</linearGradient>
				<path class="st4" d="M44.73,53.17c0,0,10.83-11.46,24.01-5.81C68.75,47.37,57.76,38.42,44.73,53.17z"/>
				<linearGradient id="SVGID_5_" gradientUnits="userSpaceOnUse" x1="38.6907" y1="99.0016" x2="38.6907" y2="49.6952">
					<stop  offset="0" style="stop-color:#10A074"/>
					<stop  offset="0.2758" style="stop-color:#0F986D"/>
					<stop  offset="0.6886" style="stop-color:#0B855B"/>
					<stop  offset="1" style="stop-color:#03734C"/>
				</linearGradient>
				<polygon class="st5" points="38.46,73.58 39.55,64.63 37.83,70.28 				"/>
				<linearGradient id="SVGID_6_" gradientUnits="userSpaceOnUse" x1="36.8063" y1="99.0016" x2="36.8063" y2="49.6952">
					<stop  offset="0" style="stop-color:#10A074"/>
					<stop  offset="0.2758" style="stop-color:#0F986D"/>
					<stop  offset="0.6886" style="stop-color:#0B855B"/>
					<stop  offset="1" style="stop-color:#03734C"/>
				</linearGradient>
				<path class="st6" d="M32.33,40.93c0,0,0.47-11.61,8.95-19.93C41.28,21,32.18,25.39,32.33,40.93z"/>
			</g>
			<g>
				<g>
					<linearGradient id="SVGID_7_" gradientUnits="userSpaceOnUse" x1="60.2948" y1="16.1025" x2="88.9747" y2="23.824">
						<stop  offset="0" style="stop-color:#0A5D3A"/>
						<stop  offset="0.1786" style="stop-color:#0B5839"/>
						<stop  offset="0.4467" style="stop-color:#0C4C35"/>
						<stop  offset="0.7694" style="stop-color:#08392E"/>
						<stop  offset="1" style="stop-color:#022926"/>
					</linearGradient>
					<path class="st7" d="M63.68,34.95c1.14,0,2.34-0.06,3.58-0.18c0.86-0.08,1.74-0.19,2.6-0.33l0.1-0.02
						c0.19-0.03,0.39-0.06,0.58-0.1l0.14-0.03c0.19-0.03,0.38-0.07,0.57-0.11c0,0,0.04-0.01,0.04-0.01
						c0.42-0.08,0.84-0.17,1.25-0.26c0,0,0.04-0.01,0.04-0.01c0.16-0.04,0.33-0.08,0.49-0.11l0.25-0.06
						c0.15-0.04,0.3-0.07,0.45-0.11l0.29-0.08c0.14-0.04,0.28-0.07,0.41-0.11l0.31-0.09c0.22-0.06,0.43-0.13,0.64-0.19
						c0,0,0.28-0.09,0.38-0.12c0.08-0.03,0.33-0.11,0.33-0.11c0.12-0.04,0.24-0.08,0.36-0.12c0.11-0.04,0.21-0.07,0.32-0.11
						c0.13-0.05,0.25-0.09,0.38-0.14l0.28-0.11c0.17-0.07,0.33-0.13,0.5-0.2l0.21-0.09c0.19-0.08,0.37-0.16,0.55-0.24l0.22-0.1
						c0.13-0.06,0.27-0.13,0.4-0.19c0.08-0.04,0.15-0.08,0.23-0.11c0.13-0.07,0.26-0.13,0.39-0.2l0.2-0.11
						c0.18-0.1,0.36-0.2,0.53-0.3c0,0,0.03-0.02,0.03-0.02c0.18-0.11,0.36-0.22,0.53-0.33l0.16-0.11c0.12-0.08,0.23-0.16,0.35-0.24
						l0.17-0.12c0.11-0.08,0.22-0.17,0.33-0.25l0.14-0.11c0.15-0.12,0.3-0.25,0.43-0.38c4.76-4.42,8.92-9.02,7.1-12.66
						C88.26,13.3,78.27,2.47,72.48,0.54C71.41,0.18,70.4,0,69.47,0c-2.59,0-3.99,1.35-4.24,2.7c-0.21,1.16,0.43,2.21,1.63,2.66
						c0.43,0.16,0.9,0.24,1.42,0.24c0.7,0,1.39-0.14,2.12-0.29C71.14,5.15,71.9,5,72.68,5c1.32,0,2.48,0.46,3.65,1.46
						c3.75,3.18,3.75,4.39,3.14,9.58c-0.34,2.88-0.87,4.81-1.26,5.94c-1.37-1.69-3.92-4.99-5.21-7.78c-2-4.34-6.53-4.81-8.38-4.81
						c-0.8,0-1.58,0.08-2.33,0.23c-2.03,0.41-3.81,1.58-4.87,3.22c-0.78,1.21-1.14,2.61-1.04,4.1c-0.05,0-0.1,0-0.15,0
						c-1.71,0-4.37,0.8-7.34,4.62c-1.9,2.44-1.68,4.57-1.17,5.93c1.43,3.73,6.77,6.26,11.44,7.11
						C60.5,34.83,62.02,34.95,63.68,34.95z"/>
					<g>
						<linearGradient id="SVGID_8_" gradientUnits="userSpaceOnUse" x1="61.7772" y1="16.5027" x2="78.0997" y2="20.8972">
							<stop  offset="0" style="stop-color:#16A572"/>
							<stop  offset="0.3364" style="stop-color:#129F71"/>
							<stop  offset="0.8403" style="stop-color:#069170"/>
							<stop  offset="1" style="stop-color:#018B6F"/>
						</linearGradient>
						<path class="st8" d="M57.45,18.02c0,0-3.45-1.57-7.85,4.08s2.83,10.36,9.73,11.61c6.91,1.26,18.52-0.94,22.91-5.02
							c4.39-4.08,8.48-8.48,6.91-11.61S77.85,3.26,72.2,1.38s-7.53,2.2-5.02,3.14c2.51,0.94,5.65-2.2,9.73,1.26
							s4.08,5.02,3.45,10.36c-0.63,5.34-1.88,7.53-1.88,7.53s-4.39-5.02-6.28-9.1s-6.59-4.71-9.73-4.08
							C59.33,11.11,56.5,13.94,57.45,18.02z"/>
						<linearGradient id="SVGID_9_" gradientUnits="userSpaceOnUse" x1="61.9003" y1="16.0453" x2="78.2228" y2="20.4398">
							<stop  offset="0" style="stop-color:#129465"/>
							<stop  offset="0.3731" style="stop-color:#0F8E65"/>
							<stop  offset="0.932" style="stop-color:#087D63"/>
							<stop  offset="1" style="stop-color:#077A63"/>
						</linearGradient>
						<path class="st9" d="M63.97,34.06c6.64-0.06,14.76-2.11,18.27-5.37c4.39-4.08,8.48-8.48,6.91-11.61S77.85,3.26,72.2,1.38
							s-7.53,2.2-5.02,3.14c2.51,0.94,5.65-2.2,9.73,1.26s4.08,5.02,3.45,10.36c-0.63,5.34-1.88,7.53-1.88,7.53
							C76.62,31.11,68.2,33.38,63.97,34.06z"/>
					</g>
					<g>
						<linearGradient id="SVGID_10_" gradientUnits="userSpaceOnUse" x1="61.7628" y1="16.5562" x2="78.0853" y2="20.9507">
							<stop  offset="0" style="stop-color:#2BB780"/>
							<stop  offset="0.3907" style="stop-color:#26B080"/>
							<stop  offset="0.9759" style="stop-color:#01A383"/>
							<stop  offset="1" style="stop-color:#00A383"/>
						</linearGradient>
						<path class="st10" d="M67.96,17.86c0,0-1.41-0.16-1.88-0.94C65.61,16.13,62,14.88,62,14.88s-1.41,0.63-2.04,2.04l2.51,1.57
							L67.96,17.86z"/>
						<linearGradient id="SVGID_11_" gradientUnits="userSpaceOnUse" x1="60.292" y1="22.0191" x2="76.6145" y2="26.4136">
							<stop  offset="0" style="stop-color:#2BB780"/>
							<stop  offset="0.3907" style="stop-color:#26B080"/>
							<stop  offset="0.9759" style="stop-color:#01A383"/>
							<stop  offset="1" style="stop-color:#00A383"/>
						</linearGradient>
						<path class="st11" d="M74.55,26.33c0,0-0.78-2.2-2.67-0.94L74.55,26.33z"/>
						<linearGradient id="SVGID_12_" gradientUnits="userSpaceOnUse" x1="60.8902" y1="19.7971" x2="77.2127" y2="24.1917">
							<stop  offset="0" style="stop-color:#2BB780"/>
							<stop  offset="0.3907" style="stop-color:#26B080"/>
							<stop  offset="0.9759" style="stop-color:#01A383"/>
							<stop  offset="1" style="stop-color:#00A383"/>
						</linearGradient>
						<path class="st12" d="M69.06,23.35l3.14-1.26c0,0-0.94-0.47-1.41-0.94s-4.39,0-4.39,0L69.06,23.35z"/>
						<linearGradient id="SVGID_13_" gradientUnits="userSpaceOnUse" x1="59.4943" y1="24.982" x2="75.8168" y2="29.3765">
							<stop  offset="0" style="stop-color:#2BB780"/>
							<stop  offset="0.3907" style="stop-color:#26B080"/>
							<stop  offset="0.9759" style="stop-color:#01A383"/>
							<stop  offset="1" style="stop-color:#00A383"/>
						</linearGradient>
						<path class="st13" d="M63.88,22.88c-1.26,1.73-0.16,5.81-0.16,5.81s1.73,0.94,2.51,1.1c0.78,0.16,1.26,0.63,1.26,0.63
							l-0.63-5.34L63.88,22.88z"/>
						<linearGradient id="SVGID_14_" gradientUnits="userSpaceOnUse" x1="59.4784" y1="25.0412" x2="75.8009" y2="29.4357">
							<stop  offset="0" style="stop-color:#2BB780"/>
							<stop  offset="0.3907" style="stop-color:#26B080"/>
							<stop  offset="0.9759" style="stop-color:#01A383"/>
							<stop  offset="1" style="stop-color:#00A383"/>
						</linearGradient>
						<path class="st14" d="M72.98,28.69l-2.51-1.26C70.63,29.63,72.98,28.69,72.98,28.69z"/>
						<linearGradient id="SVGID_15_" gradientUnits="userSpaceOnUse" x1="59.6175" y1="24.5246" x2="75.94" y2="28.9191">
							<stop  offset="0" style="stop-color:#2BB780"/>
							<stop  offset="0.3907" style="stop-color:#26B080"/>
							<stop  offset="0.9759" style="stop-color:#01A383"/>
							<stop  offset="1" style="stop-color:#00A383"/>
						</linearGradient>
						<path class="st15" d="M60.74,29.47c-0.31-2.35,0.31-7.85,0.16-8.63c-0.16-0.78-2.98-1.41-2.98-1.41
							c-2.98,2.83-1.88,7.06-1.88,7.06s2.04,1.26,3.3,1.57C60.58,28.38,60.74,29.47,60.74,29.47z"/>
						<linearGradient id="SVGID_16_" gradientUnits="userSpaceOnUse" x1="62.4015" y1="14.1838" x2="78.724" y2="18.5783">
							<stop  offset="0" style="stop-color:#2BB780"/>
							<stop  offset="0.3907" style="stop-color:#26B080"/>
							<stop  offset="0.9759" style="stop-color:#01A383"/>
							<stop  offset="1" style="stop-color:#00A383"/>
						</linearGradient>
						<path class="st16" d="M85.38,17.55v5.65C87.42,20.21,85.38,17.55,85.38,17.55z"/>
						<linearGradient id="SVGID_17_" gradientUnits="userSpaceOnUse" x1="62.4015" y1="14.1838" x2="78.724" y2="18.5783">
							<stop  offset="0" style="stop-color:#10AB75"/>
							<stop  offset="0.3184" style="stop-color:#0DA674"/>
							<stop  offset="0.7951" style="stop-color:#079874"/>
							<stop  offset="1" style="stop-color:#059174"/>
						</linearGradient>
						<path class="st17" d="M85.38,17.55v5.65C87.42,20.21,85.38,17.55,85.38,17.55z"/>
					</g>
					<g>
						<linearGradient id="SVGID_18_" gradientUnits="userSpaceOnUse" x1="61.7628" y1="16.5562" x2="78.0853" y2="20.9507">
							<stop  offset="0" style="stop-color:#4CBD99"/>
							<stop  offset="0.3907" style="stop-color:#42BB94"/>
							<stop  offset="0.9759" style="stop-color:#15B688"/>
							<stop  offset="1" style="stop-color:#11B687"/>
						</linearGradient>
						<path class="st18" d="M67.96,17.86c0,0-1.41-0.16-1.88-0.94C65.61,16.13,62,14.88,62,14.88s-0.94,0.42-1.62,1.33
							c1-0.83,2.37-1.14,3.54-0.12c1.45,1.26-0.19,1.87-1.49,2.37l0.05,0.03L67.96,17.86z"/>
						<linearGradient id="SVGID_19_" gradientUnits="userSpaceOnUse" x1="60.9444" y1="19.5961" x2="77.2669" y2="23.9906">
							<stop  offset="0" style="stop-color:#4CBD99"/>
							<stop  offset="0.3907" style="stop-color:#42BB94"/>
							<stop  offset="0.9759" style="stop-color:#15B688"/>
							<stop  offset="1" style="stop-color:#11B687"/>
						</linearGradient>
						<path class="st19" d="M70.79,21.16c-0.42-0.42-3.64-0.09-4.28-0.01c2.06,0.08,5.1-0.07,3.2,1.95l2.49-1
							C72.2,22.1,71.26,21.63,70.79,21.16z"/>
						<linearGradient id="SVGID_20_" gradientUnits="userSpaceOnUse" x1="59.8515" y1="23.6554" x2="76.174" y2="28.0499">
							<stop  offset="0" style="stop-color:#4CBD99"/>
							<stop  offset="0.3907" style="stop-color:#42BB94"/>
							<stop  offset="0.9759" style="stop-color:#15B688"/>
							<stop  offset="1" style="stop-color:#11B687"/>
						</linearGradient>
						<path class="st20" d="M64.75,24.76c0.93,0,1.79,1.29,2.37,2.5l-0.26-2.18l-2.98-2.2c-0.63,0.87-0.67,2.33-0.55,3.57
							C63.58,25.52,63.99,24.76,64.75,24.76z"/>
						<linearGradient id="SVGID_21_" gradientUnits="userSpaceOnUse" x1="58.7356" y1="27.8002" x2="75.0581" y2="32.1947">
							<stop  offset="0" style="stop-color:#4CBD99"/>
							<stop  offset="0.3907" style="stop-color:#42BB94"/>
							<stop  offset="0.9759" style="stop-color:#15B688"/>
							<stop  offset="1" style="stop-color:#11B687"/>
						</linearGradient>
						<path class="st21" d="M67.43,29.88c-0.11,0.09-0.22,0.16-0.35,0.23c0.26,0.16,0.41,0.3,0.41,0.3L67.43,29.88z"/>
						<linearGradient id="SVGID_22_" gradientUnits="userSpaceOnUse" x1="59.9449" y1="23.3083" x2="76.2674" y2="27.7029">
							<stop  offset="0" style="stop-color:#4CBD99"/>
							<stop  offset="0.3907" style="stop-color:#42BB94"/>
							<stop  offset="0.9759" style="stop-color:#15B688"/>
							<stop  offset="1" style="stop-color:#11B687"/>
						</linearGradient>
						<path class="st22" d="M60.9,20.84c-0.16-0.78-2.98-1.41-2.98-1.41c-1.77,1.67-2.1,3.84-2.08,5.33
							c0.57-2.09,2.52-6.54,4.12-2.59c0.62,1.51,0.43,3.24,0.71,4.67C60.72,24.34,61.01,21.4,60.9,20.84z"/>
					</g>
					<g>
						<linearGradient id="SVGID_23_" gradientUnits="userSpaceOnUse" x1="58.6357" y1="28.1712" x2="74.9582" y2="32.5657">
							<stop  offset="0" style="stop-color:#109564"/>
							<stop  offset="0.365" style="stop-color:#0D8F64"/>
							<stop  offset="0.9117" style="stop-color:#067E64"/>
							<stop  offset="1" style="stop-color:#057B64"/>
						</linearGradient>
						<path class="st23" d="M74.54,32.5c0.05-0.02,0.11-0.03,0.17-0.05c0,0,0,0,0,0C74.65,32.47,74.6,32.48,74.54,32.5z"/>
						<linearGradient id="SVGID_24_" gradientUnits="userSpaceOnUse" x1="57.9046" y1="30.8865" x2="74.2271" y2="35.2811">
							<stop  offset="0" style="stop-color:#109564"/>
							<stop  offset="0.365" style="stop-color:#0D8F64"/>
							<stop  offset="0.9117" style="stop-color:#067E64"/>
							<stop  offset="1" style="stop-color:#057B64"/>
						</linearGradient>
						<path class="st24" d="M69.73,33.57c-0.85,0.13-1.7,0.24-2.55,0.32C68.03,33.81,68.88,33.7,69.73,33.57z"/>
						<linearGradient id="SVGID_25_" gradientUnits="userSpaceOnUse" x1="58.6859" y1="27.9847" x2="75.0084" y2="32.3793">
							<stop  offset="0" style="stop-color:#109564"/>
							<stop  offset="0.365" style="stop-color:#0D8F64"/>
							<stop  offset="0.9117" style="stop-color:#067E64"/>
							<stop  offset="1" style="stop-color:#057B64"/>
						</linearGradient>
						<path class="st25" d="M74.79,32.43C74.79,32.43,74.79,32.43,74.79,32.43c0.13-0.04,0.25-0.08,0.38-0.12
							C75.04,32.35,74.92,32.39,74.79,32.43z"/>
						<linearGradient id="SVGID_26_" gradientUnits="userSpaceOnUse" x1="57.5294" y1="32.2801" x2="73.852" y2="36.6746">
							<stop  offset="0" style="stop-color:#109564"/>
							<stop  offset="0.365" style="stop-color:#0D8F64"/>
							<stop  offset="0.9117" style="stop-color:#067E64"/>
							<stop  offset="1" style="stop-color:#057B64"/>
						</linearGradient>
						<path class="st26" d="M64.29,34.05c-0.11,0-0.21,0.01-0.32,0.01C64.08,34.06,64.18,34.06,64.29,34.05z"/>
						<linearGradient id="SVGID_27_" gradientUnits="userSpaceOnUse" x1="57.679" y1="31.7244" x2="74.0015" y2="36.119">
							<stop  offset="0" style="stop-color:#109564"/>
							<stop  offset="0.365" style="stop-color:#0D8F64"/>
							<stop  offset="0.9117" style="stop-color:#067E64"/>
							<stop  offset="1" style="stop-color:#057B64"/>
						</linearGradient>
						<path class="st27" d="M66.21,33.97c-0.11,0.01-0.21,0.01-0.32,0.02C66,33.98,66.11,33.98,66.21,33.97z"/>
						<linearGradient id="SVGID_28_" gradientUnits="userSpaceOnUse" x1="60.4507" y1="21.4297" x2="76.7732" y2="25.8242">
							<stop  offset="0" style="stop-color:#109564"/>
							<stop  offset="0.365" style="stop-color:#0D8F64"/>
							<stop  offset="0.9117" style="stop-color:#067E64"/>
							<stop  offset="1" style="stop-color:#057B64"/>
						</linearGradient>
						<path class="st28" d="M49.6,22.1c-4.39,5.65,2.83,10.36,9.73,11.61c1.39,0.25,2.97,0.36,4.64,0.35
							c4.23-0.68,12.64-2.95,14.51-10.39c0,0-4.39-5.02-6.28-9.1s-6.59-4.71-9.73-4.08c-2.53,0.51-4.86,2.44-5.17,5.31
							c0.35-0.47,0.85-0.85,1.36-1.11c0.37-0.19,0.96-0.03,1.3-0.27c0.47-0.33,0.38-0.9,0.74-1.26c2.08-2.11,3.05-0.06,5.22-0.15
							c1.11-0.05,2.08-0.65,3.14,0.23c1.31,1.07,0.16,1.67,0.46,2.75c0.31,1.11,1.41,1.08,2.29,1.55c-0.38,0.31-0.77,0.63-1.13,0.98
							c0.64,0.01,1.44,0.14,2.25,0.35c0.12,0.51,0.05,1.04,0.36,1.69c0.56,1.16,1.53,0.84,2.44,1.18c-0.28,0.36-0.59,0.72-0.81,1.14
							c0.76,0.06,1.6,0.15,2.38,0.35c0.04,0.07,0.08,0.14,0.11,0.21c-0.13,0.57-0.22,1.17-0.39,1.78c-0.39,1.44-1.72,3.4-2.75,4.46
							c-0.84,0.86-2.05,1.33-3.16,1.91c-0.9-0.68-1.8-1.59-1.9-2.52c-0.14,1.17-0.67,2.32-1.01,3.44c-0.79-0.06-1.61-0.27-2.6-0.19
							c-0.35,0.03-0.7,0.1-1.04,0.18c-1-0.94-2.07-2.15-2.1-3.28c-0.34,1.14-0.56,2.32-0.89,3.5c-0.28-0.1-0.56-0.25-0.84-0.49
							c-0.56-0.45-0.69-1.22-1.28-1.61c-0.93-0.61-1.93-0.25-2.91-0.2c-0.83-0.89-1.58-1.86-2.2-2.81
							c-0.09,0.84-0.19,1.66-0.36,2.49c-0.08-0.04-0.17-0.09-0.24-0.14c-1.14-0.79-0.63-1.48-1-2.59c-0.63-1.9-3.71-1.4-3.77-3.37
							c-0.07-2.05,2.77-1.8,3.73-2.98c0.81-1,0.77-1.95,1.33-2.68C52.78,18.87,51.25,19.97,49.6,22.1z"/>
						<linearGradient id="SVGID_29_" gradientUnits="userSpaceOnUse" x1="57.6007" y1="32.0153" x2="73.9232" y2="36.4098">
							<stop  offset="0" style="stop-color:#109564"/>
							<stop  offset="0.365" style="stop-color:#0D8F64"/>
							<stop  offset="0.9117" style="stop-color:#067E64"/>
							<stop  offset="1" style="stop-color:#057B64"/>
						</linearGradient>
						<path class="st29" d="M65.27,34.02c-0.12,0.01-0.24,0.01-0.36,0.02C65.03,34.03,65.15,34.03,65.27,34.02z"/>
						<linearGradient id="SVGID_30_" gradientUnits="userSpaceOnUse" x1="59.0418" y1="26.6626" x2="75.3644" y2="31.0571">
							<stop  offset="0" style="stop-color:#028559"/>
							<stop  offset="0.3501" style="stop-color:#037F59"/>
							<stop  offset="0.8743" style="stop-color:#017057"/>
							<stop  offset="1" style="stop-color:#016B56"/>
						</linearGradient>
						<path class="st30" d="M77.17,31.62c0.07-0.03,0.15-0.06,0.22-0.09c0,0,0,0,0,0C77.32,31.56,77.24,31.59,77.17,31.62z"/>
						<linearGradient id="SVGID_31_" gradientUnits="userSpaceOnUse" x1="61.9003" y1="16.0453" x2="78.2228" y2="20.4398">
							<stop  offset="0" style="stop-color:#109564"/>
							<stop  offset="0.365" style="stop-color:#0D8F64"/>
							<stop  offset="0.9117" style="stop-color:#067E64"/>
							<stop  offset="1" style="stop-color:#057B64"/>
						</linearGradient>
						<path class="st31" d="M89.15,17.08C87.58,13.94,77.85,3.26,72.2,1.38s-7.53,2.2-5.02,3.14c2.51,0.94,5.65-2.2,9.73,1.26
							s4.08,5.02,3.45,10.36c-0.63,5.34-1.88,7.53-1.88,7.53c-1.86,7.45-10.28,9.72-14.51,10.39c0,0,0,0,0,0
							c0.11,0,0.21,0,0.32-0.01c0.2,0,0.41-0.01,0.62-0.02c0.12,0,0.24-0.01,0.36-0.02c0.21-0.01,0.42-0.02,0.63-0.03
							c0.11-0.01,0.21-0.01,0.32-0.02c0.31-0.02,0.63-0.05,0.95-0.08c0.01,0,0.01,0,0.02,0c0.85-0.08,1.7-0.19,2.55-0.32
							c0.03,0,0.06-0.01,0.09-0.01c0.19-0.03,0.38-0.06,0.57-0.1c0.05-0.01,0.09-0.02,0.14-0.02c0.19-0.03,0.38-0.07,0.56-0.1
							c0.01,0,0.02,0,0.04-0.01c0.41-0.08,0.82-0.16,1.22-0.26c0.01,0,0.03-0.01,0.04-0.01c0.16-0.04,0.32-0.07,0.48-0.11
							c0.08-0.02,0.16-0.04,0.24-0.06c0.15-0.04,0.29-0.07,0.44-0.11c0.09-0.02,0.19-0.05,0.28-0.07c0.14-0.04,0.27-0.07,0.41-0.11
							c0.1-0.03,0.2-0.06,0.3-0.09c0.06-0.02,0.11-0.03,0.17-0.05c0.05-0.06,0.1-0.11,0.15-0.17c-0.02,0.05-0.04,0.09-0.07,0.14
							c0.13-0.04,0.25-0.08,0.38-0.12c0.12-0.04,0.25-0.08,0.37-0.12c0.11-0.04,0.22-0.07,0.32-0.11c0.12-0.04,0.24-0.08,0.35-0.12
							c0.1-0.04,0.21-0.07,0.31-0.11c0.12-0.04,0.25-0.09,0.37-0.14c0.09-0.03,0.18-0.07,0.28-0.1c0.07-0.03,0.15-0.06,0.22-0.09
							c-0.16-1.1,1.6-1.95,1.87-3.15c0.26-1.15-0.34-1.77,0.27-2.86c0.42-0.75,1.53-1.34,1.73-2.2c0.26-1.08-0.64-1.62-0.4-2.63
							c0.22-0.91,1.29-1.55,1.49-2.52c0.24-1.17-0.46-1.77-0.63-2.82c-0.21-1.24,0.82-1.7,0.83-2.67c0-0.94-1.01-1.16-1.11-2.04
							c-0.03-0.32,0.05-0.62,0.2-0.9c0.71,0.52,0.98,0.87,1.59,1.54c0.44,0.49,0.97,0.46,1.39,1.05c0.3,0.43,0.2,0.94,0.43,1.29
							c0.48,0.73,1.34,1.15,1.89,2.04c0.19,0.31-0.14,0.73,0.14,1.07c0.16,0.19,0.51,0.12,0.67,0.31c0.57,0.65,0.92,0.21,1.06,1.22
							c0.14,0.97-0.96,2.39-1.1,3.06c-0.12,0.54-0.12,1.15-0.21,1.78C89.17,20.88,90.01,18.79,89.15,17.08z"/>
						<linearGradient id="SVGID_32_" gradientUnits="userSpaceOnUse" x1="61.9003" y1="16.0453" x2="78.2228" y2="20.4398">
							<stop  offset="0" style="stop-color:#028559"/>
							<stop  offset="0.3501" style="stop-color:#037F59"/>
							<stop  offset="0.8743" style="stop-color:#017057"/>
							<stop  offset="1" style="stop-color:#016B56"/>
						</linearGradient>
						<path class="st32" d="M89.15,17.08C87.58,13.94,77.85,3.26,72.2,1.38s-7.53,2.2-5.02,3.14c2.51,0.94,5.65-2.2,9.73,1.26
							s4.08,5.02,3.45,10.36c-0.63,5.34-1.88,7.53-1.88,7.53c-1.86,7.45-10.28,9.72-14.51,10.39c0,0,0,0,0,0
							c0.11,0,0.21,0,0.32-0.01c0.2,0,0.41-0.01,0.62-0.02c0.12,0,0.24-0.01,0.36-0.02c0.21-0.01,0.42-0.02,0.63-0.03
							c0.11-0.01,0.21-0.01,0.32-0.02c0.31-0.02,0.63-0.05,0.95-0.08c0.01,0,0.01,0,0.02,0c0.85-0.08,1.7-0.19,2.55-0.32
							c0.03,0,0.06-0.01,0.09-0.01c0.19-0.03,0.38-0.06,0.57-0.1c0.05-0.01,0.09-0.02,0.14-0.02c0.19-0.03,0.38-0.07,0.56-0.1
							c0.01,0,0.02,0,0.04-0.01c0.41-0.08,0.82-0.16,1.22-0.26c0.01,0,0.03-0.01,0.04-0.01c0.16-0.04,0.32-0.07,0.48-0.11
							c0.08-0.02,0.16-0.04,0.24-0.06c0.15-0.04,0.29-0.07,0.44-0.11c0.09-0.02,0.19-0.05,0.28-0.07c0.14-0.04,0.27-0.07,0.41-0.11
							c0.1-0.03,0.2-0.06,0.3-0.09c0.06-0.02,0.11-0.03,0.17-0.05c0.05-0.06,0.1-0.11,0.15-0.17c-0.02,0.05-0.04,0.09-0.07,0.14
							c0.13-0.04,0.25-0.08,0.38-0.12c0.12-0.04,0.25-0.08,0.37-0.12c0.11-0.04,0.22-0.07,0.32-0.11c0.12-0.04,0.24-0.08,0.35-0.12
							c0.1-0.04,0.21-0.07,0.31-0.11c0.12-0.04,0.25-0.09,0.37-0.14c0.09-0.03,0.18-0.07,0.28-0.1c0.07-0.03,0.15-0.06,0.22-0.09
							c-0.16-1.1,1.6-1.95,1.87-3.15c0.26-1.15-0.34-1.77,0.27-2.86c0.42-0.75,1.53-1.34,1.73-2.2c0.26-1.08-0.64-1.62-0.4-2.63
							c0.22-0.91,1.29-1.55,1.49-2.52c0.24-1.17-0.46-1.77-0.63-2.82c-0.21-1.24,0.82-1.7,0.83-2.67c0-0.94-1.01-1.16-1.11-2.04
							c-0.03-0.32,0.05-0.62,0.2-0.9c0.71,0.52,0.98,0.87,1.59,1.54c0.44,0.49,0.97,0.46,1.39,1.05c0.3,0.43,0.2,0.94,0.43,1.29
							c0.48,0.73,1.34,1.15,1.89,2.04c0.19,0.31-0.14,0.73,0.14,1.07c0.16,0.19,0.51,0.12,0.67,0.31c0.57,0.65,0.92,0.21,1.06,1.22
							c0.14,0.97-0.96,2.39-1.1,3.06c-0.12,0.54-0.12,1.15-0.21,1.78C89.17,20.88,90.01,18.79,89.15,17.08z"/>
						<linearGradient id="SVGID_33_" gradientUnits="userSpaceOnUse" x1="57.6403" y1="31.8684" x2="73.9628" y2="36.2629">
							<stop  offset="0" style="stop-color:#109564"/>
							<stop  offset="0.365" style="stop-color:#0D8F64"/>
							<stop  offset="0.9117" style="stop-color:#067E64"/>
							<stop  offset="1" style="stop-color:#057B64"/>
						</linearGradient>
						<path class="st33" d="M65.89,33.99c-0.21,0.01-0.42,0.02-0.63,0.03C65.48,34.01,65.68,34,65.89,33.99z"/>
						<linearGradient id="SVGID_34_" gradientUnits="userSpaceOnUse" x1="57.6403" y1="31.8684" x2="73.9628" y2="36.2629">
							<stop  offset="0" style="stop-color:#109564"/>
							<stop  offset="0.365" style="stop-color:#0D8F64"/>
							<stop  offset="0.9117" style="stop-color:#067E64"/>
							<stop  offset="1" style="stop-color:#057B64"/>
						</linearGradient>
						<path class="st34" d="M65.89,33.99c-0.21,0.01-0.42,0.02-0.63,0.03C65.48,34.01,65.68,34,65.89,33.99z"/>
						<linearGradient id="SVGID_35_" gradientUnits="userSpaceOnUse" x1="57.6403" y1="31.8684" x2="73.9628" y2="36.2629">
							<stop  offset="0" style="stop-color:#028559"/>
							<stop  offset="0.3501" style="stop-color:#037F59"/>
							<stop  offset="0.8743" style="stop-color:#017057"/>
							<stop  offset="1" style="stop-color:#016B56"/>
						</linearGradient>
						<path class="st35" d="M65.89,33.99c-0.21,0.01-0.42,0.02-0.63,0.03C65.48,34.01,65.68,34,65.89,33.99z"/>
						<linearGradient id="SVGID_36_" gradientUnits="userSpaceOnUse" x1="57.5178" y1="32.3233" x2="65.2445" y2="34.4036">
							<stop  offset="0" style="stop-color:#109564"/>
							<stop  offset="0.365" style="stop-color:#0D8F64"/>
							<stop  offset="0.9117" style="stop-color:#067E64"/>
							<stop  offset="1" style="stop-color:#057B64"/>
						</linearGradient>
						<polygon class="st36" points="63.97,34.06 63.97,34.06 63.97,34.06 						"/>
						<linearGradient id="SVGID_37_" gradientUnits="userSpaceOnUse" x1="57.5178" y1="32.3233" x2="65.2445" y2="34.4036">
							<stop  offset="0" style="stop-color:#109564"/>
							<stop  offset="0.365" style="stop-color:#0D8F64"/>
							<stop  offset="0.9117" style="stop-color:#067E64"/>
							<stop  offset="1" style="stop-color:#057B64"/>
						</linearGradient>
						<polygon class="st37" points="63.97,34.06 63.97,34.06 63.97,34.06 						"/>
						<linearGradient id="SVGID_38_" gradientUnits="userSpaceOnUse" x1="57.5178" y1="32.3233" x2="65.2445" y2="34.4036">
							<stop  offset="0" style="stop-color:#028559"/>
							<stop  offset="0.3501" style="stop-color:#037F59"/>
							<stop  offset="0.8743" style="stop-color:#017057"/>
							<stop  offset="1" style="stop-color:#016B56"/>
						</linearGradient>
						<polygon class="st38" points="63.97,34.06 63.97,34.06 63.97,34.06 						"/>
						<linearGradient id="SVGID_39_" gradientUnits="userSpaceOnUse" x1="57.5638" y1="32.1524" x2="73.8863" y2="36.5469">
							<stop  offset="0" style="stop-color:#109564"/>
							<stop  offset="0.365" style="stop-color:#0D8F64"/>
							<stop  offset="0.9117" style="stop-color:#067E64"/>
							<stop  offset="1" style="stop-color:#057B64"/>
						</linearGradient>
						<path class="st39" d="M64.91,34.04c-0.21,0.01-0.41,0.01-0.62,0.02C64.5,34.05,64.7,34.05,64.91,34.04z"/>
						<linearGradient id="SVGID_40_" gradientUnits="userSpaceOnUse" x1="57.5638" y1="32.1524" x2="73.8863" y2="36.5469">
							<stop  offset="0" style="stop-color:#109564"/>
							<stop  offset="0.365" style="stop-color:#0D8F64"/>
							<stop  offset="0.9117" style="stop-color:#067E64"/>
							<stop  offset="1" style="stop-color:#057B64"/>
						</linearGradient>
						<path class="st40" d="M64.91,34.04c-0.21,0.01-0.41,0.01-0.62,0.02C64.5,34.05,64.7,34.05,64.91,34.04z"/>
						<linearGradient id="SVGID_41_" gradientUnits="userSpaceOnUse" x1="57.5638" y1="32.1524" x2="73.8863" y2="36.5469">
							<stop  offset="0" style="stop-color:#028559"/>
							<stop  offset="0.3501" style="stop-color:#037F59"/>
							<stop  offset="0.8743" style="stop-color:#017057"/>
							<stop  offset="1" style="stop-color:#016B56"/>
						</linearGradient>
						<path class="st41" d="M64.91,34.04c-0.21,0.01-0.41,0.01-0.62,0.02C64.5,34.05,64.7,34.05,64.91,34.04z"/>
						<linearGradient id="SVGID_42_" gradientUnits="userSpaceOnUse" x1="57.7341" y1="31.5201" x2="74.0566" y2="35.9146">
							<stop  offset="0" style="stop-color:#109564"/>
							<stop  offset="0.365" style="stop-color:#0D8F64"/>
							<stop  offset="0.9117" style="stop-color:#067E64"/>
							<stop  offset="1" style="stop-color:#057B64"/>
						</linearGradient>
						<path class="st42" d="M67.16,33.89c-0.32,0.03-0.63,0.05-0.95,0.08C66.53,33.95,66.84,33.92,67.16,33.89z"/>
						<linearGradient id="SVGID_43_" gradientUnits="userSpaceOnUse" x1="57.7341" y1="31.5201" x2="74.0566" y2="35.9146">
							<stop  offset="0" style="stop-color:#109564"/>
							<stop  offset="0.365" style="stop-color:#0D8F64"/>
							<stop  offset="0.9117" style="stop-color:#067E64"/>
							<stop  offset="1" style="stop-color:#057B64"/>
						</linearGradient>
						<path class="st43" d="M67.16,33.89c-0.32,0.03-0.63,0.05-0.95,0.08C66.53,33.95,66.84,33.92,67.16,33.89z"/>
						<linearGradient id="SVGID_44_" gradientUnits="userSpaceOnUse" x1="57.7341" y1="31.5201" x2="74.0566" y2="35.9146">
							<stop  offset="0" style="stop-color:#028559"/>
							<stop  offset="0.3501" style="stop-color:#037F59"/>
							<stop  offset="0.8743" style="stop-color:#017057"/>
							<stop  offset="1" style="stop-color:#016B56"/>
						</linearGradient>
						<path class="st44" d="M67.16,33.89c-0.32,0.03-0.63,0.05-0.95,0.08C66.53,33.95,66.84,33.92,67.16,33.89z"/>
					</g>
					<linearGradient id="SVGID_45_" gradientUnits="userSpaceOnUse" x1="58.3008" y1="29.4151" x2="74.6233" y2="33.8096">
						<stop  offset="0" style="stop-color:#088257"/>
						<stop  offset="0.3431" style="stop-color:#077D57"/>
						<stop  offset="0.8569" style="stop-color:#046E55"/>
						<stop  offset="1" style="stop-color:#036954"/>
					</linearGradient>
					<path class="st45" d="M69.97,32.42c-0.14,0.06-0.27,0.11-0.41,0.16C69.71,32.64,69.9,32.57,69.97,32.42z"/>
					<linearGradient id="SVGID_46_" gradientUnits="userSpaceOnUse" x1="58.3008" y1="29.4151" x2="74.6233" y2="33.8096">
						<stop  offset="0" style="stop-color:#08724C"/>
						<stop  offset="0.3128" style="stop-color:#076D4B"/>
						<stop  offset="0.7812" style="stop-color:#055F49"/>
						<stop  offset="1" style="stop-color:#035847"/>
					</linearGradient>
					<path class="st46" d="M69.97,32.42c-0.14,0.06-0.27,0.11-0.41,0.16C69.71,32.64,69.9,32.57,69.97,32.42z"/>
					<g>
						<linearGradient id="SVGID_47_" gradientUnits="userSpaceOnUse" x1="61.0727" y1="19.1193" x2="77.3953" y2="23.5138">
							<stop  offset="0" style="stop-color:#088257"/>
							<stop  offset="0.3431" style="stop-color:#077D57"/>
							<stop  offset="0.8569" style="stop-color:#046E55"/>
							<stop  offset="1" style="stop-color:#036954"/>
						</linearGradient>
						<path class="st47" d="M56.59,18.01c0.16-0.06,0.33-0.09,0.51-0.1c-0.21-0.05-0.52-0.1-0.9-0.09c0.01,0.01,0.02,0.03,0.03,0.04
							C56.31,17.96,56.45,18.06,56.59,18.01z"/>
						<linearGradient id="SVGID_48_" gradientUnits="userSpaceOnUse" x1="60.46" y1="21.3952" x2="76.7825" y2="25.7897">
							<stop  offset="0" style="stop-color:#088257"/>
							<stop  offset="0.3431" style="stop-color:#077D57"/>
							<stop  offset="0.8569" style="stop-color:#046E55"/>
							<stop  offset="1" style="stop-color:#036954"/>
						</linearGradient>
						<path class="st48" d="M62.81,21.82c0.06-0.32,0.09-0.88,0.23-1.27c0.85,0.62,1.67,1.27,2.47,1.9
							c1.02,0.79,2.04,1.62,3.09,2.39c-0.52,0.94-0.03,3.17,0.09,4.03c0.16,1.18,0.39,2.36,0.7,3.51c0.03,0.11,0.1,0.17,0.17,0.2
							c0.14-0.05,0.27-0.11,0.41-0.16c0.03-0.06,0.04-0.13,0.02-0.2c-0.2-0.76-0.36-1.54-0.5-2.32c-0.16-0.89-0.29-1.79-0.35-2.7
							c-0.02-0.35-0.19-1.69-0.05-2c2.06,1.47,4.24,2.71,6.79,3.16c0.04,0.01,0.08,0,0.11,0c0.09-0.11,0.18-0.22,0.27-0.33
							c0.01-0.13-0.06-0.25-0.22-0.28c-2.43-0.43-4.49-1.57-6.43-2.95c0.75-0.37,1.99-0.61,2.51-0.79c1.81-0.61,3.66-1.08,5.57-1.28
							c-0.14-0.17-0.3-0.36-0.47-0.57c-1.87,0.23-3.69,0.7-5.47,1.31c-0.59,0.2-1.96,0.47-2.7,0.92c-1.9-1.41-3.69-3.02-5.62-4.37
							c0.35-0.02,1.01-0.05,1.14-0.07c2.18-0.34,4.36-0.67,6.54-0.98c1.07-0.16,2.32-0.18,3.44-0.39c-0.15-0.22-0.3-0.44-0.44-0.66
							c-3.76,0.52-7.51,1.08-11.26,1.68c-0.01,0-0.02,0.01-0.03,0.01c-1.09-0.72-2.23-1.35-3.46-1.82c-0.34-0.13-0.7-0.25-1.06-0.34
							c1.31-3.21,3.83-6.79,7.63-6.88c0.34-0.01,1.32,0.24,2.13,0.28c-1.35-0.49-2.81-0.64-4.14-0.56
							c-2.02,0.69-3.58,2.32-4.72,4.07c-0.52,0.79-0.97,2.14-1.49,2.98c-0.14-0.02-0.27-0.03-0.41-0.03
							c0.03,0.23,0.07,0.47,0.13,0.71c0,0-0.07-0.03-0.21-0.07c-0.64,0.57-1.35,0.84-1.89,1.6c-0.67,0.95-1.03,2.08-1.22,3.21
							c-0.37,2.22-0.15,4.51,0.24,6.71c0.18,1,0.38,2.03,0.67,3.01c0.25,0.1,0.5,0.19,0.75,0.28c-0.84-2.45-1.24-5.25-1.21-7.81
							c0.02-1.87,0.31-3.99,1.6-5.45c0.61-0.69,1.35-0.88,1.82-1.48c0.2,0.05,0.4,0.1,0.57,0.15c1.42,0.42,2.73,1.17,3.96,2.02
							c-0.99,3.53-1.13,7.5-0.37,11.06c0.21,0.97,0.56,1.88,0.9,2.8c0.22,0,0.44,0.01,0.66,0.01c-0.8-2.24-1.33-4.41-1.38-6.83
							C62.3,25.42,62.47,23.6,62.81,21.82z"/>
						<linearGradient id="SVGID_49_" gradientUnits="userSpaceOnUse" x1="59.982" y1="23.1706" x2="76.3045" y2="27.5652">
							<stop  offset="0" style="stop-color:#088257"/>
							<stop  offset="0.3431" style="stop-color:#077D57"/>
							<stop  offset="0.8569" style="stop-color:#046E55"/>
							<stop  offset="1" style="stop-color:#036954"/>
						</linearGradient>
						<path class="st49" d="M81.81,29.07C81.81,29.07,81.81,29.07,81.81,29.07c0.01-0.01,0.03-0.02,0.04-0.03
							C81.83,29.04,81.82,29.06,81.81,29.07z"/>
						<linearGradient id="SVGID_50_" gradientUnits="userSpaceOnUse" x1="59.8116" y1="23.8035" x2="76.1341" y2="28.198">
							<stop  offset="0" style="stop-color:#088257"/>
							<stop  offset="0.3431" style="stop-color:#077D57"/>
							<stop  offset="0.8569" style="stop-color:#046E55"/>
							<stop  offset="1" style="stop-color:#036954"/>
						</linearGradient>
						<path class="st50" d="M76.27,28.03c-0.09,0.11-0.18,0.22-0.27,0.33C76.16,28.33,76.27,28.18,76.27,28.03z"/>
						<linearGradient id="SVGID_51_" gradientUnits="userSpaceOnUse" x1="59.8116" y1="23.8035" x2="76.1341" y2="28.198">
							<stop  offset="0" style="stop-color:#08724C"/>
							<stop  offset="0.3128" style="stop-color:#076D4B"/>
							<stop  offset="0.7812" style="stop-color:#055F49"/>
							<stop  offset="1" style="stop-color:#035847"/>
						</linearGradient>
						<path class="st51" d="M76.27,28.03c-0.09,0.11-0.18,0.22-0.27,0.33C76.16,28.33,76.27,28.18,76.27,28.03z"/>
						<linearGradient id="SVGID_52_" gradientUnits="userSpaceOnUse" x1="62.6717" y1="13.1804" x2="78.9942" y2="17.5749">
							<stop  offset="0" style="stop-color:#088257"/>
							<stop  offset="0.3431" style="stop-color:#077D57"/>
							<stop  offset="0.8569" style="stop-color:#046E55"/>
							<stop  offset="1" style="stop-color:#036954"/>
						</linearGradient>
						<path class="st52" d="M80.72,7.5c4.02,6.22,4.15,14.79,1.09,21.56c0.01-0.01,0.03-0.02,0.04-0.03
							c0.14-0.11,0.27-0.23,0.4-0.35c0.22-0.2,0.44-0.41,0.66-0.62c2.38-6.19,2.28-13.57-0.78-19.4c-0.47-0.47-0.96-0.93-1.45-1.38
							C80.66,7.36,80.67,7.43,80.72,7.5z"/>
						<linearGradient id="SVGID_53_" gradientUnits="userSpaceOnUse" x1="62.6717" y1="13.1804" x2="78.9942" y2="17.5749">
							<stop  offset="0" style="stop-color:#08724C"/>
							<stop  offset="0.3128" style="stop-color:#076D4B"/>
							<stop  offset="0.7812" style="stop-color:#055F49"/>
							<stop  offset="1" style="stop-color:#035847"/>
						</linearGradient>
						<path class="st53" d="M80.72,7.5c4.02,6.22,4.15,14.79,1.09,21.56c0.01-0.01,0.03-0.02,0.04-0.03
							c0.14-0.11,0.27-0.23,0.4-0.35c0.22-0.2,0.44-0.41,0.66-0.62c2.38-6.19,2.28-13.57-0.78-19.4c-0.47-0.47-0.96-0.93-1.45-1.38
							C80.66,7.36,80.67,7.43,80.72,7.5z"/>
					</g>
				</g>
				<radialGradient id="SVGID_54_" cx="52.2393" cy="19.3284" r="3.4276" gradientUnits="userSpaceOnUse">
					<stop  offset="0" style="stop-color:#B7DEBC"/>
					<stop  offset="0.1684" style="stop-color:#B0DBB7"/>
					<stop  offset="0.4212" style="stop-color:#9CD3AA"/>
					<stop  offset="0.7253" style="stop-color:#7BC796"/>
					<stop  offset="1" style="stop-color:#4FBC81"/>
				</radialGradient>
				<path class="st54" d="M49.13,24.29c0,0,2.35-4.39,6.28-5.65C55.41,18.64,51.01,18.33,49.13,24.29z"/>
				<radialGradient id="SVGID_55_" cx="64.151" cy="10.8443" r="3.1682" gradientUnits="userSpaceOnUse">
					<stop  offset="0" style="stop-color:#B7DEBC"/>
					<stop  offset="0.1684" style="stop-color:#B0DBB7"/>
					<stop  offset="0.4212" style="stop-color:#9CD3AA"/>
					<stop  offset="0.7253" style="stop-color:#7BC796"/>
					<stop  offset="1" style="stop-color:#4FBC81"/>
				</radialGradient>
				<path class="st55" d="M59.17,12.84c0,0,5.81-2.98,10.04-0.63C69.22,12.21,63.57,8.13,59.17,12.84z"/>
				<radialGradient id="SVGID_56_" cx="69.002" cy="1.3892" r="1.5074" gradientUnits="userSpaceOnUse">
					<stop  offset="0" style="stop-color:#B7DEBC"/>
					<stop  offset="0.1684" style="stop-color:#B0DBB7"/>
					<stop  offset="0.4212" style="stop-color:#9CD3AA"/>
					<stop  offset="0.7253" style="stop-color:#7BC796"/>
					<stop  offset="1" style="stop-color:#4FBC81"/>
				</radialGradient>
				<path class="st56" d="M66.86,2.79c0,0,2.98-0.47,4.08-0.47C72.04,2.32,69.06-0.5,66.86,2.79z"/>
			</g>
			<g>
				<g>
					<linearGradient id="SVGID_57_" gradientUnits="userSpaceOnUse" x1="77.8312" y1="52.6958" x2="104.0452" y2="86.5202">
						<stop  offset="0" style="stop-color:#0A5D3A"/>
						<stop  offset="0.1786" style="stop-color:#0B5839"/>
						<stop  offset="0.4467" style="stop-color:#0C4C35"/>
						<stop  offset="0.7694" style="stop-color:#08392E"/>
						<stop  offset="1" style="stop-color:#022926"/>
					</linearGradient>
					<path class="st57" d="M143.35,90.53c-0.24,0-0.48,0.02-0.7,0.07c-2.19,0.44-4.21,2.75-4.5,5.15c-0.23,1.93,0.63,3.62,2.39,4.78
						c-0.68,0.71-1.94,1.69-3.78,1.69c-0.15,0-0.3-0.01-0.45-0.02c-2.87-0.24-9.23-2.48-12.78-9.26c-0.58-1.11-1.27-2.35-2-3.66
						c-3.66-6.6-8.67-15.64-10.47-26.21c-1.13-6.61-3.74-12.87-7.35-17.61c-3.89-5.11-8.61-7.92-13.3-7.92
						c-9.13,0-14.42,6.84-15.79,13.93c-0.69-0.13-1.72-0.27-3-0.27c-3.12,0-7.93,0.82-13.14,4.73c-3.29,2.47-4.97,6.23-4.72,10.57
						c0.4,6.9,5.48,14.35,12.65,18.53c7.03,4.1,14.26,4.75,22.63,5.5c5.38,0.48,10.94,0.98,17.16,2.44
						c10.42,2.45,15.5,5.93,19.57,8.73c2.11,1.45,3.94,2.7,6.06,3.48c2.1,0.77,4.35,1.18,6.51,1.18c0,0,0,0,0,0
						c4.6,0,8.44-1.81,10.55-4.98c1.37-2.06,1.46-4.53,0.25-6.79C147.9,92.24,145.46,90.53,143.35,90.53z"/>
					<linearGradient id="SVGID_58_" gradientUnits="userSpaceOnUse" x1="80.4454" y1="56.0733" x2="99.9069" y2="81.1848">
						<stop  offset="0" style="stop-color:#16A572"/>
						<stop  offset="0.3364" style="stop-color:#129F71"/>
						<stop  offset="0.8403" style="stop-color:#069170"/>
						<stop  offset="1" style="stop-color:#018B6F"/>
					</linearGradient>
					<path class="st58" d="M75.34,52.55c0,0-7.53-2.51-16.32,4.08s-3.45,21.03,7.85,27.62c11.3,6.59,23.54,4.08,39.55,7.85
						s19.78,10.04,25.74,12.24c5.96,2.2,12.87,1.26,16.01-3.45c3.14-4.71-2.2-10.04-5.34-9.42c-3.14,0.63-6.28,6.28-0.94,8.79
						c0,0-1.88,3.14-5.65,2.83s-10.04-3.14-13.5-9.73c-3.45-6.59-10.36-17.26-12.56-30.13c-2.2-12.87-10.36-24.8-19.78-24.8
						S76.28,45.95,75.34,52.55z"/>
					<g>
						<linearGradient id="SVGID_59_" gradientUnits="userSpaceOnUse" x1="68.9869" y1="64.9536" x2="88.4484" y2="90.0651">
							<stop  offset="0" style="stop-color:#2BB780"/>
							<stop  offset="0.3907" style="stop-color:#26B080"/>
							<stop  offset="0.9759" style="stop-color:#01A383"/>
							<stop  offset="1" style="stop-color:#00A383"/>
						</linearGradient>
						<path class="st59" d="M68.9,55.21c0,0-5.34,2.04-5.81,11.77C63.1,66.98,65.76,57.25,68.9,55.21z"/>
						<linearGradient id="SVGID_60_" gradientUnits="userSpaceOnUse" x1="87.9371" y1="50.2672" x2="107.3986" y2="75.3788">
							<stop  offset="0" style="stop-color:#2BB780"/>
							<stop  offset="0.3907" style="stop-color:#26B080"/>
							<stop  offset="0.9759" style="stop-color:#01A383"/>
							<stop  offset="1" style="stop-color:#00A383"/>
						</linearGradient>
						<path class="st60" d="M100.76,56c0,0-0.94-0.78-0.63-2.04s-2.2-3.14-3.45-4.39c-1.26-1.26-2.2-3.14-2.2-3.14
							s-8.32-3.61-15.07,4.55c0,0,0.78,3.14,3.3,4.87c0,0,2.2-1.1,7.06-1.26C94.64,54.43,100.76,56,100.76,56z"/>
						<linearGradient id="SVGID_61_" gradientUnits="userSpaceOnUse" x1="77.0046" y1="58.7399" x2="96.466" y2="83.8515">
							<stop  offset="0" style="stop-color:#2BB780"/>
							<stop  offset="0.3907" style="stop-color:#26B080"/>
							<stop  offset="0.9759" style="stop-color:#01A383"/>
							<stop  offset="1" style="stop-color:#00A383"/>
						</linearGradient>
						<path class="st61" d="M93.39,71.54c-0.63-0.63-8.48-8.48-8.48-8.48s0.63,4.71,0.63,7.22c0,2.51-0.31,5.02,0.63,8.63
							c0,0,0.78-1.41,2.35-0.78s8.63,6.12,8.63,6.12s-0.16-3.3-0.63-4.71S94.01,72.16,93.39,71.54z"/>
						<linearGradient id="SVGID_62_" gradientUnits="userSpaceOnUse" x1="82.1667" y1="54.7392" x2="101.6282" y2="79.8508">
							<stop  offset="0" style="stop-color:#2BB780"/>
							<stop  offset="0.3907" style="stop-color:#26B080"/>
							<stop  offset="0.9759" style="stop-color:#01A383"/>
							<stop  offset="1" style="stop-color:#00A383"/>
						</linearGradient>
						<path class="st62" d="M103.9,87.7c1.41,1.57,3.3,0.47,5.02,0.47c1.73,0,4.55,2.04,4.55,2.04
							c-2.98-2.04-13.81-12.56-13.81-12.56S102.49,86.13,103.9,87.7z"/>
						<linearGradient id="SVGID_63_" gradientUnits="userSpaceOnUse" x1="85.8007" y1="51.9229" x2="105.2622" y2="77.0345">
							<stop  offset="0" style="stop-color:#2BB780"/>
							<stop  offset="0.3907" style="stop-color:#26B080"/>
							<stop  offset="0.9759" style="stop-color:#01A383"/>
							<stop  offset="1" style="stop-color:#00A383"/>
						</linearGradient>
						<path class="st63" d="M111.59,84.56c0,0-0.31-2.67-1.73-4.08c-1.41-1.41-2.2-4.24-2.2-4.24s-3.77-1.41-7.38-1.73L111.59,84.56
							z"/>
						<linearGradient id="SVGID_64_" gradientUnits="userSpaceOnUse" x1="87.5024" y1="50.6041" x2="106.9639" y2="75.7157">
							<stop  offset="0" style="stop-color:#2BB780"/>
							<stop  offset="0.3907" style="stop-color:#26B080"/>
							<stop  offset="0.9759" style="stop-color:#01A383"/>
							<stop  offset="1" style="stop-color:#00A383"/>
						</linearGradient>
						<path class="st64" d="M86.01,59.14c0,0,4.71,4.55,6.12,6.12c1.41,1.57,3.3,3.3,3.3,3.3l10.36,1.88c0,0-2.51-1.26-1.73-2.98
							c0.78-1.73,1.1-4.39,0.47-5.34C103.9,61.18,94.49,56.31,86.01,59.14z"/>
						<linearGradient id="SVGID_65_" gradientUnits="userSpaceOnUse" x1="72.0196" y1="62.6033" x2="91.4811" y2="87.7148">
							<stop  offset="0" style="stop-color:#2BB780"/>
							<stop  offset="0.3907" style="stop-color:#26B080"/>
							<stop  offset="0.9759" style="stop-color:#01A383"/>
							<stop  offset="1" style="stop-color:#00A383"/>
						</linearGradient>
						<path class="st65" d="M75.02,54.9c-8.32,1.73-8.32,15.85-8.32,15.85s2.04-1.41,4.24,0.63c2.2,2.04,6.91,3.14,8.79,4.24
							c1.88,1.1,2.51,3.77,2.51,3.77c-1.1-5.81-0.63-19.15-1.41-20.4C80.05,57.72,75.02,54.9,75.02,54.9z"/>
					</g>
					<g>
						<linearGradient id="SVGID_66_" gradientUnits="userSpaceOnUse" x1="89.7012" y1="48.9001" x2="109.1626" y2="74.0116">
							<stop  offset="0" style="stop-color:#4CBD99"/>
							<stop  offset="0.3907" style="stop-color:#42BB94"/>
							<stop  offset="0.9759" style="stop-color:#15B688"/>
							<stop  offset="1" style="stop-color:#11B687"/>
						</linearGradient>
						<path class="st66" d="M100.76,56c0,0-0.94-0.78-0.63-2.04s-2.2-3.14-3.45-4.39c-1.26-1.26-2.2-3.14-2.2-3.14
							s-6.28-2.72-12.36,1.92c3.03-1.63,7.02-1.99,9.69-0.27c1.58,1.02,5.05,1.96,5.77,3.9c0.8,2.15-3.6,1.8-5.13,2.02
							c-1.07,0.15-2.72,0.3-4.22,0.68c0.48-0.04,0.99-0.07,1.54-0.09C94.64,54.43,100.76,56,100.76,56z"/>
						<linearGradient id="SVGID_67_" gradientUnits="userSpaceOnUse" x1="77.695" y1="58.2049" x2="97.1565" y2="83.3164">
							<stop  offset="0" style="stop-color:#4CBD99"/>
							<stop  offset="0.3907" style="stop-color:#42BB94"/>
							<stop  offset="0.9759" style="stop-color:#15B688"/>
							<stop  offset="1" style="stop-color:#11B687"/>
						</linearGradient>
						<path class="st67" d="M93.39,71.54c-0.63-0.63-8.48-8.48-8.48-8.48s0.63,4.71,0.63,7.22c0,1.57-0.12,3.15,0.02,4.99
							c0.12-0.83,0.24-1.66,0.49-2.45c0.48-1.51,0.05-5.29,2.32-4.31c1.36,0.59,1.58,2.05,2.5,3.02c0.96,1.01,2.03,1.48,2.84,2.7
							c1.28,1.93,2.16,4.44,2.79,6.63c0.13,0.46,0.3,0.87,0.49,1.25c-0.1-0.92-0.25-1.94-0.46-2.57
							C96.05,78.13,94.01,72.16,93.39,71.54z"/>
						<linearGradient id="SVGID_68_" gradientUnits="userSpaceOnUse" x1="81.8663" y1="54.9721" x2="101.3278" y2="80.0837">
							<stop  offset="0" style="stop-color:#4CBD99"/>
							<stop  offset="0.3907" style="stop-color:#42BB94"/>
							<stop  offset="0.9759" style="stop-color:#15B688"/>
							<stop  offset="1" style="stop-color:#11B687"/>
						</linearGradient>
						<path class="st68" d="M102.64,84.08c0.36-1.84,1.75-0.29,2.74,0.4c1.6,1.11,3.24,2.24,4.99,3.18
							c-4.31-3.8-10.71-10.01-10.71-10.01s2.03,6.08,3.5,8.89C102.84,85.71,102.52,84.73,102.64,84.08z"/>
						<linearGradient id="SVGID_69_" gradientUnits="userSpaceOnUse" x1="86.7001" y1="51.2259" x2="106.1616" y2="76.3374">
							<stop  offset="0" style="stop-color:#4CBD99"/>
							<stop  offset="0.3907" style="stop-color:#42BB94"/>
							<stop  offset="0.9759" style="stop-color:#15B688"/>
							<stop  offset="1" style="stop-color:#11B687"/>
						</linearGradient>
						<path class="st69" d="M107.67,76.24c0,0-1.79-0.67-4.08-1.19c1.08,0.46,2.26,0.87,3.02,1.66c0.86,0.9,1.45,2.46,2.2,3.58
							c0.76,1.13,1.79,2.19,2.61,3.33c-0.22-0.91-0.67-2.26-1.55-3.14C108.45,79.07,107.67,76.24,107.67,76.24z"/>
						<linearGradient id="SVGID_70_" gradientUnits="userSpaceOnUse" x1="88.8022" y1="49.5968" x2="108.2637" y2="74.7083">
							<stop  offset="0" style="stop-color:#4CBD99"/>
							<stop  offset="0.3907" style="stop-color:#42BB94"/>
							<stop  offset="0.9759" style="stop-color:#15B688"/>
							<stop  offset="1" style="stop-color:#11B687"/>
						</linearGradient>
						<path class="st70" d="M104.06,67.46c0.78-1.73,1.1-4.39,0.47-5.34c-0.54-0.81-7.59-4.52-14.95-3.74
							c1.72,0.4,3.54,0.57,5.22,0.93c1.99,0.43,4.39,1.07,6.04,2.41c1.65,1.33,1.21,3.32,1.33,5.28c0.11,1.85-1.62,2.12-3.36,2.18
							l6.98,1.27C105.79,70.44,103.27,69.18,104.06,67.46z"/>
						<linearGradient id="SVGID_71_" gradientUnits="userSpaceOnUse" x1="73.5491" y1="61.4179" x2="93.0106" y2="86.5295">
							<stop  offset="0" style="stop-color:#4CBD99"/>
							<stop  offset="0.3907" style="stop-color:#42BB94"/>
							<stop  offset="0.9759" style="stop-color:#15B688"/>
							<stop  offset="1" style="stop-color:#11B687"/>
						</linearGradient>
						<path class="st71" d="M75.02,54.9c-4.82,1-6.85,6.17-7.7,10.33c0.68-1.53,1.34-3.05,2.56-4.33c1.75-1.84,2.96-3.88,5.89-2.67
							c2.49,1.03,2.65,3.88,3.45,6.12c0.86,2.42,1.27,4.82,1.88,7.19c0.14,0.54,0.31,1.43,0.56,2.39
							c-0.37-6.26-0.25-14.01-0.84-14.95C80.05,57.72,75.02,54.9,75.02,54.9z"/>
					</g>
					<g>
						<linearGradient id="SVGID_72_" gradientUnits="userSpaceOnUse" x1="78.2089" y1="57.8066" x2="97.6704" y2="82.9181">
							<stop  offset="0" style="stop-color:#109564"/>
							<stop  offset="0.365" style="stop-color:#0D8F64"/>
							<stop  offset="0.9117" style="stop-color:#067E64"/>
							<stop  offset="1" style="stop-color:#057B64"/>
						</linearGradient>
						<path class="st72" d="M99.31,85.12c-0.03-0.12-0.07-0.24-0.13-0.35C99.22,84.9,99.27,85.01,99.31,85.12z"/>
						<linearGradient id="SVGID_73_" gradientUnits="userSpaceOnUse" x1="80.4454" y1="56.0733" x2="99.9069" y2="81.1848">
							<stop  offset="0" style="stop-color:#109564"/>
							<stop  offset="0.365" style="stop-color:#0D8F64"/>
							<stop  offset="0.9117" style="stop-color:#067E64"/>
							<stop  offset="1" style="stop-color:#057B64"/>
						</linearGradient>
						<path class="st73" d="M142.83,91.47c-3.14,0.63-6.28,6.28-0.94,8.79c0,0-1.88,3.14-5.65,2.83s-10.04-3.14-13.5-9.73
							c-3.45-6.59-10.36-17.26-12.56-30.13c-2.2-12.87-10.36-24.8-19.78-24.8s-14.13,7.53-15.07,14.13c0,0-7.53-2.51-16.32,4.08
							s-3.45,21.03,7.85,27.62c11.3,6.59,23.54,4.08,39.55,7.85s19.78,10.04,25.74,12.24c5.96,2.2,12.87,1.26,16.01-3.45
							C151.3,96.18,145.96,90.84,142.83,91.47z M122.84,96.97c-1.56-1.25-3.24-2.4-5.05-2.89c-1.14-0.31-2.32-0.28-3.41-0.72
							c-1.2-0.48-2.13-1.36-3.27-2.01c-2.12-1.2-4.09-1.12-6.43-1.01c-0.16,0.01-0.32,0.01-0.47,0.02c-2.11-1.36-4.01-2.95-4.9-5.23
							c0.28,1.01-0.05,2.49-0.34,3.7c-0.16-0.09-0.32-0.17-0.48-0.27c-2.53-1.38-4.65-0.61-7.3-0.23c-0.71,0.1-1.33,0.11-1.89,0.05
							c-2.46-2.33-4.3-5.07-5.49-8.48c0.18,1.4-0.42,3.56-1.3,5.13c-1.85-0.52-3.54,0.1-5.68,0.15c-2.67,0.06-4.24-1.45-6.04-3.13
							c-0.1-0.1-0.2-0.18-0.31-0.27c-0.86-1.47-2.1-2.77-2.84-4.29c-0.91-1.89-1.43-4.3-2.2-5.83c-0.2,1.83-0.55,4.12-1.33,5.89
							c-0.18,0.42-0.4,0.82-0.62,1.22c-1.18-0.84-1.3-2.15-1.57-3.72c-0.67-3.85-6.52-3.67-4.2-8.4c0.87-1.78,1.57-2.47,0.36-4.2
							c-0.95-1.35-1.62-2.39,0.24-3.57c1.65-1.05,3.22-0.6,4.52-2.39c0.9-1.25,0.88-2.88,2.63-3.3c1.54-0.36,3.18,0.4,4.71-0.11
							c0.48-0.16,0.87-0.34,1.23-0.51c2.93,0.25,5.56,1.83,8.16,3.08c-0.72-1.62-1.58-2.87-1.7-4.85c-0.04-0.73,0.03-1.44,0.12-2.13
							c0.92-0.76,1.3-1.43,1.88-2.57c1.77-3.53,3.76-3.8,7.42-3.61c3.22,0.16,6.08-2.6,9.26-0.51c2.4,1.58,0.18,2.49,0.62,4.51
							c0.33,1.54,2.43,2.1,3.62,2.79c1.31,0.77,2.85,1.61,2.98,3.25c0.12,1.53-1.66,2.7-0.67,4.25c0.58,0.91,1.56,1.39,2.47,2
							c-1.17-0.02-2.32-0.03-3.47-0.13c1.71,1.31,3.97,2.24,5.47,3.88c-0.24,1.24-1.2,2.17-1.14,3.58c0.08,1.74,2.9,3.23,3.73,4.86
							c0.24,0.46,0.33,0.93,0.34,1.39c-2.07,0.43-4.14,0.76-6.36,0.72c1.72,1.1,3.83,1.65,5.68,2.61c-0.15,0.77-0.15,1.5,0.28,2.18
							c0.45,0.7,1.77,1.04,2.45,1.57c0.9,0.69,1.67,1.5,2.16,2.55c0.84,1.79-0.3,3.45,0.75,5.06c0.94,1.44,2.87,2.61,4.14,3.77
							c0.2,0.18,0.39,0.36,0.59,0.54c0.97,1.24,1.86,2.51,2.39,4.17c0.16,0.49,0.29,1,0.44,1.51C122.96,97.03,122.9,97,122.84,96.97
							z"/>
					</g>
					<g>
						<linearGradient id="SVGID_74_" gradientUnits="userSpaceOnUse" x1="78.6727" y1="57.4471" x2="98.1342" y2="82.5587">
							<stop  offset="0" style="stop-color:#088257"/>
							<stop  offset="0.3431" style="stop-color:#077D57"/>
							<stop  offset="0.8569" style="stop-color:#046E55"/>
							<stop  offset="1" style="stop-color:#036954"/>
						</linearGradient>
						<path class="st74" d="M98.76,81.18c-0.39-2.83-1.38-5.67-2.64-8.3c0.22,0.22,0.43,0.44,0.65,0.66
							c4.5,4.56,9.18,8.94,14.01,13.15c4.12,3.6,8.36,7.36,13.08,10.17c0.76,0.46,1.57,0.86,2.4,1.22c-0.4-0.39-0.79-0.82-1.17-1.26
							c-0.38-0.2-0.76-0.41-1.13-0.63c-4.25-2.59-8.09-5.93-11.84-9.17c-4.73-4.09-9.32-8.35-13.75-12.77
							c-1.02-1.02-2.01-2.06-3-3.1c0.94,0.39,1.9,0.73,2.86,1.04c2.61,0.84,5.28,1.11,7.92,1.75c2.8,0.68,5.55,1.75,8.17,3
							c-0.12-0.28-0.24-0.57-0.35-0.85c-2.21-1.01-4.49-1.89-6.81-2.53c-2.51-0.7-5.11-0.89-7.62-1.61
							c-1.66-0.48-3.33-1.05-4.9-1.78c-0.08-0.04-0.15-0.04-0.23-0.02c-3.42-3.68-6.75-7.46-10.43-10.88
							c-0.31-0.29-0.62-0.58-0.94-0.87c-0.03-0.09-0.07-0.17-0.11-0.24c-0.03-0.04-0.04-0.08-0.05-0.12c0,0,0.01,0,0.01,0
							c0.57-0.12,1.15-0.52,1.74-0.68c3.3-0.88,6.94-0.51,10.26,0.06c4.19,0.72,8.31,1.99,12.12,3.86c1.07,0.53,2.11,1.1,3.12,1.73
							c-0.05-0.28-0.1-0.56-0.15-0.83c-0.04-0.02-0.07-0.05-0.11-0.07c-2.02-1.2-4.16-2.19-6.36-3.02c-4.72-1.77-9.94-2.96-15-2.85
							c-1.9,0.04-4.52,0.15-6.12,1.37c-0.04,0.03-0.07,0.07-0.1,0.11c-1.99-1.78-4.07-3.5-6.27-4.99c1.29-1.69,2.64-3.26,4.36-4.56
							c3-2.27,6.63-3.54,10.41-3.42c6.04,0.19,11.27,3.56,15.83,7.25c-0.2-0.42-0.4-0.83-0.62-1.23c-0.89-0.73-1.65-1.34-2.19-1.72
							c-4.17-2.9-9.12-5.15-14.3-4.91c-3.44,0.16-6.7,1.44-9.44,3.5c-1.76,1.32-3.33,2.93-4.58,4.74c-0.04-0.02-0.08-0.05-0.11-0.08
							c-0.01,0.09-0.03,0.17-0.04,0.26c0,0-0.33-0.11-0.93-0.22c0.06,0.07,0.12,0.14,0.19,0.21c0.13,0.12,0.27,0.24,0.42,0.35
							c-0.4,0.29-0.82,0.29-1.55,0.59c-1.54,0.64-2.94,1.57-4.09,2.77c-5.03,5.25-4.81,13.81-3.91,20.5
							c0.34,2.55,0.85,5.08,1.5,7.56c0.24,0.14,0.48,0.27,0.72,0.4c-0.51-1.74-0.85-3.56-1.17-5.33
							c-1.26-6.92-2.08-15.98,2.59-21.88c1.2-1.52,2.78-2.69,4.56-3.44c0.72-0.3,1.37-0.36,1.89-0.8c0.47,0.31,0.97,0.59,1.39,0.91
							c1.82,1.35,3.56,2.8,5.25,4.31c0.07,0.06,0.14,0.13,0.21,0.19c0.36,1.66,0.55,3.36,0.69,5.04c0.37,4.24-0.16,8.43,0.04,12.65
							c0.21,4.33,1.07,8.74,2.39,12.93c0.23,0.02,0.45,0.05,0.68,0.07c-1.29-4.05-2.15-8.31-2.41-12.5
							c-0.25-4.01,0.29-8.02,0.02-12.04c-0.09-1.34-0.23-2.68-0.42-4.01c-0.05-0.37-0.08-0.87-0.13-1.36
							c4,3.73,7.57,7.87,11.33,11.84c1.98,3.69,3.2,7.58,3.71,11.75c0.35,2.85,1.68,5.67,3.38,8.09c0.31,0.05,0.62,0.11,0.92,0.17
							c-0.49-0.68-0.95-1.39-1.37-2.11C99.74,86.6,99.16,84.12,98.76,81.18z M82.88,57.98C82.85,57.82,82.98,57.83,82.88,57.98
							L82.88,57.98z"/>
					</g>
				</g>
				<radialGradient id="SVGID_75_" cx="93.5438" cy="40.1464" r="6.7615" gradientUnits="userSpaceOnUse">
					<stop  offset="0" style="stop-color:#B7DEBC"/>
					<stop  offset="0.1684" style="stop-color:#B0DBB7"/>
					<stop  offset="0.4212" style="stop-color:#9CD3AA"/>
					<stop  offset="0.7253" style="stop-color:#7BC796"/>
					<stop  offset="1" style="stop-color:#4FBC81"/>
				</radialGradient>
				<path class="st75" d="M84.6,41.09c0,0,10.2-4.39,18.05,6.28C102.65,47.37,95.74,34.34,84.6,41.09z"/>
				<radialGradient id="SVGID_76_" cx="61.7899" cy="55.3479" r="6.2339" gradientUnits="userSpaceOnUse">
					<stop  offset="0" style="stop-color:#B7DEBC"/>
					<stop  offset="0.1684" style="stop-color:#B0DBB7"/>
					<stop  offset="0.4212" style="stop-color:#9CD3AA"/>
					<stop  offset="0.7253" style="stop-color:#7BC796"/>
					<stop  offset="1" style="stop-color:#4FBC81"/>
				</radialGradient>
				<path class="st76" d="M56.03,64.32c0,0,2.51-8.95,11.61-10.2C67.65,54.11,57.29,53.49,56.03,64.32z"/>
				<radialGradient id="SVGID_77_" cx="142.8253" cy="90.6834" r="4.5946" gradientUnits="userSpaceOnUse">
					<stop  offset="0" style="stop-color:#B7DEBC"/>
					<stop  offset="0.1684" style="stop-color:#B0DBB7"/>
					<stop  offset="0.4212" style="stop-color:#9CD3AA"/>
					<stop  offset="0.7253" style="stop-color:#7BC796"/>
					<stop  offset="1" style="stop-color:#4FBC81"/>
				</radialGradient>
				<path class="st77" d="M143.61,92.25c-2.83-0.16-3.3,2.98-3.3,2.98s0.16,2.04,2.2,1.26c2.04-0.78,2.2-2.2,5.02-0.63
					C147.53,95.86,146.44,92.41,143.61,92.25z"/>
			</g>
		</g>
	</g>
	<g>
		<g>

				<linearGradient id="SVGID_78_" gradientUnits="userSpaceOnUse" x1="3123.6646" y1="99.344" x2="3123.6646" y2="64.4393" gradientTransform="matrix(-1 -8.397000e-03 -8.396000e-03 1 3163.1858 28.8944)">
				<stop  offset="0" style="stop-color:#0C6154"/>
				<stop  offset="0.1954" style="stop-color:#0D5D50"/>
				<stop  offset="0.4887" style="stop-color:#0C5344"/>
				<stop  offset="0.8419" style="stop-color:#064332"/>
				<stop  offset="1" style="stop-color:#033B28"/>
			</linearGradient>
			<path class="st78" d="M25.68,62.48c2.37-3.24,5.53-4.86,9.37-4.83c0.53,0,1.08,0.04,1.64,0.11c14.39,1.8,19.75,20.24,19.8,20.42
				c0.05,0.18-0.04,0.37-0.2,0.44c-0.05,0.02-0.11,0.04-0.16,0.04c-0.12,0-0.24-0.06-0.31-0.16L48.9,68.45
				c-0.01-0.01-0.02-0.03-0.03-0.04c-0.04-0.08-4.09-7.84-13.03-7.91c-0.18,0-0.36,0-0.55,0c-2.82,0.07-5.13,1.3-6.84,3.65
				c-3.13,4.28-3.62,11.55-2.3,16.1c0.56,1.93,1.4,4.47,2.36,7.42c2.3,7,5.45,16.6,7.04,24.67c0.03,0.15-0.04,0.31-0.17,0.39
				c-0.09,0.06-2.22,1.37-5.55,1.35c-1.95-0.02-3.9-0.49-5.81-1.42c-0.18-0.09-0.26-0.29-0.19-0.48c0.04-0.1,3.64-9.68-0.81-23.4
				C20.53,81.05,20.83,69.09,25.68,62.48z"/>

				<linearGradient id="SVGID_79_" gradientUnits="userSpaceOnUse" x1="3123.6692" y1="99.1289" x2="3123.6692" y2="64.691" gradientTransform="matrix(-1 -8.397000e-03 -8.396000e-03 1 3163.1858 28.8944)">
				<stop  offset="0" style="stop-color:#0C8761"/>
				<stop  offset="0.2083" style="stop-color:#0D825D"/>
				<stop  offset="0.5211" style="stop-color:#0C7551"/>
				<stop  offset="0.8978" style="stop-color:#055F3F"/>
				<stop  offset="1" style="stop-color:#025939"/>
			</linearGradient>
			<path class="st79" d="M49.21,68.24c0,0-4.26-8.36-13.92-8.11c-9.66,0.25-11.44,13.56-9.5,20.24c1.94,6.68,7.15,20.71,9.39,32.06
				c0,0-4.69,2.96-10.99-0.09c0,0,3.74-9.63-0.8-23.66c-3.78-11.65-1.06-32.32,13.25-30.53c14.31,1.79,19.48,20.15,19.48,20.15
				L49.21,68.24z"/>

				<linearGradient id="SVGID_80_" gradientUnits="userSpaceOnUse" x1="3132.5974" y1="99.1289" x2="3132.5974" y2="64.691" gradientTransform="matrix(-1 -8.397000e-03 -8.396000e-03 1 3163.1858 28.8944)">
				<stop  offset="0" style="stop-color:#0AB07F"/>
				<stop  offset="0.242" style="stop-color:#0AA878"/>
				<stop  offset="0.6051" style="stop-color:#079869"/>
				<stop  offset="1" style="stop-color:#028356"/>
			</linearGradient>
			<path class="st80" d="M36.63,58.97c0,0-8.49-0.4-12.91,10.55C23.72,69.52,26.66,56.72,36.63,58.97z"/>

				<linearGradient id="SVGID_81_" gradientUnits="userSpaceOnUse" x1="3136.979" y1="99.1289" x2="3136.979" y2="64.691" gradientTransform="matrix(-1 -8.397000e-03 -8.396000e-03 1 3163.1858 28.8944)">
				<stop  offset="0" style="stop-color:#0AB07F"/>
				<stop  offset="0.242" style="stop-color:#0AA878"/>
				<stop  offset="0.6051" style="stop-color:#079869"/>
				<stop  offset="1" style="stop-color:#028356"/>
			</linearGradient>
			<path class="st81" d="M25.67,83.51c-0.04-0.1-0.06-0.15-0.06-0.15L25.67,83.51C25.67,83.51,25.67,83.51,25.67,83.51z"/>

				<linearGradient id="SVGID_82_" gradientUnits="userSpaceOnUse" x1="3133.0652" y1="99.1289" x2="3133.0652" y2="64.691" gradientTransform="matrix(-1 -8.397000e-03 -8.396000e-03 1 3163.1858 28.8944)">
				<stop  offset="0" style="stop-color:#0AB07F"/>
				<stop  offset="0.242" style="stop-color:#0AA878"/>
				<stop  offset="0.6051" style="stop-color:#079869"/>
				<stop  offset="1" style="stop-color:#028356"/>
			</linearGradient>
			<path class="st82" d="M33.2,111.4c0,0-2.18,1.98-5.5,0.45c0,0,1.23-13.18-2.03-28.34c0.03,0.07,0.06,0.16,0.11,0.28
				C26.89,86.56,32.97,102.17,33.2,111.4z"/>
		</g>
		<g>
			<g>

					<linearGradient id="SVGID_83_" gradientUnits="userSpaceOnUse" x1="3119.2334" y1="61.0833" x2="3091.7639" y2="95.9484" gradientTransform="matrix(-1 -8.397000e-03 -8.396000e-03 1 3163.1858 28.8944)">
					<stop  offset="0" style="stop-color:#096D44"/>
					<stop  offset="0.1873" style="stop-color:#0A6843"/>
					<stop  offset="0.4684" style="stop-color:#0A5B41"/>
					<stop  offset="0.8069" style="stop-color:#06463B"/>
					<stop  offset="1" style="stop-color:#023935"/>
				</linearGradient>
				<path class="st83" d="M34.01,69.79c1.18-1.93,3.1-3.13,5.73-3.57c1.03-0.17,2.06-0.25,3.08-0.24c4.26,0.04,7.43,1.61,9.07,2.66
					c1.19-4.66,4.33-7.38,8.62-7.34c3.62,0.03,7.26,2.08,8.86,4.98c2.06,3.73,1.16,8.49,0.36,12.68c-0.43,2.24-0.83,4.36-0.73,6.03
					c0.24,4.04,2.12,9.14,9.79,10.54c0.66,0.12,1.29,0.18,1.88,0.19c2.53,0.02,3.89-1.04,4.88-1.82c0.66-0.52,1.22-0.96,1.95-0.96
					c0.97,0.01,1.57,0.83,1.94,1.46c0.8,1.36,0.89,2.71,0.25,3.82c-0.87,1.5-2.99,2.38-5.69,2.36c-0.61-0.01-1.24-0.06-1.88-0.15
					l-1-0.15c-5.38-0.81-16.57-2.49-24.39-4.75c-8.42-2.43-21.07-8.32-22.84-13.79C32.96,78.87,31.74,73.52,34.01,69.79z"/>

					<linearGradient id="SVGID_84_" gradientUnits="userSpaceOnUse" x1="3113.2097" y1="68.7389" x2="3095.8896" y2="90.7222" gradientTransform="matrix(-1 -8.397000e-03 -8.396000e-03 1 3163.1858 28.8944)">
					<stop  offset="0" style="stop-color:#1BB57D"/>
					<stop  offset="0.3184" style="stop-color:#1BAF7C"/>
					<stop  offset="0.7951" style="stop-color:#0EA27C"/>
					<stop  offset="1" style="stop-color:#059B7C"/>
				</linearGradient>
				<path class="st84" d="M52.53,70.26c0,0-4.96-4.37-12.63-3.1c-7.67,1.27-6.74,9.27-5.12,14.28c1.62,5.01,13.9,10.78,22.21,13.18
					c8.31,2.4,20.62,4.17,25.27,4.88c4.66,0.71,8.34-1.26,6.37-4.61c-1.97-3.35-2.36,2.98-10.01,1.58
					c-7.65-1.4-10.27-6.41-10.56-11.41s3.44-12.96,0.49-18.32C65.59,61.38,54.29,58.95,52.53,70.26z"/>
				<g>

						<linearGradient id="SVGID_85_" gradientUnits="userSpaceOnUse" x1="3109.574" y1="65.8744" x2="3092.2537" y2="87.8577" gradientTransform="matrix(-1 -8.397000e-03 -8.396000e-03 1 3163.1858 28.8944)">
						<stop  offset="0" style="stop-color:#47BB88"/>
						<stop  offset="0.473" style="stop-color:#39B78A"/>
						<stop  offset="1" style="stop-color:#00B28E"/>
					</linearGradient>
					<path class="st85" d="M63.13,77.57c0,0-0.78,0.22-0.12,1.22c0.66,1,1.42,2.68,1.41,4.23c0,0-3.33-0.58-4.21-1.37
						c-0.88-0.78-3.83-6.47-3.83-6.47S61.35,77.22,63.13,77.57z"/>

						<linearGradient id="SVGID_86_" gradientUnits="userSpaceOnUse" x1="3110.7075" y1="66.7676" x2="3093.3875" y2="88.7509" gradientTransform="matrix(-1 -8.397000e-03 -8.396000e-03 1 3163.1858 28.8944)">
						<stop  offset="0" style="stop-color:#47BB88"/>
						<stop  offset="0.473" style="stop-color:#39B78A"/>
						<stop  offset="1" style="stop-color:#00B28E"/>
					</linearGradient>
					<path class="st86" d="M64.27,86.24l1.44,0.12c0.66,0.67,0.54,1.67,0.54,1.67L64.27,86.24z"/>

						<linearGradient id="SVGID_87_" gradientUnits="userSpaceOnUse" x1="3116.0562" y1="70.9815" x2="3098.7358" y2="92.9648" gradientTransform="matrix(-1 -8.397000e-03 -8.396000e-03 1 3163.1858 28.8944)">
						<stop  offset="0" style="stop-color:#47BB88"/>
						<stop  offset="0.473" style="stop-color:#39B78A"/>
						<stop  offset="1" style="stop-color:#00B28E"/>
					</linearGradient>
					<path class="st87" d="M57.74,83.63l-0.05,5.83c-3.32-1.86-4.3-3.87-5.29-4.71c-0.99-0.84-1.5,0.15-1.5,0.15l2.9-7.64
						L57.74,83.63z"/>

						<linearGradient id="SVGID_88_" gradientUnits="userSpaceOnUse" x1="3112.8342" y1="68.4431" x2="3095.5142" y2="90.4264" gradientTransform="matrix(-1 -8.397000e-03 -8.396000e-03 1 3163.1858 28.8944)">
						<stop  offset="0" style="stop-color:#47BB88"/>
						<stop  offset="0.473" style="stop-color:#39B78A"/>
						<stop  offset="1" style="stop-color:#00B28E"/>
					</linearGradient>
					<path class="st88" d="M69.89,93.81c0.13,0.09,0.2,0.14,0.2,0.14c-3.33-0.69-7.2-2.5-8.07-3.73c-0.88-1.23-0.64-3.11-0.64-3.11
						C63.44,89.4,68.78,93.06,69.89,93.81z"/>

						<linearGradient id="SVGID_89_" gradientUnits="userSpaceOnUse" x1="3106.5076" y1="63.4585" x2="3089.1875" y2="85.4418" gradientTransform="matrix(-1 -8.397000e-03 -8.396000e-03 1 3163.1858 28.8944)">
						<stop  offset="0" style="stop-color:#47BB88"/>
						<stop  offset="0.473" style="stop-color:#39B78A"/>
						<stop  offset="1" style="stop-color:#00B28E"/>
					</linearGradient>
					<path class="st89" d="M64.48,75.14c0,0-6.31-1.72-7.97-2.95c0,0-0.21-1.89-0.2-2.67c0.01-0.78,0.79-1.99,0.79-1.99
						s4.66,0.82,5.43,1.27c0,0-0.89,0.21-0.34,1.22C62.74,71.01,63.72,73.13,64.48,75.14z"/>

						<linearGradient id="SVGID_90_" gradientUnits="userSpaceOnUse" x1="3119.1699" y1="73.4348" x2="3101.8496" y2="95.4181" gradientTransform="matrix(-1 -8.397000e-03 -8.396000e-03 1 3163.1858 28.8944)">
						<stop  offset="0" style="stop-color:#47BB88"/>
						<stop  offset="0.473" style="stop-color:#39B78A"/>
						<stop  offset="1" style="stop-color:#00B28E"/>
					</linearGradient>
					<path class="st90" d="M40.87,70l-2.19,2.65C38.68,72.64,38.21,69.31,40.87,70z"/>

						<linearGradient id="SVGID_91_" gradientUnits="userSpaceOnUse" x1="3118.0874" y1="72.5819" x2="3100.7671" y2="94.5652" gradientTransform="matrix(-1 -8.397000e-03 -8.396000e-03 1 3163.1858 28.8944)">
						<stop  offset="0" style="stop-color:#47BB88"/>
						<stop  offset="0.473" style="stop-color:#39B78A"/>
						<stop  offset="1" style="stop-color:#00B28E"/>
					</linearGradient>
					<path class="st91" d="M43.52,71.35c0,0,2.67-0.14,4.33,0.54c1.66,0.68,2.81,2.85,2.81,2.85c-0.02,1.83-2.9,8.47-2.9,8.47
						l-0.34,0.5c-4.48-1.54-4.95-5.04-5.95-5.55c-1-0.51-1.66-0.51-1.66-0.51C40.5,73.99,43.52,71.35,43.52,71.35z"/>
				</g>
				<g>

						<linearGradient id="SVGID_92_" gradientUnits="userSpaceOnUse" x1="3109.25" y1="65.6192" x2="3091.9299" y2="87.6025" gradientTransform="matrix(-1 -8.397000e-03 -8.396000e-03 1 3163.1858 28.8944)">
						<stop  offset="0" style="stop-color:#5BC19F"/>
						<stop  offset="0.4105" style="stop-color:#54BF9A"/>
						<stop  offset="1" style="stop-color:#3BBA8E"/>
					</linearGradient>
					<path class="st92" d="M61.29,78.08c-1.36-0.99-3.1-1.4-4.55-2.21c-0.22-0.42-0.36-0.69-0.36-0.69s4.98,2.04,6.75,2.39
						c0,0-0.78,0.22-0.12,1.22c0.66,1,1.42,2.68,1.41,4.23c0,0-0.02,0-0.06-0.01C64.06,81.14,62.81,79.19,61.29,78.08z"/>

						<linearGradient id="SVGID_93_" gradientUnits="userSpaceOnUse" x1="3114.7617" y1="69.9617" x2="3097.4417" y2="91.945" gradientTransform="matrix(-1 -8.397000e-03 -8.396000e-03 1 3163.1858 28.8944)">
						<stop  offset="0" style="stop-color:#5BC19F"/>
						<stop  offset="0.4105" style="stop-color:#54BF9A"/>
						<stop  offset="1" style="stop-color:#3BBA8E"/>
					</linearGradient>
					<path class="st93" d="M57.74,83.63l-0.04,4.67c-0.02-1.23-0.22-2.52-0.51-3.68c-0.34-1.35-1.25-2.09-2.02-3.26
						c-0.81-1.24-0.94-2.82-2.22-1.52c-0.09,0.09-0.18,0.2-0.26,0.31l1.09-2.88L57.74,83.63z"/>

						<linearGradient id="SVGID_94_" gradientUnits="userSpaceOnUse" x1="3113.5037" y1="68.9706" x2="3096.1836" y2="90.9539" gradientTransform="matrix(-1 -8.397000e-03 -8.396000e-03 1 3163.1858 28.8944)">
						<stop  offset="0" style="stop-color:#5BC19F"/>
						<stop  offset="0.4105" style="stop-color:#54BF9A"/>
						<stop  offset="1" style="stop-color:#3BBA8E"/>
					</linearGradient>
					<path class="st94" d="M61.38,87.1c0.79,0.88,2.06,1.96,3.39,3c-1.18-0.77-2.09-1.27-3.13-0.62
						C61.22,88.35,61.38,87.1,61.38,87.1z"/>

						<linearGradient id="SVGID_95_" gradientUnits="userSpaceOnUse" x1="3105.709" y1="62.8293" x2="3088.3889" y2="84.8126" gradientTransform="matrix(-1 -8.397000e-03 -8.396000e-03 1 3163.1858 28.8944)">
						<stop  offset="0" style="stop-color:#5BC19F"/>
						<stop  offset="0.4105" style="stop-color:#54BF9A"/>
						<stop  offset="1" style="stop-color:#3BBA8E"/>
					</linearGradient>
					<path class="st95" d="M62.53,68.79c0,0-0.89,0.21-0.34,1.22c0.55,1,1.53,3.12,2.29,5.13c0,0-0.09-0.02-0.25-0.07
						c-0.34-1.02-1.55-1.81-2.1-2.68c-0.77-1.22-0.8-2.34-2.18-3.22c-0.52-0.33-1.31-0.81-1.9-0.86c-0.53-0.04-1.06,0.33-1.59,0.5
						c0.23-0.64,0.64-1.28,0.64-1.28S61.76,68.34,62.53,68.79z"/>

						<linearGradient id="SVGID_96_" gradientUnits="userSpaceOnUse" x1="3118.5574" y1="72.9522" x2="3101.2373" y2="94.9355" gradientTransform="matrix(-1 -8.397000e-03 -8.396000e-03 1 3163.1858 28.8944)">
						<stop  offset="0" style="stop-color:#5BC19F"/>
						<stop  offset="0.4105" style="stop-color:#54BF9A"/>
						<stop  offset="1" style="stop-color:#3BBA8E"/>
					</linearGradient>
					<path class="st96" d="M40.87,70l-1.03,1.24c-0.23-0.3-0.54-0.52-0.83-0.71C39.32,70.04,39.88,69.74,40.87,70z"/>

						<linearGradient id="SVGID_97_" gradientUnits="userSpaceOnUse" x1="3116.9102" y1="71.6544" x2="3099.5901" y2="93.6377" gradientTransform="matrix(-1 -8.397000e-03 -8.396000e-03 1 3163.1858 28.8944)">
						<stop  offset="0" style="stop-color:#5BC19F"/>
						<stop  offset="0.4105" style="stop-color:#54BF9A"/>
						<stop  offset="1" style="stop-color:#3BBA8E"/>
					</linearGradient>
					<path class="st97" d="M43.52,71.35c0,0,2.67-0.14,4.33,0.54c1.66,0.68,2.81,2.85,2.81,2.85c-0.01,0.85-0.63,2.71-1.29,4.48
						c0.31-2.34,0.72-4.76-1.45-5.84c-0.92-0.46-3.15-1.11-4.11-0.91c-0.98,0.2-1.91,1.04-2.73,1.92
						C42.18,72.53,43.52,71.35,43.52,71.35z"/>
				</g>
				<g>

						<linearGradient id="SVGID_98_" gradientUnits="userSpaceOnUse" x1="3113.2097" y1="68.7389" x2="3095.8896" y2="90.7222" gradientTransform="matrix(-1 -8.397000e-03 -8.396000e-03 1 3163.1858 28.8944)">
						<stop  offset="0" style="stop-color:#06A56D"/>
						<stop  offset="0.3301" style="stop-color:#049F6E"/>
						<stop  offset="0.8246" style="stop-color:#03916F"/>
						<stop  offset="1" style="stop-color:#018B6F"/>
					</linearGradient>
					<path class="st98" d="M88.63,94.88c1.97,3.35-1.71,5.32-6.37,4.61c-4.66-0.71-16.97-2.47-25.27-4.88S36.4,86.45,34.78,81.44
						c-1.62-5.01-2.56-13.01,5.12-14.28c7.67-1.27,12.63,3.1,12.63,3.1c1.76-11.31,13.07-8.88,16.02-3.53
						c2.95,5.35-0.78,13.32-0.49,18.32c0.21,3.56,1.6,7.13,5.15,9.4c-1.66-0.22-3.59-1.7-4.54-2.52c-2.04-1.76-0.67-4.01-1.86-6.3
						c-0.07-0.14-0.14-0.27-0.21-0.4c-0.85-0.33-1.73-0.53-2.31-0.54c0.59-0.11,1.19-0.32,1.8-0.47c-0.21-0.54-0.29-1.1-0.05-1.83
						c0.46-1.39,1.24-1.79,1.14-3.2c-1.18-1.01-2.57-2.01-3.7-2.95c1.15-0.09,2.42-0.3,3.68-0.44c0.12-0.3,0.28-0.64,0.5-1.08
						c0.33-0.66,0.54-1.15,0.57-1.64c-1.21-2.08-3.33-3.84-4.79-5.72c0.85,0.06,2.01,0.13,3.18,0.25c0.33-1.09,0.7-1.72-0.65-2.72
						c-2.35-1.73-4.23,0.61-6.57,0.62c-1.14,0-2.09-0.47-3.18,0.3c-0.93,0.66-0.77,1.7-1.3,2.54c-0.24,0.38-0.47,0.7-0.66,0.99
						c0.22,2.96,1.18,5.78,1.71,8.59c-1.98-3.4-4.85-5.79-7.74-8.22c-0.92,0.09-1.79,0.43-2.86,0.35c-1.74-0.12-2.73-1.74-4.31-1.7
						c-1.7,0.04-2.72,1.18-3.36,2.62c-0.35,0.79-0.21,1.3-0.8,2c-0.4,0.48-1.14,0.65-1.55,1.14c-0.98,1.17-0.89,2.83,0.06,4.09
						c0.19,0.26,0.42,0.48,0.66,0.7c0.73-0.75,1.37-1.64,2.23-2.15c-0.41,0.64-0.52,2.24-0.54,3.63c0.2,0.23,0.39,0.47,0.52,0.76
						c0.52,1.06,0.24,2.24,0.8,3.34c1.31,2.56,4.31,2.49,6.87,3.1c0.2-0.11,0.39-0.23,0.57-0.37c0.99-0.74,1.74-1.77,2.7-2.54
						c-0.3,1.37-0.13,2.95,0.03,4.53c1.71,1.35,3.08,3.08,5.26,3.53c1.06,0.22,2.12,0.18,3.17,0.14c0.53-0.89,1.06-1.82,1.64-2.55
						c0.3,0.87,0.86,1.91,1.54,2.75c0.42,0.1,0.84,0.25,1.26,0.47c2.26,1.18,3.25,2.63,6.18,2.51c1.22-0.05,2.47-0.3,3.66,0.03
						c1.23,0.34,2.24,1.31,3.48,1.54c2.18,0.39,4.25-0.24,6.22-0.98C86.43,96.14,86.96,92.05,88.63,94.88z"/>
				</g>
				<g>

						<linearGradient id="SVGID_99_" gradientUnits="userSpaceOnUse" x1="3120.364" y1="74.3757" x2="3103.0439" y2="96.359" gradientTransform="matrix(-1 -8.397000e-03 -8.396000e-03 1 3163.1858 28.8944)">
						<stop  offset="0" style="stop-color:#0B9262"/>
						<stop  offset="0.3731" style="stop-color:#098C62"/>
						<stop  offset="0.932" style="stop-color:#047B61"/>
						<stop  offset="1" style="stop-color:#047960"/>
					</linearGradient>
					<path class="st99" d="M45.09,67.11c0.29,0.04,0.57,0.09,0.84,0.15c-5.39,4.23-9.45,10.58-8.69,17.56
						c-0.26-0.24-0.5-0.48-0.72-0.71C36.12,77.36,39.95,71.36,45.09,67.11z"/>

						<linearGradient id="SVGID_100_" gradientUnits="userSpaceOnUse" x1="3114.1611" y1="69.4886" x2="3096.8411" y2="91.4719" gradientTransform="matrix(-1 -8.397000e-03 -8.396000e-03 1 3163.1858 28.8944)">
						<stop  offset="0" style="stop-color:#0B9262"/>
						<stop  offset="0.3731" style="stop-color:#098C62"/>
						<stop  offset="0.932" style="stop-color:#047B61"/>
						<stop  offset="1" style="stop-color:#047960"/>
					</linearGradient>
					<path class="st100" d="M50.32,80.23c0.96-2.85,2.03-6.44,1.83-9.73c-0.01-0.02-0.01-0.03-0.02-0.05
						c-0.42-0.42-0.82-0.85-1.22-1.3c1.04,0.61,1.61,1.11,1.61,1.11c0.03-0.22,0.07-0.43,0.11-0.64c0.02,0.14,0.04,0.28,0.05,0.42
						c0,0.01,0.01,0.02,0.01,0.03c1.3,1.26,2.74,2.37,4.39,3.25c3.65,1.94,7.89,3.24,11.99,3.96c-0.04,0.22-0.08,0.43-0.12,0.65
						c-4.35-0.77-8.74-2.12-12.57-4.24c-1.15-0.64-2.2-1.39-3.16-2.23c1.52,3.78,3.65,7.36,5.96,10.48
						c0.09,0.12,0.19,0.24,0.28,0.37c0.04,0.01,0.07,0.02,0.11,0.04c2.54,1.57,5.51,2.58,8.5,3.09c0.02,0.23,0.04,0.45,0.07,0.68
						c-2.63-0.43-5.24-1.23-7.59-2.46c2.9,3.43,6.45,6.32,10.27,8.74c1.16,1.34,2.75,2.47,4.85,3.25c-0.1,0.09-0.24,0.14-0.39,0.06
						c-5.83-2.99-11.43-6.97-15.6-12.07c-0.15,2.66-0.1,5.37,0.28,7.99c0.14,0.93,0.31,1.87,0.61,2.77
						c0.15,0.45,0.35,0.86,0.56,1.28c-0.29-0.07-0.58-0.14-0.87-0.21c-0.34-0.8-0.58-1.66-0.75-2.51
						c-0.66-3.28-0.69-6.77-0.45-10.11c-0.15-0.2-0.31-0.39-0.45-0.59c-2.27-3.07-4.35-6.56-5.87-10.24
						c-0.09,2.57-0.75,5.17-1.52,7.56c-1.13,3.53-2.62,6.95-4.29,10.25c-0.13,0.25-0.26,0.51-0.4,0.76c-0.2-0.1-0.4-0.19-0.6-0.29
						c0.03-0.06,0.07-0.12,0.1-0.18C47.7,86.96,49.17,83.65,50.32,80.23z"/>

						<linearGradient id="SVGID_101_" gradientUnits="userSpaceOnUse" x1="3104.2937" y1="61.7141" x2="3086.9734" y2="83.6974" gradientTransform="matrix(-1 -8.397000e-03 -8.396000e-03 1 3163.1858 28.8944)">
						<stop  offset="0" style="stop-color:#0B9262"/>
						<stop  offset="0.3731" style="stop-color:#098C62"/>
						<stop  offset="0.932" style="stop-color:#047B61"/>
						<stop  offset="1" style="stop-color:#047960"/>
					</linearGradient>
					<path class="st101" d="M53.9,66.12c-0.01,0-0.02,0-0.02,0c0.12-0.21,0.24-0.42,0.37-0.61c0.24-0.01,0.47-0.01,0.67,0
						c5.26,0.37,11.23,1.86,14.77,5.98c0.01,0.35,0,0.7-0.01,1.05C66.17,67.84,59.49,66.31,53.9,66.12z"/>
				</g>
			</g>

				<radialGradient id="SVGID_102_" cx="3467.2788" cy="155.0145" r="3.8931" gradientTransform="matrix(-1.0611 -8.910000e-03 -8.909000e-03 1.0611 3742.7417 -71.3305)" gradientUnits="userSpaceOnUse">
				<stop  offset="0" style="stop-color:#C5E3C4"/>
				<stop  offset="0.1649" style="stop-color:#BEE0BF"/>
				<stop  offset="0.4125" style="stop-color:#ABD8B1"/>
				<stop  offset="0.7105" style="stop-color:#8ACC9C"/>
				<stop  offset="1" style="stop-color:#60BF86"/>
			</radialGradient>
			<path class="st102" d="M65.56,65.21c0,0-5.82-1.55-9.49-0.41C56.07,64.8,60.27,60.5,65.56,65.21z"/>

				<radialGradient id="SVGID_103_" cx="3483.6628" cy="159.1297" r="5.7153" gradientTransform="matrix(-1.0611 -8.910000e-03 -8.909000e-03 1.0611 3742.7417 -71.3305)" gradientUnits="userSpaceOnUse">
				<stop  offset="0" style="stop-color:#C5E3C4"/>
				<stop  offset="0.1649" style="stop-color:#BEE0BF"/>
				<stop  offset="0.4125" style="stop-color:#ABD8B1"/>
				<stop  offset="0.7105" style="stop-color:#8ACC9C"/>
				<stop  offset="1" style="stop-color:#60BF86"/>
			</radialGradient>
			<path class="st103" d="M49.7,69.57c0,0-7.64-2.4-14,1.05C35.7,70.62,41.08,64.5,49.7,69.57z"/>

				<radialGradient id="SVGID_104_" cx="3444.4194" cy="184.4737" r="3.1605" gradientTransform="matrix(-1.0611 -8.910000e-03 -8.909000e-03 1.0611 3742.7417 -71.3305)" gradientUnits="userSpaceOnUse">
				<stop  offset="0" style="stop-color:#C5E3C4"/>
				<stop  offset="0.1649" style="stop-color:#BEE0BF"/>
				<stop  offset="0.4125" style="stop-color:#ABD8B1"/>
				<stop  offset="0.7105" style="stop-color:#8ACC9C"/>
				<stop  offset="1" style="stop-color:#60BF86"/>
			</radialGradient>
			<path class="st104" d="M88.44,97.21c0,0-1.83-0.02-3.17,0.14c-1.33,0.16-3.16-0.03-3.16-0.03c3-0.14,4.52-2.79,5.52-2.62
				C88.63,94.88,88.44,97.21,88.44,97.21z"/>
		</g>
	</g>
</g>
</svg>
