<?xml version="1.0" encoding="utf-8"?>
<!-- Generator: Adobe Illustrator 24.0.3, SVG Export Plug-In . SVG Version: 6.00 Build 0)  -->
<svg version="1.1" id="Layer_1" xmlns="http://www.w3.org/2000/svg" xmlns:xlink="http://www.w3.org/1999/xlink" x="0px" y="0px"
	 viewBox="0 0 150 154.67" style="enable-background:new 0 0 150 154.67;" xml:space="preserve">
<style type="text/css">
	.st0{opacity:0.15;}
	.st1{fill:#FFFFFF;}
	.st2{opacity:0.15;fill:#FFFFFF;enable-background:new    ;}
	.st3{fill:#52111E;}
	.st4{fill:#FFFFFF;stroke:#9A2345;stroke-width:1.4899;stroke-miterlimit:10;}
</style>
<g>
	<g>
		<g class="st0">
			<path class="st1" d="M103.17,22.92c0,0-3.92-2.71-5.43,2.41c-1.51,5.13,5.73,6.34,8.14,7.54c2.41,1.2,19.62,11.16,21.12,39.82
				c0,0-0.3,13.27,1.21,14.18c1.51,0.91,4.22,2.11,4.22-2.41C132.43,79.93,140.28,41.32,103.17,22.92z"/>
			<path class="st1" d="M16.88,59.88c0,0-0.64,3.7,1.98,3.39c2.75-0.32,1.85-6.09,1.93-8.05c0.08-1.87,1.04-13.4,11.55-21.41
				c0,0,5.3-3.46,5.19-4.22c-0.11-0.74-0.46-1.9-2.17-0.72C33.67,30.05,18.8,36.8,16.88,59.88z"/>
		</g>
		<path class="st2" d="M58.79,87.38c0,0,1.03,42.29,23.22,52.1c9.07-0.99,27.21-5.55,41.64-22.26c2.67-3.09-7.52-10.13-25.76-50.63
			L58.79,87.38z"/>
	</g>
	<g>
		<path class="st3" d="M110.84,74.8c-0.42-0.71-1.13-1.27-1.71-1.85c-0.63-0.63-1.27-1.27-1.9-1.9c-1.34-1.34-2.68-2.68-4.02-4.02
			c-2.86-2.85-5.71-5.71-8.57-8.56c-2.83-2.82-5.65-5.63-8.49-8.44c-1.27-1.26-2.54-2.51-3.81-3.76c-1.25-1.23-2.44-2.68-4.18-3.19
			c-1.91-0.56-3.95,0.02-5.36,1.39c-1.49,1.44-2.91,2.96-4.37,4.44c-3.09,3.15-6.16,6.31-9.24,9.47c-3.01,3.1-6.02,6.2-9.04,9.3
			c-1.41,1.45-2.82,2.9-4.23,4.35c-1.21,1.24-3.05,2.55-3.04,4.46c0.01,1.77,1.37,3.08,3.06,3.27c0.08,0.01,0.16,0,0.25,0
			c0.94,0,1.87,0,2.81,0c1.04,0,2.03,0.04,2.73,0.96c0.55,0.73,0.46,1.59,0.46,2.45c0,1.26,0,2.52,0,3.78
			c0,2.37-0.01,4.75-0.01,7.12c0,2.31,0,4.62,0.01,6.93c0.01,1.13,0.01,2.26,0.02,3.39c0.01,1.11-0.09,2.3,0.11,3.39
			c0.18,0.98,0.8,1.86,1.64,2.38c0.81,0.5,1.68,0.54,2.61,0.54c1.67,0,3.33,0.01,5,0.02c7.95,0.04,15.9,0.09,23.86,0.12
			c3.71,0.01,7.43,0.02,11.14,0.02c0.95,0,1.82-0.13,2.6-0.71c0.86-0.64,1.36-1.59,1.45-2.65c0.13-1.58,0.02-3.22,0.03-4.8
			c0.01-3.85,0.02-7.7,0.03-11.55c0-1.83,0-3.65,0-5.48c0-0.81,0-1.63-0.01-2.44c0-0.65-0.09-1.39,0.16-2.01
			c0.43-1.08,1.46-1.47,2.53-1.47c1.11,0,2.22,0,3.34,0c1.03,0,2.09,0.11,3.02-0.45C111.2,78.39,111.75,76.34,110.84,74.8z
			 M82.32,92.54c0.64-0.25,1.59-0.07,2.25-0.07c0.89,0,1.79-0.03,2.67,0c0.85,0.02,1.22,0.65,1.22,1.42c0,1.13,0,2.25,0,3.38
			c0,0.88,0.04,2.02-1.16,2.07c-1.51,0-3.05,0.1-4.56,0c-1.02-0.07-1.15-0.9-1.15-1.73c0-1.02,0-2.05,0-3.08
			C81.59,93.78,81.46,92.87,82.32,92.54z M82.74,83.34c-1.02-0.07-1.15-0.9-1.15-1.73c0-1.02,0-2.05,0-3.08
			c0-0.75-0.13-1.66,0.74-1.99c0.64-0.25,1.59-0.07,2.25-0.07c0.89,0,1.79-0.02,2.67,0c0.85,0.02,1.22,0.65,1.22,1.42
			c0,1.13,0,2.25,0,3.38c0,0.88,0.04,2.02-1.16,2.07C85.78,83.34,84.24,83.43,82.74,83.34z M65.84,92.54
			c0.64-0.25,1.59-0.07,2.25-0.07c0.89,0,1.78-0.03,2.67,0c0.85,0.02,1.21,0.65,1.21,1.42c0,1.13,0,2.25,0,3.38
			c0,0.88,0.04,2.02-1.16,2.07c-1.51,0-3.05,0.1-4.56,0c-1.02-0.07-1.15-0.9-1.15-1.73c0-1.02,0-2.05,0-3.08
			C65.1,93.78,64.97,92.87,65.84,92.54z M71.97,81.26c0,0.88,0.04,2.02-1.16,2.07c-1.51,0-3.05,0.1-4.56,0
			c-1.02-0.07-1.15-0.9-1.15-1.73c0-1.03,0-2.05,0-3.08c0-0.75-0.13-1.66,0.74-1.99c0.64-0.25,1.59-0.07,2.25-0.07
			c0.89,0,1.78-0.02,2.67,0c0.85,0.02,1.21,0.65,1.21,1.42C71.97,79.01,71.97,80.13,71.97,81.26z"/>
		<path class="st4" d="M110.84,71.64c-0.42-0.71-1.13-1.27-1.71-1.85c-0.63-0.63-1.27-1.27-1.9-1.9c-1.34-1.34-2.68-2.68-4.02-4.02
			c-2.86-2.85-5.71-5.71-8.57-8.56c-2.83-2.82-5.65-5.63-8.49-8.44c-1.27-1.26-2.54-2.51-3.81-3.76c-1.25-1.23-2.44-2.68-4.18-3.19
			c-1.91-0.56-3.95,0.02-5.36,1.39c-1.49,1.44-2.91,2.96-4.37,4.44c-3.09,3.15-6.16,6.31-9.24,9.47c-3.01,3.1-6.02,6.2-9.04,9.3
			c-1.41,1.45-2.82,2.9-4.23,4.35c-1.21,1.24-3.05,2.55-3.04,4.46c0.01,1.77,1.37,3.08,3.06,3.27c0.08,0.01,0.16,0,0.25,0
			c0.94,0,1.87,0,2.81,0c1.04,0,2.03,0.04,2.73,0.96c0.55,0.73,0.46,1.59,0.46,2.45c0,1.26,0,2.52,0,3.78
			c0,2.37-0.01,4.75-0.01,7.12c0,2.31,0,4.62,0.01,6.93c0.01,1.13,0.01,2.26,0.02,3.39c0.01,1.11-0.09,2.3,0.11,3.39
			c0.18,0.98,0.8,1.86,1.64,2.38c0.81,0.5,1.68,0.54,2.61,0.54c1.67,0,3.33,0.01,5,0.02c7.95,0.04,15.9,0.09,23.86,0.12
			c3.71,0.01,7.43,0.03,11.14,0.02c0.95,0,1.82-0.13,2.6-0.71c0.86-0.64,1.36-1.59,1.45-2.65c0.13-1.58,0.02-3.22,0.03-4.8
			c0.01-3.85,0.02-7.7,0.03-11.55c0-1.83,0-3.65,0-5.48c0-0.81,0-1.63-0.01-2.44c0-0.65-0.09-1.39,0.16-2.01
			c0.43-1.08,1.46-1.47,2.53-1.47c1.11,0,2.22,0,3.34,0c1.03,0,2.09,0.11,3.02-0.45C111.2,75.24,111.75,73.18,110.84,71.64z
			 M82.32,89.38c0.64-0.25,1.59-0.07,2.25-0.07c0.89,0,1.79-0.03,2.67,0c0.85,0.02,1.22,0.65,1.22,1.42c0,1.13,0,2.25,0,3.38
			c0,0.88,0.04,2.02-1.16,2.07c-1.51,0-3.05,0.1-4.56,0c-1.02-0.07-1.15-0.9-1.15-1.73c0-1.02,0-2.05,0-3.08
			C81.59,90.63,81.46,89.71,82.32,89.38z M82.74,80.18c-1.02-0.07-1.15-0.9-1.15-1.73c0-1.02,0-2.05,0-3.08
			c0-0.75-0.13-1.66,0.74-1.99c0.64-0.25,1.59-0.07,2.25-0.07c0.89,0,1.79-0.03,2.67,0c0.85,0.02,1.22,0.65,1.22,1.42
			c0,1.13,0,2.25,0,3.38c0,0.88,0.04,2.02-1.16,2.07C85.78,80.18,84.24,80.28,82.74,80.18z M65.84,89.38
			c0.64-0.25,1.59-0.07,2.25-0.07c0.89,0,1.78-0.03,2.67,0c0.85,0.02,1.21,0.65,1.21,1.42c0,1.13,0,2.25,0,3.38
			c0,0.88,0.04,2.02-1.16,2.07c-1.51,0-3.05,0.1-4.56,0c-1.02-0.07-1.15-0.9-1.15-1.73c0-1.02,0-2.05,0-3.08
			C65.1,90.63,64.97,89.71,65.84,89.38z M71.97,78.1c0,0.88,0.04,2.02-1.16,2.07c-1.51,0-3.05,0.1-4.56,0
			c-1.02-0.07-1.15-0.9-1.15-1.73c0-1.02,0-2.05,0-3.08c0-0.75-0.13-1.66,0.74-1.99c0.64-0.25,1.59-0.07,2.25-0.07
			c0.89,0,1.78-0.03,2.67,0c0.85,0.02,1.21,0.65,1.21,1.42C71.97,75.85,71.97,76.98,71.97,78.1z"/>
	</g>
</g>
</svg>
