<?xml version="1.0" encoding="utf-8"?>
<!-- Generator: Adobe Illustrator 24.0.3, SVG Export Plug-In . SVG Version: 6.00 Build 0)  -->
<svg version="1.1" id="Layer_1" xmlns="http://www.w3.org/2000/svg" xmlns:xlink="http://www.w3.org/1999/xlink" x="0px" y="0px"
	 viewBox="0 0 150 154.67" style="enable-background:new 0 0 150 154.67;" xml:space="preserve">
<style type="text/css">
	.st0{opacity:0.15;}
	.st1{fill:#FFFFFF;}
	.st2{opacity:0.15;fill:#FFFFFF;enable-background:new    ;}
	.st3{fill:#52111E;}
	.st4{fill:#FFFFFF;stroke:#9A2345;stroke-width:1.4899;stroke-miterlimit:10;}
</style>
<g>
	<g>
		<g class="st0">
			<path class="st1" d="M103.17,22.92c0,0-3.92-2.71-5.43,2.41c-1.51,5.13,5.73,6.34,8.14,7.54c2.41,1.2,19.62,11.16,21.12,39.82
				c0,0-0.3,13.27,1.21,14.18c1.51,0.91,4.22,2.11,4.22-2.41C132.43,79.93,140.28,41.32,103.17,22.92z"/>
			<path class="st1" d="M16.88,59.88c0,0-0.64,3.7,1.98,3.39c2.75-0.32,1.85-6.09,1.93-8.05c0.08-1.87,1.04-13.4,11.55-21.41
				c0,0,5.3-3.46,5.19-4.22c-0.11-0.74-0.46-1.9-2.17-0.72C33.67,30.05,18.8,36.8,16.88,59.88z"/>
		</g>
		<path class="st2" d="M58.79,87.38c0,0,1.03,42.29,23.22,52.1c9.07-0.99,27.21-5.55,41.64-22.26c2.67-3.09-7.52-10.13-25.76-50.63
			L58.79,87.38z"/>
	</g>
	<g>
		<g>
			<path class="st3" d="M103.65,88.89c-1.09-0.39-2.21-0.41-3.34-0.41c-3,0-6,0-9.01,0c-6.63,0-13.25-0.03-19.88-0.01
				c-2.1,0.01-4.12,0.76-5.6,2.28c-1.04,1.07-1.78,2.46-2.03,3.93c-0.17,0.99-0.12,1.99-0.12,2.99c0,1.09,0.01,2.17,0.35,3.22
				c0.49,1.48,1.4,2.78,2.63,3.72c1.45,1.11,3.15,1.57,4.95,1.57c6.81,0,13.62,0,20.43,0c2.85,0,5.7,0,8.56,0
				c1.48,0,2.91-0.23,4.23-0.95c2.51-1.37,3.9-4.03,3.91-6.85c0-0.79,0-1.58,0-2.36C108.69,92.8,106.68,89.99,103.65,88.89z"/>
			<path class="st3" d="M60.28,90.12c-1.56-1.23-3.35-1.65-5.3-1.65c-1.7,0-3.35-0.06-4.96,0.62c-2.06,0.88-3.65,2.68-4.28,4.83
				c-0.43,1.45-0.3,3.04-0.3,4.54c0.01,2.05,0.75,4.02,2.22,5.48c1.48,1.48,3.45,2.21,5.53,2.22c1.48,0,3.06,0.13,4.5-0.3
				c2.46-0.73,4.43-2.7,5.16-5.16c0.44-1.5,0.3-3.15,0.3-4.69C63.1,93.72,62.08,91.55,60.28,90.12z"/>
			<path class="st3" d="M103.65,68.4c-1.09-0.39-2.21-0.41-3.34-0.41c-3,0-6,0-9.01,0c-6.63,0-13.25-0.03-19.88-0.01
				c-2.1,0.01-4.12,0.76-5.6,2.28c-1.04,1.07-1.78,2.46-2.03,3.93c-0.17,0.99-0.12,1.99-0.12,2.99c0,1.09,0.01,2.17,0.35,3.22
				c0.49,1.48,1.4,2.78,2.63,3.72c1.45,1.11,3.15,1.57,4.95,1.57c6.81,0,13.62,0,20.43,0c2.85,0,5.7,0,8.56,0
				c1.48,0,2.91-0.23,4.23-0.95c2.51-1.37,3.9-4.03,3.91-6.85c0-0.79,0-1.58,0-2.36C108.69,72.31,106.68,69.49,103.65,68.4z"/>
			<path class="st3" d="M60.28,69.63c-1.56-1.23-3.35-1.65-5.3-1.65c-1.7,0-3.35-0.06-4.96,0.62c-2.06,0.88-3.65,2.68-4.28,4.83
				c-0.43,1.45-0.3,3.04-0.3,4.54c0.01,2.05,0.75,4.02,2.22,5.48c1.48,1.48,3.45,2.21,5.53,2.22c1.48,0,3.06,0.13,4.5-0.3
				c2.46-0.73,4.43-2.7,5.16-5.16c0.44-1.5,0.3-3.15,0.3-4.69C63.1,73.23,62.08,71.05,60.28,69.63z"/>
			<path class="st3" d="M103.65,47.9c-1.09-0.39-2.21-0.41-3.34-0.41c-3,0-6,0-9.01,0c-6.63,0-13.25-0.03-19.88-0.01
				c-2.1,0.01-4.12,0.76-5.6,2.28c-1.04,1.07-1.78,2.46-2.03,3.93c-0.17,0.99-0.12,1.99-0.12,2.99c0,1.09,0.01,2.17,0.35,3.22
				c0.49,1.48,1.4,2.78,2.63,3.72c1.45,1.11,3.15,1.57,4.95,1.57c6.81,0,13.62,0,20.43,0c2.85,0,5.7,0,8.56,0
				c1.48,0,2.91-0.23,4.23-0.95c2.51-1.37,3.9-4.03,3.91-6.85c0-0.79,0-1.58,0-2.36C108.69,51.82,106.68,49,103.65,47.9z"/>
			<path class="st3" d="M60.28,49.13c-1.56-1.23-3.35-1.65-5.3-1.65c-1.7,0-3.35-0.06-4.96,0.62c-2.06,0.88-3.65,2.68-4.28,4.83
				c-0.43,1.45-0.3,3.04-0.3,4.54c0.01,2.05,0.75,4.02,2.22,5.48c1.48,1.48,3.45,2.21,5.53,2.22c1.48,0,3.06,0.13,4.5-0.3
				c2.46-0.73,4.43-2.7,5.16-5.16c0.44-1.5,0.3-3.15,0.3-4.69C63.1,52.74,62.08,50.56,60.28,49.13z"/>
		</g>
		<g>
			<path class="st4" d="M103.65,85.81c-1.09-0.39-2.21-0.41-3.34-0.41c-3,0-6,0-9.01,0c-6.63,0-13.25-0.03-19.88-0.01
				c-2.1,0.01-4.12,0.76-5.6,2.28c-1.04,1.07-1.78,2.46-2.03,3.93c-0.17,0.99-0.12,1.99-0.12,2.99c0,1.09,0.01,2.17,0.35,3.22
				c0.49,1.48,1.4,2.78,2.63,3.72c1.45,1.11,3.15,1.57,4.95,1.57c6.81,0,13.62,0,20.43,0c2.85,0,5.7,0,8.56,0
				c1.48,0,2.91-0.23,4.23-0.95c2.51-1.37,3.9-4.03,3.91-6.85c0-0.79,0-1.58,0-2.36C108.69,89.73,106.68,86.91,103.65,85.81z"/>
			<path class="st4" d="M60.28,87.05c-1.56-1.23-3.35-1.65-5.3-1.65c-1.7,0-3.35-0.06-4.96,0.62c-2.06,0.88-3.65,2.68-4.28,4.83
				c-0.43,1.45-0.3,3.04-0.3,4.54c0.01,2.05,0.75,4.02,2.22,5.49c1.48,1.48,3.45,2.21,5.53,2.22c1.48,0,3.06,0.13,4.5-0.3
				c2.46-0.73,4.43-2.7,5.16-5.16c0.44-1.5,0.3-3.15,0.3-4.69C63.1,90.65,62.08,88.47,60.28,87.05z"/>
			<path class="st4" d="M103.65,65.32c-1.09-0.39-2.21-0.41-3.34-0.41c-3,0-6,0-9.01,0c-6.63,0-13.25-0.03-19.88-0.01
				c-2.1,0.01-4.12,0.76-5.6,2.28c-1.04,1.07-1.78,2.46-2.03,3.93c-0.17,0.99-0.12,1.99-0.12,2.99c0,1.09,0.01,2.17,0.35,3.22
				c0.49,1.48,1.4,2.78,2.63,3.72c1.45,1.11,3.15,1.57,4.95,1.57c6.81,0,13.62,0,20.43,0c2.85,0,5.7,0,8.56,0
				c1.48,0,2.91-0.23,4.23-0.95c2.51-1.37,3.9-4.03,3.91-6.85c0-0.79,0-1.58,0-2.36C108.69,69.24,106.68,66.42,103.65,65.32z"/>
			<path class="st4" d="M60.28,66.55c-1.56-1.23-3.35-1.65-5.3-1.65c-1.7,0-3.35-0.06-4.96,0.62c-2.06,0.88-3.65,2.68-4.28,4.83
				c-0.43,1.45-0.3,3.04-0.3,4.54c0.01,2.05,0.75,4.02,2.22,5.49c1.48,1.48,3.45,2.21,5.53,2.22c1.48,0,3.06,0.13,4.5-0.3
				c2.46-0.73,4.43-2.7,5.16-5.16c0.44-1.5,0.3-3.15,0.3-4.69C63.1,70.16,62.08,67.98,60.28,66.55z"/>
			<path class="st4" d="M103.65,44.83c-1.09-0.39-2.21-0.41-3.34-0.41c-3,0-6,0-9.01,0c-6.63,0-13.25-0.03-19.88-0.01
				c-2.1,0.01-4.12,0.76-5.6,2.28c-1.04,1.07-1.78,2.46-2.03,3.93c-0.17,0.99-0.12,1.99-0.12,2.99c0,1.09,0.01,2.17,0.35,3.22
				c0.49,1.48,1.4,2.78,2.63,3.72c1.45,1.11,3.15,1.57,4.95,1.57c6.81,0,13.62,0,20.43,0c2.85,0,5.7,0,8.56,0
				c1.48,0,2.91-0.23,4.23-0.95c2.51-1.37,3.9-4.03,3.91-6.85c0-0.79,0-1.58,0-2.36C108.69,48.74,106.68,45.93,103.65,44.83z"/>
			<path class="st4" d="M60.28,46.06c-1.56-1.23-3.35-1.65-5.3-1.65c-1.7,0-3.35-0.06-4.96,0.62c-2.06,0.88-3.65,2.68-4.28,4.83
				c-0.43,1.45-0.3,3.04-0.3,4.54c0.01,2.05,0.75,4.02,2.22,5.49c1.48,1.48,3.45,2.21,5.53,2.22c1.48,0,3.06,0.13,4.5-0.3
				c2.46-0.73,4.43-2.7,5.16-5.16c0.44-1.5,0.3-3.15,0.3-4.69C63.1,49.66,62.08,47.49,60.28,46.06z"/>
		</g>
	</g>
</g>
</svg>
