<?xml version="1.0" encoding="utf-8"?>
<!-- Generator: Adobe Illustrator 24.1.0, SVG Export Plug-In . SVG Version: 6.00 Build 0)  -->
<svg version="1.1" id="Layer_1" xmlns="http://www.w3.org/2000/svg" xmlns:xlink="http://www.w3.org/1999/xlink" x="0px" y="0px"
	 viewBox="0 0 600 600" style="enable-background:new 0 0 600 600;" xml:space="preserve">
<style type="text/css">
	.st0{opacity:0.25;fill:#FFFFFF;}
	.st1{opacity:0.19;fill:#FFFFFF;}
	.st2{fill:#3F150C;}
	.st3{fill:url(#SVGID_1_);}
	.st4{fill:#772215;}
	.st5{filter:url(#Adobe_OpacityMaskFilter);}
	.st6{filter:url(#Adobe_OpacityMaskFilter_1_);}
	.st7{mask:url(#SVGID_2_);fill:url(#SVGID_3_);}
	.st8{fill:url(#SVGID_4_);}
	.st9{filter:url(#Adobe_OpacityMaskFilter_2_);}
	.st10{filter:url(#Adobe_OpacityMaskFilter_3_);}
	.st11{mask:url(#SVGID_5_);fill:url(#SVGID_6_);}
	.st12{fill:url(#SVGID_7_);}
	.st13{filter:url(#Adobe_OpacityMaskFilter_4_);}
	.st14{filter:url(#Adobe_OpacityMaskFilter_5_);}
	.st15{mask:url(#SVGID_8_);fill:url(#SVGID_9_);}
	.st16{fill:url(#SVGID_10_);}
	.st17{filter:url(#Adobe_OpacityMaskFilter_6_);}
	.st18{filter:url(#Adobe_OpacityMaskFilter_7_);}
	.st19{mask:url(#SVGID_11_);fill:url(#SVGID_12_);}
	.st20{fill:url(#SVGID_13_);}
	.st21{filter:url(#Adobe_OpacityMaskFilter_8_);}
	.st22{filter:url(#Adobe_OpacityMaskFilter_9_);}
	.st23{mask:url(#SVGID_14_);fill:url(#SVGID_15_);}
	.st24{fill:url(#SVGID_16_);}
</style>
<g>
	<g>
		<g>
			<path class="st0" d="M419.22,93.11c0,0-15.93-11.03-22.06,9.8c-6.13,20.84,23.29,25.74,33.09,30.64
				c9.81,4.9,79.67,45.35,85.8,161.8c0,0-1.22,53.93,4.9,57.61c6.13,3.68,17.16,8.58,17.16-9.81
				C538.11,324.78,569.98,167.88,419.22,93.11z"/>
			<path class="st0" d="M68.61,243.31c0,0-2.6,15.02,8.05,13.78c11.18-1.29,7.52-24.74,7.85-32.71c0.31-7.6,4.23-54.45,46.93-86.99
				c0,0,21.55-14.08,21.1-17.14c-0.44-2.99-1.86-7.74-8.82-2.91C136.83,122.12,76.38,149.52,68.61,243.31z"/>
		</g>
		<path class="st1" d="M238.86,355.06c0,0,4.18,171.83,94.37,211.7c36.86-4,110.58-22.55,169.21-90.47
			c10.83-12.55-30.57-41.18-104.66-205.73L238.86,355.06z"/>
	</g>
	<g>
		<g>
			<path class="st2" d="M409.98,267.64c13.96,16.55,19.52,24.49,22.95,35.96c3.43,11.46-12.28,37.08-54.84,71.04
				c-42.54,33.98-78.78,70.15-104.13,69.94c-25.37-0.22-25.89-21.68-25.78-37.41c0,0-19.8,11.28-33.93,15.45
				c-14.13,4.18-35.89-6.73-37.02-38.92c-1.16-32.21,76.28-110.23,76.28-110.23L409.98,267.64z"/>
			
				<radialGradient id="SVGID_1_" cx="226.3721" cy="213.5562" r="215.6291" gradientTransform="matrix(1.0087 8.500000e-03 -8.400000e-03 1.0238 1.4551 -15.2532)" gradientUnits="userSpaceOnUse">
				<stop  offset="0.1197" style="stop-color:#F7EE5B"/>
				<stop  offset="0.578" style="stop-color:#ED6D23"/>
				<stop  offset="0.9649" style="stop-color:#ED4924"/>
			</radialGradient>
			<path class="st3" d="M255.85,246.09c0,0,2.12-31.45,5.01-40.96c2.91-9.53,5.87-28.58,43.3-10.14
				c37.41,18.44,98.07,70.43,107.39,80.07c9.3,9.6,19.52,25.91-6.04,49.51c-25.58,23.64-97.48,86.93-121.06,98.17
				c-23.58,11.24-33.8-4.1-31.71-29.83c0,0-20.71,5.54-36.71,10.18c-16.01,4.64-29.17,4.53-32.68-25.07
				c-3.52-29.58,0.8-98.2,6.67-127.71c5.87-29.51,25.5-15.99,34.88-13.05C234.29,240.18,255.85,246.09,255.85,246.09z"/>
			<path class="st4" d="M424.43,292.26c-1.45-14.35-14.67-24.64-24.42-33.61c-9.88-9.08-20.1-17.9-30.74-26.06
				c-13.57-10.42-27.35-20.43-41.81-29.55c-11.18-7.03-23.54-14.24-36.37-17.62c-13.16-3.47-26.43-1.79-31.17,12.92
				c-4.62,14.97-4.42,31.41-4.62,46.94c-9.82-3.47-19.97-6.38-29.7-10.12c-7.48-2.95-14.8-7.7-23.19-6.24
				c-8.02,2.13-11.46,7.66-14.56,15.19c-8.37,26.56-9.21,56.24-10.87,83.81c-0.78,12.88-1.29,26.15-0.43,39.05
				c0.93,14.02,1.4,32.85,14.6,41.14c14.39,9.02,41.25-3.67,56.15-7.98c0.39,15.84,7.25,31.8,25.19,31
				c5.22-0.22,10.42-2.55,15.01-4.98c21.98-11.65,40.86-30.78,59.5-47.22c13.09-11.52,26.15-23.06,39.22-34.6
				C401.11,331.2,427.13,314.97,424.43,292.26C423.81,286.22,425.14,298.25,424.43,292.26z M416.36,306.84
				c-4.4,9.75-12.88,17.08-20.56,24.14c-9.64,8.85-19.44,17.54-29.4,26.02c-18.14,15.49-36.84,30.37-56.2,44.24
				c-9.77,6.97-20.58,16.16-32.51,19.24c-22.11,5.7-20.24-19.63-18.94-34.75c-14.3,3.77-28.58,7.59-42.89,11.35
				c-4.88,1.27-10.23,2.98-15.29,1.9c-8.78-1.77-10.46-14.75-11.2-22.05c-1.01-10.03-1.45-20.09-1.42-30.18
				c0.08-31.69,0.58-64.31,5.87-95.65c0.73-3.47,1.53-9.17,4.29-12.15c6-9.02,18.62-1.75,26.28,0.43c10.5,2.91,21.31,5.03,31.93,7.4
				c2.16-15.47,3.47-31.76,9.06-46.44c5.01-12.75,17.95-9.68,28.09-5.5c13.5,5.55,25.67,14.09,37.75,22.18
				c13.37,8.91,26.08,19.03,38.72,28.97c9.56,7.53,19.16,15.04,28.56,22.8C410.08,278.35,424.11,289.93,416.36,306.84
				C414.35,311.29,418.39,302.4,416.36,306.84z"/>
			<defs>
				<filter id="Adobe_OpacityMaskFilter" filterUnits="userSpaceOnUse" x="191.37" y="236.13" width="68.54" height="52.31">
					<feFlood  style="flood-color:white;flood-opacity:1" result="back"/>
					<feBlend  in="SourceGraphic" in2="back" mode="normal"/>
				</filter>
			</defs>
			<mask maskUnits="userSpaceOnUse" x="191.37" y="236.13" width="68.54" height="52.31" id="SVGID_2_">
				<g class="st5">
					<defs>
						<filter id="Adobe_OpacityMaskFilter_1_" filterUnits="userSpaceOnUse" x="191.37" y="236.13" width="68.54" height="52.31">
							<feFlood  style="flood-color:white;flood-opacity:1" result="back"/>
							<feBlend  in="SourceGraphic" in2="back" mode="normal"/>
						</filter>
					</defs>
					<mask maskUnits="userSpaceOnUse" x="191.37" y="236.13" width="68.54" height="52.31" id="SVGID_2_">
						<g class="st6">
						</g>
					</mask>
					
						<radialGradient id="SVGID_3_" cx="202.2685" cy="238.7929" r="49.6692" gradientTransform="matrix(1.0087 8.500000e-03 -8.400000e-03 1.0238 1.4551 -15.2532)" gradientUnits="userSpaceOnUse">
						<stop  offset="0.431" style="stop-color:#FFFFFF"/>
						<stop  offset="0.9925" style="stop-color:#000000"/>
					</radialGradient>
					<path class="st7" d="M253.71,249.16c-19.69-4.46-42.86-15.38-52.05-12.58c-9.17,2.76-9.41,32.08-10.23,46.38
						c-0.82,14.32,6.36-2.8,13.5-12.75c7.12-9.95,21.96-15.55,36.76-14.73C256.47,256.34,267.24,252.22,253.71,249.16z"/>
				</g>
			</mask>
			
				<radialGradient id="SVGID_4_" cx="202.2685" cy="238.7929" r="49.6692" gradientTransform="matrix(1.0087 8.500000e-03 -8.400000e-03 1.0238 1.4551 -15.2532)" gradientUnits="userSpaceOnUse">
				<stop  offset="0.431" style="stop-color:#FFFFFF"/>
				<stop  offset="0.9925" style="stop-color:#FAF06B"/>
			</radialGradient>
			<path class="st8" d="M253.71,249.16c-19.69-4.46-42.86-15.38-52.05-12.58c-9.17,2.76-9.41,32.08-10.23,46.38
				c-0.82,14.32,6.36-2.8,13.5-12.75c7.12-9.95,21.96-15.55,36.76-14.73C256.47,256.34,267.24,252.22,253.71,249.16z"/>
			<defs>
				<filter id="Adobe_OpacityMaskFilter_2_" filterUnits="userSpaceOnUse" x="260.83" y="192.06" width="108.25" height="58.98">
					<feFlood  style="flood-color:white;flood-opacity:1" result="back"/>
					<feBlend  in="SourceGraphic" in2="back" mode="normal"/>
				</filter>
			</defs>
			<mask maskUnits="userSpaceOnUse" x="260.83" y="192.06" width="108.25" height="58.98" id="SVGID_5_">
				<g class="st9">
					<defs>
						<filter id="Adobe_OpacityMaskFilter_3_" filterUnits="userSpaceOnUse" x="260.83" y="192.06" width="108.25" height="58.98">
							<feFlood  style="flood-color:white;flood-opacity:1" result="back"/>
							<feBlend  in="SourceGraphic" in2="back" mode="normal"/>
						</filter>
					</defs>
					<mask maskUnits="userSpaceOnUse" x="260.83" y="192.06" width="108.25" height="58.98" id="SVGID_5_">
						<g class="st10">
						</g>
					</mask>
					
						<radialGradient id="SVGID_6_" cx="277.5548" cy="194.5876" r="67.9981" gradientTransform="matrix(1.0087 8.500000e-03 -8.400000e-03 1.0238 1.4551 -15.2532)" gradientUnits="userSpaceOnUse">
						<stop  offset="0.1451" style="stop-color:#FFFFFF"/>
						<stop  offset="0.9925" style="stop-color:#000000"/>
					</radialGradient>
					<path class="st11" d="M260.83,239.92c0.09-11.43,1.72-36.46,9.53-44.96c7.81-8.52,33.31,2.63,60.87,22.07
						c27.57,19.42,52.05,42.52,28.19,30.87c-23.86-11.63-63.81-37-75.8-36.39C271.63,212.12,260.83,239.92,260.83,239.92z"/>
				</g>
			</mask>
			
				<radialGradient id="SVGID_7_" cx="277.5548" cy="194.5876" r="67.9981" gradientTransform="matrix(1.0087 8.500000e-03 -8.400000e-03 1.0238 1.4551 -15.2532)" gradientUnits="userSpaceOnUse">
				<stop  offset="0.1451" style="stop-color:#FFFFFF"/>
				<stop  offset="0.9925" style="stop-color:#FAF06B"/>
			</radialGradient>
			<path class="st12" d="M260.83,239.92c0.09-11.43,1.72-36.46,9.53-44.96c7.81-8.52,33.31,2.63,60.87,22.07
				c27.57,19.42,52.05,42.52,28.19,30.87c-23.86-11.63-63.81-37-75.8-36.39C271.63,212.12,260.83,239.92,260.83,239.92z"/>
			<defs>
				<filter id="Adobe_OpacityMaskFilter_4_" filterUnits="userSpaceOnUse" x="257.47" y="322.67" width="147.6" height="98.52">
					<feFlood  style="flood-color:white;flood-opacity:1" result="back"/>
					<feBlend  in="SourceGraphic" in2="back" mode="normal"/>
				</filter>
			</defs>
			<mask maskUnits="userSpaceOnUse" x="257.47" y="322.67" width="147.6" height="98.52" id="SVGID_8_">
				<g class="st13">
					<defs>
						<filter id="Adobe_OpacityMaskFilter_5_" filterUnits="userSpaceOnUse" x="257.47" y="322.67" width="147.6" height="98.52">
							<feFlood  style="flood-color:white;flood-opacity:1" result="back"/>
							<feBlend  in="SourceGraphic" in2="back" mode="normal"/>
						</filter>
					</defs>
					<mask maskUnits="userSpaceOnUse" x="257.47" y="322.67" width="147.6" height="98.52" id="SVGID_8_">
						<g class="st14">
						</g>
					</mask>
					
						<radialGradient id="SVGID_9_" cx="308.7719" cy="351.5435" r="96.4072" gradientTransform="matrix(1.0087 8.500000e-03 -8.400000e-03 1.0238 1.4551 -15.2532)" gradientUnits="userSpaceOnUse">
						<stop  offset="0" style="stop-color:#FFFFFF"/>
						<stop  offset="0.9925" style="stop-color:#000000"/>
					</radialGradient>
					<path class="st15" d="M258.74,385.73c0,0,3.73,26.81,15.96,23.1c12.25-3.71,130.36-86.16,130.36-86.16
						c-34.1,32.6-90.13,75.24-105.92,86.37c-8.03,5.65-23.95,12.28-28.28,12.15C263.42,420.96,254.01,414.61,258.74,385.73z"/>
				</g>
			</mask>
			
				<radialGradient id="SVGID_10_" cx="308.7719" cy="351.5435" r="96.4072" gradientTransform="matrix(1.0087 8.500000e-03 -8.400000e-03 1.0238 1.4551 -15.2532)" gradientUnits="userSpaceOnUse">
				<stop  offset="0" style="stop-color:#FFFFFF"/>
				<stop  offset="0.9925" style="stop-color:#FAF06B"/>
			</radialGradient>
			<path class="st16" d="M258.74,385.73c0,0,3.73,26.81,15.96,23.1c12.25-3.71,130.36-86.16,130.36-86.16
				c-34.1,32.6-90.13,75.24-105.92,86.37c-8.03,5.65-23.95,12.28-28.28,12.15C263.42,420.96,254.01,414.61,258.74,385.73z"/>
			<defs>
				<filter id="Adobe_OpacityMaskFilter_6_" filterUnits="userSpaceOnUse" x="323.34" y="230.27" width="74.03" height="52.24">
					<feFlood  style="flood-color:white;flood-opacity:1" result="back"/>
					<feBlend  in="SourceGraphic" in2="back" mode="normal"/>
				</filter>
			</defs>
			<mask maskUnits="userSpaceOnUse" x="323.34" y="230.27" width="74.03" height="52.24" id="SVGID_11_">
				<g class="st17">
					<defs>
						<filter id="Adobe_OpacityMaskFilter_7_" filterUnits="userSpaceOnUse" x="323.34" y="230.27" width="74.03" height="52.24">
							<feFlood  style="flood-color:white;flood-opacity:1" result="back"/>
							<feBlend  in="SourceGraphic" in2="back" mode="normal"/>
						</filter>
					</defs>
					<mask maskUnits="userSpaceOnUse" x="323.34" y="230.27" width="74.03" height="52.24" id="SVGID_11_">
						<g class="st18">
						</g>
					</mask>
					
						<radialGradient id="SVGID_12_" cx="401.5085" cy="206.7658" r="51.1644" gradientTransform="matrix(1.0063 -0.0689 0.0679 1.0215 -46.5175 49.5901)" gradientUnits="userSpaceOnUse">
						<stop  offset="0.2939" style="stop-color:#FFFFFF"/>
						<stop  offset="0.9925" style="stop-color:#000000"/>
					</radialGradient>
					<path class="st19" d="M354.23,237.9c-25.18-17.11-43.98-2.72-19.39,16.39c24.57,19.11,43.75,31.41,59.02,27.5
						C409.14,277.89,370.5,248.98,354.23,237.9z"/>
				</g>
			</mask>
			
				<radialGradient id="SVGID_13_" cx="401.5085" cy="206.7658" r="51.1644" gradientTransform="matrix(1.0063 -0.0689 0.0679 1.0215 -46.5175 49.5901)" gradientUnits="userSpaceOnUse">
				<stop  offset="0.2939" style="stop-color:#FFFFFF"/>
				<stop  offset="0.9925" style="stop-color:#FAF06B"/>
			</radialGradient>
			<path class="st20" d="M354.23,237.9c-25.18-17.11-43.98-2.72-19.39,16.39c24.57,19.11,43.75,31.41,59.02,27.5
				C409.14,277.89,370.5,248.98,354.23,237.9z"/>
			<defs>
				<filter id="Adobe_OpacityMaskFilter_8_" filterUnits="userSpaceOnUse" x="393.52" y="283.76" width="22.01" height="26.15">
					<feFlood  style="flood-color:white;flood-opacity:1" result="back"/>
					<feBlend  in="SourceGraphic" in2="back" mode="normal"/>
				</filter>
			</defs>
			<mask maskUnits="userSpaceOnUse" x="393.52" y="283.76" width="22.01" height="26.15" id="SVGID_14_">
				<g class="st21">
					<defs>
						<filter id="Adobe_OpacityMaskFilter_9_" filterUnits="userSpaceOnUse" x="393.52" y="283.76" width="22.01" height="26.15">
							<feFlood  style="flood-color:white;flood-opacity:1" result="back"/>
							<feBlend  in="SourceGraphic" in2="back" mode="normal"/>
						</filter>
					</defs>
					<mask maskUnits="userSpaceOnUse" x="393.52" y="283.76" width="22.01" height="26.15" id="SVGID_14_">
						<g class="st22">
						</g>
					</mask>
					
						<radialGradient id="SVGID_15_" cx="413.0166" cy="290.5414" r="22.6913" gradientTransform="matrix(1.0087 8.500000e-03 -8.400000e-03 1.0238 1.4551 -15.2532)" gradientUnits="userSpaceOnUse">
						<stop  offset="0" style="stop-color:#FFFFFF"/>
						<stop  offset="0.9925" style="stop-color:#000000"/>
					</radialGradient>
					<path class="st23" d="M410.52,286.24c-6.62-5.37-19.35-1.96-16.63,9.51c2.72,11.48,15.01,18.72,19.29,10.89
						C417.48,298.8,415.45,290.21,410.52,286.24z"/>
				</g>
			</mask>
			
				<radialGradient id="SVGID_16_" cx="413.0166" cy="290.5414" r="22.6913" gradientTransform="matrix(1.0087 8.500000e-03 -8.400000e-03 1.0238 1.4551 -15.2532)" gradientUnits="userSpaceOnUse">
				<stop  offset="0" style="stop-color:#FFFFFF"/>
				<stop  offset="0.9925" style="stop-color:#FAF06B"/>
			</radialGradient>
			<path class="st24" d="M410.52,286.24c-6.62-5.37-19.35-1.96-16.63,9.51c2.72,11.48,15.01,18.72,19.29,10.89
				C417.48,298.8,415.45,290.21,410.52,286.24z"/>
		</g>
	</g>
</g>
</svg>
