<?xml version="1.0" encoding="utf-8"?>
<!-- Generator: Adobe Illustrator 24.1.0, SVG Export Plug-In . SVG Version: 6.00 Build 0)  -->
<svg version="1.1" id="Layer_1" xmlns="http://www.w3.org/2000/svg" xmlns:xlink="http://www.w3.org/1999/xlink" x="0px" y="0px"
	 viewBox="0 0 600 600" style="enable-background:new 0 0 600 600;" xml:space="preserve">
<style type="text/css">
	.st0{opacity:0.25;fill:#FFFFFF;}
	.st1{opacity:0.19;fill:#FFFFFF;}
	.st2{fill:#3F150C;}
	.st3{fill:url(#SVGID_1_);}
	.st4{fill:#772215;}
	.st5{filter:url(#Adobe_OpacityMaskFilter);}
	.st6{filter:url(#Adobe_OpacityMaskFilter_1_);}
	.st7{mask:url(#SVGID_2_);fill:url(#SVGID_3_);}
	.st8{fill:url(#SVGID_4_);}
	.st9{filter:url(#Adobe_OpacityMaskFilter_2_);}
	.st10{filter:url(#Adobe_OpacityMaskFilter_3_);}
	.st11{mask:url(#SVGID_5_);fill:url(#SVGID_6_);}
	.st12{fill:url(#SVGID_7_);}
	.st13{filter:url(#Adobe_OpacityMaskFilter_4_);}
	.st14{filter:url(#Adobe_OpacityMaskFilter_5_);}
	.st15{mask:url(#SVGID_8_);fill:url(#SVGID_9_);}
	.st16{fill:url(#SVGID_10_);}
	.st17{filter:url(#Adobe_OpacityMaskFilter_6_);}
	.st18{filter:url(#Adobe_OpacityMaskFilter_7_);}
	.st19{mask:url(#SVGID_11_);fill:url(#SVGID_12_);}
	.st20{fill:url(#SVGID_13_);}
	.st21{filter:url(#Adobe_OpacityMaskFilter_8_);}
	.st22{filter:url(#Adobe_OpacityMaskFilter_9_);}
	.st23{mask:url(#SVGID_14_);fill:url(#SVGID_15_);}
	.st24{fill:url(#SVGID_16_);}
</style>
<g>
	<g>
		<g>
			<path class="st0" d="M419.22,93.11c0,0-15.93-11.03-22.06,9.8c-6.13,20.84,23.29,25.74,33.09,30.64
				c9.81,4.9,79.67,45.35,85.8,161.8c0,0-1.22,53.93,4.9,57.61c6.13,3.68,17.16,8.58,17.16-9.81
				C538.11,324.78,569.98,167.88,419.22,93.11z"/>
			<path class="st0" d="M68.61,243.31c0,0-2.6,15.02,8.05,13.78c11.18-1.29,7.52-24.74,7.85-32.71c0.31-7.6,4.23-54.45,46.93-86.99
				c0,0,21.55-14.08,21.1-17.14c-0.44-2.99-1.86-7.74-8.82-2.91C136.83,122.12,76.38,149.52,68.61,243.31z"/>
		</g>
		<path class="st1" d="M238.86,355.06c0,0,4.18,171.83,94.37,211.7c36.86-4,110.58-22.55,169.21-90.47
			c10.83-12.55-30.57-41.18-104.66-205.73L238.86,355.06z"/>
	</g>
	<g>
		<g>
			<path class="st2" d="M199.51,267.64c-13.96,16.55-19.52,24.49-22.95,35.96c-3.43,11.46,12.28,37.08,54.84,71.04
				c42.54,33.98,78.78,70.15,104.13,69.94c25.37-0.22,25.89-21.68,25.78-37.41c0,0,19.8,11.28,33.93,15.45
				c14.13,4.18,35.89-6.73,37.02-38.92c1.16-32.21-76.28-110.23-76.28-110.23L199.51,267.64z"/>
			
				<radialGradient id="SVGID_1_" cx="226.3721" cy="213.5562" r="215.6291" gradientTransform="matrix(-1.0087 8.500000e-03 8.400000e-03 1.0238 608.0368 -15.2532)" gradientUnits="userSpaceOnUse">
				<stop  offset="0.1197" style="stop-color:#F7EE5B"/>
				<stop  offset="0.578" style="stop-color:#ED6D23"/>
				<stop  offset="0.9649" style="stop-color:#ED4924"/>
			</radialGradient>
			<path class="st3" d="M353.64,246.09c0,0-2.12-31.45-5.01-40.96c-2.91-9.53-5.87-28.58-43.3-10.14
				c-37.41,18.44-98.07,70.43-107.39,80.07c-9.3,9.6-19.52,25.91,6.04,49.51c25.58,23.64,97.48,86.93,121.06,98.17
				c23.58,11.24,33.8-4.1,31.71-29.83c0,0,20.71,5.54,36.71,10.18c16.01,4.64,29.17,4.53,32.68-25.07
				c3.52-29.58-0.8-98.2-6.67-127.71c-5.87-29.51-25.5-15.99-34.88-13.05C375.21,240.18,353.64,246.09,353.64,246.09z"/>
			<path class="st4" d="M185.06,292.26c-2.7,22.71,23.32,38.94,38.21,52.09c13.07,11.54,26.14,23.08,39.22,34.6
				c18.64,16.44,37.52,35.57,59.5,47.22c4.59,2.42,9.79,4.75,15.01,4.98c17.93,0.8,24.79-15.16,25.19-31
				c14.89,4.31,41.76,17,56.15,7.98c13.2-8.3,13.66-27.12,14.6-41.14c0.86-12.9,0.35-26.17-0.43-39.05
				c-1.66-27.57-2.5-57.25-10.87-83.81c-3.09-7.53-6.54-13.07-14.56-15.19c-8.39-1.45-15.71,3.3-23.19,6.24
				c-9.73,3.75-19.87,6.66-29.7,10.12c-0.21-15.53,0-31.97-4.62-46.94c-4.74-14.71-18.01-16.39-31.17-12.92
				c-12.82,3.37-25.18,10.59-36.37,17.62c-14.47,9.12-28.24,19.13-41.81,29.55c-10.64,8.17-20.86,16.98-30.74,26.06
				C199.73,267.62,186.52,277.91,185.06,292.26C184.35,298.25,185.68,286.22,185.06,292.26z M193.13,306.84
				c-7.75-16.91,6.28-28.48,17.86-38.05c9.4-7.75,19-15.27,28.56-22.8c12.64-9.94,25.35-20.06,38.72-28.97
				c12.08-8.09,24.25-16.63,37.75-22.18c10.14-4.18,23.08-7.25,28.09,5.5c5.59,14.67,6.9,30.96,9.06,46.44
				c10.63-2.37,21.44-4.49,31.93-7.4c7.66-2.18,20.28-9.45,26.28-0.43c2.76,2.98,3.56,8.69,4.29,12.15
				c5.29,31.34,5.8,63.96,5.87,95.65c0.04,10.09-0.41,20.15-1.42,30.18c-0.75,7.31-2.42,20.28-11.2,22.05
				c-5.05,1.08-10.4-0.63-15.29-1.9c-14.32-3.77-28.6-7.59-42.89-11.35c1.3,15.12,3.17,40.45-18.94,34.75
				c-11.93-3.08-22.74-12.27-32.51-19.24c-19.37-13.87-38.07-28.75-56.2-44.24c-9.95-8.48-19.76-17.17-29.4-26.02
				C206.01,323.92,197.53,316.59,193.13,306.84C191.1,302.4,195.15,311.29,193.13,306.84z"/>
			<defs>
				<filter id="Adobe_OpacityMaskFilter" filterUnits="userSpaceOnUse" x="349.59" y="236.13" width="68.54" height="52.31">
					<feFlood  style="flood-color:white;flood-opacity:1" result="back"/>
					<feBlend  in="SourceGraphic" in2="back" mode="normal"/>
				</filter>
			</defs>
			<mask maskUnits="userSpaceOnUse" x="349.59" y="236.13" width="68.54" height="52.31" id="SVGID_2_">
				<g class="st5">
					<defs>
						<filter id="Adobe_OpacityMaskFilter_1_" filterUnits="userSpaceOnUse" x="349.59" y="236.13" width="68.54" height="52.31">
							<feFlood  style="flood-color:white;flood-opacity:1" result="back"/>
							<feBlend  in="SourceGraphic" in2="back" mode="normal"/>
						</filter>
					</defs>
					<mask maskUnits="userSpaceOnUse" x="349.59" y="236.13" width="68.54" height="52.31" id="SVGID_2_">
						<g class="st6">
						</g>
					</mask>
					
						<radialGradient id="SVGID_3_" cx="202.2685" cy="238.7929" r="49.6692" gradientTransform="matrix(-1.0087 8.500000e-03 8.400000e-03 1.0238 608.0368 -15.2532)" gradientUnits="userSpaceOnUse">
						<stop  offset="0.431" style="stop-color:#FFFFFF"/>
						<stop  offset="0.9925" style="stop-color:#000000"/>
					</radialGradient>
					<path class="st7" d="M355.78,249.16c19.69-4.46,42.86-15.38,52.05-12.58c9.17,2.76,9.41,32.08,10.23,46.38
						c0.82,14.32-6.36-2.8-13.5-12.75c-7.12-9.95-21.96-15.55-36.76-14.73C353.02,256.34,342.25,252.22,355.78,249.16z"/>
				</g>
			</mask>
			
				<radialGradient id="SVGID_4_" cx="202.2685" cy="238.7929" r="49.6692" gradientTransform="matrix(-1.0087 8.500000e-03 8.400000e-03 1.0238 608.0368 -15.2532)" gradientUnits="userSpaceOnUse">
				<stop  offset="0.431" style="stop-color:#FFFFFF"/>
				<stop  offset="0.9925" style="stop-color:#FAF06B"/>
			</radialGradient>
			<path class="st8" d="M355.78,249.16c19.69-4.46,42.86-15.38,52.05-12.58c9.17,2.76,9.41,32.08,10.23,46.38
				c0.82,14.32-6.36-2.8-13.5-12.75c-7.12-9.95-21.96-15.55-36.76-14.73C353.02,256.34,342.25,252.22,355.78,249.16z"/>
			<defs>
				<filter id="Adobe_OpacityMaskFilter_2_" filterUnits="userSpaceOnUse" x="240.41" y="192.06" width="108.25" height="58.98">
					<feFlood  style="flood-color:white;flood-opacity:1" result="back"/>
					<feBlend  in="SourceGraphic" in2="back" mode="normal"/>
				</filter>
			</defs>
			<mask maskUnits="userSpaceOnUse" x="240.41" y="192.06" width="108.25" height="58.98" id="SVGID_5_">
				<g class="st9">
					<defs>
						<filter id="Adobe_OpacityMaskFilter_3_" filterUnits="userSpaceOnUse" x="240.41" y="192.06" width="108.25" height="58.98">
							<feFlood  style="flood-color:white;flood-opacity:1" result="back"/>
							<feBlend  in="SourceGraphic" in2="back" mode="normal"/>
						</filter>
					</defs>
					<mask maskUnits="userSpaceOnUse" x="240.41" y="192.06" width="108.25" height="58.98" id="SVGID_5_">
						<g class="st10">
						</g>
					</mask>
					
						<radialGradient id="SVGID_6_" cx="277.5548" cy="194.5876" r="67.9981" gradientTransform="matrix(-1.0087 8.500000e-03 8.400000e-03 1.0238 608.0368 -15.2532)" gradientUnits="userSpaceOnUse">
						<stop  offset="0.1451" style="stop-color:#FFFFFF"/>
						<stop  offset="0.9925" style="stop-color:#000000"/>
					</radialGradient>
					<path class="st11" d="M348.66,239.92c-0.09-11.43-1.72-36.46-9.53-44.96c-7.81-8.52-33.31,2.63-60.87,22.07
						c-27.57,19.42-52.05,42.52-28.19,30.87c23.86-11.63,63.81-37,75.8-36.39C337.87,212.12,348.66,239.92,348.66,239.92z"/>
				</g>
			</mask>
			
				<radialGradient id="SVGID_7_" cx="277.5548" cy="194.5876" r="67.9981" gradientTransform="matrix(-1.0087 8.500000e-03 8.400000e-03 1.0238 608.0368 -15.2532)" gradientUnits="userSpaceOnUse">
				<stop  offset="0.1451" style="stop-color:#FFFFFF"/>
				<stop  offset="0.9925" style="stop-color:#FAF06B"/>
			</radialGradient>
			<path class="st12" d="M348.66,239.92c-0.09-11.43-1.72-36.46-9.53-44.96c-7.81-8.52-33.31,2.63-60.87,22.07
				c-27.57,19.42-52.05,42.52-28.19,30.87c23.86-11.63,63.81-37,75.8-36.39C337.87,212.12,348.66,239.92,348.66,239.92z"/>
			<defs>
				<filter id="Adobe_OpacityMaskFilter_4_" filterUnits="userSpaceOnUse" x="204.43" y="322.67" width="147.6" height="98.52">
					<feFlood  style="flood-color:white;flood-opacity:1" result="back"/>
					<feBlend  in="SourceGraphic" in2="back" mode="normal"/>
				</filter>
			</defs>
			<mask maskUnits="userSpaceOnUse" x="204.43" y="322.67" width="147.6" height="98.52" id="SVGID_8_">
				<g class="st13">
					<defs>
						<filter id="Adobe_OpacityMaskFilter_5_" filterUnits="userSpaceOnUse" x="204.43" y="322.67" width="147.6" height="98.52">
							<feFlood  style="flood-color:white;flood-opacity:1" result="back"/>
							<feBlend  in="SourceGraphic" in2="back" mode="normal"/>
						</filter>
					</defs>
					<mask maskUnits="userSpaceOnUse" x="204.43" y="322.67" width="147.6" height="98.52" id="SVGID_8_">
						<g class="st14">
						</g>
					</mask>
					
						<radialGradient id="SVGID_9_" cx="308.7719" cy="351.5435" r="96.4072" gradientTransform="matrix(-1.0087 8.500000e-03 8.400000e-03 1.0238 608.0368 -15.2532)" gradientUnits="userSpaceOnUse">
						<stop  offset="0" style="stop-color:#FFFFFF"/>
						<stop  offset="0.9925" style="stop-color:#000000"/>
					</radialGradient>
					<path class="st15" d="M350.75,385.73c0,0-3.73,26.81-15.96,23.1c-12.25-3.71-130.36-86.16-130.36-86.16
						c34.1,32.6,90.13,75.24,105.92,86.37c8.03,5.65,23.95,12.28,28.28,12.15C346.07,420.96,355.48,414.61,350.75,385.73z"/>
				</g>
			</mask>
			
				<radialGradient id="SVGID_10_" cx="308.7719" cy="351.5435" r="96.4072" gradientTransform="matrix(-1.0087 8.500000e-03 8.400000e-03 1.0238 608.0368 -15.2532)" gradientUnits="userSpaceOnUse">
				<stop  offset="0" style="stop-color:#FFFFFF"/>
				<stop  offset="0.9925" style="stop-color:#FAF06B"/>
			</radialGradient>
			<path class="st16" d="M350.75,385.73c0,0-3.73,26.81-15.96,23.1c-12.25-3.71-130.36-86.16-130.36-86.16
				c34.1,32.6,90.13,75.24,105.92,86.37c8.03,5.65,23.95,12.28,28.28,12.15C346.07,420.96,355.48,414.61,350.75,385.73z"/>
			<defs>
				<filter id="Adobe_OpacityMaskFilter_6_" filterUnits="userSpaceOnUse" x="212.13" y="230.27" width="74.03" height="52.24">
					<feFlood  style="flood-color:white;flood-opacity:1" result="back"/>
					<feBlend  in="SourceGraphic" in2="back" mode="normal"/>
				</filter>
			</defs>
			<mask maskUnits="userSpaceOnUse" x="212.13" y="230.27" width="74.03" height="52.24" id="SVGID_11_">
				<g class="st17">
					<defs>
						<filter id="Adobe_OpacityMaskFilter_7_" filterUnits="userSpaceOnUse" x="212.13" y="230.27" width="74.03" height="52.24">
							<feFlood  style="flood-color:white;flood-opacity:1" result="back"/>
							<feBlend  in="SourceGraphic" in2="back" mode="normal"/>
						</filter>
					</defs>
					<mask maskUnits="userSpaceOnUse" x="212.13" y="230.27" width="74.03" height="52.24" id="SVGID_11_">
						<g class="st18">
						</g>
					</mask>
					
						<radialGradient id="SVGID_12_" cx="401.5085" cy="206.7658" r="51.1644" gradientTransform="matrix(-1.0063 -0.0689 -0.0679 1.0215 656.0094 49.5901)" gradientUnits="userSpaceOnUse">
						<stop  offset="0.2939" style="stop-color:#FFFFFF"/>
						<stop  offset="0.9925" style="stop-color:#000000"/>
					</radialGradient>
					<path class="st19" d="M255.27,237.9c25.18-17.11,43.97-2.72,19.39,16.39c-24.57,19.11-43.75,31.41-59.02,27.5
						C200.35,277.89,238.99,248.98,255.27,237.9z"/>
				</g>
			</mask>
			
				<radialGradient id="SVGID_13_" cx="401.5085" cy="206.7658" r="51.1644" gradientTransform="matrix(-1.0063 -0.0689 -0.0679 1.0215 656.0094 49.5901)" gradientUnits="userSpaceOnUse">
				<stop  offset="0.2939" style="stop-color:#FFFFFF"/>
				<stop  offset="0.9925" style="stop-color:#FAF06B"/>
			</radialGradient>
			<path class="st20" d="M255.27,237.9c25.18-17.11,43.97-2.72,19.39,16.39c-24.57,19.11-43.75,31.41-59.02,27.5
				C200.35,277.89,238.99,248.98,255.27,237.9z"/>
			<defs>
				<filter id="Adobe_OpacityMaskFilter_8_" filterUnits="userSpaceOnUse" x="193.96" y="283.76" width="22.01" height="26.15">
					<feFlood  style="flood-color:white;flood-opacity:1" result="back"/>
					<feBlend  in="SourceGraphic" in2="back" mode="normal"/>
				</filter>
			</defs>
			<mask maskUnits="userSpaceOnUse" x="193.96" y="283.76" width="22.01" height="26.15" id="SVGID_14_">
				<g class="st21">
					<defs>
						<filter id="Adobe_OpacityMaskFilter_9_" filterUnits="userSpaceOnUse" x="193.96" y="283.76" width="22.01" height="26.15">
							<feFlood  style="flood-color:white;flood-opacity:1" result="back"/>
							<feBlend  in="SourceGraphic" in2="back" mode="normal"/>
						</filter>
					</defs>
					<mask maskUnits="userSpaceOnUse" x="193.96" y="283.76" width="22.01" height="26.15" id="SVGID_14_">
						<g class="st22">
						</g>
					</mask>
					
						<radialGradient id="SVGID_15_" cx="413.0166" cy="290.5414" r="22.6913" gradientTransform="matrix(-1.0087 8.500000e-03 8.400000e-03 1.0238 608.0368 -15.2532)" gradientUnits="userSpaceOnUse">
						<stop  offset="0" style="stop-color:#FFFFFF"/>
						<stop  offset="0.9925" style="stop-color:#000000"/>
					</radialGradient>
					<path class="st23" d="M198.97,286.24c6.62-5.37,19.35-1.96,16.63,9.51c-2.72,11.48-15.01,18.72-19.29,10.89
						C192.01,298.8,194.05,290.21,198.97,286.24z"/>
				</g>
			</mask>
			
				<radialGradient id="SVGID_16_" cx="413.0166" cy="290.5414" r="22.6913" gradientTransform="matrix(-1.0087 8.500000e-03 8.400000e-03 1.0238 608.0368 -15.2532)" gradientUnits="userSpaceOnUse">
				<stop  offset="0" style="stop-color:#FFFFFF"/>
				<stop  offset="0.9925" style="stop-color:#FAF06B"/>
			</radialGradient>
			<path class="st24" d="M198.97,286.24c6.62-5.37,19.35-1.96,16.63,9.51c-2.72,11.48-15.01,18.72-19.29,10.89
				C192.01,298.8,194.05,290.21,198.97,286.24z"/>
		</g>
	</g>
</g>
</svg>
