<?xml version="1.0" encoding="utf-8"?>
<!-- Generator: Adobe Illustrator 24.0.3, SVG Export Plug-In . SVG Version: 6.00 Build 0)  -->
<svg version="1.1" id="Layer_1" xmlns="http://www.w3.org/2000/svg" xmlns:xlink="http://www.w3.org/1999/xlink" x="0px" y="0px"
	 viewBox="0 0 234.06 199.8" style="enable-background:new 0 0 234.06 199.8;" xml:space="preserve">
<style type="text/css">
	.st0{fill:url(#SVGID_1_);}
	.st1{fill:url(#SVGID_2_);}
	.st2{fill:url(#SVGID_3_);}
	.st3{fill:url(#SVGID_4_);}
	.st4{fill:url(#SVGID_5_);}
	.st5{fill:url(#SVGID_6_);}
	.st6{fill:url(#SVGID_7_);}
	.st7{fill:url(#SVGID_8_);}
	.st8{fill:#FFFFA7;}
	.st9{fill:url(#SVGID_9_);}
	.st10{fill:url(#SVGID_10_);}
	.st11{fill:url(#SVGID_11_);}
	.st12{fill:url(#SVGID_12_);}
	.st13{fill:url(#SVGID_13_);}
	.st14{fill:url(#SVGID_14_);}
	.st15{fill:url(#SVGID_15_);}
	.st16{fill:url(#SVGID_16_);}
	.st17{fill:url(#SVGID_17_);}
	.st18{fill:url(#SVGID_18_);}
	.st19{fill:url(#SVGID_19_);}
	.st20{fill:url(#SVGID_20_);}
	.st21{fill:url(#SVGID_21_);}
	.st22{fill:url(#SVGID_22_);}
	.st23{fill:url(#SVGID_23_);}
	.st24{fill:#B13A00;}
	.st25{fill:#DE6800;}
	.st26{fill:#671400;}
	.st27{fill:url(#SVGID_24_);}
	.st28{fill:url(#SVGID_25_);}
	.st29{fill:url(#SVGID_26_);}
	.st30{fill:url(#SVGID_27_);}
	.st31{fill:url(#SVGID_28_);}
	.st32{fill:url(#SVGID_29_);}
	.st33{fill:url(#SVGID_30_);}
	.st34{fill:url(#SVGID_31_);}
	.st35{fill:url(#SVGID_32_);}
	.st36{fill:url(#SVGID_33_);}
	.st37{fill:url(#SVGID_34_);}
	.st38{fill:url(#SVGID_35_);}
	.st39{fill:url(#SVGID_36_);}
	.st40{fill:url(#SVGID_37_);}
	.st41{fill:url(#SVGID_38_);}
	.st42{fill:url(#SVGID_39_);}
	.st43{fill:url(#SVGID_40_);}
	.st44{fill:url(#SVGID_41_);}
	.st45{fill:url(#SVGID_42_);}
	.st46{fill:url(#SVGID_43_);}
	.st47{fill:url(#SVGID_44_);}
	.st48{fill:url(#SVGID_45_);}
	.st49{fill:url(#SVGID_46_);}
	.st50{fill:url(#SVGID_47_);}
	.st51{fill:url(#SVGID_48_);}
	.st52{fill:url(#SVGID_49_);}
	.st53{fill:url(#SVGID_50_);}
	.st54{fill:url(#SVGID_51_);}
	.st55{fill:url(#SVGID_52_);}
	.st56{fill:url(#SVGID_53_);}
	.st57{fill:url(#SVGID_54_);}
	.st58{fill:url(#SVGID_55_);}
	.st59{fill:url(#SVGID_56_);}
	.st60{fill:url(#SVGID_57_);}
	.st61{fill:url(#SVGID_58_);}
	.st62{fill:url(#SVGID_59_);}
	.st63{fill:url(#SVGID_60_);}
	.st64{fill:url(#SVGID_61_);}
	.st65{fill:url(#SVGID_62_);}
	.st66{fill:url(#SVGID_63_);}
	.st67{fill:url(#SVGID_64_);}
	.st68{fill:url(#SVGID_65_);}
	.st69{fill:url(#SVGID_66_);}
	.st70{fill:url(#SVGID_67_);}
	.st71{fill:url(#SVGID_68_);}
	.st72{fill:url(#SVGID_69_);}
	.st73{fill:url(#SVGID_70_);}
	.st74{fill:url(#SVGID_71_);}
	.st75{fill:url(#SVGID_72_);}
	.st76{fill:url(#SVGID_73_);}
	.st77{fill:url(#SVGID_74_);}
	.st78{fill:url(#SVGID_75_);}
	.st79{fill:url(#SVGID_76_);}
	.st80{fill:url(#SVGID_77_);}
	.st81{fill:url(#SVGID_78_);}
	.st82{fill:url(#SVGID_79_);}
	.st83{fill:url(#SVGID_80_);}
	.st84{fill:url(#SVGID_81_);}
	.st85{fill:url(#SVGID_82_);}
	.st86{fill:url(#SVGID_83_);}
	.st87{fill:url(#SVGID_84_);}
	.st88{fill:url(#SVGID_85_);}
	.st89{fill:url(#SVGID_86_);}
	.st90{fill:url(#SVGID_87_);}
	.st91{fill:url(#SVGID_88_);}
	.st92{fill:url(#SVGID_89_);}
	.st93{fill:url(#SVGID_90_);}
	.st94{fill:url(#SVGID_91_);}
	.st95{fill:url(#SVGID_92_);}
	.st96{fill:url(#SVGID_93_);}
</style>
<g>
	<g>
		<g>
			<linearGradient id="SVGID_1_" gradientUnits="userSpaceOnUse" x1="184.6766" y1="84.8844" x2="179.5531" y2="81.5907">
				<stop  offset="0" style="stop-color:#F7A800"/>
				<stop  offset="1" style="stop-color:#FFED30"/>
			</linearGradient>
			<path class="st0" d="M178.64,84.16c3.67,3.19,9,3.97,13.42,5.37l-0.49-0.73c-1.77-1.62-3.37-3.76-5.31-5.43
				c-1.67-1.44-3.68-3.51-5.79-4.27C176.07,77.5,176,81.85,178.64,84.16z"/>
			<linearGradient id="SVGID_2_" gradientUnits="userSpaceOnUse" x1="189.7785" y1="107.5339" x2="183.923" y2="103.1423">
				<stop  offset="0" style="stop-color:#F7A800"/>
				<stop  offset="1" style="stop-color:#FFED30"/>
			</linearGradient>
			<path class="st1" d="M185.59,100.86c-4.52-1.51-5.07,2.06-2.67,5.14c3.58,4.61,9.85,4.39,14.16,7.51
				c-1.26-2.28-2.78-4.04-4.38-6.11C190.77,104.91,188.79,101.93,185.59,100.86z"/>
			<linearGradient id="SVGID_3_" gradientUnits="userSpaceOnUse" x1="210.65" y1="86.1532" x2="214.6756" y2="81.3956">
				<stop  offset="0" style="stop-color:#F7A800"/>
				<stop  offset="1" style="stop-color:#FFED30"/>
			</linearGradient>
			<path class="st2" d="M210.42,87.38c2.35-1.08,5.02-1.79,7.02-3.72c3.41-3.3,0.66-6.11-3.43-4.88c-2.38,0.72-4.31,2.63-5.65,4.63
				c-2.05,3.07-2.8,6.65-4.59,9.77l0.24,0.24C206.41,91.32,207.43,88.75,210.42,87.38z"/>
			<linearGradient id="SVGID_4_" gradientUnits="userSpaceOnUse" x1="218.0611" y1="157.3016" x2="228.3081" y2="160.2294">
				<stop  offset="0" style="stop-color:#F7A800"/>
				<stop  offset="1" style="stop-color:#FFED30"/>
			</linearGradient>
			<path class="st3" d="M228.07,155.39c-3.83-2.35-8.78-2.09-12.95-1.33c-3.98,0.72-7.15,2.49-10.86,4.03v0.49
				c3-1.03,7.27-0.59,10.26,0.19c3.76,0.98,7.67,3.7,11.7,3.73C231.29,162.51,231.93,157.75,228.07,155.39z"/>
			<linearGradient id="SVGID_5_" gradientUnits="userSpaceOnUse" x1="199.1048" y1="70.8296" x2="203.1304" y2="67.5358">
				<stop  offset="0" style="stop-color:#F7A800"/>
				<stop  offset="1" style="stop-color:#FFED30"/>
			</linearGradient>
			<path class="st4" d="M206.47,68.69c1.81-2.9-2.25-4.03-4.52-3.44c-2.25,0.58-3.76,2.2-4.95,4.08c-1.26,2-2.35,4.63-3.23,6.53
				l0.49,0.73c1.05-1.84,2.5-3.73,4.34-4.7C200.69,70.78,205.11,70.85,206.47,68.69z"/>
			<linearGradient id="SVGID_6_" gradientUnits="userSpaceOnUse" x1="183.3015" y1="128.5329" x2="179.2758" y2="121.9455">
				<stop  offset="0" style="stop-color:#F7A800"/>
				<stop  offset="1" style="stop-color:#FFED30"/>
			</linearGradient>
			<path class="st5" d="M180.41,118.54c-4.8-2.2-5.87,2.92-4.06,6.36c3.25,6.22,11.71,8.01,14.74,13.9l0.24-0.24
				c-0.91-3.45-2.12-6.97-3.8-10.13C185.87,125.33,183.83,120.11,180.41,118.54z"/>
			<linearGradient id="SVGID_7_" gradientUnits="userSpaceOnUse" x1="197.7399" y1="114.1636" x2="196.7655" y2="113.5087">
				<stop  offset="0" style="stop-color:#F7A800"/>
				<stop  offset="1" style="stop-color:#FFED30"/>
			</linearGradient>
			<path class="st6" d="M197.43,114.16l0.98,0.49c-0.42-0.43-0.86-0.8-1.33-1.14C197.2,113.73,197.32,113.94,197.43,114.16z"/>
			<linearGradient id="SVGID_8_" gradientUnits="userSpaceOnUse" x1="221.6525" y1="113.4395" x2="227.5079" y2="108.3159">
				<stop  offset="0" style="stop-color:#F7A800"/>
				<stop  offset="1" style="stop-color:#FFED30"/>
			</linearGradient>
			<path class="st7" d="M227.81,104.41c-3.39,1.06-6.25,3.57-8.66,6.1c-3.63,3.81-5.97,8.2-8.54,12.44l2.44-1.22
				c2.92-2.51,4.94-4.73,8.48-6.52c3.53-1.78,8.2-2.7,10.79-5.92C235.63,105.16,232.09,103.07,227.81,104.41z"/>
			<path class="st8" d="M227.95,157.36c-0.79,0.18-0.69,0.94-0.49,1.86c0.21,0.92,0.44,1.64,1.23,1.46
				c0.79-0.18,1.27-1.06,1.06-1.98C229.55,157.79,228.74,157.18,227.95,157.36z M232.51,105.61c-0.52-0.78-1.5-1.05-2.17-0.6
				c-0.68,0.45-0.31,1.13,0.22,1.91c0.52,0.78,1,1.37,1.68,0.92C232.92,107.39,233.04,106.39,232.51,105.61z M177.92,118.79
				c-0.91,0.25-1.47,1.08-1.26,1.86c0.21,0.78,0.97,0.65,1.88,0.41c0.91-0.25,1.62-0.51,1.41-1.3
				C179.74,118.98,178.83,118.54,177.92,118.79z M183.57,101.06c-0.91,0.24-1.5,0.98-1.32,1.64c0.18,0.66,0.94,0.52,1.84,0.28
				c0.91-0.24,1.62-0.5,1.44-1.16C185.36,101.16,184.48,100.82,183.57,101.06z M178.69,79.53c-0.67,0.18-1.11,0.73-0.98,1.22
				c0.13,0.49,0.7,0.39,1.37,0.21c0.67-0.18,1.2-0.37,1.07-0.86C180.02,79.6,179.37,79.35,178.69,79.53z M204.79,66.15
				c-0.64-0.28-1.33-0.12-1.53,0.35c-0.2,0.47,0.31,0.74,0.95,1.01c0.64,0.28,1.17,0.46,1.38-0.01
				C205.79,67.02,205.44,66.42,204.79,66.15z M217.23,79.68c-0.56-0.41-1.26-0.42-1.57-0.01c-0.3,0.41,0.13,0.79,0.69,1.2
				c0.56,0.41,1.04,0.71,1.34,0.3C218.01,80.77,217.8,80.1,217.23,79.68z"/>
			<linearGradient id="SVGID_9_" gradientUnits="userSpaceOnUse" x1="183.2398" y1="128.4421" x2="179.1772" y2="121.7941">
				<stop  offset="0" style="stop-color:#F77400"/>
				<stop  offset="1" style="stop-color:#FFBE30"/>
			</linearGradient>
			<path class="st9" d="M191.1,138.8c-1.75-3.35-4.98-5.42-7.98-7.55c-3.24-2.31-7.54-5.47-7.3-9.95c0.15-2.83,2.5-3.61,4.84-2.33
				c2.08,1.14,3.4,3.38,4.51,5.39c2.51,4.56,4.65,9.2,6.14,14.2c0.01,0.03,0.06,0.02,0.05-0.01c-1.11-4.63-2.94-8.85-5.06-13.1
				c-1.5-3-3.53-6.94-7.18-7.63c-2.7-0.51-4.01,1.82-3.86,4.24c0.21,3.26,2.66,5.89,5.12,7.79c3.68,2.84,8.32,4.77,10.7,8.97
				C191.09,138.82,191.1,138.81,191.1,138.8L191.1,138.8z"/>
			<linearGradient id="SVGID_10_" gradientUnits="userSpaceOnUse" x1="218.1912" y1="157.1988" x2="228.5895" y2="160.1697">
				<stop  offset="0" style="stop-color:#F77400"/>
				<stop  offset="1" style="stop-color:#FFBE30"/>
			</linearGradient>
			<path class="st10" d="M204.27,158.58c3.13-0.94,6.62-0.63,9.74,0.16c2.98,0.76,5.64,2.38,8.56,3.31c2.73,0.87,8.39,1.3,8.24-3.01
				c-0.15-4.28-6.03-5.64-9.38-5.79c-6.25-0.29-11.69,2.18-17.22,4.75c-0.1,0.04-0.03,0.21,0.07,0.17c4.96-1.89,9.4-4.03,14.81-4.32
				c2.65-0.14,5.39,0.08,7.81,1.22c1.86,0.88,4.08,2.79,3.21,5.1c-0.96,2.53-4.46,2.22-6.54,1.72c-2.44-0.6-4.68-1.77-7.03-2.63
				c-3.79-1.38-8.4-1.96-12.29-0.71C204.24,158.56,204.25,158.59,204.27,158.58L204.27,158.58z"/>
			<linearGradient id="SVGID_11_" gradientUnits="userSpaceOnUse" x1="221.7436" y1="113.3238" x2="227.6853" y2="108.1248">
				<stop  offset="0" style="stop-color:#F77400"/>
				<stop  offset="1" style="stop-color:#FFBE30"/>
			</linearGradient>
			<path class="st11" d="M213.06,121.74c2.56-2.16,4.98-4.53,7.97-6.1c2.35-1.24,4.93-1.94,7.32-3.09c2.21-1.07,8.07-5.33,4.69-8.1
				c-3.4-2.78-8.97,1.2-11.49,3.43c-4.74,4.19-7.9,9.61-11,15.04c-0.05,0.08,0.07,0.15,0.12,0.07c2.81-4.42,5.29-9.01,9.02-12.76
				c1.8-1.81,3.77-3.53,6.08-4.66c1.79-0.88,5.29-2.15,7.01-0.41c2.03,2.05-1.74,5.25-3.31,6.23c-1.92,1.2-4.08,1.93-6.15,2.82
				c-4.07,1.74-7.03,4.62-10.29,7.52C213.02,121.73,213.04,121.75,213.06,121.74L213.06,121.74z"/>
			<linearGradient id="SVGID_12_" gradientUnits="userSpaceOnUse" x1="190.4027" y1="107.9778" x2="183.9348" y2="103.1269">
				<stop  offset="0" style="stop-color:#F77400"/>
				<stop  offset="1" style="stop-color:#FFBE30"/>
			</linearGradient>
			<path class="st12" d="M198.41,114.65c-4.54-4.57-13.34-3.91-16.18-10.31c-0.87-1.95-0.25-3.91,2.23-3.49
				c2.15,0.36,3.91,1.77,5.33,3.34c1.26,1.39,2.36,2.94,3.55,4.39c1.47,1.79,2.92,3.58,4.04,5.61c0.04,0.06,0.13,0.01,0.1-0.06
				c-1.25-2.49-2.91-4.63-4.57-6.85c-1.32-1.75-2.58-3.6-4.29-5c-1.56-1.28-6.28-3.71-7.27-0.5c-0.95,3.09,2.72,6.15,5.05,7.37
				C190.35,111.21,195.05,111.48,198.41,114.65C198.41,114.66,198.42,114.65,198.41,114.65L198.41,114.65z"/>
			<linearGradient id="SVGID_13_" gradientUnits="userSpaceOnUse" x1="184.5678" y1="84.8168" x2="179.3624" y2="81.4705">
				<stop  offset="0" style="stop-color:#F77400"/>
				<stop  offset="1" style="stop-color:#FFBE30"/>
			</linearGradient>
			<path class="st13" d="M192.07,89.51c-2.84-0.94-5.76-1.65-8.54-2.79c-2.44-1-6.06-2.7-6.35-5.71c-0.17-1.75,1.24-2.2,2.74-1.82
				c1.75,0.44,3.24,1.72,4.57,2.87c2.49,2.13,4.62,4.59,7.07,6.75c0.03,0.02,0.07-0.01,0.04-0.04c-3.07-3.12-5.78-6.82-9.55-9.18
				c-1.47-0.92-4.66-2.07-5.36,0.37c-0.72,2.47,1.82,4.62,3.64,5.73c3.55,2.17,7.81,2.72,11.74,3.84
				C192.08,89.54,192.08,89.52,192.07,89.51L192.07,89.51z"/>
			<linearGradient id="SVGID_14_" gradientUnits="userSpaceOnUse" x1="199.173" y1="70.7031" x2="203.2807" y2="67.3423">
				<stop  offset="0" style="stop-color:#F77400"/>
				<stop  offset="1" style="stop-color:#FFBE30"/>
			</linearGradient>
			<path class="st14" d="M194.28,76.6c1.27-2.19,3.09-4.28,5.59-5.01c1.61-0.48,3.33-0.62,4.88-1.28c1.67-0.72,3.49-2.86,1.77-4.5
				c-1.87-1.78-5.17-1.13-7.02,0.26c-2.97,2.22-4.51,6.44-5.78,9.78c-0.02,0.06,0.07,0.1,0.1,0.04c1.56-2.9,2.61-6.26,5.08-8.55
				c1.16-1.08,2.68-1.88,4.29-1.89c1.36-0.01,3.79,0.53,3.36,2.39c-0.6,2.66-4.92,2.76-6.99,3.48c-2.53,0.88-4,3.08-5.33,5.27
				C194.23,76.6,194.26,76.62,194.28,76.6L194.28,76.6z"/>
			<linearGradient id="SVGID_15_" gradientUnits="userSpaceOnUse" x1="210.7958" y1="86.0297" x2="214.902" y2="81.177">
				<stop  offset="0" style="stop-color:#F77400"/>
				<stop  offset="1" style="stop-color:#FFBE30"/>
			</linearGradient>
			<path class="st15" d="M204.02,93.43c1.54-1.39,2.69-3.15,4.25-4.51c1.84-1.6,4.27-2.09,6.43-3.12c1.98-0.94,6.23-3.87,4.09-6.54
				c-2.15-2.69-6.53-0.43-8.41,1.35c-3.56,3.38-4.5,8.33-6.64,12.55c-0.02,0.04,0.04,0.08,0.06,0.04c1.92-3.25,2.76-7.07,5.05-10.12
				c1.21-1.61,2.79-3.08,4.71-3.77c1.47-0.53,4.94-0.97,5.07,1.46c0.11,2-2.43,3.67-3.93,4.48c-1.41,0.76-2.94,1.27-4.37,2
				c-2.73,1.38-4.17,4.12-6.33,6.17C204,93.43,204.02,93.44,204.02,93.43L204.02,93.43z"/>
			<linearGradient id="SVGID_16_" gradientUnits="userSpaceOnUse" x1="203.3785" y1="60.2452" x2="203.3785" y2="202.241">
				<stop  offset="0" style="stop-color:#610000"/>
				<stop  offset="1" style="stop-color:#F24B00"/>
			</linearGradient>
			<path class="st16" d="M195.97,149.72c-2.38-10.06-8.97-17.38-8.97-17.38c4.76,6.4,7.87,19.58,7.87,19.58L195.97,149.72z
				 M193.59,161.98l-2.01,4.03c0,0,11.53-8.6,22.69-9.88C214.27,156.13,206.03,155.95,193.59,161.98z M205.48,128.86l-0.37,4.21
				c0,0,6.59-11.71,14.64-18.66C219.76,114.41,212.99,118.25,205.48,128.86z M204.2,124.47l0.55-2.74c0,0-4.03-7.14-11.34-10.8
				C193.41,110.93,202.56,118.8,204.2,124.47z M198.71,95.93l-0.73-2.56c0,0-4.03-4.21-10.61-6.22
				C187.37,87.14,195.42,91.17,198.71,95.93z M208.78,86.41c-5.49,4.76-7.87,12.81-7.87,12.81l0.91,2.2
				C202.19,94.65,208.78,86.41,208.78,86.41z M197.61,70.68c-3.66,3.11-5.12,8.6-5.12,8.6l0.55,1.83
				C193.77,75.98,197.61,70.68,197.61,70.68z"/>
		</g>
		<g>
			<linearGradient id="SVGID_17_" gradientUnits="userSpaceOnUse" x1="190.1756" y1="64.3813" x2="190.1756" y2="116.4686">
				<stop  offset="0" style="stop-color:#B13A00"/>
				<stop  offset="1" style="stop-color:#FF7500"/>
			</linearGradient>
			<path class="st17" d="M194.75,83.42c-4.15-8.05-5.61-18.79-5.61-24.64l-1.46,0.73c0,0-0.24,12.44,5.37,24.64
				c5.61,12.2,12.2,28.55,10.25,41.23c-1.95,12.69-9.03,28.3-16.35,38.55s-14.15,26.35-13.66,29.52c0.49,3.17,7.56,6.34,7.56,6.34
				s0.24-14.88,7.32-26.59c7.08-11.71,17.32-31.72,18.79-46.36C208.41,112.21,198.9,91.47,194.75,83.42z"/>
			<g>
				<linearGradient id="SVGID_18_" gradientUnits="userSpaceOnUse" x1="193.301" y1="64.3813" x2="193.301" y2="116.4686">
					<stop  offset="0" style="stop-color:#610000"/>
					<stop  offset="1" style="stop-color:#F24B00"/>
				</linearGradient>
				<path class="st18" d="M188.16,173.21c7.08-11.71,17.32-31.72,18.79-46.36c0.15-1.47,0.18-3,0.12-4.58
					c-0.45,8.27-3.02,16.87-8.17,28.37c-5.49,12.26-11.16,20.31-14.82,27.26c-3.66,6.95-4.21,18.48-4.21,18.48l-0.36,2.76
					c0.79,0.42,1.33,0.66,1.33,0.66S181.08,184.92,188.16,173.21z"/>
				<linearGradient id="SVGID_19_" gradientUnits="userSpaceOnUse" x1="190.0875" y1="64.3813" x2="190.0875" y2="116.4685">
					<stop  offset="0" style="stop-color:#610000"/>
					<stop  offset="1" style="stop-color:#F24B00"/>
				</linearGradient>
				<path class="st19" d="M188.69,62.25c0.19,1.87,1.06,9.27,3.81,15.88c-2.45-7.01-3.37-14.71-3.37-19.35l-1.46,0.73
					c0,0-0.2,10.51,4.12,21.67c-2.65-8.45-3.44-17.05-3.58-18.73C188.36,62.37,188.51,62.3,188.69,62.25z"/>
				<linearGradient id="SVGID_20_" gradientUnits="userSpaceOnUse" x1="200.3459" y1="64.3813" x2="200.3459" y2="116.4686">
					<stop  offset="0" style="stop-color:#FF3A00"/>
					<stop  offset="1" style="stop-color:#FF9725"/>
				</linearGradient>
				<path class="st20" d="M204.38,128.32c0,0,2.56-8.78-0.73-20.86s-8.3-21.23-8.3-21.23s5,12.93,6.1,16.71
					C202.56,106.72,205.73,118.68,204.38,128.32z"/>
				<linearGradient id="SVGID_21_" gradientUnits="userSpaceOnUse" x1="189.1972" y1="64.3813" x2="189.1972" y2="116.4686">
					<stop  offset="0" style="stop-color:#FF3A00"/>
					<stop  offset="1" style="stop-color:#FF9725"/>
				</linearGradient>
				<path class="st21" d="M175.72,188.58l3.05,6.47c0,0,0.37-10.98,7.08-22.2c6.71-11.22,11.83-19.27,16.83-37.82
					c0,0-4.03,10.49-10.25,21.23C186.21,166.99,177.79,176.13,175.72,188.58z"/>
				<linearGradient id="SVGID_22_" gradientUnits="userSpaceOnUse" x1="202.7836" y1="64.3813" x2="202.7836" y2="116.4686">
					<stop  offset="0" style="stop-color:#FF9A00"/>
					<stop  offset="1" style="stop-color:#FFC156"/>
				</linearGradient>
				<path class="st22" d="M203.65,107.45c-1.04-3.81-2.25-7.33-3.42-10.37c2.01,5.72,5.2,16.49,4.92,26.65
					C205.51,120,205.51,114.25,203.65,107.45z"/>
				<linearGradient id="SVGID_23_" gradientUnits="userSpaceOnUse" x1="189.9825" y1="64.3813" x2="189.9825" y2="116.4686">
					<stop  offset="0" style="stop-color:#FF9A00"/>
					<stop  offset="1" style="stop-color:#FFC156"/>
				</linearGradient>
				<path class="st23" d="M192.43,156.25c-5.16,8.91-11.83,16.73-15.14,26.24c1.45-3.05,4.3-8.73,6.72-11.85
					c3.42-4.39,10-15,15.49-27.45c0,0-1.15,5.04-3.27,10.57c2.24-5.08,4.35-11,6.44-18.75
					C202.68,135.02,198.65,145.52,192.43,156.25z"/>
			</g>
		</g>
		<g>
			<g>
				<circle class="st24" cx="188.1" cy="56.95" r="4.12"/>
				<path class="st25" d="M191.08,57.62c0,1.65-1.33,2.98-2.98,2.98c-1.65,0-2.98-1.33-2.98-2.98
					C185.12,55.97,191.08,55.97,191.08,57.62z"/>
				<ellipse class="st26" cx="188.01" cy="54.48" rx="2.29" ry="1.37"/>
			</g>
			<g>
				<ellipse class="st24" cx="187.95" cy="54.16" rx="1.56" ry="1.33"/>
				<path class="st25" d="M189.2,53.9c0,0.59-0.55,1.07-1.22,1.07c-0.67,0-1.22-0.48-1.22-1.07c0-0.59,0.55-1.07,1.22-1.07
					C188.65,52.83,189.2,53.31,189.2,53.9z"/>
			</g>
			<g>
				<linearGradient id="SVGID_24_" gradientUnits="userSpaceOnUse" x1="177.6477" y1="45.0196" x2="162.765" y2="35.0165">
					<stop  offset="0" style="stop-color:#F79300"/>
					<stop  offset="1" style="stop-color:#FFCF00"/>
				</linearGradient>
				<path class="st27" d="M186.45,54.15c0,0-0.24-5.61-6.59-7.08c-6.34-1.46-19.76-0.98-18.79-7.08c0.98-6.1,14.88-11.95,24.89,6.34
					c0,0,2.93,3.9,3.17,6.34C189.38,55.12,186.45,54.15,186.45,54.15z"/>
				<g>
					<linearGradient id="SVGID_25_" gradientUnits="userSpaceOnUse" x1="177.3862" y1="45.4087" x2="162.5035" y2="35.4056">
						<stop  offset="0" style="stop-color:#F7A800"/>
						<stop  offset="1" style="stop-color:#FFED30"/>
					</linearGradient>
					<path class="st28" d="M174.62,41.34c-5.86-1.22-10.61-0.98-10.61-0.98c4.03,3.66,14.03,3.42,17.81,5
						c3.78,1.59,6.22,6.83,6.22,6.83C186.33,46.58,180.48,42.56,174.62,41.34z"/>
					<linearGradient id="SVGID_26_" gradientUnits="userSpaceOnUse" x1="178.7822" y1="43.3317" x2="163.8996" y2="33.3286">
						<stop  offset="0" style="stop-color:#F7A800"/>
						<stop  offset="1" style="stop-color:#FFED30"/>
					</linearGradient>
					<path class="st29" d="M179.89,41.16c0.22,0.11,0.34,0.18,0.34,0.18c-2.07-4.03-6.83-7.32-11.34-6.83s-4.88,3.78-4.88,3.78
						C171.19,37,178.29,40.34,179.89,41.16z"/>
				</g>
				<g>
					<linearGradient id="SVGID_27_" gradientUnits="userSpaceOnUse" x1="177.1213" y1="45.8028" x2="162.2386" y2="35.7997">
						<stop  offset="0" style="stop-color:#FFC500"/>
						<stop  offset="1" style="stop-color:#FFFF60"/>
					</linearGradient>
					<path class="st30" d="M176.24,41.75c-0.54-0.16-1.08-0.3-1.62-0.41c-5.86-1.22-10.61-0.98-10.61-0.98
						c2.21,2.01,6.22,2.84,10.02,3.45c-4.18-1.12-7.94-2.96-7.94-2.96C167.83,40.64,174.26,41.48,176.24,41.75z"/>
					<linearGradient id="SVGID_28_" gradientUnits="userSpaceOnUse" x1="178.782" y1="43.3321" x2="163.8993" y2="33.329">
						<stop  offset="0" style="stop-color:#FFC500"/>
						<stop  offset="1" style="stop-color:#FFFF60"/>
					</linearGradient>
					<path class="st31" d="M168.89,34.51c-4.51,0.49-4.88,3.78-4.88,3.78c2.73-0.49,5.45-0.31,7.86,0.14
						c-2.93-0.78-6.19-0.95-7.51-0.99c0.86-0.99,2.74-2.49,6.11-2.33c4.15,0.2,7.2,2.83,8.4,4.15
						C176.46,36.25,172.59,34.1,168.89,34.51z"/>
				</g>
				<g>
					<linearGradient id="SVGID_29_" gradientUnits="userSpaceOnUse" x1="177.6474" y1="45.0202" x2="162.7649" y2="35.0172">
						<stop  offset="0" style="stop-color:#DE6800"/>
						<stop  offset="1" style="stop-color:#FFAA00"/>
					</linearGradient>
					<path class="st32" d="M161.08,39.99c-0.98,6.1,12.44,5.61,18.79,7.08c6.34,1.46,6.59,7.08,6.59,7.08s2.93,0.98,2.68-1.46
						c-0.19-1.89-2-4.67-2.79-5.82c-0.12-0.13-0.25-0.27-0.38-0.4c-0.03-0.03-0.06-0.06-0.09-0.09l0.27,0.22
						c-0.12-0.16-0.19-0.26-0.19-0.26c-3.86-7.07-8.31-10.53-12.37-11.77c5.64,2.39,9.16,8.13,10.06,9.75
						c-6.58-5.32-13.79-4.93-13.79-4.93c13.37,1.92,17.53,9.35,18.77,12.93c-0.25,0.72-0.71,0.98-1.07,1.07
						c-0.35-1.05-0.98-2.35-2.08-3.87c-3.17-4.39-8.42-4.27-13.78-5.12c-5.37-0.85-9.15-2.07-9.64-4.39
						c-0.31-1.46,0.94-3.12,1.9-4.14C162.37,36.97,161.32,38.48,161.08,39.99z"/>
					<g>
						<linearGradient id="SVGID_30_" gradientUnits="userSpaceOnUse" x1="175.8287" y1="47.7261" x2="160.9462" y2="37.7231">
							<stop  offset="0" style="stop-color:#B13A00"/>
							<stop  offset="1" style="stop-color:#FF8800"/>
						</linearGradient>
						<path class="st33" d="M173.77,45.48c-6.59-0.85-8.54-1.83-10.98-3.05c-1.56-0.78-1.52-2.57-1.29-3.75
							c-0.2,0.43-0.34,0.87-0.41,1.31c-0.98,6.1,12.44,5.61,18.79,7.08c6.34,1.46,6.59,7.08,6.59,7.08s0.16,0.05,0.39,0.1
							C185.64,47.26,180.16,46.31,173.77,45.48z"/>
					</g>
				</g>
			</g>
			<g>

					<linearGradient id="SVGID_31_" gradientUnits="userSpaceOnUse" x1="2538.6978" y1="45.0197" x2="2523.8149" y2="35.0165" gradientTransform="matrix(-1 0 0 1 2737.0442 0)">
					<stop  offset="0" style="stop-color:#F79300"/>
					<stop  offset="1" style="stop-color:#FFCF00"/>
				</linearGradient>
				<path class="st34" d="M189.54,54.15c0,0,0.24-5.61,6.59-7.08c6.34-1.46,19.76-0.98,18.79-7.08c-0.98-6.1-14.88-11.95-24.89,6.34
					c0,0-2.93,3.9-3.17,6.34C186.61,55.12,189.54,54.15,189.54,54.15z"/>
				<g>

						<linearGradient id="SVGID_32_" gradientUnits="userSpaceOnUse" x1="2538.436" y1="45.4087" x2="2523.5535" y2="35.4056" gradientTransform="matrix(-1 0 0 1 2737.0442 0)">
						<stop  offset="0" style="stop-color:#F7A800"/>
						<stop  offset="1" style="stop-color:#FFED30"/>
					</linearGradient>
					<path class="st35" d="M201.37,41.34c5.86-1.22,10.61-0.98,10.61-0.98c-4.03,3.66-14.03,3.42-17.81,5
						c-3.78,1.59-6.22,6.83-6.22,6.83C189.66,46.58,195.52,42.56,201.37,41.34z"/>

						<linearGradient id="SVGID_33_" gradientUnits="userSpaceOnUse" x1="2539.832" y1="43.3317" x2="2524.9495" y2="33.3286" gradientTransform="matrix(-1 0 0 1 2737.0442 0)">
						<stop  offset="0" style="stop-color:#F7A800"/>
						<stop  offset="1" style="stop-color:#FFED30"/>
					</linearGradient>
					<path class="st36" d="M196.1,41.16c-0.22,0.11-0.34,0.18-0.34,0.18c2.07-4.03,6.83-7.32,11.35-6.83
						c4.51,0.49,4.88,3.78,4.88,3.78C204.8,37,197.71,40.34,196.1,41.16z"/>
				</g>
				<g>

						<linearGradient id="SVGID_34_" gradientUnits="userSpaceOnUse" x1="2538.1711" y1="45.8028" x2="2523.2886" y2="35.7997" gradientTransform="matrix(-1 0 0 1 2737.0442 0)">
						<stop  offset="0" style="stop-color:#FFC500"/>
						<stop  offset="1" style="stop-color:#FFFF60"/>
					</linearGradient>
					<path class="st37" d="M199.76,41.75c0.54-0.16,1.08-0.3,1.62-0.41c5.86-1.22,10.61-0.98,10.61-0.98
						c-2.21,2.01-6.22,2.84-10.02,3.45c4.18-1.12,7.94-2.96,7.94-2.96C208.16,40.64,201.73,41.48,199.76,41.75z"/>

						<linearGradient id="SVGID_35_" gradientUnits="userSpaceOnUse" x1="2539.8318" y1="43.3321" x2="2524.9492" y2="33.329" gradientTransform="matrix(-1 0 0 1 2737.0442 0)">
						<stop  offset="0" style="stop-color:#FFC500"/>
						<stop  offset="1" style="stop-color:#FFFF60"/>
					</linearGradient>
					<path class="st38" d="M207.11,34.51c4.51,0.49,4.88,3.78,4.88,3.78c-2.73-0.49-5.45-0.31-7.86,0.14
						c2.93-0.78,6.19-0.95,7.51-0.99c-0.86-0.99-2.74-2.49-6.11-2.33c-4.15,0.2-7.2,2.83-8.4,4.15
						C199.54,36.25,203.4,34.1,207.11,34.51z"/>
				</g>
				<g>

						<linearGradient id="SVGID_36_" gradientUnits="userSpaceOnUse" x1="2538.6973" y1="45.0202" x2="2523.8147" y2="35.0172" gradientTransform="matrix(-1 0 0 1 2737.0442 0)">
						<stop  offset="0" style="stop-color:#DE6800"/>
						<stop  offset="1" style="stop-color:#FFAA00"/>
					</linearGradient>
					<path class="st39" d="M214.92,39.99c0.98,6.1-12.44,5.61-18.79,7.08c-6.34,1.46-6.59,7.08-6.59,7.08s-2.93,0.98-2.68-1.46
						c0.19-1.89,2-4.67,2.79-5.82c0.12-0.13,0.25-0.27,0.38-0.4c0.03-0.03,0.06-0.06,0.09-0.09l-0.27,0.22
						c0.12-0.16,0.19-0.26,0.19-0.26c3.86-7.07,8.31-10.53,12.37-11.77c-5.64,2.39-9.16,8.13-10.06,9.75
						c6.58-5.32,13.79-4.93,13.79-4.93c-13.37,1.92-17.53,9.35-18.77,12.93c0.25,0.72,0.71,0.98,1.07,1.07
						c0.35-1.05,0.98-2.35,2.08-3.87c3.17-4.39,8.42-4.27,13.78-5.12c5.37-0.85,9.15-2.07,9.64-4.39c0.31-1.46-0.94-3.12-1.9-4.14
						C213.63,36.97,214.67,38.48,214.92,39.99z"/>
					<g>

							<linearGradient id="SVGID_37_" gradientUnits="userSpaceOnUse" x1="2536.8787" y1="47.7261" x2="2521.9961" y2="37.7231" gradientTransform="matrix(-1 0 0 1 2737.0442 0)">
							<stop  offset="0" style="stop-color:#B13A00"/>
							<stop  offset="1" style="stop-color:#FF8800"/>
						</linearGradient>
						<path class="st40" d="M202.23,45.48c6.59-0.85,8.54-1.83,10.98-3.05c1.56-0.78,1.52-2.57,1.29-3.75
							c0.2,0.43,0.34,0.87,0.41,1.31c0.98,6.1-12.44,5.61-18.79,7.08c-6.34,1.46-6.59,7.08-6.59,7.08s-0.16,0.05-0.39,0.1
							C190.35,47.26,195.83,46.31,202.23,45.48z"/>
					</g>
				</g>
			</g>
		</g>
	</g>
	<g>
		<g>
			<linearGradient id="SVGID_38_" gradientUnits="userSpaceOnUse" x1="21.2388" y1="139.2927" x2="15.2309" y2="142.7258">
				<stop  offset="0" style="stop-color:#F7A800"/>
				<stop  offset="1" style="stop-color:#FFED30"/>
			</linearGradient>
			<path class="st41" d="M19.42,135.7c-2.78,0.71-5.97,1.95-8.15,4.09c-3.98,3.9-0.55,8.73,4.53,7.82
				c7.12-1.27,7.02-12.77,15.87-11.87l0.57-0.19C28.34,133.86,23.35,134.69,19.42,135.7z"/>
			<linearGradient id="SVGID_39_" gradientUnits="userSpaceOnUse" x1="7.2233" y1="80.3666" x2="3.7901" y2="77.5055">
				<stop  offset="0" style="stop-color:#F7A800"/>
				<stop  offset="1" style="stop-color:#FFED30"/>
			</linearGradient>
			<path class="st42" d="M6.59,82.24c2.51,1.28,3.66,2.6,5.62,4.48l0.57,0.95c-0.8-1.87-1.3-3.84-2.01-5.7
				c-0.99-2.59-2.23-4.85-4.72-6.33c-1.83-1.09-6-1.58-5.87,1.54C0.31,79.85,4.54,81.19,6.59,82.24z"/>
			<linearGradient id="SVGID_40_" gradientUnits="userSpaceOnUse" x1="44.3671" y1="114.9553" x2="49.2309" y2="108.3749">
				<stop  offset="0" style="stop-color:#F7A800"/>
				<stop  offset="1" style="stop-color:#FFED30"/>
			</linearGradient>
			<path class="st43" d="M46.97,105.84c-2.62,1.92-4.67,4.6-5.92,7.59c-1.51,3.63-1.38,7.3-1.38,11.25l0.38-0.76
				c0.73-3.56,3.01-6.46,6.1-8.35c2.79-1.7,6.12-2.92,7.02-6.38C54.34,104.7,50.18,103.49,46.97,105.84z"/>
			<linearGradient id="SVGID_41_" gradientUnits="userSpaceOnUse" x1="28.3796" y1="95.7447" x2="31.5268" y2="92.0254">
				<stop  offset="0" style="stop-color:#F7A800"/>
				<stop  offset="1" style="stop-color:#FFED30"/>
			</linearGradient>
			<path class="st44" d="M30.32,88.21c-2.21,1.32-3.83,3.9-4.8,6.16c-1.34,3.11-1.1,6.42-0.72,9.71l0.19-1.14
				c1-3.29,2.91-4.69,5.91-6.34c2.54-1.39,5.72-3.09,5.72-6.44C36.63,86.54,32.53,86.88,30.32,88.21z"/>
			<linearGradient id="SVGID_42_" gradientUnits="userSpaceOnUse" x1="11.2433" y1="116.0368" x2="4.0907" y2="117.7534">
				<stop  offset="0" style="stop-color:#F7A800"/>
				<stop  offset="1" style="stop-color:#FFED30"/>
			</linearGradient>
			<path class="st45" d="M20.03,115.52l0.57,0.19c-2.32-1.37-4.43-2.18-7.06-2.48c-3.06-0.34-6.29-0.34-9.2,0.9
				c-3.38,1.44-5.36,5.89-0.52,6.74C10.4,122.03,13.69,114.65,20.03,115.52z"/>
			<linearGradient id="SVGID_43_" gradientUnits="userSpaceOnUse" x1="16.8859" y1="60.5361" x2="16.3137" y2="58.5334">
				<stop  offset="0" style="stop-color:#F7A800"/>
				<stop  offset="1" style="stop-color:#FFED30"/>
			</linearGradient>
			<path class="st46" d="M18.89,66.31c0.06-2,0.97-11.06-3.63-9.26c-3.31,1.3,2.61,6.85,3.24,8.69L18.89,66.31z"/>
			<linearGradient id="SVGID_44_" gradientUnits="userSpaceOnUse" x1="25.3412" y1="76.9099" x2="27.9162" y2="76.6238">
				<stop  offset="0" style="stop-color:#F7A800"/>
				<stop  offset="1" style="stop-color:#FFED30"/>
			</linearGradient>
			<path class="st47" d="M26.09,77.8c1.38,0.05,3.68,0.59,3.48-1.66c-0.21-2.31-3.73-2.28-5.29-1.39c-1.63,0.93-2.57,3.01-3.48,4.54
				l-0.19,0.76C22.37,78.44,23.69,77.71,26.09,77.8z"/>
			<linearGradient id="SVGID_45_" gradientUnits="userSpaceOnUse" x1="64.2038" y1="139.498" x2="72.7869" y2="139.2119">
				<stop  offset="0" style="stop-color:#F7A800"/>
				<stop  offset="1" style="stop-color:#FFED30"/>
			</linearGradient>
			<path class="st48" d="M70.75,135.53c-2.75-0.56-5.91,0.21-8.38,1.41c-2.51,1.22-4.25,4.04-5.72,6.25l0.19,0.57
				c1.74-1.4,3.74-2.59,6-2.86c3.13-0.38,6.16,1.28,9.22,0.57C76.59,140.41,74.16,136.22,70.75,135.53z"/>
			<path class="st8" d="M11.03,142.42c-0.53,0.34-0.47,1.38,0.14,2.32s1.53,1.41,2.06,1.07c0.53-0.34,0.08-1.14-0.53-2.07
				C12.09,142.8,11.56,142.08,11.03,142.42z M51.09,105.76c-0.98-0.53-2.02-0.5-2.32,0.05c-0.3,0.56,0.48,1.04,1.46,1.56
				c0.98,0.53,1.8,0.9,2.09,0.34C52.63,107.17,52.07,106.29,51.09,105.76z M34.82,88.35c-0.79-0.42-1.63-0.4-1.87,0.04
				c-0.24,0.45,0.39,0.83,1.18,1.26c0.79,0.42,1.45,0.73,1.69,0.28C36.06,89.48,35.61,88.77,34.82,88.35z M2.68,75.32
				c-0.42-0.29-1.12,0.01-1.57,0.66c-0.45,0.65-0.48,1.41-0.06,1.7c0.42,0.29,0.82-0.22,1.27-0.87C2.77,76.16,3.09,75.61,2.68,75.32
				z M15.72,57.34c-0.5,0.14-0.83,0.51-0.75,0.83c0.09,0.32,0.5,0.24,1,0.1c0.5-0.14,0.89-0.27,0.81-0.59
				C16.7,57.36,16.22,57.21,15.72,57.34z M28.21,75.04c-0.32,0.07-0.26,0.49-0.14,1c0.11,0.5,0.24,0.9,0.56,0.83
				c0.32-0.07,0.49-0.54,0.38-1.05C28.89,75.31,28.53,74.96,28.21,75.04z M73,137.54c-0.63-0.04-0.73,0.63-0.78,1.45
				c-0.05,0.82-0.04,1.49,0.59,1.53c0.63,0.04,1.19-0.59,1.24-1.41C74.1,138.28,73.63,137.58,73,137.54z M2.76,116.45
				c-0.63,0.08-1.05,0.87-0.94,1.76c0.11,0.9,0.7,1.56,1.33,1.49c0.63-0.08,0.59-0.82,0.48-1.72
				C3.53,117.09,3.39,116.38,2.76,116.45z"/>
			<linearGradient id="SVGID_46_" gradientUnits="userSpaceOnUse" x1="21.0436" y1="139.4888" x2="14.8807" y2="143.0105">
				<stop  offset="0" style="stop-color:#F77400"/>
				<stop  offset="1" style="stop-color:#FFBE30"/>
			</linearGradient>
			<path class="st49" d="M31.67,135.74c-5.98-0.62-8.13,4.88-11.52,8.63c-2.05,2.27-5.57,3.88-8.42,1.96
				c-1.71-1.16-2.05-3.25-1.06-5c1.16-2.06,3.5-3.42,5.61-4.34c4.91-2.15,10.79-3.04,15.96-1.41c0.03,0.01,0.05-0.04,0.02-0.05
				c-4.26-2.15-9.96-0.87-14.31,0.38c-3.53,1.01-9.08,3.27-8.96,7.74c0.11,3.78,4.5,5.25,7.62,4.35c2.92-0.84,4.49-3.56,5.98-5.98
				C24.77,138.48,27.09,135.44,31.67,135.74C31.67,135.74,31.67,135.74,31.67,135.74L31.67,135.74z"/>
			<linearGradient id="SVGID_47_" gradientUnits="userSpaceOnUse" x1="11.1228" y1="115.9882" x2="3.8412" y2="117.7358">
				<stop  offset="0" style="stop-color:#F77400"/>
				<stop  offset="1" style="stop-color:#FFBE30"/>
			</linearGradient>
			<path class="st50" d="M20.03,115.52c-2.96-0.37-5.36,1-7.77,2.54c-2.74,1.75-6.38,3.75-9.66,2.11c-1.51-0.75-1.54-2.27-0.7-3.57
				c1.09-1.68,3.02-2.46,4.9-2.86c4.71-1.02,9.56-0.16,13.78,2.04c0.07,0.04,0.13-0.06,0.06-0.1c-3.34-2.14-7.29-3.1-11.25-2.93
				c-2.92,0.13-6.41,0.86-8.11,3.5c-1.13,1.75-0.81,3.77,1.22,4.6c2.71,1.1,5.54,0.08,7.88-1.36
				C13.41,117.6,16.22,115.14,20.03,115.52C20.04,115.53,20.04,115.52,20.03,115.52L20.03,115.52z"/>
			<linearGradient id="SVGID_48_" gradientUnits="userSpaceOnUse" x1="7.2299" y1="80.2841" x2="3.7489" y2="77.3833">
				<stop  offset="0" style="stop-color:#F77400"/>
				<stop  offset="1" style="stop-color:#FFBE30"/>
			</linearGradient>
			<path class="st51" d="M12.21,86.72c-2.06-2.03-3.98-3.8-6.62-5.03c-1.81-0.84-7.16-3.16-4.83-5.94c1.91-2.26,5.94,0.26,7.32,1.81
				c2.5,2.81,3.22,6.76,4.63,10.14c0.04,0.09,0.18,0.05,0.14-0.04c-1.53-3.78-2.04-8.24-5.25-11.1c-1.56-1.39-4.75-2.85-6.72-1.34
				c-2.18,1.67,0.15,4.24,1.73,5.19c1.39,0.83,2.94,1.35,4.37,2.12C8.99,83.6,10.57,85.17,12.21,86.72
				C12.21,86.73,12.22,86.72,12.21,86.72L12.21,86.72z"/>
			<linearGradient id="SVGID_49_" gradientUnits="userSpaceOnUse" x1="16.9334" y1="60.418" x2="16.3474" y2="58.3669">
				<stop  offset="0" style="stop-color:#F77400"/>
				<stop  offset="1" style="stop-color:#FFBE30"/>
			</linearGradient>
			<path class="st52" d="M18.51,65.74c-0.58-1.54-1.9-2.84-2.79-4.21c-0.54-0.83-1.18-1.79-1.29-2.79c-0.13-1.23,1.15-2,2.31-1.72
				c1.8,0.44,1.98,3.22,2.08,4.68c0.1,1.54-0.04,3.08,0.01,4.62c0,0.06,0.09,0.06,0.1,0c0.24-2.25,1.14-9.56-2.53-9.65
				c-1.9-0.05-2.64,1.38-1.97,3c0.95,2.28,3.14,3.83,4.07,6.08C18.5,65.75,18.51,65.75,18.51,65.74L18.51,65.74z"/>
			<linearGradient id="SVGID_50_" gradientUnits="userSpaceOnUse" x1="25.4345" y1="76.7948" x2="28.0643" y2="76.5026">
				<stop  offset="0" style="stop-color:#F77400"/>
				<stop  offset="1" style="stop-color:#FFBE30"/>
			</linearGradient>
			<path class="st53" d="M20.61,80.05c1.31-1.14,2.66-2.04,4.44-2.16c1.08-0.07,2.18,0.25,3.25,0.09c1.39-0.21,1.88-1.66,1.12-2.83
				c-0.85-1.31-2.89-1.35-4.23-0.97c-2.31,0.65-3.41,3.13-4.45,5.07c-0.04,0.08,0.07,0.14,0.12,0.07c1.11-1.74,2.04-4,4.17-4.69
				c1.46-0.47,5.36-0.22,4.22,2.31c-0.63,1.4-3.31,0.66-4.61,0.86C23.02,78.06,21.79,78.96,20.61,80.05
				C20.6,80.05,20.6,80.05,20.61,80.05L20.61,80.05z"/>
			<linearGradient id="SVGID_51_" gradientUnits="userSpaceOnUse" x1="28.4085" y1="95.6734" x2="31.5997" y2="91.902">
				<stop  offset="0" style="stop-color:#F77400"/>
				<stop  offset="1" style="stop-color:#FFBE30"/>
			</linearGradient>
			<path class="st54" d="M25,102.94c1.24-3.66,4.06-5.13,7.23-6.91c2.26-1.27,4.6-3.03,4.64-5.87c0.03-2.33-1.84-3.39-3.98-3.13
				c-2.79,0.34-4.84,2.45-6.23,4.75c-2.28,3.77-2.67,8.02-1.9,12.32c0.01,0.05,0.09,0.04,0.09-0.01c-0.11-2.41-0.44-4.79,0.05-7.19
				c0.42-2.12,1.43-4.11,2.73-5.82c1.12-1.47,2.53-2.74,4.34-3.25c1.35-0.38,3.3-0.49,4.09,0.94c0.98,1.79-0.16,3.97-1.47,5.21
				c-1.2,1.14-2.69,1.89-4.11,2.72c-2.62,1.52-4.58,3.28-5.49,6.24C24.98,102.94,24.99,102.94,25,102.94L25,102.94z"/>
			<linearGradient id="SVGID_52_" gradientUnits="userSpaceOnUse" x1="44.4267" y1="114.8706" x2="49.3652" y2="108.189">
				<stop  offset="0" style="stop-color:#F77400"/>
				<stop  offset="1" style="stop-color:#FFBE30"/>
			</linearGradient>
			<path class="st55" d="M40.06,123.92c1.08-4.44,4.15-7.12,8-9.22c2.68-1.46,5.4-3.31,5.62-6.65c0.16-2.41-1.69-4.02-4.06-3.7
				c-3.29,0.45-5.91,3.85-7.49,6.51c-2.52,4.25-2.7,9-2.53,13.82c0,0.08,0.12,0.08,0.12,0c0.17-5.14,0.16-10.01,3.26-14.4
				c1.28-1.82,3.02-3.72,5.05-4.7c1.47-0.71,3.75-0.96,4.68,0.73c1.06,1.93-0.25,4.51-1.67,5.85c-1.36,1.29-3.08,2.09-4.65,3.07
				c-3.22,1.99-5.58,4.93-6.34,8.68C40.05,123.92,40.06,123.93,40.06,123.92L40.06,123.92z"/>
			<linearGradient id="SVGID_53_" gradientUnits="userSpaceOnUse" x1="64.2565" y1="139.3549" x2="72.9601" y2="139.0648">
				<stop  offset="0" style="stop-color:#F77400"/>
				<stop  offset="1" style="stop-color:#FFBE30"/>
			</linearGradient>
			<path class="st56" d="M56.84,143.75c2.2-1.65,4.65-2.92,7.47-2.76c2.43,0.14,4.8,1.13,7.26,0.77c2.31-0.34,4.13-2.06,2.59-4.32
				c-1.9-2.79-5.84-2.68-8.74-1.93c-4.26,1.1-6.63,4.01-8.82,7.64c-0.03,0.06,0.05,0.1,0.08,0.05c1.04-1.44,2.01-2.95,3.26-4.23
				c1.43-1.47,3.21-2.24,5.15-2.79c2.77-0.78,7.64-1.24,9,2.16c0.73,1.82-1.01,2.73-2.56,2.98c-1.95,0.31-3.85-0.25-5.77-0.5
				C62.3,140.36,59.5,141.56,56.84,143.75C56.84,143.75,56.84,143.76,56.84,143.75L56.84,143.75z"/>
			<linearGradient id="SVGID_54_" gradientUnits="userSpaceOnUse" x1="36.22" y1="78.0435" x2="36.22" y2="146.1976">
				<stop  offset="0" style="stop-color:#610000"/>
				<stop  offset="1" style="stop-color:#F24B00"/>
			</linearGradient>
			<path class="st57" d="M27.85,135.26c0,0,11.87,0.72,17.45,5.87l-1.14-2.29C44.16,138.84,39.3,134.84,27.85,135.26z M53.6,147.71
				l1.43,1.57c0,0,1.14-6.87,7.01-10.59C62.04,138.7,57.03,140.41,53.6,147.71z M42.73,115.38c0,0-3.72,3.86-3.86,12.45l1.72,2
				C40.58,129.83,39.87,120.53,42.73,115.38z M30.14,119.39c0,0-6.01-4.58-15.02-4.43c0,0,9.87,1.57,16.45,6.87L30.14,119.39z
				 M26.13,110.66c0,0-1.86-8.01,0.72-13.45c0,0-2.72,2.57-2.57,10.44L26.13,110.66z M23.27,77.19c0,0-5.01,2.15-6.01,13.45
				l1.29,2.29C18.55,92.92,17.55,82.05,23.27,77.19z M17.84,94.49c-1.43-2-7.44-10.3-7.44-10.3l8.01,13.3L17.84,94.49z M18.12,72.61
				l0.86-2.43c0.14-5.72-1-7.3-1-7.3C18.84,66.03,18.12,72.61,18.12,72.61z"/>
		</g>
		<g>
			<linearGradient id="SVGID_55_" gradientUnits="userSpaceOnUse" x1="38.3363" y1="64.0244" x2="38.3363" y2="103.0541">
				<stop  offset="0" style="stop-color:#B13A00"/>
				<stop  offset="1" style="stop-color:#FF7500"/>
			</linearGradient>
			<path class="st58" d="M17.93,80.05c1.53-13.54,10.11-18.69,10.11-18.69l0.76-1.53l-1.72,0.76c-0.07,0.05-0.15,0.09-0.22,0.14
				c-9.39,6.18-14.23,20.02-8.17,38.01c6.1,18.12,16.59,28.61,24.6,40.05s11.25,26.7,11.25,26.7l6.1-5.34
				c-9.16-22.13-27.08-37.38-32.62-46.73C22.51,104.08,16.41,93.59,17.93,80.05z"/>
			<g>
				<linearGradient id="SVGID_56_" gradientUnits="userSpaceOnUse" x1="23.9982" y1="64.0244" x2="23.9982" y2="103.0541">
					<stop  offset="0" style="stop-color:#610000"/>
					<stop  offset="1" style="stop-color:#F24B00"/>
				</linearGradient>
				<path class="st59" d="M19.83,72.21c3.03-7.75,8.21-10.86,8.21-10.86l0.12-0.25c-0.16-0.26-0.32-0.53-0.48-0.78l-0.59,0.26
					c-0.07,0.05-0.15,0.09-0.22,0.14c-0.55,0.36-1.09,0.75-1.61,1.17l0.55,0.72C25.16,63.28,21.39,67.19,19.83,72.21z"/>
				<linearGradient id="SVGID_57_" gradientUnits="userSpaceOnUse" x1="39.0974" y1="64.0244" x2="39.0974" y2="103.0541">
					<stop  offset="0" style="stop-color:#610000"/>
					<stop  offset="1" style="stop-color:#F24B00"/>
				</linearGradient>
				<path class="st60" d="M55.41,163.59c-0.38-3.72-5.82-15.54-8.68-20.31c-2.86-4.77-8.58-13.64-12.3-17.55
					c-2.81-2.95-8.88-12.59-11.68-17.13c6.08,12.42,14.11,21,20.55,30.2c8.01,11.44,11.25,26.7,11.25,26.7l0.86-0.75
					C55.45,164.4,55.46,164.02,55.41,163.59z"/>
				<linearGradient id="SVGID_58_" gradientUnits="userSpaceOnUse" x1="45.9236" y1="64.0244" x2="45.9236" y2="103.0541">
					<stop  offset="0" style="stop-color:#FF3A00"/>
					<stop  offset="1" style="stop-color:#FF9725"/>
				</linearGradient>
				<path class="st61" d="M55.98,162.73l3.72-3.53c0,0-5.25-12.3-10.3-18.02c-5.05-5.72-11.73-15.74-17.26-20.79
					c0,0,6.1,8.68,9.35,13.54C44.73,138.79,53.89,150.52,55.98,162.73z"/>
				<linearGradient id="SVGID_59_" gradientUnits="userSpaceOnUse" x1="20.7711" y1="64.0244" x2="20.7711" y2="103.0541">
					<stop  offset="0" style="stop-color:#FF3A00"/>
					<stop  offset="1" style="stop-color:#FF9725"/>
				</linearGradient>
				<path class="st62" d="M16.69,83.57c0,0,0.95-13.07,8.2-20.6C24.9,62.98,15.93,69.36,16.69,83.57z"/>
				<linearGradient id="SVGID_60_" gradientUnits="userSpaceOnUse" x1="45.9207" y1="64.0244" x2="45.9207" y2="103.0541">
					<stop  offset="0" style="stop-color:#FF9A00"/>
					<stop  offset="1" style="stop-color:#FFC156"/>
				</linearGradient>
				<path class="st63" d="M32.14,120.39c0,0,6.1,8.68,9.35,13.54c0.85,1.28,2.12,3.04,3.55,5.15c-2.66-4.57-5.86-9.79-8.04-12.5
					c0,0,9.63,11.35,13.64,16.98c4.01,5.63,8.58,15.07,8.68,15.55c0.03,0.13,0.18,0.14,0.38,0.08c-0.19-0.44-5.33-12.39-10.29-18.01
					C44.35,135.46,37.67,125.44,32.14,120.39z"/>
				<linearGradient id="SVGID_61_" gradientUnits="userSpaceOnUse" x1="20.8405" y1="64.0244" x2="20.8405" y2="103.0541">
					<stop  offset="0" style="stop-color:#FF9A00"/>
					<stop  offset="1" style="stop-color:#FFC156"/>
				</linearGradient>
				<path class="st64" d="M16.79,79.06c0.71-3.25,2.86-11.13,7.92-15.89c0.04-0.04,0.08-0.07,0.11-0.11
					c0.03-0.03,0.05-0.06,0.08-0.08C24.9,62.98,17.85,68.01,16.79,79.06z"/>
			</g>
		</g>
		<g>
			<g>

					<ellipse transform="matrix(0.5859 -0.8104 0.8104 0.5859 -35.9796 48.6077)" class="st24" cx="29.57" cy="59.51" rx="4.12" ry="4.12"/>
				<path class="st25" d="M30.27,62.49c-1.48,0.72-3.27,0.1-3.99-1.39c-0.72-1.48-0.1-3.27,1.39-3.99
					C29.15,56.4,31.75,61.77,30.27,62.49z"/>

					<ellipse transform="matrix(0.9002 -0.4354 0.4354 0.9002 -22.2367 19.6474)" class="st26" cx="31.76" cy="58.35" rx="1.37" ry="2.29"/>
			</g>
			<g>
				<path class="st24" d="M32.7,59.56c-0.66,0.32-1.5-0.05-1.87-0.82s-0.14-1.66,0.52-1.98c0.66-0.32,1.5,0.05,1.87,0.82
					C33.59,58.35,33.36,59.24,32.7,59.56z"/>
				<path class="st25" d="M32.8,59.17c-0.53,0.26-1.2-0.03-1.49-0.63c-0.29-0.61-0.1-1.31,0.43-1.56c0.53-0.26,1.2,0.03,1.49,0.63
					C33.52,58.21,33.33,58.91,32.8,59.17z"/>
			</g>
			<g>

					<linearGradient id="SVGID_62_" gradientUnits="userSpaceOnUse" x1="1133.3201" y1="749.6509" x2="1118.423" y2="739.6381" gradientTransform="matrix(0.4354 0.9002 -0.9002 0.4354 217.1904 -1301.7628)">
					<stop  offset="0" style="stop-color:#F79300"/>
					<stop  offset="1" style="stop-color:#FFCF00"/>
				</linearGradient>
				<path class="st65" d="M31.38,56.8c0,0,4.95-2.67,3.5-9.02c-1.45-6.35-7.73-18.23-1.81-20.01c5.92-1.78,17.26,8.2,5.13,25.19
					c0,0-2.24,4.34-4.33,5.62C31.78,59.86,31.38,56.8,31.38,56.8z"/>
				<g>

						<linearGradient id="SVGID_63_" gradientUnits="userSpaceOnUse" x1="1133.0583" y1="750.0403" x2="1118.1613" y2="740.0276" gradientTransform="matrix(0.4354 0.9002 -0.9002 0.4354 217.1904 -1301.7628)">
						<stop  offset="0" style="stop-color:#F7A800"/>
						<stop  offset="1" style="stop-color:#FFED30"/>
					</linearGradient>
					<path class="st66" d="M37.77,40.56c-1.45-5.81-3.75-9.99-3.75-9.99c-1.54,5.22,3.04,14.13,3.26,18.23s-3.44,8.58-3.44,8.58
						C38.14,53.4,39.22,46.36,37.77,40.56z"/>

						<linearGradient id="SVGID_64_" gradientUnits="userSpaceOnUse" x1="1134.4557" y1="747.9614" x2="1119.5586" y2="737.9485" gradientTransform="matrix(0.4354 0.9002 -0.9002 0.4354 217.1904 -1301.7628)">
						<stop  offset="0" style="stop-color:#F7A800"/>
						<stop  offset="1" style="stop-color:#FFED30"/>
					</linearGradient>
					<path class="st67" d="M40.23,45.23c-0.01,0.25-0.01,0.38-0.01,0.38c2.72-3.62,3.62-9.35,1.21-13.2
						c-2.41-3.85-5.53-2.75-5.53-2.75C40.18,35.58,40.27,43.43,40.23,45.23z"/>
				</g>
				<g>

						<linearGradient id="SVGID_65_" gradientUnits="userSpaceOnUse" x1="1132.7931" y1="750.4349" x2="1117.8961" y2="740.4221" gradientTransform="matrix(0.4354 0.9002 -0.9002 0.4354 217.1904 -1301.7628)">
						<stop  offset="0" style="stop-color:#FFC500"/>
						<stop  offset="1" style="stop-color:#FFFF60"/>
					</linearGradient>
					<path class="st68" d="M38.1,42.19c-0.09-0.55-0.2-1.1-0.34-1.63c-1.45-5.81-3.75-9.99-3.75-9.99
						c-0.85,2.87,0.15,6.85,1.26,10.53c-0.81-4.26-0.8-8.45-0.8-8.45C35.43,34.14,37.48,40.3,38.1,42.19z"/>

						<linearGradient id="SVGID_66_" gradientUnits="userSpaceOnUse" x1="1134.4554" y1="747.9617" x2="1119.5583" y2="737.9489" gradientTransform="matrix(0.4354 0.9002 -0.9002 0.4354 217.1904 -1301.7628)">
						<stop  offset="0" style="stop-color:#FFC500"/>
						<stop  offset="1" style="stop-color:#FFFF60"/>
					</linearGradient>
					<path class="st69" d="M41.42,32.41c-2.41-3.85-5.53-2.75-5.53-2.75c1.63,2.25,2.65,4.78,3.3,7.15
						c-0.58-2.98-1.84-5.99-2.38-7.19c1.27,0.34,3.44,1.38,4.76,4.49c1.63,3.83,0.58,7.72-0.07,9.38
						C43.15,40,43.4,35.58,41.42,32.41z"/>
				</g>
				<g>

						<linearGradient id="SVGID_67_" gradientUnits="userSpaceOnUse" x1="1133.3198" y1="749.6515" x2="1118.4229" y2="739.6387" gradientTransform="matrix(0.4354 0.9002 -0.9002 0.4354 217.1904 -1301.7628)">
						<stop  offset="0" style="stop-color:#DE6800"/>
						<stop  offset="1" style="stop-color:#FFAA00"/>
					</linearGradient>
					<path class="st70" d="M33.07,27.77c-5.92,1.78,0.37,13.66,1.81,20.01c1.45,6.35-3.5,9.02-3.5,9.02s0.4,3.06,2.49,1.78
						c1.62-1,3.34-3.83,4.02-5.05c0.07-0.17,0.13-0.34,0.2-0.52c0.01-0.04,0.03-0.08,0.04-0.12l-0.08,0.34
						c0.1-0.18,0.15-0.28,0.15-0.28c4.68-6.56,5.87-12.08,5.21-16.27c0.3,6.13-3.34,11.8-4.4,13.31c1.92-8.25-1.57-14.58-1.57-14.58
						c4.1,12.89-0.79,19.87-3.47,22.55c-0.76,0.09-1.19-0.22-1.43-0.5c0.79-0.78,1.69-1.91,2.58-3.56
						c2.58-4.77,0.18-9.45-1.39-14.65c-1.57-5.21-2.12-9.15-0.24-10.6c1.18-0.92,3.22-0.51,4.56-0.09
						C36.36,27.61,34.55,27.33,33.07,27.77z"/>
					<g>

							<linearGradient id="SVGID_68_" gradientUnits="userSpaceOnUse" x1="1131.4993" y1="752.36" x2="1116.6023" y2="742.3473" gradientTransform="matrix(0.4354 0.9002 -0.9002 0.4354 217.1904 -1301.7628)">
							<stop  offset="0" style="stop-color:#B13A00"/>
							<stop  offset="1" style="stop-color:#FF8800"/>
						</linearGradient>
						<path class="st71" d="M33.66,41.59c-2.1-6.31-2.07-8.49-2.04-11.22c0.02-1.75,1.65-2.49,2.81-2.8
							c-0.47,0.01-0.93,0.07-1.36,0.2c-5.92,1.78,0.37,13.66,1.81,20.01c1.45,6.35-3.5,9.02-3.5,9.02s0.02,0.16,0.08,0.4
							C37.23,53.07,35.7,47.72,33.66,41.59z"/>
					</g>
				</g>
			</g>
			<g>

					<linearGradient id="SVGID_69_" gradientUnits="userSpaceOnUse" x1="1583.0106" y1="749.6455" x2="1568.1135" y2="739.6327" gradientTransform="matrix(-0.4354 -0.9002 -0.9002 0.4354 1408.8829 1162.2384)">
					<stop  offset="0" style="stop-color:#F79300"/>
					<stop  offset="1" style="stop-color:#FFCF00"/>
				</linearGradient>
				<path class="st72" d="M32.73,59.59c0,0,5.16-2.23,9.25,2.85s9.49,17.38,14.56,13.85c5.07-3.54,4.29-18.62-16.56-19.66
					c0,0-4.79-0.94-7.1-0.09C30.57,57.37,32.73,59.59,32.73,59.59z"/>
				<g>

						<linearGradient id="SVGID_70_" gradientUnits="userSpaceOnUse" x1="1582.7488" y1="750.0349" x2="1567.8518" y2="740.0222" gradientTransform="matrix(-0.4354 -0.9002 -0.9002 0.4354 1408.8829 1162.2384)">
						<stop  offset="0" style="stop-color:#F7A800"/>
						<stop  offset="1" style="stop-color:#FFED30"/>
					</linearGradient>
					<path class="st73" d="M49.43,64.67c3.65,4.74,5.5,9.14,5.5,9.14c-5.05-2.03-9.19-11.15-12.27-13.87
						c-3.08-2.72-8.87-2.63-8.87-2.63C39.6,56.4,45.78,59.92,49.43,64.67z"/>

						<linearGradient id="SVGID_71_" gradientUnits="userSpaceOnUse" x1="1584.1461" y1="747.9559" x2="1569.2491" y2="737.9431" gradientTransform="matrix(-0.4354 -0.9002 -0.9002 0.4354 1408.8829 1162.2384)">
						<stop  offset="0" style="stop-color:#F7A800"/>
						<stop  offset="1" style="stop-color:#FFED30"/>
					</linearGradient>
					<path class="st74" d="M47.29,59.83c-0.2-0.15-0.31-0.23-0.31-0.23c4.53,0.11,9.57,2.97,11.1,7.25
						c1.53,4.28-1.28,6.05-1.28,6.05C54.83,65.86,48.73,60.92,47.29,59.83z"/>
				</g>
				<g>

						<linearGradient id="SVGID_72_" gradientUnits="userSpaceOnUse" x1="1582.4836" y1="750.4294" x2="1567.5865" y2="740.4166" gradientTransform="matrix(-0.4354 -0.9002 -0.9002 0.4354 1408.8829 1162.2384)">
						<stop  offset="0" style="stop-color:#FFC500"/>
						<stop  offset="1" style="stop-color:#FFFF60"/>
					</linearGradient>
					<path class="st75" d="M48.35,63.39c0.38,0.41,0.74,0.84,1.07,1.28c3.65,4.74,5.5,9.14,5.5,9.14c-2.77-1.12-5.27-4.37-7.47-7.52
						c2.83,3.28,6.13,5.87,6.13,5.87C53.01,70.48,49.45,65.05,48.35,63.39z"/>

						<linearGradient id="SVGID_73_" gradientUnits="userSpaceOnUse" x1="1584.1459" y1="747.9563" x2="1569.2489" y2="737.9435" gradientTransform="matrix(-0.4354 -0.9002 -0.9002 0.4354 1408.8829 1162.2384)">
						<stop  offset="0" style="stop-color:#FFC500"/>
						<stop  offset="1" style="stop-color:#FFFF60"/>
					</linearGradient>
					<path class="st76" d="M58.08,66.85c1.53,4.28-1.28,6.05-1.28,6.05c-0.75-2.68-2.1-5.05-3.56-7.02c1.98,2.3,3.55,5.17,4.16,6.33
						c0.52-1.21,1.05-3.55-0.56-6.52c-1.99-3.65-5.69-5.25-7.4-5.76C53.21,60.79,56.83,63.34,58.08,66.85z"/>
				</g>
				<g>

						<linearGradient id="SVGID_74_" gradientUnits="userSpaceOnUse" x1="1583.0103" y1="749.646" x2="1568.1133" y2="739.6333" gradientTransform="matrix(-0.4354 -0.9002 -0.9002 0.4354 1408.8829 1162.2384)">
						<stop  offset="0" style="stop-color:#DE6800"/>
						<stop  offset="1" style="stop-color:#FFAA00"/>
					</linearGradient>
					<path class="st77" d="M56.54,76.28c-5.07,3.54-10.48-8.77-14.56-13.84s-9.25-2.85-9.25-2.85s-2.16-2.21,0.15-3.06
						c1.79-0.65,5.08-0.24,6.46-0.02c0.17,0.05,0.35,0.11,0.53,0.16c0.04,0.01,0.08,0.03,0.12,0.04l-0.32-0.15
						c0.2,0.03,0.31,0.06,0.31,0.06c8.05,0.4,13.11,2.9,15.99,6.02c-4.62-4.04-11.32-4.71-13.17-4.82
						c7.66,3.62,10.46,10.28,10.46,10.28C45.7,56.89,37.19,56.38,33.43,56.82c-0.55,0.54-0.57,1.07-0.49,1.43
						c1.1-0.14,2.55-0.14,4.4,0.19c5.34,0.94,7.52,5.72,10.62,10.19c3.11,4.46,5.86,7.34,8.16,6.77c1.45-0.36,2.4-2.21,2.9-3.52
						C58.7,73.8,57.8,75.4,56.54,76.28z"/>
					<g>

							<linearGradient id="SVGID_75_" gradientUnits="userSpaceOnUse" x1="1581.1898" y1="752.3546" x2="1566.2928" y2="742.3418" gradientTransform="matrix(-0.4354 -0.9002 -0.9002 0.4354 1408.8829 1162.2384)">
							<stop  offset="0" style="stop-color:#B13A00"/>
							<stop  offset="1" style="stop-color:#FF8800"/>
						</linearGradient>
						<path class="st78" d="M46.06,67.24c3.64,5.56,5.37,6.9,7.53,8.56c1.39,1.07,2.98,0.25,3.94-0.47c-0.3,0.37-0.63,0.69-1,0.94
							c-5.07,3.54-10.48-8.77-14.56-13.84s-9.25-2.85-9.25-2.85s-0.12-0.12-0.26-0.31C39.29,57.31,42.52,61.84,46.06,67.24z"/>
					</g>
				</g>
			</g>
		</g>
	</g>
	<g>

			<linearGradient id="SVGID_76_" gradientUnits="userSpaceOnUse" x1="2185.9985" y1="226.1436" x2="2218.9485" y2="255.1396" gradientTransform="matrix(-0.9924 -0.1227 -0.1227 0.9924 2361.8762 136.4497)">
			<stop  offset="0" style="stop-color:#ABA800"/>
			<stop  offset="0.2637" style="stop-color:#A4A800"/>
			<stop  offset="0.6585" style="stop-color:#8FA602"/>
			<stop  offset="1" style="stop-color:#78A503"/>
		</linearGradient>
		<path class="st79" d="M114.33,123.72c0.03,0,0.05,0,0.08,0c0.09-0.01,0.17-0.07,0.21-0.16c0.08-0.16,7.66-16.52,17.82-21.55
			c6.24-3.09,12.36-2.91,15.46-2.53c4.68,0.58,7.82,2.18,8.86,3.5l0.38,0.48c2.48,3.15,5.28,6.72,1.96,10.75
			c-0.99,1.2-2,1.74-3.02,1.61c-2.1-0.26-3.68-3.22-3.98-3.81c-0.04-0.09-0.13-0.14-0.22-0.15c-0.05-0.01-0.09,0-0.14,0.02
			c-0.1,0.04-2.34,0.97-1.76,2.59c0.42,1.17,1.59,1.59,2.16,1.73c-0.18,0.83-0.52,3.12,1.14,3.64c0.12,0.04,0.25,0.07,0.38,0.08
			c1.39,0.17,2.76-1,3.33-1.57c0.33,0.54,1.08,1.51,2.41,1.67c0.42,0.05,0.87,0.02,1.33-0.1c2.42-0.64,2.51-3.96,2.48-4.91
			c0.92-0.2,4.05-1.08,3.91-3.74c-0.13-2.44-2.6-3.67-3.61-4.06c0.9-1.01,3.36-4.22,1.03-6.71c-0.74-0.79-1.61-1.26-2.57-1.37
			c-1.31-0.16-2.5,0.35-3.17,0.73c0.26-1.64,0.42-5.78-4.17-7.45c-0.66-0.24-1.31-0.4-1.91-0.48c-3.14-0.39-4.67,1.55-5.27,2.61
			c-0.5-1.22-1.89-3.73-5.05-4.12c-0.45-0.06-0.92-0.07-1.41-0.03c-4.34,0.3-5.47,4.24-5.75,5.78c-0.74-0.72-2.44-2.11-4.89-2.41
			c-1.5-0.19-3.04,0.07-4.58,0.76c-4.94,2.22-4.59,7.8-4.32,9.66c-0.77-0.42-2.29-1.13-4.12-1.35c-2.72-0.34-5.05,0.5-6.92,2.48
			c-2.14,2.26-3.22,4.68-3.22,7.19c0,2.41,1,4.11,1.44,4.73c1.27,1.81,5.37,6.23,5.54,6.41
			C114.21,123.68,114.27,123.71,114.33,123.72z"/>

			<linearGradient id="SVGID_77_" gradientUnits="userSpaceOnUse" x1="2185.9995" y1="226.1424" x2="2218.9495" y2="255.1384" gradientTransform="matrix(-0.9924 -0.1227 -0.1227 0.9924 2361.8762 136.4497)">
			<stop  offset="0" style="stop-color:#D4D000"/>
			<stop  offset="0.2305" style="stop-color:#CDD000"/>
			<stop  offset="0.5763" style="stop-color:#B8CF02"/>
			<stop  offset="0.993" style="stop-color:#97CE04"/>
			<stop  offset="1" style="stop-color:#96CE04"/>
		</linearGradient>
		<path class="st80" d="M114.37,123.44c0,0,7.58-16.55,17.95-21.68c10.37-5.14,22.18-2.13,24.66,1.06
			c2.48,3.18,5.98,7.16,2.33,11.58c-3.65,4.42-6.76-0.84-7.47-2.25c0,0-2.1,0.85-1.6,2.24c0.49,1.39,2.24,1.6,2.24,1.6
			s-0.87,3.05,0.88,3.6c1.76,0.55,3.7-1.7,3.7-1.7s1.03,2.45,3.6,1.77c2.57-0.68,2.26-4.87,2.26-4.87s4.07-0.66,3.92-3.5
			c-0.15-2.84-3.83-3.96-3.83-3.96s3.96-3.83,1.32-6.64c-2.64-2.82-5.95-0.24-5.95-0.24s1.71-5.76-3.85-7.78
			c-5.56-2.02-7.13,2.6-7.13,2.6s-1.21-4.96-6.4-4.61c-5.19,0.35-5.57,6.12-5.57,6.12s-3.75-4.61-9.55-2.01
			c-5.8,2.6-4.05,9.96-4.05,9.96s-6.44-4.28-11.22,0.77c-4.77,5.05-3.03,9.75-1.76,11.57C110.12,118.87,114.37,123.44,114.37,123.44
			z"/>

			<linearGradient id="SVGID_78_" gradientUnits="userSpaceOnUse" x1="2185.345" y1="226.8863" x2="2218.2949" y2="255.8823" gradientTransform="matrix(-0.9924 -0.1227 -0.1227 0.9924 2361.8762 136.4497)">
			<stop  offset="0" style="stop-color:#BBBB00"/>
			<stop  offset="0.2535" style="stop-color:#B4BB01"/>
			<stop  offset="0.633" style="stop-color:#9FBC02"/>
			<stop  offset="1" style="stop-color:#85BD04"/>
		</linearGradient>
		<path class="st81" d="M152.47,115.98c0,0-0.87,3.05,0.88,3.6c1.65,0.51,3.45-1.43,3.67-1.68c-0.02-0.02-0.03-0.03-0.03-0.03
			s-2.11,1.84-3.34,1.03C152.44,118.07,152.47,115.98,152.47,115.98z M157.09,117.95c0.21,0.42,1.27,2.29,3.56,1.69
			c2.57-0.68,2.26-4.87,2.26-4.87s1.29-0.21,2.4-0.9c-0.88,0.15-2.45,0.4-2.99,0.33c0,0,0.63,4.73-1.71,4.88
			C158.63,119.21,157.42,118.25,157.09,117.95z M108.85,117.06c1.27,1.82,5.52,6.38,5.52,6.38s7.58-16.55,17.95-21.68
			c10.37-5.14,22.18-2.13,24.66,1.06c0.73,0.94,1.55,1.95,2.25,3.02c-0.62-1.61-1.55-3.52-2.73-4.52c-2.3-1.95-9.51-3.61-15.13-2.98
			c-5.61,0.63-11.25,3.26-13.82,5.26c-2.57,2.01-7.98,9.97-10.42,11.77c-2.44,1.8-4.34,2.01-6.2,0.01c-1.41-1.52-2.56-4.1-2.76-6.29
			C106.66,112.66,107.89,115.68,108.85,117.06z M150.37,113.28c-0.19,0.31-0.28,0.68-0.13,1.09c0.49,1.39,2.24,1.6,2.24,1.6
			S150.1,114.73,150.37,113.28z"/>

			<linearGradient id="SVGID_79_" gradientUnits="userSpaceOnUse" x1="2187.4783" y1="224.4622" x2="2220.4282" y2="253.4582" gradientTransform="matrix(-0.9924 -0.1227 -0.1227 0.9924 2361.8762 136.4497)">
			<stop  offset="0" style="stop-color:#EDFF42"/>
			<stop  offset="0.1823" style="stop-color:#E6FD3D"/>
			<stop  offset="0.456" style="stop-color:#D1F82E"/>
			<stop  offset="0.7855" style="stop-color:#B0F016"/>
			<stop  offset="1" style="stop-color:#96EA04"/>
		</linearGradient>
		<path class="st82" d="M109.77,106.46c0.55-0.09,1.16-0.38,1.84-0.96c4.08-3.48,11.17,0.05,11.17,0.05s-1.17-7.56,3.68-10.06
			c4.85-2.5,9.47,2.17,9.47,2.17s0.56-5.46,4.96-6.14c4.4-0.67,6.49,4.79,6.49,4.79s1.92-3.86,6.56-2.95
			c4.65,0.91,4.23,7.83,4.23,7.83s3.24-2.03,5.53,0.02c2.29,2.05-1.68,6.43-1.68,6.43c0.66,0.08,2.41,0.7,3.48,1.1
			c-1.11-0.99-2.5-1.42-2.5-1.42s3.96-3.83,1.32-6.64c-2.64-2.82-5.95-0.24-5.95-0.24s1.71-5.76-3.85-7.78
			c-5.56-2.02-7.13,2.6-7.13,2.6s-1.21-4.96-6.4-4.61c-5.19,0.35-5.57,6.12-5.57,6.12s-3.75-4.61-9.55-2.01
			c-5.8,2.6-4.05,9.96-4.05,9.96s-6.44-4.28-11.22,0.77C110.3,105.81,110.02,106.14,109.77,106.46z M151.84,112.14
			c0,0-0.2,0.08-0.46,0.23c0.75,1.66,2.66,4.62,5.44,4.26c2.05-0.27,3.15-2.63,3.65-4.13c-0.25,0.62-0.63,1.25-1.16,1.9
			C155.67,118.81,152.55,113.55,151.84,112.14z"/>
	</g>
	<g>

			<linearGradient id="SVGID_80_" gradientUnits="userSpaceOnUse" x1="-3128.499" y1="452.1814" x2="-3100.4277" y2="476.8842" gradientTransform="matrix(-1 8.864000e-03 8.863000e-03 1 -2978.1873 -301.101)">
			<stop  offset="0" style="stop-color:#ABA800"/>
			<stop  offset="0.2637" style="stop-color:#A4A800"/>
			<stop  offset="0.6585" style="stop-color:#8FA602"/>
			<stop  offset="1" style="stop-color:#78A503"/>
		</linearGradient>
		<path class="st83" d="M115.19,155.22c0.02,0,0.04,0,0.07-0.01c0.08-0.02,0.14-0.08,0.16-0.16c0.05-0.15,4.62-14.81,12.64-20.2
			c4.92-3.31,10.11-3.84,12.77-3.87c4.02-0.04,6.85,0.96,7.87,1.97l0.37,0.36c2.44,2.38,5.21,5.08,2.86,8.86
			c-0.7,1.12-1.5,1.69-2.37,1.7c-1.8,0.02-3.47-2.31-3.79-2.77c-0.05-0.07-0.12-0.11-0.2-0.1c-0.04,0-0.08,0.01-0.12,0.03
			c-0.08,0.04-1.87,1.08-1.2,2.38c0.48,0.94,1.52,1.17,2.02,1.22c-0.06,0.72-0.09,2.7,1.37,2.95c0.11,0.02,0.22,0.03,0.33,0.03
			c1.2-0.01,2.22-1.16,2.64-1.7c0.34,0.42,1.08,1.15,2.22,1.14c0.36,0,0.73-0.08,1.11-0.24c1.97-0.81,1.67-3.62,1.55-4.42
			c0.76-0.27,3.3-1.36,2.88-3.6c-0.38-2.05-2.61-2.8-3.5-3.03c0.65-0.96,2.37-3.94,0.12-5.79c-0.72-0.59-1.5-0.88-2.33-0.87
			c-1.13,0.01-2.07,0.57-2.6,0.97c0.04-1.41-0.29-4.93-4.35-5.82c-0.59-0.13-1.15-0.19-1.67-0.19c-2.69,0.02-3.77,1.83-4.16,2.79
			c-0.56-0.98-2.01-2.94-4.73-2.91c-0.39,0-0.79,0.05-1.2,0.13c-3.64,0.74-4.15,4.2-4.21,5.52c-0.71-0.53-2.3-1.51-4.4-1.49
			c-1.29,0.01-2.56,0.4-3.78,1.16c-3.92,2.43-3,7.1-2.57,8.64c-0.69-0.27-2.06-0.7-3.63-0.68c-2.33,0.02-4.21,0.99-5.57,2.87
			c-1.55,2.15-2.2,4.31-1.92,6.43c0.27,2.04,1.31,3.36,1.74,3.83c1.27,1.39,5.23,4.66,5.4,4.79
			C115.08,155.2,115.13,155.22,115.19,155.22z"/>

			<linearGradient id="SVGID_81_" gradientUnits="userSpaceOnUse" x1="-3128.498" y1="452.1803" x2="-3100.4268" y2="476.8832" gradientTransform="matrix(-1 8.864000e-03 8.863000e-03 1 -2978.1873 -301.101)">
			<stop  offset="0" style="stop-color:#D4D000"/>
			<stop  offset="0.2305" style="stop-color:#CDD000"/>
			<stop  offset="0.5763" style="stop-color:#B8CF02"/>
			<stop  offset="0.993" style="stop-color:#97CE04"/>
			<stop  offset="1" style="stop-color:#96CE04"/>
		</linearGradient>
		<path class="st84" d="M115.18,154.98c0,0,4.55-14.83,12.73-20.33c8.19-5.5,18.49-4.28,20.94-1.87c2.45,2.41,5.85,5.38,3.27,9.52
			c-2.58,4.14-5.8,0.05-6.56-1.06c0,0-1.68,0.95-1.1,2.07c0.57,1.12,2.07,1.1,2.07,1.1s-0.4,2.67,1.15,2.94
			c1.55,0.27,2.93-1.85,2.93-1.85s1.14,1.95,3.24,1.09c2.1-0.86,1.36-4.36,1.36-4.36s3.36-1.01,2.92-3.39
			c-0.44-2.38-3.68-2.92-3.68-2.92s2.92-3.68,0.37-5.76c-2.54-2.08-5.05,0.47-5.05,0.47s0.8-5.06-4.12-6.14
			c-4.92-1.08-5.73,3-5.73,3s-1.58-4.06-5.92-3.18c-4.34,0.88-4.02,5.79-4.02,5.79s-3.68-3.48-8.29-0.63
			c-4.61,2.85-2.31,8.86-2.31,8.86s-5.92-2.9-9.39,1.91c-3.47,4.8-1.47,8.58-0.19,9.97C111.08,151.6,115.18,154.98,115.18,154.98z"
			/>

			<linearGradient id="SVGID_82_" gradientUnits="userSpaceOnUse" x1="-3129.0559" y1="452.8141" x2="-3100.9844" y2="477.517" gradientTransform="matrix(-1 8.864000e-03 8.863000e-03 1 -2978.1873 -301.101)">
			<stop  offset="0" style="stop-color:#BBBB00"/>
			<stop  offset="0.2535" style="stop-color:#B4BB01"/>
			<stop  offset="0.633" style="stop-color:#9FBC02"/>
			<stop  offset="1" style="stop-color:#85BD04"/>
		</linearGradient>
		<path class="st85" d="M146.53,144.41c0,0-0.4,2.67,1.15,2.94c1.45,0.25,2.76-1.59,2.92-1.83c-0.02-0.01-0.03-0.02-0.03-0.02
			s-1.57,1.79-2.7,1.24C146.73,146.19,146.53,144.41,146.53,144.41z M150.65,145.56c0.22,0.33,1.33,1.79,3.2,1.03
			c2.1-0.86,1.36-4.36,1.36-4.36s1.07-0.32,1.92-1.03c-0.72,0.23-2.02,0.61-2.49,0.62c0,0,1.06,3.92-0.9,4.31
			C152.09,146.46,150.96,145.78,150.65,145.56z M109.81,150.21c1.28,1.39,5.38,4.77,5.38,4.77s4.55-14.83,12.73-20.33
			s18.49-4.28,20.94-1.87c0.72,0.71,1.53,1.47,2.24,2.3c-0.71-1.29-1.7-2.8-2.81-3.51c-2.16-1.38-8.44-1.98-13.11-0.82
			c-4.67,1.16-9.13,4.01-11.08,5.99c-1.95,1.98-5.63,9.31-7.48,11.11c-1.86,1.79-3.44,2.18-5.23,0.7c-1.36-1.13-2.62-3.18-3.03-5
			C107.47,146.75,108.84,149.16,109.81,150.21z M144.45,142.37c-0.13,0.28-0.16,0.6,0.01,0.94c0.57,1.12,2.07,1.1,2.07,1.1
			S144.39,143.63,144.45,142.37z"/>

			<linearGradient id="SVGID_83_" gradientUnits="userSpaceOnUse" x1="-3127.2385" y1="450.7489" x2="-3099.167" y2="475.4517" gradientTransform="matrix(-1 8.864000e-03 8.863000e-03 1 -2978.1873 -301.101)">
			<stop  offset="0" style="stop-color:#EDFF42"/>
			<stop  offset="0.1823" style="stop-color:#E6FD3D"/>
			<stop  offset="0.456" style="stop-color:#D1F82E"/>
			<stop  offset="0.7855" style="stop-color:#B0F016"/>
			<stop  offset="1" style="stop-color:#96EA04"/>
		</linearGradient>
		<path class="st86" d="M109.4,141.16c0.45-0.14,0.94-0.45,1.44-1.01c3.06-3.4,9.44-1.21,9.44-1.21s-1.83-6.25,1.98-8.91
			c3.81-2.65,8.24,0.77,8.24,0.77s-0.14-4.68,3.5-5.74c3.64-1.06,6.02,3.32,6.02,3.32s1.19-3.47,5.21-3.23
			c4.03,0.25,4.45,6.14,4.45,6.14s2.51-2.08,4.67-0.6c2.17,1.48-0.7,5.62-0.7,5.62c0.57-0.01,2.12,0.32,3.07,0.53
			c-1.05-0.71-2.27-0.92-2.27-0.92s2.92-3.68,0.37-5.76c-2.54-2.08-5.05,0.47-5.05,0.47s0.8-5.06-4.12-6.14
			c-4.92-1.08-5.73,3-5.73,3s-1.58-4.06-5.92-3.18c-4.34,0.88-4.02,5.79-4.02,5.79s-3.68-3.48-8.29-0.63
			c-4.61,2.85-2.31,8.86-2.31,8.86s-5.92-2.9-9.39,1.91C109.78,140.55,109.58,140.86,109.4,141.16z M145.57,141.24
			c0,0-0.16,0.09-0.36,0.25c0.82,1.32,2.76,3.6,5.07,2.98c1.7-0.46,2.37-2.58,2.62-3.9c-0.14,0.55-0.39,1.13-0.77,1.73
			C149.54,146.44,146.33,142.35,145.57,141.24z"/>
	</g>
	<g>

			<linearGradient id="SVGID_84_" gradientUnits="userSpaceOnUse" x1="2319.8433" y1="-162.7975" x2="2354.2773" y2="-89.8783" gradientTransform="matrix(-0.9889 0.1484 0.1484 0.9889 2427.7756 -178.3043)">
			<stop  offset="0" style="stop-color:#ABA800"/>
			<stop  offset="0.2637" style="stop-color:#A4A800"/>
			<stop  offset="0.6585" style="stop-color:#8FA602"/>
			<stop  offset="1" style="stop-color:#78A503"/>
		</linearGradient>
		<path class="st87" d="M69.56,29.9c-0.72-3.84,2.02-5.76,3.17-6.38c-0.39-0.28-0.97-0.76-1.49-1.48c-0.8-1.1-1.58-2.97-0.79-5.66
			c0.87-2.95,2.59-3.81,3.89-4c0.53-0.08,1-0.05,1.33,0c-0.16-0.5-0.38-1.34-0.42-2.32c-0.08-2.09,0.72-3.79,2.31-4.9
			c0.69-0.48,1.46-0.79,2.28-0.92c2.06-0.31,3.96,0.6,4.8,1.08c0.02-0.49,0.12-1.24,0.45-2.04c0.51-1.23,1.68-2.78,4.39-3.19
			c0.17-0.03,0.35-0.05,0.53-0.06c3.98-0.35,6.2,2.43,6.89,3.49c0.6-0.79,2.23-2.56,5.04-2.98c1.01-0.15,2.09-0.11,3.2,0.13
			c4.89,1.04,5.73,5.71,5.88,7.15c0.38-0.16,1.03-0.37,1.83-0.49c1.68-0.25,4.11-0.07,6.17,2.24c2.98,3.34,1.94,7.44,1.52,8.72
			c1.61,0.07,7.38,0.68,9.24,6.08c1.88,5.47-1.31,9.9-2.14,10.93c1.1,0.97,5.75,5.43,4.34,10.65c-1.32,4.9-4.92,6.67-6.08,7.13
			c0.36,0.58,1.13,1.91,1.66,3.61c0.94,3.01,0.65,5.71-0.84,7.8c-2.57,3.62-5.46,4.54-6.96,4.76c-0.18,0.03-0.34,0.04-0.47,0.05
			c0.24,0.61,0.68,1.87,0.86,3.43c0.35,2.89-0.34,5.43-2,7.33c-2.91,3.34-5.82,4.21-7.29,4.44c-0.14,0.02-0.26,0.03-0.36,0.04
			c0.48,1.41,1.93,6.5-0.78,10.52c-2.39,3.55-5.55,4.37-6.79,4.55c-0.13,0.02-0.24,0.03-0.34,0.04c0.24,0.61,0.69,1.92,1,3.57
			c0.39,2.1,0.6,5.14-0.63,7.76c-2.76,5.88-7.15,7.38-8.91,7.75c-0.04,0.01-0.07,0.01-0.11,0.02c-2.95,0.44-7.25-6.25-7.43-6.53
			c-0.04-0.06-0.05-0.13-0.04-0.2c0.02-0.11,0.43-2.73,2.21-7.1c1.63-4.02,4.78-10.32,10.48-17.52c0.53-0.67,1.07-1.35,1.63-2.06
			c9.91-12.44,24.89-31.25,22.43-49.76c-2.7-20.35-18.19-27.69-27.32-27.54c-1.29,0.02-2.6,0.13-3.88,0.32
			c-13.3,2-17.08,10.45-16.19,17.7c1.43,11.61,8.63,11.28,11.7,11.13c0.22-0.01,0.41-0.02,0.59-0.02c0.09,0,0.18-0.01,0.26-0.02
			c2.38-0.36,5.51-4.83,5.67-8.11c0.06-1.2,0.6-1.46,0.92-1.5c0.65-0.1,1.43,0.51,1.89,1.47c0.52,1.06,0.63,2.61-0.53,3.88
			c0.42,0.44,1.3,1.53,1.32,2.91c0.02,1.03-0.44,2-1.37,2.89c-0.89,0.84-1.77,1.33-2.63,1.46c-1.09,0.16-1.87-0.28-2.29-0.61
			c-0.37,0.86-1.46,2.71-4.19,3.12c-0.1,0.02-0.21,0.03-0.32,0.04c-3.1,0.32-4.59-2.22-5.07-3.27c-0.49,0.48-1.52,1.31-2.95,1.52
			c-0.92,0.14-1.87,0-2.81-0.41c-3.05-1.34-2.5-5.08-2.22-6.29C72.82,34.22,70.28,33.77,69.56,29.9z"/>

			<linearGradient id="SVGID_85_" gradientUnits="userSpaceOnUse" x1="2319.9573" y1="-162.551" x2="2354.2241" y2="-89.9857" gradientTransform="matrix(-0.9889 0.1484 0.1484 0.9889 2427.7756 -178.3043)">
			<stop  offset="0" style="stop-color:#D4D000"/>
			<stop  offset="0.2305" style="stop-color:#CDD000"/>
			<stop  offset="0.5763" style="stop-color:#B8CF02"/>
			<stop  offset="0.993" style="stop-color:#97CE04"/>
			<stop  offset="1" style="stop-color:#96CE04"/>
		</linearGradient>
		<path class="st88" d="M86.76,112.06c0,0,1.64-10.61,12.63-24.49c10.18-12.85,26.73-32.38,24.13-52.03
			C120.91,15.9,106.08,7.59,95.91,7.76C85.74,7.92,74,13.42,75.56,26.1c1.56,12.67,9.87,11.43,12.58,11.36
			c2.71-0.07,6.05-4.98,6.21-8.41c0.17-3.42,4.57,1.01,1.59,3.84c0,0,3.13,2.76,0.16,5.58c-2.97,2.82-4.84,0.56-4.84,0.56
			s-0.74,3-4.42,3.38c-3.68,0.38-4.94-3.5-4.94-3.5s-2.28,2.89-5.74,1.37c-3.46-1.52-1.97-6.33-1.97-6.33s-3.49,0.52-4.35-4.1
			s3.47-6.3,3.47-6.3s-4.05-2.11-2.59-7.08s5.39-3.7,5.39-3.7s-2.08-4.78,1.61-7.38c3.3-2.32,7.2,0.45,7.2,0.45
			s-0.42-5.03,5.12-5.52c4.73-0.42,6.84,3.73,6.84,3.73s2.58-4.29,8.2-3.1c5.61,1.2,5.68,7.3,5.68,7.3s4.57-2.38,8.04,1.51
			s1.32,8.8,1.32,8.8s7.27-0.24,9.38,5.9c2.11,6.14-2.28,10.87-2.28,10.87s6,4.88,4.47,10.54c-1.53,5.66-6.25,7.05-6.25,7.05
			s4.54,6.45,1.03,11.4c-3.5,4.94-7.62,4.71-7.62,4.71s2.99,6.35-0.92,10.84c-3.91,4.49-7.83,4.4-7.83,4.4s2.44,6.09-0.61,10.62
			c-3.06,4.54-7.31,4.49-7.31,4.49s2.85,6.54,0.53,11.47c-2.32,4.93-5.91,7-8.71,7.59C91.21,119.04,86.76,112.06,86.76,112.06z"/>
		<g>

				<linearGradient id="SVGID_86_" gradientUnits="userSpaceOnUse" x1="2332.9229" y1="-168.6737" x2="2367.1904" y2="-96.1068" gradientTransform="matrix(-0.9889 0.1484 0.1484 0.9889 2427.7756 -178.3043)">
				<stop  offset="0" style="stop-color:#EDFF42"/>
				<stop  offset="0.1823" style="stop-color:#E6FD3D"/>
				<stop  offset="0.456" style="stop-color:#D1F82E"/>
				<stop  offset="0.7855" style="stop-color:#B0F016"/>
				<stop  offset="1" style="stop-color:#96EA04"/>
			</linearGradient>
			<path class="st89" d="M88.93,38.19c-1.75,0.77-8.46-0.94-9.44-1.81c-0.39-0.35-0.7-1.2-0.92-2.1c3.15,3.83,7.7,3.22,9.58,3.18
				c1.71-0.04,3.67-2.02,4.93-4.33l0.03,0.02C93.1,33.15,90.68,37.42,88.93,38.19z"/>

				<linearGradient id="SVGID_87_" gradientUnits="userSpaceOnUse" x1="2304.3943" y1="-155.2018" x2="2338.6611" y2="-82.6364" gradientTransform="matrix(-0.9889 0.1484 0.1484 0.9889 2427.7756 -178.3043)">
				<stop  offset="0" style="stop-color:#EDFF42"/>
				<stop  offset="0.1823" style="stop-color:#E6FD3D"/>
				<stop  offset="0.456" style="stop-color:#D1F82E"/>
				<stop  offset="0.7855" style="stop-color:#B0F016"/>
				<stop  offset="1" style="stop-color:#96EA04"/>
			</linearGradient>
			<path class="st90" d="M91.14,106.14c0,0-1.08-0.71-1.65-2.37c1.86-4.27,4.92-9.89,9.91-16.19c6.65-8.39,16.01-19.62,20.98-31.88
				c-0.98,3.24-3.22,9.18-7.88,16.16C105.42,82.43,94.48,94.43,91.14,106.14z"/>

				<linearGradient id="SVGID_88_" gradientUnits="userSpaceOnUse" x1="2324.4692" y1="-164.6815" x2="2358.7361" y2="-92.1162" gradientTransform="matrix(-0.9889 0.1484 0.1484 0.9889 2427.7756 -178.3043)">
				<stop  offset="0" style="stop-color:#EDFF42"/>
				<stop  offset="0.1823" style="stop-color:#E6FD3D"/>
				<stop  offset="0.456" style="stop-color:#D1F82E"/>
				<stop  offset="0.7855" style="stop-color:#B0F016"/>
				<stop  offset="1" style="stop-color:#96EA04"/>
			</linearGradient>
			<path class="st91" d="M76.11,12.77c0,0-2.08-4.78,1.61-7.38c3.3-2.32,7.2,0.45,7.2,0.45s-0.42-5.03,5.12-5.52
				c4.73-0.42,6.84,3.73,6.84,3.73s2.58-4.29,8.2-3.1c5.61,1.2,5.68,7.3,5.68,7.3s4.57-2.38,8.04,1.51s1.32,8.8,1.32,8.8
				s6.1-0.2,8.74,4.48c-1.61-1.52-4.7-3.7-9.33-3.89c0,0,1.81-6.05-1.3-8.64c-3.11-2.59-5.1-2.29-7.85-1.37c0,0-0.12-6.44-4.49-7.31
				c-4.38-0.87-7.28,1.26-8.58,2.82c0,0-0.09,0.52-1.48-0.8c-1.39-1.32-4.14-3.8-7.62-2.08c-3.48,1.71-2.65,4.98-2.65,4.98
				s-4.34-2.92-7.23-0.61c-2.88,2.3-1.49,7.02-1.49,7.02s-4.88-0.8-6.29,4.51c-0.04,0.16-0.09,0.3-0.14,0.43
				c0.03-0.51,0.13-1.06,0.3-1.65C72.18,11.49,76.11,12.77,76.11,12.77z"/>
		</g>
		<g>

				<linearGradient id="SVGID_89_" gradientUnits="userSpaceOnUse" x1="2296.6777" y1="-151.558" x2="2330.9448" y2="-78.9926" gradientTransform="matrix(-0.9889 0.1484 0.1484 0.9889 2427.7756 -178.3043)">
				<stop  offset="0" style="stop-color:#BBBB00"/>
				<stop  offset="0.2535" style="stop-color:#B4BB01"/>
				<stop  offset="0.633" style="stop-color:#9FBC02"/>
				<stop  offset="1" style="stop-color:#85BD04"/>
			</linearGradient>
			<path class="st92" d="M130.01,28.96c-0.41,3.81-2.79,6.38-2.79,6.38s0.27,0.22,0.67,0.61c-0.98-0.32-1.84-0.44-1.84-0.44
				C127.62,34.05,129.14,30.94,130.01,28.96z"/>

				<linearGradient id="SVGID_90_" gradientUnits="userSpaceOnUse" x1="2292.261" y1="-149.4722" x2="2326.5281" y2="-76.9069" gradientTransform="matrix(-0.9889 0.1484 0.1484 0.9889 2427.7756 -178.3043)">
				<stop  offset="0" style="stop-color:#BBBB00"/>
				<stop  offset="0.2535" style="stop-color:#B4BB01"/>
				<stop  offset="0.633" style="stop-color:#9FBC02"/>
				<stop  offset="1" style="stop-color:#85BD04"/>
			</linearGradient>
			<path class="st93" d="M131.75,42.28c0.25,1.13,0.28,2.34-0.06,3.59c-1.53,5.66-6.25,7.05-6.25,7.05s0.79,1.12,1.45,2.79
				c-1-1.7-2.24-3.52-2.24-3.52C130.23,49.31,131.47,44.49,131.75,42.28z"/>

				<linearGradient id="SVGID_91_" gradientUnits="userSpaceOnUse" x1="2334.9617" y1="-169.6364" x2="2369.2285" y2="-97.071" gradientTransform="matrix(-0.9889 0.1484 0.1484 0.9889 2427.7756 -178.3043)">
				<stop  offset="0" style="stop-color:#BBBB00"/>
				<stop  offset="0.2535" style="stop-color:#B4BB01"/>
				<stop  offset="0.633" style="stop-color:#9FBC02"/>
				<stop  offset="1" style="stop-color:#85BD04"/>
			</linearGradient>
			<path class="st94" d="M95.95,32.89c0,0,3.13,2.76,0.16,5.58c-2.97,2.82-4.84,0.56-4.84,0.56s-0.74,3-4.42,3.38
				c-3.68,0.38-4.94-3.5-4.94-3.5s-2.28,2.89-5.74,1.37c-3.46-1.52-1.97-6.33-1.97-6.33s-3.37,0.5-4.31-3.88
				c1.46,3.22,5.23,3.23,5.23,3.23s-0.9,4.21,1.73,5.86c2.62,1.64,5.29-0.96,5.29-0.96s1.5,3.17,4.56,3.22
				c3.06,0.05,4.49-2.88,4.49-2.88s1.41,1.49,4.13-0.79c2.72-2.28-0.89-4.79-0.89-4.79c1.11-0.3,1.93-2.6,2.26-3.69
				C97.14,30.3,97.17,31.73,95.95,32.89z"/>

				<linearGradient id="SVGID_92_" gradientUnits="userSpaceOnUse" x1="2327.4766" y1="-166.1018" x2="2361.7434" y2="-93.5364" gradientTransform="matrix(-0.9889 0.1484 0.1484 0.9889 2427.7756 -178.3043)">
				<stop  offset="0" style="stop-color:#BBBB00"/>
				<stop  offset="0.2535" style="stop-color:#B4BB01"/>
				<stop  offset="0.633" style="stop-color:#9FBC02"/>
				<stop  offset="1" style="stop-color:#85BD04"/>
			</linearGradient>
			<path class="st95" d="M77.21,14.47c3.9-5.68,13.71-9.36,24.39-7.23c7.85,1.57,13.51,8.78,15.97,12.49
				c-5.92-8.39-14.85-12.09-21.67-11.98C85.74,7.92,74,13.42,75.56,26.1c0.34,2.77,1.01,4.88,1.87,6.48
				C74.76,29.77,73.47,19.92,77.21,14.47z"/>

				<linearGradient id="SVGID_93_" gradientUnits="userSpaceOnUse" x1="2300.844" y1="-153.5253" x2="2335.1108" y2="-80.96" gradientTransform="matrix(-0.9889 0.1484 0.1484 0.9889 2427.7756 -178.3043)">
				<stop  offset="0" style="stop-color:#BBBB00"/>
				<stop  offset="0.2535" style="stop-color:#B4BB01"/>
				<stop  offset="0.633" style="stop-color:#9FBC02"/>
				<stop  offset="1" style="stop-color:#85BD04"/>
			</linearGradient>
			<path class="st96" d="M100.73,108.95c2.07-3.2-0.88-10.4-0.88-10.4s4.51-0.51,8.16-4.45c3.65-3.95,0.49-11.45,0.49-11.45
				s5.03-0.42,8.12-3.6c3.09-3.18,1.09-10.86,1.09-10.86c3.11,0.22,6.6-2.06,8.56-3.59c-3.46,4.66-7.42,4.44-7.42,4.44
				s2.99,6.35-0.92,10.84c-3.91,4.49-7.83,4.4-7.83,4.4s2.44,6.09-0.61,10.62c-3.06,4.54-7.31,4.49-7.31,4.49s2.85,6.54,0.53,11.47
				c-2.32,4.93-5.91,7-8.71,7.59c-2.8,0.59-7.24-6.39-7.24-6.39s0.36-2.3,1.85-6.17C90.77,111.34,98.69,112.1,100.73,108.95z"/>
		</g>
	</g>
</g>
</svg>
