<?xml version="1.0" encoding="utf-8"?>
<!-- Generator: Adobe Illustrator 24.0.3, SVG Export Plug-In . SVG Version: 6.00 Build 0)  -->
<svg version="1.1" id="Layer_1" xmlns="http://www.w3.org/2000/svg" xmlns:xlink="http://www.w3.org/1999/xlink" x="0px" y="0px"
	 viewBox="0 0 169.31 208.66" style="enable-background:new 0 0 169.31 208.66;" xml:space="preserve">
<style type="text/css">
	.st0{fill:#569908;}
	.st1{fill:#70B327;}
	.st2{fill:#7BC32E;}
	.st3{fill:#92D54B;}
</style>
<g>
	<g>
		<path class="st0" d="M32.64,0C28.36,22.4,13.01,39.27,7.97,46.56c-0.71,1.04-1.33,2.15-1.86,3.29
			c-3.24,6.93-3.42,15.08-3.42,15.08l-1.39,5.43l-0.87,3.38c-0.06-1.08-0.08-2.19-0.07-3.32c0.27-18,9.84-41.03,17.18-49.79
			c7.68-9.17,14.88-20.29,15.1-20.63C32.64,0.01,32.64,0.01,32.64,0z"/>
		<path class="st1" d="M32.63,0.01c-1.27,4.8-13.09,24.41-18.37,31.45c-3.45,4.6-6.47,13.07-8.16,18.39
			c-3.24,6.93-3.42,15.08-3.42,15.08l-1.39,5.43c-0.31,0.02-0.62,0.04-0.94,0.06c0.27-18,9.84-41.03,17.18-49.79
			C25.22,11.47,32.41,0.35,32.63,0.01z"/>
	</g>
	<path class="st2" d="M26.35,151.77c-0.5,6.9-2.27,8.36-4.23,7.6c-2.96-1.14-6.34-7.35-6.34-7.35s0-16.36-10.57-43.29
		c-5.92-15.08-5.76-31.42-4.48-42.88c1.01-9.01,2.72-15.01,2.72-15.01s-0.02,0.27-0.03,0.76c-0.13,3.7-0.48,20.14,3.3,29.7
		C10.99,92.12,27.61,134.41,26.35,151.77z"/>
	<path class="st3" d="M26.35,151.77c-0.5,6.9-2.27,8.36-4.23,7.6c-0.59-1.61-0.98-3.76-1.06-6.59
		c-0.5-17.87-10.57-42.29-14.35-55.37C3.27,85.45,1.08,68.65,0.72,65.85c1.01-9.01,2.72-15.01,2.72-15.01s-0.02,0.27-0.03,0.76
		c-0.13,3.7-0.48,20.14,3.3,29.7C10.99,92.12,27.61,134.41,26.35,151.77z"/>
	<path class="st1" d="M55.54,69.47c-1.01-0.76-6.8,1.51-15.1,9.56S22.57,89.1,22.57,89.1c8.05-4.53,14.85-21.65,18.88-26.93
		s8.05-1.26,8.05-1.26s1.38,1.83,2.84,3.8C54.17,67.19,56.1,69.89,55.54,69.47z"/>
	<path class="st0" d="M52.34,64.71l-0.32,0.23c0,0-4.28-0.25-9.56,5.79S30.63,86.08,22.57,89.1c8.05-4.53,14.85-21.65,18.88-26.93
		s8.05-1.26,8.05-1.26S50.89,62.74,52.34,64.71z"/>
	<path class="st3" d="M47.24,59.4c0,0,10.32,7.55,6.8,31.71S40.19,148.5,34.15,156.3s-6.8,20.64-6.29,21.9
		c0.5,1.26,8.56,5.54,9.31,5.79c0.76,0.25,9.06-3.02,10.07-3.52c1.01-0.5,4.03-7.05,4.78-8.05c0.76-1.01,9.06-35.74,9.06-35.74
		s9.56-38.76,4.53-57.39C65.61,79.29,57.56,62.42,47.24,59.4z"/>
	<path class="st3" d="M89.27,103.45c-3.02-10.32-5.54-22.9-5.54-22.9c-2.27,17.87,5.03,38.51,0.25,66.95
		c-4.78,28.44-16.11,56.88-16.11,56.88s5.03,3.52,8.81-1.51c3.78-5.03,12.33-34.73,15.35-52.35S92.29,113.77,89.27,103.45z"/>
	<path class="st3" d="M81.47,203.62c0,0,8.31,3.27,12.33-1.51c4.03-4.78,21.39-28.44,35.24-41.53s40.27-29.45,40.27-29.45
		s-27.18,13.34-51.09,29.95S81.47,203.62,81.47,203.62z"/>
	<path class="st2" d="M57.81,114.77c4.9-20.99,3.96-36.38,2.34-44.5c-3.29-4.54-7.83-9.39-12.91-10.88c0,0,10.32,7.55,6.8,31.71
		S40.19,148.5,34.15,156.3c-3.87,5-5.57,12.07-6.16,16.83l9.18,2.8C37.17,175.94,50.76,144.98,57.81,114.77z"/>
	<path class="st2" d="M84.24,166.62c6.04-15.61,5.29-49.08,3.52-57.14c-1.59-7.29-3.6-25.3-3.97-28.65
		c-0.04-0.19-0.06-0.29-0.06-0.29c-2.27,17.87,5.03,38.51,0.25,66.95c-4.78,28.44-16.11,56.88-16.11,56.88s0.04,0.03,0.1,0.07
		c2.06-0.03,4.93-0.32,4.93-0.32S78.2,182.23,84.24,166.62z"/>
	<path class="st2" d="M93.8,202.11c4.03-4.78,21.39-28.44,35.24-41.53s40.27-29.45,40.27-29.45s-0.52,0.26-1.49,0.74
		c-7.5,5.4-27.8,14.58-45.83,29.96c-18.88,16.11-36.24,41.28-36.24,41.28l1.73,1.59C89.73,204.69,92.13,204.1,93.8,202.11z"/>
	<path class="st1" d="M72.66,174.07c-10.57,12.19-26.33,28.2-26.33,28.2l2.45,6.39l9.94-0.43c0,0,10.42-8.24,19.23-18.88
		c8.81-10.64,16.18-23.93,31.21-20.63l1.48-2.04c0,0-9.2-4.33-16.91-4.33C93.72,162.35,83.23,161.88,72.66,174.07z"/>
	<path class="st1" d="M122.08,140.7c-7.89-12.33-12.33-19.05-24.33-20.97c0,0-8.98-3.19-15.02,2.35l5.79-1.19
		c0,0,7.3-2.08,12.58,7.74s9.31,26.92,39.01,27.05C140.12,155.67,129.96,153.03,122.08,140.7z"/>
	<path class="st0" d="M122.08,140.7c-7.89-12.33-12.33-19.05-24.33-20.97c0,0-2.45-0.87-5.65-0.91l-0.39,0.91
		c0,0,11.75,1.68,16.11,10.07c4.26,8.18,13.62,25.3,31.21,25.51C136.2,154.25,128.41,150.6,122.08,140.7z"/>
	<path class="st0" d="M83.99,173.08c9.06-8.73,19.46-8.05,19.46-8.05l0.7-0.81c-3.12-0.98-6.93-1.87-10.43-1.87
		c0,0-10.49-0.46-21.06,11.72c-10.57,12.19-26.33,28.2-26.33,28.2l2.17,5.66c1.61-0.7,3.4-1.58,5.28-2.63
		C59.82,201.95,74.93,181.81,83.99,173.08z"/>
	<path class="st3" d="M97.75,119.72c0,0-6.38-4.03-16.44,9.4s-17.79,60.07-35.91,71.15l-10.4,3.02l-3.36-15.77l6.71-10.07
		c0,0,8.39-6.04,13.42-21.48c5.03-15.44,9.73-29.2,21.14-34.57C84.32,116.03,93.72,117.38,97.75,119.72z"/>
	<path class="st3" d="M93.72,162.35c0,0,10.07,2.01,15.44,6.38c5.37,4.36,18.46,17.79,41.28,13.76c0,0-10.74-1.68-23.83-9.06
		S109.16,161,93.72,162.35z"/>
	<path class="st2" d="M58.06,161.59c10.07-24.92,14.6-41.03,27.69-43.8c0.02,0,0.04-0.01,0.05-0.01c-3.79,0.33-8.17,1.4-12.89,3.62
		c-11.41,5.37-16.11,19.13-21.14,34.57c-5.03,15.44-13.42,21.48-13.42,21.48l-6.71,10.07l0.99,4.64l5.31,1.4
		C37.93,193.56,47.99,186.51,58.06,161.59z"/>
	<path class="st2" d="M102.77,162.38c4.07,2.04,11.01,5.77,14.44,9.03c4.85,4.61,21.4,11.32,32.28,10.9
		c-2.88-0.59-12.08-2.79-22.88-8.88C116.5,167.72,111.59,163.42,102.77,162.38z"/>
</g>
</svg>
