<?xml version="1.0" encoding="utf-8"?>
<!-- Generator: Adobe Illustrator 24.0.3, SVG Export Plug-In . SVG Version: 6.00 Build 0)  -->
<svg version="1.1" id="Layer_1" xmlns="http://www.w3.org/2000/svg" xmlns:xlink="http://www.w3.org/1999/xlink" x="0px" y="0px"
	 viewBox="0 0 209.71 120.73" style="enable-background:new 0 0 209.71 120.73;" xml:space="preserve">
<style type="text/css">
	.st0{fill:url(#SVGID_1_);}
	.st1{fill:url(#SVGID_2_);}
	.st2{fill:url(#SVGID_3_);}
	.st3{fill:url(#SVGID_4_);}
	.st4{fill:url(#SVGID_5_);}
	.st5{fill:url(#SVGID_6_);}
	.st6{fill:url(#SVGID_7_);}
	.st7{fill:url(#SVGID_8_);}
	.st8{fill:url(#SVGID_9_);}
	.st9{fill:url(#SVGID_10_);}
	.st10{fill:url(#SVGID_11_);}
	.st11{fill:url(#SVGID_12_);}
	.st12{fill:url(#SVGID_13_);}
	.st13{fill:url(#SVGID_14_);}
	.st14{fill:url(#SVGID_15_);}
	.st15{fill:url(#SVGID_16_);}
	.st16{fill:url(#SVGID_17_);}
	.st17{fill:url(#SVGID_18_);}
	.st18{fill:url(#SVGID_19_);}
	.st19{fill:url(#SVGID_20_);}
	.st20{fill:url(#SVGID_21_);}
	.st21{fill:url(#SVGID_22_);}
	.st22{fill:url(#SVGID_23_);}
	.st23{fill:url(#SVGID_24_);}
	.st24{fill:url(#SVGID_25_);}
	.st25{fill:url(#SVGID_26_);}
	.st26{fill:url(#SVGID_27_);}
	.st27{fill:url(#SVGID_28_);}
	.st28{fill:url(#SVGID_29_);}
	.st29{fill:url(#SVGID_30_);}
	.st30{fill:url(#SVGID_31_);}
	.st31{fill:url(#SVGID_32_);}
	.st32{fill:url(#SVGID_33_);}
	.st33{fill:url(#SVGID_34_);}
	.st34{fill:url(#SVGID_35_);}
	.st35{fill:url(#SVGID_36_);}
	.st36{fill:url(#SVGID_37_);}
	.st37{fill:url(#SVGID_38_);}
	.st38{fill:url(#SVGID_39_);}
	.st39{fill:url(#SVGID_40_);}
	.st40{fill:url(#SVGID_41_);}
	.st41{fill:url(#SVGID_42_);}
	.st42{fill:url(#SVGID_43_);}
	.st43{fill:url(#SVGID_44_);}
</style>
<g>
	<linearGradient id="SVGID_1_" gradientUnits="userSpaceOnUse" x1="21.6022" y1="35.3357" x2="29.9921" y2="70.909">
		<stop  offset="0" style="stop-color:#FDCD08"/>
		<stop  offset="0.1949" style="stop-color:#FCC60A"/>
		<stop  offset="0.4874" style="stop-color:#FAB110"/>
		<stop  offset="0.8397" style="stop-color:#F6901B"/>
		<stop  offset="1" style="stop-color:#F47E20"/>
	</linearGradient>
	<path class="st0" d="M44.78,51.85c0.7-1.83-0.63-3.84-2.69-3.69c2.77-4.32-1.79-9.88-6.23-10.44c-3.46-0.44-8.9,2.11-7.01,6.33
		c-1.24-0.24-1.55,0-2.71,0.62c-3.95-3.73-15.96-1.4-13.05,5.44c-3.73,0.08-4.03,3.92-3.37,6.71c-1.86,0.05-3.6,1.01-3.38,3.04
		c-2.14-1.01-5.43,0.55-6.16,2.84c-0.78,2.46,1.23,5.3,2.82,6.84c-1.72,0.66-1.54,2.08-0.09,3.1c-1.3,0.31-2.11,1.28-1.88,2.69
		L18.48,78c11.15,5.1,33.41,4.75,38.78-8.93C60.64,60.44,53.83,51.36,44.78,51.85z"/>
	<linearGradient id="SVGID_2_" gradientUnits="userSpaceOnUse" x1="218.3534" y1="72.9778" x2="166.6713" y2="93.4493">
		<stop  offset="0" style="stop-color:#FDCD08"/>
		<stop  offset="0.1949" style="stop-color:#FCC60A"/>
		<stop  offset="0.4874" style="stop-color:#FAB110"/>
		<stop  offset="0.8397" style="stop-color:#F6901B"/>
		<stop  offset="1" style="stop-color:#F47E20"/>
	</linearGradient>
	<path class="st1" d="M200.42,100.09c1.06-2.05,0.62-4.45-2.02-5.06c0.56-1.16,0.13-2.39-0.92-3.29c5.27-0.32,7.21-6.96,4.65-11
		c-1.07-1.69-3.77-2.19-4.46-3.4c-0.91-1.61,0.62-3.38-1.18-5.06c2.64-1.51,3.23-4.07,1.26-6.29c6.91-6.55-7.35-19.08-12.23-9.85
		c-1.07-0.5-2.49-0.34-3.54-0.01c0.24-3.15-4.15-7.86-6.75-4.1c-1.25-0.83-2.77-1.27-3.71-0.22c-15.03,7.95-21.63,22.01-21.51,35.04
		c0.18,20.03,15.66,30.3,33.97,33.21c8.5,1.35,26.16,1.77,25.72-11.02C209.5,103.15,205.94,100.12,200.42,100.09z"/>
	<linearGradient id="SVGID_3_" gradientUnits="userSpaceOnUse" x1="22.7823" y1="35.0573" x2="31.1722" y2="70.6307">
		<stop  offset="0" style="stop-color:#FAA919"/>
		<stop  offset="0.223" style="stop-color:#F8A21A"/>
		<stop  offset="0.5577" style="stop-color:#F18D1E"/>
		<stop  offset="0.9609" style="stop-color:#E76C23"/>
		<stop  offset="1" style="stop-color:#E66824"/>
	</linearGradient>
	<path class="st2" d="M43.7,62.51c0.24-1.38-0.29-2.26-1.68-2.35c0.22-2.54-2.19-3.39-4-1.99c-0.62-3.34-2.86-5.7-6.31-6.32
		c-2.39-0.43-6.37,0.08-6.16,3.21c-3.75-4.12-8.59,1.08-7.48,5.12c-3.3-3.43-5.12,2.68-3.66,5.35c-3.48-0.67-2.88,2.84-0.66,4.18
		c-1.34,0.75-1.2,1.95,0.36,2.59l-3.88,4.44L18.48,78c9.45,4.32,26.87,4.73,35.24-3.58C54.63,68.61,49.82,62.17,43.7,62.51z"/>
	<linearGradient id="SVGID_4_" gradientUnits="userSpaceOnUse" x1="220.5517" y1="78.5276" x2="168.8697" y2="98.999">
		<stop  offset="0" style="stop-color:#FAA919"/>
		<stop  offset="0.223" style="stop-color:#F8A21A"/>
		<stop  offset="0.5577" style="stop-color:#F18D1E"/>
		<stop  offset="0.9609" style="stop-color:#E76C23"/>
		<stop  offset="1" style="stop-color:#E66824"/>
	</linearGradient>
	<path class="st3" d="M191.71,105.47c-0.32-1.77-2.01-2.05-3.37-1.19c0.58-1.12,0.2-3.04-1.05-4.05c3.22-0.51,7.12-5.45,3.41-7.88
		c1.92-2.27-0.23-5.5-3.02-5.32c0.11-1.77-1.25-2.48-2.76-1.77c-0.2-1.19-0.51-1.88-0.96-2.83c1.81-0.19,5.98-1.65,4.97-3.76
		c2.71-1.76,2.46-7.14-1.25-7.42c0.45-7.72-10.06-9.02-13.48-3.11c-1.06-3.22-4.25,0.52-4.61,2.11c-0.79-2.31-3.89-1.89-4.44,0.36
		l-14.48,8.89c-0.46,2.46-0.67,4.93-0.65,7.36c0.18,20.03,15.66,30.3,33.97,33.21c2.28,0.36,5.22,0.66,8.29,0.65
		c0.06-0.04,0.13-0.08,0.19-0.12C196.96,117.66,200,105.1,191.71,105.47z"/>
	<linearGradient id="SVGID_5_" gradientUnits="userSpaceOnUse" x1="34.1166" y1="32.3841" x2="42.5065" y2="67.9575">
		<stop  offset="0" style="stop-color:#F6EC42"/>
		<stop  offset="0.2119" style="stop-color:#F6E53F"/>
		<stop  offset="0.5299" style="stop-color:#F7D038"/>
		<stop  offset="0.9129" style="stop-color:#F9AF2D"/>
		<stop  offset="1" style="stop-color:#F9A62A"/>
	</linearGradient>
	<path class="st4" d="M35.51,45.2l2.52,1.76C40.62,45.34,36.35,42.27,35.51,45.2z"/>
	<linearGradient id="SVGID_6_" gradientUnits="userSpaceOnUse" x1="30.3784" y1="33.2657" x2="38.7683" y2="68.8392">
		<stop  offset="0" style="stop-color:#F6EC42"/>
		<stop  offset="0.2119" style="stop-color:#F6E53F"/>
		<stop  offset="0.5299" style="stop-color:#F7D038"/>
		<stop  offset="0.9129" style="stop-color:#F9AF2D"/>
		<stop  offset="1" style="stop-color:#F9A62A"/>
	</linearGradient>
	<path class="st5" d="M32.99,48.22l1.76-0.25C34.31,46.86,33.14,46.91,32.99,48.22z"/>
	<linearGradient id="SVGID_7_" gradientUnits="userSpaceOnUse" x1="37.3859" y1="31.6131" x2="45.7758" y2="67.1864">
		<stop  offset="0" style="stop-color:#F6EC42"/>
		<stop  offset="0.2119" style="stop-color:#F6E53F"/>
		<stop  offset="0.5299" style="stop-color:#F7D038"/>
		<stop  offset="0.9129" style="stop-color:#F9AF2D"/>
		<stop  offset="1" style="stop-color:#F9A62A"/>
	</linearGradient>
	<path class="st6" d="M39.29,42.93l1.01,2.27C41.93,44.64,40.7,42.11,39.29,42.93z"/>
	<linearGradient id="SVGID_8_" gradientUnits="userSpaceOnUse" x1="32.0819" y1="32.864" x2="40.4718" y2="68.4374">
		<stop  offset="0" style="stop-color:#F6EC42"/>
		<stop  offset="0.2119" style="stop-color:#F6E53F"/>
		<stop  offset="0.5299" style="stop-color:#F7D038"/>
		<stop  offset="0.9129" style="stop-color:#F9AF2D"/>
		<stop  offset="1" style="stop-color:#F9A62A"/>
	</linearGradient>
	<path class="st7" d="M31.23,43.94l6.8-1.76C35.9,36.34,28.81,41.87,31.23,43.94z"/>
	<linearGradient id="SVGID_9_" gradientUnits="userSpaceOnUse" x1="37.4617" y1="31.5952" x2="45.8516" y2="67.1686">
		<stop  offset="0" style="stop-color:#F6EC42"/>
		<stop  offset="0.2119" style="stop-color:#F6E53F"/>
		<stop  offset="0.5299" style="stop-color:#F7D038"/>
		<stop  offset="0.9129" style="stop-color:#F9AF2D"/>
		<stop  offset="1" style="stop-color:#F9A62A"/>
	</linearGradient>
	<path class="st8" d="M40.8,50.23l2.01,1.51C43.68,50.09,41.86,48.97,40.8,50.23z"/>
	<linearGradient id="SVGID_10_" gradientUnits="userSpaceOnUse" x1="38.186" y1="31.4243" x2="46.5759" y2="66.9978">
		<stop  offset="0" style="stop-color:#F6EC42"/>
		<stop  offset="0.2119" style="stop-color:#F6E53F"/>
		<stop  offset="0.5299" style="stop-color:#F7D038"/>
		<stop  offset="0.9129" style="stop-color:#F9AF2D"/>
		<stop  offset="1" style="stop-color:#F9A62A"/>
	</linearGradient>
	<path class="st9" d="M42.81,56.78l2.77,0.25C44.93,56.02,43.58,55.95,42.81,56.78z"/>
	<linearGradient id="SVGID_11_" gradientUnits="userSpaceOnUse" x1="42.6121" y1="30.3804" x2="51.002" y2="65.9538">
		<stop  offset="0" style="stop-color:#F6EC42"/>
		<stop  offset="0.2119" style="stop-color:#F6E53F"/>
		<stop  offset="0.5299" style="stop-color:#F7D038"/>
		<stop  offset="0.9129" style="stop-color:#F9AF2D"/>
		<stop  offset="1" style="stop-color:#F9A62A"/>
	</linearGradient>
	<path class="st10" d="M45.08,54.76l6.54,1.76C53.12,53.77,46.67,52.74,45.08,54.76z"/>
	<linearGradient id="SVGID_12_" gradientUnits="userSpaceOnUse" x1="36.7842" y1="31.755" x2="45.1741" y2="67.3284">
		<stop  offset="0" style="stop-color:#F6EC42"/>
		<stop  offset="0.2119" style="stop-color:#F6E53F"/>
		<stop  offset="0.5299" style="stop-color:#F7D038"/>
		<stop  offset="0.9129" style="stop-color:#F9AF2D"/>
		<stop  offset="1" style="stop-color:#F9A62A"/>
	</linearGradient>
	<path class="st11" d="M41.3,53l0.76,1.51C42.77,53.67,42.49,53.14,41.3,53z"/>
	<linearGradient id="SVGID_13_" gradientUnits="userSpaceOnUse" x1="26.5708" y1="34.1638" x2="34.9608" y2="69.7373">
		<stop  offset="0" style="stop-color:#F6EC42"/>
		<stop  offset="0.2119" style="stop-color:#F6E53F"/>
		<stop  offset="0.5299" style="stop-color:#F7D038"/>
		<stop  offset="0.9129" style="stop-color:#F9AF2D"/>
		<stop  offset="1" style="stop-color:#F9A62A"/>
	</linearGradient>
	<path class="st12" d="M28.72,46.71l1.51-0.76C29.76,45.47,27.95,45.15,28.72,46.71z"/>
	<linearGradient id="SVGID_14_" gradientUnits="userSpaceOnUse" x1="14.6363" y1="36.9785" x2="23.0263" y2="72.5519">
		<stop  offset="0" style="stop-color:#F6EC42"/>
		<stop  offset="0.2119" style="stop-color:#F6E53F"/>
		<stop  offset="0.5299" style="stop-color:#F7D038"/>
		<stop  offset="0.9129" style="stop-color:#F9AF2D"/>
		<stop  offset="1" style="stop-color:#F9A62A"/>
	</linearGradient>
	<path class="st13" d="M15.12,49.73l4.53-4.03C17.08,43.42,12.31,46.38,15.12,49.73z"/>
	<linearGradient id="SVGID_15_" gradientUnits="userSpaceOnUse" x1="2.3825" y1="39.8684" x2="10.7724" y2="75.442">
		<stop  offset="0" style="stop-color:#F6EC42"/>
		<stop  offset="0.2119" style="stop-color:#F6E53F"/>
		<stop  offset="0.5299" style="stop-color:#F7D038"/>
		<stop  offset="0.9129" style="stop-color:#F9AF2D"/>
		<stop  offset="1" style="stop-color:#F9A62A"/>
	</linearGradient>
	<path class="st14" d="M7.07,63.32l1.51-0.76C7.68,62.07,7.12,62.28,7.07,63.32z"/>
	<linearGradient id="SVGID_16_" gradientUnits="userSpaceOnUse" x1="4.8487" y1="39.2869" x2="13.2386" y2="74.8603">
		<stop  offset="0" style="stop-color:#F6EC42"/>
		<stop  offset="0.2119" style="stop-color:#F6E53F"/>
		<stop  offset="0.5299" style="stop-color:#F7D038"/>
		<stop  offset="0.9129" style="stop-color:#F9AF2D"/>
		<stop  offset="1" style="stop-color:#F9A62A"/>
	</linearGradient>
	<path class="st15" d="M9.08,60.3l1.51-1.76C9.37,57.24,7.24,59.03,9.08,60.3z"/>
	<linearGradient id="SVGID_17_" gradientUnits="userSpaceOnUse" x1="-0.316" y1="40.5049" x2="8.074" y2="76.0784">
		<stop  offset="0" style="stop-color:#F6EC42"/>
		<stop  offset="0.2119" style="stop-color:#F6E53F"/>
		<stop  offset="0.5299" style="stop-color:#F7D038"/>
		<stop  offset="0.9129" style="stop-color:#F9AF2D"/>
		<stop  offset="1" style="stop-color:#F9A62A"/>
	</linearGradient>
	<path class="st16" d="M6.06,68.86l0.76-1.51C5.34,67.11,4.82,68.02,6.06,68.86z"/>
	<linearGradient id="SVGID_18_" gradientUnits="userSpaceOnUse" x1="19.9941" y1="35.7149" x2="28.384" y2="71.2883">
		<stop  offset="0" style="stop-color:#F6EC42"/>
		<stop  offset="0.2119" style="stop-color:#F6E53F"/>
		<stop  offset="0.5299" style="stop-color:#F7D038"/>
		<stop  offset="0.9129" style="stop-color:#F9AF2D"/>
		<stop  offset="1" style="stop-color:#F9A62A"/>
	</linearGradient>
	<path class="st17" d="M20.91,46.71l3.27,0.25C24.52,44.37,20.26,44.37,20.91,46.71z"/>
	<linearGradient id="SVGID_19_" gradientUnits="userSpaceOnUse" x1="-1.2725" y1="40.7306" x2="7.1174" y2="76.304">
		<stop  offset="0" style="stop-color:#F6EC42"/>
		<stop  offset="0.2119" style="stop-color:#F6E53F"/>
		<stop  offset="0.5299" style="stop-color:#F7D038"/>
		<stop  offset="0.9129" style="stop-color:#F9AF2D"/>
		<stop  offset="1" style="stop-color:#F9A62A"/>
	</linearGradient>
	<path class="st18" d="M4.05,66.09l1.76-3.78C2.43,61.13,0.83,65.11,4.05,66.09z"/>
	<linearGradient id="SVGID_20_" gradientUnits="userSpaceOnUse" x1="7.357" y1="38.6952" x2="15.747" y2="74.2689">
		<stop  offset="0" style="stop-color:#F6EC42"/>
		<stop  offset="0.2119" style="stop-color:#F6E53F"/>
		<stop  offset="0.5299" style="stop-color:#F7D038"/>
		<stop  offset="0.9129" style="stop-color:#F9AF2D"/>
		<stop  offset="1" style="stop-color:#F9A62A"/>
	</linearGradient>
	<path class="st19" d="M11.6,58.29h0.76C12.12,57.66,11.86,57.68,11.6,58.29z"/>
	<linearGradient id="SVGID_21_" gradientUnits="userSpaceOnUse" x1="8.1247" y1="38.5143" x2="16.5146" y2="74.0877">
		<stop  offset="0" style="stop-color:#F6EC42"/>
		<stop  offset="0.2119" style="stop-color:#F6E53F"/>
		<stop  offset="0.5299" style="stop-color:#F7D038"/>
		<stop  offset="0.9129" style="stop-color:#F9AF2D"/>
		<stop  offset="1" style="stop-color:#F9A62A"/>
	</linearGradient>
	<path class="st20" d="M12.1,56.02l0.5-2.27C10.88,53.09,10.51,55.51,12.1,56.02z"/>
	<linearGradient id="SVGID_22_" gradientUnits="userSpaceOnUse" x1="17.2537" y1="36.3612" x2="25.6436" y2="71.9347">
		<stop  offset="0" style="stop-color:#F6EC42"/>
		<stop  offset="0.2119" style="stop-color:#F6E53F"/>
		<stop  offset="0.5299" style="stop-color:#F7D038"/>
		<stop  offset="0.9129" style="stop-color:#F9AF2D"/>
		<stop  offset="1" style="stop-color:#F9A62A"/>
	</linearGradient>
	<path class="st21" d="M18.9,48.72h2.52C21.35,47.25,18.98,47.22,18.9,48.72z"/>
	<linearGradient id="SVGID_23_" gradientUnits="userSpaceOnUse" x1="9.6399" y1="38.1569" x2="18.0298" y2="73.7303">
		<stop  offset="0" style="stop-color:#F6EC42"/>
		<stop  offset="0.2119" style="stop-color:#F6E53F"/>
		<stop  offset="0.5299" style="stop-color:#F7D038"/>
		<stop  offset="0.9129" style="stop-color:#F9AF2D"/>
		<stop  offset="1" style="stop-color:#F9A62A"/>
	</linearGradient>
	<path class="st22" d="M11.35,53h3.52C14.9,50.65,11.2,50.66,11.35,53z"/>
	<linearGradient id="SVGID_24_" gradientUnits="userSpaceOnUse" x1="208.4675" y1="48.0199" x2="156.7854" y2="68.4914">
		<stop  offset="0" style="stop-color:#F6EC42"/>
		<stop  offset="0.2119" style="stop-color:#F6E53F"/>
		<stop  offset="0.5299" style="stop-color:#F7D038"/>
		<stop  offset="0.9129" style="stop-color:#F9AF2D"/>
		<stop  offset="1" style="stop-color:#F9A62A"/>
	</linearGradient>
	<path class="st23" d="M178.48,59.54l1.01,0.5C179.46,59.11,179.12,58.82,178.48,59.54z"/>
	<linearGradient id="SVGID_25_" gradientUnits="userSpaceOnUse" x1="207.0498" y1="44.4408" x2="155.3677" y2="64.9123">
		<stop  offset="0" style="stop-color:#F6EC42"/>
		<stop  offset="0.2119" style="stop-color:#F6E53F"/>
		<stop  offset="0.5299" style="stop-color:#F7D038"/>
		<stop  offset="0.9129" style="stop-color:#F9AF2D"/>
		<stop  offset="1" style="stop-color:#F9A62A"/>
	</linearGradient>
	<path class="st24" d="M174.95,56.52l2.01,0.5C176.69,56.02,175.69,56.06,174.95,56.52z"/>
	<linearGradient id="SVGID_26_" gradientUnits="userSpaceOnUse" x1="208.7782" y1="48.8044" x2="157.0962" y2="69.2759">
		<stop  offset="0" style="stop-color:#F6EC42"/>
		<stop  offset="0.2119" style="stop-color:#F6E53F"/>
		<stop  offset="0.5299" style="stop-color:#F7D038"/>
		<stop  offset="0.9129" style="stop-color:#F9AF2D"/>
		<stop  offset="1" style="stop-color:#F9A62A"/>
	</linearGradient>
	<path class="st25" d="M182,59.04l3.27,0.5C185.86,56.79,181.37,57.12,182,59.04z"/>
	<linearGradient id="SVGID_27_" gradientUnits="userSpaceOnUse" x1="206.4534" y1="42.9351" x2="154.7713" y2="63.4066">
		<stop  offset="0" style="stop-color:#F6EC42"/>
		<stop  offset="0.2119" style="stop-color:#F6E53F"/>
		<stop  offset="0.5299" style="stop-color:#F7D038"/>
		<stop  offset="0.9129" style="stop-color:#F9AF2D"/>
		<stop  offset="1" style="stop-color:#F9A62A"/>
	</linearGradient>
	<path class="st26" d="M175.96,54.26l4.53,1.26C180.98,52.05,176.36,50.51,175.96,54.26z"/>
	<linearGradient id="SVGID_28_" gradientUnits="userSpaceOnUse" x1="225.5838" y1="91.2316" x2="173.9017" y2="111.7031">
		<stop  offset="0" style="stop-color:#F6EC42"/>
		<stop  offset="0.2119" style="stop-color:#F6E53F"/>
		<stop  offset="0.5299" style="stop-color:#F7D038"/>
		<stop  offset="0.9129" style="stop-color:#F9AF2D"/>
		<stop  offset="1" style="stop-color:#F9A62A"/>
	</linearGradient>
	<path class="st27" d="M197.35,101.79c-0.39,0.18-0.3,0.45-0.5,0.79l1.01,0.25C197.81,102.29,197.97,101.98,197.35,101.79z"/>
	<linearGradient id="SVGID_29_" gradientUnits="userSpaceOnUse" x1="216.6551" y1="68.6902" x2="164.973" y2="89.1616">
		<stop  offset="0" style="stop-color:#F6EC42"/>
		<stop  offset="0.2119" style="stop-color:#F6E53F"/>
		<stop  offset="0.5299" style="stop-color:#F7D038"/>
		<stop  offset="0.9129" style="stop-color:#F9AF2D"/>
		<stop  offset="1" style="stop-color:#F9A62A"/>
	</linearGradient>
	<path class="st28" d="M194.08,75.91l0.5,3.02C197.89,79.07,196.07,74.68,194.08,75.91z"/>
	<linearGradient id="SVGID_30_" gradientUnits="userSpaceOnUse" x1="221.1634" y1="80.0719" x2="169.4813" y2="100.5433">
		<stop  offset="0" style="stop-color:#F6EC42"/>
		<stop  offset="0.2119" style="stop-color:#F6E53F"/>
		<stop  offset="0.5299" style="stop-color:#F7D038"/>
		<stop  offset="0.9129" style="stop-color:#F9AF2D"/>
		<stop  offset="1" style="stop-color:#F9A62A"/>
	</linearGradient>
	<path class="st29" d="M200.12,88.49l-5.29,1.01C196.26,90.73,199.83,90.4,200.12,88.49z"/>
	<linearGradient id="SVGID_31_" gradientUnits="userSpaceOnUse" x1="224.2834" y1="87.9486" x2="172.6013" y2="108.4201">
		<stop  offset="0" style="stop-color:#F6EC42"/>
		<stop  offset="0.2119" style="stop-color:#F6E53F"/>
		<stop  offset="0.5299" style="stop-color:#F7D038"/>
		<stop  offset="0.9129" style="stop-color:#F9AF2D"/>
		<stop  offset="1" style="stop-color:#F9A62A"/>
	</linearGradient>
	<path class="st30" d="M197.1,97.55l1.51,1.76C199.92,98.2,198.27,96.78,197.1,97.55z"/>
	<linearGradient id="SVGID_32_" gradientUnits="userSpaceOnUse" x1="227.1422" y1="95.1659" x2="175.4602" y2="115.6374">
		<stop  offset="0" style="stop-color:#F6EC42"/>
		<stop  offset="0.2119" style="stop-color:#F6E53F"/>
		<stop  offset="0.5299" style="stop-color:#F7D038"/>
		<stop  offset="0.9129" style="stop-color:#F9AF2D"/>
		<stop  offset="1" style="stop-color:#F9A62A"/>
	</linearGradient>
	<path class="st31" d="M200.63,102.08l6.04,4.78C208.46,103.15,203.04,102.09,200.63,102.08z"/>
	<linearGradient id="SVGID_33_" gradientUnits="userSpaceOnUse" x1="228.1259" y1="97.6496" x2="176.4439" y2="118.121">
		<stop  offset="0" style="stop-color:#F6EC42"/>
		<stop  offset="0.2119" style="stop-color:#F6E53F"/>
		<stop  offset="0.5299" style="stop-color:#F7D038"/>
		<stop  offset="0.9129" style="stop-color:#F9AF2D"/>
		<stop  offset="1" style="stop-color:#F9A62A"/>
	</linearGradient>
	<path class="st32" d="M201.38,106.61l2.52,2.27C204.18,107.28,202.76,106.52,201.38,106.61z"/>
	<linearGradient id="SVGID_34_" gradientUnits="userSpaceOnUse" x1="208.989" y1="49.3367" x2="157.3071" y2="69.8081">
		<stop  offset="0" style="stop-color:#F6EC42"/>
		<stop  offset="0.2119" style="stop-color:#F6E53F"/>
		<stop  offset="0.5299" style="stop-color:#F7D038"/>
		<stop  offset="0.9129" style="stop-color:#F9AF2D"/>
		<stop  offset="1" style="stop-color:#F9A62A"/>
	</linearGradient>
	<path class="st33" d="M189.55,57.28l4.78-0.5C193.35,53.59,187.95,54.82,189.55,57.28z"/>
	<linearGradient id="SVGID_35_" gradientUnits="userSpaceOnUse" x1="210.8205" y1="53.9603" x2="159.1384" y2="74.4317">
		<stop  offset="0" style="stop-color:#F6EC42"/>
		<stop  offset="0.2119" style="stop-color:#F6E53F"/>
		<stop  offset="0.5299" style="stop-color:#F7D038"/>
		<stop  offset="0.9129" style="stop-color:#F9AF2D"/>
		<stop  offset="1" style="stop-color:#F9A62A"/>
	</linearGradient>
	<path class="st34" d="M196.09,58.29l1.26,2.52C198.54,59.75,197.55,57.63,196.09,58.29z"/>
	<linearGradient id="SVGID_36_" gradientUnits="userSpaceOnUse" x1="214.6428" y1="63.6101" x2="162.9607" y2="84.0816">
		<stop  offset="0" style="stop-color:#F6EC42"/>
		<stop  offset="0.2119" style="stop-color:#F6E53F"/>
		<stop  offset="0.5299" style="stop-color:#F7D038"/>
		<stop  offset="0.9129" style="stop-color:#F9AF2D"/>
		<stop  offset="1" style="stop-color:#F9A62A"/>
	</linearGradient>
	<path class="st35" d="M193.58,71.37l-0.25,1.26C194.24,72.07,194.28,71.59,193.58,71.37z"/>
	<linearGradient id="SVGID_37_" gradientUnits="userSpaceOnUse" x1="211.4965" y1="55.667" x2="159.8145" y2="76.1384">
		<stop  offset="0" style="stop-color:#F6EC42"/>
		<stop  offset="0.2119" style="stop-color:#F6E53F"/>
		<stop  offset="0.5299" style="stop-color:#F7D038"/>
		<stop  offset="0.9129" style="stop-color:#F9AF2D"/>
		<stop  offset="1" style="stop-color:#F9A62A"/>
	</linearGradient>
	<path class="st36" d="M192.07,59.29l4.03,6.54C199.19,63.51,195.42,58.81,192.07,59.29z"/>
	<linearGradient id="SVGID_38_" gradientUnits="userSpaceOnUse" x1="212.843" y1="59.0664" x2="161.161" y2="79.5378">
		<stop  offset="0" style="stop-color:#F6EC42"/>
		<stop  offset="0.2119" style="stop-color:#F6E53F"/>
		<stop  offset="0.5299" style="stop-color:#F7D038"/>
		<stop  offset="0.9129" style="stop-color:#F9AF2D"/>
		<stop  offset="1" style="stop-color:#F9A62A"/>
	</linearGradient>
	<path class="st37" d="M192.82,66.34l1.51,0.76C194.06,66.17,193.52,65.87,192.82,66.34z"/>
	<linearGradient id="SVGID_39_" gradientUnits="userSpaceOnUse" x1="219.3171" y1="75.4109" x2="167.6351" y2="95.8823">
		<stop  offset="0" style="stop-color:#F6EC42"/>
		<stop  offset="0.2119" style="stop-color:#F6E53F"/>
		<stop  offset="0.5299" style="stop-color:#F7D038"/>
		<stop  offset="0.9129" style="stop-color:#F9AF2D"/>
		<stop  offset="1" style="stop-color:#F9A62A"/>
	</linearGradient>
	<path class="st38" d="M197.86,79.93l0.25,7.55C202.41,87.66,201.63,80.67,197.86,79.93z"/>
	<linearGradient id="SVGID_40_" gradientUnits="userSpaceOnUse" x1="93.7012" y1="116.1293" x2="125.4184" y2="-3.1875">
		<stop  offset="0" style="stop-color:#3E9E68"/>
		<stop  offset="1" style="stop-color:#7FC78E"/>
	</linearGradient>
	<path class="st39" d="M175.87,20.94c-4.4-3.82-13.79-4.76-17.38,0.32c-0.05-3.07-3-4.54-5.6-5.01c-1.73-0.31-5.63-1.06-7.13-0.04
		c-1.46-5.4-7.23-6.49-11.76-4.08c-0.75,0.4-2,1.57-2.68,1.78c-0.5,0.15-1.2-0.23-1.75-0.02c-1.62,0.61-2.92,0.13-3.41,2.31
		c-0.77-0.09-1.54,0.02-2.21,0.3c-1.35-1.73-3.32-2.91-6.07-3.3c0.13-7.76-10.61-11.85-16.4-7.05c-1.34-1.89-3.18-2.21-5.06-1.36
		C92.81-4.33,71.9,0.9,74.49,9.47c-5.36,2.21-5.54,6.69-2.7,11.06c-0.84,0.8-1.1,1.18-1.68,1.97c-4.17-1.15-8.24,3.06-5.04,6.75
		c-5.14,3.04-5.16,8.64,0.96,10.82c-1.33,0.36-2.56,1-2.99,2.32c-3.49-2.85-9.39,0.17-7.69,4.67c-6.32-1.15-6.11,9.35-2.1,11.87
		c-0.46,0.51-0.75,1.09-0.85,1.66c-0.61,0.19-1.22,0.46-1.8,0.83c-2.72-3.06-6.1,0.53-5.07,3.77c-2.93-0.26-6.59,1.4-4.27,4.68
		c-1.4-0.06-2.32,0.66-2.32,2.08l9.06,6.38c4.05,5.67,12.45,3.73,16.42-1.1c2.8,1.42,6.03,2.25,9.15,2.62
		c-1.12,16.08,19.01,25.14,31.58,30.35c11.3,4.68,25.8,4.35,37.78,2.84c7.74-0.98,14.78-2.4,19.63-9.01
		c3.65-4.97,2.91-10.31-1.35-14.3c2.13,0.23,5.51-1.31,3.7-3.68c2.61-1.25,4.11-6.05-0.1-6.08c2.7-4.48,3.65-12.29-2.95-14.06
		c5.11-0.38,6.93-4.55,5.3-8.98c2.8-0.52,4.86-1.5,4.38-4.7c7.32-1.79,5.47-8.45,1.39-12.43C182.14,38.2,181.78,26.06,175.87,20.94z
		"/>
	<linearGradient id="SVGID_41_" gradientUnits="userSpaceOnUse" x1="93.6636" y1="116.1193" x2="125.3808" y2="-3.1975">
		<stop  offset="0" style="stop-color:#62BE7E"/>
		<stop  offset="1" style="stop-color:#97D0A1"/>
	</linearGradient>
	<path class="st40" d="M161.23,89.73c2.13,0.23,5.51-1.31,3.7-3.68c2.61-1.25,4.11-6.05-0.1-6.08c2.7-4.48,3.65-12.29-2.95-14.06
		c5.11-0.38,6.93-4.55,5.3-8.98c2.8-0.52,4.86-1.5,4.38-4.7c7.32-1.79,5.47-8.45,1.39-12.43c9.18-1.59,8.83-13.73,2.92-18.86
		c-4.4-3.82-13.79-4.76-17.38,0.32c-0.05-3.07-3-4.54-5.6-5.01c-1.73-0.31-5.63-1.06-7.13-0.04c-1.46-5.4-7.23-6.49-11.76-4.08
		c-0.75,0.4-2,1.57-2.68,1.78c-0.5,0.15-1.2-0.23-1.75-0.02c-1.62,0.61-2.92,0.13-3.41,2.31c-0.77-0.09-1.54,0.02-2.21,0.3
		c-1.35-1.73-3.32-2.91-6.07-3.3c0.13-7.76-10.61-11.85-16.4-7.05c-1.34-1.89-3.18-2.21-5.06-1.36C92.81-4.33,71.9,0.9,74.49,9.47
		c-5.36,2.21-5.54,6.69-2.7,11.06c-0.84,0.8-1.1,1.18-1.68,1.97c-4.17-1.15-8.24,3.06-5.04,6.75c-5.14,3.04-5.16,8.64,0.96,10.82
		c-1.33,0.36-2.56,1-2.99,2.32c-3.49-2.85-9.39,0.17-7.69,4.67c-6.32-1.15-6.11,9.35-2.1,11.87c-0.46,0.51-0.75,1.09-0.85,1.66
		c-0.61,0.19-1.22,0.46-1.8,0.83c-2.72-3.06-6.1,0.53-5.07,3.77c-2.93-0.26-6.59,1.4-4.27,4.68c-1.4-0.06-2.32,0.66-2.32,2.08
		l9.06,6.38c1.74,2.43,4.28,3.46,6.92,3.47l-4.32-9.17c-0.63-0.55-0.91-1.15-0.71-1.97c0.14-0.03,0.28-0.06,0.42-0.09
		c-0.63-1.83-1.85-4.41,1.45-4.52c-1.61-4.1,4.81-3.41,6.86-2.52c-0.52-0.81-1.47-1.27-2.45-1.26c0.41-1.75,0.49-3.55,2.21-4.68
		c-1.1-0.5-1.65-1.72-0.77-2.63c-0.91-3.21,1.16-11.27,6.04-8.19c-0.33,0.68-0.51,1.36-0.74,2.13c0.99-1.37,3.07-2.25,4.77-2.23
		c-0.08-1.45,0.72-3.13,2.27-3.27c-0.32-3.06,3.95-4.58,6.31-4.04c-1.01-0.85-2.58-1.08-3.97-0.99c-0.21-1.28,0.54-2.43,1.45-3.18
		c-1.51-0.12-6.19-1.12-2.52-2.51c-4.55-2.09,0.52-10,4.57-7.21c0.58-1.39,2.45-2.54,3.74-2.86c-1.13-0.09-2.33-0.04-3.46-0.09
		c-0.04-1.13-0.22-2.18-0.51-3.15c0.38-0.34,0.88-0.57,1.46-0.64c-1.4-1.53,0.39-2.99,2-3.27c-0.64-4.33,0.12-8.25,4.31-10.63
		c3.18-1.82,9.27-1.73,10,2.78c3.43-1.84,5.7,2.68,6.78,5.09c-2.02,0.31-4.52,0.77-6.19,1.94c5.78-1.04,8.5,3.59,11.01,7.64
		c-0.51-3.01,3.92-4.33,6.27-3.23c-0.93-0.45-1.85-0.71-2.87-0.76c5.32-4.02,12.79,0.6,13.56,6.5c1.06-3,3.29-2.41,6.21-1.42
		c-1.54-0.79-0.39-1.12-0.02-1.88c1.36-2.79,3.84-2.98,6.45-3.71c1.89-0.53,4.19-1.95,6.83-1.69c3.08,0.31,5.94,2.34,4.67,5.64
		c2.27,0.76,3.38,2.75,4.45,4.77c1.75-1.24,4.82-0.86,5.66,1.3c2.55-3.4,7.86-4.09,10.7-0.56c3.71,4.63,1.08,12.9-4.63,14.67
		c1.86,0.92,2.24,3.35,0.69,4.8c1.05,1.36-0.04,3.04-0.94,4.22c5.2,0.66,4.59,9.42-0.51,9.6c1.89,2.08-1.29,3.97-3.27,3.76
		c0.39,1.38-1.07,2.6-2.28,3.3c1.99,0.88,3.42,2.48,3.25,4.76c5.41-2.35,6.49,7.05,0.97,9.14c3.6,2.05-0.25,6.11-2.98,6.49
		c1.57,0.45,1.79,2.17,0.79,3.48c3.16,0.09,5.92,3.95,6.89,7.35C165.29,95.54,164.02,92.35,161.23,89.73z"/>
	<linearGradient id="SVGID_42_" gradientUnits="userSpaceOnUse" x1="96.0732" y1="116.7599" x2="127.7904" y2="-2.557">
		<stop  offset="0" style="stop-color:#2E8150"/>
		<stop  offset="1" style="stop-color:#63BE7E"/>
	</linearGradient>
	<path class="st41" d="M143.49,103.36c6.61-3.49,15.36-13,8.11-20.01c5.3-2.62-1.04-6.99-4.51-6.76c0-1.46-0.73-2.46-0.95-3.77
		c-0.85,0.95-2.16,1.61-2.96,2.39c1.53-2.23,1.62-5.18,0.87-7.51c9.81,0.78,12.16-12.43,5.05-17.3c2.61-8.17-10.4-21.56-18.09-14.69
		c-3.39-3.8-10.55-2.88-14.21,0.16c-2.39,1.99-6.53,8.91-4.58,10.97c-6.42,1.36,0.49,5.06,1.11,8c-1.65-1.99-3.93-3.32-6.52-3.42
		c0.32-3.53-2.21-7.42-6-5.51c-1.57-10.13-19.08-6.11-20.35,2.01c-4.98-2.49-8.94,4.47-6.9,8.61c-1.44,1.41-1.35,1.52-2.03,3.34
		c-5.07-1.71-10.09,3.43-6.26,8.14c-2.07,0.52-2.7,1.75-1.89,3.54c-2.5,0-4.87,0.33-6.98,1.6l6.65,5.51
		c0.5-0.44,0.97-0.91,1.38-1.41c2.8,1.42,6.03,2.25,9.15,2.62c-0.27,3.84,0.68,7.28,2.45,10.37
		C90.54,106.57,124.47,113.41,143.49,103.36z"/>
	<linearGradient id="SVGID_43_" gradientUnits="userSpaceOnUse" x1="102.0756" y1="118.3554" x2="133.7928" y2="-0.9614">
		<stop  offset="0" style="stop-color:#277747"/>
		<stop  offset="1" style="stop-color:#58BC7A"/>
	</linearGradient>
	<path class="st42" d="M137.67,82c0.32-2.15-0.69-3.68-2.6-4.41c3.92-4.54-2.65-3.16-4.71-3.95c2.85-0.96,4.94-0.95,6.47-4.19
		c1.64-3.47,0.45-9.55-3.51-10.97c-1.41-8.5-15.17-2.82-12.51,3.7c-2.05-0.17-4.1,0.97-3.64,3.29c-0.55-1.08-1.45-1.89-2.67-2.2
		c0.47,1.27,0.73,2.6,0.56,3.97c-1.16-3.24-6.84-10.73-10.93-6.71c-1.49-9-18.64-4.71-17.91,3.67c-4.52-0.35-7.79,3.64-5.35,7.7
		c-1.94-0.17-2.45,1.24-1.69,2.69c-1.43,0.05-2.61,0.88-2.64,1.74l20.47,19.46c9.58,8.1,21.43,11.28,33.84,9
		c5.34-0.98,12.1-3.38,13.96-9.04C146.19,91.58,144.4,79.58,137.67,82z"/>
	<linearGradient id="SVGID_44_" gradientUnits="userSpaceOnUse" x1="96.7676" y1="116.9444" x2="128.4848" y2="-2.3724">
		<stop  offset="0" style="stop-color:#277747"/>
		<stop  offset="1" style="stop-color:#58BC7A"/>
	</linearGradient>
	<path class="st43" d="M147.09,76.58c0-1.46-0.73-2.46-0.95-3.77c-0.85,0.95-2.16,1.61-2.96,2.39c1.53-2.23,1.62-5.18,0.87-7.51
		c9.81,0.78,12.16-12.43,5.05-17.3c2.61-8.17-10.4-21.56-18.09-14.69c-3.39-3.8-10.55-2.88-14.21,0.16
		c-2.39,1.99-6.53,8.91-4.58,10.97c-6.42,1.36,0.49,5.06,1.11,8c-1.65-1.99-3.93-3.32-6.52-3.42c0.32-3.53-2.21-7.42-6-5.51
		c-1.57-10.13-19.08-6.11-20.35,2.01c-4.98-2.49-8.94,4.47-6.9,8.61c-1.44,1.41-1.35,1.52-2.03,3.34c-3.66-1.24-7.29,1.1-7.59,4.27
		c1.52-2.69,5.99-3.65,8.51-1.81c-0.57,0.99-0.5,1.8-0.55,2.91c0.56-1.66,3.8-3.87,5.49-3.29c-2.96-1.03-3.25-4.03,0.01-5.06
		c-5.27-3.36,3.24-7.92,7.44-4.06c0-1.26,0.76-2.49,1.71-3.26c-4.3-0.43,0.41-7.25,4.49-5.9c4.39-4.22,9.27,3.41,5.66,5.11
		c1.94-0.66,4.3,0.36,5.33,2.27c1.89-1.56,3.02,1,2.75,2.79c2.87-1.05,7.67,0.8,10.01,2.76c0.47-0.93,1.27-1.79,2.24-2.42
		c-1.36-0.01-2.26-0.87-2.53-2.25c0.28-0.15,0.64-0.31,0.9-0.47c-0.95-1.92-1.07-4.64,1.62-5.37c-4.62-5.28,7.77-11.73,11.59-4.43
		c1.52-0.79,3.33-1.17,4.9-0.23c4.31-8.43,17.49,4.72,8.21,10.05c1.68-0.21,3.03,0.7,3.36,2.37c5.69-2.54,5.56,14.08-3.13,10.9
		c0.07,2.79,0.54,5.76-1.52,7.94c1.26,0.93,1.64,2.49,1.8,3.99c1.16-0.75,3.22,0.47,3.77,2.24c2.22-2.15,5.27,0.07,7.13,1.69
		c0.11-0.14,0.22-0.28,0.34-0.43C152.71,78.18,149.31,76.43,147.09,76.58z"/>
</g>
</svg>
