<?xml version="1.0" encoding="utf-8"?>
<!-- Generator: Adobe Illustrator 24.0.3, SVG Export Plug-In . SVG Version: 6.00 Build 0)  -->
<svg version="1.1" id="Layer_1" xmlns="http://www.w3.org/2000/svg" xmlns:xlink="http://www.w3.org/1999/xlink" x="0px" y="0px"
	 viewBox="0 0 415.55 170.9" style="enable-background:new 0 0 415.55 170.9;" xml:space="preserve">
<style type="text/css">
	.st0{fill:#92D54B;}
	.st1{fill:#7BC32E;}
	.st2{fill:#569908;}
	.st3{fill:#70B327;}
	.st4{fill:url(#SVGID_1_);}
	.st5{fill:url(#SVGID_2_);}
	.st6{fill:url(#SVGID_3_);}
	.st7{fill:url(#SVGID_4_);}
	.st8{fill:url(#SVGID_5_);}
	.st9{fill:url(#SVGID_6_);}
	.st10{fill:url(#SVGID_7_);}
	.st11{fill:url(#SVGID_8_);}
	.st12{fill:url(#SVGID_9_);}
	.st13{fill:url(#SVGID_10_);}
	.st14{fill:url(#SVGID_11_);}
	.st15{fill:url(#SVGID_12_);}
	.st16{fill:url(#SVGID_13_);}
	.st17{fill:url(#SVGID_14_);}
	.st18{fill:url(#SVGID_15_);}
	.st19{fill:url(#SVGID_16_);}
	.st20{fill:url(#SVGID_17_);}
	.st21{fill:url(#SVGID_18_);}
	.st22{fill:url(#SVGID_19_);}
	.st23{fill:url(#SVGID_20_);}
	.st24{fill:url(#SVGID_21_);}
	.st25{fill:url(#SVGID_22_);}
	.st26{fill:url(#SVGID_23_);}
	.st27{fill:url(#SVGID_24_);}
	.st28{fill:url(#SVGID_25_);}
	.st29{fill:url(#SVGID_26_);}
	.st30{fill:url(#SVGID_27_);}
	.st31{fill:url(#SVGID_28_);}
	.st32{fill:url(#SVGID_29_);}
	.st33{fill:url(#SVGID_30_);}
	.st34{fill:url(#SVGID_31_);}
	.st35{fill:url(#SVGID_32_);}
	.st36{fill:url(#SVGID_33_);}
	.st37{fill:url(#SVGID_34_);}
	.st38{fill:url(#SVGID_35_);}
	.st39{fill:url(#SVGID_36_);}
	.st40{fill:url(#SVGID_37_);}
	.st41{fill:url(#SVGID_38_);}
	.st42{fill:url(#SVGID_39_);}
	.st43{fill:url(#SVGID_40_);}
	.st44{fill:url(#SVGID_41_);}
	.st45{fill:url(#SVGID_42_);}
	.st46{fill:url(#SVGID_43_);}
	.st47{fill:url(#SVGID_44_);}
	.st48{fill:url(#SVGID_45_);}
	.st49{fill:url(#SVGID_46_);}
	.st50{fill:url(#SVGID_47_);}
	.st51{fill:url(#SVGID_48_);}
	.st52{fill:url(#SVGID_49_);}
	.st53{fill:url(#SVGID_50_);}
	.st54{fill:url(#SVGID_51_);}
	.st55{fill:url(#SVGID_52_);}
	.st56{fill:url(#SVGID_53_);}
	.st57{fill:url(#SVGID_54_);}
	.st58{fill:url(#SVGID_55_);}
	.st59{fill:url(#SVGID_56_);}
	.st60{fill:url(#SVGID_57_);}
	.st61{fill:url(#SVGID_58_);}
	.st62{fill:url(#SVGID_59_);}
	.st63{fill:url(#SVGID_60_);}
	.st64{fill:url(#SVGID_61_);}
	.st65{fill:url(#SVGID_62_);}
	.st66{fill:url(#SVGID_63_);}
	.st67{fill:url(#SVGID_64_);}
	.st68{fill:url(#SVGID_65_);}
	.st69{fill:url(#SVGID_66_);}
	.st70{fill:url(#SVGID_67_);}
	.st71{fill:url(#SVGID_68_);}
	.st72{fill:url(#SVGID_69_);}
</style>
<g>
	<path class="st0" d="M115.28,69.97c-3.02,11.83-6.29,33.48-6.29,38.26c0,3.29-4.77,1.21-7.75-0.4c-1.34-0.73-2.32-1.36-2.32-1.36
		s2.01-18.12,6.54-30.96c4.53-12.84,6.54-32.47,2.52-48.33C104.01,11.57,94.68,0.36,94.39,0.01c0-0.01,0-0.01-0.01-0.01
		c0,0,12.08,9.31,18.37,27.94C119.05,46.56,118.3,58.14,115.28,69.97z"/>
	<path class="st1" d="M109.49,75.76c-3.02,10.32-6.04,31.21-6.04,31.21l-2.21,0.86c-1.34-0.73-2.32-1.36-2.32-1.36
		s2.01-18.12,6.54-30.96c4.53-12.84,6.54-32.47,2.52-48.33C104.01,11.57,94.68,0.36,94.39,0.01
		C121.82,30.21,112.51,65.44,109.49,75.76z"/>
	<path class="st2" d="M85.33,71.48C74,60.91,51.85,40.52,48.58,30.71s5.54-13.84,5.54-13.84c-3.78-5.54-13.84-1.76-13.84-1.76
		c-9.82,8.05,1.26,29.7,11.33,38.76s21.9,22.65,31.71,37s9.31,25.92,9.31,25.92s6.04-3.27,7.55-10.32
		C101.69,99.42,96.65,82.05,85.33,71.48z"/>
	<path class="st3" d="M83.56,80.29c-6.54-9.56-21.14-22.9-27.69-29.7s-14.1-17.62-13.34-26.18c0.76-8.56,7.3-9.56,7.3-9.56v-0.73
		c-4.33-0.98-9.56,0.98-9.56,0.98c-9.82,8.05,1.26,29.7,11.33,38.76s21.9,22.65,31.71,37s9.31,25.92,9.31,25.92s1.83-0.99,3.73-3.06
		c0.03-0.97,0.05-1.97,0.05-2.98C96.4,99.67,90.11,89.86,83.56,80.29z"/>
	<path class="st3" d="M82.27,102.06c-5.82-10.2-9.78-13.46-11.71-31.12C68.63,53.27,88.42,43.8,88.42,43.8l-6.15-1.31l-10.03,1.73
		c0,0-6.46,3.59-12.58,16.44c-6.12,12.86,0.25,33.22,10.77,48.53c10.52,15.3,7.1,30.62,7.1,30.62s8.31,10.21,12.52-0.36
		C94.26,128.88,88.09,112.26,82.27,102.06z"/>
	<path class="st3" d="M41.36,94.89c0,0-7.13-4.99-17.7-10.17S3.52,68.84,0,57.7c0,0,0.25,17.48,13.34,30.73s24.47,12.18,32.47,16.94
		c8,4.76,12.69,9.47,12.69,9.47S50.73,100.67,41.36,94.89z"/>
	<path class="st2" d="M41.36,99.59c10.07,5.03,13.76,10.74,13.76,10.74l-0.24-1.26c-3.15-4.6-8.06-10.81-13.52-14.18
		c0,0-7.13-4.99-17.7-10.17S3.52,68.84,0,57.7c0,0,0,0.15,0.02,0.41c0.02,0.18,0.04,0.35,0.07,0.53
		C3.78,85.83,31.29,94.55,41.36,99.59z"/>
	<path class="st2" d="M87,129.12c0.34-9.06-7.38-17.45-11.75-26.51c-4.36-9.06-13.42-19.13-10.4-36.24s17.79-23.16,17.79-23.16
		l-1.37-0.55l-9.03,1.55c0,0-6.46,3.59-12.58,16.44c-6.12,12.86,0.25,33.22,10.77,48.53c8.19,11.91,7.93,23.83,7.41,28.53
		c0.61,0.83,1.11,1.48,1.11,1.48S86.67,138.18,87,129.12z"/>
	<path class="st0" d="M60.83,144.56c0,0,1.01-35.57-19.46-49.67c0,0,28.86,13.42,29.2,49l-5.71,3.69L60.83,144.56z"/>
	<path class="st0" d="M72.24,44.21c0,0,8.39-2.35,15.1,2.68c6.71,5.03,13.09,24.5,36.92,15.44c0,0-7.72-0.67-15.77-4.36
		C100.43,54.28,96.4,34.15,72.24,44.21z"/>
	<path class="st0" d="M40.02,15.35c0,0,5.37-3.69,13.42,2.35s19.46,14.43,37.25,4.36c0,0-6.04,1.68-15.1-1.01
		C66.53,18.37,54.12,5.96,40.02,15.35z"/>
	<path class="st1" d="M42.77,95.92c19.01,14.72,18.06,48.63,18.06,48.63l3.29,2.47c0.94-1.52,1.58-3.05,1.58-3.05
		S64.28,109.35,42.77,95.92z"/>
	<path class="st1" d="M48.75,127.44c-11.41-5.37-33.56-12.75-41.28-23.16c0,0,0.25,0.71,0.94,1.89c2.92,3.02,10.31,9.96,19.78,13.63
		c12.33,4.78,26.93,11.33,29.45,24.41c0.14,0.71,0.28,1.34,0.44,1.9c0.98-0.8,1.75-1.57,1.75-1.57S60.16,132.81,48.75,127.44z"/>
	<path class="st1" d="M75.89,42.87c4.66-0.83,12.87-1.1,19,5.2c8.77,9.02,13.07,17.56,28.87,14.21c-1.82-0.21-8.43-1.17-15.28-4.31
		C100.85,54.48,96.83,36.23,75.89,42.87z"/>
	<path class="st1" d="M75.59,21.06C67.46,18.65,56.63,8.4,44.3,13.12c3.01-0.72,7.27-0.66,12.58,2.23
		c10.81,5.9,18.27,12.75,32.44,6.98C87.06,22.66,82.11,22.99,75.59,21.06z"/>
	<linearGradient id="SVGID_1_" gradientUnits="userSpaceOnUse" x1="128.1437" y1="87.1455" x2="132.5065" y2="107.2814">
		<stop  offset="0" style="stop-color:#FFCE00"/>
		<stop  offset="0.1932" style="stop-color:#FFC700"/>
		<stop  offset="0.4832" style="stop-color:#FFB200"/>
		<stop  offset="0.8324" style="stop-color:#FF9100"/>
		<stop  offset="1" style="stop-color:#FF7E00"/>
	</linearGradient>
	<path class="st4" d="M143.1,94.84c-0.28-2.23-2.71-3.6-4.85-2.76c-0.43-2.93-0.52-6.28-4.28-6.94c-3.21-0.56-6.88,2.32-7.77,5.27
		c-4.29-4.67-9.49,1.86-8.03,6.44c-3.03,0.05-3.93,2.51-3.01,5c-1.88,0.98-1.62,3.16,0.03,4.12l-1.68,12.08
		c-0.38,8.08,14.42,11.08,20.17,10.73c6.89-0.43,13.28-3.86,17.09-9.62C155.79,111.57,155.15,94.47,143.1,94.84z"/>
	<linearGradient id="SVGID_2_" gradientUnits="userSpaceOnUse" x1="125.9465" y1="87.6216" x2="130.3092" y2="107.7574">
		<stop  offset="0" style="stop-color:#FFAB00"/>
		<stop  offset="0.214" style="stop-color:#FDA400"/>
		<stop  offset="0.5351" style="stop-color:#F68F00"/>
		<stop  offset="0.9221" style="stop-color:#EB6E00"/>
		<stop  offset="1" style="stop-color:#E86600"/>
	</linearGradient>
	<path class="st5" d="M139.15,103.3c0.62-2.24-1.29-3.42-3.43-3.1c0.33-2.24-2.44-5.01-3.73-2.43c-2.82-4.3-9.8-2.41-8.47,2.78
		c-2.1-1.08-3.38,1.2-1.73,2.74c-1.89,0.02-2.29,1.38-0.93,2.59c-1.59,0.31-2.36,1.51-1.64,2.76l-1.34,10.07
		c-0.3,4.61,7.53,7.87,11.06,8.35c5.18,0.7,11.72-1.01,15.15-5.15C147.61,117.67,147.05,102.63,139.15,103.3z"/>
	<linearGradient id="SVGID_3_" gradientUnits="userSpaceOnUse" x1="125.0906" y1="87.807" x2="129.4534" y2="107.943">
		<stop  offset="0" style="stop-color:#FFFF3E"/>
		<stop  offset="0.1823" style="stop-color:#FFF83C"/>
		<stop  offset="0.456" style="stop-color:#FFE337"/>
		<stop  offset="0.7855" style="stop-color:#FFC22E"/>
		<stop  offset="1" style="stop-color:#FFA828"/>
	</linearGradient>
	<path class="st6" d="M125.6,93.63h1.51C126.53,93,125.93,92.89,125.6,93.63z"/>
	<linearGradient id="SVGID_4_" gradientUnits="userSpaceOnUse" x1="121.063" y1="88.6797" x2="125.4258" y2="108.8156">
		<stop  offset="0" style="stop-color:#FFFF3E"/>
		<stop  offset="0.1823" style="stop-color:#FFF83C"/>
		<stop  offset="0.456" style="stop-color:#FFE337"/>
		<stop  offset="0.7855" style="stop-color:#FFC22E"/>
		<stop  offset="1" style="stop-color:#FFA828"/>
	</linearGradient>
	<path class="st7" d="M119.81,94.64l5.03-1.76C125.08,88.12,116.67,91.88,119.81,94.64z"/>
	<linearGradient id="SVGID_5_" gradientUnits="userSpaceOnUse" x1="131.5197" y1="86.4141" x2="135.8824" y2="106.55">
		<stop  offset="0" style="stop-color:#FFFF3E"/>
		<stop  offset="0.1823" style="stop-color:#FFF83C"/>
		<stop  offset="0.456" style="stop-color:#FFE337"/>
		<stop  offset="0.7855" style="stop-color:#FFC22E"/>
		<stop  offset="1" style="stop-color:#FFA828"/>
	</linearGradient>
	<path class="st8" d="M129.88,89.86l4.78-0.5C134.77,85.24,127.8,87.27,129.88,89.86z"/>
	<linearGradient id="SVGID_6_" gradientUnits="userSpaceOnUse" x1="120.638" y1="88.7718" x2="125.0008" y2="108.9077">
		<stop  offset="0" style="stop-color:#FFFF3E"/>
		<stop  offset="0.1823" style="stop-color:#FFF83C"/>
		<stop  offset="0.456" style="stop-color:#FFE337"/>
		<stop  offset="0.7855" style="stop-color:#FFC22E"/>
		<stop  offset="1" style="stop-color:#FFA828"/>
	</linearGradient>
	<path class="st9" d="M121.36,95.18c-0.25,0.7,0.06,0.81,0.47,1.22l1.01-1.51C122.37,94.9,121.92,95.24,121.36,95.18z"/>
	<linearGradient id="SVGID_7_" gradientUnits="userSpaceOnUse" x1="137.2414" y1="85.1744" x2="141.6042" y2="105.3103">
		<stop  offset="0" style="stop-color:#FFFF3E"/>
		<stop  offset="0.1823" style="stop-color:#FFF83C"/>
		<stop  offset="0.456" style="stop-color:#FFE337"/>
		<stop  offset="0.7855" style="stop-color:#FFC22E"/>
		<stop  offset="1" style="stop-color:#FFA828"/>
	</linearGradient>
	<path class="st10" d="M138.43,94.39l1.76,1.26C140.37,94.27,139.14,93.4,138.43,94.39z"/>
	<linearGradient id="SVGID_8_" gradientUnits="userSpaceOnUse" x1="116.9883" y1="89.5625" x2="121.3511" y2="109.6984">
		<stop  offset="0" style="stop-color:#FFFF3E"/>
		<stop  offset="0.1823" style="stop-color:#FFF83C"/>
		<stop  offset="0.456" style="stop-color:#FFE337"/>
		<stop  offset="0.7855" style="stop-color:#FFC22E"/>
		<stop  offset="1" style="stop-color:#FFA828"/>
	</linearGradient>
	<path class="st11" d="M119.05,99.92l1.26-1.51C117.94,95.91,116.33,100.09,119.05,99.92z"/>
	<linearGradient id="SVGID_9_" gradientUnits="userSpaceOnUse" x1="133.4387" y1="85.9983" x2="137.8015" y2="106.1342">
		<stop  offset="0" style="stop-color:#FFFF3E"/>
		<stop  offset="0.1823" style="stop-color:#FFF83C"/>
		<stop  offset="0.456" style="stop-color:#FFE337"/>
		<stop  offset="0.7855" style="stop-color:#FFC22E"/>
		<stop  offset="1" style="stop-color:#FFA828"/>
	</linearGradient>
	<path class="st12" d="M134.16,91.87l1.26,0.76C135.31,91.67,134.86,91.38,134.16,91.87z"/>
	<linearGradient id="SVGID_10_" gradientUnits="userSpaceOnUse" x1="114.7528" y1="90.0469" x2="119.1156" y2="110.1827">
		<stop  offset="0" style="stop-color:#FFFF3E"/>
		<stop  offset="0.1823" style="stop-color:#FFF83C"/>
		<stop  offset="0.456" style="stop-color:#FFE337"/>
		<stop  offset="0.7855" style="stop-color:#FFC22E"/>
		<stop  offset="1" style="stop-color:#FFA828"/>
	</linearGradient>
	<path class="st13" d="M118.05,101.94l-1.26-2.01C115.82,101.14,116.91,102.47,118.05,101.94z"/>
	<linearGradient id="SVGID_11_" gradientUnits="userSpaceOnUse" x1="136.5353" y1="160.9017" x2="128.9836" y2="62.7296">
		<stop  offset="0" style="stop-color:#429F68"/>
		<stop  offset="1" style="stop-color:#4BFFA3"/>
	</linearGradient>
	<path class="st14" d="M198.77,129.58c-0.12-6.25-1.35-12.2-6.28-16.48c-1.91-1.66-6.03-5.16-8.73-3.21
		c6.53-11.79-10.39-21.6-19.48-13.78c-3.3-4.93-8.9-6.7-14.57-4.93c-3.54,1.1-10.33,5.92-8.71,10.36c-6.16-0.26-12.5,6.88-6.7,11.73
		c-2.26,0.33-4.7,2.55-4.31,4.99c-1.94-1.89-4.2-2.66-6.69-3.31c2.73-10.69-8.75-11.71-15.75-8.37c-5.02-4.74-17.15,0.81-12.85,7.7
		c-1.53,0.02-2.79,0.84-3.04,2.37c-6.58-0.23-13.55,7.37-7.71,13.06c-0.73,0.68-1.4,1.14-2.04,1.95c-3.85-1-7.33,1.44-8.5,5.18
		c-0.46,1.47,0.19,3.2-0.39,4.45c-0.65,1.4-2.3,1.27-2.45,3.27l17.12,14.77c8.92,4.42,17.05,7.72,27.08,8.75
		c14.18,1.45,28.52,0.74,42.51-1.98C175.57,162.53,199.18,151.48,198.77,129.58z"/>
	<linearGradient id="SVGID_12_" gradientUnits="userSpaceOnUse" x1="136.0148" y1="160.9417" x2="128.4631" y2="62.7696">
		<stop  offset="0" style="stop-color:#52CE81"/>
		<stop  offset="1" style="stop-color:#81FFB3"/>
	</linearGradient>
	<path class="st15" d="M192.49,113.11c-1.91-1.66-6.03-5.16-8.73-3.21c6.53-11.79-10.39-21.6-19.48-13.78
		c-3.3-4.93-8.9-6.7-14.57-4.93c-3.54,1.1-10.33,5.92-8.71,10.36c-6.16-0.26-12.5,6.88-6.7,11.73c-2.26,0.33-4.7,2.55-4.31,4.99
		c-1.94-1.89-4.2-2.66-6.69-3.31c2.73-10.69-8.75-11.71-15.75-8.37c-5.02-4.74-17.15,0.81-12.85,7.7c-1.53,0.02-2.79,0.84-3.04,2.37
		c-6.58-0.23-13.55,7.37-7.71,13.06c-0.73,0.68-1.4,1.14-2.04,1.95c-3.85-1-7.33,1.44-8.5,5.18c-0.46,1.47,0.19,3.2-0.39,4.45
		c-0.65,1.4-2.3,1.27-2.45,3.27l9.45,8.16l-0.98-8.49c-1.39-1.22-1.26-3.21,0.72-3.58c-3.05-3.75,1.33-6.85,4.98-6.75
		c-0.66,0.64-0.97,1.52-0.93,2.45c0.62-1.35,1.92-2.44,3.25-2.99c-0.62-1.5,0.7-2.77,1.51-3.93c-5.41-1.68-1.98-10.31,3.03-9.32
		c-0.32,0.66-0.49,1.41-0.75,2.14c0.97-1.35,2.93-1.89,4.52-2.23c0.24-1.23,1.33-2.17,2.47-2.72c-1.06-1.32-0.79-3.24,1.06-3.57
		c-1.74-6.74,11-5.42,11.6,1.98c0.65-0.8,3.27-1.21,4.35-1.48c1.85-0.46,4.9-0.61,4.77,2.23c2.67-0.86,6.39,1.62,7.91,3.62
		c-0.59,0.23-1.23,0.81-1.82,1.01c3.42-0.31,6.87,2.45,8.67,5.2c0.35-1.14,1.07-2.15,1.98-2.95c-0.37,0.04-0.78-0.07-1.13-0.03
		c-0.32-0.83,0.08-1.62,0.87-2.23c-1.63-0.23-2.68-1.84-2.14-3.51c0.84-2.64,4.4-2.8,6.55-2.37c-0.65-0.87-0.66-1.93,0.19-2.61
		c-6.97-1.81,1.64-12.07,5.82-7.95c-0.22-1.37-0.98-2.67,0.95-2.98c-0.78-6.28,13.78-3.78,15.56,0.21c-0.98-0.24-1.92,0.14-2.86,0.6
		c2.46-0.13,4.66,2.15,5.65,4.19c1.09-1.07,2.75-1.32,4.26-1.16c-2.59-2.2,3.91-3.64,5.34-3.94c5.28-1.08,8.89,6.22,3.38,8.2
		c0.74,0.57,1.25,1.4,1.45,2.32c0.49-1.26,3.66-1.11,4.3,0.61c2.46-0.67,3.68,2.51,3.96,4.45c0.59,4.15,0.61,4.38,5.56,3.25
		c0.98-0.22,1.97-0.51,2.97-0.87C196.06,117.13,194.63,114.96,192.49,113.11z"/>
	<linearGradient id="SVGID_13_" gradientUnits="userSpaceOnUse" x1="168.248" y1="158.4622" x2="160.6964" y2="60.2902">
		<stop  offset="0" style="stop-color:#2D8250"/>
		<stop  offset="1" style="stop-color:#33E288"/>
	</linearGradient>
	<path class="st16" d="M179.54,121.49c-0.19-5.2-3.87-9.49-9.14-6.66c-3.43-7.28-12.55-5.16-14.18,2.04
		c-4.05-3.58-10.27-2.05-12.75,2.43c-2.29,4.13-0.77,8.09,1.73,11.75c-3.38,0.2-3.2,4.1-0.64,5.6c-1.97,0.94-2.71,2.56-1.89,4.46
		c-2.14,0.53-3.51,2.05-2.97,3.61l8.05,10.57c3.2,6.35,16.46,7.22,25.09,6.14c7.78-3.23,15.1-7.87,19.97-14.14
		c0.43-0.98,0.77-1.98,1-3.01C196.02,134.66,190.81,120.92,179.54,121.49z"/>
	<linearGradient id="SVGID_14_" gradientUnits="userSpaceOnUse" x1="112.0865" y1="162.7824" x2="104.5348" y2="64.6103">
		<stop  offset="0" style="stop-color:#2D8250"/>
		<stop  offset="1" style="stop-color:#33E288"/>
	</linearGradient>
	<path class="st17" d="M129.31,135.7c1.24-2.75-0.48-5.37-3.52-5.04c3.51-8.92-10.21-12.83-15.15-6.12
		c-3.76-6.85-16.29-1.34-16.32,5.5c-5.08-0.72-4.54,4.28-4.03,7.55c-3.4,0.25-2.06,4.55-6.4,5.21c-0.45,0.92,0.33,0.45,0.44,0.91
		l15.61,10.57c8.89,5.41,32.78,7.47,37.23-6.02C138.85,143.13,135.24,135.71,129.31,135.7z"/>
	<linearGradient id="SVGID_15_" gradientUnits="userSpaceOnUse" x1="167.1157" y1="158.5494" x2="159.564" y2="60.3773">
		<stop  offset="0" style="stop-color:#277747"/>
		<stop  offset="1" style="stop-color:#2BD780"/>
	</linearGradient>
	<path class="st18" d="M148.11,132.69c0.25-1.28,1.16-1.99,2.21-2.91c-2.3-0.21-5.41-2.52-3.61-4.92c-3.7-2.25,0.11-6.81,3.05-7.57
		c2.9-0.75,5.7,0.82,8.05,2.47c1.03-0.64,1.68-0.92,2.9-1.02c-4.11-2.95,6.02-9.55,5.87-2.08c1.27,0.04,2.2,0.73,2.63,1.95
		c1.09-2.15,5.22-3.12,5.43,0.07c2.24-0.07,3.68,1.85,3.35,4.03c3.03,0.23,4.94,1.93,7.24,3.71c0.67-0.93,1.25-1.88,1.73-2.84
		c-2.07-1.42-4.55-2.21-7.44-2.07c-0.19-5.2-3.87-9.49-9.14-6.66c-3.43-7.28-12.55-5.16-14.18,2.04
		c-4.05-3.58-10.27-2.05-12.75,2.43c-2.29,4.13-0.77,8.09,1.73,11.75c-2.16,0.13-2.86,1.78-2.42,3.34
		C143.23,132.22,146.23,132.27,148.11,132.69z"/>
	<linearGradient id="SVGID_16_" gradientUnits="userSpaceOnUse" x1="167.0481" y1="158.5546" x2="159.4964" y2="60.3825">
		<stop  offset="0" style="stop-color:#277747"/>
		<stop  offset="1" style="stop-color:#2BD780"/>
	</linearGradient>
	<path class="st19" d="M172.24,126.49c-0.43-1.53-1.52-3.38-3.31-3.35c0.55,1.21,0.26,2.63-0.1,3.93c-1.7-3.27-5.42-6.46-9.68-5.1
		c-3.36,1.07-6.06,5.43-4.72,8.75c-4.37-0.15-3.73,5.11-2.1,7.72c-1.61,0.45-3.78,1.36-2.37,3.09c-1.55,0.51-2.86,1.77-1.54,3.02
		l-5.37,2.01c5.67,17.62,48.41,13.86,45.59-7.06C187.83,133.54,179.23,122.59,172.24,126.49z"/>
	<linearGradient id="SVGID_17_" gradientUnits="userSpaceOnUse" x1="114.3356" y1="162.6094" x2="106.7839" y2="64.4373">
		<stop  offset="0" style="stop-color:#277747"/>
		<stop  offset="1" style="stop-color:#2BD780"/>
	</linearGradient>
	<path class="st20" d="M122.03,138.13c0.56-1.67-0.78-2.7-2.42-2.68c-0.25-6.25-8.31-8.51-11.89-3.34
		c-3.08-3.28-10.35,1.08-7.66,5.35c-2.32,0.7-0.73,3.01,0.34,4.35c-0.9,0.14-1.15,0.85-1.68,1.09c0.2,0.34,0.44,0.68,0.71,1
		l10.4,4.7c4.75,2.59,16.69,2.45,17.12-4.74C127.12,140.93,125.26,137.81,122.03,138.13z"/>
	<linearGradient id="SVGID_18_" gradientUnits="userSpaceOnUse" x1="115.6072" y1="162.5116" x2="108.0555" y2="64.3395">
		<stop  offset="0" style="stop-color:#277747"/>
		<stop  offset="1" style="stop-color:#2BD780"/>
	</linearGradient>
	<path class="st21" d="M129.31,135.7c1.24-2.75-0.48-5.37-3.52-5.04c3.51-8.92-10.21-12.83-15.15-6.12
		c-3.76-6.85-16.29-1.34-16.32,5.5c-2.93-0.41-3.99,1.07-4.27,3.03c1.05-2.07,4.11-2.13,6.28-0.98c0.77-1.17,0.9-1.27,2.31-1.62
		c-1.95-1.21-2.12-4.16,0.66-4.1c-0.19-2.68,4.26-3.28,6.17-2.21c1.32,0.74,1.07,1.97,1.92,2.62c0.58,0.45,2.03,0.84,2.8,1.2
		c0.29-2.49,5.49-5.92,7.37-3.36c2.57-3.31,7.02,2.96,4.8,5.75c1.16,0.59,2,1.68,2.31,2.99c1.81-1.29,3.46,1.07,2.74,2.83
		c5.15-0.52,7.39,4.18,7.31,8.32c0.93-0.1,1.95,0.02,2.84,0.34C137.24,140.36,134.01,135.71,129.31,135.7z"/>
	<g>
		<linearGradient id="SVGID_19_" gradientUnits="userSpaceOnUse" x1="250.4464" y1="171.3331" x2="250.4464" y2="43.3027">
			<stop  offset="0" style="stop-color:#EC0046"/>
			<stop  offset="1" style="stop-color:#FF618F"/>
		</linearGradient>
		<path class="st22" d="M204.13,115.03c0.57-19.41,5.37-39.55,17-55.41c11.58-15.8,32.85-28.51,49.95-12.55
			c15.1,14.1,25.17,42.29,25.67,52.86s-13.59,48.33-13.59,48.33s-29.7,22.65-31.71,22.65s-9.06-1.51-15.1-2.01
			c-6.04-0.5-16.11-6.04-17.62-6.54L204.13,115.03z"/>
		<g>
			<linearGradient id="SVGID_20_" gradientUnits="userSpaceOnUse" x1="224.3306" y1="171.333" x2="224.3306" y2="43.3028">
				<stop  offset="0" style="stop-color:#CC003D"/>
				<stop  offset="1" style="stop-color:#DF527B"/>
			</linearGradient>
			<path class="st23" d="M225.27,98.67l-5.29,3.02c-2.35,3.97,1.17,9.45,5.94,7.58C230.31,107.54,231.09,98.85,225.27,98.67z"/>
			<linearGradient id="SVGID_21_" gradientUnits="userSpaceOnUse" x1="250.4464" y1="171.3331" x2="250.4464" y2="43.3027">
				<stop  offset="0" style="stop-color:#CC003D"/>
				<stop  offset="1" style="stop-color:#DF527B"/>
			</linearGradient>
			<path class="st24" d="M287.62,91.31c-6.43,9.9-19.11,14.39-27.12,22.97c-3.87,4.15-7.59,8.36-11.47,12.46
				c-2.75,2.9-6.11,5.78-10.3,5.65c-4.41-0.13-6.73-4.24-9.32-7.43c-2.59-3.18-5.12-6.05-8.29-8.59c-2.73-2.2-5.9-3.56-9-4.82
				c-2.45-0.99-6.2-2-7.52-4.56c-0.24,2.68-0.41,5.36-0.48,8.02l14.6,47.32c1.51,0.5,11.58,6.04,17.62,6.54
				c6.04,0.5,13.09,2.01,15.1,2.01s31.71-22.65,31.71-22.65s14.1-37.75,13.59-48.33c-0.27-5.62-3.24-16.22-8.24-27.04
				c0.54,1.86,1.29,3.77,1.5,5.34C290.67,82.98,290.26,87.25,287.62,91.31z"/>
			<linearGradient id="SVGID_22_" gradientUnits="userSpaceOnUse" x1="242.3862" y1="171.333" x2="242.3862" y2="43.3028">
				<stop  offset="0" style="stop-color:#CC003D"/>
				<stop  offset="1" style="stop-color:#DF527B"/>
			</linearGradient>
			<path class="st25" d="M248.23,104.89c-2.58-2.05-6.21-2.96-9.37-3.71l-4.78,1.76c0.92,4.96,5.64,10.34,10.95,10.58
				C250.92,113.79,252.6,108.36,248.23,104.89z"/>
			<linearGradient id="SVGID_23_" gradientUnits="userSpaceOnUse" x1="245.4819" y1="171.3331" x2="245.4819" y2="43.3027">
				<stop  offset="0" style="stop-color:#CC003D"/>
				<stop  offset="1" style="stop-color:#DF527B"/>
			</linearGradient>
			<path class="st26" d="M271.08,47.07c-17.11-15.97-38.38-3.25-49.95,12.55c-9.48,12.94-14.42,28.72-16.23,44.63
				c0.68-1.33,1.48-2.55,2.63-3.69c1.04-1.03,2.14-1.67,3.26-2.26c1.5,0.11,3.02-0.13,4.17-0.63c3.99-1.75,6.27-6.01,10.88-6.29
				c4.94-0.31,9.91,3.54,14.23,5.47c4.43,1.98,9.08,3.79,13.9,3.84c9.68,0.11,18.44-7.16,18.12-17.37
				c-0.13-4.13-1.8-7.75-3.33-11.58c-1.47-3.69-3.05-9.19,3.08-6.36c3.06,1.41,5.56,3.92,9.12,4.1c2,0.1,3.71-0.51,5.12-1.56
				C282,60.08,276.92,52.52,271.08,47.07z"/>
		</g>
		<g>
			<linearGradient id="SVGID_24_" gradientUnits="userSpaceOnUse" x1="224.4602" y1="171.3331" x2="224.4602" y2="43.3027">
				<stop  offset="0" style="stop-color:#429F00"/>
				<stop  offset="1" style="stop-color:#4BFF6D"/>
			</linearGradient>
			<path class="st27" d="M227.83,98.47c-0.21-0.18-0.44-0.34-0.71-0.47c-4.23-2.08-10.49,5.81-5.38,8.59
				C227.6,109.78,231.1,101.3,227.83,98.47z"/>
			<linearGradient id="SVGID_25_" gradientUnits="userSpaceOnUse" x1="244.8787" y1="171.3331" x2="244.8787" y2="43.3027">
				<stop  offset="0" style="stop-color:#429F00"/>
				<stop  offset="1" style="stop-color:#4BFF6D"/>
			</linearGradient>
			<path class="st28" d="M220.14,92.86c4.71-4.12,5.86-4.85,11.93-2.01c5.96,2.8,11.18,5.65,17.87,6.55
				c15.87,2.15,23.19-9.69,17.35-23.87c-1.43-3.48-5.78-9.54-0.51-11.39c4.73-1.65,8.64,4.27,13.47,0.55
				c0.72-0.56,1.33-1.15,1.84-1.79c-3.25-5.22-6.95-10.05-11.02-13.84c-17.11-15.97-38.38-3.25-49.95,12.55
				c-6.43,8.77-10.77,18.85-13.46,29.39C208.44,95.25,212.65,99.42,220.14,92.86z"/>
			<linearGradient id="SVGID_26_" gradientUnits="userSpaceOnUse" x1="242.1093" y1="171.3331" x2="242.1093" y2="43.3027">
				<stop  offset="0" style="stop-color:#429F00"/>
				<stop  offset="1" style="stop-color:#4BFF6D"/>
			</linearGradient>
			<path class="st29" d="M235.61,99.98c-1.72,0.78-1.99,3,0.92,7.38c2.32,3.5,6.13,5.4,10.22,3.67
				C256.67,106.81,240.43,97.79,235.61,99.98z"/>
		</g>
		<g>
			<linearGradient id="SVGID_27_" gradientUnits="userSpaceOnUse" x1="224.4591" y1="171.3331" x2="224.4591" y2="43.3027">
				<stop  offset="0" style="stop-color:#007500"/>
				<stop  offset="1" style="stop-color:#00F635"/>
			</linearGradient>
			<path class="st30" d="M226.45,104.04c-1.66,0.67-1.79-0.14-2.81-1.1c-0.98-0.92-1.45-1.02-2.7-1.37
				c-0.04-0.38-0.02-0.79,0.06-1.18c-1.51,2.07-1.84,4.79,0.75,6.2c5.73,3.12,9.19-4.92,6.29-7.92
				C228.29,100.73,229.26,102.9,226.45,104.04z"/>
			<linearGradient id="SVGID_28_" gradientUnits="userSpaceOnUse" x1="244.8787" y1="171.3331" x2="244.8787" y2="43.3027">
				<stop  offset="0" style="stop-color:#007500"/>
				<stop  offset="1" style="stop-color:#00F635"/>
			</linearGradient>
			<path class="st31" d="M220.14,92.86c4.71-4.12,5.86-4.85,11.93-2.01c5.96,2.8,11.18,5.65,17.87,6.55
				c15.87,2.15,23.19-9.69,17.35-23.87c-1.43-3.48-5.78-9.54-0.51-11.39c4.73-1.65,8.64,4.27,13.47,0.55
				c0.72-0.56,1.33-1.15,1.84-1.79c-3.25-5.22-6.95-10.05-11.02-13.84c-1.55-1.45-3.13-2.65-4.74-3.65
				c-1.21-0.07-2.38-0.07-3.42-0.02c-6.6,0.34-12.57,2.23-18.95,3.65c-4.28,0.95-8.7,1.52-13.07,2.11
				c-3.69,3.08-7.01,6.68-9.78,10.46c-0.13,0.18-0.25,0.36-0.38,0.54c0.08,0.51,0.34,0.95,0.84,1.26c1.83,1.14,4.2-0.31,5.7-1.26
				c2.61-1.65,7.15-4.07,9.11-0.01c1.43,2.98-2.07,7.07-2.75,10c-1.27,5.5,2.58,10.59,8.15,11.58c4.93,0.88,9.79-3.25,9.47-8.32
				c-0.24-3.83-1.96-7.41-2.34-11.24c-0.26-2.66,1.04-4.84,3.49-6.03c2.29-1.12,4.36,0.05,6.52,1c2.11,0.93,4.55,2.6,6.99,3.58
				c-1.84,0.76-3.16,2.37-3.24,4.49c-0.07,1.99,0.83,3.71,0.84,5.7c0.01,2.16-2.4,3.58-2.19,5.45c0.24,2.12,3.09,3.21,3.2,5.61
				c0.15,3.32-2.27,6.19-4.57,8.26c-5.88,5.29-14.5,2.45-21.23,0.52c-4.74-1.36-10.33-4.1-15.06-1.81
				c-2.08,1.01-3.69,2.67-6.17,2.77c-2.94,0.11-4.92-1.35-5.5-4.23c-0.23-1.12,0.02-2.09-0.49-3.15c-0.51-1.07-0.91-1.3-1.01-2.6
				c-0.05-0.62-0.04-1.28,0.01-1.95c-1.1,3.02-2.05,6.11-2.85,9.24C208.44,95.25,212.65,99.42,220.14,92.86z M276.54,56.17
				c0.95,0.84,1.62,2.06,2.38,3.12c-0.02,0.17-0.04,0.33-0.08,0.5c-0.66,2.64-2.25,3.14-4.5,2.39c-0.93-0.31-1.82-0.73-2.71-1.1
				C273.75,60.23,275.42,58.28,276.54,56.17z"/>
			<linearGradient id="SVGID_29_" gradientUnits="userSpaceOnUse" x1="224.8332" y1="171.333" x2="224.8332" y2="43.3027">
				<stop  offset="0" style="stop-color:#007500"/>
				<stop  offset="1" style="stop-color:#00F635"/>
			</linearGradient>
			<path class="st32" d="M220.98,76.6c3.29,2.41,9.45,2.19,10.16-2.52c0.46-3.05-0.85-6.34-3.02-8.39l-7.72,1.01
				C217.21,68.84,218.25,74.6,220.98,76.6z"/>
			<linearGradient id="SVGID_30_" gradientUnits="userSpaceOnUse" x1="242.1135" y1="171.3331" x2="242.1135" y2="43.3027">
				<stop  offset="0" style="stop-color:#007500"/>
				<stop  offset="1" style="stop-color:#00F635"/>
			</linearGradient>
			<path class="st33" d="M245.13,102.07c0.69,0.65,1.52,1.29,1.79,1.67c0.84,1.17,1.41,2.85,0.04,3.94
				c-1.37,1.09-3.21,0.19-4.58-0.42c-1.52-0.68-3.01-0.52-4.29-0.94c-1.6-0.52-2.92-2.61-3.74-3.98c-0.01-0.01-0.02-0.03-0.02-0.04
				c0.08,1.2,0.74,2.85,2.2,5.06c2.32,3.5,6.13,5.4,10.22,3.67C252.42,108.61,249.54,104.63,245.13,102.07z"/>
		</g>
		<linearGradient id="SVGID_31_" gradientUnits="userSpaceOnUse" x1="254.9038" y1="104.8817" x2="244.3325" y2="44.4742">
			<stop  offset="0" style="stop-color:#FFB500"/>
			<stop  offset="1" style="stop-color:#FFE000"/>
		</linearGradient>
		<path class="st34" d="M271.08,47.07c-15.96-14.9-35.54-4.83-47.5,9.42c-0.06,0.52-0.02,1.01,0.15,1.42
			c2.1,5.06,17.39-8.15,14.76,3.25c-1.14,4.92-5.63,7.65-3.23,12.97c2.06,4.58,7.71,5.64,11.66,2.16
			c7.53-6.64-2.34-15.29,2.11-22.07c5.49-8.37,20.82,13.07,26.06-1.64c0.12-0.32,0.21-0.64,0.3-0.96
			C274,49.99,272.57,48.46,271.08,47.07z M221.52,64.68c-3.88,3.08-3.21,7.89,1.13,9.71c3.13,1.32,7.47,1.62,8.17-2.4
			C231.79,66.41,226.36,60.83,221.52,64.68z"/>
		<g>
			<linearGradient id="SVGID_32_" gradientUnits="userSpaceOnUse" x1="248.3858" y1="106.0223" x2="237.8145" y2="45.6148">
				<stop  offset="0" style="stop-color:#F79300"/>
				<stop  offset="1" style="stop-color:#FFCF00"/>
			</linearGradient>
			<path class="st35" d="M239.44,73.92c-1.17-1.01-3.08-1.17-3.94-2.27c-0.49-0.63-0.63-1.68-0.54-2.73
				c-0.52,1.54-0.6,3.18,0.31,5.21c2.06,4.58,7.71,5.64,11.66,2.16c2.28-2.01,2.96-4.21,2.93-6.48c-0.45,1.22-0.91,2.47-1.7,3.52
				C245.75,76.53,242.13,76.24,239.44,73.92z"/>
			<linearGradient id="SVGID_33_" gradientUnits="userSpaceOnUse" x1="269.4958" y1="102.3281" x2="258.9245" y2="41.9205">
				<stop  offset="0" style="stop-color:#F79300"/>
				<stop  offset="1" style="stop-color:#FFCF00"/>
			</linearGradient>
			<path class="st36" d="M249.03,54.21c5.49-8.37,20.82,13.07,26.06-1.64c0.12-0.32,0.21-0.64,0.3-0.96
				c-1.26-1.48-2.56-2.88-3.91-4.16c0.17,1.11,0.6,2.41,0.6,3.32c0,1.85-1.03,3.49-2.94,3.92c-1.74,0.39-3.12-0.82-4.69-1.1
				c-1.67-0.29-2.61,0.5-4.2-0.16c-2.87-1.19-5.47-3.76-8.81-2.85c-4.28,1.16-5.42,7.99-3.36,11.24l0.18,0.06
				C247.68,59.21,247.47,56.6,249.03,54.21z"/>
			<linearGradient id="SVGID_34_" gradientUnits="userSpaceOnUse" x1="240.4454" y1="107.4119" x2="229.8741" y2="47.0043">
				<stop  offset="0" style="stop-color:#F79300"/>
				<stop  offset="1" style="stop-color:#FFCF00"/>
			</linearGradient>
			<path class="st37" d="M239.2,55.88c-2.08-2.89-6.37-0.68-8.9-0.03c-3.49,0.9-3.67-1.39-2.76-3.64c-1.39,1.37-2.72,2.8-3.96,4.28
				c-0.06,0.52-0.02,1.01,0.15,1.42c2.1,5.06,17.39-8.15,14.76,3.25c-0.17,0.72-0.41,1.4-0.69,2.04c0.13-0.14,0.25-0.28,0.38-0.44
				C239.52,61.18,240.57,57.77,239.2,55.88z"/>
			<linearGradient id="SVGID_35_" gradientUnits="userSpaceOnUse" x1="231.7719" y1="108.9297" x2="221.2006" y2="48.5222">
				<stop  offset="0" style="stop-color:#F79300"/>
				<stop  offset="1" style="stop-color:#FFCF00"/>
			</linearGradient>
			<path class="st38" d="M222.64,74.39c3.13,1.32,7.47,1.62,8.17-2.4c0.14-0.81,0.14-1.63,0.04-2.41c0,0,0,0-0.01-0.01
				c-0.72,3.72-4.32,4.67-6.67,1.75c-0.49-0.61-0.83-1.46-1.42-1.97c-0.7-0.6-1.82-0.57-2.2-1.47c-0.68-1.59,1.01-3.55,2.36-4.03
				c-0.01,0-0.02-0.01-0.03-0.01c-0.46,0.2-0.92,0.48-1.37,0.84C217.64,67.75,218.3,72.56,222.64,74.39z"/>
		</g>
	</g>
	<g>
		<linearGradient id="SVGID_36_" gradientUnits="userSpaceOnUse" x1="193.3571" y1="128.7283" x2="238.6563" y2="228.0943">
			<stop  offset="0" style="stop-color:#FF8BF2"/>
			<stop  offset="0.1396" style="stop-color:#FE84ED"/>
			<stop  offset="0.3492" style="stop-color:#FB6FDE"/>
			<stop  offset="0.6029" style="stop-color:#F74DC6"/>
			<stop  offset="0.8887" style="stop-color:#F11FA5"/>
			<stop  offset="1" style="stop-color:#EE0B97"/>
		</linearGradient>
		<path class="st39" d="M190.03,116.7c-12.75,6.71-24.16,29.2-24.16,29.2l27.18,19.46c2.01,1.01,19.13,1.34,21.14,1.68
			c2.01,0.34,21.48,0,22.49-8.39c1.01-8.39-4.36-27.18-14.1-38.26C212.85,109.32,202.78,109.99,190.03,116.7z"/>
		<linearGradient id="SVGID_37_" gradientUnits="userSpaceOnUse" x1="202.0847" y1="124.7495" x2="247.3839" y2="224.1156">
			<stop  offset="0" style="stop-color:#D977CE"/>
			<stop  offset="0.155" style="stop-color:#D870C9"/>
			<stop  offset="0.3878" style="stop-color:#D55BBA"/>
			<stop  offset="0.6695" style="stop-color:#CF39A2"/>
			<stop  offset="0.9869" style="stop-color:#C80B80"/>
			<stop  offset="1" style="stop-color:#C8097F"/>
		</linearGradient>
		<path class="st40" d="M190.03,116.7c-3.51,1.85-6.92,4.89-10.01,8.33c0.2,2.37,1.02,4.35,2.43,5.71
			c-1.65,4.18,1.64,10.55,6.07,10.91c3.44,0.28,4.46-2,7.05-3.59c2-1.23,5.24,0.41,5.54-2.89c0.29-3.26-3.2-4.54-5.73-3.81
			c-0.23-0.44-0.22-0.97-0.05-1.57c1.89-1.25,3.79-2.47,6.04-2.68c6.65-0.63,5.05,6.86,6.98,10.63c2.37,4.64,8.57,5.39,13.27,5.23
			c4.67-0.16,8.49-1.69,11.37-4.31c-2.43-6.55-5.96-13.21-10.4-18.26C212.85,109.32,202.78,109.99,190.03,116.7z"/>
		<linearGradient id="SVGID_38_" gradientUnits="userSpaceOnUse" x1="192.8921" y1="128.9403" x2="238.1913" y2="228.3064">
			<stop  offset="0" style="stop-color:#D977CE"/>
			<stop  offset="0.155" style="stop-color:#D870C9"/>
			<stop  offset="0.3878" style="stop-color:#D55BBA"/>
			<stop  offset="0.6695" style="stop-color:#CF39A2"/>
			<stop  offset="0.9869" style="stop-color:#C80B80"/>
			<stop  offset="1" style="stop-color:#C8097F"/>
		</linearGradient>
		<path class="st41" d="M232.47,150.8c-2.25,1.81-6.09,2.25-8.85,2.24c-6.08-0.04-11.71-3.1-17.73-4.04
			c-5.15-0.8-11.09,0.5-16.06-1.31c-2.76-1.01-5.34-2.32-8.17-3.21c-2.36-0.74-5.8-0.88-7.87-2.01c-3.19-1.75-1.93-6.03,0.01-9.56
			c-4.81,6.83-7.93,12.99-7.93,12.99l27.18,19.46c2.01,1.01,19.13,1.34,21.14,1.68c0.36,0.06,1.27,0.1,2.52,0.07
			c2.13-0.35,4.23-0.81,6.28-1.38c5.67-1.59,11.08-4.67,13.8-9.54c-0.03-3.01-0.62-6.81-1.7-10.92
			C234.59,147.36,234.46,149.19,232.47,150.8z"/>
		<linearGradient id="SVGID_39_" gradientUnits="userSpaceOnUse" x1="194.5276" y1="128.1947" x2="239.8269" y2="227.5608">
			<stop  offset="0" style="stop-color:#79FFE7"/>
			<stop  offset="0.1451" style="stop-color:#72FCE5"/>
			<stop  offset="0.363" style="stop-color:#5DF3DF"/>
			<stop  offset="0.6268" style="stop-color:#3BE4D6"/>
			<stop  offset="0.924" style="stop-color:#0DCFC9"/>
			<stop  offset="1" style="stop-color:#00C9C5"/>
		</linearGradient>
		<path class="st42" d="M193.39,132.48l1.01,0.67c1.28,1.42,5.14,5.47,5.37,0.67C199.94,130.08,195.45,131,193.39,132.48z"/>
		<linearGradient id="SVGID_40_" gradientUnits="userSpaceOnUse" x1="187.0701" y1="131.5944" x2="232.3693" y2="230.9604">
			<stop  offset="0" style="stop-color:#79FFE7"/>
			<stop  offset="0.1451" style="stop-color:#72FCE5"/>
			<stop  offset="0.363" style="stop-color:#5DF3DF"/>
			<stop  offset="0.6268" style="stop-color:#3BE4D6"/>
			<stop  offset="0.924" style="stop-color:#0DCFC9"/>
			<stop  offset="1" style="stop-color:#00C9C5"/>
		</linearGradient>
		<path class="st43" d="M183.66,131.13l-0.34,1.01c-0.36,4.85,3.51,10.54,8.89,6.71C199.65,133.56,184.87,133.52,183.66,131.13z"/>
		<linearGradient id="SVGID_41_" gradientUnits="userSpaceOnUse" x1="203.7246" y1="124.0019" x2="249.0239" y2="223.368">
			<stop  offset="0" style="stop-color:#79FFE7"/>
			<stop  offset="0.1451" style="stop-color:#72FCE5"/>
			<stop  offset="0.363" style="stop-color:#5DF3DF"/>
			<stop  offset="0.6268" style="stop-color:#3BE4D6"/>
			<stop  offset="0.924" style="stop-color:#0DCFC9"/>
			<stop  offset="1" style="stop-color:#00C9C5"/>
		</linearGradient>
		<path class="st44" d="M189.34,131.06c6.74-0.29,10.5-7.3,17.13-7.31c9.14-0.01,2.65,7.63,3.02,12.08
			c0.78,9.31,16.52,5.93,20.81,2.02c0.61-0.56,1.17-1.15,1.67-1.76c-2.36-5.69-5.53-11.3-9.4-15.7c-9.73-11.07-19.8-10.4-32.55-3.69
			c-2.64,1.39-5.23,3.46-7.66,5.86C180.89,126.91,183.59,131.31,189.34,131.06z"/>
		<linearGradient id="SVGID_42_" gradientUnits="userSpaceOnUse" x1="194.1642" y1="128.3604" x2="239.4634" y2="227.7264">
			<stop  offset="0" style="stop-color:#00EAD9"/>
			<stop  offset="0.1809" style="stop-color:#00E3D6"/>
			<stop  offset="0.4525" style="stop-color:#00CECF"/>
			<stop  offset="0.7793" style="stop-color:#00ADC3"/>
			<stop  offset="1" style="stop-color:#0092B9"/>
		</linearGradient>
		<path class="st45" d="M194.4,133.15c1.2,1.33,4.66,4.97,5.28,1.48c-1.74-0.58-4.13-1.66-3.33-3.36c-1.08,0.18-2.19,0.66-2.95,1.21
			L194.4,133.15z"/>
		<linearGradient id="SVGID_43_" gradientUnits="userSpaceOnUse" x1="187.07" y1="131.5945" x2="232.3692" y2="230.9605">
			<stop  offset="0" style="stop-color:#00EAD9"/>
			<stop  offset="0.1809" style="stop-color:#00E3D6"/>
			<stop  offset="0.4525" style="stop-color:#00CECF"/>
			<stop  offset="0.7793" style="stop-color:#00ADC3"/>
			<stop  offset="1" style="stop-color:#0092B9"/>
		</linearGradient>
		<path class="st46" d="M183.66,131.13l-0.34,1.01c-0.36,4.85,3.51,10.54,8.89,6.71c3.7-2.63,1.9-3.97-0.98-4.93
			c0.87,1.41,3.26,3.01,0.31,4.21c-1.25,0.51-2.42-0.36-3.28-0.96c-0.79-0.56-2.33-1.47-3.02-2.01c-1.44-1.14-1.22-2.62,0.04-2.98
			C184.46,131.88,183.86,131.54,183.66,131.13z"/>
		<linearGradient id="SVGID_44_" gradientUnits="userSpaceOnUse" x1="203.7229" y1="124.0027" x2="249.0221" y2="223.3688">
			<stop  offset="0" style="stop-color:#00EAD9"/>
			<stop  offset="0.1809" style="stop-color:#00E3D6"/>
			<stop  offset="0.4525" style="stop-color:#00CECF"/>
			<stop  offset="0.7793" style="stop-color:#00ADC3"/>
			<stop  offset="1" style="stop-color:#0092B9"/>
		</linearGradient>
		<path class="st47" d="M189.34,131.06c6.74-0.29,10.5-7.3,17.13-7.31c9.14-0.01,2.65,7.63,3.02,12.08
			c0.78,9.31,16.52,5.93,20.81,2.02c0.61-0.56,1.17-1.15,1.67-1.76c-0.53-1.28-1.11-2.56-1.73-3.82c-1.46-0.28-2.92-0.13-3.74,0.87
			c-1.46,1.75-0.04,3.84-2.5,5.23c-4.56,2.6-7.73-2.11-10.58-4.79c-1.8-1.69-2.05-1.91-0.81-4.22c1.16-2.17,2.37-3.31,0.36-5.54
			c-3.68-4.08-8.39-1.58-12.14,0.51c-4.12,2.3-8.35,4.81-11.58,0.49c-0.6-0.8-0.93-1.64-1.82-2.19c-0.63-0.39-1.96-0.04-2.4-0.62
			c-0.44-0.57-0.42-1.17-0.17-1.75c-0.85,0.72-1.69,1.49-2.52,2.3C180.89,126.91,183.59,131.31,189.34,131.06z"/>
	</g>
	<g>
		<linearGradient id="SVGID_45_" gradientUnits="userSpaceOnUse" x1="386.3568" y1="158.4397" x2="386.3568" y2="122.2313">
			<stop  offset="0" style="stop-color:#EC0046"/>
			<stop  offset="1" style="stop-color:#FF618F"/>
		</linearGradient>
		<path class="st48" d="M379.64,122.74c-13.09,5.37-22.49,30.54-22.49,30.54l58.39,5.03C408.17,125.43,392.73,117.38,379.64,122.74z
			"/>
		<linearGradient id="SVGID_46_" gradientUnits="userSpaceOnUse" x1="405.494" y1="158.4397" x2="405.494" y2="122.2313">
			<stop  offset="0" style="stop-color:#C6003B"/>
			<stop  offset="1" style="stop-color:#D9537A"/>
		</linearGradient>
		<path class="st49" d="M400.44,135.41c0.21,2.69,2.64,4.57,4.92,5.29c1.16,0.37,3.31,1.21,5.2,1.51
			c-2.11-5.01-4.49-9.02-7.04-12.14C402.94,131.82,400.26,133.08,400.44,135.41z"/>
		<linearGradient id="SVGID_47_" gradientUnits="userSpaceOnUse" x1="386.3568" y1="158.4397" x2="386.3568" y2="122.2313">
			<stop  offset="0" style="stop-color:#C6003B"/>
			<stop  offset="1" style="stop-color:#D9537A"/>
		</linearGradient>
		<path class="st50" d="M390.91,151c-3.31-0.25-6.58,0.61-9.96,0.05c-3.32-0.55-6.16-2.42-9.38-3.11c-2.13-0.45-8.37,0.85-9.32-1.7
			c-0.49-1.32,0.37-2.37,1.64-3.13c1.82,0.56,3.65,1.97,5.48,2.38c2.16,0.49,7.27,0.04,9.25-0.95c1.97-0.99,2.79-2.11,2.87-3.3
			c0.22,1.39,0.67,2.55,2.61,2.99c2.62,0.59,5.32-1.21,6.15-3.66c0.87-2.59-1.27-5.13-3.69-6.37c-3.28-1.68-6.98-0.51-8.75-0.81
			c1.28,1.75,2.76,3.25,3.3,5.39c0.1,0.38,0.16,0.77,0.21,1.15c-1.12-3.47-7.01-7.23-8.42-9.56c-0.07-0.12-0.14-0.23-0.2-0.35
			c2.04-0.08,5.28,1.79,6.62,2.06c3.08,0.6,7.03,0.9,10.05,1.08c3.02,0.17,6.55-1.29,9.06-2.54c1.6-0.79,2.08-2.07,4.04-1.45
			c0.15,0.05,0.29,0.11,0.43,0.17c-7.17-8.28-15.61-9.73-23.25-6.59c-13.09,5.37-22.49,30.54-22.49,30.54l58.39,5.03
			c-0.92-4.1-1.97-7.82-3.12-11.17c-0.33,0.92-0.25,2.46-0.65,3.12C408.17,156.22,396.13,151.4,390.91,151z"/>
		<linearGradient id="SVGID_48_" gradientUnits="userSpaceOnUse" x1="384.1748" y1="158.4397" x2="384.1748" y2="122.2313">
			<stop  offset="0" style="stop-color:#ECB500"/>
			<stop  offset="1" style="stop-color:#FFE000"/>
		</linearGradient>
		<path class="st51" d="M378.97,133.82l2.68,2.68c1.85,1.87,0.06,4.43,2.03,5.96c1.76,1.37,4.91,0.24,5.52-1.77
			C390.66,135.97,382.2,133.75,378.97,133.82z"/>
		<linearGradient id="SVGID_49_" gradientUnits="userSpaceOnUse" x1="371.8589" y1="158.4397" x2="371.8589" y2="122.2313">
			<stop  offset="0" style="stop-color:#ECB500"/>
			<stop  offset="1" style="stop-color:#FFE000"/>
		</linearGradient>
		<path class="st52" d="M379.65,141.21c3.44-5.2-7.42-7.26-9.22-11.22c-2.69,3.12-5.07,6.75-7.03,10.21
			C368.78,143.98,376.55,145.89,379.65,141.21z"/>
		<linearGradient id="SVGID_50_" gradientUnits="userSpaceOnUse" x1="387.3528" y1="158.4397" x2="387.3528" y2="122.2313">
			<stop  offset="0" style="stop-color:#ECB500"/>
			<stop  offset="1" style="stop-color:#FFE000"/>
		</linearGradient>
		<path class="st53" d="M388.03,131.81c3.23-0.09,11.18-0.45,11.08-5.03c-0.01-0.44-0.08-0.85-0.19-1.25
			c-6.2-4.84-13.01-5.35-19.28-2.78c-1.2,0.49-2.37,1.16-3.51,1.95c-0.37,0.63-0.58,1.32-0.53,2.08
			C375.89,131.75,384.63,131.9,388.03,131.81z"/>
		<linearGradient id="SVGID_51_" gradientUnits="userSpaceOnUse" x1="405.9903" y1="158.4397" x2="405.9903" y2="122.2313">
			<stop  offset="0" style="stop-color:#ECB500"/>
			<stop  offset="1" style="stop-color:#FFE000"/>
		</linearGradient>
		<path class="st54" d="M403.28,137.69c1.69,2.1,4.11,2.96,6.57,2.9c-1.79-3.96-3.76-7.24-5.85-9.91
			C402.14,132.55,401.28,135.2,403.28,137.69z"/>
		<linearGradient id="SVGID_52_" gradientUnits="userSpaceOnUse" x1="384.1736" y1="158.4397" x2="384.1736" y2="122.2313">
			<stop  offset="0" style="stop-color:#DF8D00"/>
			<stop  offset="1" style="stop-color:#FFB700"/>
		</linearGradient>
		<path class="st55" d="M381.66,136.5c1.85,1.87,0.06,4.43,2.03,5.96c1.76,1.37,4.91,0.24,5.52-1.77c0.19-0.62,0.2-1.2,0.09-1.74
			c-1.25,1.44-3.25,3.8-5.08,1.23c-0.49-0.69-0.09-2.04-0.56-2.84c-0.41-0.7-1.6-1.5-2.23-1.95c-0.66-0.48-1.47-1.08-2.33-1.59
			c-0.04,0-0.09,0-0.13,0L381.66,136.5z"/>
		<linearGradient id="SVGID_53_" gradientUnits="userSpaceOnUse" x1="371.8588" y1="158.4397" x2="371.8588" y2="122.2313">
			<stop  offset="0" style="stop-color:#DF8D00"/>
			<stop  offset="1" style="stop-color:#FFB700"/>
		</linearGradient>
		<path class="st56" d="M379.65,141.21c1.73-2.62-0.16-4.44-2.7-6.11c0.96,0.87,2.12,1.7,2.42,2.82c0.78,2.93-2.4,3.38-4.6,2.79
			c-2.35-0.63-3.85-2.3-6.29-2.33c-2.17-0.03-3.04-0.3-3.01-1.62c-0.73,1.15-1.43,2.31-2.08,3.45
			C368.78,143.98,376.55,145.89,379.65,141.21z"/>
		<linearGradient id="SVGID_54_" gradientUnits="userSpaceOnUse" x1="387.3528" y1="158.4397" x2="387.3528" y2="122.2313">
			<stop  offset="0" style="stop-color:#DF8D00"/>
			<stop  offset="1" style="stop-color:#FFB700"/>
		</linearGradient>
		<path class="st57" d="M376.13,124.69c-0.37,0.63-0.58,1.32-0.53,2.08c0.29,4.98,9.02,5.13,12.43,5.04
			c3.23-0.09,11.18-0.45,11.08-5.03c-0.01-0.44-0.08-0.85-0.19-1.25c-0.4-0.31-0.81-0.61-1.21-0.88c0.08,1.72-0.84,3.17-2.92,3.45
			c-0.92,0.12-2.26-0.59-3.27-0.24c-1.26,0.44-1.47,1.53-2.63,2.09c-2.39,1.15-3.63-0.48-5.48-1.64c-1.4-0.88-5.22-1.25-5.37-2.71
			c-0.11-1.06,1.1-2.24,2.38-3.14c-0.26,0.09-0.51,0.19-0.77,0.29C378.44,123.24,377.27,123.9,376.13,124.69z"/>
		<linearGradient id="SVGID_55_" gradientUnits="userSpaceOnUse" x1="405.9911" y1="158.4397" x2="405.9911" y2="122.2313">
			<stop  offset="0" style="stop-color:#DF8D00"/>
			<stop  offset="1" style="stop-color:#FFB700"/>
		</linearGradient>
		<path class="st58" d="M403.28,137.69c1.69,2.1,4.11,2.96,6.57,2.9c-0.57-1.27-1.17-2.46-1.78-3.6c-0.41,0.12-0.84,0.2-1.27,0.18
			c-2.54-0.16-4.29-1.65-4.39-4.06C401.9,134.56,402.05,136.16,403.28,137.69z"/>
	</g>
	<g>
		<g>
			<linearGradient id="SVGID_56_" gradientUnits="userSpaceOnUse" x1="284.3539" y1="121.8982" x2="349.079" y2="263.8761">
				<stop  offset="0" style="stop-color:#FFB400"/>
				<stop  offset="0.156" style="stop-color:#FFAD00"/>
				<stop  offset="0.3902" style="stop-color:#FF9800"/>
				<stop  offset="0.6737" style="stop-color:#FF7600"/>
				<stop  offset="0.9932" style="stop-color:#FF4800"/>
				<stop  offset="1" style="stop-color:#FF4700"/>
			</linearGradient>
			<path class="st59" d="M326.62,99.59c-12.42-9.73-32.55-10.74-56.72,10.74s-29.2,45.64-29.2,45.64l80.21,13.76
				c0,0,30.87,2.01,31.88-14.77C353.8,138.18,339.04,109.32,326.62,99.59z"/>
			<linearGradient id="SVGID_57_" gradientUnits="userSpaceOnUse" x1="305.4001" y1="112.3036" x2="370.1252" y2="254.2814">
				<stop  offset="0" style="stop-color:#D99A00"/>
				<stop  offset="0.1741" style="stop-color:#D99300"/>
				<stop  offset="0.4355" style="stop-color:#D97E00"/>
				<stop  offset="0.75" style="stop-color:#D95D00"/>
				<stop  offset="1" style="stop-color:#D93D00"/>
			</linearGradient>
			<path class="st60" d="M326.62,99.59c-11.89-9.32-30.86-10.63-53.66,8.13c2.19-1.41,5.29-2.27,6.19-0.12
				c0.5,1.19-0.4,2.12,0.24,3.27c0.49,0.89,1.99,1.72,2.77,2.33c4.83,3.77,10.73,8.07,16.93,6.61c6.57-1.55,14.12,0.25,20.52-1.7
				c3.19-0.97,4.49-3.16,6.84-5.17c1.01-0.86,2.1-0.91,2.75-2.32c0.56-1.21-0.15-2.74,0.65-3.79c0.65-0.86,1.77-1.02,2.87-1.2
				C330.67,103.21,328.62,101.15,326.62,99.59z"/>
			<linearGradient id="SVGID_58_" gradientUnits="userSpaceOnUse" x1="290.2974" y1="119.1887" x2="355.0225" y2="261.1665">
				<stop  offset="0" style="stop-color:#D99A00"/>
				<stop  offset="0.1741" style="stop-color:#D99300"/>
				<stop  offset="0.4355" style="stop-color:#D97E00"/>
				<stop  offset="0.75" style="stop-color:#D95D00"/>
				<stop  offset="1" style="stop-color:#D93D00"/>
			</linearGradient>
			<path class="st61" d="M342.31,138.62c-5.08,2.81-9.72,5.59-15.6,6.62c-2.27,0.4-4.54,0.15-6.8,0.74
				c-2.33,0.61-4.1,1.63-6.53,1.76c-5.63,0.3-11.48-1-17.18-1.26c-6.15-0.28-11.68-1.54-17.62-3.33c-6.23-1.88-14.5-4.05-19.13-8.75
				c-1.72-1.74-5.14-5.35-4.29-7.89c-3.18,4.35-5.71,8.53-7.69,12.3c2.58-1.73,6.15,2.96,8.27,4.14c3.59,2,7.17,3.81,10.32,6.54
				c2,1.73,3.45,3.47,6.04,4.48c2.27,0.89,10.22,3.17,11.54,0c0.86-2.07-1.5-4.05-4.92-5.83c2.56,0.55,5.19,0.89,7.74,1.17
				c8.71,0.96,18.46-0.12,27.18-0.82c8.3-0.67,16.84-2.01,24.72-4.78c2.14-0.75,8.42-3.05,11.66-6.04
				c-0.52-1.63-1.09-3.27-1.73-4.92c-0.47,0.45-0.89,0.96-1.19,1.39C345.58,136.29,344.7,137.3,342.31,138.62z M263.08,141.65
				c-0.93-0.63-1.84-1.31-2.74-2.02c1.33,0.44,2.72,0.92,4.14,1.58c1.71,0.8,3.19,1.92,4.71,2.98
				C266.39,143.15,264.03,142.29,263.08,141.65z"/>
			<linearGradient id="SVGID_59_" gradientUnits="userSpaceOnUse" x1="277.8949" y1="124.8432" x2="342.6214" y2="266.8241">
				<stop  offset="0" style="stop-color:#D99A00"/>
				<stop  offset="0.1741" style="stop-color:#D99300"/>
				<stop  offset="0.4355" style="stop-color:#D97E00"/>
				<stop  offset="0.75" style="stop-color:#D95D00"/>
				<stop  offset="1" style="stop-color:#D93D00"/>
			</linearGradient>
			<path class="st62" d="M271.21,109.19c-0.22,0.19-0.43,0.38-0.65,0.57l0.27-0.01C270.92,109.56,271.05,109.38,271.21,109.19z"/>
			<linearGradient id="SVGID_60_" gradientUnits="userSpaceOnUse" x1="241.1357" y1="141.6006" x2="305.8609" y2="283.5784">
				<stop  offset="0" style="stop-color:#D99A00"/>
				<stop  offset="0.1741" style="stop-color:#D99300"/>
				<stop  offset="0.4355" style="stop-color:#D97E00"/>
				<stop  offset="0.75" style="stop-color:#D95D00"/>
				<stop  offset="1" style="stop-color:#D93D00"/>
			</linearGradient>
			<path class="st63" d="M251.82,155.77c-0.29-1.24-2.4-1.89-4.27-2.59c-2.83-3.3-1.87-8.56-0.42-13.73
				c-4.99,9.66-6.42,16.53-6.42,16.53l11.73,2.01l1.78-1.68C253.33,156.17,252.54,155.99,251.82,155.77z"/>
			<linearGradient id="SVGID_61_" gradientUnits="userSpaceOnUse" x1="320.1826" y1="105.5646" x2="384.9077" y2="247.5424">
				<stop  offset="0" style="stop-color:#D99A00"/>
				<stop  offset="0.1741" style="stop-color:#D99300"/>
				<stop  offset="0.4355" style="stop-color:#D97E00"/>
				<stop  offset="0.75" style="stop-color:#D95D00"/>
				<stop  offset="1" style="stop-color:#D93D00"/>
			</linearGradient>
			<path class="st64" d="M348.74,141.59c-4.27,1.04-7.47,4.77-11.28,6.68c-3.32,1.66-7.12,2.63-10.5,4.01l11.58-1.01
				c2.37-1.38,4.5-1.97,6.92-3.14c2.14-1.04,4.25-3.51,5.99-0.44c0.78,1.38-0.21,2.77,0.15,3.96c0.26,0.87,0.68,1.28,1.24,1.09
				c-0.06-3.38-0.66-7.16-1.69-11.11C350.42,141.41,349.61,141.38,348.74,141.59z"/>
			<linearGradient id="SVGID_62_" gradientUnits="userSpaceOnUse" x1="296.3682" y1="116.4211" x2="361.0934" y2="258.3989">
				<stop  offset="0" style="stop-color:#D99A00"/>
				<stop  offset="0.1741" style="stop-color:#D99300"/>
				<stop  offset="0.4355" style="stop-color:#D97E00"/>
				<stop  offset="0.75" style="stop-color:#D95D00"/>
				<stop  offset="1" style="stop-color:#D93D00"/>
			</linearGradient>
			<path class="st65" d="M262.53,131.64c3.98,3.66,8.73,5.78,13.65,8c4.48,2.02,9,2.02,13.84,2.76c5.73,0.88,11.49,2.04,17.33,2.33
				c2.53,0.12,5.53,0.69,8.04,0.2c1.58-0.31,2.97-1.28,4.52-1.77c3.66-1.15,7.78-1.33,11.64-2.39c2.36-0.65,5.49-1.08,7.49-2.63
				c1.36-1.05,1.67-2.76,2.82-3.92c1.63-1.64,3.95-1.66,5.86-2.84c-1.06-2.64-2.25-5.26-3.53-7.84c-1.69,0.48-3.31,1.52-4.7,2.31
				c-5,2.82-9.86,5.17-15.5,6.51c-13.64,3.24-28.17,1.94-41.61-1.71c-4.84-1.32-10.59-2.64-13.78-6.83
				c5.06,4.34,12.74,5.75,18.81,7.08c16.56,3.62,41.71,5.86,52.13-10.82c0.43-0.68,0.9-1.67,1.27-2.76
				c-1.14-1.95-2.33-3.84-3.54-5.62c-0.15,0.32-0.31,0.67-0.5,1.02c-1.57,2.8-2.94,5.76-5.78,7.42c-1.71,1-3.75,1.42-5.55,2.26
				c-1.91,0.9-3.24,2.29-5.03,3.34c-3.22,1.9-6.59,1.22-10.13,1.07c-4.53-0.2-9.34,0.92-13.83,0.32c-4.39-0.59-8.98-3.28-13.16-4.7
				c-3.97-1.34-6.23-2.16-8.86-5.15c-2.15-2.44-5.56-2.91-4.94-6.57c-1.78,1.6-3.45,3.21-5.03,4.82c-0.01,0.16-0.02,0.33-0.02,0.49
				c-0.1-0.06-0.2-0.11-0.3-0.16c-3.14,3.25-5.88,6.51-8.27,9.69C258.27,125.58,261.38,130.58,262.53,131.64z"/>
			<linearGradient id="SVGID_63_" gradientUnits="userSpaceOnUse" x1="292.2455" y1="118.3006" x2="356.9706" y2="260.2784">
				<stop  offset="0" style="stop-color:#9082FF"/>
				<stop  offset="0.2535" style="stop-color:#9589FF"/>
				<stop  offset="0.633" style="stop-color:#A29EFF"/>
				<stop  offset="1" style="stop-color:#B3B8FF"/>
			</linearGradient>
			<path class="st66" d="M335.68,143.22c-12.42,4.7-37.59,6.38-58.39,1.34c-16.89-4.09-22.06-13.04-23.41-16.26
				c-1.39,1.99-2.65,3.94-3.78,5.83c5.36,9.19,23.69,20.95,55.38,19.83c31.04-1.1,42.74-8.49,45.97-11.14
				c-0.71-2.95-1.66-6-2.8-9.08C347.34,136.78,343.99,140.07,335.68,143.22z"/>
			<linearGradient id="SVGID_64_" gradientUnits="userSpaceOnUse" x1="307.3778" y1="111.402" x2="372.103" y2="253.3798">
				<stop  offset="0" style="stop-color:#9082FF"/>
				<stop  offset="0.2535" style="stop-color:#9589FF"/>
				<stop  offset="0.633" style="stop-color:#A29EFF"/>
				<stop  offset="1" style="stop-color:#B3B8FF"/>
			</linearGradient>
			<path class="st67" d="M291.63,116.45c8.69,2.47,35.14,2.67,37.01-9.81c0.3-1.97,0.12-3.87-0.4-5.68
				c-0.54-0.49-1.08-0.95-1.61-1.37c-10.36-8.12-26.09-10.16-45.05,1.85c-0.62,1.01-1.07,2.12-1.28,3.35
				C279.11,111.64,286.16,114.89,291.63,116.45z"/>
			<linearGradient id="SVGID_65_" gradientUnits="userSpaceOnUse" x1="297.8808" y1="115.7315" x2="362.606" y2="257.7094">
				<stop  offset="0" style="stop-color:#9082FF"/>
				<stop  offset="0.2535" style="stop-color:#9589FF"/>
				<stop  offset="0.633" style="stop-color:#A29EFF"/>
				<stop  offset="1" style="stop-color:#B3B8FF"/>
			</linearGradient>
			<path class="st68" d="M317.22,142.21c21.96-2.55,27.01-11.13,28.62-15.23c-2.28-4.99-4.97-9.85-7.83-14.18
				c-1,3.07-3.61,6.49-9.05,9.95c-17.45,11.07-46.65,3.02-54.7-2.68c-4.49-3.18-5.12-6.78-4.8-9.34c-3.7,3.32-6.94,6.7-9.78,10.05
				c-0.06,0.21-0.13,0.42-0.19,0.64C255.81,133.82,288.36,145.57,317.22,142.21z"/>
			<linearGradient id="SVGID_66_" gradientUnits="userSpaceOnUse" x1="291.9651" y1="118.4284" x2="356.6903" y2="260.4062">
				<stop  offset="0" style="stop-color:#7C6DF2"/>
				<stop  offset="0.2602" style="stop-color:#8074F2"/>
				<stop  offset="0.6497" style="stop-color:#8D89F2"/>
				<stop  offset="1" style="stop-color:#9BA1F2"/>
			</linearGradient>
			<path class="st69" d="M305.48,153.96c31.04-1.1,42.74-8.49,45.97-11.14c-0.28-1.17-0.61-2.36-0.97-3.56
				c-1.87,1.81-2.76,3.92-5.4,4.91c-1.84,0.68-3.98,0.13-5.79,0.87c-2.35,0.96-3.51,3.19-6.17,3.86c-4.44,1.13-8.97,0.17-13.34,1.93
				c-2.13,0.86-3.54,1.7-5.91,1.7c-3.34,0-6.74-0.84-10.08-1c-5.27-0.26-10.36,0.87-15.66,0.31c-5.71-0.61-9.54-4.3-14.84-5.54
				c-5.98-1.4-10.9-1.69-15.25-6.84c-0.76-0.9-1.18-2.23-2.08-3.04c-0.64-0.58-1.58-0.79-2.2-1.32c-1.74-1.48-1.57-2.57-1.55-4.35
				c-0.75,1.14-1.46,2.27-2.12,3.37C255.46,143.31,273.78,155.08,305.48,153.96z"/>
			<linearGradient id="SVGID_67_" gradientUnits="userSpaceOnUse" x1="307.3778" y1="111.402" x2="372.103" y2="253.3798">
				<stop  offset="0" style="stop-color:#7C6DF2"/>
				<stop  offset="0.2602" style="stop-color:#8074F2"/>
				<stop  offset="0.6497" style="stop-color:#8D89F2"/>
				<stop  offset="1" style="stop-color:#9BA1F2"/>
			</linearGradient>
			<path class="st70" d="M280.29,104.79c-1.18,6.85,5.87,10.1,11.34,11.66c8.69,2.47,35.14,2.67,37.01-9.81
				c0.3-1.97,0.12-3.87-0.4-5.68c-0.54-0.49-1.08-0.95-1.61-1.37c-1.48-1.16-3.07-2.19-4.76-3.08c0.47,0.72,1,1.48,1.05,2.51
				c0.03,0.56-0.95,0.98-0.75,1.67c0.15,0.52,0.85,0.52,1.02,0.86c1.26,2.41,2.83,5.01-0.74,6.87c-4.57,2.39-9.98-1.87-14.63-0.1
				c-3.21,1.22-5.35,3.7-8.98,3.94c-3.16,0.21-6.42-0.58-9.07-2.28c-3.33-2.13-1.39-5.63-4.71-7.16c-1.67-0.78-2.85,0.08-1.77-2.24
				c0.04-0.09,0.1-0.18,0.16-0.27c-0.62,0.37-1.24,0.74-1.86,1.14C280.96,102.45,280.5,103.56,280.29,104.79z"/>
			<linearGradient id="SVGID_68_" gradientUnits="userSpaceOnUse" x1="297.8808" y1="115.7315" x2="362.606" y2="257.7094">
				<stop  offset="0" style="stop-color:#7C6DF2"/>
				<stop  offset="0.2602" style="stop-color:#8074F2"/>
				<stop  offset="0.6497" style="stop-color:#8D89F2"/>
				<stop  offset="1" style="stop-color:#9BA1F2"/>
			</linearGradient>
			<path class="st71" d="M259.5,121.4c-3.69,12.42,28.86,24.16,57.72,20.81c21.96-2.55,27.01-11.13,28.62-15.23
				c-0.45-0.98-0.92-1.96-1.39-2.92c-0.36,0.33-0.67,0.63-0.9,0.84c-1.68,1.51-2.98,2.37-5.03,3.28
				c-5.6,2.48-5.17,10.05-12.27,10.01c-3.1-0.02-5.02-0.68-8.06,0.56c-3.34,1.36-6.07,3.52-9.88,3.47
				c-9.83-0.13-17.66-8.34-27.45-8.82c-6.24-0.31-14.96,0.66-16.78-7.11c-0.26-1.13,0.12-2.46-0.61-3.47
				c-0.49-0.68-1.82-0.65-2.16-1.3c-0.5-0.95-0.18-2.05,0.41-3.07c-0.7,0.77-1.38,1.55-2.03,2.32
				C259.63,120.98,259.56,121.19,259.5,121.4z"/>
		</g>
		<radialGradient id="SVGID_69_" cx="298.5981" cy="96.5682" r="10.2412" gradientUnits="userSpaceOnUse">
			<stop  offset="0" style="stop-color:#CBCBFF"/>
			<stop  offset="1" style="stop-color:#A7ADFF"/>
		</radialGradient>
		<path class="st72" d="M281.99,103.78c0,0,9.23-7.22,19.13-9.06c9.9-1.85,14.26-0.17,15.1,0.84c0.84,1.01-3.02,2.18-7.22,2.01
			C304.81,97.41,301.45,92.88,281.99,103.78z"/>
	</g>
</g>
</svg>
