<svg id="Capa_1" enable-background="new 0 0 512 512" height="512" viewBox="0 0 512 512" width="512" xmlns="http://www.w3.org/2000/svg"><g><g><path d="m296 36.09c-22.09 0-40 17.91-40 40 0-22.09-17.91-40-40-40h-206v360h452c22.09 0 40-17.91 40-40v-320z" fill="#eefaff"/><path d="m502 36.09v320c0-23.783-20.363-40-42.14-40h-37.86c13.971-48.897 49.279-172.474 80-280z" fill="#a4caff"/><path d="m501.82 447.62-28.29 28.29-42.42-42.43 28.28-28.28z" fill="#ff9256"/><path d="m459.39 405.2-28.28 28.28c-14.021-14.021-100.706-100.706-113.14-113.14l-14.14-42.42 42.42 14.14c22.233 22.234 108.099 108.099 113.14 113.14z" fill="#ffee80"/></g><g><circle cx="196" cy="336.09" r="10"/><path d="m50 106.09h86c5.523 0 10-4.477 10-10s-4.477-10-10-10h-86c-5.523 0-10 4.477-10 10s4.477 10 10 10z"/><path d="m296 106.09h86c5.523 0 10-4.477 10-10s-4.477-10-10-10h-86c-5.523 0-10 4.477-10 10s4.477 10 10 10z"/><path d="m50 146.09h166c5.523 0 10-4.477 10-10s-4.477-10-10-10h-166c-5.523 0-10 4.477-10 10s4.477 10 10 10z"/><path d="m50 186.09h166c5.523 0 10-4.477 10-10s-4.477-10-10-10h-166c-5.523 0-10 4.477-10 10s4.477 10 10 10z"/><path d="m50 226.09h166c5.523 0 10-4.477 10-10s-4.477-10-10-10h-166c-5.523 0-10 4.477-10 10s4.477 10 10 10z"/><path d="m50 266.09h166c5.523 0 10-4.477 10-10s-4.477-10-10-10h-166c-5.523 0-10 4.477-10 10s4.477 10 10 10z"/><path d="m50 306.09h166c5.523 0 10-4.477 10-10s-4.477-10-10-10h-166c-5.523 0-10 4.477-10 10s4.477 10 10 10z"/><path d="m50 346.09h106c5.523 0 10-4.477 10-10s-4.477-10-10-10h-106c-5.523 0-10 4.477-10 10s4.477 10 10 10z"/><path d="m502 26.09h-206c-16.339 0-30.87 7.878-40 20.035-9.13-12.156-23.661-20.035-40-20.035h-206c-5.523 0-10 4.477-10 10v360c0 5.523 4.477 10 10 10h78c5.523 0 10-4.477 10-10s-4.477-10-10-10h-68v-340h196c16.542 0 30 13.458 30 30v310h-68c-5.523 0-10 4.477-10 10s4.477 10 10 10h211.572l76.885 76.89c3.906 3.906 10.238 3.905 14.143.001l28.29-28.29c3.903-3.903 3.904-10.239-.001-14.143l-35.729-35.729c22.214-5.086 38.84-24.996 38.84-48.729v-320c0-.028-.004-.055-.004-.084-.044-5.448-4.512-9.916-9.996-9.916zm-175.29 288.848-7.069-21.207 21.207 7.069.032.032c.016.016.021.021.021.021.708.708 9.942 9.941 104.352 104.342l-14.146 14.146c-11.998-11.999-37.702-37.704-104.397-104.403zm160.967 132.683-14.146 14.146-28.282-28.283 14.146-14.146zm-25.677-61.531h-7.578l-101.101-101.101c-1.098-1.098-2.436-1.925-3.909-2.416l-42.42-14.14c-3.595-1.197-7.556-.262-10.233 2.416-2.678 2.679-3.613 6.64-2.416 10.233l14.14 42.42c.491 1.473 1.318 2.811 2.416 3.909l58.675 58.679h-103.574v-310c0-16.542 13.458-30 30-30h192.743l-22.857 80h-169.886c-5.523 0-10 4.477-10 10s4.477 10 10 10h164.171l-5.714 20h-158.457c-5.523 0-10 4.477-10 10s4.477 10 10 10h152.743l-5.714 20h-147.029c-5.523 0-10 4.477-10 10s4.477 10 10 10h141.314l-24.929 87.253c-.862 3.017-.258 6.264 1.632 8.769s4.846 3.978 7.983 3.978h37.86c16.527 0 32.14 11.969 32.14 30 0 16.542-13.458 30-30 30zm30-69.384c-8.943-6.659-20.172-10.616-32.14-10.616h-24.603c4.131-14.459 54.168-189.589 56.743-198.6z"/><circle cx="133" cy="396.09" r="10"/></g></g></svg>