<?xml version="1.0" encoding="utf-8"?>
<!-- Generator: Adobe Illustrator 24.1.0, SVG Export Plug-In . SVG Version: 6.00 Build 0)  -->
<svg version="1.1" id="Layer_1" xmlns="http://www.w3.org/2000/svg" xmlns:xlink="http://www.w3.org/1999/xlink" x="0px" y="0px"
	 viewBox="0 0 600 600" style="enable-background:new 0 0 600 600;" xml:space="preserve">
<style type="text/css">
	.st0{fill:#F7DE03;}
	.st1{fill:#E3A925;}
	.st2{opacity:0.2;}
	.st3{fill:#FFFFFF;}
	.st4{clip-path:url(#SVGID_2_);fill:#FFFFFF;}
	.st5{clip-path:url(#SVGID_2_);fill:#FFFFFD;}
	.st6{clip-path:url(#SVGID_2_);fill:#FFFFFC;}
	.st7{clip-path:url(#SVGID_2_);fill:#FFFFFA;}
	.st8{clip-path:url(#SVGID_2_);fill:#FFFEF9;}
	.st9{clip-path:url(#SVGID_2_);fill:#FFFEF8;}
	.st10{clip-path:url(#SVGID_2_);fill:#FFFEF6;}
	.st11{clip-path:url(#SVGID_2_);fill:#FFFEF5;}
	.st12{clip-path:url(#SVGID_2_);fill:#FFFEF4;}
	.st13{clip-path:url(#SVGID_2_);fill:#FFFEF3;}
	.st14{clip-path:url(#SVGID_2_);fill:#FFFEF2;}
	.st15{clip-path:url(#SVGID_2_);fill:#FFFEF1;}
	.st16{clip-path:url(#SVGID_2_);fill:#FFFEEF;}
	.st17{clip-path:url(#SVGID_2_);fill:#FEFDEE;}
	.st18{clip-path:url(#SVGID_2_);fill:#FEFDED;}
	.st19{clip-path:url(#SVGID_2_);fill:#FEFDEB;}
	.st20{clip-path:url(#SVGID_2_);fill:#FFFDEA;}
	.st21{clip-path:url(#SVGID_2_);fill:#FFFCEA;}
	.st22{clip-path:url(#SVGID_2_);fill:#FDFCE8;}
	.st23{clip-path:url(#SVGID_2_);fill:#FDFCE7;}
	.st24{clip-path:url(#SVGID_2_);fill:#FDFBE5;}
	.st25{clip-path:url(#SVGID_2_);fill:#FDFBE4;}
	.st26{clip-path:url(#SVGID_2_);fill:#FDFBE2;}
	.st27{clip-path:url(#SVGID_2_);fill:#FDFBE1;}
	.st28{clip-path:url(#SVGID_2_);fill:#FDFBE0;}
	.st29{clip-path:url(#SVGID_2_);fill:#FEFBDF;}
	.st30{clip-path:url(#SVGID_2_);fill:#FEFBDE;}
	.st31{clip-path:url(#SVGID_2_);fill:#FEFBDD;}
	.st32{clip-path:url(#SVGID_2_);fill:#FEFBDC;}
	.st33{clip-path:url(#SVGID_2_);fill:#FCFADB;}
	.st34{clip-path:url(#SVGID_2_);fill:#FCFADA;}
	.st35{clip-path:url(#SVGID_2_);fill:#FCFAD9;}
	.st36{clip-path:url(#SVGID_2_);fill:#FCFAD8;}
	.st37{clip-path:url(#SVGID_2_);fill:#FDFAD7;}
	.st38{clip-path:url(#SVGID_2_);fill:#FDFAD5;}
	.st39{clip-path:url(#SVGID_2_);fill:#FDFAD4;}
	.st40{clip-path:url(#SVGID_2_);fill:#FDF9D2;}
	.st41{clip-path:url(#SVGID_2_);fill:#FCF9D2;}
	.st42{clip-path:url(#SVGID_2_);fill:#FCF9D1;}
	.st43{clip-path:url(#SVGID_2_);fill:#FCF9CF;}
	.st44{clip-path:url(#SVGID_2_);fill:#FCF9CE;}
	.st45{clip-path:url(#SVGID_2_);fill:#FCF8CD;}
	.st46{clip-path:url(#SVGID_2_);fill:#FCF8CC;}
	.st47{clip-path:url(#SVGID_2_);fill:#FCF8CB;}
	.st48{clip-path:url(#SVGID_2_);fill:#FCF8CA;}
	.st49{clip-path:url(#SVGID_2_);fill:#FCF8C9;}
	.st50{clip-path:url(#SVGID_2_);fill:#FCF8C8;}
	.st51{clip-path:url(#SVGID_2_);fill:#FCF8C7;}
	.st52{clip-path:url(#SVGID_2_);fill:#FCF8C6;}
	.st53{clip-path:url(#SVGID_2_);fill:#FCF8C5;}
	.st54{clip-path:url(#SVGID_2_);fill:#FCF8C3;}
	.st55{clip-path:url(#SVGID_2_);fill:#FDF8C2;}
	.st56{clip-path:url(#SVGID_2_);fill:#FDF8C1;}
	.st57{clip-path:url(#SVGID_2_);fill:#FDF8C0;}
	.st58{clip-path:url(#SVGID_2_);fill:#FBF7BF;}
	.st59{clip-path:url(#SVGID_2_);fill:#FCF7BE;}
	.st60{clip-path:url(#SVGID_2_);fill:#FCF7BD;}
	.st61{clip-path:url(#SVGID_2_);fill:#FCF7BC;}
	.st62{clip-path:url(#SVGID_2_);fill:#FCF7BB;}
	.st63{clip-path:url(#SVGID_2_);fill:#FCF7BA;}
	.st64{clip-path:url(#SVGID_2_);fill:#FCF7B9;}
	.st65{clip-path:url(#SVGID_2_);fill:#FCF6B7;}
	.st66{clip-path:url(#SVGID_2_);fill:#FCF6B6;}
	.st67{clip-path:url(#SVGID_2_);fill:#FCF6B5;}
	.st68{clip-path:url(#SVGID_2_);fill:#FCF6B4;}
	.st69{clip-path:url(#SVGID_2_);fill:#FCF6B3;}
	.st70{clip-path:url(#SVGID_2_);fill:#FBF6B2;}
	.st71{clip-path:url(#SVGID_2_);fill:#FBF6B1;}
	.st72{clip-path:url(#SVGID_2_);fill:#FBF5B0;}
	.st73{clip-path:url(#SVGID_2_);fill:#FBF5AF;}
	.st74{clip-path:url(#SVGID_2_);fill:#FBF5AE;}
	.st75{clip-path:url(#SVGID_2_);fill:#FBF5AD;}
	.st76{clip-path:url(#SVGID_2_);fill:#FBF5AC;}
	.st77{clip-path:url(#SVGID_2_);fill:#FBF5AB;}
	.st78{clip-path:url(#SVGID_2_);fill:#FBF5AA;}
	.st79{clip-path:url(#SVGID_2_);fill:#FBF5A9;}
	.st80{clip-path:url(#SVGID_2_);fill:#FCF5A8;}
	.st81{clip-path:url(#SVGID_2_);fill:#FCF5A7;}
	.st82{clip-path:url(#SVGID_2_);fill:#FCF5A6;}
	.st83{clip-path:url(#SVGID_2_);fill:#FCF5A4;}
	.st84{clip-path:url(#SVGID_2_);fill:#FBF4A4;}
	.st85{clip-path:url(#SVGID_2_);fill:#FBF4A2;}
	.st86{clip-path:url(#SVGID_2_);fill:#FBF4A1;}
	.st87{clip-path:url(#SVGID_2_);fill:#FBF4A0;}
	.st88{opacity:0.6;}
</style>
<g>
	<g>
		<path class="st0" d="M89.07,582.37c-8.66-4.83-12.66-26.48-12.03-64.92c0.63-38.44,1.97-61.87,4.01-70.27
			c14.26-59.83,40.73-104.7,79.43-134.62c38.7-29.91,84.4-55.31,137.1-76.19c21.39-8.4,31.25-17.19,29.6-26.35
			c-1.66-9.17-7.83-15.97-18.52-20.43c-10.69-4.45-22.34-5.28-34.94-2.48c-12.6,2.8-19.16,11.71-19.67,26.73
			c-0.51,5.6-2.55,10.44-6.11,14.51c-7.13,7.64-20.18,11.33-39.14,11.07c-18.97-0.25-37.62-2.29-55.95-6.11
			c-12.48-2.54-24.12-5.85-34.94-9.93c-10.82-4.07-20.43-11.07-28.83-21c-9.93-11.46-7.77-31.95,6.49-61.48
			c14.26-29.53,27.11-50.28,38.57-62.25c36.66-37.93,81.21-60.59,133.66-67.98C320.24,3.3,369,11.58,414.06,35.5
			c42.77,22.91,74.47,60.21,95.09,111.89c20.62,51.69,18.33,99.93-6.87,144.74c-21.64,38.44-52.96,63.97-93.95,76.57
			c-40.99,12.6-71.8,29.21-92.42,49.84c32.33-0.76,64.67-1.78,97-3.06c32.33-1.27,53.72-1.27,64.16,0
			c9.93,0.51,18.27,8.34,25.01,23.49c6.74,15.15,11.46,32.27,14.13,51.36c2.67,19.09,3.18,37.62,1.53,55.57
			c-1.66,17.95-5.92,29.98-12.79,36.09c-3.82,3.57-26.22,6.11-67.21,7.64c-40.99,1.53-86.06,2.29-135.19,2.29
			c-49.14,0-95.09-0.76-137.86-2.29C121.91,588.1,96.71,585.68,89.07,582.37z"/>
		<path class="st1" d="M302.54,600c-49.12,0-95.6-0.77-138.15-2.29c-58.85-2.11-73.01-5.53-78.54-7.93
			c-0.25-0.1-0.49-0.23-0.73-0.35c-12.05-6.73-16.89-28.31-16.17-72.12c0.86-52.51,2.83-66.27,4.24-72.04
			c14.62-61.36,42.33-108.17,82.34-139.09c39.09-30.24,85.88-56.25,139.07-77.32c19.13-7.51,25.22-14.06,24.61-17.4
			c-0.73-4.04-2.94-9.94-13.67-14.41c-9.2-3.84-19.05-4.52-30.09-2.06c-6.32,1.4-12.85,4.77-13.35,19.13
			c-0.69,7.78-3.42,14.2-8.11,19.56c-9.01,9.66-23.8,14.22-45.33,13.82c-19.41-0.27-38.75-2.37-57.48-6.29
			c-12.8-2.6-24.97-6.06-36.14-10.26c-12.08-4.56-22.9-12.41-32.16-23.36c-12.31-14.19-10.57-37.18,5.38-70.21
			c14.76-30.57,27.85-51.61,40.01-64.33c37.79-39.1,84.33-62.77,138.37-70.39c53.89-7.63,104.77,1.05,151.18,25.69
			c44.33,23.74,77.56,62.77,98.81,116.04c21.47,53.81,19,104.84-7.34,151.68c-22.59,40.14-55.77,67.17-98.62,80.34
			c-29.39,9.03-53.49,20.24-71.97,33.46c24.62-0.68,49.24-1.5,73.86-2.47c33.07-1.29,54.47-1.29,65.45,0.06
			c12.6,0.62,23.36,10.13,31.41,28.22c7.03,15.78,11.99,33.79,14.76,53.52c2.75,19.65,3.27,38.96,1.57,57.43
			c-1.87,20.26-6.94,33.8-15.48,41.39c-3.02,2.83-7.8,7.27-72.27,9.68C397.25,599.23,351.66,600,302.54,600z M92.79,575.17
			c4.49,1.67,19.9,4.53,72.18,6.39c42.36,1.52,88.65,2.29,137.57,2.29c48.92,0,94.3-0.77,134.89-2.29
			c51.4-1.91,60.94-5.04,62.64-5.96c3.12-2.85,7.81-10.81,9.62-30.44c1.59-17.22,1.09-35.3-1.48-53.7
			c-2.56-18.24-7.1-34.8-13.51-49.2c-5.38-12.07-11.45-18.36-18.04-18.7c-10.54-1.28-31.67-1.24-63.43,0.01
			c-32.38,1.28-64.76,2.29-97.13,3.06c-3.36-0.15-6.32-1.87-7.62-4.9c-1.3-3.03-0.62-6.55,1.72-8.89
			c21.46-21.48,53.68-38.92,95.76-51.87c38.75-11.91,68.79-36.41,89.28-72.81c24.16-42.95,26.25-88.02,6.41-137.77
			c-19.8-49.63-50.55-85.88-91.4-107.77c-43.3-22.98-90.86-31.03-141.32-23.94c-50.39,7.1-93.78,29.16-128.97,65.59
			c-10.8,11.27-23.29,31.53-37.11,60.13c-12.49,25.86-15.14,44.08-7.67,52.69c7.52,8.89,16.1,15.16,25.58,18.74
			c10.37,3.91,21.71,7.13,33.7,9.57c17.76,3.7,36.06,5.71,54.45,5.95c16.23,0.34,27.71-2.7,33.12-8.51
			c2.26-2.58,3.62-5.82,3.97-9.72c0.61-18.1,9.84-30.31,25.96-33.9c14.22-3.14,27.62-2.17,39.8,2.92
			c16.61,6.92,21.87,18.21,23.36,26.45c3.67,20.29-25.12,31.6-34.59,35.31c-51.75,20.5-97.22,45.75-135.11,75.06
			c-37.02,28.61-62.77,72.38-76.52,130.09c-1.31,5.38-3.02,21.6-3.79,68.54C84.33,565.81,91.42,574.03,92.79,575.17z"/>
	</g>
	<g class="st2">
		<path class="st3" d="M364.4,342.82c-8.81-1.46-17.55-3.29-26.21-5.53c-32.29-8.35-63.09-21.73-94.67-32.4
			c-21.46,11.88-41.22,24.78-59.13,38.62c-31.71,24.51-53.07,61.39-65.29,112.67c-0.35,1.72-2.16,12.77-2.97,61.92
			c-0.23,13.79,0.24,23.27,0.85,29.62c9.49,0.91,24.76,1.97,49.09,2.84c42.11,1.5,88.02,2.26,136.47,2.26
			c48.42,0,93.42-0.76,133.73-2.26c20.8-0.77,33.83-1.73,41.83-2.54c0.25-1.62,0.49-3.5,0.69-5.7c1.37-14.87,0.93-30.54-1.31-46.56
			c-2.15-15.38-5.9-29.13-11.12-40.87c-0.16-0.37-0.32-0.71-0.47-1.03c-2.98-0.13-7.1-0.22-12.69-0.22
			c-10.13,0-23.17,0.31-38.75,0.92c-32.22,1.27-65.07,2.31-97.62,3.07l-97.63,2.31l69.05-69.05
			C307.55,371.6,332.65,355.74,364.4,342.82z"/>
	</g>
	<g>
		<g>
			<defs>
				<path id="SVGID_1_" d="M364.4,342.82c10.13-4.12,20.92-7.95,32.43-11.49c31.33-9.63,54.67-28.73,71.35-58.36
					c19.27-34.26,20.79-70.59,4.64-111.07c-17.26-43.25-42.52-73.32-77.11-91.85c-28.97-15.39-58.89-22.87-91.45-22.87
					c-10.08,0-20.52,0.75-31.02,2.23c-43.98,6.19-80.28,24.65-110.87,56.29c-4.82,5.04-15.34,18.52-31.6,52.21
					c-5.78,11.96-7.73,19.21-8.39,22.89c2.97,2.8,6.04,4.77,9.29,5.99c8.84,3.33,18.59,6.09,29.14,8.24
					c15.81,3.3,32.12,5.08,48.5,5.29l1.3,0.01c2.23,0,4.11-0.08,5.66-0.2c4.88-26.56,22.53-45.32,48.95-51.2
					c7.62-1.7,15.24-2.55,22.64-2.55c12.44,0,24.49,2.39,35.82,7.11c23.01,9.59,37.91,27.19,41.96,49.59
					c3.73,20.69-2.57,49.57-53.68,69.65c-24.38,9.66-47.25,20.41-68.46,32.15c31.58,10.67,62.38,24.05,94.67,32.4
					C346.85,339.52,355.6,341.36,364.4,342.82z"/>
			</defs>
			<clipPath id="SVGID_2_">
				<use xlink:href="#SVGID_1_"  style="overflow:visible;"/>
			</clipPath>
			<path class="st4" d="M122.39,342.82h366.59H122.39z"/>
			<rect x="122.39" y="341.14" class="st4" width="366.59" height="1.68"/>
			<rect x="122.39" y="339.46" class="st4" width="366.59" height="1.68"/>
			<rect x="122.39" y="337.79" class="st4" width="366.59" height="1.68"/>
			<rect x="122.39" y="336.11" class="st5" width="366.59" height="1.68"/>
			<rect x="122.39" y="334.43" class="st6" width="366.59" height="1.68"/>
			<rect x="122.39" y="332.76" class="st7" width="366.59" height="1.68"/>
			<rect x="122.39" y="331.08" class="st7" width="366.59" height="1.68"/>
			<rect x="122.39" y="329.4" class="st8" width="366.59" height="1.68"/>
			<rect x="122.39" y="327.73" class="st9" width="366.59" height="1.68"/>
			<rect x="122.39" y="326.05" class="st10" width="366.59" height="1.68"/>
			<rect x="122.39" y="324.37" class="st11" width="366.59" height="1.68"/>
			<rect x="122.39" y="322.7" class="st11" width="366.59" height="1.68"/>
			<rect x="122.39" y="321.02" class="st12" width="366.59" height="1.68"/>
			<rect x="122.39" y="319.34" class="st13" width="366.59" height="1.68"/>
			<rect x="122.39" y="317.66" class="st14" width="366.59" height="1.68"/>
			<rect x="122.39" y="315.99" class="st15" width="366.59" height="1.68"/>
			<rect x="122.39" y="314.31" class="st15" width="366.59" height="1.68"/>
			<rect x="122.39" y="312.63" class="st16" width="366.59" height="1.68"/>
			<rect x="122.39" y="310.96" class="st17" width="366.59" height="1.68"/>
			<rect x="122.39" y="309.28" class="st17" width="366.59" height="1.68"/>
			<rect x="122.39" y="307.6" class="st18" width="366.59" height="1.68"/>
			<rect x="122.39" y="305.93" class="st19" width="366.59" height="1.68"/>
			<rect x="122.39" y="304.25" class="st20" width="366.59" height="1.68"/>
			<rect x="122.39" y="302.57" class="st21" width="366.59" height="1.68"/>
			<rect x="122.39" y="300.9" class="st22" width="366.59" height="1.68"/>
			<rect x="122.39" y="299.22" class="st23" width="366.59" height="1.68"/>
			<rect x="122.39" y="297.54" class="st23" width="366.59" height="1.68"/>
			<rect x="122.39" y="295.86" class="st24" width="366.59" height="1.68"/>
			<rect x="122.39" y="294.19" class="st25" width="366.59" height="1.68"/>
			<rect x="122.39" y="292.51" class="st25" width="366.59" height="1.68"/>
			<rect x="122.39" y="290.83" class="st26" width="366.59" height="1.68"/>
			<rect x="122.39" y="289.16" class="st27" width="366.59" height="1.68"/>
			<rect x="122.39" y="287.48" class="st28" width="366.59" height="1.68"/>
			<rect x="122.39" y="285.8" class="st29" width="366.59" height="1.68"/>
			<rect x="122.39" y="284.13" class="st30" width="366.59" height="1.68"/>
			<rect x="122.39" y="282.45" class="st31" width="366.59" height="1.68"/>
			<rect x="122.39" y="280.77" class="st32" width="366.59" height="1.68"/>
			<rect x="122.39" y="279.1" class="st33" width="366.59" height="1.68"/>
			<rect x="122.39" y="277.42" class="st33" width="366.59" height="1.68"/>
			<rect x="122.39" y="275.74" class="st34" width="366.59" height="1.68"/>
			<rect x="122.39" y="274.07" class="st35" width="366.59" height="1.68"/>
			<rect x="122.39" y="272.39" class="st36" width="366.59" height="1.68"/>
			<rect x="122.39" y="270.71" class="st37" width="366.59" height="1.68"/>
			<rect x="122.39" y="269.03" class="st38" width="366.59" height="1.68"/>
			<rect x="122.39" y="267.36" class="st38" width="366.59" height="1.68"/>
			<rect x="122.39" y="265.68" class="st39" width="366.59" height="1.68"/>
			<rect x="122.39" y="264" class="st40" width="366.59" height="1.68"/>
			<rect x="122.39" y="262.33" class="st41" width="366.59" height="1.68"/>
			<rect x="122.39" y="260.65" class="st42" width="366.59" height="1.68"/>
			<rect x="122.39" y="258.97" class="st43" width="366.59" height="1.68"/>
			<rect x="122.39" y="257.3" class="st44" width="366.59" height="1.68"/>
			<rect x="122.39" y="255.62" class="st45" width="366.59" height="1.68"/>
			<rect x="122.39" y="253.94" class="st46" width="366.59" height="1.68"/>
			<rect x="122.39" y="252.27" class="st47" width="366.59" height="1.68"/>
			<rect x="122.39" y="250.59" class="st48" width="366.59" height="1.68"/>
			<rect x="122.39" y="248.91" class="st49" width="366.59" height="1.68"/>
			<rect x="122.39" y="247.23" class="st50" width="366.59" height="1.68"/>
			<rect x="122.39" y="245.56" class="st51" width="366.59" height="1.68"/>
			<rect x="122.39" y="243.88" class="st52" width="366.59" height="1.68"/>
			<rect x="122.39" y="242.2" class="st52" width="366.59" height="1.68"/>
			<rect x="122.39" y="240.53" class="st53" width="366.59" height="1.68"/>
			<rect x="122.39" y="238.85" class="st54" width="366.59" height="1.68"/>
			<rect x="122.39" y="237.17" class="st55" width="366.59" height="1.68"/>
			<rect x="122.39" y="235.5" class="st56" width="366.59" height="1.68"/>
			<rect x="122.39" y="233.82" class="st57" width="366.59" height="1.68"/>
			<rect x="122.39" y="232.14" class="st58" width="366.59" height="1.68"/>
			<rect x="122.39" y="230.47" class="st58" width="366.59" height="1.68"/>
			<rect x="122.39" y="228.79" class="st59" width="366.59" height="1.68"/>
			<rect x="122.39" y="227.11" class="st60" width="366.59" height="1.68"/>
			<rect x="122.39" y="225.43" class="st61" width="366.59" height="1.68"/>
			<rect x="122.39" y="223.76" class="st62" width="366.59" height="1.68"/>
			<rect x="122.39" y="222.08" class="st63" width="366.59" height="1.68"/>
			<rect x="122.39" y="220.4" class="st64" width="366.59" height="1.68"/>
			<rect x="122.39" y="218.73" class="st65" width="366.59" height="1.68"/>
			<rect x="122.39" y="217.05" class="st66" width="366.59" height="1.68"/>
			<rect x="122.39" y="215.37" class="st67" width="366.59" height="1.68"/>
			<rect x="122.39" y="213.7" class="st68" width="366.59" height="1.68"/>
			<rect x="122.39" y="212.02" class="st69" width="366.59" height="1.68"/>
			<rect x="122.39" y="210.34" class="st70" width="366.59" height="1.68"/>
			<rect x="122.39" y="208.67" class="st70" width="366.59" height="1.68"/>
			<rect x="122.39" y="206.99" class="st71" width="366.59" height="1.68"/>
			<rect x="122.39" y="205.31" class="st72" width="366.59" height="1.68"/>
			<rect x="122.39" y="203.63" class="st73" width="366.59" height="1.68"/>
			<rect x="122.39" y="201.96" class="st74" width="366.59" height="1.68"/>
			<rect x="122.39" y="200.28" class="st75" width="366.59" height="1.68"/>
			<rect x="122.39" y="198.6" class="st76" width="366.59" height="1.68"/>
			<rect x="122.39" y="196.93" class="st77" width="366.59" height="1.68"/>
			<rect x="122.39" y="195.25" class="st78" width="366.59" height="1.68"/>
			<rect x="122.39" y="193.57" class="st79" width="366.59" height="1.68"/>
			<rect x="122.39" y="191.9" class="st80" width="366.59" height="1.68"/>
			<rect x="122.39" y="190.22" class="st80" width="366.59" height="1.68"/>
			<rect x="122.39" y="188.54" class="st81" width="366.59" height="1.68"/>
			<rect x="122.39" y="186.87" class="st82" width="366.59" height="1.68"/>
			<rect x="122.39" y="185.19" class="st83" width="366.59" height="1.68"/>
			<rect x="122.39" y="183.51" class="st84" width="366.59" height="1.68"/>
			<rect x="122.39" y="181.83" class="st85" width="366.59" height="1.68"/>
			<rect x="122.39" y="180.16" class="st86" width="366.59" height="1.68"/>
			<rect x="122.39" y="178.48" class="st87" width="366.59" height="1.68"/>
			<rect x="122.39" y="177.14" class="st87" width="366.59" height="1.34"/>
			<rect x="122.39" y="175.8" class="st86" width="366.59" height="1.34"/>
			<rect x="122.39" y="174.46" class="st85" width="366.59" height="1.34"/>
			<rect x="122.39" y="173.12" class="st84" width="366.59" height="1.34"/>
			<rect x="122.39" y="171.78" class="st83" width="366.59" height="1.34"/>
			<rect x="122.39" y="170.44" class="st82" width="366.59" height="1.34"/>
			<rect x="122.39" y="169.1" class="st81" width="366.59" height="1.34"/>
			<rect x="122.39" y="167.76" class="st80" width="366.59" height="1.34"/>
			<rect x="122.39" y="166.42" class="st80" width="366.59" height="1.34"/>
			<rect x="122.39" y="165.08" class="st79" width="366.59" height="1.34"/>
			<rect x="122.39" y="163.74" class="st78" width="366.59" height="1.34"/>
			<rect x="122.39" y="162.4" class="st77" width="366.59" height="1.34"/>
			<rect x="122.39" y="161.06" class="st76" width="366.59" height="1.34"/>
			<rect x="122.39" y="159.72" class="st75" width="366.59" height="1.34"/>
			<rect x="122.39" y="158.38" class="st74" width="366.59" height="1.34"/>
			<rect x="122.39" y="157.04" class="st73" width="366.59" height="1.34"/>
			<rect x="122.39" y="155.7" class="st72" width="366.59" height="1.34"/>
			<rect x="122.39" y="154.36" class="st71" width="366.59" height="1.34"/>
			<rect x="122.39" y="153.02" class="st70" width="366.59" height="1.34"/>
			<rect x="122.39" y="151.68" class="st70" width="366.59" height="1.34"/>
			<rect x="122.39" y="150.34" class="st69" width="366.59" height="1.34"/>
			<rect x="122.39" y="149" class="st68" width="366.59" height="1.34"/>
			<rect x="122.39" y="147.66" class="st67" width="366.59" height="1.34"/>
			<rect x="122.39" y="146.32" class="st66" width="366.59" height="1.34"/>
			<rect x="122.39" y="144.98" class="st65" width="366.59" height="1.34"/>
			<rect x="122.39" y="143.64" class="st64" width="366.59" height="1.34"/>
			<rect x="122.39" y="142.3" class="st63" width="366.59" height="1.34"/>
			<rect x="122.39" y="140.96" class="st62" width="366.59" height="1.34"/>
			<rect x="122.39" y="139.62" class="st61" width="366.59" height="1.34"/>
			<rect x="122.39" y="138.29" class="st60" width="366.59" height="1.34"/>
			<rect x="122.39" y="136.95" class="st59" width="366.59" height="1.34"/>
			<rect x="122.39" y="135.61" class="st58" width="366.59" height="1.34"/>
			<rect x="122.39" y="134.27" class="st58" width="366.59" height="1.34"/>
			<rect x="122.39" y="132.93" class="st57" width="366.59" height="1.34"/>
			<rect x="122.39" y="131.59" class="st56" width="366.59" height="1.34"/>
			<rect x="122.39" y="130.25" class="st55" width="366.59" height="1.34"/>
			<rect x="122.39" y="128.91" class="st54" width="366.59" height="1.34"/>
			<rect x="122.39" y="127.57" class="st53" width="366.59" height="1.34"/>
			<rect x="122.39" y="126.23" class="st52" width="366.59" height="1.34"/>
			<rect x="122.39" y="124.89" class="st52" width="366.59" height="1.34"/>
			<rect x="122.39" y="123.55" class="st51" width="366.59" height="1.34"/>
			<rect x="122.39" y="122.21" class="st50" width="366.59" height="1.34"/>
			<rect x="122.39" y="120.87" class="st49" width="366.59" height="1.34"/>
			<rect x="122.39" y="119.53" class="st48" width="366.59" height="1.34"/>
			<rect x="122.39" y="118.19" class="st47" width="366.59" height="1.34"/>
			<rect x="122.39" y="116.85" class="st46" width="366.59" height="1.34"/>
			<rect x="122.39" y="115.51" class="st45" width="366.59" height="1.34"/>
			<rect x="122.39" y="114.17" class="st44" width="366.59" height="1.34"/>
			<rect x="122.39" y="112.83" class="st43" width="366.59" height="1.34"/>
			<rect x="122.39" y="111.49" class="st42" width="366.59" height="1.34"/>
			<rect x="122.39" y="110.15" class="st41" width="366.59" height="1.34"/>
			<rect x="122.39" y="108.81" class="st40" width="366.59" height="1.34"/>
			<rect x="122.39" y="107.47" class="st39" width="366.59" height="1.34"/>
			<rect x="122.39" y="106.13" class="st38" width="366.59" height="1.34"/>
			<rect x="122.39" y="104.79" class="st38" width="366.59" height="1.34"/>
			<rect x="122.39" y="103.45" class="st37" width="366.59" height="1.34"/>
			<rect x="122.39" y="102.11" class="st36" width="366.59" height="1.34"/>
			<rect x="122.39" y="100.77" class="st35" width="366.59" height="1.34"/>
			<rect x="122.39" y="99.43" class="st34" width="366.59" height="1.34"/>
			<rect x="122.39" y="98.09" class="st33" width="366.59" height="1.34"/>
			<rect x="122.39" y="96.75" class="st33" width="366.59" height="1.34"/>
			<rect x="122.39" y="95.41" class="st32" width="366.59" height="1.34"/>
			<rect x="122.39" y="94.07" class="st31" width="366.59" height="1.34"/>
			<rect x="122.39" y="92.73" class="st30" width="366.59" height="1.34"/>
			<rect x="122.39" y="91.39" class="st29" width="366.59" height="1.34"/>
			<rect x="122.39" y="90.05" class="st28" width="366.59" height="1.34"/>
			<rect x="122.39" y="88.71" class="st27" width="366.59" height="1.34"/>
			<rect x="122.39" y="87.37" class="st26" width="366.59" height="1.34"/>
			<rect x="122.39" y="86.03" class="st25" width="366.59" height="1.34"/>
			<rect x="122.39" y="84.69" class="st25" width="366.59" height="1.34"/>
			<rect x="122.39" y="83.35" class="st24" width="366.59" height="1.34"/>
			<rect x="122.39" y="82.01" class="st23" width="366.59" height="1.34"/>
			<rect x="122.39" y="80.67" class="st23" width="366.59" height="1.34"/>
			<rect x="122.39" y="79.33" class="st22" width="366.59" height="1.34"/>
			<rect x="122.39" y="77.99" class="st21" width="366.59" height="1.34"/>
			<rect x="122.39" y="76.65" class="st20" width="366.59" height="1.34"/>
			<rect x="122.39" y="75.31" class="st19" width="366.59" height="1.34"/>
			<rect x="122.39" y="73.97" class="st18" width="366.59" height="1.34"/>
			<rect x="122.39" y="72.63" class="st17" width="366.59" height="1.34"/>
			<rect x="122.39" y="71.29" class="st17" width="366.59" height="1.34"/>
			<rect x="122.39" y="69.95" class="st16" width="366.59" height="1.34"/>
			<rect x="122.39" y="68.61" class="st15" width="366.59" height="1.34"/>
			<rect x="122.39" y="67.27" class="st15" width="366.59" height="1.34"/>
			<rect x="122.39" y="65.93" class="st14" width="366.59" height="1.34"/>
			<rect x="122.39" y="64.59" class="st13" width="366.59" height="1.34"/>
			<rect x="122.39" y="63.25" class="st12" width="366.59" height="1.34"/>
			<rect x="122.39" y="61.91" class="st11" width="366.59" height="1.34"/>
			<rect x="122.39" y="60.57" class="st11" width="366.59" height="1.34"/>
			<rect x="122.39" y="59.23" class="st10" width="366.59" height="1.34"/>
			<rect x="122.39" y="57.89" class="st9" width="366.59" height="1.34"/>
			<rect x="122.39" y="56.55" class="st8" width="366.59" height="1.34"/>
			<rect x="122.39" y="55.21" class="st7" width="366.59" height="1.34"/>
			<rect x="122.39" y="53.87" class="st7" width="366.59" height="1.34"/>
			<rect x="122.39" y="52.53" class="st6" width="366.59" height="1.34"/>
			<rect x="122.39" y="51.19" class="st5" width="366.59" height="1.34"/>
			<rect x="122.39" y="49.86" class="st4" width="366.59" height="1.34"/>
			<rect x="122.39" y="48.52" class="st4" width="366.59" height="1.34"/>
			<rect x="122.39" y="47.18" class="st4" width="366.59" height="1.34"/>
			<path class="st4" d="M488.98,47.18H122.39H488.98z"/>
		</g>
	</g>
	<g class="st88">
		<path class="st3" d="M439.76,532.24L439.76,532.24c-8.48-1.45-14.23-9.57-12.78-18.05l0,0c1.45-8.48,9.57-14.23,18.05-12.78l0,0
			c8.48,1.45,14.23,9.57,12.78,18.05l0,0C456.37,527.94,448.24,533.69,439.76,532.24z"/>
	</g>
	<g class="st88">
		<path class="st3" d="M454.72,491.16L454.72,491.16c-4.24-0.72-7.12-4.79-6.39-9.03l0,0c0.72-4.24,4.79-7.12,9.03-6.39l0,0
			c4.24,0.72,7.12,4.79,6.39,9.03l0,0C463.02,489.01,458.96,491.88,454.72,491.16z"/>
	</g>
</g>
</svg>
