<?xml version="1.0" encoding="utf-8"?>
<!-- Generator: Adobe Illustrator 24.1.0, SVG Export Plug-In . SVG Version: 6.00 Build 0)  -->
<svg version="1.1" id="Layer_1" xmlns="http://www.w3.org/2000/svg" xmlns:xlink="http://www.w3.org/1999/xlink" x="0px" y="0px"
	 viewBox="0 0 957.53 600" style="enable-background:new 0 0 957.53 600;" xml:space="preserve">
<style type="text/css">
	.st0{fill:#F7DE03;}
	.st1{fill:#E3A925;}
	.st2{clip-path:url(#SVGID_2_);fill:#FFFFFF;}
	.st3{clip-path:url(#SVGID_2_);fill:#FFFFFD;}
	.st4{clip-path:url(#SVGID_2_);fill:#FFFFFC;}
	.st5{clip-path:url(#SVGID_2_);fill:#FFFFFA;}
	.st6{clip-path:url(#SVGID_2_);fill:#FFFEF9;}
	.st7{clip-path:url(#SVGID_2_);fill:#FFFEF8;}
	.st8{clip-path:url(#SVGID_2_);fill:#FFFEF6;}
	.st9{clip-path:url(#SVGID_2_);fill:#FFFEF5;}
	.st10{clip-path:url(#SVGID_2_);fill:#FFFEF4;}
	.st11{clip-path:url(#SVGID_2_);fill:#FFFEF3;}
	.st12{clip-path:url(#SVGID_2_);fill:#FFFEF2;}
	.st13{clip-path:url(#SVGID_2_);fill:#FFFEF1;}
	.st14{clip-path:url(#SVGID_2_);fill:#FFFEEF;}
	.st15{clip-path:url(#SVGID_2_);fill:#FEFDEE;}
	.st16{clip-path:url(#SVGID_2_);fill:#FEFDED;}
	.st17{clip-path:url(#SVGID_2_);fill:#FEFDEB;}
	.st18{clip-path:url(#SVGID_2_);fill:#FFFDEA;}
	.st19{clip-path:url(#SVGID_2_);fill:#FFFCEA;}
	.st20{clip-path:url(#SVGID_2_);fill:#FDFCE8;}
	.st21{clip-path:url(#SVGID_2_);fill:#FDFCE7;}
	.st22{clip-path:url(#SVGID_2_);fill:#FDFBE5;}
	.st23{clip-path:url(#SVGID_2_);fill:#FDFBE4;}
	.st24{clip-path:url(#SVGID_2_);fill:#FDFBE2;}
	.st25{clip-path:url(#SVGID_2_);fill:#FDFBE1;}
	.st26{clip-path:url(#SVGID_2_);fill:#FDFBE0;}
	.st27{clip-path:url(#SVGID_2_);fill:#FEFBDF;}
	.st28{clip-path:url(#SVGID_2_);fill:#FEFBDE;}
	.st29{clip-path:url(#SVGID_2_);fill:#FEFBDD;}
	.st30{clip-path:url(#SVGID_2_);fill:#FEFBDC;}
	.st31{clip-path:url(#SVGID_2_);fill:#FCFADB;}
	.st32{clip-path:url(#SVGID_2_);fill:#FCFADA;}
	.st33{clip-path:url(#SVGID_2_);fill:#FCFAD9;}
	.st34{clip-path:url(#SVGID_2_);fill:#FCFAD8;}
	.st35{clip-path:url(#SVGID_2_);fill:#FDFAD7;}
	.st36{clip-path:url(#SVGID_2_);fill:#FDFAD5;}
	.st37{clip-path:url(#SVGID_2_);fill:#FDFAD4;}
	.st38{clip-path:url(#SVGID_2_);fill:#FDF9D2;}
	.st39{clip-path:url(#SVGID_2_);fill:#FCF9D2;}
	.st40{clip-path:url(#SVGID_2_);fill:#FCF9D1;}
	.st41{clip-path:url(#SVGID_2_);fill:#FCF9CF;}
	.st42{clip-path:url(#SVGID_2_);fill:#FCF9CE;}
	.st43{clip-path:url(#SVGID_2_);fill:#FCF8CD;}
	.st44{clip-path:url(#SVGID_2_);fill:#FCF8CC;}
	.st45{clip-path:url(#SVGID_2_);fill:#FCF8CB;}
	.st46{clip-path:url(#SVGID_2_);fill:#FCF8CA;}
	.st47{clip-path:url(#SVGID_2_);fill:#FCF8C9;}
	.st48{clip-path:url(#SVGID_2_);fill:#FCF8C8;}
	.st49{clip-path:url(#SVGID_2_);fill:#FCF8C7;}
	.st50{clip-path:url(#SVGID_2_);fill:#FCF8C6;}
	.st51{clip-path:url(#SVGID_2_);fill:#FCF8C5;}
	.st52{clip-path:url(#SVGID_2_);fill:#FCF8C3;}
	.st53{clip-path:url(#SVGID_2_);fill:#FDF8C2;}
	.st54{clip-path:url(#SVGID_2_);fill:#FDF8C1;}
	.st55{clip-path:url(#SVGID_2_);fill:#FDF8C0;}
	.st56{clip-path:url(#SVGID_2_);fill:#FBF7BF;}
	.st57{clip-path:url(#SVGID_2_);fill:#FCF7BE;}
	.st58{clip-path:url(#SVGID_2_);fill:#FCF7BD;}
	.st59{clip-path:url(#SVGID_2_);fill:#FCF7BC;}
	.st60{clip-path:url(#SVGID_2_);fill:#FCF7BB;}
	.st61{clip-path:url(#SVGID_2_);fill:#FCF7BA;}
	.st62{clip-path:url(#SVGID_2_);fill:#FCF7B9;}
	.st63{clip-path:url(#SVGID_2_);fill:#FCF6B7;}
	.st64{clip-path:url(#SVGID_2_);fill:#FCF6B6;}
	.st65{clip-path:url(#SVGID_2_);fill:#FCF6B5;}
	.st66{clip-path:url(#SVGID_2_);fill:#FCF6B4;}
	.st67{clip-path:url(#SVGID_2_);fill:#FCF6B3;}
	.st68{clip-path:url(#SVGID_2_);fill:#FBF6B2;}
	.st69{clip-path:url(#SVGID_2_);fill:#FBF6B1;}
	.st70{clip-path:url(#SVGID_2_);fill:#FBF5B0;}
	.st71{clip-path:url(#SVGID_2_);fill:#FBF5AF;}
	.st72{clip-path:url(#SVGID_2_);fill:#FBF5AE;}
	.st73{clip-path:url(#SVGID_2_);fill:#FBF5AD;}
	.st74{clip-path:url(#SVGID_2_);fill:#FBF5AC;}
	.st75{clip-path:url(#SVGID_2_);fill:#FBF5AB;}
	.st76{clip-path:url(#SVGID_2_);fill:#FBF5AA;}
	.st77{clip-path:url(#SVGID_2_);fill:#FBF5A9;}
	.st78{clip-path:url(#SVGID_2_);fill:#FCF5A8;}
	.st79{clip-path:url(#SVGID_2_);fill:#FCF5A7;}
	.st80{clip-path:url(#SVGID_2_);fill:#FCF5A6;}
	.st81{clip-path:url(#SVGID_2_);fill:#FCF5A4;}
	.st82{clip-path:url(#SVGID_2_);fill:#FBF4A4;}
	.st83{clip-path:url(#SVGID_2_);fill:#FBF4A2;}
	.st84{clip-path:url(#SVGID_2_);fill:#FBF4A1;}
	.st85{clip-path:url(#SVGID_2_);fill:#FBF4A0;}
	.st86{opacity:0.2;}
	.st87{fill:#FFFFFF;}
	.st88{opacity:0.6;}
	.st89{fill:none;}
	.st90{clip-path:url(#SVGID_4_);fill:#FFFFFF;}
	.st91{clip-path:url(#SVGID_4_);fill:#FFFFFD;}
	.st92{clip-path:url(#SVGID_4_);fill:#FFFFFC;}
	.st93{clip-path:url(#SVGID_4_);fill:#FFFFFA;}
	.st94{clip-path:url(#SVGID_4_);fill:#FFFEF9;}
	.st95{clip-path:url(#SVGID_4_);fill:#FFFEF8;}
	.st96{clip-path:url(#SVGID_4_);fill:#FFFEF6;}
	.st97{clip-path:url(#SVGID_4_);fill:#FFFEF5;}
	.st98{clip-path:url(#SVGID_4_);fill:#FFFEF4;}
	.st99{clip-path:url(#SVGID_4_);fill:#FFFEF3;}
	.st100{clip-path:url(#SVGID_4_);fill:#FFFEF2;}
	.st101{clip-path:url(#SVGID_4_);fill:#FFFEF1;}
	.st102{clip-path:url(#SVGID_4_);fill:#FFFEEF;}
	.st103{clip-path:url(#SVGID_4_);fill:#FEFDEE;}
	.st104{clip-path:url(#SVGID_4_);fill:#FEFDED;}
	.st105{clip-path:url(#SVGID_4_);fill:#FEFDEB;}
	.st106{clip-path:url(#SVGID_4_);fill:#FFFDEA;}
	.st107{clip-path:url(#SVGID_4_);fill:#FFFCEA;}
	.st108{clip-path:url(#SVGID_4_);fill:#FDFCE8;}
	.st109{clip-path:url(#SVGID_4_);fill:#FDFCE7;}
	.st110{clip-path:url(#SVGID_4_);fill:#FDFBE5;}
	.st111{clip-path:url(#SVGID_4_);fill:#FDFBE4;}
	.st112{clip-path:url(#SVGID_4_);fill:#FDFBE2;}
	.st113{clip-path:url(#SVGID_4_);fill:#FDFBE1;}
	.st114{clip-path:url(#SVGID_4_);fill:#FDFBE0;}
	.st115{clip-path:url(#SVGID_4_);fill:#FEFBDF;}
	.st116{clip-path:url(#SVGID_4_);fill:#FEFBDE;}
	.st117{clip-path:url(#SVGID_4_);fill:#FEFBDD;}
	.st118{clip-path:url(#SVGID_4_);fill:#FEFBDC;}
	.st119{clip-path:url(#SVGID_4_);fill:#FCFADB;}
	.st120{clip-path:url(#SVGID_4_);fill:#FCFADA;}
	.st121{clip-path:url(#SVGID_4_);fill:#FCFAD9;}
	.st122{clip-path:url(#SVGID_4_);fill:#FCFAD8;}
	.st123{clip-path:url(#SVGID_4_);fill:#FDFAD7;}
	.st124{clip-path:url(#SVGID_4_);fill:#FDFAD5;}
	.st125{clip-path:url(#SVGID_4_);fill:#FDFAD4;}
	.st126{clip-path:url(#SVGID_4_);fill:#FDF9D2;}
	.st127{clip-path:url(#SVGID_4_);fill:#FCF9D2;}
	.st128{clip-path:url(#SVGID_4_);fill:#FCF9D1;}
	.st129{clip-path:url(#SVGID_4_);fill:#FCF9CF;}
	.st130{clip-path:url(#SVGID_4_);fill:#FCF9CE;}
	.st131{clip-path:url(#SVGID_4_);fill:#FCF8CD;}
	.st132{clip-path:url(#SVGID_4_);fill:#FCF8CC;}
	.st133{clip-path:url(#SVGID_4_);fill:#FCF8CB;}
	.st134{clip-path:url(#SVGID_4_);fill:#FCF8CA;}
	.st135{clip-path:url(#SVGID_4_);fill:#FCF8C9;}
	.st136{clip-path:url(#SVGID_4_);fill:#FCF8C8;}
	.st137{clip-path:url(#SVGID_4_);fill:#FCF8C7;}
	.st138{clip-path:url(#SVGID_4_);fill:#FCF8C6;}
	.st139{clip-path:url(#SVGID_4_);fill:#FCF8C5;}
	.st140{clip-path:url(#SVGID_4_);fill:#FCF8C3;}
	.st141{clip-path:url(#SVGID_4_);fill:#FDF8C2;}
	.st142{clip-path:url(#SVGID_4_);fill:#FDF8C1;}
	.st143{clip-path:url(#SVGID_4_);fill:#FDF8C0;}
	.st144{clip-path:url(#SVGID_4_);fill:#FBF7BF;}
	.st145{clip-path:url(#SVGID_4_);fill:#FCF7BE;}
	.st146{clip-path:url(#SVGID_4_);fill:#FCF7BD;}
	.st147{clip-path:url(#SVGID_4_);fill:#FCF7BC;}
	.st148{clip-path:url(#SVGID_4_);fill:#FCF7BB;}
	.st149{clip-path:url(#SVGID_4_);fill:#FCF7BA;}
	.st150{clip-path:url(#SVGID_4_);fill:#FCF7B9;}
	.st151{clip-path:url(#SVGID_4_);fill:#FCF6B7;}
	.st152{clip-path:url(#SVGID_4_);fill:#FCF6B6;}
	.st153{clip-path:url(#SVGID_4_);fill:#FCF6B5;}
	.st154{clip-path:url(#SVGID_4_);fill:#FCF6B4;}
	.st155{clip-path:url(#SVGID_4_);fill:#FCF6B3;}
	.st156{clip-path:url(#SVGID_4_);fill:#FBF6B2;}
	.st157{clip-path:url(#SVGID_4_);fill:#FBF6B1;}
	.st158{clip-path:url(#SVGID_4_);fill:#FBF5B0;}
	.st159{clip-path:url(#SVGID_4_);fill:#FBF5AF;}
	.st160{clip-path:url(#SVGID_4_);fill:#FBF5AE;}
	.st161{clip-path:url(#SVGID_4_);fill:#FBF5AD;}
	.st162{clip-path:url(#SVGID_4_);fill:#FBF5AC;}
	.st163{clip-path:url(#SVGID_4_);fill:#FBF5AB;}
	.st164{clip-path:url(#SVGID_4_);fill:#FBF5AA;}
	.st165{clip-path:url(#SVGID_4_);fill:#FBF5A9;}
	.st166{clip-path:url(#SVGID_4_);fill:#FCF5A8;}
	.st167{clip-path:url(#SVGID_4_);fill:#FCF5A7;}
	.st168{clip-path:url(#SVGID_4_);fill:#FCF5A6;}
	.st169{clip-path:url(#SVGID_4_);fill:#FCF5A4;}
	.st170{clip-path:url(#SVGID_4_);fill:#FBF4A4;}
	.st171{clip-path:url(#SVGID_4_);fill:#FBF4A2;}
	.st172{clip-path:url(#SVGID_4_);fill:#FBF4A1;}
	.st173{clip-path:url(#SVGID_4_);fill:#FBF4A0;}
</style>
<g>
	<g>
		<g>
			<path class="st0" d="M408.99,573.28c-5.33,10.16-31.88,16.19-79.63,18.1c-47.76,1.91-81.53-1.33-101.35-9.72
				c-9.66-4.06-15.37-38.16-17.15-102.3c-1.78-64.13-3.94-130.11-6.48-197.93c-16.51,6.86-33.21,13.21-50.1,19.05
				c-16.9,5.84-27.5,8.38-31.81,7.62c-11.43,0.26-27.37-17.91-47.82-54.48c-20.45-36.58-31.56-65.78-33.34-87.63
				c-0.76-9.91,13.91-26.99,44.01-51.24c30.1-24.25,72.58-53.4,127.44-87.44c9.91-6.35,26.61-11.3,50.1-14.86
				c23.49-3.55,47.43-4.95,71.82-4.19c24.38,0.76,46.16,4.19,65.34,10.29c19.18,6.1,29.53,15.62,31.05,28.57
				c3.81,36.58,5.96,83.12,6.48,139.64c0.51,56.52-0.38,112.14-2.67,166.88c-2.29,54.74-5.72,103.13-10.29,145.16
				C420.04,540.84,414.83,565.66,408.99,573.28z"/>
			<path class="st1" d="M304.01,600c-35.87,0-61.89-3.6-79.14-10.91c-9.3-3.9-19.48-15.92-22.08-109.5
				c-1.67-60.17-3.7-122.79-6.05-186.32c-13.1,5.25-26.46,10.24-39.81,14.86c-22.59,7.81-30.62,8.63-35.05,8.05
				c-15.03-0.29-31.81-18.44-54.28-58.62c-21.21-37.94-32.44-67.68-34.33-90.91c-0.68-8.94,4.05-23.58,46.99-58.19
				c30.18-24.34,73.34-53.95,128.26-88.02c10.88-6.97,28.3-12.23,53.14-15.99c23.89-3.61,48.55-4.97,73.29-4.28
				c25.04,0.8,47.76,4.38,67.54,10.67c22.38,7.12,34.7,19.01,36.63,35.33c3.81,36.77,6.01,84.02,6.53,140.51
				c0.5,56.31-0.4,112.59-2.69,167.29c-2.28,54.78-5.76,103.8-10.33,145.69c-6.11,56.27-12.16,71.53-16.83,77.99
				c-5.07,8.87-20.06,19.16-86.12,21.79C320.62,599.81,312.06,600,304.01,600z M204.39,273.35c1.53,0,3.04,0.43,4.35,1.27
				c2.23,1.43,3.62,3.86,3.72,6.5c2.52,67.53,4.7,134.15,6.48,198.01c2.3,82.94,10.86,93.91,12.55,95.26
				c18.3,7.69,51.26,10.69,97.53,8.91c63.74-2.55,71.84-11.94,72.81-13.8c0.21-0.4,0.47-0.8,0.74-1.16
				c2.22-2.89,8.03-15.54,14-70.43c4.52-41.54,7.98-90.2,10.25-144.63c2.27-54.42,3.17-110.42,2.66-166.45
				c-0.52-55.99-2.68-102.72-6.44-138.89c-0.4-3.41-1.67-14.15-25.46-21.71c-18.35-5.83-39.61-9.16-63.15-9.91
				c-23.79-0.81-47.45,0.63-70.36,4.1c-22.24,3.37-38.04,7.98-46.96,13.68c-54.45,33.78-97.06,63-126.72,86.92
				c-40.67,32.78-41.11,43.26-41.04,44.34c1.68,20.55,12.56,48.93,32.34,84.31c26.97,48.27,38.7,50.43,40.58,50.34
				c0.57-0.01,1.06,0.03,1.59,0.13c0.85,0.14,5.97,0.25,27.77-7.3c16.71-5.78,33.41-12.13,49.63-18.88
				C202.28,273.55,203.34,273.35,204.39,273.35z"/>
		</g>
		<g>
			<g>
				<defs>
					<path id="SVGID_1_" d="M398.55,187.11c-0.47-51.83-2.37-95.4-5.64-129.64c-1.15-0.51-2.69-1.11-4.69-1.74
						c-15.66-4.98-34.08-7.83-54.74-8.47c-3.89-0.12-7.77-0.18-11.64-0.18c-17.91,0-35.78,1.33-53.11,3.96
						c-26.27,3.98-34.09,8.61-34.9,9.13l-0.48,0.3c-53.25,33.04-94.82,61.53-123.53,84.67c-16.33,13.16-24.45,21.42-28.32,25.88
						c2.53,11.64,9.38,31.66,27.23,63.58c10.06,18.01,17.05,27.74,21.22,32.78c2.87-0.85,6.66-2.05,11.61-3.76
						c16.03-5.54,32.14-11.67,47.89-18.21l51.85-21.53l2.1,56.11c0.46,12.28,0.9,24.5,1.34,36.69
						c45.05,5.15,88.54,21.27,132.7,32.51c6.08,1.55,12.23,2.99,18.44,4.3c0.02-0.49,0.05-0.97,0.07-1.47
						C398.16,298.21,399.05,242.73,398.55,187.11z"/>
				</defs>
				<clipPath id="SVGID_2_">
					<use xlink:href="#SVGID_1_"  style="overflow:visible;"/>
				</clipPath>
				<path class="st2" d="M81.49,353.47h317.56H81.49z"/>
				<rect x="81.49" y="351.74" class="st2" width="317.56" height="1.74"/>
				<rect x="81.49" y="350" class="st2" width="317.56" height="1.74"/>
				<rect x="81.49" y="348.26" class="st2" width="317.56" height="1.74"/>
				<rect x="81.49" y="346.52" class="st3" width="317.56" height="1.74"/>
				<rect x="81.49" y="344.78" class="st4" width="317.56" height="1.74"/>
				<rect x="81.49" y="343.05" class="st5" width="317.56" height="1.74"/>
				<rect x="81.49" y="341.31" class="st5" width="317.56" height="1.74"/>
				<rect x="81.49" y="339.57" class="st6" width="317.56" height="1.74"/>
				<rect x="81.49" y="337.83" class="st7" width="317.56" height="1.74"/>
				<rect x="81.49" y="336.09" class="st8" width="317.56" height="1.74"/>
				<rect x="81.49" y="334.36" class="st9" width="317.56" height="1.74"/>
				<rect x="81.49" y="332.62" class="st9" width="317.56" height="1.74"/>
				<rect x="81.49" y="330.88" class="st10" width="317.56" height="1.74"/>
				<rect x="81.49" y="329.14" class="st11" width="317.56" height="1.74"/>
				<rect x="81.49" y="327.41" class="st12" width="317.56" height="1.74"/>
				<rect x="81.49" y="325.67" class="st13" width="317.56" height="1.74"/>
				<rect x="81.49" y="323.93" class="st13" width="317.56" height="1.74"/>
				<rect x="81.49" y="322.19" class="st14" width="317.56" height="1.74"/>
				<rect x="81.49" y="320.45" class="st15" width="317.56" height="1.74"/>
				<rect x="81.49" y="318.72" class="st15" width="317.56" height="1.74"/>
				<rect x="81.49" y="316.98" class="st16" width="317.56" height="1.74"/>
				<rect x="81.49" y="315.24" class="st17" width="317.56" height="1.74"/>
				<rect x="81.49" y="313.5" class="st18" width="317.56" height="1.74"/>
				<rect x="81.49" y="311.76" class="st19" width="317.56" height="1.74"/>
				<rect x="81.49" y="310.03" class="st20" width="317.56" height="1.74"/>
				<rect x="81.49" y="308.29" class="st21" width="317.56" height="1.74"/>
				<rect x="81.49" y="306.55" class="st21" width="317.56" height="1.74"/>
				<rect x="81.49" y="304.81" class="st22" width="317.56" height="1.74"/>
				<rect x="81.49" y="303.07" class="st23" width="317.56" height="1.74"/>
				<rect x="81.49" y="301.34" class="st23" width="317.56" height="1.74"/>
				<rect x="81.49" y="299.6" class="st24" width="317.56" height="1.74"/>
				<rect x="81.49" y="297.86" class="st25" width="317.56" height="1.74"/>
				<rect x="81.49" y="296.12" class="st26" width="317.56" height="1.74"/>
				<rect x="81.49" y="294.38" class="st27" width="317.56" height="1.74"/>
				<rect x="81.49" y="292.65" class="st28" width="317.56" height="1.74"/>
				<rect x="81.49" y="290.91" class="st29" width="317.56" height="1.74"/>
				<rect x="81.49" y="289.17" class="st30" width="317.56" height="1.74"/>
				<rect x="81.49" y="287.43" class="st31" width="317.56" height="1.74"/>
				<rect x="81.49" y="285.69" class="st31" width="317.56" height="1.74"/>
				<rect x="81.49" y="283.96" class="st32" width="317.56" height="1.74"/>
				<rect x="81.49" y="282.22" class="st33" width="317.56" height="1.74"/>
				<rect x="81.49" y="280.48" class="st34" width="317.56" height="1.74"/>
				<rect x="81.49" y="278.74" class="st35" width="317.56" height="1.74"/>
				<rect x="81.49" y="277" class="st36" width="317.56" height="1.74"/>
				<rect x="81.49" y="275.27" class="st36" width="317.56" height="1.74"/>
				<rect x="81.49" y="273.53" class="st37" width="317.56" height="1.74"/>
				<rect x="81.49" y="271.79" class="st38" width="317.56" height="1.74"/>
				<rect x="81.49" y="270.05" class="st39" width="317.56" height="1.74"/>
				<rect x="81.49" y="268.31" class="st40" width="317.56" height="1.74"/>
				<rect x="81.49" y="266.58" class="st41" width="317.56" height="1.74"/>
				<rect x="81.49" y="264.84" class="st42" width="317.56" height="1.74"/>
				<rect x="81.49" y="263.1" class="st43" width="317.56" height="1.74"/>
				<rect x="81.49" y="261.36" class="st44" width="317.56" height="1.74"/>
				<rect x="81.49" y="259.62" class="st45" width="317.56" height="1.74"/>
				<rect x="81.49" y="257.89" class="st46" width="317.56" height="1.74"/>
				<rect x="81.49" y="256.15" class="st47" width="317.56" height="1.74"/>
				<rect x="81.49" y="254.41" class="st48" width="317.56" height="1.74"/>
				<rect x="81.49" y="252.67" class="st49" width="317.56" height="1.74"/>
				<rect x="81.49" y="250.94" class="st50" width="317.56" height="1.74"/>
				<rect x="81.49" y="249.2" class="st50" width="317.56" height="1.74"/>
				<rect x="81.49" y="247.46" class="st51" width="317.56" height="1.74"/>
				<rect x="81.49" y="245.72" class="st52" width="317.56" height="1.74"/>
				<rect x="81.49" y="243.98" class="st53" width="317.56" height="1.74"/>
				<rect x="81.49" y="242.25" class="st54" width="317.56" height="1.74"/>
				<rect x="81.49" y="240.51" class="st55" width="317.56" height="1.74"/>
				<rect x="81.49" y="238.77" class="st56" width="317.56" height="1.74"/>
				<rect x="81.49" y="237.03" class="st56" width="317.56" height="1.74"/>
				<rect x="81.49" y="235.29" class="st57" width="317.56" height="1.74"/>
				<rect x="81.49" y="233.56" class="st58" width="317.56" height="1.74"/>
				<rect x="81.49" y="231.82" class="st59" width="317.56" height="1.74"/>
				<rect x="81.49" y="230.08" class="st60" width="317.56" height="1.74"/>
				<rect x="81.49" y="228.34" class="st61" width="317.56" height="1.74"/>
				<rect x="81.49" y="226.6" class="st62" width="317.56" height="1.74"/>
				<rect x="81.49" y="224.87" class="st63" width="317.56" height="1.74"/>
				<rect x="81.49" y="223.13" class="st64" width="317.56" height="1.74"/>
				<rect x="81.49" y="221.39" class="st65" width="317.56" height="1.74"/>
				<rect x="81.49" y="219.65" class="st66" width="317.56" height="1.74"/>
				<rect x="81.49" y="217.91" class="st67" width="317.56" height="1.74"/>
				<rect x="81.49" y="216.18" class="st68" width="317.56" height="1.74"/>
				<rect x="81.49" y="214.44" class="st68" width="317.56" height="1.74"/>
				<rect x="81.49" y="212.7" class="st69" width="317.56" height="1.74"/>
				<rect x="81.49" y="210.96" class="st70" width="317.56" height="1.74"/>
				<rect x="81.49" y="209.22" class="st71" width="317.56" height="1.74"/>
				<rect x="81.49" y="207.49" class="st72" width="317.56" height="1.74"/>
				<rect x="81.49" y="205.75" class="st73" width="317.56" height="1.74"/>
				<rect x="81.49" y="204.01" class="st74" width="317.56" height="1.74"/>
				<rect x="81.49" y="202.27" class="st75" width="317.56" height="1.74"/>
				<rect x="81.49" y="200.53" class="st76" width="317.56" height="1.74"/>
				<rect x="81.49" y="198.8" class="st77" width="317.56" height="1.74"/>
				<rect x="81.49" y="197.06" class="st78" width="317.56" height="1.74"/>
				<rect x="81.49" y="195.32" class="st78" width="317.56" height="1.74"/>
				<rect x="81.49" y="193.58" class="st79" width="317.56" height="1.74"/>
				<rect x="81.49" y="191.84" class="st80" width="317.56" height="1.74"/>
				<rect x="81.49" y="190.11" class="st81" width="317.56" height="1.74"/>
				<rect x="81.49" y="188.37" class="st82" width="317.56" height="1.74"/>
				<rect x="81.49" y="186.63" class="st83" width="317.56" height="1.74"/>
				<rect x="81.49" y="184.89" class="st84" width="317.56" height="1.74"/>
				<rect x="81.49" y="183.15" class="st85" width="317.56" height="1.74"/>
				<rect x="81.49" y="181.77" class="st85" width="317.56" height="1.39"/>
				<rect x="81.49" y="180.38" class="st84" width="317.56" height="1.39"/>
				<rect x="81.49" y="178.99" class="st83" width="317.56" height="1.39"/>
				<rect x="81.49" y="177.6" class="st82" width="317.56" height="1.39"/>
				<rect x="81.49" y="176.21" class="st81" width="317.56" height="1.39"/>
				<rect x="81.49" y="174.82" class="st80" width="317.56" height="1.39"/>
				<rect x="81.49" y="173.43" class="st79" width="317.56" height="1.39"/>
				<rect x="81.49" y="172.05" class="st78" width="317.56" height="1.39"/>
				<rect x="81.49" y="170.66" class="st78" width="317.56" height="1.39"/>
				<rect x="81.49" y="169.27" class="st77" width="317.56" height="1.39"/>
				<rect x="81.49" y="167.88" class="st76" width="317.56" height="1.39"/>
				<rect x="81.49" y="166.49" class="st75" width="317.56" height="1.39"/>
				<rect x="81.49" y="165.1" class="st74" width="317.56" height="1.39"/>
				<rect x="81.49" y="163.71" class="st73" width="317.56" height="1.39"/>
				<rect x="81.49" y="162.33" class="st72" width="317.56" height="1.39"/>
				<rect x="81.49" y="160.94" class="st71" width="317.56" height="1.39"/>
				<rect x="81.49" y="159.55" class="st70" width="317.56" height="1.39"/>
				<rect x="81.49" y="158.16" class="st69" width="317.56" height="1.39"/>
				<rect x="81.49" y="156.77" class="st68" width="317.56" height="1.39"/>
				<rect x="81.49" y="155.38" class="st68" width="317.56" height="1.39"/>
				<rect x="81.49" y="153.99" class="st67" width="317.56" height="1.39"/>
				<rect x="81.49" y="152.61" class="st66" width="317.56" height="1.39"/>
				<rect x="81.49" y="151.22" class="st65" width="317.56" height="1.39"/>
				<rect x="81.49" y="149.83" class="st64" width="317.56" height="1.39"/>
				<rect x="81.49" y="148.44" class="st63" width="317.56" height="1.39"/>
				<rect x="81.49" y="147.05" class="st62" width="317.56" height="1.39"/>
				<rect x="81.49" y="145.66" class="st61" width="317.56" height="1.39"/>
				<rect x="81.49" y="144.27" class="st60" width="317.56" height="1.39"/>
				<rect x="81.49" y="142.88" class="st59" width="317.56" height="1.39"/>
				<rect x="81.49" y="141.5" class="st58" width="317.56" height="1.39"/>
				<rect x="81.49" y="140.11" class="st57" width="317.56" height="1.39"/>
				<rect x="81.49" y="138.72" class="st56" width="317.56" height="1.39"/>
				<rect x="81.49" y="137.33" class="st56" width="317.56" height="1.39"/>
				<rect x="81.49" y="135.94" class="st55" width="317.56" height="1.39"/>
				<rect x="81.49" y="134.55" class="st54" width="317.56" height="1.39"/>
				<rect x="81.49" y="133.16" class="st53" width="317.56" height="1.39"/>
				<rect x="81.49" y="131.78" class="st52" width="317.56" height="1.39"/>
				<rect x="81.49" y="130.39" class="st51" width="317.56" height="1.39"/>
				<rect x="81.49" y="129" class="st50" width="317.56" height="1.39"/>
				<rect x="81.49" y="127.61" class="st50" width="317.56" height="1.39"/>
				<rect x="81.49" y="126.22" class="st49" width="317.56" height="1.39"/>
				<rect x="81.49" y="124.83" class="st48" width="317.56" height="1.39"/>
				<rect x="81.49" y="123.44" class="st47" width="317.56" height="1.39"/>
				<rect x="81.49" y="122.06" class="st46" width="317.56" height="1.39"/>
				<rect x="81.49" y="120.67" class="st45" width="317.56" height="1.39"/>
				<rect x="81.49" y="119.28" class="st44" width="317.56" height="1.39"/>
				<rect x="81.49" y="117.89" class="st43" width="317.56" height="1.39"/>
				<rect x="81.49" y="116.5" class="st42" width="317.56" height="1.39"/>
				<rect x="81.49" y="115.11" class="st41" width="317.56" height="1.39"/>
				<rect x="81.49" y="113.72" class="st40" width="317.56" height="1.39"/>
				<rect x="81.49" y="112.34" class="st39" width="317.56" height="1.39"/>
				<rect x="81.49" y="110.95" class="st38" width="317.56" height="1.39"/>
				<rect x="81.49" y="109.56" class="st37" width="317.56" height="1.39"/>
				<rect x="81.49" y="108.17" class="st36" width="317.56" height="1.39"/>
				<rect x="81.49" y="106.78" class="st36" width="317.56" height="1.39"/>
				<rect x="81.49" y="105.39" class="st35" width="317.56" height="1.39"/>
				<rect x="81.49" y="104" class="st34" width="317.56" height="1.39"/>
				<rect x="81.49" y="102.61" class="st33" width="317.56" height="1.39"/>
				<rect x="81.49" y="101.23" class="st32" width="317.56" height="1.39"/>
				<rect x="81.49" y="99.84" class="st31" width="317.56" height="1.39"/>
				<rect x="81.49" y="98.45" class="st31" width="317.56" height="1.39"/>
				<rect x="81.49" y="97.06" class="st30" width="317.56" height="1.39"/>
				<rect x="81.49" y="95.67" class="st29" width="317.56" height="1.39"/>
				<rect x="81.49" y="94.28" class="st28" width="317.56" height="1.39"/>
				<rect x="81.49" y="92.89" class="st27" width="317.56" height="1.39"/>
				<rect x="81.49" y="91.51" class="st26" width="317.56" height="1.39"/>
				<rect x="81.49" y="90.12" class="st25" width="317.56" height="1.39"/>
				<rect x="81.49" y="88.73" class="st24" width="317.56" height="1.39"/>
				<rect x="81.49" y="87.34" class="st23" width="317.56" height="1.39"/>
				<rect x="81.49" y="85.95" class="st23" width="317.56" height="1.39"/>
				<rect x="81.49" y="84.56" class="st22" width="317.56" height="1.39"/>
				<rect x="81.49" y="83.17" class="st21" width="317.56" height="1.39"/>
				<rect x="81.49" y="81.79" class="st21" width="317.56" height="1.39"/>
				<rect x="81.49" y="80.4" class="st20" width="317.56" height="1.39"/>
				<rect x="81.49" y="79.01" class="st19" width="317.56" height="1.39"/>
				<rect x="81.49" y="77.62" class="st18" width="317.56" height="1.39"/>
				<rect x="81.49" y="76.23" class="st17" width="317.56" height="1.39"/>
				<rect x="81.49" y="74.84" class="st16" width="317.56" height="1.39"/>
				<rect x="81.49" y="73.45" class="st15" width="317.56" height="1.39"/>
				<rect x="81.49" y="72.07" class="st15" width="317.56" height="1.39"/>
				<rect x="81.49" y="70.68" class="st14" width="317.56" height="1.39"/>
				<rect x="81.49" y="69.29" class="st13" width="317.56" height="1.39"/>
				<rect x="81.49" y="67.9" class="st13" width="317.56" height="1.39"/>
				<rect x="81.49" y="66.51" class="st12" width="317.56" height="1.39"/>
				<rect x="81.49" y="65.12" class="st11" width="317.56" height="1.39"/>
				<rect x="81.49" y="63.73" class="st10" width="317.56" height="1.39"/>
				<rect x="81.49" y="62.34" class="st9" width="317.56" height="1.39"/>
				<rect x="81.49" y="60.96" class="st9" width="317.56" height="1.39"/>
				<rect x="81.49" y="59.57" class="st8" width="317.56" height="1.39"/>
				<rect x="81.49" y="58.18" class="st7" width="317.56" height="1.39"/>
				<rect x="81.49" y="56.79" class="st6" width="317.56" height="1.39"/>
				<rect x="81.49" y="55.4" class="st5" width="317.56" height="1.39"/>
				<rect x="81.49" y="54.01" class="st5" width="317.56" height="1.39"/>
				<rect x="81.49" y="52.62" class="st4" width="317.56" height="1.39"/>
				<rect x="81.49" y="51.24" class="st3" width="317.56" height="1.39"/>
				<rect x="81.49" y="49.85" class="st2" width="317.56" height="1.39"/>
				<rect x="81.49" y="48.46" class="st2" width="317.56" height="1.39"/>
				<rect x="81.49" y="47.07" class="st2" width="317.56" height="1.39"/>
				<path class="st2" d="M399.05,47.07H81.49H399.05z"/>
			</g>
		</g>
		<g class="st86">
			<path class="st87" d="M244.72,316.67c1.97,55.26,3.7,109.48,5.15,161.62c1.1,39.9,3.63,60.62,5.54,70.93
				c9.72,1.95,25.04,3.68,48.86,3.68c7.33,0,15.25-0.17,23.54-0.5c28.33-1.13,42.88-3.57,49.88-5.27c1.84-7.2,4.86-22.37,8.14-52.54
				c4.42-40.61,7.79-88.09,10.03-141.1c-6.2-1.31-12.36-2.75-18.44-4.3C333.25,337.93,289.76,321.82,244.72,316.67z"/>
		</g>
		<g class="st88">
			<path class="st87" d="M345.45,528.51L345.45,528.51c-8.46-1.45-14.2-9.55-12.75-18.01l0,0c1.45-8.46,9.55-14.2,18.01-12.75l0,0
				c8.46,1.45,14.2,9.55,12.75,18.01l0,0C362.01,524.22,353.91,529.96,345.45,528.51z"/>
		</g>
		<g class="st88">
			<path class="st87" d="M360.37,487.52L360.37,487.52c-4.23-0.72-7.1-4.78-6.38-9.01l0,0c0.72-4.23,4.78-7.1,9.01-6.38l0,0
				c4.23,0.72,7.1,4.78,6.38,9.01l0,0C368.65,485.38,364.6,488.25,360.37,487.52z"/>
		</g>
	</g>
	<g>
		<g>
			<path class="st0" d="M875.66,23.52c6.61,4.32,9.34,26.38,8.2,66.16c-1.14,39.79-4.26,68.07-9.34,84.84
				c-1.53,4.58-14.62,7.82-39.28,9.72c-24.66,1.91-51.1,3.12-79.32,3.62c33.56,3.05,69.15,23.2,106.77,60.44
				c37.62,37.24,55.42,81.79,53.39,133.65c0.76,56.69-18.11,103.79-56.63,141.28c-38.51,37.5-83.32,59.68-134.42,66.54
				c-55.17,7.12-107.09-3.37-155.77-31.46c-48.68-28.09-79-70.1-90.95-126.03c-4.58-22.12,5.85-39.66,31.27-52.62
				c17.29-8.9,46.71-14.43,88.28-16.59c41.56-2.16,64.5,7.18,68.83,28.03c0.25,1.78,0.89,3.56,1.91,5.34
				c2.8,7.37,7.88,12.33,15.25,14.87c11.95,4.83,21.6,3.62,28.98-3.62c7.37-7.25,10.87-16.08,10.49-26.5
				c-0.38-10.42-5.47-20.34-15.25-29.74c-9.79-9.4-25.74-14.11-47.86-14.11c-15.25,0.76-32.54,0.51-51.86-0.76
				c-30.51-1.52-50.47-7.18-59.87-16.97c-9.41-9.78-16.02-23.83-19.83-42.14c-8.65-40.67-13.92-90.24-15.83-148.72
				c-1.91-58.47,3.49-93.81,16.21-106.01c4.58-4.58,24.15-8.13,58.72-10.68c34.57-2.54,72.2-3.87,112.87-4
				c40.67-0.13,78.55,1.08,113.64,3.62C849.35,14.24,869.81,18.18,875.66,23.52z"/>
			<path class="st1" d="M692.21,600c-44.45,0-87.03-11.6-126.97-34.68c-50.52-29.14-82.42-73.32-94.82-131.33
				c-3.71-17.94-0.54-43.12,35.5-61.5c18.46-9.51,48.41-15.22,91.54-17.46c46.09-2.36,71.92,9.22,77.16,34.45
				c0.19,1.25,0.5,2.08,1.02,2.99c2.47,6.26,5.76,9.47,10.84,11.22c11.9,4.81,17.31,1.58,20.69-1.74
				c5.73-5.64,8.38-12.33,8.08-20.46c-0.29-8.29-4.48-16.22-12.78-24.21c-8.19-7.85-22.41-11.84-42.25-11.84
				c-15.12,0.74-32.89,0.5-52.39-0.78c-32.82-1.63-54.18-7.99-65.18-19.44c-10.41-10.83-17.79-26.35-21.9-46.09
				c-8.7-40.9-14.08-91.41-15.99-150.09c-2.03-62.3,3.91-97.93,18.7-112.1c4.53-4.54,15.5-9.37,63.73-12.9
				c34.65-2.55,72.82-3.9,113.44-4.03c40.49,0.04,79.07,1.11,114.24,3.65c47.47,3.43,60.19,8.7,65.8,13.5
				c6.88,4.94,12.86,17.83,11.3,72.77c-1.19,40.88-4.36,69.32-9.68,86.96c-2.54,7.6-11.15,12.71-46.41,15.44
				c-10.18,0.78-20.72,1.46-31.55,2.01c20.86,10.55,42.27,26.67,64.07,48.26c39.13,38.73,57.89,85.74,55.79,139.71
				c0.78,58.31-19.09,107.82-59.08,146.76c-39.59,38.55-86.34,61.69-138.97,68.75C714.7,599.27,703.39,600,692.21,600z
				 M609.27,370.86c-3.47,0-7.13,0.1-10.98,0.3c-40.22,2.1-68.83,7.37-85,15.7c-29.28,14.93-29.46,32.15-27.05,43.79
				c11.39,53.3,40.69,93.91,87.08,120.67c46.86,27.07,97.62,37.29,150.69,30.44c49.07-6.58,92.75-28.21,129.8-64.31
				c36.69-35.71,54.92-81.26,54.2-135.38c1.93-49.69-15.22-92.61-50.99-128.02c-36.08-35.71-70.34-55.28-101.83-58.15
				c-4.28-0.38-7.5-4.05-7.35-8.33c0.16-4.29,3.65-7.71,7.94-7.79c27.86-0.49,54.38-1.7,78.84-3.6c23.38-1.81,30.63-4.48,32.62-5.52
				c4.56-16.01,7.46-43.39,8.55-81.22c1.46-51.14-4.18-58.7-4.82-59.4c-0.37-0.24-0.43-0.28-0.76-0.58
				c-1.11-1.01-9.09-6.29-56.52-9.72c-34.79-2.51-73.04-3.64-113.02-3.6c-40.25,0.13-78.03,1.46-112.3,3.98
				c-45.03,3.31-52.66,7.62-53.73,8.45c-6.15,5.91-16.11,26.74-13.72,99.92c1.88,57.73,7.15,107.29,15.65,147.3
				c3.48,16.75,9.46,29.6,17.74,38.21c5.43,5.66,19.28,12.75,54.46,14.51c18.99,1.25,36.17,1.51,51.05,0.77c0.03,0,0.05,0,0.08,0
				c24.52,0,42.47,5.49,53.78,16.34c11.31,10.91,17.28,22.77,17.74,35.28c0.45,12.74-3.89,23.7-12.9,32.56
				c-6.77,6.65-18.78,12.95-37.67,5.37c-9.18-3.16-16.15-9.95-19.78-19.5c-1-1.55-1.97-4.32-2.36-7.07
				C655.75,378.17,639.12,370.86,609.27,370.86z"/>
		</g>
		<g>
			<path class="st89" d="M725.66,315.88c0.14,0.04,0.29,0.09,0.43,0.13c-16.01-11.27-37.1-17.18-62.94-17.6
				C684.18,303.41,705.02,309.66,725.66,315.88z"/>
		</g>
		<g class="st86">
			<path class="st87" d="M726.09,316.01c3.19,2.25,6.26,4.63,9.05,7.31c21.54,20.71,26.68,42.14,27.21,56.46
				c0.79,21.48-6.87,40.77-22.14,55.79c-11.8,11.58-26.7,17.71-43.11,17.71c-8.78,0-17.86-1.81-26.99-5.39
				c-16.89-6.12-29.89-18.44-36.95-34.93c-1.45-2.91-2.63-5.9-3.52-8.95c-3.17-0.93-9.46-2.17-20.56-2.17
				c-2.88,0-5.97,0.09-9.18,0.25c-48.71,2.54-66.88,9.45-72.57,12.38c-8.89,4.53-10.92,7.82-11,7.82h0
				c-0.01,0.1-0.06,0.72,0.18,1.86c9.62,45.02,33.26,77.85,72.28,100.37c33.1,19.1,66.86,28.39,103.19,28.39
				c9.17,0,18.61-0.62,27.86-1.81c42.97-5.77,79.73-24.03,112.38-55.82c30.78-29.96,45.44-66.85,44.82-112.78l-0.01-1.03l0.04-1.03
				c0.52-13.24-0.6-25.78-3.33-37.69C823.6,344.91,774.23,330.5,726.09,316.01z"/>
		</g>
		<g>
			<g>
				<defs>
					<path id="SVGID_3_" d="M752.39,226.76l2.83-77.93c27.3-0.49,53.21-1.67,77.01-3.52c3.29-0.25,6.15-0.52,8.62-0.78
						c1.65-11.9,3.23-29.68,3.98-55.97c0.48-16.55,0.17-27.41-0.32-34.38c-6.74-1.09-17.19-2.39-33.06-3.54
						c-32.35-2.34-67.71-3.53-105.08-3.53l-5.61,0.01c-39.58,0.13-76.63,1.44-110.13,3.9c-17.64,1.3-28.37,2.68-34.7,3.73
						c-2.3,9.01-5.48,29.65-4.07,72.74c1.82,55.91,6.87,103.64,15.02,142.03c1.62,7.77,3.91,14.21,6.63,18.78
						c0.03,0,0.05,0,0.08-0.01c30.2-1.51,60.06,3.07,89.56,10.11c25.84,0.42,46.93,6.33,62.94,17.6
						c48.14,14.49,97.51,28.9,147.64,26.74c-5.68-24.76-18.42-46.8-38.5-66.69C804.39,245.54,776.52,228.95,752.39,226.76z"/>
				</defs>
				<clipPath id="SVGID_4_">
					<use xlink:href="#SVGID_3_"  style="overflow:visible;"/>
				</clipPath>
				<rect x="550.45" y="342.97" class="st90" width="323.28" height="1.94"/>
				<rect x="550.45" y="341.29" class="st90" width="323.28" height="1.68"/>
				<rect x="550.45" y="339.61" class="st90" width="323.28" height="1.68"/>
				<rect x="550.45" y="337.93" class="st90" width="323.28" height="1.68"/>
				<rect x="550.45" y="336.25" class="st91" width="323.28" height="1.68"/>
				<rect x="550.45" y="334.58" class="st92" width="323.28" height="1.68"/>
				<rect x="550.45" y="332.9" class="st93" width="323.28" height="1.68"/>
				<rect x="550.45" y="331.22" class="st93" width="323.28" height="1.68"/>
				<rect x="550.45" y="329.54" class="st94" width="323.28" height="1.68"/>
				<rect x="550.45" y="327.86" class="st95" width="323.28" height="1.68"/>
				<rect x="550.45" y="326.19" class="st96" width="323.28" height="1.68"/>
				<rect x="550.45" y="324.51" class="st97" width="323.28" height="1.68"/>
				<rect x="550.45" y="322.83" class="st97" width="323.28" height="1.68"/>
				<rect x="550.45" y="321.15" class="st98" width="323.28" height="1.68"/>
				<rect x="550.45" y="319.47" class="st99" width="323.28" height="1.68"/>
				<rect x="550.45" y="317.8" class="st100" width="323.28" height="1.68"/>
				<rect x="550.45" y="316.12" class="st101" width="323.28" height="1.68"/>
				<rect x="550.45" y="314.44" class="st101" width="323.28" height="1.68"/>
				<rect x="550.45" y="312.76" class="st102" width="323.28" height="1.68"/>
				<rect x="550.45" y="311.08" class="st103" width="323.28" height="1.68"/>
				<rect x="550.45" y="309.4" class="st103" width="323.28" height="1.68"/>
				<rect x="550.45" y="307.73" class="st104" width="323.28" height="1.68"/>
				<rect x="550.45" y="306.05" class="st105" width="323.28" height="1.68"/>
				<rect x="550.45" y="304.37" class="st106" width="323.28" height="1.68"/>
				<rect x="550.45" y="302.69" class="st107" width="323.28" height="1.68"/>
				<rect x="550.45" y="301.01" class="st108" width="323.28" height="1.68"/>
				<rect x="550.45" y="299.34" class="st109" width="323.28" height="1.68"/>
				<rect x="550.45" y="297.66" class="st109" width="323.28" height="1.68"/>
				<rect x="550.45" y="295.98" class="st110" width="323.28" height="1.68"/>
				<rect x="550.45" y="294.3" class="st111" width="323.28" height="1.68"/>
				<rect x="550.45" y="292.62" class="st111" width="323.28" height="1.68"/>
				<rect x="550.45" y="290.95" class="st112" width="323.28" height="1.68"/>
				<rect x="550.45" y="289.27" class="st113" width="323.28" height="1.68"/>
				<rect x="550.45" y="287.59" class="st114" width="323.28" height="1.68"/>
				<rect x="550.45" y="285.91" class="st115" width="323.28" height="1.68"/>
				<rect x="550.45" y="284.23" class="st116" width="323.28" height="1.68"/>
				<rect x="550.45" y="282.56" class="st117" width="323.28" height="1.68"/>
				<rect x="550.45" y="280.88" class="st118" width="323.28" height="1.68"/>
				<rect x="550.45" y="279.2" class="st119" width="323.28" height="1.68"/>
				<rect x="550.45" y="277.52" class="st119" width="323.28" height="1.68"/>
				<rect x="550.45" y="275.84" class="st120" width="323.28" height="1.68"/>
				<rect x="550.45" y="274.16" class="st121" width="323.28" height="1.68"/>
				<rect x="550.45" y="272.49" class="st122" width="323.28" height="1.68"/>
				<rect x="550.45" y="270.81" class="st123" width="323.28" height="1.68"/>
				<rect x="550.45" y="269.13" class="st124" width="323.28" height="1.68"/>
				<rect x="550.45" y="267.45" class="st124" width="323.28" height="1.68"/>
				<rect x="550.45" y="265.77" class="st125" width="323.28" height="1.68"/>
				<rect x="550.45" y="264.1" class="st126" width="323.28" height="1.68"/>
				<rect x="550.45" y="262.42" class="st127" width="323.28" height="1.68"/>
				<rect x="550.45" y="260.74" class="st128" width="323.28" height="1.68"/>
				<rect x="550.45" y="259.06" class="st129" width="323.28" height="1.68"/>
				<rect x="550.45" y="257.38" class="st130" width="323.28" height="1.68"/>
				<rect x="550.45" y="255.71" class="st131" width="323.28" height="1.68"/>
				<rect x="550.45" y="254.03" class="st132" width="323.28" height="1.68"/>
				<rect x="550.45" y="252.35" class="st133" width="323.28" height="1.68"/>
				<rect x="550.45" y="250.67" class="st134" width="323.28" height="1.68"/>
				<rect x="550.45" y="248.99" class="st135" width="323.28" height="1.68"/>
				<rect x="550.45" y="247.32" class="st136" width="323.28" height="1.68"/>
				<rect x="550.45" y="245.64" class="st137" width="323.28" height="1.68"/>
				<rect x="550.45" y="243.96" class="st138" width="323.28" height="1.68"/>
				<rect x="550.45" y="242.28" class="st138" width="323.28" height="1.68"/>
				<rect x="550.45" y="240.6" class="st139" width="323.28" height="1.68"/>
				<rect x="550.45" y="238.92" class="st140" width="323.28" height="1.68"/>
				<rect x="550.45" y="237.25" class="st141" width="323.28" height="1.68"/>
				<rect x="550.45" y="235.57" class="st142" width="323.28" height="1.68"/>
				<rect x="550.45" y="233.89" class="st143" width="323.28" height="1.68"/>
				<rect x="550.45" y="232.21" class="st144" width="323.28" height="1.68"/>
				<rect x="550.45" y="230.53" class="st144" width="323.28" height="1.68"/>
				<rect x="550.45" y="228.86" class="st145" width="323.28" height="1.68"/>
				<rect x="550.45" y="227.18" class="st146" width="323.28" height="1.68"/>
				<rect x="550.45" y="225.5" class="st147" width="323.28" height="1.68"/>
				<rect x="550.45" y="223.82" class="st148" width="323.28" height="1.68"/>
				<rect x="550.45" y="222.14" class="st149" width="323.28" height="1.68"/>
				<rect x="550.45" y="220.47" class="st150" width="323.28" height="1.68"/>
				<rect x="550.45" y="218.79" class="st151" width="323.28" height="1.68"/>
				<rect x="550.45" y="217.11" class="st152" width="323.28" height="1.68"/>
				<rect x="550.45" y="215.43" class="st153" width="323.28" height="1.68"/>
				<rect x="550.45" y="213.75" class="st154" width="323.28" height="1.68"/>
				<rect x="550.45" y="212.08" class="st155" width="323.28" height="1.68"/>
				<rect x="550.45" y="210.4" class="st156" width="323.28" height="1.68"/>
				<rect x="550.45" y="208.72" class="st156" width="323.28" height="1.68"/>
				<rect x="550.45" y="207.04" class="st157" width="323.28" height="1.68"/>
				<rect x="550.45" y="205.36" class="st158" width="323.28" height="1.68"/>
				<rect x="550.45" y="203.68" class="st159" width="323.28" height="1.68"/>
				<rect x="550.45" y="202.01" class="st160" width="323.28" height="1.68"/>
				<rect x="550.45" y="200.33" class="st161" width="323.28" height="1.68"/>
				<rect x="550.45" y="198.65" class="st162" width="323.28" height="1.68"/>
				<rect x="550.45" y="196.97" class="st163" width="323.28" height="1.68"/>
				<rect x="550.45" y="195.29" class="st164" width="323.28" height="1.68"/>
				<rect x="550.45" y="193.62" class="st165" width="323.28" height="1.68"/>
				<rect x="550.45" y="191.94" class="st166" width="323.28" height="1.68"/>
				<rect x="550.45" y="190.26" class="st166" width="323.28" height="1.68"/>
				<rect x="550.45" y="188.58" class="st167" width="323.28" height="1.68"/>
				<rect x="550.45" y="186.9" class="st168" width="323.28" height="1.68"/>
				<rect x="550.45" y="185.23" class="st169" width="323.28" height="1.68"/>
				<rect x="550.45" y="183.55" class="st170" width="323.28" height="1.68"/>
				<rect x="550.45" y="181.87" class="st171" width="323.28" height="1.68"/>
				<rect x="550.45" y="180.19" class="st172" width="323.28" height="1.68"/>
				<rect x="550.45" y="178.51" class="st173" width="323.28" height="1.68"/>
				<rect x="550.45" y="177.17" class="st173" width="323.28" height="1.34"/>
				<rect x="550.45" y="175.83" class="st172" width="323.28" height="1.34"/>
				<rect x="550.45" y="174.49" class="st171" width="323.28" height="1.34"/>
				<rect x="550.45" y="173.15" class="st170" width="323.28" height="1.34"/>
				<rect x="550.45" y="171.81" class="st169" width="323.28" height="1.34"/>
				<rect x="550.45" y="170.47" class="st168" width="323.28" height="1.34"/>
				<rect x="550.45" y="169.13" class="st167" width="323.28" height="1.34"/>
				<rect x="550.45" y="167.79" class="st166" width="323.28" height="1.34"/>
				<rect x="550.45" y="166.45" class="st166" width="323.28" height="1.34"/>
				<rect x="550.45" y="165.11" class="st165" width="323.28" height="1.34"/>
				<rect x="550.45" y="163.76" class="st164" width="323.28" height="1.34"/>
				<rect x="550.45" y="162.42" class="st163" width="323.28" height="1.34"/>
				<rect x="550.45" y="161.08" class="st162" width="323.28" height="1.34"/>
				<rect x="550.45" y="159.74" class="st161" width="323.28" height="1.34"/>
				<rect x="550.45" y="158.4" class="st160" width="323.28" height="1.34"/>
				<rect x="550.45" y="157.06" class="st159" width="323.28" height="1.34"/>
				<rect x="550.45" y="155.72" class="st158" width="323.28" height="1.34"/>
				<rect x="550.45" y="154.38" class="st157" width="323.28" height="1.34"/>
				<rect x="550.45" y="153.04" class="st156" width="323.28" height="1.34"/>
				<rect x="550.45" y="151.7" class="st156" width="323.28" height="1.34"/>
				<rect x="550.45" y="150.36" class="st155" width="323.28" height="1.34"/>
				<rect x="550.45" y="149.02" class="st154" width="323.28" height="1.34"/>
				<rect x="550.45" y="147.68" class="st153" width="323.28" height="1.34"/>
				<rect x="550.45" y="146.33" class="st152" width="323.28" height="1.34"/>
				<rect x="550.45" y="144.99" class="st151" width="323.28" height="1.34"/>
				<rect x="550.45" y="143.65" class="st150" width="323.28" height="1.34"/>
				<rect x="550.45" y="142.31" class="st149" width="323.28" height="1.34"/>
				<rect x="550.45" y="140.97" class="st148" width="323.28" height="1.34"/>
				<rect x="550.45" y="139.63" class="st147" width="323.28" height="1.34"/>
				<rect x="550.45" y="138.29" class="st146" width="323.28" height="1.34"/>
				<rect x="550.45" y="136.95" class="st145" width="323.28" height="1.34"/>
				<rect x="550.45" y="135.61" class="st144" width="323.28" height="1.34"/>
				<rect x="550.45" y="134.27" class="st144" width="323.28" height="1.34"/>
				<rect x="550.45" y="132.93" class="st143" width="323.28" height="1.34"/>
				<rect x="550.45" y="131.59" class="st142" width="323.28" height="1.34"/>
				<rect x="550.45" y="130.25" class="st141" width="323.28" height="1.34"/>
				<rect x="550.45" y="128.9" class="st140" width="323.28" height="1.34"/>
				<rect x="550.45" y="127.56" class="st139" width="323.28" height="1.34"/>
				<rect x="550.45" y="126.22" class="st138" width="323.28" height="1.34"/>
				<rect x="550.45" y="124.88" class="st138" width="323.28" height="1.34"/>
				<rect x="550.45" y="123.54" class="st137" width="323.28" height="1.34"/>
				<rect x="550.45" y="122.2" class="st136" width="323.28" height="1.34"/>
				<rect x="550.45" y="120.86" class="st135" width="323.28" height="1.34"/>
				<rect x="550.45" y="119.52" class="st134" width="323.28" height="1.34"/>
				<rect x="550.45" y="118.18" class="st133" width="323.28" height="1.34"/>
				<rect x="550.45" y="116.84" class="st132" width="323.28" height="1.34"/>
				<rect x="550.45" y="115.5" class="st131" width="323.28" height="1.34"/>
				<rect x="550.45" y="114.16" class="st130" width="323.28" height="1.34"/>
				<rect x="550.45" y="112.81" class="st129" width="323.28" height="1.34"/>
				<rect x="550.45" y="111.47" class="st128" width="323.28" height="1.34"/>
				<rect x="550.45" y="110.13" class="st127" width="323.28" height="1.34"/>
				<rect x="550.45" y="108.79" class="st126" width="323.28" height="1.34"/>
				<rect x="550.45" y="107.45" class="st125" width="323.28" height="1.34"/>
				<rect x="550.45" y="106.11" class="st124" width="323.28" height="1.34"/>
				<rect x="550.45" y="104.77" class="st124" width="323.28" height="1.34"/>
				<rect x="550.45" y="103.43" class="st123" width="323.28" height="1.34"/>
				<rect x="550.45" y="102.09" class="st122" width="323.28" height="1.34"/>
				<rect x="550.45" y="100.75" class="st121" width="323.28" height="1.34"/>
				<rect x="550.45" y="99.41" class="st120" width="323.28" height="1.34"/>
				<rect x="550.45" y="98.07" class="st119" width="323.28" height="1.34"/>
				<rect x="550.45" y="96.73" class="st119" width="323.28" height="1.34"/>
				<rect x="550.45" y="95.38" class="st118" width="323.28" height="1.34"/>
				<rect x="550.45" y="94.04" class="st117" width="323.28" height="1.34"/>
				<rect x="550.45" y="92.7" class="st116" width="323.28" height="1.34"/>
				<rect x="550.45" y="91.36" class="st115" width="323.28" height="1.34"/>
				<rect x="550.45" y="90.02" class="st114" width="323.28" height="1.34"/>
				<rect x="550.45" y="88.68" class="st113" width="323.28" height="1.34"/>
				<rect x="550.45" y="87.34" class="st112" width="323.28" height="1.34"/>
				<rect x="550.45" y="86" class="st111" width="323.28" height="1.34"/>
				<rect x="550.45" y="84.66" class="st111" width="323.28" height="1.34"/>
				<rect x="550.45" y="83.32" class="st110" width="323.28" height="1.34"/>
				<rect x="550.45" y="81.98" class="st109" width="323.28" height="1.34"/>
				<rect x="550.45" y="80.64" class="st109" width="323.28" height="1.34"/>
				<rect x="550.45" y="79.3" class="st108" width="323.28" height="1.34"/>
				<rect x="550.45" y="77.95" class="st107" width="323.28" height="1.34"/>
				<rect x="550.45" y="76.61" class="st106" width="323.28" height="1.34"/>
				<rect x="550.45" y="75.27" class="st105" width="323.28" height="1.34"/>
				<rect x="550.45" y="73.93" class="st104" width="323.28" height="1.34"/>
				<rect x="550.45" y="72.59" class="st103" width="323.28" height="1.34"/>
				<rect x="550.45" y="71.25" class="st103" width="323.28" height="1.34"/>
				<rect x="550.45" y="69.91" class="st102" width="323.28" height="1.34"/>
				<rect x="550.45" y="68.57" class="st101" width="323.28" height="1.34"/>
				<rect x="550.45" y="67.23" class="st101" width="323.28" height="1.34"/>
				<rect x="550.45" y="65.89" class="st100" width="323.28" height="1.34"/>
				<rect x="550.45" y="64.55" class="st99" width="323.28" height="1.34"/>
				<rect x="550.45" y="63.21" class="st98" width="323.28" height="1.34"/>
				<rect x="550.45" y="61.87" class="st97" width="323.28" height="1.34"/>
				<rect x="550.45" y="60.52" class="st97" width="323.28" height="1.34"/>
				<rect x="550.45" y="59.18" class="st96" width="323.28" height="1.34"/>
				<rect x="550.45" y="57.84" class="st95" width="323.28" height="1.34"/>
				<rect x="550.45" y="56.5" class="st94" width="323.28" height="1.34"/>
				<rect x="550.45" y="55.16" class="st93" width="323.28" height="1.34"/>
				<rect x="550.45" y="53.82" class="st93" width="323.28" height="1.34"/>
				<rect x="550.45" y="52.48" class="st92" width="323.28" height="1.34"/>
				<rect x="550.45" y="51.14" class="st91" width="323.28" height="1.34"/>
				<rect x="550.45" y="49.8" class="st90" width="323.28" height="1.34"/>
				<rect x="550.45" y="48.46" class="st90" width="323.28" height="1.34"/>
				<rect x="550.45" y="47.12" class="st90" width="323.28" height="1.34"/>
				<path class="st90" d="M873.73,47.12H550.45H873.73z"/>
			</g>
		</g>
		<g class="st88">
			<path class="st87" d="M794.37,504.01L794.37,504.01c-7.1-4.84-8.95-14.61-4.11-21.7l0,0c4.84-7.1,14.61-8.95,21.7-4.11l0,0
				c7.1,4.84,8.95,14.6,4.11,21.7l0,0C811.24,507,801.47,508.85,794.37,504.01z"/>
		</g>
		<g class="st88">
			<path class="st87" d="M825.02,472.92L825.02,472.92c-3.55-2.42-4.47-7.3-2.05-10.85l0,0c2.42-3.55,7.3-4.47,10.85-2.05l0,0
				c3.55,2.42,4.47,7.3,2.05,10.85l0,0C833.45,474.41,828.57,475.34,825.02,472.92z"/>
		</g>
	</g>
</g>
</svg>
