<?xml version="1.0" encoding="utf-8"?>
<!-- Generator: Adobe Illustrator 24.1.0, SVG Export Plug-In . SVG Version: 6.00 Build 0)  -->
<svg version="1.1" id="Layer_1" xmlns="http://www.w3.org/2000/svg" xmlns:xlink="http://www.w3.org/1999/xlink" x="0px" y="0px"
	 viewBox="0 0 926.51 600" style="enable-background:new 0 0 926.51 600;" xml:space="preserve">
<style type="text/css">
	.st0{fill:#F7DE03;}
	.st1{fill:#E3A925;}
	.st2{clip-path:url(#SVGID_2_);fill:#FFFFFF;}
	.st3{clip-path:url(#SVGID_2_);fill:#FFFFFD;}
	.st4{clip-path:url(#SVGID_2_);fill:#FFFFFC;}
	.st5{clip-path:url(#SVGID_2_);fill:#FFFFFA;}
	.st6{clip-path:url(#SVGID_2_);fill:#FFFEF9;}
	.st7{clip-path:url(#SVGID_2_);fill:#FFFEF8;}
	.st8{clip-path:url(#SVGID_2_);fill:#FFFEF6;}
	.st9{clip-path:url(#SVGID_2_);fill:#FFFEF5;}
	.st10{clip-path:url(#SVGID_2_);fill:#FFFEF4;}
	.st11{clip-path:url(#SVGID_2_);fill:#FFFEF3;}
	.st12{clip-path:url(#SVGID_2_);fill:#FFFEF2;}
	.st13{clip-path:url(#SVGID_2_);fill:#FFFEF1;}
	.st14{clip-path:url(#SVGID_2_);fill:#FFFEEF;}
	.st15{clip-path:url(#SVGID_2_);fill:#FEFDEE;}
	.st16{clip-path:url(#SVGID_2_);fill:#FEFDED;}
	.st17{clip-path:url(#SVGID_2_);fill:#FEFDEB;}
	.st18{clip-path:url(#SVGID_2_);fill:#FFFDEA;}
	.st19{clip-path:url(#SVGID_2_);fill:#FFFCEA;}
	.st20{clip-path:url(#SVGID_2_);fill:#FDFCE8;}
	.st21{clip-path:url(#SVGID_2_);fill:#FDFCE7;}
	.st22{clip-path:url(#SVGID_2_);fill:#FDFBE5;}
	.st23{clip-path:url(#SVGID_2_);fill:#FDFBE4;}
	.st24{clip-path:url(#SVGID_2_);fill:#FDFBE2;}
	.st25{clip-path:url(#SVGID_2_);fill:#FDFBE1;}
	.st26{clip-path:url(#SVGID_2_);fill:#FDFBE0;}
	.st27{clip-path:url(#SVGID_2_);fill:#FEFBDF;}
	.st28{clip-path:url(#SVGID_2_);fill:#FEFBDE;}
	.st29{clip-path:url(#SVGID_2_);fill:#FEFBDD;}
	.st30{clip-path:url(#SVGID_2_);fill:#FEFBDC;}
	.st31{clip-path:url(#SVGID_2_);fill:#FCFADB;}
	.st32{clip-path:url(#SVGID_2_);fill:#FCFADA;}
	.st33{clip-path:url(#SVGID_2_);fill:#FCFAD9;}
	.st34{clip-path:url(#SVGID_2_);fill:#FCFAD8;}
	.st35{clip-path:url(#SVGID_2_);fill:#FDFAD7;}
	.st36{clip-path:url(#SVGID_2_);fill:#FDFAD5;}
	.st37{clip-path:url(#SVGID_2_);fill:#FDFAD4;}
	.st38{clip-path:url(#SVGID_2_);fill:#FDF9D2;}
	.st39{clip-path:url(#SVGID_2_);fill:#FCF9D2;}
	.st40{clip-path:url(#SVGID_2_);fill:#FCF9D1;}
	.st41{clip-path:url(#SVGID_2_);fill:#FCF9CF;}
	.st42{clip-path:url(#SVGID_2_);fill:#FCF9CE;}
	.st43{clip-path:url(#SVGID_2_);fill:#FCF8CD;}
	.st44{clip-path:url(#SVGID_2_);fill:#FCF8CC;}
	.st45{clip-path:url(#SVGID_2_);fill:#FCF8CB;}
	.st46{clip-path:url(#SVGID_2_);fill:#FCF8CA;}
	.st47{clip-path:url(#SVGID_2_);fill:#FCF8C9;}
	.st48{clip-path:url(#SVGID_2_);fill:#FCF8C8;}
	.st49{clip-path:url(#SVGID_2_);fill:#FCF8C7;}
	.st50{clip-path:url(#SVGID_2_);fill:#FCF8C6;}
	.st51{clip-path:url(#SVGID_2_);fill:#FCF8C5;}
	.st52{clip-path:url(#SVGID_2_);fill:#FCF8C3;}
	.st53{clip-path:url(#SVGID_2_);fill:#FDF8C2;}
	.st54{clip-path:url(#SVGID_2_);fill:#FDF8C1;}
	.st55{clip-path:url(#SVGID_2_);fill:#FDF8C0;}
	.st56{clip-path:url(#SVGID_2_);fill:#FBF7BF;}
	.st57{clip-path:url(#SVGID_2_);fill:#FCF7BE;}
	.st58{clip-path:url(#SVGID_2_);fill:#FCF7BD;}
	.st59{clip-path:url(#SVGID_2_);fill:#FCF7BC;}
	.st60{clip-path:url(#SVGID_2_);fill:#FCF7BB;}
	.st61{clip-path:url(#SVGID_2_);fill:#FCF7BA;}
	.st62{clip-path:url(#SVGID_2_);fill:#FCF7B9;}
	.st63{clip-path:url(#SVGID_2_);fill:#FCF6B7;}
	.st64{clip-path:url(#SVGID_2_);fill:#FCF6B6;}
	.st65{clip-path:url(#SVGID_2_);fill:#FCF6B5;}
	.st66{clip-path:url(#SVGID_2_);fill:#FCF6B4;}
	.st67{clip-path:url(#SVGID_2_);fill:#FCF6B3;}
	.st68{clip-path:url(#SVGID_2_);fill:#FBF6B2;}
	.st69{clip-path:url(#SVGID_2_);fill:#FBF6B1;}
	.st70{clip-path:url(#SVGID_2_);fill:#FBF5B0;}
	.st71{clip-path:url(#SVGID_2_);fill:#FBF5AF;}
	.st72{clip-path:url(#SVGID_2_);fill:#FBF5AE;}
	.st73{clip-path:url(#SVGID_2_);fill:#FBF5AD;}
	.st74{clip-path:url(#SVGID_2_);fill:#FBF5AC;}
	.st75{clip-path:url(#SVGID_2_);fill:#FBF5AB;}
	.st76{clip-path:url(#SVGID_2_);fill:#FBF5AA;}
	.st77{clip-path:url(#SVGID_2_);fill:#FBF5A9;}
	.st78{clip-path:url(#SVGID_2_);fill:#FCF5A8;}
	.st79{clip-path:url(#SVGID_2_);fill:#FCF5A7;}
	.st80{clip-path:url(#SVGID_2_);fill:#FCF5A6;}
	.st81{clip-path:url(#SVGID_2_);fill:#FCF5A4;}
	.st82{clip-path:url(#SVGID_2_);fill:#FBF4A4;}
	.st83{clip-path:url(#SVGID_2_);fill:#FBF4A2;}
	.st84{clip-path:url(#SVGID_2_);fill:#FBF4A1;}
	.st85{clip-path:url(#SVGID_2_);fill:#FBF4A0;}
	.st86{opacity:0.2;}
	.st87{fill:#FFFFFF;}
	.st88{opacity:0.6;}
	.st89{clip-path:url(#SVGID_4_);fill:#FFFFFF;}
	.st90{clip-path:url(#SVGID_4_);fill:#FFFFFD;}
	.st91{clip-path:url(#SVGID_4_);fill:#FFFFFC;}
	.st92{clip-path:url(#SVGID_4_);fill:#FFFFFA;}
	.st93{clip-path:url(#SVGID_4_);fill:#FFFEF9;}
	.st94{clip-path:url(#SVGID_4_);fill:#FFFEF8;}
	.st95{clip-path:url(#SVGID_4_);fill:#FFFEF6;}
	.st96{clip-path:url(#SVGID_4_);fill:#FFFEF5;}
	.st97{clip-path:url(#SVGID_4_);fill:#FFFEF4;}
	.st98{clip-path:url(#SVGID_4_);fill:#FFFEF3;}
	.st99{clip-path:url(#SVGID_4_);fill:#FFFEF2;}
	.st100{clip-path:url(#SVGID_4_);fill:#FFFEF1;}
	.st101{clip-path:url(#SVGID_4_);fill:#FFFEEF;}
	.st102{clip-path:url(#SVGID_4_);fill:#FEFDEE;}
	.st103{clip-path:url(#SVGID_4_);fill:#FEFDED;}
	.st104{clip-path:url(#SVGID_4_);fill:#FEFDEB;}
	.st105{clip-path:url(#SVGID_4_);fill:#FFFDEA;}
	.st106{clip-path:url(#SVGID_4_);fill:#FFFCEA;}
	.st107{clip-path:url(#SVGID_4_);fill:#FDFCE8;}
	.st108{clip-path:url(#SVGID_4_);fill:#FDFCE7;}
	.st109{clip-path:url(#SVGID_4_);fill:#FDFBE5;}
	.st110{clip-path:url(#SVGID_4_);fill:#FDFBE4;}
	.st111{clip-path:url(#SVGID_4_);fill:#FDFBE2;}
	.st112{clip-path:url(#SVGID_4_);fill:#FDFBE1;}
	.st113{clip-path:url(#SVGID_4_);fill:#FDFBE0;}
	.st114{clip-path:url(#SVGID_4_);fill:#FEFBDF;}
	.st115{clip-path:url(#SVGID_4_);fill:#FEFBDE;}
	.st116{clip-path:url(#SVGID_4_);fill:#FEFBDD;}
	.st117{clip-path:url(#SVGID_4_);fill:#FEFBDC;}
	.st118{clip-path:url(#SVGID_4_);fill:#FCFADB;}
	.st119{clip-path:url(#SVGID_4_);fill:#FCFADA;}
	.st120{clip-path:url(#SVGID_4_);fill:#FCFAD9;}
	.st121{clip-path:url(#SVGID_4_);fill:#FCFAD8;}
	.st122{clip-path:url(#SVGID_4_);fill:#FDFAD7;}
	.st123{clip-path:url(#SVGID_4_);fill:#FDFAD5;}
	.st124{clip-path:url(#SVGID_4_);fill:#FDFAD4;}
	.st125{clip-path:url(#SVGID_4_);fill:#FDF9D2;}
	.st126{clip-path:url(#SVGID_4_);fill:#FCF9D2;}
	.st127{clip-path:url(#SVGID_4_);fill:#FCF9D1;}
	.st128{clip-path:url(#SVGID_4_);fill:#FCF9CF;}
	.st129{clip-path:url(#SVGID_4_);fill:#FCF9CE;}
	.st130{clip-path:url(#SVGID_4_);fill:#FCF8CD;}
	.st131{clip-path:url(#SVGID_4_);fill:#FCF8CC;}
	.st132{clip-path:url(#SVGID_4_);fill:#FCF8CB;}
	.st133{clip-path:url(#SVGID_4_);fill:#FCF8CA;}
	.st134{clip-path:url(#SVGID_4_);fill:#FCF8C9;}
	.st135{clip-path:url(#SVGID_4_);fill:#FCF8C8;}
	.st136{clip-path:url(#SVGID_4_);fill:#FCF8C7;}
	.st137{clip-path:url(#SVGID_4_);fill:#FCF8C6;}
	.st138{clip-path:url(#SVGID_4_);fill:#FCF8C5;}
	.st139{clip-path:url(#SVGID_4_);fill:#FCF8C3;}
	.st140{clip-path:url(#SVGID_4_);fill:#FDF8C2;}
	.st141{clip-path:url(#SVGID_4_);fill:#FDF8C1;}
	.st142{clip-path:url(#SVGID_4_);fill:#FDF8C0;}
	.st143{clip-path:url(#SVGID_4_);fill:#FBF7BF;}
	.st144{clip-path:url(#SVGID_4_);fill:#FCF7BE;}
	.st145{clip-path:url(#SVGID_4_);fill:#FCF7BD;}
	.st146{clip-path:url(#SVGID_4_);fill:#FCF7BC;}
	.st147{clip-path:url(#SVGID_4_);fill:#FCF7BB;}
	.st148{clip-path:url(#SVGID_4_);fill:#FCF7BA;}
	.st149{clip-path:url(#SVGID_4_);fill:#FCF7B9;}
	.st150{clip-path:url(#SVGID_4_);fill:#FCF6B7;}
	.st151{clip-path:url(#SVGID_4_);fill:#FCF6B6;}
	.st152{clip-path:url(#SVGID_4_);fill:#FCF6B5;}
	.st153{clip-path:url(#SVGID_4_);fill:#FCF6B4;}
	.st154{clip-path:url(#SVGID_4_);fill:#FCF6B3;}
	.st155{clip-path:url(#SVGID_4_);fill:#FBF6B2;}
	.st156{clip-path:url(#SVGID_4_);fill:#FBF6B1;}
	.st157{clip-path:url(#SVGID_4_);fill:#FBF5B0;}
	.st158{clip-path:url(#SVGID_4_);fill:#FBF5AF;}
	.st159{clip-path:url(#SVGID_4_);fill:#FBF5AE;}
	.st160{clip-path:url(#SVGID_4_);fill:#FBF5AD;}
	.st161{clip-path:url(#SVGID_4_);fill:#FBF5AC;}
	.st162{clip-path:url(#SVGID_4_);fill:#FBF5AB;}
	.st163{clip-path:url(#SVGID_4_);fill:#FBF5AA;}
	.st164{clip-path:url(#SVGID_4_);fill:#FBF5A9;}
	.st165{clip-path:url(#SVGID_4_);fill:#FCF5A8;}
	.st166{clip-path:url(#SVGID_4_);fill:#FCF5A7;}
	.st167{clip-path:url(#SVGID_4_);fill:#FCF5A6;}
	.st168{clip-path:url(#SVGID_4_);fill:#FCF5A4;}
	.st169{clip-path:url(#SVGID_4_);fill:#FBF4A4;}
	.st170{clip-path:url(#SVGID_4_);fill:#FBF4A2;}
	.st171{clip-path:url(#SVGID_4_);fill:#FBF4A1;}
	.st172{clip-path:url(#SVGID_4_);fill:#FBF4A0;}
</style>
<g>
	<g>
		<g>
			<path class="st0" d="M390.73,573.28c-5.33,10.16-31.88,16.19-79.63,18.1c-47.76,1.91-81.53-1.33-101.35-9.72
				c-9.66-4.06-15.37-38.16-17.15-102.3c-1.78-64.13-3.94-130.11-6.48-197.93c-16.51,6.86-33.21,13.21-50.1,19.05
				c-16.9,5.84-27.5,8.38-31.81,7.62c-11.43,0.26-27.37-17.91-47.82-54.48c-20.45-36.58-31.56-65.78-33.34-87.63
				c-0.76-9.91,13.91-26.99,44.01-51.24c30.1-24.25,72.58-53.4,127.44-87.44c9.91-6.35,26.61-11.3,50.1-14.86
				c23.49-3.55,47.43-4.95,71.82-4.19c24.38,0.76,46.16,4.19,65.34,10.29c19.18,6.1,29.53,15.62,31.05,28.57
				c3.81,36.58,5.96,83.12,6.48,139.64c0.51,56.52-0.38,112.14-2.67,166.88c-2.29,54.74-5.72,103.13-10.29,145.16
				C401.78,540.84,396.57,565.66,390.73,573.28z"/>
			<path class="st1" d="M285.75,600c-35.87,0-61.89-3.6-79.14-10.91c-9.3-3.9-19.48-15.92-22.08-109.5
				c-1.67-60.17-3.7-122.79-6.05-186.32c-13.1,5.25-26.46,10.24-39.81,14.86c-22.59,7.81-30.62,8.63-35.05,8.05
				c-15.03-0.29-31.81-18.44-54.28-58.62c-21.21-37.94-32.44-67.68-34.33-90.91c-0.68-8.94,4.05-23.58,46.99-58.19
				c30.18-24.34,73.34-53.95,128.26-88.02c10.88-6.97,28.3-12.23,53.14-15.99c23.89-3.61,48.55-4.97,73.29-4.28
				c25.04,0.8,47.76,4.38,67.54,10.67c22.38,7.12,34.7,19.01,36.63,35.33c3.81,36.77,6.01,84.02,6.53,140.51
				c0.5,56.31-0.4,112.59-2.69,167.29c-2.28,54.78-5.76,103.8-10.33,145.69c-6.11,56.27-12.16,71.53-16.83,77.99
				c-5.07,8.87-20.06,19.16-86.12,21.79C302.36,599.81,293.8,600,285.75,600z M186.13,273.35c1.53,0,3.04,0.43,4.35,1.27
				c2.23,1.43,3.62,3.86,3.72,6.5c2.52,67.53,4.7,134.15,6.48,198.01c2.3,82.94,10.86,93.91,12.55,95.26
				c18.3,7.69,51.26,10.69,97.53,8.91c63.74-2.55,71.84-11.94,72.81-13.8c0.21-0.4,0.47-0.8,0.74-1.16
				c2.22-2.89,8.03-15.54,14-70.43c4.52-41.54,7.98-90.2,10.25-144.63c2.27-54.42,3.17-110.42,2.66-166.45
				c-0.52-55.99-2.68-102.72-6.44-138.89c-0.4-3.41-1.67-14.15-25.46-21.71c-18.35-5.83-39.61-9.16-63.15-9.91
				c-23.79-0.81-47.45,0.63-70.36,4.1c-22.24,3.37-38.04,7.98-46.96,13.68c-54.45,33.78-97.06,63-126.72,86.92
				c-40.67,32.78-41.11,43.26-41.04,44.34c1.68,20.55,12.56,48.93,32.34,84.31c26.97,48.27,38.7,50.43,40.58,50.34
				c0.57-0.01,1.06,0.03,1.59,0.13c0.85,0.14,5.97,0.25,27.77-7.3c16.71-5.78,33.41-12.13,49.63-18.88
				C184.03,273.55,185.09,273.35,186.13,273.35z"/>
		</g>
		<g>
			<g>
				<defs>
					<path id="SVGID_1_" d="M380.29,187.11c-0.47-51.83-2.37-95.4-5.64-129.64c-1.15-0.51-2.69-1.11-4.69-1.74
						c-15.66-4.98-34.08-7.83-54.74-8.47c-3.89-0.12-7.77-0.18-11.64-0.18c-17.91,0-35.78,1.33-53.11,3.96
						c-26.27,3.98-34.09,8.61-34.9,9.13l-0.48,0.3c-53.25,33.04-94.82,61.53-123.53,84.67c-16.33,13.16-24.45,21.42-28.32,25.88
						c2.53,11.64,9.38,31.66,27.23,63.58c10.06,18.01,17.05,27.74,21.22,32.78c2.87-0.85,6.66-2.05,11.61-3.76
						c16.03-5.54,32.14-11.67,47.89-18.21l51.85-21.53l2.1,56.11c0.46,12.28,0.9,24.5,1.34,36.69
						c45.05,5.15,88.54,21.27,132.7,32.51c6.08,1.55,12.23,2.99,18.44,4.3c0.02-0.49,0.05-0.97,0.07-1.47
						C379.9,298.21,380.79,242.73,380.29,187.11z"/>
				</defs>
				<clipPath id="SVGID_2_">
					<use xlink:href="#SVGID_1_"  style="overflow:visible;"/>
				</clipPath>
				<path class="st2" d="M63.23,353.47h317.56H63.23z"/>
				<rect x="63.23" y="351.74" class="st2" width="317.56" height="1.74"/>
				<rect x="63.23" y="350" class="st2" width="317.56" height="1.74"/>
				<rect x="63.23" y="348.26" class="st2" width="317.56" height="1.74"/>
				<rect x="63.23" y="346.52" class="st3" width="317.56" height="1.74"/>
				<rect x="63.23" y="344.78" class="st4" width="317.56" height="1.74"/>
				<rect x="63.23" y="343.05" class="st5" width="317.56" height="1.74"/>
				<rect x="63.23" y="341.31" class="st5" width="317.56" height="1.74"/>
				<rect x="63.23" y="339.57" class="st6" width="317.56" height="1.74"/>
				<rect x="63.23" y="337.83" class="st7" width="317.56" height="1.74"/>
				<rect x="63.23" y="336.09" class="st8" width="317.56" height="1.74"/>
				<rect x="63.23" y="334.36" class="st9" width="317.56" height="1.74"/>
				<rect x="63.23" y="332.62" class="st9" width="317.56" height="1.74"/>
				<rect x="63.23" y="330.88" class="st10" width="317.56" height="1.74"/>
				<rect x="63.23" y="329.14" class="st11" width="317.56" height="1.74"/>
				<rect x="63.23" y="327.41" class="st12" width="317.56" height="1.74"/>
				<rect x="63.23" y="325.67" class="st13" width="317.56" height="1.74"/>
				<rect x="63.23" y="323.93" class="st13" width="317.56" height="1.74"/>
				<rect x="63.23" y="322.19" class="st14" width="317.56" height="1.74"/>
				<rect x="63.23" y="320.45" class="st15" width="317.56" height="1.74"/>
				<rect x="63.23" y="318.72" class="st15" width="317.56" height="1.74"/>
				<rect x="63.23" y="316.98" class="st16" width="317.56" height="1.74"/>
				<rect x="63.23" y="315.24" class="st17" width="317.56" height="1.74"/>
				<rect x="63.23" y="313.5" class="st18" width="317.56" height="1.74"/>
				<rect x="63.23" y="311.76" class="st19" width="317.56" height="1.74"/>
				<rect x="63.23" y="310.03" class="st20" width="317.56" height="1.74"/>
				<rect x="63.23" y="308.29" class="st21" width="317.56" height="1.74"/>
				<rect x="63.23" y="306.55" class="st21" width="317.56" height="1.74"/>
				<rect x="63.23" y="304.81" class="st22" width="317.56" height="1.74"/>
				<rect x="63.23" y="303.07" class="st23" width="317.56" height="1.74"/>
				<rect x="63.23" y="301.34" class="st23" width="317.56" height="1.74"/>
				<rect x="63.23" y="299.6" class="st24" width="317.56" height="1.74"/>
				<rect x="63.23" y="297.86" class="st25" width="317.56" height="1.74"/>
				<rect x="63.23" y="296.12" class="st26" width="317.56" height="1.74"/>
				<rect x="63.23" y="294.38" class="st27" width="317.56" height="1.74"/>
				<rect x="63.23" y="292.65" class="st28" width="317.56" height="1.74"/>
				<rect x="63.23" y="290.91" class="st29" width="317.56" height="1.74"/>
				<rect x="63.23" y="289.17" class="st30" width="317.56" height="1.74"/>
				<rect x="63.23" y="287.43" class="st31" width="317.56" height="1.74"/>
				<rect x="63.23" y="285.69" class="st31" width="317.56" height="1.74"/>
				<rect x="63.23" y="283.96" class="st32" width="317.56" height="1.74"/>
				<rect x="63.23" y="282.22" class="st33" width="317.56" height="1.74"/>
				<rect x="63.23" y="280.48" class="st34" width="317.56" height="1.74"/>
				<rect x="63.23" y="278.74" class="st35" width="317.56" height="1.74"/>
				<rect x="63.23" y="277" class="st36" width="317.56" height="1.74"/>
				<rect x="63.23" y="275.27" class="st36" width="317.56" height="1.74"/>
				<rect x="63.23" y="273.53" class="st37" width="317.56" height="1.74"/>
				<rect x="63.23" y="271.79" class="st38" width="317.56" height="1.74"/>
				<rect x="63.23" y="270.05" class="st39" width="317.56" height="1.74"/>
				<rect x="63.23" y="268.31" class="st40" width="317.56" height="1.74"/>
				<rect x="63.23" y="266.58" class="st41" width="317.56" height="1.74"/>
				<rect x="63.23" y="264.84" class="st42" width="317.56" height="1.74"/>
				<rect x="63.23" y="263.1" class="st43" width="317.56" height="1.74"/>
				<rect x="63.23" y="261.36" class="st44" width="317.56" height="1.74"/>
				<rect x="63.23" y="259.62" class="st45" width="317.56" height="1.74"/>
				<rect x="63.23" y="257.89" class="st46" width="317.56" height="1.74"/>
				<rect x="63.23" y="256.15" class="st47" width="317.56" height="1.74"/>
				<rect x="63.23" y="254.41" class="st48" width="317.56" height="1.74"/>
				<rect x="63.23" y="252.67" class="st49" width="317.56" height="1.74"/>
				<rect x="63.23" y="250.94" class="st50" width="317.56" height="1.74"/>
				<rect x="63.23" y="249.2" class="st50" width="317.56" height="1.74"/>
				<rect x="63.23" y="247.46" class="st51" width="317.56" height="1.74"/>
				<rect x="63.23" y="245.72" class="st52" width="317.56" height="1.74"/>
				<rect x="63.23" y="243.98" class="st53" width="317.56" height="1.74"/>
				<rect x="63.23" y="242.25" class="st54" width="317.56" height="1.74"/>
				<rect x="63.23" y="240.51" class="st55" width="317.56" height="1.74"/>
				<rect x="63.23" y="238.77" class="st56" width="317.56" height="1.74"/>
				<rect x="63.23" y="237.03" class="st56" width="317.56" height="1.74"/>
				<rect x="63.23" y="235.29" class="st57" width="317.56" height="1.74"/>
				<rect x="63.23" y="233.56" class="st58" width="317.56" height="1.74"/>
				<rect x="63.23" y="231.82" class="st59" width="317.56" height="1.74"/>
				<rect x="63.23" y="230.08" class="st60" width="317.56" height="1.74"/>
				<rect x="63.23" y="228.34" class="st61" width="317.56" height="1.74"/>
				<rect x="63.23" y="226.6" class="st62" width="317.56" height="1.74"/>
				<rect x="63.23" y="224.87" class="st63" width="317.56" height="1.74"/>
				<rect x="63.23" y="223.13" class="st64" width="317.56" height="1.74"/>
				<rect x="63.23" y="221.39" class="st65" width="317.56" height="1.74"/>
				<rect x="63.23" y="219.65" class="st66" width="317.56" height="1.74"/>
				<rect x="63.23" y="217.91" class="st67" width="317.56" height="1.74"/>
				<rect x="63.23" y="216.18" class="st68" width="317.56" height="1.74"/>
				<rect x="63.23" y="214.44" class="st68" width="317.56" height="1.74"/>
				<rect x="63.23" y="212.7" class="st69" width="317.56" height="1.74"/>
				<rect x="63.23" y="210.96" class="st70" width="317.56" height="1.74"/>
				<rect x="63.23" y="209.22" class="st71" width="317.56" height="1.74"/>
				<rect x="63.23" y="207.49" class="st72" width="317.56" height="1.74"/>
				<rect x="63.23" y="205.75" class="st73" width="317.56" height="1.74"/>
				<rect x="63.23" y="204.01" class="st74" width="317.56" height="1.74"/>
				<rect x="63.23" y="202.27" class="st75" width="317.56" height="1.74"/>
				<rect x="63.23" y="200.53" class="st76" width="317.56" height="1.74"/>
				<rect x="63.23" y="198.8" class="st77" width="317.56" height="1.74"/>
				<rect x="63.23" y="197.06" class="st78" width="317.56" height="1.74"/>
				<rect x="63.23" y="195.32" class="st78" width="317.56" height="1.74"/>
				<rect x="63.23" y="193.58" class="st79" width="317.56" height="1.74"/>
				<rect x="63.23" y="191.84" class="st80" width="317.56" height="1.74"/>
				<rect x="63.23" y="190.11" class="st81" width="317.56" height="1.74"/>
				<rect x="63.23" y="188.37" class="st82" width="317.56" height="1.74"/>
				<rect x="63.23" y="186.63" class="st83" width="317.56" height="1.74"/>
				<rect x="63.23" y="184.89" class="st84" width="317.56" height="1.74"/>
				<rect x="63.23" y="183.15" class="st85" width="317.56" height="1.74"/>
				<rect x="63.23" y="181.77" class="st85" width="317.56" height="1.39"/>
				<rect x="63.23" y="180.38" class="st84" width="317.56" height="1.39"/>
				<rect x="63.23" y="178.99" class="st83" width="317.56" height="1.39"/>
				<rect x="63.23" y="177.6" class="st82" width="317.56" height="1.39"/>
				<rect x="63.23" y="176.21" class="st81" width="317.56" height="1.39"/>
				<rect x="63.23" y="174.82" class="st80" width="317.56" height="1.39"/>
				<rect x="63.23" y="173.43" class="st79" width="317.56" height="1.39"/>
				<rect x="63.23" y="172.05" class="st78" width="317.56" height="1.39"/>
				<rect x="63.23" y="170.66" class="st78" width="317.56" height="1.39"/>
				<rect x="63.23" y="169.27" class="st77" width="317.56" height="1.39"/>
				<rect x="63.23" y="167.88" class="st76" width="317.56" height="1.39"/>
				<rect x="63.23" y="166.49" class="st75" width="317.56" height="1.39"/>
				<rect x="63.23" y="165.1" class="st74" width="317.56" height="1.39"/>
				<rect x="63.23" y="163.71" class="st73" width="317.56" height="1.39"/>
				<rect x="63.23" y="162.33" class="st72" width="317.56" height="1.39"/>
				<rect x="63.23" y="160.94" class="st71" width="317.56" height="1.39"/>
				<rect x="63.23" y="159.55" class="st70" width="317.56" height="1.39"/>
				<rect x="63.23" y="158.16" class="st69" width="317.56" height="1.39"/>
				<rect x="63.23" y="156.77" class="st68" width="317.56" height="1.39"/>
				<rect x="63.23" y="155.38" class="st68" width="317.56" height="1.39"/>
				<rect x="63.23" y="153.99" class="st67" width="317.56" height="1.39"/>
				<rect x="63.23" y="152.61" class="st66" width="317.56" height="1.39"/>
				<rect x="63.23" y="151.22" class="st65" width="317.56" height="1.39"/>
				<rect x="63.23" y="149.83" class="st64" width="317.56" height="1.39"/>
				<rect x="63.23" y="148.44" class="st63" width="317.56" height="1.39"/>
				<rect x="63.23" y="147.05" class="st62" width="317.56" height="1.39"/>
				<rect x="63.23" y="145.66" class="st61" width="317.56" height="1.39"/>
				<rect x="63.23" y="144.27" class="st60" width="317.56" height="1.39"/>
				<rect x="63.23" y="142.88" class="st59" width="317.56" height="1.39"/>
				<rect x="63.23" y="141.5" class="st58" width="317.56" height="1.39"/>
				<rect x="63.23" y="140.11" class="st57" width="317.56" height="1.39"/>
				<rect x="63.23" y="138.72" class="st56" width="317.56" height="1.39"/>
				<rect x="63.23" y="137.33" class="st56" width="317.56" height="1.39"/>
				<rect x="63.23" y="135.94" class="st55" width="317.56" height="1.39"/>
				<rect x="63.23" y="134.55" class="st54" width="317.56" height="1.39"/>
				<rect x="63.23" y="133.16" class="st53" width="317.56" height="1.39"/>
				<rect x="63.23" y="131.78" class="st52" width="317.56" height="1.39"/>
				<rect x="63.23" y="130.39" class="st51" width="317.56" height="1.39"/>
				<rect x="63.23" y="129" class="st50" width="317.56" height="1.39"/>
				<rect x="63.23" y="127.61" class="st50" width="317.56" height="1.39"/>
				<rect x="63.23" y="126.22" class="st49" width="317.56" height="1.39"/>
				<rect x="63.23" y="124.83" class="st48" width="317.56" height="1.39"/>
				<rect x="63.23" y="123.44" class="st47" width="317.56" height="1.39"/>
				<rect x="63.23" y="122.06" class="st46" width="317.56" height="1.39"/>
				<rect x="63.23" y="120.67" class="st45" width="317.56" height="1.39"/>
				<rect x="63.23" y="119.28" class="st44" width="317.56" height="1.39"/>
				<rect x="63.23" y="117.89" class="st43" width="317.56" height="1.39"/>
				<rect x="63.23" y="116.5" class="st42" width="317.56" height="1.39"/>
				<rect x="63.23" y="115.11" class="st41" width="317.56" height="1.39"/>
				<rect x="63.23" y="113.72" class="st40" width="317.56" height="1.39"/>
				<rect x="63.23" y="112.34" class="st39" width="317.56" height="1.39"/>
				<rect x="63.23" y="110.95" class="st38" width="317.56" height="1.39"/>
				<rect x="63.23" y="109.56" class="st37" width="317.56" height="1.39"/>
				<rect x="63.23" y="108.17" class="st36" width="317.56" height="1.39"/>
				<rect x="63.23" y="106.78" class="st36" width="317.56" height="1.39"/>
				<rect x="63.23" y="105.39" class="st35" width="317.56" height="1.39"/>
				<rect x="63.23" y="104" class="st34" width="317.56" height="1.39"/>
				<rect x="63.23" y="102.61" class="st33" width="317.56" height="1.39"/>
				<rect x="63.23" y="101.23" class="st32" width="317.56" height="1.39"/>
				<rect x="63.23" y="99.84" class="st31" width="317.56" height="1.39"/>
				<rect x="63.23" y="98.45" class="st31" width="317.56" height="1.39"/>
				<rect x="63.23" y="97.06" class="st30" width="317.56" height="1.39"/>
				<rect x="63.23" y="95.67" class="st29" width="317.56" height="1.39"/>
				<rect x="63.23" y="94.28" class="st28" width="317.56" height="1.39"/>
				<rect x="63.23" y="92.89" class="st27" width="317.56" height="1.39"/>
				<rect x="63.23" y="91.51" class="st26" width="317.56" height="1.39"/>
				<rect x="63.23" y="90.12" class="st25" width="317.56" height="1.39"/>
				<rect x="63.23" y="88.73" class="st24" width="317.56" height="1.39"/>
				<rect x="63.23" y="87.34" class="st23" width="317.56" height="1.39"/>
				<rect x="63.23" y="85.95" class="st23" width="317.56" height="1.39"/>
				<rect x="63.23" y="84.56" class="st22" width="317.56" height="1.39"/>
				<rect x="63.23" y="83.17" class="st21" width="317.56" height="1.39"/>
				<rect x="63.23" y="81.79" class="st21" width="317.56" height="1.39"/>
				<rect x="63.23" y="80.4" class="st20" width="317.56" height="1.39"/>
				<rect x="63.23" y="79.01" class="st19" width="317.56" height="1.39"/>
				<rect x="63.23" y="77.62" class="st18" width="317.56" height="1.39"/>
				<rect x="63.23" y="76.23" class="st17" width="317.56" height="1.39"/>
				<rect x="63.23" y="74.84" class="st16" width="317.56" height="1.39"/>
				<rect x="63.23" y="73.45" class="st15" width="317.56" height="1.39"/>
				<rect x="63.23" y="72.07" class="st15" width="317.56" height="1.39"/>
				<rect x="63.23" y="70.68" class="st14" width="317.56" height="1.39"/>
				<rect x="63.23" y="69.29" class="st13" width="317.56" height="1.39"/>
				<rect x="63.23" y="67.9" class="st13" width="317.56" height="1.39"/>
				<rect x="63.23" y="66.51" class="st12" width="317.56" height="1.39"/>
				<rect x="63.23" y="65.12" class="st11" width="317.56" height="1.39"/>
				<rect x="63.23" y="63.73" class="st10" width="317.56" height="1.39"/>
				<rect x="63.23" y="62.34" class="st9" width="317.56" height="1.39"/>
				<rect x="63.23" y="60.96" class="st9" width="317.56" height="1.39"/>
				<rect x="63.23" y="59.57" class="st8" width="317.56" height="1.39"/>
				<rect x="63.23" y="58.18" class="st7" width="317.56" height="1.39"/>
				<rect x="63.23" y="56.79" class="st6" width="317.56" height="1.39"/>
				<rect x="63.23" y="55.4" class="st5" width="317.56" height="1.39"/>
				<rect x="63.23" y="54.01" class="st5" width="317.56" height="1.39"/>
				<rect x="63.23" y="52.62" class="st4" width="317.56" height="1.39"/>
				<rect x="63.23" y="51.24" class="st3" width="317.56" height="1.39"/>
				<rect x="63.23" y="49.85" class="st2" width="317.56" height="1.39"/>
				<rect x="63.23" y="48.46" class="st2" width="317.56" height="1.39"/>
				<rect x="63.23" y="47.07" class="st2" width="317.56" height="1.39"/>
				<path class="st2" d="M380.79,47.07H63.23H380.79z"/>
			</g>
		</g>
		<g class="st86">
			<path class="st87" d="M226.46,316.67c1.97,55.26,3.7,109.48,5.15,161.62c1.1,39.9,3.63,60.62,5.54,70.93
				c9.72,1.95,25.04,3.68,48.86,3.68c7.33,0,15.25-0.17,23.54-0.5c28.33-1.13,42.88-3.57,49.88-5.27c1.84-7.2,4.86-22.37,8.14-52.54
				c4.42-40.61,7.79-88.09,10.03-141.1c-6.2-1.31-12.36-2.75-18.44-4.3C314.99,337.93,271.51,321.82,226.46,316.67z"/>
		</g>
		<g class="st88">
			<path class="st87" d="M327.19,528.51L327.19,528.51c-8.46-1.45-14.2-9.55-12.75-18.01l0,0c1.45-8.46,9.55-14.2,18.01-12.75l0,0
				c8.46,1.45,14.2,9.55,12.75,18.01l0,0C343.76,524.22,335.65,529.96,327.19,528.51z"/>
		</g>
		<g class="st88">
			<path class="st87" d="M342.11,487.52L342.11,487.52c-4.23-0.72-7.1-4.78-6.38-9.01l0,0c0.72-4.23,4.78-7.1,9.01-6.38l0,0
				c4.23,0.72,7.1,4.78,6.38,9.01l0,0C350.39,485.38,346.34,488.25,342.11,487.52z"/>
		</g>
	</g>
	<g>
		<g>
			<path class="st0" d="M469.52,582.37c-8.66-4.83-12.66-26.48-12.03-64.92c0.63-38.44,1.97-61.87,4.01-70.27
				c14.26-59.83,40.73-104.7,79.43-134.62c38.7-29.91,84.4-55.31,137.1-76.19c21.39-8.4,31.25-17.19,29.6-26.35
				c-1.66-9.17-7.83-15.97-18.52-20.43c-10.69-4.45-22.34-5.28-34.94-2.48c-12.6,2.8-19.16,11.71-19.67,26.73
				c-0.51,5.6-2.55,10.44-6.11,14.51c-7.13,7.64-20.18,11.33-39.14,11.07c-18.97-0.25-37.62-2.29-55.95-6.11
				c-12.48-2.54-24.12-5.85-34.94-9.93c-10.82-4.07-20.43-11.07-28.83-21c-9.93-11.46-7.77-31.95,6.49-61.48
				c14.26-29.53,27.11-50.28,38.57-62.25c36.66-37.93,81.21-60.59,133.66-67.98c52.45-7.38,101.2,0.89,146.26,24.82
				c42.77,22.91,74.47,60.21,95.09,111.89c20.62,51.69,18.33,99.93-6.87,144.74c-21.64,38.44-52.96,63.97-93.95,76.57
				c-40.99,12.6-71.8,29.21-92.42,49.84c32.33-0.76,64.67-1.78,97-3.06c32.33-1.27,53.72-1.27,64.16,0
				c9.93,0.51,18.27,8.34,25.01,23.49c6.74,15.15,11.46,32.27,14.13,51.36c2.67,19.09,3.18,37.62,1.53,55.57
				c-1.66,17.95-5.92,29.98-12.79,36.09c-3.82,3.57-26.22,6.11-67.21,7.64c-40.99,1.53-86.06,2.29-135.19,2.29
				c-49.14,0-95.09-0.76-137.86-2.29C502.36,588.1,477.16,585.68,469.52,582.37z"/>
			<path class="st1" d="M682.99,600c-49.12,0-95.6-0.77-138.15-2.29c-58.85-2.11-73.01-5.53-78.54-7.93
				c-0.25-0.1-0.49-0.23-0.73-0.35c-12.05-6.73-16.89-28.31-16.17-72.12c0.86-52.51,2.83-66.27,4.24-72.04
				c14.62-61.36,42.33-108.17,82.34-139.09c39.09-30.24,85.88-56.25,139.07-77.32c19.13-7.51,25.22-14.06,24.61-17.4
				c-0.73-4.04-2.94-9.94-13.67-14.41c-9.2-3.84-19.05-4.52-30.09-2.06c-6.32,1.4-12.85,4.77-13.35,19.13
				c-0.69,7.78-3.42,14.2-8.11,19.56c-9.01,9.66-23.8,14.22-45.33,13.82c-19.41-0.27-38.75-2.37-57.48-6.29
				c-12.8-2.6-24.97-6.06-36.14-10.26c-12.08-4.56-22.9-12.41-32.16-23.36c-12.31-14.19-10.57-37.18,5.38-70.21
				c14.76-30.57,27.85-51.61,40.01-64.33c37.79-39.1,84.33-62.77,138.37-70.39c53.89-7.63,104.77,1.05,151.18,25.69
				c44.33,23.74,77.56,62.77,98.81,116.04c21.47,53.81,19,104.84-7.34,151.68c-22.59,40.14-55.77,67.17-98.62,80.34
				c-29.39,9.03-53.49,20.24-71.97,33.46c24.62-0.68,49.24-1.5,73.86-2.47c33.07-1.29,54.47-1.29,65.45,0.06
				c12.6,0.62,23.36,10.13,31.41,28.22c7.03,15.78,11.99,33.79,14.76,53.52c2.75,19.65,3.27,38.96,1.57,57.43
				c-1.87,20.26-6.94,33.8-15.48,41.39c-3.02,2.83-7.8,7.27-72.27,9.68C777.7,599.23,732.11,600,682.99,600z M473.24,575.17
				c4.49,1.67,19.9,4.53,72.18,6.39c42.36,1.52,88.65,2.29,137.57,2.29c48.92,0,94.3-0.77,134.89-2.29
				c51.4-1.91,60.94-5.04,62.64-5.96c3.12-2.85,7.81-10.81,9.62-30.44c1.59-17.22,1.09-35.3-1.48-53.7
				c-2.56-18.24-7.1-34.8-13.51-49.2c-5.38-12.07-11.45-18.36-18.04-18.7c-10.54-1.28-31.67-1.24-63.43,0.01
				c-32.38,1.28-64.76,2.29-97.13,3.06c-3.36-0.15-6.32-1.87-7.62-4.9c-1.3-3.03-0.62-6.55,1.72-8.89
				c21.46-21.48,53.68-38.92,95.76-51.87c38.75-11.91,68.79-36.41,89.28-72.81c24.16-42.95,26.25-88.02,6.41-137.77
				c-19.8-49.63-50.55-85.88-91.4-107.77c-43.3-22.98-90.86-31.03-141.32-23.94c-50.39,7.1-93.78,29.16-128.97,65.59
				c-10.8,11.27-23.29,31.53-37.11,60.13c-12.49,25.86-15.14,44.08-7.67,52.69c7.52,8.89,16.1,15.16,25.58,18.74
				c10.37,3.91,21.71,7.13,33.7,9.57c17.76,3.7,36.06,5.71,54.45,5.95c16.23,0.34,27.71-2.7,33.12-8.51
				c2.26-2.58,3.62-5.82,3.97-9.72c0.61-18.1,9.84-30.31,25.96-33.9c14.22-3.14,27.62-2.17,39.8,2.92
				c16.61,6.92,21.87,18.21,23.36,26.45c3.67,20.29-25.12,31.6-34.59,35.31c-51.75,20.5-97.22,45.75-135.11,75.06
				c-37.02,28.61-62.77,72.38-76.52,130.09c-1.31,5.38-3.02,21.6-3.79,68.54C464.78,565.81,471.87,574.03,473.24,575.17z"/>
		</g>
		<g class="st86">
			<path class="st87" d="M744.85,342.82c-8.81-1.46-17.55-3.29-26.21-5.53c-32.29-8.35-63.09-21.73-94.67-32.4
				c-21.46,11.88-41.22,24.78-59.13,38.62c-31.71,24.51-53.07,61.39-65.29,112.67c-0.35,1.72-2.16,12.77-2.97,61.92
				c-0.23,13.79,0.24,23.27,0.85,29.62c9.49,0.91,24.76,1.97,49.09,2.84c42.11,1.5,88.02,2.26,136.47,2.26
				c48.42,0,93.42-0.76,133.73-2.26c20.8-0.77,33.83-1.73,41.83-2.54c0.25-1.62,0.49-3.5,0.69-5.7c1.37-14.87,0.93-30.54-1.31-46.56
				c-2.15-15.38-5.9-29.13-11.12-40.87c-0.16-0.37-0.32-0.71-0.47-1.03c-2.98-0.13-7.1-0.22-12.69-0.22
				c-10.13,0-23.17,0.31-38.75,0.92c-32.22,1.27-65.07,2.31-97.62,3.07l-97.63,2.31l69.05-69.05
				C688,371.6,713.1,355.74,744.85,342.82z"/>
		</g>
		<g>
			<g>
				<defs>
					<path id="SVGID_3_" d="M744.85,342.82c10.13-4.12,20.92-7.95,32.43-11.49c31.33-9.63,54.67-28.73,71.35-58.36
						c19.27-34.26,20.79-70.59,4.64-111.07c-17.26-43.25-42.52-73.32-77.11-91.85c-28.97-15.39-58.89-22.87-91.45-22.87
						c-10.08,0-20.52,0.75-31.02,2.23c-43.98,6.19-80.28,24.65-110.87,56.29c-4.82,5.04-15.34,18.52-31.6,52.21
						c-5.78,11.96-7.73,19.21-8.39,22.89c2.97,2.8,6.04,4.77,9.29,5.99c8.84,3.33,18.59,6.09,29.14,8.24
						c15.81,3.3,32.12,5.08,48.5,5.29l1.3,0.01c2.23,0,4.11-0.08,5.66-0.2c4.88-26.56,22.53-45.32,48.95-51.2
						c7.62-1.7,15.24-2.55,22.64-2.55c12.44,0,24.49,2.39,35.83,7.11c23.01,9.59,37.91,27.19,41.96,49.59
						c3.73,20.69-2.57,49.57-53.68,69.65c-24.38,9.66-47.25,20.41-68.46,32.15c31.58,10.67,62.38,24.05,94.67,32.4
						C727.3,339.52,736.05,341.36,744.85,342.82z"/>
				</defs>
				<clipPath id="SVGID_4_">
					<use xlink:href="#SVGID_3_"  style="overflow:visible;"/>
				</clipPath>
				<path class="st89" d="M502.84,342.82h366.59H502.84z"/>
				<rect x="502.84" y="341.14" class="st89" width="366.59" height="1.68"/>
				<rect x="502.84" y="339.46" class="st89" width="366.59" height="1.68"/>
				<rect x="502.84" y="337.79" class="st89" width="366.59" height="1.68"/>
				<rect x="502.84" y="336.11" class="st90" width="366.59" height="1.68"/>
				<rect x="502.84" y="334.43" class="st91" width="366.59" height="1.68"/>
				<rect x="502.84" y="332.76" class="st92" width="366.59" height="1.68"/>
				<rect x="502.84" y="331.08" class="st92" width="366.59" height="1.68"/>
				<rect x="502.84" y="329.4" class="st93" width="366.59" height="1.68"/>
				<rect x="502.84" y="327.73" class="st94" width="366.59" height="1.68"/>
				<rect x="502.84" y="326.05" class="st95" width="366.59" height="1.68"/>
				<rect x="502.84" y="324.37" class="st96" width="366.59" height="1.68"/>
				<rect x="502.84" y="322.7" class="st96" width="366.59" height="1.68"/>
				<rect x="502.84" y="321.02" class="st97" width="366.59" height="1.68"/>
				<rect x="502.84" y="319.34" class="st98" width="366.59" height="1.68"/>
				<rect x="502.84" y="317.66" class="st99" width="366.59" height="1.68"/>
				<rect x="502.84" y="315.99" class="st100" width="366.59" height="1.68"/>
				<rect x="502.84" y="314.31" class="st100" width="366.59" height="1.68"/>
				<rect x="502.84" y="312.63" class="st101" width="366.59" height="1.68"/>
				<rect x="502.84" y="310.96" class="st102" width="366.59" height="1.68"/>
				<rect x="502.84" y="309.28" class="st102" width="366.59" height="1.68"/>
				<rect x="502.84" y="307.6" class="st103" width="366.59" height="1.68"/>
				<rect x="502.84" y="305.93" class="st104" width="366.59" height="1.68"/>
				<rect x="502.84" y="304.25" class="st105" width="366.59" height="1.68"/>
				<rect x="502.84" y="302.57" class="st106" width="366.59" height="1.68"/>
				<rect x="502.84" y="300.9" class="st107" width="366.59" height="1.68"/>
				<rect x="502.84" y="299.22" class="st108" width="366.59" height="1.68"/>
				<rect x="502.84" y="297.54" class="st108" width="366.59" height="1.68"/>
				<rect x="502.84" y="295.86" class="st109" width="366.59" height="1.68"/>
				<rect x="502.84" y="294.19" class="st110" width="366.59" height="1.68"/>
				<rect x="502.84" y="292.51" class="st110" width="366.59" height="1.68"/>
				<rect x="502.84" y="290.83" class="st111" width="366.59" height="1.68"/>
				<rect x="502.84" y="289.16" class="st112" width="366.59" height="1.68"/>
				<rect x="502.84" y="287.48" class="st113" width="366.59" height="1.68"/>
				<rect x="502.84" y="285.8" class="st114" width="366.59" height="1.68"/>
				<rect x="502.84" y="284.13" class="st115" width="366.59" height="1.68"/>
				<rect x="502.84" y="282.45" class="st116" width="366.59" height="1.68"/>
				<rect x="502.84" y="280.77" class="st117" width="366.59" height="1.68"/>
				<rect x="502.84" y="279.1" class="st118" width="366.59" height="1.68"/>
				<rect x="502.84" y="277.42" class="st118" width="366.59" height="1.68"/>
				<rect x="502.84" y="275.74" class="st119" width="366.59" height="1.68"/>
				<rect x="502.84" y="274.07" class="st120" width="366.59" height="1.68"/>
				<rect x="502.84" y="272.39" class="st121" width="366.59" height="1.68"/>
				<rect x="502.84" y="270.71" class="st122" width="366.59" height="1.68"/>
				<rect x="502.84" y="269.03" class="st123" width="366.59" height="1.68"/>
				<rect x="502.84" y="267.36" class="st123" width="366.59" height="1.68"/>
				<rect x="502.84" y="265.68" class="st124" width="366.59" height="1.68"/>
				<rect x="502.84" y="264" class="st125" width="366.59" height="1.68"/>
				<rect x="502.84" y="262.33" class="st126" width="366.59" height="1.68"/>
				<rect x="502.84" y="260.65" class="st127" width="366.59" height="1.68"/>
				<rect x="502.84" y="258.97" class="st128" width="366.59" height="1.68"/>
				<rect x="502.84" y="257.3" class="st129" width="366.59" height="1.68"/>
				<rect x="502.84" y="255.62" class="st130" width="366.59" height="1.68"/>
				<rect x="502.84" y="253.94" class="st131" width="366.59" height="1.68"/>
				<rect x="502.84" y="252.27" class="st132" width="366.59" height="1.68"/>
				<rect x="502.84" y="250.59" class="st133" width="366.59" height="1.68"/>
				<rect x="502.84" y="248.91" class="st134" width="366.59" height="1.68"/>
				<rect x="502.84" y="247.23" class="st135" width="366.59" height="1.68"/>
				<rect x="502.84" y="245.56" class="st136" width="366.59" height="1.68"/>
				<rect x="502.84" y="243.88" class="st137" width="366.59" height="1.68"/>
				<rect x="502.84" y="242.2" class="st137" width="366.59" height="1.68"/>
				<rect x="502.84" y="240.53" class="st138" width="366.59" height="1.68"/>
				<rect x="502.84" y="238.85" class="st139" width="366.59" height="1.68"/>
				<rect x="502.84" y="237.17" class="st140" width="366.59" height="1.68"/>
				<rect x="502.84" y="235.5" class="st141" width="366.59" height="1.68"/>
				<rect x="502.84" y="233.82" class="st142" width="366.59" height="1.68"/>
				<rect x="502.84" y="232.14" class="st143" width="366.59" height="1.68"/>
				<rect x="502.84" y="230.47" class="st143" width="366.59" height="1.68"/>
				<rect x="502.84" y="228.79" class="st144" width="366.59" height="1.68"/>
				<rect x="502.84" y="227.11" class="st145" width="366.59" height="1.68"/>
				<rect x="502.84" y="225.43" class="st146" width="366.59" height="1.68"/>
				<rect x="502.84" y="223.76" class="st147" width="366.59" height="1.68"/>
				<rect x="502.84" y="222.08" class="st148" width="366.59" height="1.68"/>
				<rect x="502.84" y="220.4" class="st149" width="366.59" height="1.68"/>
				<rect x="502.84" y="218.73" class="st150" width="366.59" height="1.68"/>
				<rect x="502.84" y="217.05" class="st151" width="366.59" height="1.68"/>
				<rect x="502.84" y="215.37" class="st152" width="366.59" height="1.68"/>
				<rect x="502.84" y="213.7" class="st153" width="366.59" height="1.68"/>
				<rect x="502.84" y="212.02" class="st154" width="366.59" height="1.68"/>
				<rect x="502.84" y="210.34" class="st155" width="366.59" height="1.68"/>
				<rect x="502.84" y="208.67" class="st155" width="366.59" height="1.68"/>
				<rect x="502.84" y="206.99" class="st156" width="366.59" height="1.68"/>
				<rect x="502.84" y="205.31" class="st157" width="366.59" height="1.68"/>
				<rect x="502.84" y="203.63" class="st158" width="366.59" height="1.68"/>
				<rect x="502.84" y="201.96" class="st159" width="366.59" height="1.68"/>
				<rect x="502.84" y="200.28" class="st160" width="366.59" height="1.68"/>
				<rect x="502.84" y="198.6" class="st161" width="366.59" height="1.68"/>
				<rect x="502.84" y="196.93" class="st162" width="366.59" height="1.68"/>
				<rect x="502.84" y="195.25" class="st163" width="366.59" height="1.68"/>
				<rect x="502.84" y="193.57" class="st164" width="366.59" height="1.68"/>
				<rect x="502.84" y="191.9" class="st165" width="366.59" height="1.68"/>
				<rect x="502.84" y="190.22" class="st165" width="366.59" height="1.68"/>
				<rect x="502.84" y="188.54" class="st166" width="366.59" height="1.68"/>
				<rect x="502.84" y="186.87" class="st167" width="366.59" height="1.68"/>
				<rect x="502.84" y="185.19" class="st168" width="366.59" height="1.68"/>
				<rect x="502.84" y="183.51" class="st169" width="366.59" height="1.68"/>
				<rect x="502.84" y="181.83" class="st170" width="366.59" height="1.68"/>
				<rect x="502.84" y="180.16" class="st171" width="366.59" height="1.68"/>
				<rect x="502.84" y="178.48" class="st172" width="366.59" height="1.68"/>
				<rect x="502.84" y="177.14" class="st172" width="366.59" height="1.34"/>
				<rect x="502.84" y="175.8" class="st171" width="366.59" height="1.34"/>
				<rect x="502.84" y="174.46" class="st170" width="366.59" height="1.34"/>
				<rect x="502.84" y="173.12" class="st169" width="366.59" height="1.34"/>
				<rect x="502.84" y="171.78" class="st168" width="366.59" height="1.34"/>
				<rect x="502.84" y="170.44" class="st167" width="366.59" height="1.34"/>
				<rect x="502.84" y="169.1" class="st166" width="366.59" height="1.34"/>
				<rect x="502.84" y="167.76" class="st165" width="366.59" height="1.34"/>
				<rect x="502.84" y="166.42" class="st165" width="366.59" height="1.34"/>
				<rect x="502.84" y="165.08" class="st164" width="366.59" height="1.34"/>
				<rect x="502.84" y="163.74" class="st163" width="366.59" height="1.34"/>
				<rect x="502.84" y="162.4" class="st162" width="366.59" height="1.34"/>
				<rect x="502.84" y="161.06" class="st161" width="366.59" height="1.34"/>
				<rect x="502.84" y="159.72" class="st160" width="366.59" height="1.34"/>
				<rect x="502.84" y="158.38" class="st159" width="366.59" height="1.34"/>
				<rect x="502.84" y="157.04" class="st158" width="366.59" height="1.34"/>
				<rect x="502.84" y="155.7" class="st157" width="366.59" height="1.34"/>
				<rect x="502.84" y="154.36" class="st156" width="366.59" height="1.34"/>
				<rect x="502.84" y="153.02" class="st155" width="366.59" height="1.34"/>
				<rect x="502.84" y="151.68" class="st155" width="366.59" height="1.34"/>
				<rect x="502.84" y="150.34" class="st154" width="366.59" height="1.34"/>
				<rect x="502.84" y="149" class="st153" width="366.59" height="1.34"/>
				<rect x="502.84" y="147.66" class="st152" width="366.59" height="1.34"/>
				<rect x="502.84" y="146.32" class="st151" width="366.59" height="1.34"/>
				<rect x="502.84" y="144.98" class="st150" width="366.59" height="1.34"/>
				<rect x="502.84" y="143.64" class="st149" width="366.59" height="1.34"/>
				<rect x="502.84" y="142.3" class="st148" width="366.59" height="1.34"/>
				<rect x="502.84" y="140.96" class="st147" width="366.59" height="1.34"/>
				<rect x="502.84" y="139.62" class="st146" width="366.59" height="1.34"/>
				<rect x="502.84" y="138.29" class="st145" width="366.59" height="1.34"/>
				<rect x="502.84" y="136.95" class="st144" width="366.59" height="1.34"/>
				<rect x="502.84" y="135.61" class="st143" width="366.59" height="1.34"/>
				<rect x="502.84" y="134.27" class="st143" width="366.59" height="1.34"/>
				<rect x="502.84" y="132.93" class="st142" width="366.59" height="1.34"/>
				<rect x="502.84" y="131.59" class="st141" width="366.59" height="1.34"/>
				<rect x="502.84" y="130.25" class="st140" width="366.59" height="1.34"/>
				<rect x="502.84" y="128.91" class="st139" width="366.59" height="1.34"/>
				<rect x="502.84" y="127.57" class="st138" width="366.59" height="1.34"/>
				<rect x="502.84" y="126.23" class="st137" width="366.59" height="1.34"/>
				<rect x="502.84" y="124.89" class="st137" width="366.59" height="1.34"/>
				<rect x="502.84" y="123.55" class="st136" width="366.59" height="1.34"/>
				<rect x="502.84" y="122.21" class="st135" width="366.59" height="1.34"/>
				<rect x="502.84" y="120.87" class="st134" width="366.59" height="1.34"/>
				<rect x="502.84" y="119.53" class="st133" width="366.59" height="1.34"/>
				<rect x="502.84" y="118.19" class="st132" width="366.59" height="1.34"/>
				<rect x="502.84" y="116.85" class="st131" width="366.59" height="1.34"/>
				<rect x="502.84" y="115.51" class="st130" width="366.59" height="1.34"/>
				<rect x="502.84" y="114.17" class="st129" width="366.59" height="1.34"/>
				<rect x="502.84" y="112.83" class="st128" width="366.59" height="1.34"/>
				<rect x="502.84" y="111.49" class="st127" width="366.59" height="1.34"/>
				<rect x="502.84" y="110.15" class="st126" width="366.59" height="1.34"/>
				<rect x="502.84" y="108.81" class="st125" width="366.59" height="1.34"/>
				<rect x="502.84" y="107.47" class="st124" width="366.59" height="1.34"/>
				<rect x="502.84" y="106.13" class="st123" width="366.59" height="1.34"/>
				<rect x="502.84" y="104.79" class="st123" width="366.59" height="1.34"/>
				<rect x="502.84" y="103.45" class="st122" width="366.59" height="1.34"/>
				<rect x="502.84" y="102.11" class="st121" width="366.59" height="1.34"/>
				<rect x="502.84" y="100.77" class="st120" width="366.59" height="1.34"/>
				<rect x="502.84" y="99.43" class="st119" width="366.59" height="1.34"/>
				<rect x="502.84" y="98.09" class="st118" width="366.59" height="1.34"/>
				<rect x="502.84" y="96.75" class="st118" width="366.59" height="1.34"/>
				<rect x="502.84" y="95.41" class="st117" width="366.59" height="1.34"/>
				<rect x="502.84" y="94.07" class="st116" width="366.59" height="1.34"/>
				<rect x="502.84" y="92.73" class="st115" width="366.59" height="1.34"/>
				<rect x="502.84" y="91.39" class="st114" width="366.59" height="1.34"/>
				<rect x="502.84" y="90.05" class="st113" width="366.59" height="1.34"/>
				<rect x="502.84" y="88.71" class="st112" width="366.59" height="1.34"/>
				<rect x="502.84" y="87.37" class="st111" width="366.59" height="1.34"/>
				<rect x="502.84" y="86.03" class="st110" width="366.59" height="1.34"/>
				<rect x="502.84" y="84.69" class="st110" width="366.59" height="1.34"/>
				<rect x="502.84" y="83.35" class="st109" width="366.59" height="1.34"/>
				<rect x="502.84" y="82.01" class="st108" width="366.59" height="1.34"/>
				<rect x="502.84" y="80.67" class="st108" width="366.59" height="1.34"/>
				<rect x="502.84" y="79.33" class="st107" width="366.59" height="1.34"/>
				<rect x="502.84" y="77.99" class="st106" width="366.59" height="1.34"/>
				<rect x="502.84" y="76.65" class="st105" width="366.59" height="1.34"/>
				<rect x="502.84" y="75.31" class="st104" width="366.59" height="1.34"/>
				<rect x="502.84" y="73.97" class="st103" width="366.59" height="1.34"/>
				<rect x="502.84" y="72.63" class="st102" width="366.59" height="1.34"/>
				<rect x="502.84" y="71.29" class="st102" width="366.59" height="1.34"/>
				<rect x="502.84" y="69.95" class="st101" width="366.59" height="1.34"/>
				<rect x="502.84" y="68.61" class="st100" width="366.59" height="1.34"/>
				<rect x="502.84" y="67.27" class="st100" width="366.59" height="1.34"/>
				<rect x="502.84" y="65.93" class="st99" width="366.59" height="1.34"/>
				<rect x="502.84" y="64.59" class="st98" width="366.59" height="1.34"/>
				<rect x="502.84" y="63.25" class="st97" width="366.59" height="1.34"/>
				<rect x="502.84" y="61.91" class="st96" width="366.59" height="1.34"/>
				<rect x="502.84" y="60.57" class="st96" width="366.59" height="1.34"/>
				<rect x="502.84" y="59.23" class="st95" width="366.59" height="1.34"/>
				<rect x="502.84" y="57.89" class="st94" width="366.59" height="1.34"/>
				<rect x="502.84" y="56.55" class="st93" width="366.59" height="1.34"/>
				<rect x="502.84" y="55.21" class="st92" width="366.59" height="1.34"/>
				<rect x="502.84" y="53.87" class="st92" width="366.59" height="1.34"/>
				<rect x="502.84" y="52.53" class="st91" width="366.59" height="1.34"/>
				<rect x="502.84" y="51.19" class="st90" width="366.59" height="1.34"/>
				<rect x="502.84" y="49.86" class="st89" width="366.59" height="1.34"/>
				<rect x="502.84" y="48.52" class="st89" width="366.59" height="1.34"/>
				<rect x="502.84" y="47.18" class="st89" width="366.59" height="1.34"/>
				<path class="st89" d="M869.43,47.18H502.84H869.43z"/>
			</g>
		</g>
		<g class="st88">
			<path class="st87" d="M820.21,532.24L820.21,532.24c-8.48-1.45-14.23-9.57-12.78-18.05l0,0c1.45-8.48,9.57-14.23,18.05-12.78l0,0
				c8.48,1.45,14.23,9.57,12.78,18.05l0,0C836.82,527.94,828.69,533.69,820.21,532.24z"/>
		</g>
		<g class="st88">
			<path class="st87" d="M835.17,491.16L835.17,491.16c-4.24-0.72-7.12-4.79-6.39-9.03l0,0c0.72-4.24,4.79-7.12,9.03-6.39l0,0
				c4.24,0.72,7.12,4.79,6.39,9.03l0,0C843.47,489.01,839.41,491.88,835.17,491.16z"/>
		</g>
	</g>
</g>
</svg>
