<?xml version="1.0" encoding="utf-8"?>
<!-- Generator: Adobe Illustrator 24.1.0, SVG Export Plug-In . SVG Version: 6.00 Build 0)  -->
<svg version="1.1" id="Layer_1" xmlns="http://www.w3.org/2000/svg" xmlns:xlink="http://www.w3.org/1999/xlink" x="0px" y="0px"
	 viewBox="0 0 600 600" style="enable-background:new 0 0 600 600;" xml:space="preserve">
<style type="text/css">
	.st0{fill:#F7DE03;}
	.st1{fill:#E3A925;}
	.st2{clip-path:url(#SVGID_2_);fill:#FFFFFF;}
	.st3{clip-path:url(#SVGID_2_);fill:#FFFFFD;}
	.st4{clip-path:url(#SVGID_2_);fill:#FFFFFC;}
	.st5{clip-path:url(#SVGID_2_);fill:#FFFFFA;}
	.st6{clip-path:url(#SVGID_2_);fill:#FFFEF9;}
	.st7{clip-path:url(#SVGID_2_);fill:#FFFEF8;}
	.st8{clip-path:url(#SVGID_2_);fill:#FFFEF6;}
	.st9{clip-path:url(#SVGID_2_);fill:#FFFEF5;}
	.st10{clip-path:url(#SVGID_2_);fill:#FFFEF4;}
	.st11{clip-path:url(#SVGID_2_);fill:#FFFEF3;}
	.st12{clip-path:url(#SVGID_2_);fill:#FFFEF2;}
	.st13{clip-path:url(#SVGID_2_);fill:#FFFEF1;}
	.st14{clip-path:url(#SVGID_2_);fill:#FFFEEF;}
	.st15{clip-path:url(#SVGID_2_);fill:#FEFDEE;}
	.st16{clip-path:url(#SVGID_2_);fill:#FEFDED;}
	.st17{clip-path:url(#SVGID_2_);fill:#FEFDEB;}
	.st18{clip-path:url(#SVGID_2_);fill:#FFFDEA;}
	.st19{clip-path:url(#SVGID_2_);fill:#FFFCEA;}
	.st20{clip-path:url(#SVGID_2_);fill:#FDFCE8;}
	.st21{clip-path:url(#SVGID_2_);fill:#FDFCE7;}
	.st22{clip-path:url(#SVGID_2_);fill:#FDFBE5;}
	.st23{clip-path:url(#SVGID_2_);fill:#FDFBE4;}
	.st24{clip-path:url(#SVGID_2_);fill:#FDFBE2;}
	.st25{clip-path:url(#SVGID_2_);fill:#FDFBE1;}
	.st26{clip-path:url(#SVGID_2_);fill:#FDFBE0;}
	.st27{clip-path:url(#SVGID_2_);fill:#FEFBDF;}
	.st28{clip-path:url(#SVGID_2_);fill:#FEFBDE;}
	.st29{clip-path:url(#SVGID_2_);fill:#FEFBDD;}
	.st30{clip-path:url(#SVGID_2_);fill:#FEFBDC;}
	.st31{clip-path:url(#SVGID_2_);fill:#FCFADB;}
	.st32{clip-path:url(#SVGID_2_);fill:#FCFADA;}
	.st33{clip-path:url(#SVGID_2_);fill:#FCFAD9;}
	.st34{clip-path:url(#SVGID_2_);fill:#FCFAD8;}
	.st35{clip-path:url(#SVGID_2_);fill:#FDFAD7;}
	.st36{clip-path:url(#SVGID_2_);fill:#FDFAD5;}
	.st37{clip-path:url(#SVGID_2_);fill:#FDFAD4;}
	.st38{clip-path:url(#SVGID_2_);fill:#FDF9D2;}
	.st39{clip-path:url(#SVGID_2_);fill:#FCF9D2;}
	.st40{clip-path:url(#SVGID_2_);fill:#FCF9D1;}
	.st41{clip-path:url(#SVGID_2_);fill:#FCF9CF;}
	.st42{clip-path:url(#SVGID_2_);fill:#FCF9CE;}
	.st43{clip-path:url(#SVGID_2_);fill:#FCF8CD;}
	.st44{clip-path:url(#SVGID_2_);fill:#FCF8CC;}
	.st45{clip-path:url(#SVGID_2_);fill:#FCF8CB;}
	.st46{clip-path:url(#SVGID_2_);fill:#FCF8CA;}
	.st47{clip-path:url(#SVGID_2_);fill:#FCF8C9;}
	.st48{clip-path:url(#SVGID_2_);fill:#FCF8C8;}
	.st49{clip-path:url(#SVGID_2_);fill:#FCF8C7;}
	.st50{clip-path:url(#SVGID_2_);fill:#FCF8C6;}
	.st51{clip-path:url(#SVGID_2_);fill:#FCF8C5;}
	.st52{clip-path:url(#SVGID_2_);fill:#FCF8C3;}
	.st53{clip-path:url(#SVGID_2_);fill:#FDF8C2;}
	.st54{clip-path:url(#SVGID_2_);fill:#FDF8C1;}
	.st55{clip-path:url(#SVGID_2_);fill:#FDF8C0;}
	.st56{clip-path:url(#SVGID_2_);fill:#FBF7BF;}
	.st57{clip-path:url(#SVGID_2_);fill:#FCF7BE;}
	.st58{clip-path:url(#SVGID_2_);fill:#FCF7BD;}
	.st59{clip-path:url(#SVGID_2_);fill:#FCF7BC;}
	.st60{clip-path:url(#SVGID_2_);fill:#FCF7BB;}
	.st61{clip-path:url(#SVGID_2_);fill:#FCF7BA;}
	.st62{clip-path:url(#SVGID_2_);fill:#FCF7B9;}
	.st63{clip-path:url(#SVGID_2_);fill:#FCF6B7;}
	.st64{clip-path:url(#SVGID_2_);fill:#FCF6B6;}
	.st65{clip-path:url(#SVGID_2_);fill:#FCF6B5;}
	.st66{clip-path:url(#SVGID_2_);fill:#FCF6B4;}
	.st67{clip-path:url(#SVGID_2_);fill:#FCF6B3;}
	.st68{clip-path:url(#SVGID_2_);fill:#FBF6B2;}
	.st69{clip-path:url(#SVGID_2_);fill:#FBF6B1;}
	.st70{clip-path:url(#SVGID_2_);fill:#FBF5B0;}
	.st71{clip-path:url(#SVGID_2_);fill:#FBF5AF;}
	.st72{clip-path:url(#SVGID_2_);fill:#FBF5AE;}
	.st73{clip-path:url(#SVGID_2_);fill:#FBF5AD;}
	.st74{clip-path:url(#SVGID_2_);fill:#FBF5AC;}
	.st75{clip-path:url(#SVGID_2_);fill:#FBF5AB;}
	.st76{clip-path:url(#SVGID_2_);fill:#FBF5AA;}
	.st77{clip-path:url(#SVGID_2_);fill:#FBF5A9;}
	.st78{clip-path:url(#SVGID_2_);fill:#FCF5A8;}
	.st79{clip-path:url(#SVGID_2_);fill:#FCF5A7;}
	.st80{clip-path:url(#SVGID_2_);fill:#FCF5A6;}
	.st81{clip-path:url(#SVGID_2_);fill:#FCF5A4;}
	.st82{clip-path:url(#SVGID_2_);fill:#FBF4A4;}
	.st83{clip-path:url(#SVGID_2_);fill:#FBF4A2;}
	.st84{clip-path:url(#SVGID_2_);fill:#FBF4A1;}
	.st85{clip-path:url(#SVGID_2_);fill:#FBF4A0;}
	.st86{opacity:0.2;}
	.st87{fill:#FFFFFF;}
	.st88{opacity:0.6;}
</style>
<g>
	<g>
		<path class="st0" d="M469.49,573.29c-5.33,10.16-31.88,16.19-79.63,18.1c-47.75,1.9-81.53-1.33-101.34-9.72
			c-9.66-4.06-15.37-38.16-17.14-102.29c-1.78-64.13-3.94-130.11-6.48-197.92c-16.51,6.86-33.21,13.21-50.1,19.05
			c-16.89,5.84-27.5,8.38-31.81,7.62c-11.43,0.26-27.37-17.91-47.81-54.48c-20.45-36.57-31.56-65.78-33.34-87.63
			c-0.76-9.91,13.91-26.99,44-51.24c30.1-24.25,72.58-53.4,127.44-87.44c9.91-6.35,26.6-11.3,50.1-14.86
			c23.49-3.55,47.43-4.95,71.82-4.19c24.38,0.76,46.16,4.19,65.34,10.29c19.18,6.1,29.53,15.62,31.05,28.57
			c3.81,36.57,5.96,83.12,6.48,139.63c0.51,56.52-0.38,112.14-2.67,166.87c-2.29,54.74-5.72,103.12-10.29,145.16
			C480.54,540.84,475.33,565.67,469.49,573.29z"/>
		<path class="st1" d="M364.49,600c-35.87,0-61.88-3.6-79.12-10.89c-9.32-3.91-19.49-15.94-22.08-109.51
			c-1.67-60.18-3.7-122.8-6.04-186.3c-13.18,5.26-26.53,10.25-39.82,14.84c-22.58,7.81-30.64,8.62-35.04,8.05
			c-15.03-0.28-31.81-18.43-54.27-58.62c-21.22-37.95-32.46-67.69-34.34-90.9c-0.68-8.94,4.05-23.58,46.99-58.19
			c30.28-24.4,73.43-54.01,128.25-88.01c10.87-6.97,28.29-12.21,53.15-15.98c23.88-3.62,48.56-5.07,73.28-4.28
			c25,0.78,47.72,4.37,67.53,10.67c22.38,7.12,34.7,19,36.62,35.32c3.82,36.71,6.02,83.94,6.53,140.51
			c0.5,56.47-0.39,112.75-2.67,167.28c-2.29,54.68-5.76,103.7-10.32,145.7c-6.12,56.23-12.17,71.5-16.83,77.98
			c-5.33,9.39-20.33,19.16-86.13,21.79C381.12,599.81,372.55,600,364.49,600z M264.9,273.38c1.52,0,3.04,0.43,4.36,1.27
			c2.23,1.43,3.61,3.86,3.71,6.5c2.52,67.5,4.71,134.12,6.48,197.99c2.29,82.95,10.86,93.92,12.55,95.27
			c18.27,7.69,51.18,10.68,97.54,8.9c63.74-2.55,71.83-11.93,72.8-13.78c0.21-0.4,0.46-0.78,0.74-1.15c2.22-2.9,8.03-15.56,14-70.44
			c4.53-41.64,7.97-90.31,10.24-144.64c2.27-54.25,3.16-110.25,2.66-166.45c-0.5-56.07-2.67-102.78-6.43-138.88
			c-0.4-3.41-1.67-14.14-25.47-21.7c-18.39-5.84-39.63-9.18-63.14-9.91c-23.76-0.77-47.44,0.63-70.36,4.1
			c-22.26,3.37-38.06,7.96-46.95,13.67c-54.36,33.71-96.96,62.93-126.73,86.92c-40.66,32.78-41.1,43.26-41.02,44.34
			c1.67,20.54,12.55,48.91,32.34,84.3c26.98,48.25,38.89,50.45,40.57,50.34c0.52-0.04,1.08,0.03,1.61,0.13
			c0.72,0.11,5.94,0.25,27.75-7.3c16.61-5.74,33.32-12.09,49.64-18.87C262.8,273.58,263.85,273.38,264.9,273.38z"/>
	</g>
	<g>
		<g>
			<defs>
				<path id="SVGID_1_" d="M459.05,187.13c-0.47-51.83-2.37-95.39-5.64-129.63c-1.15-0.51-2.69-1.11-4.69-1.74
					c-15.66-4.98-34.08-7.83-54.74-8.47c-3.89-0.12-7.77-0.18-11.64-0.18c-17.91,0-35.78,1.33-53.11,3.96
					c-26.27,3.98-34.09,8.61-34.89,9.13l-0.48,0.3c-53.25,33.04-94.81,61.53-123.52,84.66C154,158.31,145.87,166.56,142,171.03
					c2.53,11.64,9.38,31.66,27.23,63.58c10.06,18.01,17.05,27.74,21.22,32.78c2.87-0.85,6.66-2.05,11.61-3.76
					c16.03-5.54,32.14-11.67,47.89-18.21l51.85-21.53l2.1,56.1c0.46,12.28,0.9,24.5,1.34,36.69c45.04,5.15,88.53,21.27,132.69,32.51
					c6.08,1.55,12.23,2.99,18.43,4.3c0.02-0.49,0.05-0.97,0.07-1.47C458.66,298.22,459.55,242.75,459.05,187.13z"/>
			</defs>
			<clipPath id="SVGID_2_">
				<use xlink:href="#SVGID_1_"  style="overflow:visible;"/>
			</clipPath>
			<path class="st2" d="M142,353.49h317.55H142z"/>
			<rect x="142" y="351.75" class="st2" width="317.55" height="1.74"/>
			<rect x="142" y="350.01" class="st2" width="317.55" height="1.74"/>
			<rect x="142" y="348.27" class="st2" width="317.55" height="1.74"/>
			<rect x="142" y="346.54" class="st3" width="317.55" height="1.74"/>
			<rect x="142" y="344.8" class="st4" width="317.55" height="1.74"/>
			<rect x="142" y="343.06" class="st5" width="317.55" height="1.74"/>
			<rect x="142" y="341.32" class="st5" width="317.55" height="1.74"/>
			<rect x="142" y="339.58" class="st6" width="317.55" height="1.74"/>
			<rect x="142" y="337.85" class="st7" width="317.55" height="1.74"/>
			<rect x="142" y="336.11" class="st8" width="317.55" height="1.74"/>
			<rect x="142" y="334.37" class="st9" width="317.55" height="1.74"/>
			<rect x="142" y="332.63" class="st9" width="317.55" height="1.74"/>
			<rect x="142" y="330.9" class="st10" width="317.55" height="1.74"/>
			<rect x="142" y="329.16" class="st11" width="317.55" height="1.74"/>
			<rect x="142" y="327.42" class="st12" width="317.55" height="1.74"/>
			<rect x="142" y="325.68" class="st13" width="317.55" height="1.74"/>
			<rect x="142" y="323.94" class="st13" width="317.55" height="1.74"/>
			<rect x="142" y="322.21" class="st14" width="317.55" height="1.74"/>
			<rect x="142" y="320.47" class="st15" width="317.55" height="1.74"/>
			<rect x="142" y="318.73" class="st15" width="317.55" height="1.74"/>
			<rect x="142" y="316.99" class="st16" width="317.55" height="1.74"/>
			<rect x="142" y="315.25" class="st17" width="317.55" height="1.74"/>
			<rect x="142" y="313.52" class="st18" width="317.55" height="1.74"/>
			<rect x="142" y="311.78" class="st19" width="317.55" height="1.74"/>
			<rect x="142" y="310.04" class="st20" width="317.55" height="1.74"/>
			<rect x="142" y="308.3" class="st21" width="317.55" height="1.74"/>
			<rect x="142" y="306.57" class="st21" width="317.55" height="1.74"/>
			<rect x="142" y="304.83" class="st22" width="317.55" height="1.74"/>
			<rect x="142" y="303.09" class="st23" width="317.55" height="1.74"/>
			<rect x="142" y="301.35" class="st23" width="317.55" height="1.74"/>
			<rect x="142" y="299.61" class="st24" width="317.55" height="1.74"/>
			<rect x="142" y="297.88" class="st25" width="317.55" height="1.74"/>
			<rect x="142" y="296.14" class="st26" width="317.55" height="1.74"/>
			<rect x="142" y="294.4" class="st27" width="317.55" height="1.74"/>
			<rect x="142" y="292.66" class="st28" width="317.55" height="1.74"/>
			<rect x="142" y="290.92" class="st29" width="317.55" height="1.74"/>
			<rect x="142" y="289.19" class="st30" width="317.55" height="1.74"/>
			<rect x="142" y="287.45" class="st31" width="317.55" height="1.74"/>
			<rect x="142" y="285.71" class="st31" width="317.55" height="1.74"/>
			<rect x="142" y="283.97" class="st32" width="317.55" height="1.74"/>
			<rect x="142" y="282.23" class="st33" width="317.55" height="1.74"/>
			<rect x="142" y="280.5" class="st34" width="317.55" height="1.74"/>
			<rect x="142" y="278.76" class="st35" width="317.55" height="1.74"/>
			<rect x="142" y="277.02" class="st36" width="317.55" height="1.74"/>
			<rect x="142" y="275.28" class="st36" width="317.55" height="1.74"/>
			<rect x="142" y="273.55" class="st37" width="317.55" height="1.74"/>
			<rect x="142" y="271.81" class="st38" width="317.55" height="1.74"/>
			<rect x="142" y="270.07" class="st39" width="317.55" height="1.74"/>
			<rect x="142" y="268.33" class="st40" width="317.55" height="1.74"/>
			<rect x="142" y="266.59" class="st41" width="317.55" height="1.74"/>
			<rect x="142" y="264.86" class="st42" width="317.55" height="1.74"/>
			<rect x="142" y="263.12" class="st43" width="317.55" height="1.74"/>
			<rect x="142" y="261.38" class="st44" width="317.55" height="1.74"/>
			<rect x="142" y="259.64" class="st45" width="317.55" height="1.74"/>
			<rect x="142" y="257.9" class="st46" width="317.55" height="1.74"/>
			<rect x="142" y="256.17" class="st47" width="317.55" height="1.74"/>
			<rect x="142" y="254.43" class="st48" width="317.55" height="1.74"/>
			<rect x="142" y="252.69" class="st49" width="317.55" height="1.74"/>
			<rect x="142" y="250.95" class="st50" width="317.55" height="1.74"/>
			<rect x="142" y="249.21" class="st50" width="317.55" height="1.74"/>
			<rect x="142" y="247.48" class="st51" width="317.55" height="1.74"/>
			<rect x="142" y="245.74" class="st52" width="317.55" height="1.74"/>
			<rect x="142" y="244" class="st53" width="317.55" height="1.74"/>
			<rect x="142" y="242.26" class="st54" width="317.55" height="1.74"/>
			<rect x="142" y="240.53" class="st55" width="317.55" height="1.74"/>
			<rect x="142" y="238.79" class="st56" width="317.55" height="1.74"/>
			<rect x="142" y="237.05" class="st56" width="317.55" height="1.74"/>
			<rect x="142" y="235.31" class="st57" width="317.55" height="1.74"/>
			<rect x="142" y="233.57" class="st58" width="317.55" height="1.74"/>
			<rect x="142" y="231.84" class="st59" width="317.55" height="1.74"/>
			<rect x="142" y="230.1" class="st60" width="317.55" height="1.74"/>
			<rect x="142" y="228.36" class="st61" width="317.55" height="1.74"/>
			<rect x="142" y="226.62" class="st62" width="317.55" height="1.74"/>
			<rect x="142" y="224.88" class="st63" width="317.55" height="1.74"/>
			<rect x="142" y="223.15" class="st64" width="317.55" height="1.74"/>
			<rect x="142" y="221.41" class="st65" width="317.55" height="1.74"/>
			<rect x="142" y="219.67" class="st66" width="317.55" height="1.74"/>
			<rect x="142" y="217.93" class="st67" width="317.55" height="1.74"/>
			<rect x="142" y="216.19" class="st68" width="317.55" height="1.74"/>
			<rect x="142" y="214.46" class="st68" width="317.55" height="1.74"/>
			<rect x="142" y="212.72" class="st69" width="317.55" height="1.74"/>
			<rect x="142" y="210.98" class="st70" width="317.55" height="1.74"/>
			<rect x="142" y="209.24" class="st71" width="317.55" height="1.74"/>
			<rect x="142" y="207.51" class="st72" width="317.55" height="1.74"/>
			<rect x="142" y="205.77" class="st73" width="317.55" height="1.74"/>
			<rect x="142" y="204.03" class="st74" width="317.55" height="1.74"/>
			<rect x="142" y="202.29" class="st75" width="317.55" height="1.74"/>
			<rect x="142" y="200.55" class="st76" width="317.55" height="1.74"/>
			<rect x="142" y="198.82" class="st77" width="317.55" height="1.74"/>
			<rect x="142" y="197.08" class="st78" width="317.55" height="1.74"/>
			<rect x="142" y="195.34" class="st78" width="317.55" height="1.74"/>
			<rect x="142" y="193.6" class="st79" width="317.55" height="1.74"/>
			<rect x="142" y="191.86" class="st80" width="317.55" height="1.74"/>
			<rect x="142" y="190.13" class="st81" width="317.55" height="1.74"/>
			<rect x="142" y="188.39" class="st82" width="317.55" height="1.74"/>
			<rect x="142" y="186.65" class="st83" width="317.55" height="1.74"/>
			<rect x="142" y="184.91" class="st84" width="317.55" height="1.74"/>
			<rect x="142" y="183.18" class="st85" width="317.55" height="1.74"/>
			<rect x="142" y="181.79" class="st85" width="317.55" height="1.39"/>
			<rect x="142" y="180.4" class="st84" width="317.55" height="1.39"/>
			<rect x="142" y="179.01" class="st83" width="317.55" height="1.39"/>
			<rect x="142" y="177.62" class="st82" width="317.55" height="1.39"/>
			<rect x="142" y="176.23" class="st81" width="317.55" height="1.39"/>
			<rect x="142" y="174.84" class="st80" width="317.55" height="1.39"/>
			<rect x="142" y="173.46" class="st79" width="317.55" height="1.39"/>
			<rect x="142" y="172.07" class="st78" width="317.55" height="1.39"/>
			<rect x="142" y="170.68" class="st78" width="317.55" height="1.39"/>
			<rect x="142" y="169.29" class="st77" width="317.55" height="1.39"/>
			<rect x="142" y="167.9" class="st76" width="317.55" height="1.39"/>
			<rect x="142" y="166.51" class="st75" width="317.55" height="1.39"/>
			<rect x="142" y="165.12" class="st74" width="317.55" height="1.39"/>
			<rect x="142" y="163.74" class="st73" width="317.55" height="1.39"/>
			<rect x="142" y="162.35" class="st72" width="317.55" height="1.39"/>
			<rect x="142" y="160.96" class="st71" width="317.55" height="1.39"/>
			<rect x="142" y="159.57" class="st70" width="317.55" height="1.39"/>
			<rect x="142" y="158.18" class="st69" width="317.55" height="1.39"/>
			<rect x="142" y="156.79" class="st68" width="317.55" height="1.39"/>
			<rect x="142" y="155.4" class="st68" width="317.55" height="1.39"/>
			<rect x="142" y="154.02" class="st67" width="317.55" height="1.39"/>
			<rect x="142" y="152.63" class="st66" width="317.55" height="1.39"/>
			<rect x="142" y="151.24" class="st65" width="317.55" height="1.39"/>
			<rect x="142" y="149.85" class="st64" width="317.55" height="1.39"/>
			<rect x="142" y="148.46" class="st63" width="317.55" height="1.39"/>
			<rect x="142" y="147.07" class="st62" width="317.55" height="1.39"/>
			<rect x="142" y="145.68" class="st61" width="317.55" height="1.39"/>
			<rect x="142" y="144.3" class="st60" width="317.55" height="1.39"/>
			<rect x="142" y="142.91" class="st59" width="317.55" height="1.39"/>
			<rect x="142" y="141.52" class="st58" width="317.55" height="1.39"/>
			<rect x="142" y="140.13" class="st57" width="317.55" height="1.39"/>
			<rect x="142" y="138.74" class="st56" width="317.55" height="1.39"/>
			<rect x="142" y="137.35" class="st56" width="317.55" height="1.39"/>
			<rect x="142" y="135.96" class="st55" width="317.55" height="1.39"/>
			<rect x="142" y="134.58" class="st54" width="317.55" height="1.39"/>
			<rect x="142" y="133.19" class="st53" width="317.55" height="1.39"/>
			<rect x="142" y="131.8" class="st52" width="317.55" height="1.39"/>
			<rect x="142" y="130.41" class="st51" width="317.55" height="1.39"/>
			<rect x="142" y="129.02" class="st50" width="317.55" height="1.39"/>
			<rect x="142" y="127.63" class="st50" width="317.55" height="1.39"/>
			<rect x="142" y="126.24" class="st49" width="317.55" height="1.39"/>
			<rect x="142" y="124.86" class="st48" width="317.55" height="1.39"/>
			<rect x="142" y="123.47" class="st47" width="317.55" height="1.39"/>
			<rect x="142" y="122.08" class="st46" width="317.55" height="1.39"/>
			<rect x="142" y="120.69" class="st45" width="317.55" height="1.39"/>
			<rect x="142" y="119.3" class="st44" width="317.55" height="1.39"/>
			<rect x="142" y="117.91" class="st43" width="317.55" height="1.39"/>
			<rect x="142" y="116.52" class="st42" width="317.55" height="1.39"/>
			<rect x="142" y="115.14" class="st41" width="317.55" height="1.39"/>
			<rect x="142" y="113.75" class="st40" width="317.55" height="1.39"/>
			<rect x="142" y="112.36" class="st39" width="317.55" height="1.39"/>
			<rect x="142" y="110.97" class="st38" width="317.55" height="1.39"/>
			<rect x="142" y="109.58" class="st37" width="317.55" height="1.39"/>
			<rect x="142" y="108.19" class="st36" width="317.55" height="1.39"/>
			<rect x="142" y="106.8" class="st36" width="317.55" height="1.39"/>
			<rect x="142" y="105.42" class="st35" width="317.55" height="1.39"/>
			<rect x="142" y="104.03" class="st34" width="317.55" height="1.39"/>
			<rect x="142" y="102.64" class="st33" width="317.55" height="1.39"/>
			<rect x="142" y="101.25" class="st32" width="317.55" height="1.39"/>
			<rect x="142" y="99.86" class="st31" width="317.55" height="1.39"/>
			<rect x="142" y="98.47" class="st31" width="317.55" height="1.39"/>
			<rect x="142" y="97.08" class="st30" width="317.55" height="1.39"/>
			<rect x="142" y="95.7" class="st29" width="317.55" height="1.39"/>
			<rect x="142" y="94.31" class="st28" width="317.55" height="1.39"/>
			<rect x="142" y="92.92" class="st27" width="317.55" height="1.39"/>
			<rect x="142" y="91.53" class="st26" width="317.55" height="1.39"/>
			<rect x="142" y="90.14" class="st25" width="317.55" height="1.39"/>
			<rect x="142" y="88.75" class="st24" width="317.55" height="1.39"/>
			<rect x="142" y="87.36" class="st23" width="317.55" height="1.39"/>
			<rect x="142" y="85.98" class="st23" width="317.55" height="1.39"/>
			<rect x="142" y="84.59" class="st22" width="317.55" height="1.39"/>
			<rect x="142" y="83.2" class="st21" width="317.55" height="1.39"/>
			<rect x="142" y="81.81" class="st21" width="317.55" height="1.39"/>
			<rect x="142" y="80.42" class="st20" width="317.55" height="1.39"/>
			<rect x="142" y="79.03" class="st19" width="317.55" height="1.39"/>
			<rect x="142" y="77.64" class="st18" width="317.55" height="1.39"/>
			<rect x="142" y="76.26" class="st17" width="317.55" height="1.39"/>
			<rect x="142" y="74.87" class="st16" width="317.55" height="1.39"/>
			<rect x="142" y="73.48" class="st15" width="317.55" height="1.39"/>
			<rect x="142" y="72.09" class="st15" width="317.55" height="1.39"/>
			<rect x="142" y="70.7" class="st14" width="317.55" height="1.39"/>
			<rect x="142" y="69.31" class="st13" width="317.55" height="1.39"/>
			<rect x="142" y="67.92" class="st13" width="317.55" height="1.39"/>
			<rect x="142" y="66.54" class="st12" width="317.55" height="1.39"/>
			<rect x="142" y="65.15" class="st11" width="317.55" height="1.39"/>
			<rect x="142" y="63.76" class="st10" width="317.55" height="1.39"/>
			<rect x="142" y="62.37" class="st9" width="317.55" height="1.39"/>
			<rect x="142" y="60.98" class="st9" width="317.55" height="1.39"/>
			<rect x="142" y="59.59" class="st8" width="317.55" height="1.39"/>
			<rect x="142" y="58.2" class="st7" width="317.55" height="1.39"/>
			<rect x="142" y="56.82" class="st6" width="317.55" height="1.39"/>
			<rect x="142" y="55.43" class="st5" width="317.55" height="1.39"/>
			<rect x="142" y="54.04" class="st5" width="317.55" height="1.39"/>
			<rect x="142" y="52.65" class="st4" width="317.55" height="1.39"/>
			<rect x="142" y="51.26" class="st3" width="317.55" height="1.39"/>
			<rect x="142" y="49.87" class="st2" width="317.55" height="1.39"/>
			<rect x="142" y="48.48" class="st2" width="317.55" height="1.39"/>
			<rect x="142" y="47.1" class="st2" width="317.55" height="1.39"/>
			<path class="st2" d="M459.55,47.1H142H459.55z"/>
		</g>
	</g>
	<g class="st86">
		<path class="st87" d="M305.22,316.68c1.97,55.25,3.7,109.48,5.15,161.61c1.1,39.9,3.63,60.62,5.54,70.93
			c9.71,1.95,25.04,3.68,48.86,3.68c7.33,0,15.25-0.17,23.54-0.5c28.33-1.13,42.88-3.57,49.87-5.27c1.84-7.2,4.86-22.37,8.14-52.54
			c4.42-40.6,7.79-88.08,10.03-141.1c-6.2-1.31-12.36-2.75-18.43-4.3C393.76,337.95,350.27,321.83,305.22,316.68z"/>
	</g>
	<g class="st88">
		<path class="st87" d="M405.95,528.52L405.95,528.52c-8.46-1.45-14.2-9.55-12.75-18.01l0,0c1.45-8.46,9.55-14.2,18.01-12.75l0,0
			c8.46,1.45,14.2,9.55,12.75,18.01l0,0C422.51,524.22,414.41,529.96,405.95,528.52z"/>
	</g>
	<g class="st88">
		<path class="st87" d="M420.87,487.53L420.87,487.53c-4.23-0.72-7.1-4.78-6.38-9.01l0,0c0.72-4.23,4.78-7.1,9.01-6.38l0,0
			c4.23,0.72,7.1,4.77,6.38,9.01l0,0C429.15,485.38,425.1,488.25,420.87,487.53z"/>
	</g>
</g>
</svg>
