<?xml version="1.0" encoding="utf-8"?>
<!-- Generator: Adobe Illustrator 24.1.0, SVG Export Plug-In . SVG Version: 6.00 Build 0)  -->
<svg version="1.1" id="Layer_1" xmlns="http://www.w3.org/2000/svg" xmlns:xlink="http://www.w3.org/1999/xlink" x="0px" y="0px"
	 viewBox="0 0 600 600" style="enable-background:new 0 0 600 600;" xml:space="preserve">
<style type="text/css">
	.st0{fill:#F7DE03;}
	.st1{fill:#E3A925;}
	.st2{fill:none;}
	.st3{opacity:0.2;}
	.st4{fill:#FFFFFF;}
	.st5{clip-path:url(#SVGID_2_);fill:#FFFFFF;}
	.st6{clip-path:url(#SVGID_2_);fill:#FFFFFD;}
	.st7{clip-path:url(#SVGID_2_);fill:#FFFFFC;}
	.st8{clip-path:url(#SVGID_2_);fill:#FFFFFA;}
	.st9{clip-path:url(#SVGID_2_);fill:#FFFEF9;}
	.st10{clip-path:url(#SVGID_2_);fill:#FFFEF8;}
	.st11{clip-path:url(#SVGID_2_);fill:#FFFEF6;}
	.st12{clip-path:url(#SVGID_2_);fill:#FFFEF5;}
	.st13{clip-path:url(#SVGID_2_);fill:#FFFEF4;}
	.st14{clip-path:url(#SVGID_2_);fill:#FFFEF3;}
	.st15{clip-path:url(#SVGID_2_);fill:#FFFEF2;}
	.st16{clip-path:url(#SVGID_2_);fill:#FFFEF1;}
	.st17{clip-path:url(#SVGID_2_);fill:#FFFEEF;}
	.st18{clip-path:url(#SVGID_2_);fill:#FEFDEE;}
	.st19{clip-path:url(#SVGID_2_);fill:#FEFDED;}
	.st20{clip-path:url(#SVGID_2_);fill:#FEFDEB;}
	.st21{clip-path:url(#SVGID_2_);fill:#FFFDEA;}
	.st22{clip-path:url(#SVGID_2_);fill:#FFFCEA;}
	.st23{clip-path:url(#SVGID_2_);fill:#FDFCE8;}
	.st24{clip-path:url(#SVGID_2_);fill:#FDFCE7;}
	.st25{clip-path:url(#SVGID_2_);fill:#FDFBE5;}
	.st26{clip-path:url(#SVGID_2_);fill:#FDFBE4;}
	.st27{clip-path:url(#SVGID_2_);fill:#FDFBE2;}
	.st28{clip-path:url(#SVGID_2_);fill:#FDFBE1;}
	.st29{clip-path:url(#SVGID_2_);fill:#FDFBE0;}
	.st30{clip-path:url(#SVGID_2_);fill:#FEFBDF;}
	.st31{clip-path:url(#SVGID_2_);fill:#FEFBDE;}
	.st32{clip-path:url(#SVGID_2_);fill:#FEFBDD;}
	.st33{clip-path:url(#SVGID_2_);fill:#FEFBDC;}
	.st34{clip-path:url(#SVGID_2_);fill:#FCFADB;}
	.st35{clip-path:url(#SVGID_2_);fill:#FCFADA;}
	.st36{clip-path:url(#SVGID_2_);fill:#FCFAD9;}
	.st37{clip-path:url(#SVGID_2_);fill:#FCFAD8;}
	.st38{clip-path:url(#SVGID_2_);fill:#FDFAD7;}
	.st39{clip-path:url(#SVGID_2_);fill:#FDFAD5;}
	.st40{clip-path:url(#SVGID_2_);fill:#FDFAD4;}
	.st41{clip-path:url(#SVGID_2_);fill:#FDF9D2;}
	.st42{clip-path:url(#SVGID_2_);fill:#FCF9D2;}
	.st43{clip-path:url(#SVGID_2_);fill:#FCF9D1;}
	.st44{clip-path:url(#SVGID_2_);fill:#FCF9CF;}
	.st45{clip-path:url(#SVGID_2_);fill:#FCF9CE;}
	.st46{clip-path:url(#SVGID_2_);fill:#FCF8CD;}
	.st47{clip-path:url(#SVGID_2_);fill:#FCF8CC;}
	.st48{clip-path:url(#SVGID_2_);fill:#FCF8CB;}
	.st49{clip-path:url(#SVGID_2_);fill:#FCF8CA;}
	.st50{clip-path:url(#SVGID_2_);fill:#FCF8C9;}
	.st51{clip-path:url(#SVGID_2_);fill:#FCF8C8;}
	.st52{clip-path:url(#SVGID_2_);fill:#FCF8C7;}
	.st53{clip-path:url(#SVGID_2_);fill:#FCF8C6;}
	.st54{clip-path:url(#SVGID_2_);fill:#FCF8C5;}
	.st55{clip-path:url(#SVGID_2_);fill:#FCF8C3;}
	.st56{clip-path:url(#SVGID_2_);fill:#FDF8C2;}
	.st57{clip-path:url(#SVGID_2_);fill:#FDF8C1;}
	.st58{clip-path:url(#SVGID_2_);fill:#FDF8C0;}
	.st59{clip-path:url(#SVGID_2_);fill:#FBF7BF;}
	.st60{clip-path:url(#SVGID_2_);fill:#FCF7BE;}
	.st61{clip-path:url(#SVGID_2_);fill:#FCF7BD;}
	.st62{clip-path:url(#SVGID_2_);fill:#FCF7BC;}
	.st63{clip-path:url(#SVGID_2_);fill:#FCF7BB;}
	.st64{clip-path:url(#SVGID_2_);fill:#FCF7BA;}
	.st65{clip-path:url(#SVGID_2_);fill:#FCF7B9;}
	.st66{clip-path:url(#SVGID_2_);fill:#FCF6B7;}
	.st67{clip-path:url(#SVGID_2_);fill:#FCF6B6;}
	.st68{clip-path:url(#SVGID_2_);fill:#FCF6B5;}
	.st69{clip-path:url(#SVGID_2_);fill:#FCF6B4;}
	.st70{clip-path:url(#SVGID_2_);fill:#FCF6B3;}
	.st71{clip-path:url(#SVGID_2_);fill:#FBF6B2;}
	.st72{clip-path:url(#SVGID_2_);fill:#FBF6B1;}
	.st73{clip-path:url(#SVGID_2_);fill:#FBF5B0;}
	.st74{clip-path:url(#SVGID_2_);fill:#FBF5AF;}
	.st75{clip-path:url(#SVGID_2_);fill:#FBF5AE;}
	.st76{clip-path:url(#SVGID_2_);fill:#FBF5AD;}
	.st77{clip-path:url(#SVGID_2_);fill:#FBF5AC;}
	.st78{clip-path:url(#SVGID_2_);fill:#FBF5AB;}
	.st79{clip-path:url(#SVGID_2_);fill:#FBF5AA;}
	.st80{clip-path:url(#SVGID_2_);fill:#FBF5A9;}
	.st81{clip-path:url(#SVGID_2_);fill:#FCF5A8;}
	.st82{clip-path:url(#SVGID_2_);fill:#FCF5A7;}
	.st83{clip-path:url(#SVGID_2_);fill:#FCF5A6;}
	.st84{clip-path:url(#SVGID_2_);fill:#FCF5A4;}
	.st85{clip-path:url(#SVGID_2_);fill:#FBF4A4;}
	.st86{clip-path:url(#SVGID_2_);fill:#FBF4A2;}
	.st87{clip-path:url(#SVGID_2_);fill:#FBF4A1;}
	.st88{clip-path:url(#SVGID_2_);fill:#FBF4A0;}
	.st89{opacity:0.6;}
</style>
<g>
	<g>
		<path class="st0" d="M92.79,449.27c-12.41-35.97-17.54-76.12-15.39-120.45c2.15-44.33,13.99-87.45,35.53-129.38
			c21.53-41.92,53.76-80.04,96.7-114.37c42.94-34.32,98.98-59.72,168.13-76.18c15.96-3.29,29.89,2.85,41.8,18.43
			c11.9,15.58,21.21,33.57,27.93,53.95c6.71,20.39,10.7,39.71,11.97,57.94c1.27,18.24-0.76,28.25-6.08,30.02
			c-10.89,3.8-22.17,7.54-33.82,11.21c-11.65,3.67-23.56,9.44-35.72,17.29c35.72,11.15,67.44,34.45,95.18,69.91
			c27.74,35.47,42.37,73.71,43.89,114.75c2.03,56.74-15.64,103.79-53,141.16c-37.37,37.37-81.5,59.46-132.42,66.3
			c-30.15,3.8-60.16,2.41-90.05-4.18c-29.89-6.58-56.99-18.87-81.31-36.86C130.41,522.48,105.96,489.29,92.79,449.27z
			 M287.71,348.96c-15.96,6.33-21.03,19.25-15.2,38.76c5.83,19.51,17.48,28.37,34.96,26.6c16.97-1.52,24.82-12.54,23.56-33.06
			c-1.01-10.64-5.7-19.82-14.06-27.55C308.61,345.98,298.86,344.4,287.71,348.96z"/>
		<path class="st1" d="M304.53,600c-19.71,0-39.38-2.15-58.83-6.44c-30.87-6.8-59.26-19.68-84.37-38.24
			c-36.91-27.23-62.54-62.05-76.18-103.47c-12.68-36.76-18-78.28-15.8-123.41c2.2-45.28,14.44-89.92,36.4-132.68
			c21.95-42.75,55.21-82.11,98.85-116.99c43.66-34.91,101.3-61.07,171.3-77.74c13.45-2.76,32.79-1.25,50.09,21.39
			c12.4,16.23,22.22,35.19,29.18,56.34c6.88,20.94,11.04,41.09,12.35,59.91c1.09,15.64,0.76,34.11-11.57,38.24
			c-10.87,3.79-22.22,7.55-33.95,11.24c-6.28,1.98-12.71,4.66-19.24,7.98c30.57,13.13,58.31,35.44,82.63,66.55
			c28.68,36.66,44.02,76.85,45.6,119.43c2.1,58.82-16.53,108.33-55.37,147.17c-38.46,38.47-84.58,61.55-137.05,68.59
			C327.24,599.28,315.88,600,304.53,600z M385.98,16.09c-2.14,0-4.33,0.24-6.59,0.71c-67.42,16.07-122.92,41.17-164.71,74.59
			c-41.84,33.46-73.66,71.05-94.56,111.74c-20.91,40.71-32.56,83.13-34.65,126.09c-2.09,43.1,2.94,82.6,14.96,117.41
			c0.01,0.04,0.03,0.08,0.04,0.11c12.57,38.21,36.27,70.37,70.45,95.59c23.28,17.23,49.62,29.15,78.25,35.46
			c28.84,6.37,58.21,7.72,87.31,4.05c48.82-6.56,91.81-28.09,127.71-64.01c35.54-35.53,52.58-81,50.65-135.14
			c-1.45-39.11-15.64-76.14-42.18-110.07c-26.57-33.97-57.26-56.56-91.22-67.17c-2.99-0.93-5.17-3.52-5.6-6.63s0.98-6.17,3.62-7.88
			c12.73-8.22,25.4-14.34,37.67-18.2c11.54-3.65,22.71-7.35,33.49-11.11c-0.42-0.01,2-4.2,0.77-21.87
			c-1.22-17.48-5.11-36.31-11.58-55.97c-6.4-19.42-15.37-36.78-26.67-51.57C404.83,21.34,396.06,16.09,385.98,16.09z M303.18,422.62
			c-14.05,0-30.57-6.34-38.41-32.6c-9.44-31.58,8.41-43.97,19.93-48.56c14.01-5.73,27.09-3.55,37.75,6.32
			c9.82,9.07,15.41,20.08,16.61,32.7c2.1,33.87-18.44,40.76-30.87,41.87C306.58,422.52,304.9,422.62,303.18,422.62z M299.53,354.48
			c-2.7,0-5.59,0.66-8.76,1.94c-0.03,0.01-0.05,0.03-0.08,0.04c-8.44,3.34-16.28,9.4-10.44,28.94c6.06,20.26,17.3,21.81,26.41,20.87
			c8.81-0.8,17.55-4.32,16.31-24.53c-0.8-8.39-4.57-15.71-11.48-22.1C307.75,356.19,303.88,354.48,299.53,354.48z"/>
	</g>
	<g>
		<path class="st2" d="M301.59,307.61c12.99,5.58,26.05,10.85,39.26,15.38C329.41,313.35,315.95,308.07,301.59,307.61z"/>
	</g>
	<g>
		<path class="st2" d="M273.17,312.87c-34.54,13.81-49.42,47.53-37.93,85.98c10.2,34.17,35.62,54.59,67.98,54.59
			c2.61,0,5.28-0.13,7.96-0.4c38.22-3.53,61.25-32.63,58.69-74.18l-0.1-1.3c-1.92-20.12-11.04-38.24-26.38-52.42
			c-0.83-0.76-1.69-1.44-2.54-2.15c-13.2-4.53-26.26-9.8-39.26-15.38c-0.68-0.02-1.35-0.1-2.04-0.1
			C290.8,307.51,281.92,309.32,273.17,312.87z"/>
	</g>
	<g class="st3">
		<path class="st4" d="M341.55,323.23c-0.24-0.08-0.47-0.17-0.7-0.25c0.85,0.72,1.72,1.39,2.54,2.15
			c15.34,14.18,24.46,32.31,26.38,52.42l0.1,1.3c2.56,41.56-20.47,70.65-58.69,74.18c-2.68,0.26-5.35,0.4-7.96,0.4
			c-32.37,0-57.78-20.41-67.98-54.59c-11.49-38.45,3.39-72.17,37.93-85.98c8.75-3.56,17.63-5.36,26.38-5.36
			c0.69,0,1.36,0.07,2.04,0.1c-55.74-23.94-110.22-53.54-169.41-54.93c-9.24,25.62-14.64,51.74-15.91,78.03
			c-1.9,39.16,2.58,74.78,13.31,105.87l0.18,0.54c10.68,32.46,30.13,58.76,59.51,80.43c20.05,14.84,41.82,24.7,66.54,30.14
			c16.12,3.55,32.49,5.35,48.65,5.35c9.32,0,18.8-0.6,27.85-1.74c42.62-5.73,78.63-23.8,110.08-55.25
			c29.65-29.65,43.27-66.37,41.64-112.2c-0.53-14.23-3.01-27.94-7.49-41.27C430.84,344.29,384.87,338,341.55,323.23z"/>
	</g>
	<g>
		<g>
			<defs>
				<path id="SVGID_1_" d="M372.25,234.87l-79.32-24.76l69.81-45.07c15.03-9.7,30.21-17.01,45.13-21.71
					c4.22-1.33,8.41-2.67,12.57-4.03c-1.24-14.22-4.57-29.63-9.91-45.85c-5.32-16.16-12.69-30.46-21.88-42.49
					c-1.6-2.09-2.8-3.23-3.5-3.82c-62.46,15.06-113.34,38.05-151.22,68.33c-38.42,30.72-67.49,64.95-86.38,101.75
					c-6,11.68-11.06,23.52-15.36,35.46c59.18,1.4,113.67,31,169.41,54.93c14.36,0.46,27.82,5.74,39.26,15.38
					c0.24,0.08,0.47,0.17,0.7,0.25c43.32,14.77,89.29,21.05,134.99,19.33c-5.89-17.53-15.23-34.41-28.16-50.94
					C425.41,262.25,400.51,243.69,372.25,234.87z"/>
			</defs>
			<clipPath id="SVGID_2_">
				<use xlink:href="#SVGID_1_"  style="overflow:visible;"/>
			</clipPath>
			<rect x="132.18" y="342.84" class="st5" width="344.36" height="1.45"/>
			<rect x="132.18" y="341.16" class="st5" width="344.36" height="1.68"/>
			<rect x="132.18" y="339.48" class="st5" width="344.36" height="1.68"/>
			<rect x="132.18" y="337.81" class="st5" width="344.36" height="1.68"/>
			<rect x="132.18" y="336.13" class="st6" width="344.36" height="1.68"/>
			<rect x="132.18" y="334.45" class="st7" width="344.36" height="1.68"/>
			<rect x="132.18" y="332.78" class="st8" width="344.36" height="1.68"/>
			<rect x="132.18" y="331.1" class="st8" width="344.36" height="1.68"/>
			<rect x="132.18" y="329.42" class="st9" width="344.36" height="1.68"/>
			<rect x="132.18" y="327.74" class="st10" width="344.36" height="1.68"/>
			<rect x="132.18" y="326.07" class="st11" width="344.36" height="1.68"/>
			<rect x="132.18" y="324.39" class="st12" width="344.36" height="1.68"/>
			<rect x="132.18" y="322.71" class="st12" width="344.36" height="1.68"/>
			<rect x="132.18" y="321.03" class="st13" width="344.36" height="1.68"/>
			<rect x="132.18" y="319.36" class="st14" width="344.36" height="1.68"/>
			<rect x="132.18" y="317.68" class="st15" width="344.36" height="1.68"/>
			<rect x="132.18" y="316" class="st16" width="344.36" height="1.68"/>
			<rect x="132.18" y="314.33" class="st16" width="344.36" height="1.68"/>
			<rect x="132.18" y="312.65" class="st17" width="344.36" height="1.68"/>
			<rect x="132.18" y="310.97" class="st18" width="344.36" height="1.68"/>
			<rect x="132.18" y="309.29" class="st18" width="344.36" height="1.68"/>
			<rect x="132.18" y="307.62" class="st19" width="344.36" height="1.68"/>
			<rect x="132.18" y="305.94" class="st20" width="344.36" height="1.68"/>
			<rect x="132.18" y="304.26" class="st21" width="344.36" height="1.68"/>
			<rect x="132.18" y="302.58" class="st22" width="344.36" height="1.68"/>
			<rect x="132.18" y="300.91" class="st23" width="344.36" height="1.68"/>
			<rect x="132.18" y="299.23" class="st24" width="344.36" height="1.68"/>
			<rect x="132.18" y="297.55" class="st24" width="344.36" height="1.68"/>
			<rect x="132.18" y="295.87" class="st25" width="344.36" height="1.68"/>
			<rect x="132.18" y="294.2" class="st26" width="344.36" height="1.68"/>
			<rect x="132.18" y="292.52" class="st26" width="344.36" height="1.68"/>
			<rect x="132.18" y="290.84" class="st27" width="344.36" height="1.68"/>
			<rect x="132.18" y="289.17" class="st28" width="344.36" height="1.68"/>
			<rect x="132.18" y="287.49" class="st29" width="344.36" height="1.68"/>
			<rect x="132.18" y="285.81" class="st30" width="344.36" height="1.68"/>
			<rect x="132.18" y="284.13" class="st31" width="344.36" height="1.68"/>
			<rect x="132.18" y="282.46" class="st32" width="344.36" height="1.68"/>
			<rect x="132.18" y="280.78" class="st33" width="344.36" height="1.68"/>
			<rect x="132.18" y="279.1" class="st34" width="344.36" height="1.68"/>
			<rect x="132.18" y="277.42" class="st34" width="344.36" height="1.68"/>
			<rect x="132.18" y="275.75" class="st35" width="344.36" height="1.68"/>
			<rect x="132.18" y="274.07" class="st36" width="344.36" height="1.68"/>
			<rect x="132.18" y="272.39" class="st37" width="344.36" height="1.68"/>
			<rect x="132.18" y="270.72" class="st38" width="344.36" height="1.68"/>
			<rect x="132.18" y="269.04" class="st39" width="344.36" height="1.68"/>
			<rect x="132.18" y="267.36" class="st39" width="344.36" height="1.68"/>
			<rect x="132.18" y="265.68" class="st40" width="344.36" height="1.68"/>
			<rect x="132.18" y="264.01" class="st41" width="344.36" height="1.68"/>
			<rect x="132.18" y="262.33" class="st42" width="344.36" height="1.68"/>
			<rect x="132.18" y="260.65" class="st43" width="344.36" height="1.68"/>
			<rect x="132.18" y="258.97" class="st44" width="344.36" height="1.68"/>
			<rect x="132.18" y="257.3" class="st45" width="344.36" height="1.68"/>
			<rect x="132.18" y="255.62" class="st46" width="344.36" height="1.68"/>
			<rect x="132.18" y="253.94" class="st47" width="344.36" height="1.68"/>
			<rect x="132.18" y="252.27" class="st48" width="344.36" height="1.68"/>
			<rect x="132.18" y="250.59" class="st49" width="344.36" height="1.68"/>
			<rect x="132.18" y="248.91" class="st50" width="344.36" height="1.68"/>
			<rect x="132.18" y="247.23" class="st51" width="344.36" height="1.68"/>
			<rect x="132.18" y="245.56" class="st52" width="344.36" height="1.68"/>
			<rect x="132.18" y="243.88" class="st53" width="344.36" height="1.68"/>
			<rect x="132.18" y="242.2" class="st53" width="344.36" height="1.68"/>
			<rect x="132.18" y="240.52" class="st54" width="344.36" height="1.68"/>
			<rect x="132.18" y="238.85" class="st55" width="344.36" height="1.68"/>
			<rect x="132.18" y="237.17" class="st56" width="344.36" height="1.68"/>
			<rect x="132.18" y="235.49" class="st57" width="344.36" height="1.68"/>
			<rect x="132.18" y="233.82" class="st58" width="344.36" height="1.68"/>
			<rect x="132.18" y="232.14" class="st59" width="344.36" height="1.68"/>
			<rect x="132.18" y="230.46" class="st59" width="344.36" height="1.68"/>
			<rect x="132.18" y="228.78" class="st60" width="344.36" height="1.68"/>
			<rect x="132.18" y="227.11" class="st61" width="344.36" height="1.68"/>
			<rect x="132.18" y="225.43" class="st62" width="344.36" height="1.68"/>
			<rect x="132.18" y="223.75" class="st63" width="344.36" height="1.68"/>
			<rect x="132.18" y="222.07" class="st64" width="344.36" height="1.68"/>
			<rect x="132.18" y="220.4" class="st65" width="344.36" height="1.68"/>
			<rect x="132.18" y="218.72" class="st66" width="344.36" height="1.68"/>
			<rect x="132.18" y="217.04" class="st67" width="344.36" height="1.68"/>
			<rect x="132.18" y="215.37" class="st68" width="344.36" height="1.68"/>
			<rect x="132.18" y="213.69" class="st69" width="344.36" height="1.68"/>
			<rect x="132.18" y="212.01" class="st70" width="344.36" height="1.68"/>
			<rect x="132.18" y="210.33" class="st71" width="344.36" height="1.68"/>
			<rect x="132.18" y="208.66" class="st71" width="344.36" height="1.68"/>
			<rect x="132.18" y="206.98" class="st72" width="344.36" height="1.68"/>
			<rect x="132.18" y="205.3" class="st73" width="344.36" height="1.68"/>
			<rect x="132.18" y="203.62" class="st74" width="344.36" height="1.68"/>
			<rect x="132.18" y="201.95" class="st75" width="344.36" height="1.68"/>
			<rect x="132.18" y="200.27" class="st76" width="344.36" height="1.68"/>
			<rect x="132.18" y="198.59" class="st77" width="344.36" height="1.68"/>
			<rect x="132.18" y="196.92" class="st78" width="344.36" height="1.68"/>
			<rect x="132.18" y="195.24" class="st79" width="344.36" height="1.68"/>
			<rect x="132.18" y="193.56" class="st80" width="344.36" height="1.68"/>
			<rect x="132.18" y="191.88" class="st81" width="344.36" height="1.68"/>
			<rect x="132.18" y="190.21" class="st81" width="344.36" height="1.68"/>
			<rect x="132.18" y="188.53" class="st82" width="344.36" height="1.68"/>
			<rect x="132.18" y="186.85" class="st83" width="344.36" height="1.68"/>
			<rect x="132.18" y="185.17" class="st84" width="344.36" height="1.68"/>
			<rect x="132.18" y="183.5" class="st85" width="344.36" height="1.68"/>
			<rect x="132.18" y="181.82" class="st86" width="344.36" height="1.68"/>
			<rect x="132.18" y="180.14" class="st87" width="344.36" height="1.68"/>
			<rect x="132.18" y="178.47" class="st88" width="344.36" height="1.68"/>
			<rect x="132.18" y="177.12" class="st88" width="344.36" height="1.34"/>
			<rect x="132.18" y="175.78" class="st87" width="344.36" height="1.34"/>
			<rect x="132.18" y="174.44" class="st86" width="344.36" height="1.34"/>
			<rect x="132.18" y="173.1" class="st85" width="344.36" height="1.34"/>
			<rect x="132.18" y="171.76" class="st84" width="344.36" height="1.34"/>
			<rect x="132.18" y="170.42" class="st83" width="344.36" height="1.34"/>
			<rect x="132.18" y="169.08" class="st82" width="344.36" height="1.34"/>
			<rect x="132.18" y="167.74" class="st81" width="344.36" height="1.34"/>
			<rect x="132.18" y="166.4" class="st81" width="344.36" height="1.34"/>
			<rect x="132.18" y="165.06" class="st80" width="344.36" height="1.34"/>
			<rect x="132.18" y="163.72" class="st79" width="344.36" height="1.34"/>
			<rect x="132.18" y="162.38" class="st78" width="344.36" height="1.34"/>
			<rect x="132.18" y="161.04" class="st77" width="344.36" height="1.34"/>
			<rect x="132.18" y="159.7" class="st76" width="344.36" height="1.34"/>
			<rect x="132.18" y="158.36" class="st75" width="344.36" height="1.34"/>
			<rect x="132.18" y="157.02" class="st74" width="344.36" height="1.34"/>
			<rect x="132.18" y="155.68" class="st73" width="344.36" height="1.34"/>
			<rect x="132.18" y="154.34" class="st72" width="344.36" height="1.34"/>
			<rect x="132.18" y="153" class="st71" width="344.36" height="1.34"/>
			<rect x="132.18" y="151.66" class="st71" width="344.36" height="1.34"/>
			<rect x="132.18" y="150.32" class="st70" width="344.36" height="1.34"/>
			<rect x="132.18" y="148.98" class="st69" width="344.36" height="1.34"/>
			<rect x="132.18" y="147.64" class="st68" width="344.36" height="1.34"/>
			<rect x="132.18" y="146.3" class="st67" width="344.36" height="1.34"/>
			<rect x="132.18" y="144.96" class="st66" width="344.36" height="1.34"/>
			<rect x="132.18" y="143.62" class="st65" width="344.36" height="1.34"/>
			<rect x="132.18" y="142.28" class="st64" width="344.36" height="1.34"/>
			<rect x="132.18" y="140.94" class="st63" width="344.36" height="1.34"/>
			<rect x="132.18" y="139.6" class="st62" width="344.36" height="1.34"/>
			<rect x="132.18" y="138.26" class="st61" width="344.36" height="1.34"/>
			<rect x="132.18" y="136.92" class="st60" width="344.36" height="1.34"/>
			<rect x="132.18" y="135.58" class="st59" width="344.36" height="1.34"/>
			<rect x="132.18" y="134.24" class="st59" width="344.36" height="1.34"/>
			<rect x="132.18" y="132.9" class="st58" width="344.36" height="1.34"/>
			<rect x="132.18" y="131.56" class="st57" width="344.36" height="1.34"/>
			<rect x="132.18" y="130.22" class="st56" width="344.36" height="1.34"/>
			<rect x="132.18" y="128.88" class="st55" width="344.36" height="1.34"/>
			<rect x="132.18" y="127.54" class="st54" width="344.36" height="1.34"/>
			<rect x="132.18" y="126.2" class="st53" width="344.36" height="1.34"/>
			<rect x="132.18" y="124.86" class="st53" width="344.36" height="1.34"/>
			<rect x="132.18" y="123.52" class="st52" width="344.36" height="1.34"/>
			<rect x="132.18" y="122.18" class="st51" width="344.36" height="1.34"/>
			<rect x="132.18" y="120.84" class="st50" width="344.36" height="1.34"/>
			<rect x="132.18" y="119.5" class="st49" width="344.36" height="1.34"/>
			<rect x="132.18" y="118.16" class="st48" width="344.36" height="1.34"/>
			<rect x="132.18" y="116.82" class="st47" width="344.36" height="1.34"/>
			<rect x="132.18" y="115.48" class="st46" width="344.36" height="1.34"/>
			<rect x="132.18" y="114.14" class="st45" width="344.36" height="1.34"/>
			<rect x="132.18" y="112.8" class="st44" width="344.36" height="1.34"/>
			<rect x="132.18" y="111.46" class="st43" width="344.36" height="1.34"/>
			<rect x="132.18" y="110.12" class="st42" width="344.36" height="1.34"/>
			<rect x="132.18" y="108.78" class="st41" width="344.36" height="1.34"/>
			<rect x="132.18" y="107.44" class="st40" width="344.36" height="1.34"/>
			<rect x="132.18" y="106.1" class="st39" width="344.36" height="1.34"/>
			<rect x="132.18" y="104.76" class="st39" width="344.36" height="1.34"/>
			<rect x="132.18" y="103.42" class="st38" width="344.36" height="1.34"/>
			<rect x="132.18" y="102.08" class="st37" width="344.36" height="1.34"/>
			<rect x="132.18" y="100.74" class="st36" width="344.36" height="1.34"/>
			<rect x="132.18" y="99.4" class="st35" width="344.36" height="1.34"/>
			<rect x="132.18" y="98.06" class="st34" width="344.36" height="1.34"/>
			<rect x="132.18" y="96.72" class="st34" width="344.36" height="1.34"/>
			<rect x="132.18" y="95.38" class="st33" width="344.36" height="1.34"/>
			<rect x="132.18" y="94.04" class="st32" width="344.36" height="1.34"/>
			<rect x="132.18" y="92.7" class="st31" width="344.36" height="1.34"/>
			<rect x="132.18" y="91.36" class="st30" width="344.36" height="1.34"/>
			<rect x="132.18" y="90.02" class="st29" width="344.36" height="1.34"/>
			<rect x="132.18" y="88.68" class="st28" width="344.36" height="1.34"/>
			<rect x="132.18" y="87.34" class="st27" width="344.36" height="1.34"/>
			<rect x="132.18" y="86" class="st26" width="344.36" height="1.34"/>
			<rect x="132.18" y="84.66" class="st26" width="344.36" height="1.34"/>
			<rect x="132.18" y="83.32" class="st25" width="344.36" height="1.34"/>
			<rect x="132.18" y="81.98" class="st24" width="344.36" height="1.34"/>
			<rect x="132.18" y="80.63" class="st24" width="344.36" height="1.34"/>
			<rect x="132.18" y="79.29" class="st23" width="344.36" height="1.34"/>
			<rect x="132.18" y="77.95" class="st22" width="344.36" height="1.34"/>
			<rect x="132.18" y="76.61" class="st21" width="344.36" height="1.34"/>
			<rect x="132.18" y="75.27" class="st20" width="344.36" height="1.34"/>
			<rect x="132.18" y="73.93" class="st19" width="344.36" height="1.34"/>
			<rect x="132.18" y="72.59" class="st18" width="344.36" height="1.34"/>
			<rect x="132.18" y="71.25" class="st18" width="344.36" height="1.34"/>
			<rect x="132.18" y="69.91" class="st17" width="344.36" height="1.34"/>
			<rect x="132.18" y="68.57" class="st16" width="344.36" height="1.34"/>
			<rect x="132.18" y="67.23" class="st16" width="344.36" height="1.34"/>
			<rect x="132.18" y="65.89" class="st15" width="344.36" height="1.34"/>
			<rect x="132.18" y="64.55" class="st14" width="344.36" height="1.34"/>
			<rect x="132.18" y="63.21" class="st13" width="344.36" height="1.34"/>
			<rect x="132.18" y="61.87" class="st12" width="344.36" height="1.34"/>
			<rect x="132.18" y="60.53" class="st12" width="344.36" height="1.34"/>
			<rect x="132.18" y="59.19" class="st11" width="344.36" height="1.34"/>
			<rect x="132.18" y="57.85" class="st10" width="344.36" height="1.34"/>
			<rect x="132.18" y="56.51" class="st9" width="344.36" height="1.34"/>
			<rect x="132.18" y="55.17" class="st8" width="344.36" height="1.34"/>
			<rect x="132.18" y="53.83" class="st8" width="344.36" height="1.34"/>
			<rect x="132.18" y="52.49" class="st7" width="344.36" height="1.34"/>
			<rect x="132.18" y="51.15" class="st6" width="344.36" height="1.34"/>
			<rect x="132.18" y="49.81" class="st5" width="344.36" height="1.34"/>
			<rect x="132.18" y="48.47" class="st5" width="344.36" height="1.34"/>
			<rect x="132.18" y="47.13" class="st5" width="344.36" height="1.34"/>
			<path class="st5" d="M476.54,47.13H132.18H476.54z"/>
		</g>
	</g>
	<g class="st89">
		<path class="st4" d="M388.38,519.94L388.38,519.94c-7.07-4.82-8.91-14.55-4.09-21.63l0,0c4.82-7.07,14.55-8.91,21.63-4.09l0,0
			c7.07,4.82,8.91,14.55,4.09,21.63l0,0C405.19,522.92,395.46,524.77,388.38,519.94z"/>
	</g>
	<g class="st89">
		<path class="st4" d="M418.92,488.96L418.92,488.96c-3.54-2.41-4.46-7.28-2.05-10.81l0,0c2.41-3.54,7.28-4.46,10.81-2.05l0,0
			c3.54,2.41,4.46,7.28,2.05,10.81l0,0C427.32,490.45,422.46,491.37,418.92,488.96z"/>
	</g>
</g>
</svg>
