<?xml version="1.0" encoding="utf-8"?>
<!-- Generator: Adobe Illustrator 24.1.0, SVG Export Plug-In . SVG Version: 6.00 Build 0)  -->
<svg version="1.1" id="Layer_1" xmlns="http://www.w3.org/2000/svg" xmlns:xlink="http://www.w3.org/1999/xlink" x="0px" y="0px"
	 viewBox="0 0 926.51 600" style="enable-background:new 0 0 926.51 600;" xml:space="preserve">
<style type="text/css">
	.st0{fill:#F7DE03;}
	.st1{fill:#E3A925;}
	.st2{clip-path:url(#SVGID_2_);fill:#FFFFFF;}
	.st3{clip-path:url(#SVGID_2_);fill:#FFFFFD;}
	.st4{clip-path:url(#SVGID_2_);fill:#FFFFFC;}
	.st5{clip-path:url(#SVGID_2_);fill:#FFFFFA;}
	.st6{clip-path:url(#SVGID_2_);fill:#FFFEF9;}
	.st7{clip-path:url(#SVGID_2_);fill:#FFFEF8;}
	.st8{clip-path:url(#SVGID_2_);fill:#FFFEF6;}
	.st9{clip-path:url(#SVGID_2_);fill:#FFFEF5;}
	.st10{clip-path:url(#SVGID_2_);fill:#FFFEF4;}
	.st11{clip-path:url(#SVGID_2_);fill:#FFFEF3;}
	.st12{clip-path:url(#SVGID_2_);fill:#FFFEF2;}
	.st13{clip-path:url(#SVGID_2_);fill:#FFFEF1;}
	.st14{clip-path:url(#SVGID_2_);fill:#FFFEEF;}
	.st15{clip-path:url(#SVGID_2_);fill:#FEFDEE;}
	.st16{clip-path:url(#SVGID_2_);fill:#FEFDED;}
	.st17{clip-path:url(#SVGID_2_);fill:#FEFDEB;}
	.st18{clip-path:url(#SVGID_2_);fill:#FFFDEA;}
	.st19{clip-path:url(#SVGID_2_);fill:#FFFCEA;}
	.st20{clip-path:url(#SVGID_2_);fill:#FDFCE8;}
	.st21{clip-path:url(#SVGID_2_);fill:#FDFCE7;}
	.st22{clip-path:url(#SVGID_2_);fill:#FDFBE5;}
	.st23{clip-path:url(#SVGID_2_);fill:#FDFBE4;}
	.st24{clip-path:url(#SVGID_2_);fill:#FDFBE2;}
	.st25{clip-path:url(#SVGID_2_);fill:#FDFBE1;}
	.st26{clip-path:url(#SVGID_2_);fill:#FDFBE0;}
	.st27{clip-path:url(#SVGID_2_);fill:#FEFBDF;}
	.st28{clip-path:url(#SVGID_2_);fill:#FEFBDE;}
	.st29{clip-path:url(#SVGID_2_);fill:#FEFBDD;}
	.st30{clip-path:url(#SVGID_2_);fill:#FEFBDC;}
	.st31{clip-path:url(#SVGID_2_);fill:#FCFADB;}
	.st32{clip-path:url(#SVGID_2_);fill:#FCFADA;}
	.st33{clip-path:url(#SVGID_2_);fill:#FCFAD9;}
	.st34{clip-path:url(#SVGID_2_);fill:#FCFAD8;}
	.st35{clip-path:url(#SVGID_2_);fill:#FDFAD7;}
	.st36{clip-path:url(#SVGID_2_);fill:#FDFAD5;}
	.st37{clip-path:url(#SVGID_2_);fill:#FDFAD4;}
	.st38{clip-path:url(#SVGID_2_);fill:#FDF9D2;}
	.st39{clip-path:url(#SVGID_2_);fill:#FCF9D2;}
	.st40{clip-path:url(#SVGID_2_);fill:#FCF9D1;}
	.st41{clip-path:url(#SVGID_2_);fill:#FCF9CF;}
	.st42{clip-path:url(#SVGID_2_);fill:#FCF9CE;}
	.st43{clip-path:url(#SVGID_2_);fill:#FCF8CD;}
	.st44{clip-path:url(#SVGID_2_);fill:#FCF8CC;}
	.st45{clip-path:url(#SVGID_2_);fill:#FCF8CB;}
	.st46{clip-path:url(#SVGID_2_);fill:#FCF8CA;}
	.st47{clip-path:url(#SVGID_2_);fill:#FCF8C9;}
	.st48{clip-path:url(#SVGID_2_);fill:#FCF8C8;}
	.st49{clip-path:url(#SVGID_2_);fill:#FCF8C7;}
	.st50{clip-path:url(#SVGID_2_);fill:#FCF8C6;}
	.st51{clip-path:url(#SVGID_2_);fill:#FCF8C5;}
	.st52{clip-path:url(#SVGID_2_);fill:#FCF8C3;}
	.st53{clip-path:url(#SVGID_2_);fill:#FDF8C2;}
	.st54{clip-path:url(#SVGID_2_);fill:#FDF8C1;}
	.st55{clip-path:url(#SVGID_2_);fill:#FDF8C0;}
	.st56{clip-path:url(#SVGID_2_);fill:#FBF7BF;}
	.st57{clip-path:url(#SVGID_2_);fill:#FCF7BE;}
	.st58{clip-path:url(#SVGID_2_);fill:#FCF7BD;}
	.st59{clip-path:url(#SVGID_2_);fill:#FCF7BC;}
	.st60{clip-path:url(#SVGID_2_);fill:#FCF7BB;}
	.st61{clip-path:url(#SVGID_2_);fill:#FCF7BA;}
	.st62{clip-path:url(#SVGID_2_);fill:#FCF7B9;}
	.st63{clip-path:url(#SVGID_2_);fill:#FCF6B7;}
	.st64{clip-path:url(#SVGID_2_);fill:#FCF6B6;}
	.st65{clip-path:url(#SVGID_2_);fill:#FCF6B5;}
	.st66{clip-path:url(#SVGID_2_);fill:#FCF6B4;}
	.st67{clip-path:url(#SVGID_2_);fill:#FCF6B3;}
	.st68{clip-path:url(#SVGID_2_);fill:#FBF6B2;}
	.st69{clip-path:url(#SVGID_2_);fill:#FBF6B1;}
	.st70{clip-path:url(#SVGID_2_);fill:#FBF5B0;}
	.st71{clip-path:url(#SVGID_2_);fill:#FBF5AF;}
	.st72{clip-path:url(#SVGID_2_);fill:#FBF5AE;}
	.st73{clip-path:url(#SVGID_2_);fill:#FBF5AD;}
	.st74{clip-path:url(#SVGID_2_);fill:#FBF5AC;}
	.st75{clip-path:url(#SVGID_2_);fill:#FBF5AB;}
	.st76{clip-path:url(#SVGID_2_);fill:#FBF5AA;}
	.st77{clip-path:url(#SVGID_2_);fill:#FBF5A9;}
	.st78{clip-path:url(#SVGID_2_);fill:#FCF5A8;}
	.st79{clip-path:url(#SVGID_2_);fill:#FCF5A7;}
	.st80{clip-path:url(#SVGID_2_);fill:#FCF5A6;}
	.st81{clip-path:url(#SVGID_2_);fill:#FCF5A4;}
	.st82{clip-path:url(#SVGID_2_);fill:#FBF4A4;}
	.st83{clip-path:url(#SVGID_2_);fill:#FBF4A2;}
	.st84{clip-path:url(#SVGID_2_);fill:#FBF4A1;}
	.st85{clip-path:url(#SVGID_2_);fill:#FBF4A0;}
	.st86{opacity:0.2;}
	.st87{fill:#FFFFFF;}
	.st88{opacity:0.6;}
	.st89{clip-path:url(#SVGID_4_);fill:#FFFFFF;}
	.st90{clip-path:url(#SVGID_4_);fill:#FFFFFD;}
	.st91{clip-path:url(#SVGID_4_);fill:#FFFFFC;}
	.st92{clip-path:url(#SVGID_4_);fill:#FFFFFA;}
	.st93{clip-path:url(#SVGID_4_);fill:#FFFEF9;}
	.st94{clip-path:url(#SVGID_4_);fill:#FFFEF8;}
	.st95{clip-path:url(#SVGID_4_);fill:#FFFEF6;}
	.st96{clip-path:url(#SVGID_4_);fill:#FFFEF5;}
	.st97{clip-path:url(#SVGID_4_);fill:#FFFEF4;}
	.st98{clip-path:url(#SVGID_4_);fill:#FFFEF3;}
	.st99{clip-path:url(#SVGID_4_);fill:#FFFEF2;}
	.st100{clip-path:url(#SVGID_4_);fill:#FFFEF1;}
	.st101{clip-path:url(#SVGID_4_);fill:#FFFEEF;}
	.st102{clip-path:url(#SVGID_4_);fill:#FEFDEE;}
	.st103{clip-path:url(#SVGID_4_);fill:#FEFDED;}
	.st104{clip-path:url(#SVGID_4_);fill:#FEFDEB;}
	.st105{clip-path:url(#SVGID_4_);fill:#FFFDEA;}
	.st106{clip-path:url(#SVGID_4_);fill:#FFFCEA;}
	.st107{clip-path:url(#SVGID_4_);fill:#FDFCE8;}
	.st108{clip-path:url(#SVGID_4_);fill:#FDFCE7;}
	.st109{clip-path:url(#SVGID_4_);fill:#FDFBE5;}
	.st110{clip-path:url(#SVGID_4_);fill:#FDFBE4;}
	.st111{clip-path:url(#SVGID_4_);fill:#FDFBE2;}
	.st112{clip-path:url(#SVGID_4_);fill:#FDFBE1;}
	.st113{clip-path:url(#SVGID_4_);fill:#FDFBE0;}
	.st114{clip-path:url(#SVGID_4_);fill:#FEFBDF;}
	.st115{clip-path:url(#SVGID_4_);fill:#FEFBDE;}
	.st116{clip-path:url(#SVGID_4_);fill:#FEFBDD;}
	.st117{clip-path:url(#SVGID_4_);fill:#FEFBDC;}
	.st118{clip-path:url(#SVGID_4_);fill:#FCFADB;}
	.st119{clip-path:url(#SVGID_4_);fill:#FCFADA;}
	.st120{clip-path:url(#SVGID_4_);fill:#FCFAD9;}
	.st121{clip-path:url(#SVGID_4_);fill:#FCFAD8;}
	.st122{clip-path:url(#SVGID_4_);fill:#FDFAD7;}
	.st123{clip-path:url(#SVGID_4_);fill:#FDFAD5;}
	.st124{clip-path:url(#SVGID_4_);fill:#FDFAD4;}
	.st125{clip-path:url(#SVGID_4_);fill:#FDF9D2;}
	.st126{clip-path:url(#SVGID_4_);fill:#FCF9D2;}
	.st127{clip-path:url(#SVGID_4_);fill:#FCF9D1;}
	.st128{clip-path:url(#SVGID_4_);fill:#FCF9CF;}
	.st129{clip-path:url(#SVGID_4_);fill:#FCF9CE;}
	.st130{clip-path:url(#SVGID_4_);fill:#FCF8CD;}
	.st131{clip-path:url(#SVGID_4_);fill:#FCF8CC;}
	.st132{clip-path:url(#SVGID_4_);fill:#FCF8CB;}
	.st133{clip-path:url(#SVGID_4_);fill:#FCF8CA;}
	.st134{clip-path:url(#SVGID_4_);fill:#FCF8C9;}
	.st135{clip-path:url(#SVGID_4_);fill:#FCF8C8;}
	.st136{clip-path:url(#SVGID_4_);fill:#FCF8C7;}
	.st137{clip-path:url(#SVGID_4_);fill:#FCF8C6;}
	.st138{clip-path:url(#SVGID_4_);fill:#FCF8C5;}
	.st139{clip-path:url(#SVGID_4_);fill:#FCF8C3;}
	.st140{clip-path:url(#SVGID_4_);fill:#FDF8C2;}
	.st141{clip-path:url(#SVGID_4_);fill:#FDF8C1;}
	.st142{clip-path:url(#SVGID_4_);fill:#FDF8C0;}
	.st143{clip-path:url(#SVGID_4_);fill:#FBF7BF;}
	.st144{clip-path:url(#SVGID_4_);fill:#FCF7BE;}
	.st145{clip-path:url(#SVGID_4_);fill:#FCF7BD;}
	.st146{clip-path:url(#SVGID_4_);fill:#FCF7BC;}
	.st147{clip-path:url(#SVGID_4_);fill:#FCF7BB;}
	.st148{clip-path:url(#SVGID_4_);fill:#FCF7BA;}
	.st149{clip-path:url(#SVGID_4_);fill:#FCF7B9;}
	.st150{clip-path:url(#SVGID_4_);fill:#FCF6B7;}
	.st151{clip-path:url(#SVGID_4_);fill:#FCF6B6;}
	.st152{clip-path:url(#SVGID_4_);fill:#FCF6B5;}
	.st153{clip-path:url(#SVGID_4_);fill:#FCF6B4;}
	.st154{clip-path:url(#SVGID_4_);fill:#FCF6B3;}
	.st155{clip-path:url(#SVGID_4_);fill:#FBF6B2;}
	.st156{clip-path:url(#SVGID_4_);fill:#FBF6B1;}
	.st157{clip-path:url(#SVGID_4_);fill:#FBF5B0;}
	.st158{clip-path:url(#SVGID_4_);fill:#FBF5AF;}
	.st159{clip-path:url(#SVGID_4_);fill:#FBF5AE;}
	.st160{clip-path:url(#SVGID_4_);fill:#FBF5AD;}
	.st161{clip-path:url(#SVGID_4_);fill:#FBF5AC;}
	.st162{clip-path:url(#SVGID_4_);fill:#FBF5AB;}
	.st163{clip-path:url(#SVGID_4_);fill:#FBF5AA;}
	.st164{clip-path:url(#SVGID_4_);fill:#FBF5A9;}
	.st165{clip-path:url(#SVGID_4_);fill:#FCF5A8;}
	.st166{clip-path:url(#SVGID_4_);fill:#FCF5A7;}
	.st167{clip-path:url(#SVGID_4_);fill:#FCF5A6;}
	.st168{clip-path:url(#SVGID_4_);fill:#FCF5A4;}
	.st169{clip-path:url(#SVGID_4_);fill:#FBF4A4;}
	.st170{clip-path:url(#SVGID_4_);fill:#FBF4A2;}
	.st171{clip-path:url(#SVGID_4_);fill:#FBF4A1;}
	.st172{clip-path:url(#SVGID_4_);fill:#FBF4A0;}
</style>
<g>
	<g>
		<g>
			<path class="st0" d="M388.06,573.28c-5.33,10.16-31.88,16.19-79.63,18.1c-47.76,1.91-81.53-1.33-101.35-9.72
				c-9.66-4.06-15.37-38.16-17.15-102.3c-1.78-64.13-3.94-130.11-6.48-197.93c-16.51,6.86-33.21,13.21-50.1,19.05
				c-16.9,5.84-27.5,8.38-31.81,7.62c-11.43,0.26-27.37-17.91-47.82-54.48c-20.45-36.58-31.56-65.78-33.34-87.63
				c-0.76-9.91,13.91-26.99,44.01-51.24c30.1-24.25,72.58-53.4,127.44-87.44c9.91-6.35,26.61-11.3,50.1-14.86
				c23.49-3.55,47.43-4.95,71.82-4.19c24.38,0.76,46.16,4.19,65.34,10.29c19.18,6.1,29.53,15.62,31.05,28.57
				c3.81,36.58,5.96,83.12,6.48,139.64c0.51,56.52-0.38,112.14-2.67,166.88c-2.29,54.74-5.72,103.13-10.29,145.16
				C399.11,540.84,393.9,565.66,388.06,573.28z"/>
			<path class="st1" d="M283.08,600c-35.87,0-61.89-3.6-79.14-10.91c-9.3-3.9-19.48-15.92-22.08-109.5
				c-1.67-60.17-3.7-122.79-6.05-186.32c-13.1,5.25-26.46,10.24-39.81,14.86c-22.59,7.81-30.62,8.63-35.05,8.05
				c-15.03-0.29-31.81-18.44-54.28-58.62c-21.21-37.94-32.44-67.68-34.33-90.91c-0.68-8.94,4.05-23.58,46.99-58.19
				c30.18-24.34,73.34-53.95,128.26-88.02c10.88-6.97,28.3-12.23,53.14-15.99c23.89-3.61,48.55-4.97,73.29-4.28
				c25.04,0.8,47.76,4.38,67.54,10.67c22.38,7.12,34.7,19.01,36.63,35.33c3.81,36.77,6.01,84.02,6.53,140.51
				c0.5,56.31-0.4,112.59-2.69,167.29c-2.28,54.78-5.76,103.8-10.33,145.69c-6.11,56.27-12.16,71.53-16.83,77.99
				c-5.07,8.87-20.06,19.16-86.12,21.79C299.69,599.81,291.13,600,283.08,600z M183.46,273.35c1.53,0,3.04,0.43,4.35,1.27
				c2.23,1.43,3.62,3.86,3.72,6.5c2.52,67.53,4.7,134.15,6.48,198.01c2.3,82.94,10.86,93.91,12.55,95.26
				c18.3,7.69,51.26,10.69,97.53,8.91c63.74-2.55,71.84-11.94,72.81-13.8c0.21-0.4,0.47-0.8,0.74-1.16
				c2.22-2.89,8.03-15.54,14-70.43c4.52-41.54,7.98-90.2,10.25-144.63c2.27-54.42,3.17-110.42,2.66-166.45
				c-0.52-55.99-2.68-102.72-6.44-138.89c-0.4-3.41-1.67-14.15-25.46-21.71c-18.35-5.83-39.61-9.16-63.15-9.91
				c-23.79-0.81-47.45,0.63-70.36,4.1c-22.24,3.37-38.04,7.98-46.96,13.68c-54.45,33.78-97.06,63-126.72,86.92
				c-40.67,32.78-41.11,43.26-41.04,44.34c1.68,20.55,12.56,48.93,32.34,84.31c26.97,48.27,38.7,50.43,40.58,50.34
				c0.57-0.01,1.06,0.03,1.59,0.13c0.85,0.14,5.97,0.25,27.77-7.3c16.71-5.78,33.41-12.13,49.63-18.88
				C181.35,273.55,182.41,273.35,183.46,273.35z"/>
		</g>
		<g>
			<g>
				<defs>
					<path id="SVGID_1_" d="M377.62,187.11c-0.47-51.83-2.37-95.4-5.64-129.64c-1.15-0.51-2.69-1.11-4.69-1.74
						c-15.66-4.98-34.08-7.83-54.74-8.47c-3.89-0.12-7.77-0.18-11.64-0.18c-17.91,0-35.78,1.33-53.11,3.96
						c-26.27,3.98-34.09,8.61-34.9,9.13l-0.48,0.3c-53.25,33.04-94.82,61.53-123.53,84.67c-16.33,13.16-24.45,21.42-28.32,25.88
						c2.53,11.64,9.38,31.66,27.23,63.58c10.06,18.01,17.05,27.74,21.22,32.78c2.87-0.85,6.66-2.05,11.61-3.76
						c16.03-5.54,32.14-11.67,47.89-18.21l51.85-21.53l2.1,56.11c0.46,12.28,0.9,24.5,1.34,36.69
						c45.05,5.15,88.54,21.27,132.7,32.51c6.08,1.55,12.23,2.99,18.44,4.3c0.02-0.49,0.05-0.97,0.07-1.47
						C377.23,298.21,378.12,242.73,377.62,187.11z"/>
				</defs>
				<clipPath id="SVGID_2_">
					<use xlink:href="#SVGID_1_"  style="overflow:visible;"/>
				</clipPath>
				<path class="st2" d="M60.56,353.47h317.56H60.56z"/>
				<rect x="60.56" y="351.74" class="st2" width="317.56" height="1.74"/>
				<rect x="60.56" y="350" class="st2" width="317.56" height="1.74"/>
				<rect x="60.56" y="348.26" class="st2" width="317.56" height="1.74"/>
				<rect x="60.56" y="346.52" class="st3" width="317.56" height="1.74"/>
				<rect x="60.56" y="344.78" class="st4" width="317.56" height="1.74"/>
				<rect x="60.56" y="343.05" class="st5" width="317.56" height="1.74"/>
				<rect x="60.56" y="341.31" class="st5" width="317.56" height="1.74"/>
				<rect x="60.56" y="339.57" class="st6" width="317.56" height="1.74"/>
				<rect x="60.56" y="337.83" class="st7" width="317.56" height="1.74"/>
				<rect x="60.56" y="336.09" class="st8" width="317.56" height="1.74"/>
				<rect x="60.56" y="334.36" class="st9" width="317.56" height="1.74"/>
				<rect x="60.56" y="332.62" class="st9" width="317.56" height="1.74"/>
				<rect x="60.56" y="330.88" class="st10" width="317.56" height="1.74"/>
				<rect x="60.56" y="329.14" class="st11" width="317.56" height="1.74"/>
				<rect x="60.56" y="327.41" class="st12" width="317.56" height="1.74"/>
				<rect x="60.56" y="325.67" class="st13" width="317.56" height="1.74"/>
				<rect x="60.56" y="323.93" class="st13" width="317.56" height="1.74"/>
				<rect x="60.56" y="322.19" class="st14" width="317.56" height="1.74"/>
				<rect x="60.56" y="320.45" class="st15" width="317.56" height="1.74"/>
				<rect x="60.56" y="318.72" class="st15" width="317.56" height="1.74"/>
				<rect x="60.56" y="316.98" class="st16" width="317.56" height="1.74"/>
				<rect x="60.56" y="315.24" class="st17" width="317.56" height="1.74"/>
				<rect x="60.56" y="313.5" class="st18" width="317.56" height="1.74"/>
				<rect x="60.56" y="311.76" class="st19" width="317.56" height="1.74"/>
				<rect x="60.56" y="310.03" class="st20" width="317.56" height="1.74"/>
				<rect x="60.56" y="308.29" class="st21" width="317.56" height="1.74"/>
				<rect x="60.56" y="306.55" class="st21" width="317.56" height="1.74"/>
				<rect x="60.56" y="304.81" class="st22" width="317.56" height="1.74"/>
				<rect x="60.56" y="303.07" class="st23" width="317.56" height="1.74"/>
				<rect x="60.56" y="301.34" class="st23" width="317.56" height="1.74"/>
				<rect x="60.56" y="299.6" class="st24" width="317.56" height="1.74"/>
				<rect x="60.56" y="297.86" class="st25" width="317.56" height="1.74"/>
				<rect x="60.56" y="296.12" class="st26" width="317.56" height="1.74"/>
				<rect x="60.56" y="294.38" class="st27" width="317.56" height="1.74"/>
				<rect x="60.56" y="292.65" class="st28" width="317.56" height="1.74"/>
				<rect x="60.56" y="290.91" class="st29" width="317.56" height="1.74"/>
				<rect x="60.56" y="289.17" class="st30" width="317.56" height="1.74"/>
				<rect x="60.56" y="287.43" class="st31" width="317.56" height="1.74"/>
				<rect x="60.56" y="285.69" class="st31" width="317.56" height="1.74"/>
				<rect x="60.56" y="283.96" class="st32" width="317.56" height="1.74"/>
				<rect x="60.56" y="282.22" class="st33" width="317.56" height="1.74"/>
				<rect x="60.56" y="280.48" class="st34" width="317.56" height="1.74"/>
				<rect x="60.56" y="278.74" class="st35" width="317.56" height="1.74"/>
				<rect x="60.56" y="277" class="st36" width="317.56" height="1.74"/>
				<rect x="60.56" y="275.27" class="st36" width="317.56" height="1.74"/>
				<rect x="60.56" y="273.53" class="st37" width="317.56" height="1.74"/>
				<rect x="60.56" y="271.79" class="st38" width="317.56" height="1.74"/>
				<rect x="60.56" y="270.05" class="st39" width="317.56" height="1.74"/>
				<rect x="60.56" y="268.31" class="st40" width="317.56" height="1.74"/>
				<rect x="60.56" y="266.58" class="st41" width="317.56" height="1.74"/>
				<rect x="60.56" y="264.84" class="st42" width="317.56" height="1.74"/>
				<rect x="60.56" y="263.1" class="st43" width="317.56" height="1.74"/>
				<rect x="60.56" y="261.36" class="st44" width="317.56" height="1.74"/>
				<rect x="60.56" y="259.62" class="st45" width="317.56" height="1.74"/>
				<rect x="60.56" y="257.89" class="st46" width="317.56" height="1.74"/>
				<rect x="60.56" y="256.15" class="st47" width="317.56" height="1.74"/>
				<rect x="60.56" y="254.41" class="st48" width="317.56" height="1.74"/>
				<rect x="60.56" y="252.67" class="st49" width="317.56" height="1.74"/>
				<rect x="60.56" y="250.94" class="st50" width="317.56" height="1.74"/>
				<rect x="60.56" y="249.2" class="st50" width="317.56" height="1.74"/>
				<rect x="60.56" y="247.46" class="st51" width="317.56" height="1.74"/>
				<rect x="60.56" y="245.72" class="st52" width="317.56" height="1.74"/>
				<rect x="60.56" y="243.98" class="st53" width="317.56" height="1.74"/>
				<rect x="60.56" y="242.25" class="st54" width="317.56" height="1.74"/>
				<rect x="60.56" y="240.51" class="st55" width="317.56" height="1.74"/>
				<rect x="60.56" y="238.77" class="st56" width="317.56" height="1.74"/>
				<rect x="60.56" y="237.03" class="st56" width="317.56" height="1.74"/>
				<rect x="60.56" y="235.29" class="st57" width="317.56" height="1.74"/>
				<rect x="60.56" y="233.56" class="st58" width="317.56" height="1.74"/>
				<rect x="60.56" y="231.82" class="st59" width="317.56" height="1.74"/>
				<rect x="60.56" y="230.08" class="st60" width="317.56" height="1.74"/>
				<rect x="60.56" y="228.34" class="st61" width="317.56" height="1.74"/>
				<rect x="60.56" y="226.6" class="st62" width="317.56" height="1.74"/>
				<rect x="60.56" y="224.87" class="st63" width="317.56" height="1.74"/>
				<rect x="60.56" y="223.13" class="st64" width="317.56" height="1.74"/>
				<rect x="60.56" y="221.39" class="st65" width="317.56" height="1.74"/>
				<rect x="60.56" y="219.65" class="st66" width="317.56" height="1.74"/>
				<rect x="60.56" y="217.91" class="st67" width="317.56" height="1.74"/>
				<rect x="60.56" y="216.18" class="st68" width="317.56" height="1.74"/>
				<rect x="60.56" y="214.44" class="st68" width="317.56" height="1.74"/>
				<rect x="60.56" y="212.7" class="st69" width="317.56" height="1.74"/>
				<rect x="60.56" y="210.96" class="st70" width="317.56" height="1.74"/>
				<rect x="60.56" y="209.22" class="st71" width="317.56" height="1.74"/>
				<rect x="60.56" y="207.49" class="st72" width="317.56" height="1.74"/>
				<rect x="60.56" y="205.75" class="st73" width="317.56" height="1.74"/>
				<rect x="60.56" y="204.01" class="st74" width="317.56" height="1.74"/>
				<rect x="60.56" y="202.27" class="st75" width="317.56" height="1.74"/>
				<rect x="60.56" y="200.53" class="st76" width="317.56" height="1.74"/>
				<rect x="60.56" y="198.8" class="st77" width="317.56" height="1.74"/>
				<rect x="60.56" y="197.06" class="st78" width="317.56" height="1.74"/>
				<rect x="60.56" y="195.32" class="st78" width="317.56" height="1.74"/>
				<rect x="60.56" y="193.58" class="st79" width="317.56" height="1.74"/>
				<rect x="60.56" y="191.84" class="st80" width="317.56" height="1.74"/>
				<rect x="60.56" y="190.11" class="st81" width="317.56" height="1.74"/>
				<rect x="60.56" y="188.37" class="st82" width="317.56" height="1.74"/>
				<rect x="60.56" y="186.63" class="st83" width="317.56" height="1.74"/>
				<rect x="60.56" y="184.89" class="st84" width="317.56" height="1.74"/>
				<rect x="60.56" y="183.15" class="st85" width="317.56" height="1.74"/>
				<rect x="60.56" y="181.77" class="st85" width="317.56" height="1.39"/>
				<rect x="60.56" y="180.38" class="st84" width="317.56" height="1.39"/>
				<rect x="60.56" y="178.99" class="st83" width="317.56" height="1.39"/>
				<rect x="60.56" y="177.6" class="st82" width="317.56" height="1.39"/>
				<rect x="60.56" y="176.21" class="st81" width="317.56" height="1.39"/>
				<rect x="60.56" y="174.82" class="st80" width="317.56" height="1.39"/>
				<rect x="60.56" y="173.43" class="st79" width="317.56" height="1.39"/>
				<rect x="60.56" y="172.05" class="st78" width="317.56" height="1.39"/>
				<rect x="60.56" y="170.66" class="st78" width="317.56" height="1.39"/>
				<rect x="60.56" y="169.27" class="st77" width="317.56" height="1.39"/>
				<rect x="60.56" y="167.88" class="st76" width="317.56" height="1.39"/>
				<rect x="60.56" y="166.49" class="st75" width="317.56" height="1.39"/>
				<rect x="60.56" y="165.1" class="st74" width="317.56" height="1.39"/>
				<rect x="60.56" y="163.71" class="st73" width="317.56" height="1.39"/>
				<rect x="60.56" y="162.33" class="st72" width="317.56" height="1.39"/>
				<rect x="60.56" y="160.94" class="st71" width="317.56" height="1.39"/>
				<rect x="60.56" y="159.55" class="st70" width="317.56" height="1.39"/>
				<rect x="60.56" y="158.16" class="st69" width="317.56" height="1.39"/>
				<rect x="60.56" y="156.77" class="st68" width="317.56" height="1.39"/>
				<rect x="60.56" y="155.38" class="st68" width="317.56" height="1.39"/>
				<rect x="60.56" y="153.99" class="st67" width="317.56" height="1.39"/>
				<rect x="60.56" y="152.61" class="st66" width="317.56" height="1.39"/>
				<rect x="60.56" y="151.22" class="st65" width="317.56" height="1.39"/>
				<rect x="60.56" y="149.83" class="st64" width="317.56" height="1.39"/>
				<rect x="60.56" y="148.44" class="st63" width="317.56" height="1.39"/>
				<rect x="60.56" y="147.05" class="st62" width="317.56" height="1.39"/>
				<rect x="60.56" y="145.66" class="st61" width="317.56" height="1.39"/>
				<rect x="60.56" y="144.27" class="st60" width="317.56" height="1.39"/>
				<rect x="60.56" y="142.88" class="st59" width="317.56" height="1.39"/>
				<rect x="60.56" y="141.5" class="st58" width="317.56" height="1.39"/>
				<rect x="60.56" y="140.11" class="st57" width="317.56" height="1.39"/>
				<rect x="60.56" y="138.72" class="st56" width="317.56" height="1.39"/>
				<rect x="60.56" y="137.33" class="st56" width="317.56" height="1.39"/>
				<rect x="60.56" y="135.94" class="st55" width="317.56" height="1.39"/>
				<rect x="60.56" y="134.55" class="st54" width="317.56" height="1.39"/>
				<rect x="60.56" y="133.16" class="st53" width="317.56" height="1.39"/>
				<rect x="60.56" y="131.78" class="st52" width="317.56" height="1.39"/>
				<rect x="60.56" y="130.39" class="st51" width="317.56" height="1.39"/>
				<rect x="60.56" y="129" class="st50" width="317.56" height="1.39"/>
				<rect x="60.56" y="127.61" class="st50" width="317.56" height="1.39"/>
				<rect x="60.56" y="126.22" class="st49" width="317.56" height="1.39"/>
				<rect x="60.56" y="124.83" class="st48" width="317.56" height="1.39"/>
				<rect x="60.56" y="123.44" class="st47" width="317.56" height="1.39"/>
				<rect x="60.56" y="122.06" class="st46" width="317.56" height="1.39"/>
				<rect x="60.56" y="120.67" class="st45" width="317.56" height="1.39"/>
				<rect x="60.56" y="119.28" class="st44" width="317.56" height="1.39"/>
				<rect x="60.56" y="117.89" class="st43" width="317.56" height="1.39"/>
				<rect x="60.56" y="116.5" class="st42" width="317.56" height="1.39"/>
				<rect x="60.56" y="115.11" class="st41" width="317.56" height="1.39"/>
				<rect x="60.56" y="113.72" class="st40" width="317.56" height="1.39"/>
				<rect x="60.56" y="112.34" class="st39" width="317.56" height="1.39"/>
				<rect x="60.56" y="110.95" class="st38" width="317.56" height="1.39"/>
				<rect x="60.56" y="109.56" class="st37" width="317.56" height="1.39"/>
				<rect x="60.56" y="108.17" class="st36" width="317.56" height="1.39"/>
				<rect x="60.56" y="106.78" class="st36" width="317.56" height="1.39"/>
				<rect x="60.56" y="105.39" class="st35" width="317.56" height="1.39"/>
				<rect x="60.56" y="104" class="st34" width="317.56" height="1.39"/>
				<rect x="60.56" y="102.61" class="st33" width="317.56" height="1.39"/>
				<rect x="60.56" y="101.23" class="st32" width="317.56" height="1.39"/>
				<rect x="60.56" y="99.84" class="st31" width="317.56" height="1.39"/>
				<rect x="60.56" y="98.45" class="st31" width="317.56" height="1.39"/>
				<rect x="60.56" y="97.06" class="st30" width="317.56" height="1.39"/>
				<rect x="60.56" y="95.67" class="st29" width="317.56" height="1.39"/>
				<rect x="60.56" y="94.28" class="st28" width="317.56" height="1.39"/>
				<rect x="60.56" y="92.89" class="st27" width="317.56" height="1.39"/>
				<rect x="60.56" y="91.51" class="st26" width="317.56" height="1.39"/>
				<rect x="60.56" y="90.12" class="st25" width="317.56" height="1.39"/>
				<rect x="60.56" y="88.73" class="st24" width="317.56" height="1.39"/>
				<rect x="60.56" y="87.34" class="st23" width="317.56" height="1.39"/>
				<rect x="60.56" y="85.95" class="st23" width="317.56" height="1.39"/>
				<rect x="60.56" y="84.56" class="st22" width="317.56" height="1.39"/>
				<rect x="60.56" y="83.17" class="st21" width="317.56" height="1.39"/>
				<rect x="60.56" y="81.79" class="st21" width="317.56" height="1.39"/>
				<rect x="60.56" y="80.4" class="st20" width="317.56" height="1.39"/>
				<rect x="60.56" y="79.01" class="st19" width="317.56" height="1.39"/>
				<rect x="60.56" y="77.62" class="st18" width="317.56" height="1.39"/>
				<rect x="60.56" y="76.23" class="st17" width="317.56" height="1.39"/>
				<rect x="60.56" y="74.84" class="st16" width="317.56" height="1.39"/>
				<rect x="60.56" y="73.45" class="st15" width="317.56" height="1.39"/>
				<rect x="60.56" y="72.07" class="st15" width="317.56" height="1.39"/>
				<rect x="60.56" y="70.68" class="st14" width="317.56" height="1.39"/>
				<rect x="60.56" y="69.29" class="st13" width="317.56" height="1.39"/>
				<rect x="60.56" y="67.9" class="st13" width="317.56" height="1.39"/>
				<rect x="60.56" y="66.51" class="st12" width="317.56" height="1.39"/>
				<rect x="60.56" y="65.12" class="st11" width="317.56" height="1.39"/>
				<rect x="60.56" y="63.73" class="st10" width="317.56" height="1.39"/>
				<rect x="60.56" y="62.34" class="st9" width="317.56" height="1.39"/>
				<rect x="60.56" y="60.96" class="st9" width="317.56" height="1.39"/>
				<rect x="60.56" y="59.57" class="st8" width="317.56" height="1.39"/>
				<rect x="60.56" y="58.18" class="st7" width="317.56" height="1.39"/>
				<rect x="60.56" y="56.79" class="st6" width="317.56" height="1.39"/>
				<rect x="60.56" y="55.4" class="st5" width="317.56" height="1.39"/>
				<rect x="60.56" y="54.01" class="st5" width="317.56" height="1.39"/>
				<rect x="60.56" y="52.62" class="st4" width="317.56" height="1.39"/>
				<rect x="60.56" y="51.24" class="st3" width="317.56" height="1.39"/>
				<rect x="60.56" y="49.85" class="st2" width="317.56" height="1.39"/>
				<rect x="60.56" y="48.46" class="st2" width="317.56" height="1.39"/>
				<rect x="60.56" y="47.07" class="st2" width="317.56" height="1.39"/>
				<path class="st2" d="M378.12,47.07H60.56H378.12z"/>
			</g>
		</g>
		<g class="st86">
			<path class="st87" d="M223.79,316.67c1.97,55.26,3.7,109.48,5.15,161.62c1.1,39.9,3.63,60.62,5.54,70.93
				c9.72,1.95,25.04,3.68,48.86,3.68c7.33,0,15.25-0.17,23.54-0.5c28.33-1.13,42.88-3.57,49.88-5.27c1.84-7.2,4.86-22.37,8.14-52.54
				c4.42-40.61,7.79-88.09,10.03-141.1c-6.2-1.31-12.36-2.75-18.44-4.3C312.32,337.93,268.83,321.82,223.79,316.67z"/>
		</g>
		<g class="st88">
			<path class="st87" d="M324.52,528.51L324.52,528.51c-8.46-1.45-14.2-9.55-12.75-18.01l0,0c1.45-8.46,9.55-14.2,18.01-12.75l0,0
				c8.46,1.45,14.2,9.55,12.75,18.01l0,0C341.08,524.22,332.98,529.96,324.52,528.51z"/>
		</g>
		<g class="st88">
			<path class="st87" d="M339.44,487.52L339.44,487.52c-4.23-0.72-7.1-4.78-6.38-9.01l0,0c0.72-4.23,4.78-7.1,9.01-6.38l0,0
				c4.23,0.72,7.1,4.78,6.38,9.01l0,0C347.72,485.38,343.67,488.25,339.44,487.52z"/>
		</g>
	</g>
	<g>
		<g>
			<path class="st0" d="M827.25,250.43c68.52,45.52,92.42,108.74,71.69,189.66c-7.08,28.07-19.79,52.72-38.12,73.97
				c-18.34,21.24-40.02,38.19-65.05,50.83c-25.03,12.9-54.12,21.24-87.24,25.03c-33.13,3.79-63.98,2.28-92.55-4.55
				c-74.6-18.97-127.32-64.86-158.17-137.69c-5.31-12.9-0.57-24.78,14.22-35.65c14.79-10.87,32.56-19.91,53.29-27.12
				c20.73-7.21,40.97-11.95,60.69-14.22s31.73-1.39,36.03,2.66c3.79,4.05,5.94,8.98,6.45,14.79c1.01,19.72,13.71,26.24,38.12,19.53
				c24.4-6.7,34.58-16.25,30.54-28.64c-4.55-13.66-22.25-29.08-53.1-46.28c-30.85-17.19-46.66-38.44-47.41-63.72
				c-0.25-5.82,1.26-15.42,4.55-28.83c3.28-13.4,12.9-28.57,28.83-45.52c-48.05-0.76-81.43-2.15-100.14-4.17
				c-12.14-1.26-22.32-9.16-30.53-23.71c-8.22-14.54-14.03-31.04-17.45-49.5c-3.41-18.46-4.11-36.48-2.09-54.05
				c2.02-17.57,7.21-30.28,15.55-38.12c6.57-6.07,29.02-10.56,67.33-13.47c38.31-2.91,79.85-4.04,124.6-3.41
				c44.76,0.63,86.42,2.91,124.98,6.83c38.56,3.92,61.51,9.55,68.85,16.88c15.93,16.69,14.92,50.45-3.03,101.28
				C860.12,184.05,843.18,223.12,827.25,250.43z"/>
			<path class="st1" d="M674.05,600c-20.96,0-41.02-2.26-59.95-6.79c-76.94-19.56-131.99-67.45-163.73-142.39
				c-4.76-11.57-5.67-28.74,16.88-45.31c15.39-11.31,34.04-20.81,55.43-28.25c21.21-7.37,42.21-12.28,62.42-14.61
				c23.31-2.69,36.02-1.29,42.48,4.78c5.41,5.74,8.3,12.34,8.97,19.99c0.33,6.33,1.92,10.43,4.75,12.48
				c4.15,3,12.17,2.99,23.18-0.03c18.12-4.97,23.29-10.3,24.76-13.03c0.57-1.06,1.12-2.62,0.24-5.31
				c-2.64-7.94-13.37-21.66-49.35-41.73c-33.37-18.6-50.72-42.33-51.56-70.55c-0.29-6.55,1.27-16.72,4.78-31
				c2.73-11.15,9.07-22.96,19.24-35.82c-39.4-0.81-66.84-2.09-83.59-3.91c-14.81-1.54-27.17-10.88-36.7-27.76
				c-8.61-15.23-14.79-32.73-18.35-52.01c-3.55-19.14-4.28-38.13-2.17-56.44c2.23-19.43,8.31-33.93,18.04-43.08
				c5.6-5.17,18.82-11.57,72.25-15.63c38.38-2.9,80.54-4.08,125.33-3.43c44.82,0.63,87.11,2.94,125.69,6.86
				c53.8,5.46,67.67,13.12,73.74,19.19c18.52,19.41,18.11,55.24-1.14,109.68c-16.69,47.23-32.74,84.88-47.76,112.06
				c66.61,47.11,89.76,112.39,68.83,194.12c-7.34,29.15-20.76,55.14-39.83,77.23c-18.95,21.97-41.68,39.72-67.52,52.77
				c-25.73,13.25-56.01,21.95-89.96,25.85C697.4,599.32,685.59,600,674.05,600z M604.56,377.51c-4.26,0-9.98,0.3-17.62,1.19
				c-19.04,2.18-38.87,6.84-58.97,13.83c-19.87,6.9-37.08,15.65-51.16,26c-15.15,11.13-14.13,19.77-11.53,26.06
				c29.64,69.98,81.02,114.73,152.69,132.95c27.4,6.54,57.6,8.02,89.65,4.35c32-3.67,60.42-11.81,84.46-24.19
				c24.01-12.13,45.07-28.58,62.65-48.93c17.41-20.18,29.66-43.95,36.39-70.66c19.97-77.96-2.37-137.15-68.32-180.96
				c-3.57-2.37-4.67-7.1-2.51-10.8c15.57-26.66,32.47-65.64,50.21-115.82c16.53-46.82,18.19-78.99,4.79-93.02
				c-2.56-2.56-14.19-9.37-63.82-14.41c-38.11-3.89-79.92-6.17-124.28-6.79c-44.29-0.64-85.99,0.52-123.88,3.38
				c-50.74,3.86-60.63,9.67-62.46,11.34c-6.83,6.42-11.22,17.58-13,33.11c-1.92,16.72-1.25,34.09,2.01,51.66
				c3.24,17.51,8.79,33.32,16.53,47c6.91,12.24,14.88,18.66,24.34,19.65c18.37,1.99,51.81,3.39,99.43,4.14
				c3.2,0.05,6.06,1.98,7.31,4.93c1.24,2.94,0.64,6.35-1.55,8.67c-14.9,15.86-23.94,29.95-26.87,41.9
				c-3.85,15.68-4.48,23.1-4.33,26.56c0.68,22.56,14.83,41.17,43.28,57.03c32.99,18.38,51.57,34.99,56.83,50.77
				c2.07,6.33,1.6,12.55-1.36,18.03c-4.85,9.02-16.2,15.87-34.7,20.95c-16.37,4.49-28.44,3.67-36.93-2.46
				c-7-5.05-10.83-13.27-11.39-24.44c-0.33-3.72-1.74-6.98-4.28-9.69C616.48,379.14,614.07,377.51,604.56,377.51z"/>
		</g>
		<g class="st86">
			<path class="st87" d="M718.9,282.53c-23.99-13.38-46.11-30.9-72.39-38.9c-1.51-0.46-3.02-0.87-4.53-1.26
				c-2.07,3.69-2.82,6.02-3.07,7.07c-3.09,12.61-3.42,17.42-3.46,18.2l0.01,0.21c0.12,3.93,0.48,15.9,27.5,30.96
				c41.11,22.92,63.02,43.87,71.12,68.16c4.65,14.27,3.4,29.23-3.54,42.11c-9.05,16.82-26.6,28.6-53.64,36.03
				c-9.64,2.65-18.34,3.94-26.6,3.94c-27.86,0-49.12-15.5-57.18-40.08c-0.84,0.09-1.73,0.18-2.66,0.29
				c-16.81,1.94-34.44,6.09-52.39,12.33c-15.75,5.47-29.35,12.17-40.5,19.91c26.36,56.19,68.23,90.96,127.7,106.15
				c15.25,3.62,31.61,5.46,48.63,5.46c9.73,0,19.89-0.6,30.2-1.78c28.29-3.24,53.15-10.29,74.15-21.12
				c20.35-10.28,38.24-24.25,53.16-41.53c14.46-16.76,24.23-35.76,29.9-58.23c12.29-47.96,5.67-86.17-20.84-117.48
				C798.18,313.17,755.87,303.16,718.9,282.53z"/>
		</g>
		<g>
			<g>
				<defs>
					<path id="SVGID_3_" d="M805.76,282.79l-30.52-20.27l18.46-31.65c14.62-25.06,30.68-62.26,47.75-110.57
						c12.84-36.34,12.65-53.06,11.68-59.3c-6.05-1.77-19-4.66-44.79-7.28c-37.27-3.79-78.18-6.02-121.6-6.63
						c-7.79-0.11-15.47-0.16-23.06-0.16c-34.7,0-67.69,1.17-98.05,3.47c-25.87,1.96-38.8,4.29-44.81,5.74
						c-0.8,2.22-1.77,5.88-2.43,11.56c-1.57,13.64-1,27.96,1.7,42.54c2.61,14.14,7.01,26.73,13.07,37.46
						c1.28,2.26,2.31,3.64,2.97,4.41c17.86,1.77,49.63,3.03,94.49,3.74l87.91,1.39l-60.22,64.05c-8.82,9.38-13.67,16.36-16.33,21.1
						c1.51,0.39,3.02,0.8,4.53,1.26c26.28,8,48.4,25.52,72.39,38.9c36.97,20.63,79.28,30.64,121.58,30.43
						C831.3,302.12,819.77,292.09,805.76,282.79z"/>
				</defs>
				<clipPath id="SVGID_4_">
					<use xlink:href="#SVGID_3_"  style="overflow:visible;"/>
				</clipPath>
				<rect x="516.82" y="312.97" class="st89" width="337.48" height="0.21"/>
				<rect x="516.82" y="311.46" class="st89" width="337.48" height="1.51"/>
				<rect x="516.82" y="309.95" class="st89" width="337.48" height="1.51"/>
				<rect x="516.82" y="308.44" class="st89" width="337.48" height="1.51"/>
				<rect x="516.82" y="306.93" class="st90" width="337.48" height="1.51"/>
				<rect x="516.82" y="305.42" class="st91" width="337.48" height="1.51"/>
				<rect x="516.82" y="303.91" class="st92" width="337.48" height="1.51"/>
				<rect x="516.82" y="302.4" class="st92" width="337.48" height="1.51"/>
				<rect x="516.82" y="300.9" class="st93" width="337.48" height="1.51"/>
				<rect x="516.82" y="299.39" class="st94" width="337.48" height="1.51"/>
				<rect x="516.82" y="297.88" class="st95" width="337.48" height="1.51"/>
				<rect x="516.82" y="296.37" class="st96" width="337.48" height="1.51"/>
				<rect x="516.82" y="294.86" class="st96" width="337.48" height="1.51"/>
				<rect x="516.82" y="293.35" class="st97" width="337.48" height="1.51"/>
				<rect x="516.82" y="291.84" class="st98" width="337.48" height="1.51"/>
				<rect x="516.82" y="290.33" class="st99" width="337.48" height="1.51"/>
				<rect x="516.82" y="288.82" class="st100" width="337.48" height="1.51"/>
				<rect x="516.82" y="287.31" class="st100" width="337.48" height="1.51"/>
				<rect x="516.82" y="285.8" class="st101" width="337.48" height="1.51"/>
				<rect x="516.82" y="284.3" class="st102" width="337.48" height="1.51"/>
				<rect x="516.82" y="282.79" class="st102" width="337.48" height="1.51"/>
				<rect x="516.82" y="281.28" class="st103" width="337.48" height="1.51"/>
				<rect x="516.82" y="279.77" class="st104" width="337.48" height="1.51"/>
				<rect x="516.82" y="278.26" class="st105" width="337.48" height="1.51"/>
				<rect x="516.82" y="276.75" class="st106" width="337.48" height="1.51"/>
				<rect x="516.82" y="275.24" class="st107" width="337.48" height="1.51"/>
				<rect x="516.82" y="273.73" class="st108" width="337.48" height="1.51"/>
				<rect x="516.82" y="272.22" class="st108" width="337.48" height="1.51"/>
				<rect x="516.82" y="270.71" class="st109" width="337.48" height="1.51"/>
				<rect x="516.82" y="269.2" class="st110" width="337.48" height="1.51"/>
				<rect x="516.82" y="267.7" class="st110" width="337.48" height="1.51"/>
				<rect x="516.82" y="266.19" class="st111" width="337.48" height="1.51"/>
				<rect x="516.82" y="264.68" class="st112" width="337.48" height="1.51"/>
				<rect x="516.82" y="263.17" class="st113" width="337.48" height="1.51"/>
				<rect x="516.82" y="261.66" class="st114" width="337.48" height="1.51"/>
				<rect x="516.82" y="260.15" class="st115" width="337.48" height="1.51"/>
				<rect x="516.82" y="258.64" class="st116" width="337.48" height="1.51"/>
				<rect x="516.82" y="257.13" class="st117" width="337.48" height="1.51"/>
				<rect x="516.82" y="255.62" class="st118" width="337.48" height="1.51"/>
				<rect x="516.82" y="254.11" class="st118" width="337.48" height="1.51"/>
				<rect x="516.82" y="252.6" class="st119" width="337.48" height="1.51"/>
				<rect x="516.82" y="251.1" class="st120" width="337.48" height="1.51"/>
				<rect x="516.82" y="249.59" class="st121" width="337.48" height="1.51"/>
				<rect x="516.82" y="248.08" class="st122" width="337.48" height="1.51"/>
				<rect x="516.82" y="246.57" class="st123" width="337.48" height="1.51"/>
				<rect x="516.82" y="245.06" class="st123" width="337.48" height="1.51"/>
				<rect x="516.82" y="243.55" class="st124" width="337.48" height="1.51"/>
				<rect x="516.82" y="242.04" class="st125" width="337.48" height="1.51"/>
				<rect x="516.82" y="240.53" class="st126" width="337.48" height="1.51"/>
				<rect x="516.82" y="239.02" class="st127" width="337.48" height="1.51"/>
				<rect x="516.82" y="237.51" class="st128" width="337.48" height="1.51"/>
				<rect x="516.82" y="236" class="st129" width="337.48" height="1.51"/>
				<rect x="516.82" y="234.5" class="st130" width="337.48" height="1.51"/>
				<rect x="516.82" y="232.99" class="st131" width="337.48" height="1.51"/>
				<rect x="516.82" y="231.48" class="st132" width="337.48" height="1.51"/>
				<rect x="516.82" y="229.97" class="st133" width="337.48" height="1.51"/>
				<rect x="516.82" y="228.46" class="st134" width="337.48" height="1.51"/>
				<rect x="516.82" y="226.95" class="st135" width="337.48" height="1.51"/>
				<rect x="516.82" y="225.44" class="st136" width="337.48" height="1.51"/>
				<rect x="516.82" y="223.93" class="st137" width="337.48" height="1.51"/>
				<rect x="516.82" y="222.42" class="st137" width="337.48" height="1.51"/>
				<rect x="516.82" y="220.91" class="st138" width="337.48" height="1.51"/>
				<rect x="516.82" y="219.4" class="st139" width="337.48" height="1.51"/>
				<rect x="516.82" y="217.9" class="st140" width="337.48" height="1.51"/>
				<rect x="516.82" y="216.39" class="st141" width="337.48" height="1.51"/>
				<rect x="516.82" y="214.88" class="st142" width="337.48" height="1.51"/>
				<rect x="516.82" y="213.37" class="st143" width="337.48" height="1.51"/>
				<rect x="516.82" y="211.86" class="st143" width="337.48" height="1.51"/>
				<rect x="516.82" y="210.35" class="st144" width="337.48" height="1.51"/>
				<rect x="516.82" y="208.84" class="st145" width="337.48" height="1.51"/>
				<rect x="516.82" y="207.33" class="st146" width="337.48" height="1.51"/>
				<rect x="516.82" y="205.82" class="st147" width="337.48" height="1.51"/>
				<rect x="516.82" y="204.31" class="st148" width="337.48" height="1.51"/>
				<rect x="516.82" y="202.8" class="st149" width="337.48" height="1.51"/>
				<rect x="516.82" y="201.3" class="st150" width="337.48" height="1.51"/>
				<rect x="516.82" y="199.79" class="st151" width="337.48" height="1.51"/>
				<rect x="516.82" y="198.28" class="st152" width="337.48" height="1.51"/>
				<rect x="516.82" y="196.77" class="st153" width="337.48" height="1.51"/>
				<rect x="516.82" y="195.26" class="st154" width="337.48" height="1.51"/>
				<rect x="516.82" y="193.75" class="st155" width="337.48" height="1.51"/>
				<rect x="516.82" y="192.24" class="st155" width="337.48" height="1.51"/>
				<rect x="516.82" y="190.73" class="st156" width="337.48" height="1.51"/>
				<rect x="516.82" y="189.22" class="st157" width="337.48" height="1.51"/>
				<rect x="516.82" y="187.71" class="st158" width="337.48" height="1.51"/>
				<rect x="516.82" y="186.21" class="st159" width="337.48" height="1.51"/>
				<rect x="516.82" y="184.7" class="st160" width="337.48" height="1.51"/>
				<rect x="516.82" y="183.19" class="st161" width="337.48" height="1.51"/>
				<rect x="516.82" y="181.68" class="st162" width="337.48" height="1.51"/>
				<rect x="516.82" y="180.17" class="st163" width="337.48" height="1.51"/>
				<rect x="516.82" y="178.66" class="st164" width="337.48" height="1.51"/>
				<rect x="516.82" y="177.15" class="st165" width="337.48" height="1.51"/>
				<rect x="516.82" y="175.64" class="st165" width="337.48" height="1.51"/>
				<rect x="516.82" y="174.13" class="st166" width="337.48" height="1.51"/>
				<rect x="516.82" y="172.62" class="st167" width="337.48" height="1.51"/>
				<rect x="516.82" y="171.11" class="st168" width="337.48" height="1.51"/>
				<rect x="516.82" y="169.61" class="st169" width="337.48" height="1.51"/>
				<rect x="516.82" y="168.1" class="st170" width="337.48" height="1.51"/>
				<rect x="516.82" y="166.59" class="st171" width="337.48" height="1.51"/>
				<rect x="516.82" y="165.08" class="st172" width="337.48" height="1.51"/>
				<rect x="516.82" y="163.87" class="st172" width="337.48" height="1.21"/>
				<rect x="516.82" y="162.67" class="st171" width="337.48" height="1.21"/>
				<rect x="516.82" y="161.46" class="st170" width="337.48" height="1.21"/>
				<rect x="516.82" y="160.25" class="st169" width="337.48" height="1.21"/>
				<rect x="516.82" y="159.05" class="st168" width="337.48" height="1.21"/>
				<rect x="516.82" y="157.84" class="st167" width="337.48" height="1.21"/>
				<rect x="516.82" y="156.64" class="st166" width="337.48" height="1.21"/>
				<rect x="516.82" y="155.43" class="st165" width="337.48" height="1.21"/>
				<rect x="516.82" y="154.23" class="st165" width="337.48" height="1.21"/>
				<rect x="516.82" y="153.02" class="st164" width="337.48" height="1.21"/>
				<rect x="516.82" y="151.81" class="st163" width="337.48" height="1.21"/>
				<rect x="516.82" y="150.61" class="st162" width="337.48" height="1.21"/>
				<rect x="516.82" y="149.4" class="st161" width="337.48" height="1.21"/>
				<rect x="516.82" y="148.2" class="st160" width="337.48" height="1.21"/>
				<rect x="516.82" y="146.99" class="st159" width="337.48" height="1.21"/>
				<rect x="516.82" y="145.79" class="st158" width="337.48" height="1.21"/>
				<rect x="516.82" y="144.58" class="st157" width="337.48" height="1.21"/>
				<rect x="516.82" y="143.37" class="st156" width="337.48" height="1.21"/>
				<rect x="516.82" y="142.17" class="st155" width="337.48" height="1.21"/>
				<rect x="516.82" y="140.96" class="st155" width="337.48" height="1.21"/>
				<rect x="516.82" y="139.76" class="st154" width="337.48" height="1.21"/>
				<rect x="516.82" y="138.55" class="st153" width="337.48" height="1.21"/>
				<rect x="516.82" y="137.35" class="st152" width="337.48" height="1.21"/>
				<rect x="516.82" y="136.14" class="st151" width="337.48" height="1.21"/>
				<rect x="516.82" y="134.93" class="st150" width="337.48" height="1.21"/>
				<rect x="516.82" y="133.73" class="st149" width="337.48" height="1.21"/>
				<rect x="516.82" y="132.52" class="st148" width="337.48" height="1.21"/>
				<rect x="516.82" y="131.32" class="st147" width="337.48" height="1.21"/>
				<rect x="516.82" y="130.11" class="st146" width="337.48" height="1.21"/>
				<rect x="516.82" y="128.91" class="st145" width="337.48" height="1.21"/>
				<rect x="516.82" y="127.7" class="st144" width="337.48" height="1.21"/>
				<rect x="516.82" y="126.49" class="st143" width="337.48" height="1.21"/>
				<rect x="516.82" y="125.29" class="st143" width="337.48" height="1.21"/>
				<rect x="516.82" y="124.08" class="st142" width="337.48" height="1.21"/>
				<rect x="516.82" y="122.88" class="st141" width="337.48" height="1.21"/>
				<rect x="516.82" y="121.67" class="st140" width="337.48" height="1.21"/>
				<rect x="516.82" y="120.47" class="st139" width="337.48" height="1.21"/>
				<rect x="516.82" y="119.26" class="st138" width="337.48" height="1.21"/>
				<rect x="516.82" y="118.05" class="st137" width="337.48" height="1.21"/>
				<rect x="516.82" y="116.85" class="st137" width="337.48" height="1.21"/>
				<rect x="516.82" y="115.64" class="st136" width="337.48" height="1.21"/>
				<rect x="516.82" y="114.44" class="st135" width="337.48" height="1.21"/>
				<rect x="516.82" y="113.23" class="st134" width="337.48" height="1.21"/>
				<rect x="516.82" y="112.02" class="st133" width="337.48" height="1.21"/>
				<rect x="516.82" y="110.82" class="st132" width="337.48" height="1.21"/>
				<rect x="516.82" y="109.61" class="st131" width="337.48" height="1.21"/>
				<rect x="516.82" y="108.41" class="st130" width="337.48" height="1.21"/>
				<rect x="516.82" y="107.2" class="st129" width="337.48" height="1.21"/>
				<rect x="516.82" y="106" class="st128" width="337.48" height="1.21"/>
				<rect x="516.82" y="104.79" class="st127" width="337.48" height="1.21"/>
				<rect x="516.82" y="103.58" class="st126" width="337.48" height="1.21"/>
				<rect x="516.82" y="102.38" class="st125" width="337.48" height="1.21"/>
				<rect x="516.82" y="101.17" class="st124" width="337.48" height="1.21"/>
				<rect x="516.82" y="99.97" class="st123" width="337.48" height="1.21"/>
				<rect x="516.82" y="98.76" class="st123" width="337.48" height="1.21"/>
				<rect x="516.82" y="97.56" class="st122" width="337.48" height="1.21"/>
				<rect x="516.82" y="96.35" class="st121" width="337.48" height="1.21"/>
				<rect x="516.82" y="95.14" class="st120" width="337.48" height="1.21"/>
				<rect x="516.82" y="93.94" class="st119" width="337.48" height="1.21"/>
				<rect x="516.82" y="92.73" class="st118" width="337.48" height="1.21"/>
				<rect x="516.82" y="91.53" class="st118" width="337.48" height="1.21"/>
				<rect x="516.82" y="90.32" class="st117" width="337.48" height="1.21"/>
				<rect x="516.82" y="89.12" class="st116" width="337.48" height="1.21"/>
				<rect x="516.82" y="87.91" class="st115" width="337.48" height="1.21"/>
				<rect x="516.82" y="86.7" class="st114" width="337.48" height="1.21"/>
				<rect x="516.82" y="85.5" class="st113" width="337.48" height="1.21"/>
				<rect x="516.82" y="84.29" class="st112" width="337.48" height="1.21"/>
				<rect x="516.82" y="83.09" class="st111" width="337.48" height="1.21"/>
				<rect x="516.82" y="81.88" class="st110" width="337.48" height="1.21"/>
				<rect x="516.82" y="80.68" class="st110" width="337.48" height="1.21"/>
				<rect x="516.82" y="79.47" class="st109" width="337.48" height="1.21"/>
				<rect x="516.82" y="78.26" class="st108" width="337.48" height="1.21"/>
				<rect x="516.82" y="77.06" class="st108" width="337.48" height="1.21"/>
				<rect x="516.82" y="75.85" class="st107" width="337.48" height="1.21"/>
				<rect x="516.82" y="74.65" class="st106" width="337.48" height="1.21"/>
				<rect x="516.82" y="73.44" class="st105" width="337.48" height="1.21"/>
				<rect x="516.82" y="72.24" class="st104" width="337.48" height="1.21"/>
				<rect x="516.82" y="71.03" class="st103" width="337.48" height="1.21"/>
				<rect x="516.82" y="69.82" class="st102" width="337.48" height="1.21"/>
				<rect x="516.82" y="68.62" class="st102" width="337.48" height="1.21"/>
				<rect x="516.82" y="67.41" class="st101" width="337.48" height="1.21"/>
				<rect x="516.82" y="66.21" class="st100" width="337.48" height="1.21"/>
				<rect x="516.82" y="65" class="st100" width="337.48" height="1.21"/>
				<rect x="516.82" y="63.8" class="st99" width="337.48" height="1.21"/>
				<rect x="516.82" y="62.59" class="st98" width="337.48" height="1.21"/>
				<rect x="516.82" y="61.38" class="st97" width="337.48" height="1.21"/>
				<rect x="516.82" y="60.18" class="st96" width="337.48" height="1.21"/>
				<rect x="516.82" y="58.97" class="st96" width="337.48" height="1.21"/>
				<rect x="516.82" y="57.77" class="st95" width="337.48" height="1.21"/>
				<rect x="516.82" y="56.56" class="st94" width="337.48" height="1.21"/>
				<rect x="516.82" y="55.35" class="st93" width="337.48" height="1.21"/>
				<rect x="516.82" y="54.15" class="st92" width="337.48" height="1.21"/>
				<rect x="516.82" y="52.94" class="st92" width="337.48" height="1.21"/>
				<rect x="516.82" y="51.74" class="st91" width="337.48" height="1.21"/>
				<rect x="516.82" y="50.53" class="st90" width="337.48" height="1.21"/>
				<rect x="516.82" y="49.33" class="st89" width="337.48" height="1.21"/>
				<rect x="516.82" y="48.12" class="st89" width="337.48" height="1.21"/>
				<rect x="516.82" y="46.91" class="st89" width="337.48" height="1.21"/>
				<path class="st89" d="M854.29,46.91H516.82H854.29z"/>
			</g>
		</g>
		<g class="st88">
			<path class="st87" d="M813.93,485.93L813.93,485.93c-8.42-1.44-14.14-9.51-12.7-17.93l0,0c1.44-8.42,9.51-14.14,17.93-12.7l0,0
				c8.42,1.44,14.14,9.51,12.7,17.93l0,0C830.42,481.65,822.35,487.37,813.93,485.93z"/>
		</g>
		<g class="st88">
			<path class="st87" d="M828.78,445.12L828.78,445.12c-4.21-0.72-7.07-4.75-6.35-8.97l0,0c0.72-4.21,4.75-7.07,8.97-6.35l0,0
				c4.21,0.72,7.07,4.75,6.35,8.97l0,0C837.03,442.98,832.99,445.84,828.78,445.12z"/>
		</g>
	</g>
</g>
</svg>
