<?xml version="1.0" encoding="utf-8"?>
<!-- Generator: Adobe Illustrator 24.1.0, SVG Export Plug-In . SVG Version: 6.00 Build 0)  -->
<svg version="1.1" id="Layer_1" xmlns="http://www.w3.org/2000/svg" xmlns:xlink="http://www.w3.org/1999/xlink" x="0px" y="0px"
	 viewBox="0 0 600 600" style="enable-background:new 0 0 600 600;" xml:space="preserve">
<style type="text/css">
	.st0{fill:#F7DE03;}
	.st1{fill:#E3A925;}
	.st2{opacity:0.2;}
	.st3{fill:#FFFFFF;}
	.st4{clip-path:url(#SVGID_2_);fill:#FFFFFF;}
	.st5{clip-path:url(#SVGID_2_);fill:#FFFFFD;}
	.st6{clip-path:url(#SVGID_2_);fill:#FFFFFC;}
	.st7{clip-path:url(#SVGID_2_);fill:#FFFFFA;}
	.st8{clip-path:url(#SVGID_2_);fill:#FFFEF9;}
	.st9{clip-path:url(#SVGID_2_);fill:#FFFEF8;}
	.st10{clip-path:url(#SVGID_2_);fill:#FFFEF6;}
	.st11{clip-path:url(#SVGID_2_);fill:#FFFEF5;}
	.st12{clip-path:url(#SVGID_2_);fill:#FFFEF4;}
	.st13{clip-path:url(#SVGID_2_);fill:#FFFEF3;}
	.st14{clip-path:url(#SVGID_2_);fill:#FFFEF2;}
	.st15{clip-path:url(#SVGID_2_);fill:#FFFEF1;}
	.st16{clip-path:url(#SVGID_2_);fill:#FFFEEF;}
	.st17{clip-path:url(#SVGID_2_);fill:#FEFDEE;}
	.st18{clip-path:url(#SVGID_2_);fill:#FEFDED;}
	.st19{clip-path:url(#SVGID_2_);fill:#FEFDEB;}
	.st20{clip-path:url(#SVGID_2_);fill:#FFFDEA;}
	.st21{clip-path:url(#SVGID_2_);fill:#FFFCEA;}
	.st22{clip-path:url(#SVGID_2_);fill:#FDFCE8;}
	.st23{clip-path:url(#SVGID_2_);fill:#FDFCE7;}
	.st24{clip-path:url(#SVGID_2_);fill:#FDFBE5;}
	.st25{clip-path:url(#SVGID_2_);fill:#FDFBE4;}
	.st26{clip-path:url(#SVGID_2_);fill:#FDFBE2;}
	.st27{clip-path:url(#SVGID_2_);fill:#FDFBE1;}
	.st28{clip-path:url(#SVGID_2_);fill:#FDFBE0;}
	.st29{clip-path:url(#SVGID_2_);fill:#FEFBDF;}
	.st30{clip-path:url(#SVGID_2_);fill:#FEFBDE;}
	.st31{clip-path:url(#SVGID_2_);fill:#FEFBDD;}
	.st32{clip-path:url(#SVGID_2_);fill:#FEFBDC;}
	.st33{clip-path:url(#SVGID_2_);fill:#FCFADB;}
	.st34{clip-path:url(#SVGID_2_);fill:#FCFADA;}
	.st35{clip-path:url(#SVGID_2_);fill:#FCFAD9;}
	.st36{clip-path:url(#SVGID_2_);fill:#FCFAD8;}
	.st37{clip-path:url(#SVGID_2_);fill:#FDFAD7;}
	.st38{clip-path:url(#SVGID_2_);fill:#FDFAD5;}
	.st39{clip-path:url(#SVGID_2_);fill:#FDFAD4;}
	.st40{clip-path:url(#SVGID_2_);fill:#FDF9D2;}
	.st41{clip-path:url(#SVGID_2_);fill:#FCF9D2;}
	.st42{clip-path:url(#SVGID_2_);fill:#FCF9D1;}
	.st43{clip-path:url(#SVGID_2_);fill:#FCF9CF;}
	.st44{clip-path:url(#SVGID_2_);fill:#FCF9CE;}
	.st45{clip-path:url(#SVGID_2_);fill:#FCF8CD;}
	.st46{clip-path:url(#SVGID_2_);fill:#FCF8CC;}
	.st47{clip-path:url(#SVGID_2_);fill:#FCF8CB;}
	.st48{clip-path:url(#SVGID_2_);fill:#FCF8CA;}
	.st49{clip-path:url(#SVGID_2_);fill:#FCF8C9;}
	.st50{clip-path:url(#SVGID_2_);fill:#FCF8C8;}
	.st51{clip-path:url(#SVGID_2_);fill:#FCF8C7;}
	.st52{clip-path:url(#SVGID_2_);fill:#FCF8C6;}
	.st53{clip-path:url(#SVGID_2_);fill:#FCF8C5;}
	.st54{clip-path:url(#SVGID_2_);fill:#FCF8C3;}
	.st55{clip-path:url(#SVGID_2_);fill:#FDF8C2;}
	.st56{clip-path:url(#SVGID_2_);fill:#FDF8C1;}
	.st57{clip-path:url(#SVGID_2_);fill:#FDF8C0;}
	.st58{clip-path:url(#SVGID_2_);fill:#FBF7BF;}
	.st59{clip-path:url(#SVGID_2_);fill:#FCF7BE;}
	.st60{clip-path:url(#SVGID_2_);fill:#FCF7BD;}
	.st61{clip-path:url(#SVGID_2_);fill:#FCF7BC;}
	.st62{clip-path:url(#SVGID_2_);fill:#FCF7BB;}
	.st63{clip-path:url(#SVGID_2_);fill:#FCF7BA;}
	.st64{clip-path:url(#SVGID_2_);fill:#FCF7B9;}
	.st65{clip-path:url(#SVGID_2_);fill:#FCF6B7;}
	.st66{clip-path:url(#SVGID_2_);fill:#FCF6B6;}
	.st67{clip-path:url(#SVGID_2_);fill:#FCF6B5;}
	.st68{clip-path:url(#SVGID_2_);fill:#FCF6B4;}
	.st69{clip-path:url(#SVGID_2_);fill:#FCF6B3;}
	.st70{clip-path:url(#SVGID_2_);fill:#FBF6B2;}
	.st71{clip-path:url(#SVGID_2_);fill:#FBF6B1;}
	.st72{clip-path:url(#SVGID_2_);fill:#FBF5B0;}
	.st73{clip-path:url(#SVGID_2_);fill:#FBF5AF;}
	.st74{clip-path:url(#SVGID_2_);fill:#FBF5AE;}
	.st75{clip-path:url(#SVGID_2_);fill:#FBF5AD;}
	.st76{clip-path:url(#SVGID_2_);fill:#FBF5AC;}
	.st77{clip-path:url(#SVGID_2_);fill:#FBF5AB;}
	.st78{clip-path:url(#SVGID_2_);fill:#FBF5AA;}
	.st79{clip-path:url(#SVGID_2_);fill:#FBF5A9;}
	.st80{clip-path:url(#SVGID_2_);fill:#FCF5A8;}
	.st81{clip-path:url(#SVGID_2_);fill:#FCF5A7;}
	.st82{clip-path:url(#SVGID_2_);fill:#FCF5A6;}
	.st83{clip-path:url(#SVGID_2_);fill:#FCF5A4;}
	.st84{clip-path:url(#SVGID_2_);fill:#FBF4A4;}
	.st85{clip-path:url(#SVGID_2_);fill:#FBF4A2;}
	.st86{clip-path:url(#SVGID_2_);fill:#FBF4A1;}
	.st87{clip-path:url(#SVGID_2_);fill:#FBF4A0;}
	.st88{opacity:0.6;}
</style>
<g>
	<g>
		<path class="st0" d="M446.33,250.43c68.52,45.52,92.42,108.74,71.69,189.66c-7.08,28.07-19.79,52.72-38.12,73.97
			c-18.34,21.24-40.02,38.19-65.05,50.83c-25.03,12.9-54.12,21.24-87.24,25.03c-33.13,3.79-63.98,2.28-92.55-4.55
			c-74.6-18.97-127.32-64.86-158.17-137.69c-5.31-12.9-0.57-24.78,14.22-35.65c14.79-10.87,32.56-19.91,53.29-27.12
			c20.73-7.21,40.97-11.95,60.69-14.22s31.73-1.39,36.03,2.66c3.79,4.05,5.94,8.98,6.45,14.79c1.01,19.72,13.71,26.24,38.12,19.53
			c24.4-6.7,34.58-16.25,30.54-28.64c-4.55-13.66-22.25-29.08-53.1-46.28c-30.85-17.19-46.66-38.44-47.41-63.72
			c-0.25-5.82,1.26-15.42,4.55-28.83c3.28-13.4,12.9-28.57,28.83-45.52c-48.05-0.76-81.43-2.15-100.14-4.17
			c-12.14-1.26-22.32-9.16-30.54-23.71c-8.22-14.54-14.03-31.04-17.45-49.5c-3.41-18.46-4.11-36.48-2.09-54.05
			c2.02-17.57,7.21-30.28,15.55-38.12c6.57-6.07,29.02-10.56,67.33-13.47c38.31-2.91,79.85-4.04,124.6-3.41
			c44.76,0.63,86.42,2.91,124.98,6.83c38.56,3.92,61.51,9.55,68.85,16.88c15.93,16.69,14.92,50.45-3.03,101.28
			C479.2,184.05,462.26,223.12,446.33,250.43z"/>
		<path class="st1" d="M293.12,600c-20.96,0-41.02-2.26-59.95-6.79c-76.94-19.56-131.99-67.45-163.73-142.39
			c-4.76-11.57-5.67-28.74,16.88-45.31c15.39-11.31,34.04-20.81,55.43-28.25c21.21-7.37,42.21-12.28,62.42-14.61
			c23.31-2.69,36.02-1.29,42.48,4.78c5.41,5.74,8.3,12.34,8.97,19.99c0.33,6.33,1.92,10.43,4.75,12.48c4.15,3,12.17,2.99,23.18-0.03
			c18.12-4.97,23.29-10.3,24.76-13.03c0.57-1.06,1.12-2.62,0.24-5.31c-2.64-7.94-13.37-21.66-49.35-41.73
			c-33.37-18.6-50.72-42.33-51.56-70.55c-0.29-6.55,1.27-16.72,4.78-31c2.73-11.15,9.07-22.96,19.24-35.82
			c-39.4-0.81-66.84-2.09-83.59-3.91c-14.81-1.54-27.17-10.88-36.7-27.76c-8.61-15.23-14.79-32.73-18.35-52.01
			c-3.55-19.14-4.28-38.13-2.17-56.44c2.23-19.43,8.31-33.93,18.04-43.08c5.6-5.17,18.82-11.57,72.25-15.63
			c38.38-2.9,80.54-4.08,125.33-3.43c44.82,0.63,87.11,2.94,125.69,6.86c53.8,5.46,67.67,13.12,73.74,19.19
			c18.52,19.41,18.11,55.24-1.14,109.68c-16.69,47.23-32.74,84.88-47.76,112.06c66.61,47.11,89.76,112.39,68.83,194.12
			c-7.34,29.15-20.76,55.14-39.83,77.23c-18.95,21.97-41.68,39.72-67.52,52.77c-25.73,13.25-56.01,21.95-89.96,25.85
			C316.48,599.32,304.67,600,293.12,600z M223.64,377.51c-4.26,0-9.98,0.3-17.62,1.19c-19.04,2.18-38.87,6.84-58.97,13.83
			c-19.87,6.9-37.08,15.65-51.16,26c-15.15,11.13-14.13,19.77-11.53,26.06c29.64,69.98,81.02,114.73,152.69,132.95
			c27.4,6.54,57.6,8.02,89.65,4.35c32-3.67,60.42-11.81,84.46-24.19c24.01-12.13,45.07-28.58,62.65-48.93
			c17.41-20.18,29.66-43.95,36.39-70.66c19.97-77.96-2.37-137.15-68.32-180.96c-3.57-2.37-4.67-7.1-2.51-10.8
			c15.57-26.66,32.47-65.64,50.21-115.82c16.53-46.82,18.19-78.99,4.79-93.02c-2.56-2.56-14.19-9.37-63.82-14.41
			c-38.11-3.89-79.92-6.17-124.28-6.79c-44.29-0.64-85.99,0.52-123.88,3.38c-50.74,3.86-60.63,9.67-62.46,11.34
			c-6.83,6.42-11.22,17.58-13,33.11c-1.92,16.72-1.25,34.09,2.01,51.66c3.24,17.51,8.79,33.32,16.53,47
			c6.91,12.24,14.88,18.66,24.34,19.65c18.37,1.99,51.81,3.39,99.43,4.14c3.2,0.05,6.06,1.98,7.31,4.93
			c1.24,2.94,0.64,6.35-1.55,8.67c-14.9,15.86-23.94,29.95-26.87,41.9c-3.85,15.68-4.48,23.1-4.33,26.56
			c0.68,22.56,14.83,41.17,43.28,57.03c32.99,18.38,51.57,34.99,56.83,50.77c2.07,6.33,1.6,12.55-1.36,18.03
			c-4.85,9.02-16.2,15.87-34.7,20.95c-16.37,4.49-28.44,3.67-36.93-2.46c-7-5.05-10.83-13.27-11.39-24.44
			c-0.33-3.72-1.74-6.98-4.28-9.69C235.56,379.14,233.15,377.51,223.64,377.51z"/>
	</g>
	<g class="st2">
		<path class="st3" d="M337.98,282.53c-23.99-13.38-46.11-30.9-72.39-38.9c-1.51-0.46-3.02-0.87-4.53-1.26
			c-2.07,3.69-2.82,6.02-3.07,7.07c-3.09,12.61-3.42,17.42-3.46,18.2l0.01,0.21c0.12,3.93,0.48,15.9,27.5,30.96
			c41.11,22.92,63.02,43.87,71.12,68.16c4.65,14.27,3.4,29.23-3.54,42.11c-9.05,16.82-26.6,28.6-53.64,36.03
			c-9.64,2.65-18.34,3.94-26.6,3.94c-27.86,0-49.12-15.5-57.18-40.08c-0.84,0.09-1.73,0.18-2.66,0.29
			c-16.81,1.94-34.44,6.09-52.39,12.33c-15.75,5.47-29.35,12.17-40.5,19.91c26.36,56.19,68.23,90.96,127.7,106.15
			c15.25,3.62,31.61,5.46,48.63,5.46c9.73,0,19.89-0.6,30.2-1.78c28.29-3.24,53.15-10.29,74.15-21.12
			c20.35-10.28,38.24-24.25,53.16-41.53c14.46-16.76,24.23-35.76,29.9-58.23c12.29-47.96,5.67-86.17-20.84-117.48
			C417.26,313.17,374.95,303.16,337.98,282.53z"/>
	</g>
	<g>
		<g>
			<defs>
				<path id="SVGID_1_" d="M424.84,282.79l-30.52-20.27l18.46-31.65c14.62-25.06,30.68-62.26,47.75-110.57
					c12.84-36.34,12.65-53.06,11.68-59.3c-6.05-1.77-19-4.66-44.79-7.28c-37.27-3.79-78.18-6.02-121.6-6.63
					c-7.79-0.11-15.47-0.16-23.06-0.16c-34.7,0-67.69,1.17-98.05,3.47c-25.87,1.96-38.8,4.29-44.81,5.74
					c-0.8,2.22-1.77,5.88-2.43,11.56c-1.57,13.64-1,27.96,1.7,42.54c2.61,14.14,7.01,26.73,13.07,37.46
					c1.28,2.26,2.31,3.64,2.97,4.41c17.86,1.77,49.63,3.03,94.49,3.74l87.91,1.39l-60.22,64.05c-8.82,9.38-13.67,16.36-16.33,21.1
					c1.51,0.39,3.02,0.8,4.53,1.26c26.28,8,48.4,25.52,72.39,38.9c36.97,20.63,79.28,30.64,121.58,30.43
					C450.37,302.12,438.85,292.09,424.84,282.79z"/>
			</defs>
			<clipPath id="SVGID_2_">
				<use xlink:href="#SVGID_1_"  style="overflow:visible;"/>
			</clipPath>
			<rect x="135.89" y="312.97" class="st4" width="337.48" height="0.21"/>
			<rect x="135.89" y="311.46" class="st4" width="337.48" height="1.51"/>
			<rect x="135.89" y="309.95" class="st4" width="337.48" height="1.51"/>
			<rect x="135.89" y="308.44" class="st4" width="337.48" height="1.51"/>
			<rect x="135.89" y="306.93" class="st5" width="337.48" height="1.51"/>
			<rect x="135.89" y="305.42" class="st6" width="337.48" height="1.51"/>
			<rect x="135.89" y="303.91" class="st7" width="337.48" height="1.51"/>
			<rect x="135.89" y="302.4" class="st7" width="337.48" height="1.51"/>
			<rect x="135.89" y="300.9" class="st8" width="337.48" height="1.51"/>
			<rect x="135.89" y="299.39" class="st9" width="337.48" height="1.51"/>
			<rect x="135.89" y="297.88" class="st10" width="337.48" height="1.51"/>
			<rect x="135.89" y="296.37" class="st11" width="337.48" height="1.51"/>
			<rect x="135.89" y="294.86" class="st11" width="337.48" height="1.51"/>
			<rect x="135.89" y="293.35" class="st12" width="337.48" height="1.51"/>
			<rect x="135.89" y="291.84" class="st13" width="337.48" height="1.51"/>
			<rect x="135.89" y="290.33" class="st14" width="337.48" height="1.51"/>
			<rect x="135.89" y="288.82" class="st15" width="337.48" height="1.51"/>
			<rect x="135.89" y="287.31" class="st15" width="337.48" height="1.51"/>
			<rect x="135.89" y="285.8" class="st16" width="337.48" height="1.51"/>
			<rect x="135.89" y="284.3" class="st17" width="337.48" height="1.51"/>
			<rect x="135.89" y="282.79" class="st17" width="337.48" height="1.51"/>
			<rect x="135.89" y="281.28" class="st18" width="337.48" height="1.51"/>
			<rect x="135.89" y="279.77" class="st19" width="337.48" height="1.51"/>
			<rect x="135.89" y="278.26" class="st20" width="337.48" height="1.51"/>
			<rect x="135.89" y="276.75" class="st21" width="337.48" height="1.51"/>
			<rect x="135.89" y="275.24" class="st22" width="337.48" height="1.51"/>
			<rect x="135.89" y="273.73" class="st23" width="337.48" height="1.51"/>
			<rect x="135.89" y="272.22" class="st23" width="337.48" height="1.51"/>
			<rect x="135.89" y="270.71" class="st24" width="337.48" height="1.51"/>
			<rect x="135.89" y="269.2" class="st25" width="337.48" height="1.51"/>
			<rect x="135.89" y="267.7" class="st25" width="337.48" height="1.51"/>
			<rect x="135.89" y="266.19" class="st26" width="337.48" height="1.51"/>
			<rect x="135.89" y="264.68" class="st27" width="337.48" height="1.51"/>
			<rect x="135.89" y="263.17" class="st28" width="337.48" height="1.51"/>
			<rect x="135.89" y="261.66" class="st29" width="337.48" height="1.51"/>
			<rect x="135.89" y="260.15" class="st30" width="337.48" height="1.51"/>
			<rect x="135.89" y="258.64" class="st31" width="337.48" height="1.51"/>
			<rect x="135.89" y="257.13" class="st32" width="337.48" height="1.51"/>
			<rect x="135.89" y="255.62" class="st33" width="337.48" height="1.51"/>
			<rect x="135.89" y="254.11" class="st33" width="337.48" height="1.51"/>
			<rect x="135.89" y="252.6" class="st34" width="337.48" height="1.51"/>
			<rect x="135.89" y="251.1" class="st35" width="337.48" height="1.51"/>
			<rect x="135.89" y="249.59" class="st36" width="337.48" height="1.51"/>
			<rect x="135.89" y="248.08" class="st37" width="337.48" height="1.51"/>
			<rect x="135.89" y="246.57" class="st38" width="337.48" height="1.51"/>
			<rect x="135.89" y="245.06" class="st38" width="337.48" height="1.51"/>
			<rect x="135.89" y="243.55" class="st39" width="337.48" height="1.51"/>
			<rect x="135.89" y="242.04" class="st40" width="337.48" height="1.51"/>
			<rect x="135.89" y="240.53" class="st41" width="337.48" height="1.51"/>
			<rect x="135.89" y="239.02" class="st42" width="337.48" height="1.51"/>
			<rect x="135.89" y="237.51" class="st43" width="337.48" height="1.51"/>
			<rect x="135.89" y="236" class="st44" width="337.48" height="1.51"/>
			<rect x="135.89" y="234.5" class="st45" width="337.48" height="1.51"/>
			<rect x="135.89" y="232.99" class="st46" width="337.48" height="1.51"/>
			<rect x="135.89" y="231.48" class="st47" width="337.48" height="1.51"/>
			<rect x="135.89" y="229.97" class="st48" width="337.48" height="1.51"/>
			<rect x="135.89" y="228.46" class="st49" width="337.48" height="1.51"/>
			<rect x="135.89" y="226.95" class="st50" width="337.48" height="1.51"/>
			<rect x="135.89" y="225.44" class="st51" width="337.48" height="1.51"/>
			<rect x="135.89" y="223.93" class="st52" width="337.48" height="1.51"/>
			<rect x="135.89" y="222.42" class="st52" width="337.48" height="1.51"/>
			<rect x="135.89" y="220.91" class="st53" width="337.48" height="1.51"/>
			<rect x="135.89" y="219.4" class="st54" width="337.48" height="1.51"/>
			<rect x="135.89" y="217.9" class="st55" width="337.48" height="1.51"/>
			<rect x="135.89" y="216.39" class="st56" width="337.48" height="1.51"/>
			<rect x="135.89" y="214.88" class="st57" width="337.48" height="1.51"/>
			<rect x="135.89" y="213.37" class="st58" width="337.48" height="1.51"/>
			<rect x="135.89" y="211.86" class="st58" width="337.48" height="1.51"/>
			<rect x="135.89" y="210.35" class="st59" width="337.48" height="1.51"/>
			<rect x="135.89" y="208.84" class="st60" width="337.48" height="1.51"/>
			<rect x="135.89" y="207.33" class="st61" width="337.48" height="1.51"/>
			<rect x="135.89" y="205.82" class="st62" width="337.48" height="1.51"/>
			<rect x="135.89" y="204.31" class="st63" width="337.48" height="1.51"/>
			<rect x="135.89" y="202.8" class="st64" width="337.48" height="1.51"/>
			<rect x="135.89" y="201.3" class="st65" width="337.48" height="1.51"/>
			<rect x="135.89" y="199.79" class="st66" width="337.48" height="1.51"/>
			<rect x="135.89" y="198.28" class="st67" width="337.48" height="1.51"/>
			<rect x="135.89" y="196.77" class="st68" width="337.48" height="1.51"/>
			<rect x="135.89" y="195.26" class="st69" width="337.48" height="1.51"/>
			<rect x="135.89" y="193.75" class="st70" width="337.48" height="1.51"/>
			<rect x="135.89" y="192.24" class="st70" width="337.48" height="1.51"/>
			<rect x="135.89" y="190.73" class="st71" width="337.48" height="1.51"/>
			<rect x="135.89" y="189.22" class="st72" width="337.48" height="1.51"/>
			<rect x="135.89" y="187.71" class="st73" width="337.48" height="1.51"/>
			<rect x="135.89" y="186.21" class="st74" width="337.48" height="1.51"/>
			<rect x="135.89" y="184.7" class="st75" width="337.48" height="1.51"/>
			<rect x="135.89" y="183.19" class="st76" width="337.48" height="1.51"/>
			<rect x="135.89" y="181.68" class="st77" width="337.48" height="1.51"/>
			<rect x="135.89" y="180.17" class="st78" width="337.48" height="1.51"/>
			<rect x="135.89" y="178.66" class="st79" width="337.48" height="1.51"/>
			<rect x="135.89" y="177.15" class="st80" width="337.48" height="1.51"/>
			<rect x="135.89" y="175.64" class="st80" width="337.48" height="1.51"/>
			<rect x="135.89" y="174.13" class="st81" width="337.48" height="1.51"/>
			<rect x="135.89" y="172.62" class="st82" width="337.48" height="1.51"/>
			<rect x="135.89" y="171.11" class="st83" width="337.48" height="1.51"/>
			<rect x="135.89" y="169.61" class="st84" width="337.48" height="1.51"/>
			<rect x="135.89" y="168.1" class="st85" width="337.48" height="1.51"/>
			<rect x="135.89" y="166.59" class="st86" width="337.48" height="1.51"/>
			<rect x="135.89" y="165.08" class="st87" width="337.48" height="1.51"/>
			<rect x="135.89" y="163.87" class="st87" width="337.48" height="1.21"/>
			<rect x="135.89" y="162.67" class="st86" width="337.48" height="1.21"/>
			<rect x="135.89" y="161.46" class="st85" width="337.48" height="1.21"/>
			<rect x="135.89" y="160.25" class="st84" width="337.48" height="1.21"/>
			<rect x="135.89" y="159.05" class="st83" width="337.48" height="1.21"/>
			<rect x="135.89" y="157.84" class="st82" width="337.48" height="1.21"/>
			<rect x="135.89" y="156.64" class="st81" width="337.48" height="1.21"/>
			<rect x="135.89" y="155.43" class="st80" width="337.48" height="1.21"/>
			<rect x="135.89" y="154.23" class="st80" width="337.48" height="1.21"/>
			<rect x="135.89" y="153.02" class="st79" width="337.48" height="1.21"/>
			<rect x="135.89" y="151.81" class="st78" width="337.48" height="1.21"/>
			<rect x="135.89" y="150.61" class="st77" width="337.48" height="1.21"/>
			<rect x="135.89" y="149.4" class="st76" width="337.48" height="1.21"/>
			<rect x="135.89" y="148.2" class="st75" width="337.48" height="1.21"/>
			<rect x="135.89" y="146.99" class="st74" width="337.48" height="1.21"/>
			<rect x="135.89" y="145.79" class="st73" width="337.48" height="1.21"/>
			<rect x="135.89" y="144.58" class="st72" width="337.48" height="1.21"/>
			<rect x="135.89" y="143.37" class="st71" width="337.48" height="1.21"/>
			<rect x="135.89" y="142.17" class="st70" width="337.48" height="1.21"/>
			<rect x="135.89" y="140.96" class="st70" width="337.48" height="1.21"/>
			<rect x="135.89" y="139.76" class="st69" width="337.48" height="1.21"/>
			<rect x="135.89" y="138.55" class="st68" width="337.48" height="1.21"/>
			<rect x="135.89" y="137.35" class="st67" width="337.48" height="1.21"/>
			<rect x="135.89" y="136.14" class="st66" width="337.48" height="1.21"/>
			<rect x="135.89" y="134.93" class="st65" width="337.48" height="1.21"/>
			<rect x="135.89" y="133.73" class="st64" width="337.48" height="1.21"/>
			<rect x="135.89" y="132.52" class="st63" width="337.48" height="1.21"/>
			<rect x="135.89" y="131.32" class="st62" width="337.48" height="1.21"/>
			<rect x="135.89" y="130.11" class="st61" width="337.48" height="1.21"/>
			<rect x="135.89" y="128.91" class="st60" width="337.48" height="1.21"/>
			<rect x="135.89" y="127.7" class="st59" width="337.48" height="1.21"/>
			<rect x="135.89" y="126.49" class="st58" width="337.48" height="1.21"/>
			<rect x="135.89" y="125.29" class="st58" width="337.48" height="1.21"/>
			<rect x="135.89" y="124.08" class="st57" width="337.48" height="1.21"/>
			<rect x="135.89" y="122.88" class="st56" width="337.48" height="1.21"/>
			<rect x="135.89" y="121.67" class="st55" width="337.48" height="1.21"/>
			<rect x="135.89" y="120.47" class="st54" width="337.48" height="1.21"/>
			<rect x="135.89" y="119.26" class="st53" width="337.48" height="1.21"/>
			<rect x="135.89" y="118.05" class="st52" width="337.48" height="1.21"/>
			<rect x="135.89" y="116.85" class="st52" width="337.48" height="1.21"/>
			<rect x="135.89" y="115.64" class="st51" width="337.48" height="1.21"/>
			<rect x="135.89" y="114.44" class="st50" width="337.48" height="1.21"/>
			<rect x="135.89" y="113.23" class="st49" width="337.48" height="1.21"/>
			<rect x="135.89" y="112.02" class="st48" width="337.48" height="1.21"/>
			<rect x="135.89" y="110.82" class="st47" width="337.48" height="1.21"/>
			<rect x="135.89" y="109.61" class="st46" width="337.48" height="1.21"/>
			<rect x="135.89" y="108.41" class="st45" width="337.48" height="1.21"/>
			<rect x="135.89" y="107.2" class="st44" width="337.48" height="1.21"/>
			<rect x="135.89" y="106" class="st43" width="337.48" height="1.21"/>
			<rect x="135.89" y="104.79" class="st42" width="337.48" height="1.21"/>
			<rect x="135.89" y="103.58" class="st41" width="337.48" height="1.21"/>
			<rect x="135.89" y="102.38" class="st40" width="337.48" height="1.21"/>
			<rect x="135.89" y="101.17" class="st39" width="337.48" height="1.21"/>
			<rect x="135.89" y="99.97" class="st38" width="337.48" height="1.21"/>
			<rect x="135.89" y="98.76" class="st38" width="337.48" height="1.21"/>
			<rect x="135.89" y="97.56" class="st37" width="337.48" height="1.21"/>
			<rect x="135.89" y="96.35" class="st36" width="337.48" height="1.21"/>
			<rect x="135.89" y="95.14" class="st35" width="337.48" height="1.21"/>
			<rect x="135.89" y="93.94" class="st34" width="337.48" height="1.21"/>
			<rect x="135.89" y="92.73" class="st33" width="337.48" height="1.21"/>
			<rect x="135.89" y="91.53" class="st33" width="337.48" height="1.21"/>
			<rect x="135.89" y="90.32" class="st32" width="337.48" height="1.21"/>
			<rect x="135.89" y="89.12" class="st31" width="337.48" height="1.21"/>
			<rect x="135.89" y="87.91" class="st30" width="337.48" height="1.21"/>
			<rect x="135.89" y="86.7" class="st29" width="337.48" height="1.21"/>
			<rect x="135.89" y="85.5" class="st28" width="337.48" height="1.21"/>
			<rect x="135.89" y="84.29" class="st27" width="337.48" height="1.21"/>
			<rect x="135.89" y="83.09" class="st26" width="337.48" height="1.21"/>
			<rect x="135.89" y="81.88" class="st25" width="337.48" height="1.21"/>
			<rect x="135.89" y="80.68" class="st25" width="337.48" height="1.21"/>
			<rect x="135.89" y="79.47" class="st24" width="337.48" height="1.21"/>
			<rect x="135.89" y="78.26" class="st23" width="337.48" height="1.21"/>
			<rect x="135.89" y="77.06" class="st23" width="337.48" height="1.21"/>
			<rect x="135.89" y="75.85" class="st22" width="337.48" height="1.21"/>
			<rect x="135.89" y="74.65" class="st21" width="337.48" height="1.21"/>
			<rect x="135.89" y="73.44" class="st20" width="337.48" height="1.21"/>
			<rect x="135.89" y="72.24" class="st19" width="337.48" height="1.21"/>
			<rect x="135.89" y="71.03" class="st18" width="337.48" height="1.21"/>
			<rect x="135.89" y="69.82" class="st17" width="337.48" height="1.21"/>
			<rect x="135.89" y="68.62" class="st17" width="337.48" height="1.21"/>
			<rect x="135.89" y="67.41" class="st16" width="337.48" height="1.21"/>
			<rect x="135.89" y="66.21" class="st15" width="337.48" height="1.21"/>
			<rect x="135.89" y="65" class="st15" width="337.48" height="1.21"/>
			<rect x="135.89" y="63.8" class="st14" width="337.48" height="1.21"/>
			<rect x="135.89" y="62.59" class="st13" width="337.48" height="1.21"/>
			<rect x="135.89" y="61.38" class="st12" width="337.48" height="1.21"/>
			<rect x="135.89" y="60.18" class="st11" width="337.48" height="1.21"/>
			<rect x="135.89" y="58.97" class="st11" width="337.48" height="1.21"/>
			<rect x="135.89" y="57.77" class="st10" width="337.48" height="1.21"/>
			<rect x="135.89" y="56.56" class="st9" width="337.48" height="1.21"/>
			<rect x="135.89" y="55.35" class="st8" width="337.48" height="1.21"/>
			<rect x="135.89" y="54.15" class="st7" width="337.48" height="1.21"/>
			<rect x="135.89" y="52.94" class="st7" width="337.48" height="1.21"/>
			<rect x="135.89" y="51.74" class="st6" width="337.48" height="1.21"/>
			<rect x="135.89" y="50.53" class="st5" width="337.48" height="1.21"/>
			<rect x="135.89" y="49.33" class="st4" width="337.48" height="1.21"/>
			<rect x="135.89" y="48.12" class="st4" width="337.48" height="1.21"/>
			<rect x="135.89" y="46.91" class="st4" width="337.48" height="1.21"/>
			<path class="st4" d="M473.37,46.91H135.89H473.37z"/>
		</g>
	</g>
	<g class="st88">
		<path class="st3" d="M433,485.93L433,485.93c-8.42-1.44-14.14-9.51-12.7-17.93l0,0c1.44-8.42,9.51-14.14,17.93-12.7l0,0
			c8.42,1.44,14.14,9.51,12.7,17.93l0,0C449.5,481.65,441.43,487.37,433,485.93z"/>
	</g>
	<g class="st88">
		<path class="st3" d="M447.86,445.12L447.86,445.12c-4.21-0.72-7.07-4.75-6.35-8.97l0,0c0.72-4.21,4.75-7.07,8.97-6.35l0,0
			c4.21,0.72,7.07,4.75,6.35,8.97l0,0C456.1,442.98,452.07,445.84,447.86,445.12z"/>
	</g>
</g>
</svg>
