<?xml version="1.0" encoding="utf-8"?>
<!-- Generator: Adobe Illustrator 24.1.0, SVG Export Plug-In . SVG Version: 6.00 Build 0)  -->
<svg version="1.1" id="Layer_1" xmlns="http://www.w3.org/2000/svg" xmlns:xlink="http://www.w3.org/1999/xlink" x="0px" y="0px"
	 viewBox="0 0 600 600" style="enable-background:new 0 0 600 600;" xml:space="preserve">
<style type="text/css">
	.st0{fill:#F7DE03;}
	.st1{fill:#E3A925;}
	.st2{fill:none;}
	.st3{opacity:0.2;}
	.st4{fill:#FFFFFF;}
	.st5{clip-path:url(#SVGID_2_);fill:#FFFFFF;}
	.st6{clip-path:url(#SVGID_2_);fill:#FFFFFD;}
	.st7{clip-path:url(#SVGID_2_);fill:#FFFFFC;}
	.st8{clip-path:url(#SVGID_2_);fill:#FFFFFA;}
	.st9{clip-path:url(#SVGID_2_);fill:#FFFEF9;}
	.st10{clip-path:url(#SVGID_2_);fill:#FFFEF8;}
	.st11{clip-path:url(#SVGID_2_);fill:#FFFEF6;}
	.st12{clip-path:url(#SVGID_2_);fill:#FFFEF5;}
	.st13{clip-path:url(#SVGID_2_);fill:#FFFEF4;}
	.st14{clip-path:url(#SVGID_2_);fill:#FFFEF3;}
	.st15{clip-path:url(#SVGID_2_);fill:#FFFEF2;}
	.st16{clip-path:url(#SVGID_2_);fill:#FFFEF1;}
	.st17{clip-path:url(#SVGID_2_);fill:#FFFEEF;}
	.st18{clip-path:url(#SVGID_2_);fill:#FEFDEE;}
	.st19{clip-path:url(#SVGID_2_);fill:#FEFDED;}
	.st20{clip-path:url(#SVGID_2_);fill:#FEFDEB;}
	.st21{clip-path:url(#SVGID_2_);fill:#FFFDEA;}
	.st22{clip-path:url(#SVGID_2_);fill:#FFFCEA;}
	.st23{clip-path:url(#SVGID_2_);fill:#FDFCE8;}
	.st24{clip-path:url(#SVGID_2_);fill:#FDFCE7;}
	.st25{clip-path:url(#SVGID_2_);fill:#FDFBE5;}
	.st26{clip-path:url(#SVGID_2_);fill:#FDFBE4;}
	.st27{clip-path:url(#SVGID_2_);fill:#FDFBE2;}
	.st28{clip-path:url(#SVGID_2_);fill:#FDFBE1;}
	.st29{clip-path:url(#SVGID_2_);fill:#FDFBE0;}
	.st30{clip-path:url(#SVGID_2_);fill:#FEFBDF;}
	.st31{clip-path:url(#SVGID_2_);fill:#FEFBDE;}
	.st32{clip-path:url(#SVGID_2_);fill:#FEFBDD;}
	.st33{clip-path:url(#SVGID_2_);fill:#FEFBDC;}
	.st34{clip-path:url(#SVGID_2_);fill:#FCFADB;}
	.st35{clip-path:url(#SVGID_2_);fill:#FCFADA;}
	.st36{clip-path:url(#SVGID_2_);fill:#FCFAD9;}
	.st37{clip-path:url(#SVGID_2_);fill:#FCFAD8;}
	.st38{clip-path:url(#SVGID_2_);fill:#FDFAD7;}
	.st39{clip-path:url(#SVGID_2_);fill:#FDFAD5;}
	.st40{clip-path:url(#SVGID_2_);fill:#FDFAD4;}
	.st41{clip-path:url(#SVGID_2_);fill:#FDF9D2;}
	.st42{clip-path:url(#SVGID_2_);fill:#FCF9D2;}
	.st43{clip-path:url(#SVGID_2_);fill:#FCF9D1;}
	.st44{clip-path:url(#SVGID_2_);fill:#FCF9CF;}
	.st45{clip-path:url(#SVGID_2_);fill:#FCF9CE;}
	.st46{clip-path:url(#SVGID_2_);fill:#FCF8CD;}
	.st47{clip-path:url(#SVGID_2_);fill:#FCF8CC;}
	.st48{clip-path:url(#SVGID_2_);fill:#FCF8CB;}
	.st49{clip-path:url(#SVGID_2_);fill:#FCF8CA;}
	.st50{clip-path:url(#SVGID_2_);fill:#FCF8C9;}
	.st51{clip-path:url(#SVGID_2_);fill:#FCF8C8;}
	.st52{clip-path:url(#SVGID_2_);fill:#FCF8C7;}
	.st53{clip-path:url(#SVGID_2_);fill:#FCF8C6;}
	.st54{clip-path:url(#SVGID_2_);fill:#FCF8C5;}
	.st55{clip-path:url(#SVGID_2_);fill:#FCF8C3;}
	.st56{clip-path:url(#SVGID_2_);fill:#FDF8C2;}
	.st57{clip-path:url(#SVGID_2_);fill:#FDF8C1;}
	.st58{clip-path:url(#SVGID_2_);fill:#FDF8C0;}
	.st59{clip-path:url(#SVGID_2_);fill:#FBF7BF;}
	.st60{clip-path:url(#SVGID_2_);fill:#FCF7BE;}
	.st61{clip-path:url(#SVGID_2_);fill:#FCF7BD;}
	.st62{clip-path:url(#SVGID_2_);fill:#FCF7BC;}
	.st63{clip-path:url(#SVGID_2_);fill:#FCF7BB;}
	.st64{clip-path:url(#SVGID_2_);fill:#FCF7BA;}
	.st65{clip-path:url(#SVGID_2_);fill:#FCF7B9;}
	.st66{clip-path:url(#SVGID_2_);fill:#FCF6B7;}
	.st67{clip-path:url(#SVGID_2_);fill:#FCF6B6;}
	.st68{clip-path:url(#SVGID_2_);fill:#FCF6B5;}
	.st69{clip-path:url(#SVGID_2_);fill:#FCF6B4;}
	.st70{clip-path:url(#SVGID_2_);fill:#FCF6B3;}
	.st71{clip-path:url(#SVGID_2_);fill:#FBF6B2;}
	.st72{clip-path:url(#SVGID_2_);fill:#FBF6B1;}
	.st73{clip-path:url(#SVGID_2_);fill:#FBF5B0;}
	.st74{clip-path:url(#SVGID_2_);fill:#FBF5AF;}
	.st75{clip-path:url(#SVGID_2_);fill:#FBF5AE;}
	.st76{clip-path:url(#SVGID_2_);fill:#FBF5AD;}
	.st77{clip-path:url(#SVGID_2_);fill:#FBF5AC;}
	.st78{clip-path:url(#SVGID_2_);fill:#FBF5AB;}
	.st79{clip-path:url(#SVGID_2_);fill:#FBF5AA;}
	.st80{clip-path:url(#SVGID_2_);fill:#FBF5A9;}
	.st81{clip-path:url(#SVGID_2_);fill:#FCF5A8;}
	.st82{clip-path:url(#SVGID_2_);fill:#FCF5A7;}
	.st83{clip-path:url(#SVGID_2_);fill:#FCF5A6;}
	.st84{clip-path:url(#SVGID_2_);fill:#FCF5A4;}
	.st85{clip-path:url(#SVGID_2_);fill:#FBF4A4;}
	.st86{clip-path:url(#SVGID_2_);fill:#FBF4A2;}
	.st87{clip-path:url(#SVGID_2_);fill:#FBF4A1;}
	.st88{clip-path:url(#SVGID_2_);fill:#FBF4A0;}
	.st89{opacity:0.6;}
</style>
<g>
	<g>
		<path class="st0" d="M478.89,23.52c6.61,4.32,9.34,26.38,8.2,66.16c-1.14,39.79-4.26,68.07-9.34,84.84
			c-1.53,4.58-14.62,7.82-39.28,9.72c-24.66,1.91-51.1,3.12-79.32,3.62c33.56,3.05,69.15,23.2,106.77,60.44
			c37.62,37.24,55.42,81.79,53.39,133.65c0.76,56.69-18.11,103.79-56.63,141.28c-38.51,37.5-83.32,59.68-134.42,66.54
			c-55.17,7.12-107.09-3.37-155.77-31.46c-48.68-28.09-79-70.1-90.95-126.03c-4.58-22.12,5.85-39.66,31.27-52.62
			c17.29-8.9,46.71-14.43,88.28-16.59c41.56-2.16,64.5,7.18,68.83,28.03c0.25,1.78,0.89,3.56,1.91,5.34
			c2.8,7.37,7.88,12.33,15.25,14.87c11.95,4.83,21.6,3.62,28.98-3.62c7.37-7.25,10.87-16.08,10.49-26.5
			c-0.38-10.42-5.47-20.34-15.25-29.74c-9.79-9.4-25.74-14.11-47.86-14.11c-15.25,0.76-32.54,0.51-51.86-0.76
			c-30.51-1.52-50.47-7.18-59.87-16.97c-9.41-9.78-16.02-23.83-19.83-42.14c-8.65-40.67-13.92-90.24-15.83-148.72
			c-1.91-58.47,3.49-93.81,16.21-106.01c4.58-4.58,24.15-8.13,58.72-10.68c34.57-2.54,72.2-3.87,112.87-4
			c40.67-0.13,78.55,1.08,113.64,3.62C452.58,14.24,473.04,18.18,478.89,23.52z"/>
		<path class="st1" d="M295.44,600c-44.45,0-87.03-11.6-126.97-34.68C117.94,536.18,86.04,492,73.64,433.99
			c-3.71-17.94-0.54-43.12,35.5-61.5c18.46-9.51,48.41-15.22,91.54-17.46c46.09-2.36,71.92,9.22,77.16,34.45
			c0.19,1.25,0.5,2.08,1.02,2.99c2.47,6.26,5.76,9.47,10.84,11.22c11.9,4.81,17.31,1.58,20.69-1.74c5.73-5.64,8.38-12.33,8.08-20.46
			c-0.29-8.29-4.48-16.22-12.78-24.21c-8.19-7.85-22.41-11.84-42.25-11.84c-15.12,0.74-32.89,0.5-52.39-0.78
			c-32.82-1.63-54.18-7.99-65.18-19.44c-10.41-10.83-17.79-26.35-21.9-46.09c-8.7-40.9-14.08-91.41-15.99-150.09
			c-2.03-62.3,3.91-97.93,18.7-112.1c4.53-4.54,15.5-9.37,63.73-12.9c34.65-2.55,72.82-3.9,113.44-4.03
			c40.49,0.04,79.06,1.11,114.24,3.65c47.47,3.43,60.19,8.7,65.8,13.5c6.88,4.94,12.86,17.83,11.3,72.77
			c-1.19,40.88-4.36,69.32-9.68,86.96c-2.54,7.6-11.15,12.71-46.41,15.44c-10.18,0.78-20.72,1.46-31.55,2.01
			c20.86,10.55,42.27,26.67,64.07,48.26c39.13,38.73,57.89,85.74,55.79,139.71c0.78,58.31-19.09,107.82-59.08,146.76
			c-39.59,38.55-86.34,61.69-138.97,68.75C317.93,599.27,306.62,600,295.44,600z M212.5,370.86c-3.47,0-7.13,0.1-10.98,0.3
			c-40.22,2.1-68.83,7.37-85,15.7c-29.28,14.93-29.46,32.15-27.05,43.79c11.39,53.3,40.69,93.91,87.08,120.67
			c46.86,27.07,97.62,37.29,150.69,30.44c49.07-6.58,92.75-28.21,129.8-64.31c36.69-35.71,54.92-81.26,54.2-135.38
			c1.93-49.69-15.22-92.61-50.99-128.02c-36.08-35.71-70.34-55.28-101.83-58.15c-4.28-0.38-7.5-4.05-7.35-8.33
			c0.16-4.29,3.65-7.71,7.94-7.79c27.86-0.49,54.38-1.7,78.84-3.6c23.38-1.81,30.63-4.48,32.62-5.52
			c4.56-16.01,7.46-43.39,8.55-81.22c1.46-51.14-4.18-58.7-4.82-59.4c-0.37-0.24-0.43-0.28-0.76-0.58
			c-1.11-1.01-9.09-6.29-56.52-9.72c-34.79-2.51-73.04-3.64-113.02-3.6c-40.25,0.13-78.03,1.46-112.3,3.98
			c-45.03,3.31-52.66,7.62-53.73,8.45c-6.15,5.91-16.11,26.74-13.72,99.92c1.88,57.73,7.15,107.29,15.65,147.3
			c3.48,16.75,9.46,29.6,17.74,38.21c5.43,5.66,19.28,12.75,54.46,14.51c18.99,1.25,36.17,1.51,51.05,0.77c0.03,0,0.05,0,0.08,0
			c24.52,0,42.47,5.49,53.78,16.34c11.31,10.91,17.28,22.77,17.74,35.28c0.45,12.74-3.89,23.7-12.9,32.56
			c-6.77,6.65-18.78,12.95-37.67,5.37c-9.18-3.16-16.15-9.95-19.78-19.5c-1-1.55-1.97-4.32-2.36-7.07
			C258.98,378.17,242.35,370.86,212.5,370.86z"/>
	</g>
	<g>
		<path class="st2" d="M328.88,315.88c0.14,0.04,0.29,0.09,0.43,0.13c-16.01-11.27-37.1-17.18-62.94-17.6
			C287.41,303.41,308.25,309.66,328.88,315.88z"/>
	</g>
	<g class="st3">
		<path class="st4" d="M329.32,316.01c3.19,2.25,6.26,4.63,9.05,7.31c21.54,20.71,26.69,42.14,27.21,56.46
			c0.79,21.48-6.87,40.77-22.14,55.79c-11.8,11.58-26.7,17.71-43.11,17.71c-8.78,0-17.86-1.81-26.99-5.39
			c-16.89-6.12-29.89-18.44-36.95-34.93c-1.45-2.91-2.63-5.9-3.52-8.95c-3.17-0.93-9.46-2.17-20.56-2.17
			c-2.88,0-5.97,0.09-9.18,0.25c-48.71,2.54-66.88,9.45-72.57,12.38c-8.89,4.53-10.92,7.82-11,7.82h0c-0.01,0.1-0.06,0.72,0.18,1.86
			c9.62,45.02,33.26,77.85,72.28,100.37c33.1,19.1,66.86,28.39,103.19,28.39c9.17,0,18.61-0.62,27.86-1.81
			c42.97-5.77,79.73-24.03,112.38-55.82c30.78-29.96,45.44-66.85,44.82-112.78l-0.01-1.03l0.04-1.03
			c0.52-13.24-0.6-25.78-3.33-37.69C426.83,344.91,377.45,330.5,329.32,316.01z"/>
	</g>
	<g>
		<g>
			<defs>
				<path id="SVGID_1_" d="M355.62,226.76l2.83-77.93c27.3-0.49,53.21-1.67,77.01-3.52c3.29-0.25,6.15-0.52,8.62-0.78
					c1.65-11.9,3.23-29.68,3.98-55.97c0.48-16.55,0.17-27.41-0.32-34.38c-6.74-1.09-17.19-2.39-33.06-3.54
					c-32.35-2.34-67.71-3.53-105.08-3.53l-5.61,0.01c-39.58,0.13-76.63,1.44-110.13,3.9c-17.64,1.3-28.37,2.68-34.7,3.73
					c-2.3,9.01-5.48,29.65-4.07,72.74c1.82,55.91,6.87,103.64,15.02,142.03c1.62,7.77,3.91,14.21,6.63,18.78
					c0.03,0,0.05,0,0.08-0.01c30.2-1.51,60.06,3.07,89.56,10.11c25.84,0.42,46.93,6.33,62.94,17.6
					c48.14,14.49,97.51,28.9,147.64,26.74c-5.68-24.76-18.42-46.8-38.5-66.69C407.62,245.54,379.75,228.95,355.62,226.76z"/>
			</defs>
			<clipPath id="SVGID_2_">
				<use xlink:href="#SVGID_1_"  style="overflow:visible;"/>
			</clipPath>
			<rect x="153.68" y="342.97" class="st5" width="323.28" height="1.94"/>
			<rect x="153.68" y="341.29" class="st5" width="323.28" height="1.68"/>
			<rect x="153.68" y="339.61" class="st5" width="323.28" height="1.68"/>
			<rect x="153.68" y="337.93" class="st5" width="323.28" height="1.68"/>
			<rect x="153.68" y="336.25" class="st6" width="323.28" height="1.68"/>
			<rect x="153.68" y="334.58" class="st7" width="323.28" height="1.68"/>
			<rect x="153.68" y="332.9" class="st8" width="323.28" height="1.68"/>
			<rect x="153.68" y="331.22" class="st8" width="323.28" height="1.68"/>
			<rect x="153.68" y="329.54" class="st9" width="323.28" height="1.68"/>
			<rect x="153.68" y="327.86" class="st10" width="323.28" height="1.68"/>
			<rect x="153.68" y="326.19" class="st11" width="323.28" height="1.68"/>
			<rect x="153.68" y="324.51" class="st12" width="323.28" height="1.68"/>
			<rect x="153.68" y="322.83" class="st12" width="323.28" height="1.68"/>
			<rect x="153.68" y="321.15" class="st13" width="323.28" height="1.68"/>
			<rect x="153.68" y="319.47" class="st14" width="323.28" height="1.68"/>
			<rect x="153.68" y="317.8" class="st15" width="323.28" height="1.68"/>
			<rect x="153.68" y="316.12" class="st16" width="323.28" height="1.68"/>
			<rect x="153.68" y="314.44" class="st16" width="323.28" height="1.68"/>
			<rect x="153.68" y="312.76" class="st17" width="323.28" height="1.68"/>
			<rect x="153.68" y="311.08" class="st18" width="323.28" height="1.68"/>
			<rect x="153.68" y="309.4" class="st18" width="323.28" height="1.68"/>
			<rect x="153.68" y="307.73" class="st19" width="323.28" height="1.68"/>
			<rect x="153.68" y="306.05" class="st20" width="323.28" height="1.68"/>
			<rect x="153.68" y="304.37" class="st21" width="323.28" height="1.68"/>
			<rect x="153.68" y="302.69" class="st22" width="323.28" height="1.68"/>
			<rect x="153.68" y="301.01" class="st23" width="323.28" height="1.68"/>
			<rect x="153.68" y="299.34" class="st24" width="323.28" height="1.68"/>
			<rect x="153.68" y="297.66" class="st24" width="323.28" height="1.68"/>
			<rect x="153.68" y="295.98" class="st25" width="323.28" height="1.68"/>
			<rect x="153.68" y="294.3" class="st26" width="323.28" height="1.68"/>
			<rect x="153.68" y="292.62" class="st26" width="323.28" height="1.68"/>
			<rect x="153.68" y="290.95" class="st27" width="323.28" height="1.68"/>
			<rect x="153.68" y="289.27" class="st28" width="323.28" height="1.68"/>
			<rect x="153.68" y="287.59" class="st29" width="323.28" height="1.68"/>
			<rect x="153.68" y="285.91" class="st30" width="323.28" height="1.68"/>
			<rect x="153.68" y="284.23" class="st31" width="323.28" height="1.68"/>
			<rect x="153.68" y="282.56" class="st32" width="323.28" height="1.68"/>
			<rect x="153.68" y="280.88" class="st33" width="323.28" height="1.68"/>
			<rect x="153.68" y="279.2" class="st34" width="323.28" height="1.68"/>
			<rect x="153.68" y="277.52" class="st34" width="323.28" height="1.68"/>
			<rect x="153.68" y="275.84" class="st35" width="323.28" height="1.68"/>
			<rect x="153.68" y="274.16" class="st36" width="323.28" height="1.68"/>
			<rect x="153.68" y="272.49" class="st37" width="323.28" height="1.68"/>
			<rect x="153.68" y="270.81" class="st38" width="323.28" height="1.68"/>
			<rect x="153.68" y="269.13" class="st39" width="323.28" height="1.68"/>
			<rect x="153.68" y="267.45" class="st39" width="323.28" height="1.68"/>
			<rect x="153.68" y="265.77" class="st40" width="323.28" height="1.68"/>
			<rect x="153.68" y="264.1" class="st41" width="323.28" height="1.68"/>
			<rect x="153.68" y="262.42" class="st42" width="323.28" height="1.68"/>
			<rect x="153.68" y="260.74" class="st43" width="323.28" height="1.68"/>
			<rect x="153.68" y="259.06" class="st44" width="323.28" height="1.68"/>
			<rect x="153.68" y="257.38" class="st45" width="323.28" height="1.68"/>
			<rect x="153.68" y="255.71" class="st46" width="323.28" height="1.68"/>
			<rect x="153.68" y="254.03" class="st47" width="323.28" height="1.68"/>
			<rect x="153.68" y="252.35" class="st48" width="323.28" height="1.68"/>
			<rect x="153.68" y="250.67" class="st49" width="323.28" height="1.68"/>
			<rect x="153.68" y="248.99" class="st50" width="323.28" height="1.68"/>
			<rect x="153.68" y="247.32" class="st51" width="323.28" height="1.68"/>
			<rect x="153.68" y="245.64" class="st52" width="323.28" height="1.68"/>
			<rect x="153.68" y="243.96" class="st53" width="323.28" height="1.68"/>
			<rect x="153.68" y="242.28" class="st53" width="323.28" height="1.68"/>
			<rect x="153.68" y="240.6" class="st54" width="323.28" height="1.68"/>
			<rect x="153.68" y="238.92" class="st55" width="323.28" height="1.68"/>
			<rect x="153.68" y="237.25" class="st56" width="323.28" height="1.68"/>
			<rect x="153.68" y="235.57" class="st57" width="323.28" height="1.68"/>
			<rect x="153.68" y="233.89" class="st58" width="323.28" height="1.68"/>
			<rect x="153.68" y="232.21" class="st59" width="323.28" height="1.68"/>
			<rect x="153.68" y="230.53" class="st59" width="323.28" height="1.68"/>
			<rect x="153.68" y="228.86" class="st60" width="323.28" height="1.68"/>
			<rect x="153.68" y="227.18" class="st61" width="323.28" height="1.68"/>
			<rect x="153.68" y="225.5" class="st62" width="323.28" height="1.68"/>
			<rect x="153.68" y="223.82" class="st63" width="323.28" height="1.68"/>
			<rect x="153.68" y="222.14" class="st64" width="323.28" height="1.68"/>
			<rect x="153.68" y="220.47" class="st65" width="323.28" height="1.68"/>
			<rect x="153.68" y="218.79" class="st66" width="323.28" height="1.68"/>
			<rect x="153.68" y="217.11" class="st67" width="323.28" height="1.68"/>
			<rect x="153.68" y="215.43" class="st68" width="323.28" height="1.68"/>
			<rect x="153.68" y="213.75" class="st69" width="323.28" height="1.68"/>
			<rect x="153.68" y="212.08" class="st70" width="323.28" height="1.68"/>
			<rect x="153.68" y="210.4" class="st71" width="323.28" height="1.68"/>
			<rect x="153.68" y="208.72" class="st71" width="323.28" height="1.68"/>
			<rect x="153.68" y="207.04" class="st72" width="323.28" height="1.68"/>
			<rect x="153.68" y="205.36" class="st73" width="323.28" height="1.68"/>
			<rect x="153.68" y="203.68" class="st74" width="323.28" height="1.68"/>
			<rect x="153.68" y="202.01" class="st75" width="323.28" height="1.68"/>
			<rect x="153.68" y="200.33" class="st76" width="323.28" height="1.68"/>
			<rect x="153.68" y="198.65" class="st77" width="323.28" height="1.68"/>
			<rect x="153.68" y="196.97" class="st78" width="323.28" height="1.68"/>
			<rect x="153.68" y="195.29" class="st79" width="323.28" height="1.68"/>
			<rect x="153.68" y="193.62" class="st80" width="323.28" height="1.68"/>
			<rect x="153.68" y="191.94" class="st81" width="323.28" height="1.68"/>
			<rect x="153.68" y="190.26" class="st81" width="323.28" height="1.68"/>
			<rect x="153.68" y="188.58" class="st82" width="323.28" height="1.68"/>
			<rect x="153.68" y="186.9" class="st83" width="323.28" height="1.68"/>
			<rect x="153.68" y="185.23" class="st84" width="323.28" height="1.68"/>
			<rect x="153.68" y="183.55" class="st85" width="323.28" height="1.68"/>
			<rect x="153.68" y="181.87" class="st86" width="323.28" height="1.68"/>
			<rect x="153.68" y="180.19" class="st87" width="323.28" height="1.68"/>
			<rect x="153.68" y="178.51" class="st88" width="323.28" height="1.68"/>
			<rect x="153.68" y="177.17" class="st88" width="323.28" height="1.34"/>
			<rect x="153.68" y="175.83" class="st87" width="323.28" height="1.34"/>
			<rect x="153.68" y="174.49" class="st86" width="323.28" height="1.34"/>
			<rect x="153.68" y="173.15" class="st85" width="323.28" height="1.34"/>
			<rect x="153.68" y="171.81" class="st84" width="323.28" height="1.34"/>
			<rect x="153.68" y="170.47" class="st83" width="323.28" height="1.34"/>
			<rect x="153.68" y="169.13" class="st82" width="323.28" height="1.34"/>
			<rect x="153.68" y="167.79" class="st81" width="323.28" height="1.34"/>
			<rect x="153.68" y="166.45" class="st81" width="323.28" height="1.34"/>
			<rect x="153.68" y="165.11" class="st80" width="323.28" height="1.34"/>
			<rect x="153.68" y="163.76" class="st79" width="323.28" height="1.34"/>
			<rect x="153.68" y="162.42" class="st78" width="323.28" height="1.34"/>
			<rect x="153.68" y="161.08" class="st77" width="323.28" height="1.34"/>
			<rect x="153.68" y="159.74" class="st76" width="323.28" height="1.34"/>
			<rect x="153.68" y="158.4" class="st75" width="323.28" height="1.34"/>
			<rect x="153.68" y="157.06" class="st74" width="323.28" height="1.34"/>
			<rect x="153.68" y="155.72" class="st73" width="323.28" height="1.34"/>
			<rect x="153.68" y="154.38" class="st72" width="323.28" height="1.34"/>
			<rect x="153.68" y="153.04" class="st71" width="323.28" height="1.34"/>
			<rect x="153.68" y="151.7" class="st71" width="323.28" height="1.34"/>
			<rect x="153.68" y="150.36" class="st70" width="323.28" height="1.34"/>
			<rect x="153.68" y="149.02" class="st69" width="323.28" height="1.34"/>
			<rect x="153.68" y="147.68" class="st68" width="323.28" height="1.34"/>
			<rect x="153.68" y="146.33" class="st67" width="323.28" height="1.34"/>
			<rect x="153.68" y="144.99" class="st66" width="323.28" height="1.34"/>
			<rect x="153.68" y="143.65" class="st65" width="323.28" height="1.34"/>
			<rect x="153.68" y="142.31" class="st64" width="323.28" height="1.34"/>
			<rect x="153.68" y="140.97" class="st63" width="323.28" height="1.34"/>
			<rect x="153.68" y="139.63" class="st62" width="323.28" height="1.34"/>
			<rect x="153.68" y="138.29" class="st61" width="323.28" height="1.34"/>
			<rect x="153.68" y="136.95" class="st60" width="323.28" height="1.34"/>
			<rect x="153.68" y="135.61" class="st59" width="323.28" height="1.34"/>
			<rect x="153.68" y="134.27" class="st59" width="323.28" height="1.34"/>
			<rect x="153.68" y="132.93" class="st58" width="323.28" height="1.34"/>
			<rect x="153.68" y="131.59" class="st57" width="323.28" height="1.34"/>
			<rect x="153.68" y="130.25" class="st56" width="323.28" height="1.34"/>
			<rect x="153.68" y="128.9" class="st55" width="323.28" height="1.34"/>
			<rect x="153.68" y="127.56" class="st54" width="323.28" height="1.34"/>
			<rect x="153.68" y="126.22" class="st53" width="323.28" height="1.34"/>
			<rect x="153.68" y="124.88" class="st53" width="323.28" height="1.34"/>
			<rect x="153.68" y="123.54" class="st52" width="323.28" height="1.34"/>
			<rect x="153.68" y="122.2" class="st51" width="323.28" height="1.34"/>
			<rect x="153.68" y="120.86" class="st50" width="323.28" height="1.34"/>
			<rect x="153.68" y="119.52" class="st49" width="323.28" height="1.34"/>
			<rect x="153.68" y="118.18" class="st48" width="323.28" height="1.34"/>
			<rect x="153.68" y="116.84" class="st47" width="323.28" height="1.34"/>
			<rect x="153.68" y="115.5" class="st46" width="323.28" height="1.34"/>
			<rect x="153.68" y="114.16" class="st45" width="323.28" height="1.34"/>
			<rect x="153.68" y="112.81" class="st44" width="323.28" height="1.34"/>
			<rect x="153.68" y="111.47" class="st43" width="323.28" height="1.34"/>
			<rect x="153.68" y="110.13" class="st42" width="323.28" height="1.34"/>
			<rect x="153.68" y="108.79" class="st41" width="323.28" height="1.34"/>
			<rect x="153.68" y="107.45" class="st40" width="323.28" height="1.34"/>
			<rect x="153.68" y="106.11" class="st39" width="323.28" height="1.34"/>
			<rect x="153.68" y="104.77" class="st39" width="323.28" height="1.34"/>
			<rect x="153.68" y="103.43" class="st38" width="323.28" height="1.34"/>
			<rect x="153.68" y="102.09" class="st37" width="323.28" height="1.34"/>
			<rect x="153.68" y="100.75" class="st36" width="323.28" height="1.34"/>
			<rect x="153.68" y="99.41" class="st35" width="323.28" height="1.34"/>
			<rect x="153.68" y="98.07" class="st34" width="323.28" height="1.34"/>
			<rect x="153.68" y="96.73" class="st34" width="323.28" height="1.34"/>
			<rect x="153.68" y="95.38" class="st33" width="323.28" height="1.34"/>
			<rect x="153.68" y="94.04" class="st32" width="323.28" height="1.34"/>
			<rect x="153.68" y="92.7" class="st31" width="323.28" height="1.34"/>
			<rect x="153.68" y="91.36" class="st30" width="323.28" height="1.34"/>
			<rect x="153.68" y="90.02" class="st29" width="323.28" height="1.34"/>
			<rect x="153.68" y="88.68" class="st28" width="323.28" height="1.34"/>
			<rect x="153.68" y="87.34" class="st27" width="323.28" height="1.34"/>
			<rect x="153.68" y="86" class="st26" width="323.28" height="1.34"/>
			<rect x="153.68" y="84.66" class="st26" width="323.28" height="1.34"/>
			<rect x="153.68" y="83.32" class="st25" width="323.28" height="1.34"/>
			<rect x="153.68" y="81.98" class="st24" width="323.28" height="1.34"/>
			<rect x="153.68" y="80.64" class="st24" width="323.28" height="1.34"/>
			<rect x="153.68" y="79.3" class="st23" width="323.28" height="1.34"/>
			<rect x="153.68" y="77.95" class="st22" width="323.28" height="1.34"/>
			<rect x="153.68" y="76.61" class="st21" width="323.28" height="1.34"/>
			<rect x="153.68" y="75.27" class="st20" width="323.28" height="1.34"/>
			<rect x="153.68" y="73.93" class="st19" width="323.28" height="1.34"/>
			<rect x="153.68" y="72.59" class="st18" width="323.28" height="1.34"/>
			<rect x="153.68" y="71.25" class="st18" width="323.28" height="1.34"/>
			<rect x="153.68" y="69.91" class="st17" width="323.28" height="1.34"/>
			<rect x="153.68" y="68.57" class="st16" width="323.28" height="1.34"/>
			<rect x="153.68" y="67.23" class="st16" width="323.28" height="1.34"/>
			<rect x="153.68" y="65.89" class="st15" width="323.28" height="1.34"/>
			<rect x="153.68" y="64.55" class="st14" width="323.28" height="1.34"/>
			<rect x="153.68" y="63.21" class="st13" width="323.28" height="1.34"/>
			<rect x="153.68" y="61.87" class="st12" width="323.28" height="1.34"/>
			<rect x="153.68" y="60.52" class="st12" width="323.28" height="1.34"/>
			<rect x="153.68" y="59.18" class="st11" width="323.28" height="1.34"/>
			<rect x="153.68" y="57.84" class="st10" width="323.28" height="1.34"/>
			<rect x="153.68" y="56.5" class="st9" width="323.28" height="1.34"/>
			<rect x="153.68" y="55.16" class="st8" width="323.28" height="1.34"/>
			<rect x="153.68" y="53.82" class="st8" width="323.28" height="1.34"/>
			<rect x="153.68" y="52.48" class="st7" width="323.28" height="1.34"/>
			<rect x="153.68" y="51.14" class="st6" width="323.28" height="1.34"/>
			<rect x="153.68" y="49.8" class="st5" width="323.28" height="1.34"/>
			<rect x="153.68" y="48.46" class="st5" width="323.28" height="1.34"/>
			<rect x="153.68" y="47.12" class="st5" width="323.28" height="1.34"/>
			<path class="st5" d="M476.96,47.12H153.68H476.96z"/>
		</g>
	</g>
	<g class="st89">
		<path class="st4" d="M397.6,504.01L397.6,504.01c-7.1-4.84-8.95-14.61-4.11-21.7l0,0c4.84-7.1,14.61-8.95,21.7-4.11l0,0
			c7.1,4.84,8.95,14.6,4.11,21.7l0,0C414.46,507,404.7,508.85,397.6,504.01z"/>
	</g>
	<g class="st89">
		<path class="st4" d="M428.25,472.92L428.25,472.92c-3.55-2.42-4.47-7.3-2.05-10.85l0,0c2.42-3.55,7.3-4.47,10.85-2.05l0,0
			c3.55,2.42,4.47,7.3,2.05,10.85l0,0C436.68,474.41,431.8,475.34,428.25,472.92z"/>
	</g>
</g>
</svg>
