<?xml version="1.0" encoding="utf-8"?>
<!-- Generator: Adobe Illustrator 24.1.0, SVG Export Plug-In . SVG Version: 6.00 Build 0)  -->
<svg version="1.1" id="Layer_1" xmlns="http://www.w3.org/2000/svg" xmlns:xlink="http://www.w3.org/1999/xlink" x="0px" y="0px"
	 viewBox="0 0 600 600" style="enable-background:new 0 0 600 600;" xml:space="preserve">
<style type="text/css">
	.st0{fill:#F7DE03;}
	.st1{fill:#E3A925;}
	.st2{fill:none;}
	.st3{opacity:0.2;}
	.st4{fill:#FFFFFF;}
	.st5{clip-path:url(#SVGID_2_);fill:#FFFFFF;}
	.st6{clip-path:url(#SVGID_2_);fill:#FFFFFD;}
	.st7{clip-path:url(#SVGID_2_);fill:#FFFFFC;}
	.st8{clip-path:url(#SVGID_2_);fill:#FFFFFA;}
	.st9{clip-path:url(#SVGID_2_);fill:#FFFEF9;}
	.st10{clip-path:url(#SVGID_2_);fill:#FFFEF8;}
	.st11{clip-path:url(#SVGID_2_);fill:#FFFEF6;}
	.st12{clip-path:url(#SVGID_2_);fill:#FFFEF5;}
	.st13{clip-path:url(#SVGID_2_);fill:#FFFEF4;}
	.st14{clip-path:url(#SVGID_2_);fill:#FFFEF3;}
	.st15{clip-path:url(#SVGID_2_);fill:#FFFEF2;}
	.st16{clip-path:url(#SVGID_2_);fill:#FFFEF1;}
	.st17{clip-path:url(#SVGID_2_);fill:#FFFEEF;}
	.st18{clip-path:url(#SVGID_2_);fill:#FEFDEE;}
	.st19{clip-path:url(#SVGID_2_);fill:#FEFDED;}
	.st20{clip-path:url(#SVGID_2_);fill:#FEFDEB;}
	.st21{clip-path:url(#SVGID_2_);fill:#FFFDEA;}
	.st22{clip-path:url(#SVGID_2_);fill:#FFFCEA;}
	.st23{clip-path:url(#SVGID_2_);fill:#FDFCE8;}
	.st24{clip-path:url(#SVGID_2_);fill:#FDFCE7;}
	.st25{clip-path:url(#SVGID_2_);fill:#FDFBE5;}
	.st26{clip-path:url(#SVGID_2_);fill:#FDFBE4;}
	.st27{clip-path:url(#SVGID_2_);fill:#FDFBE2;}
	.st28{clip-path:url(#SVGID_2_);fill:#FDFBE1;}
	.st29{clip-path:url(#SVGID_2_);fill:#FDFBE0;}
	.st30{clip-path:url(#SVGID_2_);fill:#FEFBDF;}
	.st31{clip-path:url(#SVGID_2_);fill:#FEFBDE;}
	.st32{clip-path:url(#SVGID_2_);fill:#FEFBDD;}
	.st33{clip-path:url(#SVGID_2_);fill:#FEFBDC;}
	.st34{clip-path:url(#SVGID_2_);fill:#FCFADB;}
	.st35{clip-path:url(#SVGID_2_);fill:#FCFADA;}
	.st36{clip-path:url(#SVGID_2_);fill:#FCFAD9;}
	.st37{clip-path:url(#SVGID_2_);fill:#FCFAD8;}
	.st38{clip-path:url(#SVGID_2_);fill:#FDFAD7;}
	.st39{clip-path:url(#SVGID_2_);fill:#FDFAD5;}
	.st40{clip-path:url(#SVGID_2_);fill:#FDFAD4;}
	.st41{clip-path:url(#SVGID_2_);fill:#FDF9D2;}
	.st42{clip-path:url(#SVGID_2_);fill:#FCF9D2;}
	.st43{clip-path:url(#SVGID_2_);fill:#FCF9D1;}
	.st44{clip-path:url(#SVGID_2_);fill:#FCF9CF;}
	.st45{clip-path:url(#SVGID_2_);fill:#FCF9CE;}
	.st46{clip-path:url(#SVGID_2_);fill:#FCF8CD;}
	.st47{clip-path:url(#SVGID_2_);fill:#FCF8CC;}
	.st48{clip-path:url(#SVGID_2_);fill:#FCF8CB;}
	.st49{clip-path:url(#SVGID_2_);fill:#FCF8CA;}
	.st50{clip-path:url(#SVGID_2_);fill:#FCF8C9;}
	.st51{clip-path:url(#SVGID_2_);fill:#FCF8C8;}
	.st52{clip-path:url(#SVGID_2_);fill:#FCF8C7;}
	.st53{clip-path:url(#SVGID_2_);fill:#FCF8C6;}
	.st54{clip-path:url(#SVGID_2_);fill:#FCF8C5;}
	.st55{clip-path:url(#SVGID_2_);fill:#FCF8C3;}
	.st56{clip-path:url(#SVGID_2_);fill:#FDF8C2;}
	.st57{clip-path:url(#SVGID_2_);fill:#FDF8C1;}
	.st58{clip-path:url(#SVGID_2_);fill:#FDF8C0;}
	.st59{clip-path:url(#SVGID_2_);fill:#FBF7BF;}
	.st60{clip-path:url(#SVGID_2_);fill:#FCF7BE;}
	.st61{clip-path:url(#SVGID_2_);fill:#FCF7BD;}
	.st62{clip-path:url(#SVGID_2_);fill:#FCF7BC;}
	.st63{clip-path:url(#SVGID_2_);fill:#FCF7BB;}
	.st64{clip-path:url(#SVGID_2_);fill:#FCF7BA;}
	.st65{clip-path:url(#SVGID_2_);fill:#FCF7B9;}
	.st66{clip-path:url(#SVGID_2_);fill:#FCF6B7;}
	.st67{clip-path:url(#SVGID_2_);fill:#FCF6B6;}
	.st68{clip-path:url(#SVGID_2_);fill:#FCF6B5;}
	.st69{clip-path:url(#SVGID_2_);fill:#FCF6B4;}
	.st70{clip-path:url(#SVGID_2_);fill:#FCF6B3;}
	.st71{clip-path:url(#SVGID_2_);fill:#FBF6B2;}
	.st72{clip-path:url(#SVGID_2_);fill:#FBF6B1;}
	.st73{clip-path:url(#SVGID_2_);fill:#FBF5B0;}
	.st74{clip-path:url(#SVGID_2_);fill:#FBF5AF;}
	.st75{clip-path:url(#SVGID_2_);fill:#FBF5AE;}
	.st76{clip-path:url(#SVGID_2_);fill:#FBF5AD;}
	.st77{clip-path:url(#SVGID_2_);fill:#FBF5AC;}
	.st78{clip-path:url(#SVGID_2_);fill:#FBF5AB;}
	.st79{clip-path:url(#SVGID_2_);fill:#FBF5AA;}
	.st80{clip-path:url(#SVGID_2_);fill:#FBF5A9;}
	.st81{clip-path:url(#SVGID_2_);fill:#FCF5A8;}
	.st82{clip-path:url(#SVGID_2_);fill:#FCF5A7;}
	.st83{clip-path:url(#SVGID_2_);fill:#FCF5A6;}
	.st84{clip-path:url(#SVGID_2_);fill:#FCF5A4;}
	.st85{clip-path:url(#SVGID_2_);fill:#FBF4A4;}
	.st86{clip-path:url(#SVGID_2_);fill:#FBF4A2;}
	.st87{clip-path:url(#SVGID_2_);fill:#FBF4A1;}
	.st88{clip-path:url(#SVGID_2_);fill:#FBF4A0;}
	.st89{opacity:0.6;}
</style>
<g>
	<g>
		<path class="st0" d="M542.74,274.6c8.41,5.1,11.66,29.25,9.75,72.46c-1.91,43.21-6.69,73.61-14.34,91.19
			c-3.57,7.9-31.49,13.38-83.74,16.44c-2.29,31.35-4.97,57.74-8.03,79.15c-3.06,21.41-6.37,34.67-9.94,39.77
			c-5.1,9.94-29.38,15.87-72.84,17.78c-43.46,1.91-74.24-1.34-92.34-9.75c-5.35-2.29-9.82-14.91-13.38-37.85
			c-3.57-22.94-6.5-51.62-8.79-86.03c-45.88-0.76-85.97-1.08-120.25-0.96c-34.29,0.13-52.96-1.34-56.02-4.4
			c-9.94-8.41-17.53-33.77-22.75-76.09c-5.22-42.31-3.76-73.16,4.4-92.53c17.84-41.3,48.3-85.52,91.39-132.68
			c43.08-47.16,79.28-84.89,108.59-113.18c10.19-9.94,26.25-17.46,48.18-22.56c21.92-5.1,44.03-7.52,66.34-7.27
			c22.3,0.26,42.19,3.38,59.65,9.37c17.46,5.99,26.83,14.98,28.1,26.96c2.54,26.77,4.27,59.46,5.16,98.08
			c0.89,38.62,1.08,78.83,0.57,120.64C509.09,265.17,535.86,268.99,542.74,274.6z M307.97,304.8c2.29-3.82,2.48-15.61,0.57-35.37
			c-1.91-19.75-4.4-28.61-7.46-26.57c-6.63,2.04-17.08,10.39-31.35,25.04c-14.28,14.66-21.41,25.17-21.41,31.55
			c0,4.59,9.75,7.01,29.25,7.27C297.07,306.97,307.2,306.33,307.97,304.8z"/>
		<path class="st1" d="M340.58,600c-32.89,0-56.81-3.64-72.73-11.04c-8.41-3.61-13.67-16.36-17.94-43.94
			c-3.33-21.35-6.14-48.01-8.37-79.32c-42.59-0.64-80.47-0.91-112.68-0.82c-50.53-0.16-57.96-2.95-61.76-6.78
			c-6.94-5.83-17.68-21.11-25.05-80.81c-5.44-44.16-3.81-75.77,4.97-96.65c18.13-41.98,49.36-87.38,92.86-135.01
			c42.99-47.05,79.65-85.24,108.96-113.54c11.33-11.05,28.33-19.12,51.96-24.61c22.41-5.21,45.66-7.64,68.25-7.48
			c23.08,0.27,44,3.56,62.19,9.81c20.61,7.06,31.88,18.41,33.51,33.74c2.56,26.86,4.32,60.05,5.21,98.74
			c0.83,36.13,1.06,74.15,0.66,113.12c56.05,2.8,70.66,7.87,76.8,12.55c8.09,5.24,15.82,19.27,13.16,79.44
			c-1.98,44.64-6.88,75.41-15,94.06c-3.5,7.75-13.22,16.24-83.62,20.85c-2.17,28.33-4.71,52.76-7.55,72.66
			c-4.33,30.19-8.33,38.99-11.34,43.27c-3.99,7.94-17.16,18.49-79.09,21.21C355.72,599.82,347.93,600,340.58,600z M143.7,448.69
			c30.86,0,66.27,0.33,105.52,0.97c4.19,0.08,7.64,3.35,7.93,7.54c2.27,34.07,5.2,62.78,8.71,85.35c4.23,27.2,8.55,31.52,9.03,31.92
			c16.6,7.65,46.38,10.64,88.36,8.85c57.58-2.55,65.08-11.6,66-13.4c1.84-2.77,5.23-9.95,9.13-37.24
			c3.03-21.16,5.71-47.6,7.97-78.59c0.29-4.04,3.54-7.24,7.59-7.48c66.33-3.88,75.91-10.87,77.16-12.22
			c6.84-15.95,11.45-45.67,13.32-87.69c2.59-58.69-5.53-64.97-5.88-65.21c-0.18-0.13-0.73-0.51-0.9-0.64
			c-1.94-1.58-13.11-6.93-75.56-9.66c-4.36-0.19-7.78-3.8-7.73-8.17c0.52-41.52,0.33-82.01-0.57-120.35
			c-0.88-38.31-2.61-71.11-5.13-97.49c-0.33-3.09-1.36-12.78-22.68-20.09c-16.57-5.68-35.78-8.69-57.12-8.93
			c-21.6-0.25-43.26,2.13-64.41,7.05c-20.38,4.75-35.3,11.63-44.37,20.48c-29.09,28.08-65.51,66.04-108.26,112.85
			c-42.29,46.29-72.55,90.17-89.93,130.44c-7.54,17.88-8.83,47.63-3.81,88.34c6.38,51.57,14.98,66.43,19.71,70.69
			c2.18,0.82,11.39,2.68,51.01,2.71C133.63,448.7,138.6,448.69,143.7,448.69z M77.9,446.12c0.05,0.04,0.09,0.08,0.13,0.1
			C78.01,446.19,77.96,446.15,77.9,446.12z M77.47,445.88L77.47,445.88L77.47,445.88z M286.32,314.86c-2.68,0-5.62-0.03-8.85-0.06
			c-13.01-0.16-37.22-0.48-37.22-15.34c0-8.9,7.31-20.37,23.7-37.2c19.5-19.99,28.73-25.06,33.98-26.87
			c2.54-1.17,5.45-1.2,8.02,0.01c5.28,2.51,8.22,8.12,10.64,33.25c2.69,27.82,0.88,35.84-1.53,40.05
			C312.6,313.34,308.31,314.86,286.32,314.86z M300.78,301.15h-0.01H300.78z M300.79,301.12L300.79,301.12L300.79,301.12z
			 M257.19,296.78c2.8,0.74,8.67,1.7,20.48,1.86c13.7,0.19,20.49-0.13,23.8-0.43c0.42-3.55,0.63-11.34-0.97-28.01
			c-0.81-8.31-1.62-13.56-2.29-16.87c-4.46,2.97-11.57,8.8-22.7,20.22C263.02,286.37,258.69,293.38,257.19,296.78z"/>
	</g>
	<g>
		<path class="st2" d="M246.19,342.71c7.99,1.98,17.8,2.99,30.87,3.16c2.97,0.04,5.74,0.06,8.31,0.06c0.05,0,0.09,0,0.14,0
			c13.34,0,27.75-0.04,39.59-5.73c-18.77-5.83-37.31-12.67-55.64-19.59c-19.94-7.53-39.98-15.21-60.27-21.89
			c0,0.24-0.02,0.49-0.02,0.73C209.16,315.16,218.86,335.92,246.19,342.71z"/>
	</g>
	<g>
		<path class="st2" d="M325.1,340.2c6.81-3.27,12.77-8.39,17.16-16.48c6.92-12.32,8.23-27.32,5.26-58.05
			c-1.8-18.63-6.02-62.25-45.59-62.25c-5.35,0-10.6,1.06-15.51,3.09c-12.84,4.79-26.1,14.94-44.74,34.08
			c-22.78,23.39-32.24,40.31-32.49,58.13c20.29,6.68,40.33,14.36,60.27,21.89C287.79,327.53,306.33,334.36,325.1,340.2z"/>
	</g>
	<g class="st3">
		<path class="st4" d="M325.1,340.2c-11.84,5.69-26.25,5.73-39.59,5.73c-0.05,0-0.09,0-0.14,0c-2.57,0-5.34-0.02-8.31-0.06
			c-13.07-0.17-22.88-1.17-30.87-3.16c-27.33-6.79-37.03-27.55-37.03-43.26c0-0.24,0.02-0.49,0.02-0.73
			c-28.16-9.27-56.79-16.59-86.29-18.76c-7.6-0.56-15.29-0.67-22.98-0.42c-3.48,6.59-6.63,13.08-9.37,19.43
			c-2.46,5.84-7.54,24.61-1.63,72.55c2.97,24.1,6.27,37.97,8.64,45.59c5.9,0.3,14.58,0.55,27.16,0.55c0,0,13.92-0.03,19.07-0.03
			c30.95,0,66.59,0.33,105.94,0.99l36.02,0.6l2.4,35.95c2.21,33.16,5.04,60.96,8.42,82.62c0.76,4.9,1.49,8.72,2.13,11.66
			c8.28,1.73,21.5,3.33,42.07,3.33c6.57,0,13.68-0.17,21.12-0.49c22.96-1.01,35.73-3.06,42.36-4.59c0.9-4.06,2.08-10.25,3.38-19.37
			c2.92-20.43,5.52-46.16,7.74-76.47l2.5-34.23l34.26-2.01c28.96-1.69,45.22-3.9,54.03-5.56c2.78-11.83,5.76-31.7,7.22-64.72
			c0.16-3.53,0.26-6.75,0.34-9.81c-30.26,13.92-63.41,21.48-96.75,21.11C385.67,356.26,355.09,349.51,325.1,340.2z"/>
	</g>
	<g>
		<g>
			<defs>
				<path id="SVGID_1_" d="M513.22,306.46c-9.07-1.34-25.06-3.02-52.49-4.22l-37.9-1.66l0.46-37.93
					c0.5-41.15,0.31-81.28-0.57-119.25c-0.79-34.04-2.25-63.58-4.34-87.97c-0.7-0.29-1.53-0.6-2.49-0.93
					c-13.43-4.6-29.38-7.05-47.39-7.25l-2.71-0.02c-18.16,0-36.43,2.11-54.31,6.27c-20.08,4.67-27.47,10.26-29.86,12.6
					c-28.61,27.61-64.57,65.1-106.88,111.41c-33.05,36.18-58.15,70.46-74.84,102.04c7.69-0.25,15.38-0.14,22.98,0.42
					c29.5,2.17,58.13,9.49,86.29,18.76c0.25-17.83,9.71-34.74,32.49-58.13c18.64-19.14,31.9-29.29,44.74-34.08
					c4.9-2.03,10.16-3.09,15.51-3.09c39.56,0,43.78,43.62,45.59,62.25c2.97,30.73,1.66,45.73-5.26,58.05
					c-4.39,8.09-10.35,13.21-17.16,16.48c29.99,9.32,60.57,16.07,91.87,16.42c33.34,0.38,66.48-7.18,96.75-21.11
					C514.07,321.76,513.73,312.47,513.22,306.46z"/>
			</defs>
			<clipPath id="SVGID_2_">
				<use xlink:href="#SVGID_1_"  style="overflow:visible;"/>
			</clipPath>
			<rect x="99.92" y="356.63" class="st5" width="414.15" height="0.36"/>
			<rect x="99.92" y="354.87" class="st5" width="414.15" height="1.75"/>
			<rect x="99.92" y="353.12" class="st5" width="414.15" height="1.75"/>
			<rect x="99.92" y="351.36" class="st5" width="414.15" height="1.75"/>
			<rect x="99.92" y="349.61" class="st6" width="414.15" height="1.75"/>
			<rect x="99.92" y="347.85" class="st7" width="414.15" height="1.75"/>
			<rect x="99.92" y="346.1" class="st8" width="414.15" height="1.75"/>
			<rect x="99.92" y="344.34" class="st8" width="414.15" height="1.75"/>
			<rect x="99.92" y="342.59" class="st9" width="414.15" height="1.75"/>
			<rect x="99.92" y="340.83" class="st10" width="414.15" height="1.75"/>
			<rect x="99.92" y="339.08" class="st11" width="414.15" height="1.75"/>
			<rect x="99.92" y="337.32" class="st12" width="414.15" height="1.75"/>
			<rect x="99.92" y="335.57" class="st12" width="414.15" height="1.75"/>
			<rect x="99.92" y="333.81" class="st13" width="414.15" height="1.75"/>
			<rect x="99.92" y="332.06" class="st14" width="414.15" height="1.75"/>
			<rect x="99.92" y="330.3" class="st15" width="414.15" height="1.75"/>
			<rect x="99.92" y="328.55" class="st16" width="414.15" height="1.75"/>
			<rect x="99.92" y="326.79" class="st16" width="414.15" height="1.75"/>
			<rect x="99.92" y="325.04" class="st17" width="414.15" height="1.75"/>
			<rect x="99.92" y="323.28" class="st18" width="414.15" height="1.75"/>
			<rect x="99.92" y="321.53" class="st18" width="414.15" height="1.75"/>
			<rect x="99.92" y="319.77" class="st19" width="414.15" height="1.75"/>
			<rect x="99.92" y="318.02" class="st20" width="414.15" height="1.75"/>
			<rect x="99.92" y="316.26" class="st21" width="414.15" height="1.75"/>
			<rect x="99.92" y="314.51" class="st22" width="414.15" height="1.75"/>
			<rect x="99.92" y="312.75" class="st23" width="414.15" height="1.75"/>
			<rect x="99.92" y="311" class="st24" width="414.15" height="1.75"/>
			<rect x="99.92" y="309.24" class="st24" width="414.15" height="1.75"/>
			<rect x="99.92" y="307.49" class="st25" width="414.15" height="1.75"/>
			<rect x="99.92" y="305.73" class="st26" width="414.15" height="1.75"/>
			<rect x="99.92" y="303.98" class="st26" width="414.15" height="1.75"/>
			<rect x="99.92" y="302.22" class="st27" width="414.15" height="1.75"/>
			<rect x="99.92" y="300.47" class="st28" width="414.15" height="1.75"/>
			<rect x="99.92" y="298.71" class="st29" width="414.15" height="1.75"/>
			<rect x="99.92" y="296.96" class="st30" width="414.15" height="1.75"/>
			<rect x="99.92" y="295.2" class="st31" width="414.15" height="1.75"/>
			<rect x="99.92" y="293.45" class="st32" width="414.15" height="1.75"/>
			<rect x="99.92" y="291.69" class="st33" width="414.15" height="1.75"/>
			<rect x="99.92" y="289.94" class="st34" width="414.15" height="1.75"/>
			<rect x="99.92" y="288.18" class="st34" width="414.15" height="1.75"/>
			<rect x="99.92" y="286.43" class="st35" width="414.15" height="1.75"/>
			<rect x="99.92" y="284.67" class="st36" width="414.15" height="1.75"/>
			<rect x="99.92" y="282.92" class="st37" width="414.15" height="1.75"/>
			<rect x="99.92" y="281.16" class="st38" width="414.15" height="1.75"/>
			<rect x="99.92" y="279.41" class="st39" width="414.15" height="1.75"/>
			<rect x="99.92" y="277.65" class="st39" width="414.15" height="1.75"/>
			<rect x="99.92" y="275.9" class="st40" width="414.15" height="1.75"/>
			<rect x="99.92" y="274.14" class="st41" width="414.15" height="1.75"/>
			<rect x="99.92" y="272.39" class="st42" width="414.15" height="1.75"/>
			<rect x="99.92" y="270.63" class="st43" width="414.15" height="1.75"/>
			<rect x="99.92" y="268.88" class="st44" width="414.15" height="1.75"/>
			<rect x="99.92" y="267.12" class="st45" width="414.15" height="1.75"/>
			<rect x="99.92" y="265.37" class="st46" width="414.15" height="1.75"/>
			<rect x="99.92" y="263.61" class="st47" width="414.15" height="1.75"/>
			<rect x="99.92" y="261.86" class="st48" width="414.15" height="1.75"/>
			<rect x="99.92" y="260.1" class="st49" width="414.15" height="1.75"/>
			<rect x="99.92" y="258.35" class="st50" width="414.15" height="1.75"/>
			<rect x="99.92" y="256.59" class="st51" width="414.15" height="1.75"/>
			<rect x="99.92" y="254.84" class="st52" width="414.15" height="1.75"/>
			<rect x="99.92" y="253.08" class="st53" width="414.15" height="1.75"/>
			<rect x="99.92" y="251.33" class="st53" width="414.15" height="1.75"/>
			<rect x="99.92" y="249.57" class="st54" width="414.15" height="1.75"/>
			<rect x="99.92" y="247.82" class="st55" width="414.15" height="1.75"/>
			<rect x="99.92" y="246.06" class="st56" width="414.15" height="1.75"/>
			<rect x="99.92" y="244.31" class="st57" width="414.15" height="1.75"/>
			<rect x="99.92" y="242.55" class="st58" width="414.15" height="1.75"/>
			<rect x="99.92" y="240.8" class="st59" width="414.15" height="1.75"/>
			<rect x="99.92" y="239.04" class="st59" width="414.15" height="1.75"/>
			<rect x="99.92" y="237.29" class="st60" width="414.15" height="1.75"/>
			<rect x="99.92" y="235.53" class="st61" width="414.15" height="1.75"/>
			<rect x="99.92" y="233.78" class="st62" width="414.15" height="1.75"/>
			<rect x="99.92" y="232.02" class="st63" width="414.15" height="1.75"/>
			<rect x="99.92" y="230.27" class="st64" width="414.15" height="1.75"/>
			<rect x="99.92" y="228.51" class="st65" width="414.15" height="1.75"/>
			<rect x="99.92" y="226.76" class="st66" width="414.15" height="1.75"/>
			<rect x="99.92" y="225" class="st67" width="414.15" height="1.75"/>
			<rect x="99.92" y="223.25" class="st68" width="414.15" height="1.75"/>
			<rect x="99.92" y="221.49" class="st69" width="414.15" height="1.75"/>
			<rect x="99.92" y="219.74" class="st70" width="414.15" height="1.75"/>
			<rect x="99.92" y="217.98" class="st71" width="414.15" height="1.75"/>
			<rect x="99.92" y="216.23" class="st71" width="414.15" height="1.75"/>
			<rect x="99.92" y="214.47" class="st72" width="414.15" height="1.75"/>
			<rect x="99.92" y="212.72" class="st73" width="414.15" height="1.75"/>
			<rect x="99.92" y="210.96" class="st74" width="414.15" height="1.75"/>
			<rect x="99.92" y="209.21" class="st75" width="414.15" height="1.75"/>
			<rect x="99.92" y="207.45" class="st76" width="414.15" height="1.75"/>
			<rect x="99.92" y="205.7" class="st77" width="414.15" height="1.75"/>
			<rect x="99.92" y="203.94" class="st78" width="414.15" height="1.75"/>
			<rect x="99.92" y="202.19" class="st79" width="414.15" height="1.75"/>
			<rect x="99.92" y="200.43" class="st80" width="414.15" height="1.75"/>
			<rect x="99.92" y="198.68" class="st81" width="414.15" height="1.75"/>
			<rect x="99.92" y="196.92" class="st81" width="414.15" height="1.75"/>
			<rect x="99.92" y="195.17" class="st82" width="414.15" height="1.75"/>
			<rect x="99.92" y="193.41" class="st83" width="414.15" height="1.75"/>
			<rect x="99.92" y="191.66" class="st84" width="414.15" height="1.75"/>
			<rect x="99.92" y="189.9" class="st85" width="414.15" height="1.75"/>
			<rect x="99.92" y="188.15" class="st86" width="414.15" height="1.75"/>
			<rect x="99.92" y="186.39" class="st87" width="414.15" height="1.75"/>
			<rect x="99.92" y="184.64" class="st88" width="414.15" height="1.75"/>
			<rect x="99.92" y="183.24" class="st88" width="414.15" height="1.4"/>
			<rect x="99.92" y="181.83" class="st87" width="414.15" height="1.4"/>
			<rect x="99.92" y="180.43" class="st86" width="414.15" height="1.4"/>
			<rect x="99.92" y="179.03" class="st85" width="414.15" height="1.4"/>
			<rect x="99.92" y="177.63" class="st84" width="414.15" height="1.4"/>
			<rect x="99.92" y="176.23" class="st83" width="414.15" height="1.4"/>
			<rect x="99.92" y="174.82" class="st82" width="414.15" height="1.4"/>
			<rect x="99.92" y="173.42" class="st81" width="414.15" height="1.4"/>
			<rect x="99.92" y="172.02" class="st81" width="414.15" height="1.4"/>
			<rect x="99.92" y="170.62" class="st80" width="414.15" height="1.4"/>
			<rect x="99.92" y="169.21" class="st79" width="414.15" height="1.4"/>
			<rect x="99.92" y="167.81" class="st78" width="414.15" height="1.4"/>
			<rect x="99.92" y="166.41" class="st77" width="414.15" height="1.4"/>
			<rect x="99.92" y="165.01" class="st76" width="414.15" height="1.4"/>
			<rect x="99.92" y="163.61" class="st75" width="414.15" height="1.4"/>
			<rect x="99.92" y="162.2" class="st74" width="414.15" height="1.4"/>
			<rect x="99.92" y="160.8" class="st73" width="414.15" height="1.4"/>
			<rect x="99.92" y="159.4" class="st72" width="414.15" height="1.4"/>
			<rect x="99.92" y="158" class="st71" width="414.15" height="1.4"/>
			<rect x="99.92" y="156.59" class="st71" width="414.15" height="1.4"/>
			<rect x="99.92" y="155.19" class="st70" width="414.15" height="1.4"/>
			<rect x="99.92" y="153.79" class="st69" width="414.15" height="1.4"/>
			<rect x="99.92" y="152.39" class="st68" width="414.15" height="1.4"/>
			<rect x="99.92" y="150.99" class="st67" width="414.15" height="1.4"/>
			<rect x="99.92" y="149.58" class="st66" width="414.15" height="1.4"/>
			<rect x="99.92" y="148.18" class="st65" width="414.15" height="1.4"/>
			<rect x="99.92" y="146.78" class="st64" width="414.15" height="1.4"/>
			<rect x="99.92" y="145.38" class="st63" width="414.15" height="1.4"/>
			<rect x="99.92" y="143.97" class="st62" width="414.15" height="1.4"/>
			<rect x="99.92" y="142.57" class="st61" width="414.15" height="1.4"/>
			<rect x="99.92" y="141.17" class="st60" width="414.15" height="1.4"/>
			<rect x="99.92" y="139.77" class="st59" width="414.15" height="1.4"/>
			<rect x="99.92" y="138.37" class="st59" width="414.15" height="1.4"/>
			<rect x="99.92" y="136.96" class="st58" width="414.15" height="1.4"/>
			<rect x="99.92" y="135.56" class="st57" width="414.15" height="1.4"/>
			<rect x="99.92" y="134.16" class="st56" width="414.15" height="1.4"/>
			<rect x="99.92" y="132.76" class="st55" width="414.15" height="1.4"/>
			<rect x="99.92" y="131.35" class="st54" width="414.15" height="1.4"/>
			<rect x="99.92" y="129.95" class="st53" width="414.15" height="1.4"/>
			<rect x="99.92" y="128.55" class="st53" width="414.15" height="1.4"/>
			<rect x="99.92" y="127.15" class="st52" width="414.15" height="1.4"/>
			<rect x="99.92" y="125.75" class="st51" width="414.15" height="1.4"/>
			<rect x="99.92" y="124.34" class="st50" width="414.15" height="1.4"/>
			<rect x="99.92" y="122.94" class="st49" width="414.15" height="1.4"/>
			<rect x="99.92" y="121.54" class="st48" width="414.15" height="1.4"/>
			<rect x="99.92" y="120.14" class="st47" width="414.15" height="1.4"/>
			<rect x="99.92" y="118.73" class="st46" width="414.15" height="1.4"/>
			<rect x="99.92" y="117.33" class="st45" width="414.15" height="1.4"/>
			<rect x="99.92" y="115.93" class="st44" width="414.15" height="1.4"/>
			<rect x="99.92" y="114.53" class="st43" width="414.15" height="1.4"/>
			<rect x="99.92" y="113.13" class="st42" width="414.15" height="1.4"/>
			<rect x="99.92" y="111.72" class="st41" width="414.15" height="1.4"/>
			<rect x="99.92" y="110.32" class="st40" width="414.15" height="1.4"/>
			<rect x="99.92" y="108.92" class="st39" width="414.15" height="1.4"/>
			<rect x="99.92" y="107.52" class="st39" width="414.15" height="1.4"/>
			<rect x="99.92" y="106.11" class="st38" width="414.15" height="1.4"/>
			<rect x="99.92" y="104.71" class="st37" width="414.15" height="1.4"/>
			<rect x="99.92" y="103.31" class="st36" width="414.15" height="1.4"/>
			<rect x="99.92" y="101.91" class="st35" width="414.15" height="1.4"/>
			<rect x="99.92" y="100.51" class="st34" width="414.15" height="1.4"/>
			<rect x="99.92" y="99.1" class="st34" width="414.15" height="1.4"/>
			<rect x="99.92" y="97.7" class="st33" width="414.15" height="1.4"/>
			<rect x="99.92" y="96.3" class="st32" width="414.15" height="1.4"/>
			<rect x="99.92" y="94.9" class="st31" width="414.15" height="1.4"/>
			<rect x="99.92" y="93.49" class="st30" width="414.15" height="1.4"/>
			<rect x="99.92" y="92.09" class="st29" width="414.15" height="1.4"/>
			<rect x="99.92" y="90.69" class="st28" width="414.15" height="1.4"/>
			<rect x="99.92" y="89.29" class="st27" width="414.15" height="1.4"/>
			<rect x="99.92" y="87.89" class="st26" width="414.15" height="1.4"/>
			<rect x="99.92" y="86.48" class="st26" width="414.15" height="1.4"/>
			<rect x="99.92" y="85.08" class="st25" width="414.15" height="1.4"/>
			<rect x="99.92" y="83.68" class="st24" width="414.15" height="1.4"/>
			<rect x="99.92" y="82.28" class="st24" width="414.15" height="1.4"/>
			<rect x="99.92" y="80.87" class="st23" width="414.15" height="1.4"/>
			<rect x="99.92" y="79.47" class="st22" width="414.15" height="1.4"/>
			<rect x="99.92" y="78.07" class="st21" width="414.15" height="1.4"/>
			<rect x="99.92" y="76.67" class="st20" width="414.15" height="1.4"/>
			<rect x="99.92" y="75.27" class="st19" width="414.15" height="1.4"/>
			<rect x="99.92" y="73.86" class="st18" width="414.15" height="1.4"/>
			<rect x="99.92" y="72.46" class="st18" width="414.15" height="1.4"/>
			<rect x="99.92" y="71.06" class="st17" width="414.15" height="1.4"/>
			<rect x="99.92" y="69.66" class="st16" width="414.15" height="1.4"/>
			<rect x="99.92" y="68.25" class="st16" width="414.15" height="1.4"/>
			<rect x="99.92" y="66.85" class="st15" width="414.15" height="1.4"/>
			<rect x="99.92" y="65.45" class="st14" width="414.15" height="1.4"/>
			<rect x="99.92" y="64.05" class="st13" width="414.15" height="1.4"/>
			<rect x="99.92" y="62.65" class="st12" width="414.15" height="1.4"/>
			<rect x="99.92" y="61.24" class="st12" width="414.15" height="1.4"/>
			<rect x="99.92" y="59.84" class="st11" width="414.15" height="1.4"/>
			<rect x="99.92" y="58.44" class="st10" width="414.15" height="1.4"/>
			<rect x="99.92" y="57.04" class="st9" width="414.15" height="1.4"/>
			<rect x="99.92" y="55.63" class="st8" width="414.15" height="1.4"/>
			<rect x="99.92" y="54.23" class="st8" width="414.15" height="1.4"/>
			<rect x="99.92" y="52.83" class="st7" width="414.15" height="1.4"/>
			<rect x="99.92" y="51.43" class="st6" width="414.15" height="1.4"/>
			<rect x="99.92" y="50.03" class="st5" width="414.15" height="1.4"/>
			<rect x="99.92" y="48.62" class="st5" width="414.15" height="1.4"/>
			<rect x="99.92" y="47.22" class="st5" width="414.15" height="1.4"/>
			<path class="st5" d="M514.07,47.22H99.92H514.07z"/>
		</g>
	</g>
	<g class="st89">
		<path class="st4" d="M375.06,532.21L375.06,532.21c-8.49-1.45-14.25-9.58-12.8-18.08l0,0c1.45-8.49,9.58-14.25,18.08-12.8l0,0
			c8.49,1.45,14.25,9.59,12.8,18.08l0,0C391.68,527.9,383.55,533.66,375.06,532.21z"/>
	</g>
	<g class="st89">
		<path class="st4" d="M390.03,491.07L390.03,491.07c-4.25-0.73-7.13-4.79-6.4-9.04l0,0c0.73-4.25,4.79-7.13,9.04-6.4l0,0
			c4.25,0.73,7.13,4.79,6.4,9.04l0,0C398.35,488.92,394.28,491.8,390.03,491.07z"/>
	</g>
</g>
</svg>
