<?xml version="1.0" encoding="utf-8"?>
<!-- Generator: Adobe Illustrator 24.1.0, SVG Export Plug-In . SVG Version: 6.00 Build 0)  -->
<svg version="1.1" id="Layer_1" xmlns="http://www.w3.org/2000/svg" xmlns:xlink="http://www.w3.org/1999/xlink" x="0px" y="0px"
	 viewBox="0 0 957.53 600" style="enable-background:new 0 0 957.53 600;" xml:space="preserve">
<style type="text/css">
	.st0{fill:#F7DE03;}
	.st1{fill:#E3A925;}
	.st2{clip-path:url(#SVGID_2_);fill:#FFFFFF;}
	.st3{clip-path:url(#SVGID_2_);fill:#FFFFFD;}
	.st4{clip-path:url(#SVGID_2_);fill:#FFFFFC;}
	.st5{clip-path:url(#SVGID_2_);fill:#FFFFFA;}
	.st6{clip-path:url(#SVGID_2_);fill:#FFFEF9;}
	.st7{clip-path:url(#SVGID_2_);fill:#FFFEF8;}
	.st8{clip-path:url(#SVGID_2_);fill:#FFFEF6;}
	.st9{clip-path:url(#SVGID_2_);fill:#FFFEF5;}
	.st10{clip-path:url(#SVGID_2_);fill:#FFFEF4;}
	.st11{clip-path:url(#SVGID_2_);fill:#FFFEF3;}
	.st12{clip-path:url(#SVGID_2_);fill:#FFFEF2;}
	.st13{clip-path:url(#SVGID_2_);fill:#FFFEF1;}
	.st14{clip-path:url(#SVGID_2_);fill:#FFFEEF;}
	.st15{clip-path:url(#SVGID_2_);fill:#FEFDEE;}
	.st16{clip-path:url(#SVGID_2_);fill:#FEFDED;}
	.st17{clip-path:url(#SVGID_2_);fill:#FEFDEB;}
	.st18{clip-path:url(#SVGID_2_);fill:#FFFDEA;}
	.st19{clip-path:url(#SVGID_2_);fill:#FFFCEA;}
	.st20{clip-path:url(#SVGID_2_);fill:#FDFCE8;}
	.st21{clip-path:url(#SVGID_2_);fill:#FDFCE7;}
	.st22{clip-path:url(#SVGID_2_);fill:#FDFBE5;}
	.st23{clip-path:url(#SVGID_2_);fill:#FDFBE4;}
	.st24{clip-path:url(#SVGID_2_);fill:#FDFBE2;}
	.st25{clip-path:url(#SVGID_2_);fill:#FDFBE1;}
	.st26{clip-path:url(#SVGID_2_);fill:#FDFBE0;}
	.st27{clip-path:url(#SVGID_2_);fill:#FEFBDF;}
	.st28{clip-path:url(#SVGID_2_);fill:#FEFBDE;}
	.st29{clip-path:url(#SVGID_2_);fill:#FEFBDD;}
	.st30{clip-path:url(#SVGID_2_);fill:#FEFBDC;}
	.st31{clip-path:url(#SVGID_2_);fill:#FCFADB;}
	.st32{clip-path:url(#SVGID_2_);fill:#FCFADA;}
	.st33{clip-path:url(#SVGID_2_);fill:#FCFAD9;}
	.st34{clip-path:url(#SVGID_2_);fill:#FCFAD8;}
	.st35{clip-path:url(#SVGID_2_);fill:#FDFAD7;}
	.st36{clip-path:url(#SVGID_2_);fill:#FDFAD5;}
	.st37{clip-path:url(#SVGID_2_);fill:#FDFAD4;}
	.st38{clip-path:url(#SVGID_2_);fill:#FDF9D2;}
	.st39{clip-path:url(#SVGID_2_);fill:#FCF9D2;}
	.st40{clip-path:url(#SVGID_2_);fill:#FCF9D1;}
	.st41{clip-path:url(#SVGID_2_);fill:#FCF9CF;}
	.st42{clip-path:url(#SVGID_2_);fill:#FCF9CE;}
	.st43{clip-path:url(#SVGID_2_);fill:#FCF8CD;}
	.st44{clip-path:url(#SVGID_2_);fill:#FCF8CC;}
	.st45{clip-path:url(#SVGID_2_);fill:#FCF8CB;}
	.st46{clip-path:url(#SVGID_2_);fill:#FCF8CA;}
	.st47{clip-path:url(#SVGID_2_);fill:#FCF8C9;}
	.st48{clip-path:url(#SVGID_2_);fill:#FCF8C8;}
	.st49{clip-path:url(#SVGID_2_);fill:#FCF8C7;}
	.st50{clip-path:url(#SVGID_2_);fill:#FCF8C6;}
	.st51{clip-path:url(#SVGID_2_);fill:#FCF8C5;}
	.st52{clip-path:url(#SVGID_2_);fill:#FCF8C3;}
	.st53{clip-path:url(#SVGID_2_);fill:#FDF8C2;}
	.st54{clip-path:url(#SVGID_2_);fill:#FDF8C1;}
	.st55{clip-path:url(#SVGID_2_);fill:#FDF8C0;}
	.st56{clip-path:url(#SVGID_2_);fill:#FBF7BF;}
	.st57{clip-path:url(#SVGID_2_);fill:#FCF7BE;}
	.st58{clip-path:url(#SVGID_2_);fill:#FCF7BD;}
	.st59{clip-path:url(#SVGID_2_);fill:#FCF7BC;}
	.st60{clip-path:url(#SVGID_2_);fill:#FCF7BB;}
	.st61{clip-path:url(#SVGID_2_);fill:#FCF7BA;}
	.st62{clip-path:url(#SVGID_2_);fill:#FCF7B9;}
	.st63{clip-path:url(#SVGID_2_);fill:#FCF6B7;}
	.st64{clip-path:url(#SVGID_2_);fill:#FCF6B6;}
	.st65{clip-path:url(#SVGID_2_);fill:#FCF6B5;}
	.st66{clip-path:url(#SVGID_2_);fill:#FCF6B4;}
	.st67{clip-path:url(#SVGID_2_);fill:#FCF6B3;}
	.st68{clip-path:url(#SVGID_2_);fill:#FBF6B2;}
	.st69{clip-path:url(#SVGID_2_);fill:#FBF6B1;}
	.st70{clip-path:url(#SVGID_2_);fill:#FBF5B0;}
	.st71{clip-path:url(#SVGID_2_);fill:#FBF5AF;}
	.st72{clip-path:url(#SVGID_2_);fill:#FBF5AE;}
	.st73{clip-path:url(#SVGID_2_);fill:#FBF5AD;}
	.st74{clip-path:url(#SVGID_2_);fill:#FBF5AC;}
	.st75{clip-path:url(#SVGID_2_);fill:#FBF5AB;}
	.st76{clip-path:url(#SVGID_2_);fill:#FBF5AA;}
	.st77{clip-path:url(#SVGID_2_);fill:#FBF5A9;}
	.st78{clip-path:url(#SVGID_2_);fill:#FCF5A8;}
	.st79{clip-path:url(#SVGID_2_);fill:#FCF5A7;}
	.st80{clip-path:url(#SVGID_2_);fill:#FCF5A6;}
	.st81{clip-path:url(#SVGID_2_);fill:#FCF5A4;}
	.st82{clip-path:url(#SVGID_2_);fill:#FBF4A4;}
	.st83{clip-path:url(#SVGID_2_);fill:#FBF4A2;}
	.st84{clip-path:url(#SVGID_2_);fill:#FBF4A1;}
	.st85{clip-path:url(#SVGID_2_);fill:#FBF4A0;}
	.st86{opacity:0.2;}
	.st87{fill:#FFFFFF;}
	.st88{opacity:0.6;}
	.st89{fill:none;}
	.st90{clip-path:url(#SVGID_4_);fill:#FFFFFF;}
	.st91{clip-path:url(#SVGID_4_);fill:#FFFFFD;}
	.st92{clip-path:url(#SVGID_4_);fill:#FFFFFC;}
	.st93{clip-path:url(#SVGID_4_);fill:#FFFFFA;}
	.st94{clip-path:url(#SVGID_4_);fill:#FFFEF9;}
	.st95{clip-path:url(#SVGID_4_);fill:#FFFEF8;}
	.st96{clip-path:url(#SVGID_4_);fill:#FFFEF6;}
	.st97{clip-path:url(#SVGID_4_);fill:#FFFEF5;}
	.st98{clip-path:url(#SVGID_4_);fill:#FFFEF4;}
	.st99{clip-path:url(#SVGID_4_);fill:#FFFEF3;}
	.st100{clip-path:url(#SVGID_4_);fill:#FFFEF2;}
	.st101{clip-path:url(#SVGID_4_);fill:#FFFEF1;}
	.st102{clip-path:url(#SVGID_4_);fill:#FFFEEF;}
	.st103{clip-path:url(#SVGID_4_);fill:#FEFDEE;}
	.st104{clip-path:url(#SVGID_4_);fill:#FEFDED;}
	.st105{clip-path:url(#SVGID_4_);fill:#FEFDEB;}
	.st106{clip-path:url(#SVGID_4_);fill:#FFFDEA;}
	.st107{clip-path:url(#SVGID_4_);fill:#FFFCEA;}
	.st108{clip-path:url(#SVGID_4_);fill:#FDFCE8;}
	.st109{clip-path:url(#SVGID_4_);fill:#FDFCE7;}
	.st110{clip-path:url(#SVGID_4_);fill:#FDFBE5;}
	.st111{clip-path:url(#SVGID_4_);fill:#FDFBE4;}
	.st112{clip-path:url(#SVGID_4_);fill:#FDFBE2;}
	.st113{clip-path:url(#SVGID_4_);fill:#FDFBE1;}
	.st114{clip-path:url(#SVGID_4_);fill:#FDFBE0;}
	.st115{clip-path:url(#SVGID_4_);fill:#FEFBDF;}
	.st116{clip-path:url(#SVGID_4_);fill:#FEFBDE;}
	.st117{clip-path:url(#SVGID_4_);fill:#FEFBDD;}
	.st118{clip-path:url(#SVGID_4_);fill:#FEFBDC;}
	.st119{clip-path:url(#SVGID_4_);fill:#FCFADB;}
	.st120{clip-path:url(#SVGID_4_);fill:#FCFADA;}
	.st121{clip-path:url(#SVGID_4_);fill:#FCFAD9;}
	.st122{clip-path:url(#SVGID_4_);fill:#FCFAD8;}
	.st123{clip-path:url(#SVGID_4_);fill:#FDFAD7;}
	.st124{clip-path:url(#SVGID_4_);fill:#FDFAD5;}
	.st125{clip-path:url(#SVGID_4_);fill:#FDFAD4;}
	.st126{clip-path:url(#SVGID_4_);fill:#FDF9D2;}
	.st127{clip-path:url(#SVGID_4_);fill:#FCF9D2;}
	.st128{clip-path:url(#SVGID_4_);fill:#FCF9D1;}
	.st129{clip-path:url(#SVGID_4_);fill:#FCF9CF;}
	.st130{clip-path:url(#SVGID_4_);fill:#FCF9CE;}
	.st131{clip-path:url(#SVGID_4_);fill:#FCF8CD;}
	.st132{clip-path:url(#SVGID_4_);fill:#FCF8CC;}
	.st133{clip-path:url(#SVGID_4_);fill:#FCF8CB;}
	.st134{clip-path:url(#SVGID_4_);fill:#FCF8CA;}
	.st135{clip-path:url(#SVGID_4_);fill:#FCF8C9;}
	.st136{clip-path:url(#SVGID_4_);fill:#FCF8C8;}
	.st137{clip-path:url(#SVGID_4_);fill:#FCF8C7;}
	.st138{clip-path:url(#SVGID_4_);fill:#FCF8C6;}
	.st139{clip-path:url(#SVGID_4_);fill:#FCF8C5;}
	.st140{clip-path:url(#SVGID_4_);fill:#FCF8C3;}
	.st141{clip-path:url(#SVGID_4_);fill:#FDF8C2;}
	.st142{clip-path:url(#SVGID_4_);fill:#FDF8C1;}
	.st143{clip-path:url(#SVGID_4_);fill:#FDF8C0;}
	.st144{clip-path:url(#SVGID_4_);fill:#FBF7BF;}
	.st145{clip-path:url(#SVGID_4_);fill:#FCF7BE;}
	.st146{clip-path:url(#SVGID_4_);fill:#FCF7BD;}
	.st147{clip-path:url(#SVGID_4_);fill:#FCF7BC;}
	.st148{clip-path:url(#SVGID_4_);fill:#FCF7BB;}
	.st149{clip-path:url(#SVGID_4_);fill:#FCF7BA;}
	.st150{clip-path:url(#SVGID_4_);fill:#FCF7B9;}
	.st151{clip-path:url(#SVGID_4_);fill:#FCF6B7;}
	.st152{clip-path:url(#SVGID_4_);fill:#FCF6B6;}
	.st153{clip-path:url(#SVGID_4_);fill:#FCF6B5;}
	.st154{clip-path:url(#SVGID_4_);fill:#FCF6B4;}
	.st155{clip-path:url(#SVGID_4_);fill:#FCF6B3;}
	.st156{clip-path:url(#SVGID_4_);fill:#FBF6B2;}
	.st157{clip-path:url(#SVGID_4_);fill:#FBF6B1;}
	.st158{clip-path:url(#SVGID_4_);fill:#FBF5B0;}
	.st159{clip-path:url(#SVGID_4_);fill:#FBF5AF;}
	.st160{clip-path:url(#SVGID_4_);fill:#FBF5AE;}
	.st161{clip-path:url(#SVGID_4_);fill:#FBF5AD;}
	.st162{clip-path:url(#SVGID_4_);fill:#FBF5AC;}
	.st163{clip-path:url(#SVGID_4_);fill:#FBF5AB;}
	.st164{clip-path:url(#SVGID_4_);fill:#FBF5AA;}
	.st165{clip-path:url(#SVGID_4_);fill:#FBF5A9;}
	.st166{clip-path:url(#SVGID_4_);fill:#FCF5A8;}
	.st167{clip-path:url(#SVGID_4_);fill:#FCF5A7;}
	.st168{clip-path:url(#SVGID_4_);fill:#FCF5A6;}
	.st169{clip-path:url(#SVGID_4_);fill:#FCF5A4;}
	.st170{clip-path:url(#SVGID_4_);fill:#FBF4A4;}
	.st171{clip-path:url(#SVGID_4_);fill:#FBF4A2;}
	.st172{clip-path:url(#SVGID_4_);fill:#FBF4A1;}
	.st173{clip-path:url(#SVGID_4_);fill:#FBF4A0;}
</style>
<g>
	<g>
		<g>
			<path class="st0" d="M405.4,573.28c-5.33,10.16-31.88,16.19-79.63,18.1c-47.76,1.91-81.53-1.33-101.35-9.72
				c-9.66-4.06-15.37-38.16-17.15-102.3c-1.78-64.13-3.94-130.11-6.48-197.93c-16.51,6.86-33.21,13.21-50.1,19.05
				c-16.9,5.84-27.5,8.38-31.81,7.62c-11.43,0.26-27.37-17.91-47.82-54.48c-20.45-36.58-31.56-65.78-33.34-87.63
				c-0.76-9.91,13.91-26.99,44.01-51.24c30.1-24.25,72.58-53.4,127.44-87.44c9.91-6.35,26.61-11.3,50.1-14.86
				c23.49-3.55,47.43-4.95,71.82-4.19c24.38,0.76,46.16,4.19,65.34,10.29c19.18,6.1,29.53,15.62,31.05,28.57
				c3.81,36.58,5.96,83.12,6.48,139.64c0.51,56.52-0.38,112.14-2.67,166.88c-2.29,54.74-5.72,103.13-10.29,145.16
				C416.45,540.84,411.24,565.66,405.4,573.28z"/>
			<path class="st1" d="M300.42,600c-35.87,0-61.89-3.6-79.14-10.91c-9.3-3.9-19.48-15.92-22.08-109.5
				c-1.67-60.17-3.7-122.79-6.05-186.32c-13.1,5.25-26.46,10.24-39.81,14.86c-22.59,7.81-30.62,8.63-35.05,8.05
				c-15.03-0.29-31.81-18.44-54.28-58.62c-21.21-37.94-32.44-67.68-34.33-90.91c-0.68-8.94,4.05-23.58,46.99-58.19
				c30.18-24.34,73.34-53.95,128.26-88.02c10.88-6.97,28.3-12.23,53.14-15.99c23.89-3.61,48.55-4.97,73.29-4.28
				c25.04,0.8,47.76,4.38,67.54,10.67c22.38,7.12,34.7,19.01,36.63,35.33c3.81,36.77,6.01,84.02,6.53,140.51
				c0.5,56.31-0.4,112.59-2.69,167.29c-2.28,54.78-5.76,103.8-10.33,145.69c-6.11,56.27-12.16,71.53-16.83,77.99
				c-5.07,8.87-20.06,19.16-86.12,21.79C317.03,599.81,308.47,600,300.42,600z M200.8,273.35c1.53,0,3.04,0.43,4.35,1.27
				c2.23,1.43,3.62,3.86,3.72,6.5c2.52,67.53,4.7,134.15,6.48,198.01c2.3,82.94,10.86,93.91,12.55,95.26
				c18.3,7.69,51.26,10.69,97.53,8.91c63.74-2.55,71.84-11.94,72.81-13.8c0.21-0.4,0.47-0.8,0.74-1.16
				c2.22-2.89,8.03-15.54,14-70.43c4.52-41.54,7.98-90.2,10.25-144.63c2.27-54.42,3.17-110.42,2.66-166.45
				c-0.52-55.99-2.68-102.72-6.44-138.89c-0.4-3.41-1.67-14.15-25.46-21.71c-18.35-5.83-39.61-9.16-63.15-9.91
				c-23.79-0.81-47.45,0.63-70.36,4.1c-22.24,3.37-38.04,7.98-46.96,13.68c-54.45,33.78-97.06,63-126.72,86.92
				c-40.67,32.78-41.11,43.26-41.04,44.34c1.68,20.55,12.56,48.93,32.34,84.31c26.97,48.27,38.7,50.43,40.58,50.34
				c0.57-0.01,1.06,0.03,1.59,0.13c0.85,0.14,5.97,0.25,27.77-7.3c16.71-5.78,33.41-12.13,49.63-18.88
				C198.69,273.55,199.75,273.35,200.8,273.35z"/>
		</g>
		<g>
			<g>
				<defs>
					<path id="SVGID_1_" d="M394.96,187.11c-0.47-51.83-2.37-95.4-5.64-129.64c-1.15-0.51-2.69-1.11-4.69-1.74
						c-15.66-4.98-34.08-7.83-54.74-8.47c-3.89-0.12-7.77-0.18-11.64-0.18c-17.91,0-35.78,1.33-53.11,3.96
						c-26.27,3.98-34.09,8.61-34.9,9.13l-0.48,0.3c-53.25,33.04-94.82,61.53-123.53,84.67c-16.33,13.16-24.45,21.42-28.32,25.88
						c2.53,11.64,9.38,31.66,27.23,63.58c10.06,18.01,17.05,27.74,21.22,32.78c2.87-0.85,6.66-2.05,11.61-3.76
						c16.03-5.54,32.14-11.67,47.89-18.21l51.85-21.53l2.1,56.11c0.46,12.28,0.9,24.5,1.34,36.69
						c45.05,5.15,88.54,21.27,132.7,32.51c6.08,1.55,12.23,2.99,18.44,4.3c0.02-0.49,0.05-0.97,0.07-1.47
						C394.57,298.21,395.46,242.73,394.96,187.11z"/>
				</defs>
				<clipPath id="SVGID_2_">
					<use xlink:href="#SVGID_1_"  style="overflow:visible;"/>
				</clipPath>
				<path class="st2" d="M77.9,353.47h317.56H77.9z"/>
				<rect x="77.9" y="351.74" class="st2" width="317.56" height="1.74"/>
				<rect x="77.9" y="350" class="st2" width="317.56" height="1.74"/>
				<rect x="77.9" y="348.26" class="st2" width="317.56" height="1.74"/>
				<rect x="77.9" y="346.52" class="st3" width="317.56" height="1.74"/>
				<rect x="77.9" y="344.78" class="st4" width="317.56" height="1.74"/>
				<rect x="77.9" y="343.05" class="st5" width="317.56" height="1.74"/>
				<rect x="77.9" y="341.31" class="st5" width="317.56" height="1.74"/>
				<rect x="77.9" y="339.57" class="st6" width="317.56" height="1.74"/>
				<rect x="77.9" y="337.83" class="st7" width="317.56" height="1.74"/>
				<rect x="77.9" y="336.09" class="st8" width="317.56" height="1.74"/>
				<rect x="77.9" y="334.36" class="st9" width="317.56" height="1.74"/>
				<rect x="77.9" y="332.62" class="st9" width="317.56" height="1.74"/>
				<rect x="77.9" y="330.88" class="st10" width="317.56" height="1.74"/>
				<rect x="77.9" y="329.14" class="st11" width="317.56" height="1.74"/>
				<rect x="77.9" y="327.41" class="st12" width="317.56" height="1.74"/>
				<rect x="77.9" y="325.67" class="st13" width="317.56" height="1.74"/>
				<rect x="77.9" y="323.93" class="st13" width="317.56" height="1.74"/>
				<rect x="77.9" y="322.19" class="st14" width="317.56" height="1.74"/>
				<rect x="77.9" y="320.45" class="st15" width="317.56" height="1.74"/>
				<rect x="77.9" y="318.72" class="st15" width="317.56" height="1.74"/>
				<rect x="77.9" y="316.98" class="st16" width="317.56" height="1.74"/>
				<rect x="77.9" y="315.24" class="st17" width="317.56" height="1.74"/>
				<rect x="77.9" y="313.5" class="st18" width="317.56" height="1.74"/>
				<rect x="77.9" y="311.76" class="st19" width="317.56" height="1.74"/>
				<rect x="77.9" y="310.03" class="st20" width="317.56" height="1.74"/>
				<rect x="77.9" y="308.29" class="st21" width="317.56" height="1.74"/>
				<rect x="77.9" y="306.55" class="st21" width="317.56" height="1.74"/>
				<rect x="77.9" y="304.81" class="st22" width="317.56" height="1.74"/>
				<rect x="77.9" y="303.07" class="st23" width="317.56" height="1.74"/>
				<rect x="77.9" y="301.34" class="st23" width="317.56" height="1.74"/>
				<rect x="77.9" y="299.6" class="st24" width="317.56" height="1.74"/>
				<rect x="77.9" y="297.86" class="st25" width="317.56" height="1.74"/>
				<rect x="77.9" y="296.12" class="st26" width="317.56" height="1.74"/>
				<rect x="77.9" y="294.38" class="st27" width="317.56" height="1.74"/>
				<rect x="77.9" y="292.65" class="st28" width="317.56" height="1.74"/>
				<rect x="77.9" y="290.91" class="st29" width="317.56" height="1.74"/>
				<rect x="77.9" y="289.17" class="st30" width="317.56" height="1.74"/>
				<rect x="77.9" y="287.43" class="st31" width="317.56" height="1.74"/>
				<rect x="77.9" y="285.69" class="st31" width="317.56" height="1.74"/>
				<rect x="77.9" y="283.96" class="st32" width="317.56" height="1.74"/>
				<rect x="77.9" y="282.22" class="st33" width="317.56" height="1.74"/>
				<rect x="77.9" y="280.48" class="st34" width="317.56" height="1.74"/>
				<rect x="77.9" y="278.74" class="st35" width="317.56" height="1.74"/>
				<rect x="77.9" y="277" class="st36" width="317.56" height="1.74"/>
				<rect x="77.9" y="275.27" class="st36" width="317.56" height="1.74"/>
				<rect x="77.9" y="273.53" class="st37" width="317.56" height="1.74"/>
				<rect x="77.9" y="271.79" class="st38" width="317.56" height="1.74"/>
				<rect x="77.9" y="270.05" class="st39" width="317.56" height="1.74"/>
				<rect x="77.9" y="268.31" class="st40" width="317.56" height="1.74"/>
				<rect x="77.9" y="266.58" class="st41" width="317.56" height="1.74"/>
				<rect x="77.9" y="264.84" class="st42" width="317.56" height="1.74"/>
				<rect x="77.9" y="263.1" class="st43" width="317.56" height="1.74"/>
				<rect x="77.9" y="261.36" class="st44" width="317.56" height="1.74"/>
				<rect x="77.9" y="259.62" class="st45" width="317.56" height="1.74"/>
				<rect x="77.9" y="257.89" class="st46" width="317.56" height="1.74"/>
				<rect x="77.9" y="256.15" class="st47" width="317.56" height="1.74"/>
				<rect x="77.9" y="254.41" class="st48" width="317.56" height="1.74"/>
				<rect x="77.9" y="252.67" class="st49" width="317.56" height="1.74"/>
				<rect x="77.9" y="250.94" class="st50" width="317.56" height="1.74"/>
				<rect x="77.9" y="249.2" class="st50" width="317.56" height="1.74"/>
				<rect x="77.9" y="247.46" class="st51" width="317.56" height="1.74"/>
				<rect x="77.9" y="245.72" class="st52" width="317.56" height="1.74"/>
				<rect x="77.9" y="243.98" class="st53" width="317.56" height="1.74"/>
				<rect x="77.9" y="242.25" class="st54" width="317.56" height="1.74"/>
				<rect x="77.9" y="240.51" class="st55" width="317.56" height="1.74"/>
				<rect x="77.9" y="238.77" class="st56" width="317.56" height="1.74"/>
				<rect x="77.9" y="237.03" class="st56" width="317.56" height="1.74"/>
				<rect x="77.9" y="235.29" class="st57" width="317.56" height="1.74"/>
				<rect x="77.9" y="233.56" class="st58" width="317.56" height="1.74"/>
				<rect x="77.9" y="231.82" class="st59" width="317.56" height="1.74"/>
				<rect x="77.9" y="230.08" class="st60" width="317.56" height="1.74"/>
				<rect x="77.9" y="228.34" class="st61" width="317.56" height="1.74"/>
				<rect x="77.9" y="226.6" class="st62" width="317.56" height="1.74"/>
				<rect x="77.9" y="224.87" class="st63" width="317.56" height="1.74"/>
				<rect x="77.9" y="223.13" class="st64" width="317.56" height="1.74"/>
				<rect x="77.9" y="221.39" class="st65" width="317.56" height="1.74"/>
				<rect x="77.9" y="219.65" class="st66" width="317.56" height="1.74"/>
				<rect x="77.9" y="217.91" class="st67" width="317.56" height="1.74"/>
				<rect x="77.9" y="216.18" class="st68" width="317.56" height="1.74"/>
				<rect x="77.9" y="214.44" class="st68" width="317.56" height="1.74"/>
				<rect x="77.9" y="212.7" class="st69" width="317.56" height="1.74"/>
				<rect x="77.9" y="210.96" class="st70" width="317.56" height="1.74"/>
				<rect x="77.9" y="209.22" class="st71" width="317.56" height="1.74"/>
				<rect x="77.9" y="207.49" class="st72" width="317.56" height="1.74"/>
				<rect x="77.9" y="205.75" class="st73" width="317.56" height="1.74"/>
				<rect x="77.9" y="204.01" class="st74" width="317.56" height="1.74"/>
				<rect x="77.9" y="202.27" class="st75" width="317.56" height="1.74"/>
				<rect x="77.9" y="200.53" class="st76" width="317.56" height="1.74"/>
				<rect x="77.9" y="198.8" class="st77" width="317.56" height="1.74"/>
				<rect x="77.9" y="197.06" class="st78" width="317.56" height="1.74"/>
				<rect x="77.9" y="195.32" class="st78" width="317.56" height="1.74"/>
				<rect x="77.9" y="193.58" class="st79" width="317.56" height="1.74"/>
				<rect x="77.9" y="191.84" class="st80" width="317.56" height="1.74"/>
				<rect x="77.9" y="190.11" class="st81" width="317.56" height="1.74"/>
				<rect x="77.9" y="188.37" class="st82" width="317.56" height="1.74"/>
				<rect x="77.9" y="186.63" class="st83" width="317.56" height="1.74"/>
				<rect x="77.9" y="184.89" class="st84" width="317.56" height="1.74"/>
				<rect x="77.9" y="183.15" class="st85" width="317.56" height="1.74"/>
				<rect x="77.9" y="181.77" class="st85" width="317.56" height="1.39"/>
				<rect x="77.9" y="180.38" class="st84" width="317.56" height="1.39"/>
				<rect x="77.9" y="178.99" class="st83" width="317.56" height="1.39"/>
				<rect x="77.9" y="177.6" class="st82" width="317.56" height="1.39"/>
				<rect x="77.9" y="176.21" class="st81" width="317.56" height="1.39"/>
				<rect x="77.9" y="174.82" class="st80" width="317.56" height="1.39"/>
				<rect x="77.9" y="173.43" class="st79" width="317.56" height="1.39"/>
				<rect x="77.9" y="172.05" class="st78" width="317.56" height="1.39"/>
				<rect x="77.9" y="170.66" class="st78" width="317.56" height="1.39"/>
				<rect x="77.9" y="169.27" class="st77" width="317.56" height="1.39"/>
				<rect x="77.9" y="167.88" class="st76" width="317.56" height="1.39"/>
				<rect x="77.9" y="166.49" class="st75" width="317.56" height="1.39"/>
				<rect x="77.9" y="165.1" class="st74" width="317.56" height="1.39"/>
				<rect x="77.9" y="163.71" class="st73" width="317.56" height="1.39"/>
				<rect x="77.9" y="162.33" class="st72" width="317.56" height="1.39"/>
				<rect x="77.9" y="160.94" class="st71" width="317.56" height="1.39"/>
				<rect x="77.9" y="159.55" class="st70" width="317.56" height="1.39"/>
				<rect x="77.9" y="158.16" class="st69" width="317.56" height="1.39"/>
				<rect x="77.9" y="156.77" class="st68" width="317.56" height="1.39"/>
				<rect x="77.9" y="155.38" class="st68" width="317.56" height="1.39"/>
				<rect x="77.9" y="153.99" class="st67" width="317.56" height="1.39"/>
				<rect x="77.9" y="152.61" class="st66" width="317.56" height="1.39"/>
				<rect x="77.9" y="151.22" class="st65" width="317.56" height="1.39"/>
				<rect x="77.9" y="149.83" class="st64" width="317.56" height="1.39"/>
				<rect x="77.9" y="148.44" class="st63" width="317.56" height="1.39"/>
				<rect x="77.9" y="147.05" class="st62" width="317.56" height="1.39"/>
				<rect x="77.9" y="145.66" class="st61" width="317.56" height="1.39"/>
				<rect x="77.9" y="144.27" class="st60" width="317.56" height="1.39"/>
				<rect x="77.9" y="142.88" class="st59" width="317.56" height="1.39"/>
				<rect x="77.9" y="141.5" class="st58" width="317.56" height="1.39"/>
				<rect x="77.9" y="140.11" class="st57" width="317.56" height="1.39"/>
				<rect x="77.9" y="138.72" class="st56" width="317.56" height="1.39"/>
				<rect x="77.9" y="137.33" class="st56" width="317.56" height="1.39"/>
				<rect x="77.9" y="135.94" class="st55" width="317.56" height="1.39"/>
				<rect x="77.9" y="134.55" class="st54" width="317.56" height="1.39"/>
				<rect x="77.9" y="133.16" class="st53" width="317.56" height="1.39"/>
				<rect x="77.9" y="131.78" class="st52" width="317.56" height="1.39"/>
				<rect x="77.9" y="130.39" class="st51" width="317.56" height="1.39"/>
				<rect x="77.9" y="129" class="st50" width="317.56" height="1.39"/>
				<rect x="77.9" y="127.61" class="st50" width="317.56" height="1.39"/>
				<rect x="77.9" y="126.22" class="st49" width="317.56" height="1.39"/>
				<rect x="77.9" y="124.83" class="st48" width="317.56" height="1.39"/>
				<rect x="77.9" y="123.44" class="st47" width="317.56" height="1.39"/>
				<rect x="77.9" y="122.06" class="st46" width="317.56" height="1.39"/>
				<rect x="77.9" y="120.67" class="st45" width="317.56" height="1.39"/>
				<rect x="77.9" y="119.28" class="st44" width="317.56" height="1.39"/>
				<rect x="77.9" y="117.89" class="st43" width="317.56" height="1.39"/>
				<rect x="77.9" y="116.5" class="st42" width="317.56" height="1.39"/>
				<rect x="77.9" y="115.11" class="st41" width="317.56" height="1.39"/>
				<rect x="77.9" y="113.72" class="st40" width="317.56" height="1.39"/>
				<rect x="77.9" y="112.34" class="st39" width="317.56" height="1.39"/>
				<rect x="77.9" y="110.95" class="st38" width="317.56" height="1.39"/>
				<rect x="77.9" y="109.56" class="st37" width="317.56" height="1.39"/>
				<rect x="77.9" y="108.17" class="st36" width="317.56" height="1.39"/>
				<rect x="77.9" y="106.78" class="st36" width="317.56" height="1.39"/>
				<rect x="77.9" y="105.39" class="st35" width="317.56" height="1.39"/>
				<rect x="77.9" y="104" class="st34" width="317.56" height="1.39"/>
				<rect x="77.9" y="102.61" class="st33" width="317.56" height="1.39"/>
				<rect x="77.9" y="101.23" class="st32" width="317.56" height="1.39"/>
				<rect x="77.9" y="99.84" class="st31" width="317.56" height="1.39"/>
				<rect x="77.9" y="98.45" class="st31" width="317.56" height="1.39"/>
				<rect x="77.9" y="97.06" class="st30" width="317.56" height="1.39"/>
				<rect x="77.9" y="95.67" class="st29" width="317.56" height="1.39"/>
				<rect x="77.9" y="94.28" class="st28" width="317.56" height="1.39"/>
				<rect x="77.9" y="92.89" class="st27" width="317.56" height="1.39"/>
				<rect x="77.9" y="91.51" class="st26" width="317.56" height="1.39"/>
				<rect x="77.9" y="90.12" class="st25" width="317.56" height="1.39"/>
				<rect x="77.9" y="88.73" class="st24" width="317.56" height="1.39"/>
				<rect x="77.9" y="87.34" class="st23" width="317.56" height="1.39"/>
				<rect x="77.9" y="85.95" class="st23" width="317.56" height="1.39"/>
				<rect x="77.9" y="84.56" class="st22" width="317.56" height="1.39"/>
				<rect x="77.9" y="83.17" class="st21" width="317.56" height="1.39"/>
				<rect x="77.9" y="81.79" class="st21" width="317.56" height="1.39"/>
				<rect x="77.9" y="80.4" class="st20" width="317.56" height="1.39"/>
				<rect x="77.9" y="79.01" class="st19" width="317.56" height="1.39"/>
				<rect x="77.9" y="77.62" class="st18" width="317.56" height="1.39"/>
				<rect x="77.9" y="76.23" class="st17" width="317.56" height="1.39"/>
				<rect x="77.9" y="74.84" class="st16" width="317.56" height="1.39"/>
				<rect x="77.9" y="73.45" class="st15" width="317.56" height="1.39"/>
				<rect x="77.9" y="72.07" class="st15" width="317.56" height="1.39"/>
				<rect x="77.9" y="70.68" class="st14" width="317.56" height="1.39"/>
				<rect x="77.9" y="69.29" class="st13" width="317.56" height="1.39"/>
				<rect x="77.9" y="67.9" class="st13" width="317.56" height="1.39"/>
				<rect x="77.9" y="66.51" class="st12" width="317.56" height="1.39"/>
				<rect x="77.9" y="65.12" class="st11" width="317.56" height="1.39"/>
				<rect x="77.9" y="63.73" class="st10" width="317.56" height="1.39"/>
				<rect x="77.9" y="62.34" class="st9" width="317.56" height="1.39"/>
				<rect x="77.9" y="60.96" class="st9" width="317.56" height="1.39"/>
				<rect x="77.9" y="59.57" class="st8" width="317.56" height="1.39"/>
				<rect x="77.9" y="58.18" class="st7" width="317.56" height="1.39"/>
				<rect x="77.9" y="56.79" class="st6" width="317.56" height="1.39"/>
				<rect x="77.9" y="55.4" class="st5" width="317.56" height="1.39"/>
				<rect x="77.9" y="54.01" class="st5" width="317.56" height="1.39"/>
				<rect x="77.9" y="52.62" class="st4" width="317.56" height="1.39"/>
				<rect x="77.9" y="51.24" class="st3" width="317.56" height="1.39"/>
				<rect x="77.9" y="49.85" class="st2" width="317.56" height="1.39"/>
				<rect x="77.9" y="48.46" class="st2" width="317.56" height="1.39"/>
				<rect x="77.9" y="47.07" class="st2" width="317.56" height="1.39"/>
				<path class="st2" d="M395.46,47.07H77.9H395.46z"/>
			</g>
		</g>
		<g class="st86">
			<path class="st87" d="M241.13,316.67c1.97,55.26,3.7,109.48,5.15,161.62c1.1,39.9,3.63,60.62,5.54,70.93
				c9.72,1.95,25.04,3.68,48.86,3.68c7.33,0,15.25-0.17,23.54-0.5c28.33-1.13,42.88-3.57,49.88-5.27c1.84-7.2,4.86-22.37,8.14-52.54
				c4.42-40.61,7.79-88.09,10.03-141.1c-6.2-1.31-12.36-2.75-18.44-4.3C329.66,337.93,286.17,321.82,241.13,316.67z"/>
		</g>
		<g class="st88">
			<path class="st87" d="M341.86,528.51L341.86,528.51c-8.46-1.45-14.2-9.55-12.75-18.01l0,0c1.45-8.46,9.55-14.2,18.01-12.75l0,0
				c8.46,1.45,14.2,9.55,12.75,18.01l0,0C358.42,524.22,350.32,529.96,341.86,528.51z"/>
		</g>
		<g class="st88">
			<path class="st87" d="M356.78,487.52L356.78,487.52c-4.23-0.72-7.1-4.78-6.38-9.01l0,0c0.72-4.23,4.78-7.1,9.01-6.38l0,0
				c4.23,0.72,7.1,4.78,6.38,9.01l0,0C365.06,485.38,361.01,488.25,356.78,487.52z"/>
		</g>
	</g>
	<g>
		<g>
			<path class="st0" d="M489.57,449.27c-12.41-35.97-17.54-76.12-15.39-120.45c2.15-44.33,13.99-87.45,35.53-129.38
				c21.53-41.92,53.76-80.04,96.7-114.37c42.94-34.32,98.98-59.72,168.13-76.18c15.96-3.29,29.89,2.85,41.8,18.43
				c11.9,15.58,21.21,33.57,27.93,53.95c6.71,20.39,10.7,39.71,11.97,57.94c1.27,18.24-0.76,28.25-6.08,30.02
				c-10.89,3.8-22.17,7.54-33.82,11.21c-11.65,3.67-23.56,9.44-35.72,17.29c35.72,11.15,67.44,34.45,95.18,69.91
				c27.74,35.47,42.37,73.71,43.89,114.75c2.03,56.74-15.64,103.79-53,141.16c-37.37,37.37-81.5,59.46-132.42,66.3
				c-30.15,3.8-60.16,2.41-90.05-4.18c-29.89-6.58-56.99-18.87-81.31-36.86C527.18,522.48,502.74,489.29,489.57,449.27z
				 M684.49,348.96c-15.96,6.33-21.03,19.25-15.2,38.76c5.83,19.51,17.48,28.37,34.96,26.6c16.97-1.52,24.82-12.54,23.56-33.06
				c-1.01-10.64-5.7-19.82-14.06-27.55C705.39,345.98,695.63,344.4,684.49,348.96z"/>
			<path class="st1" d="M701.3,600c-19.71,0-39.38-2.15-58.83-6.44c-30.87-6.8-59.26-19.68-84.37-38.24
				c-36.91-27.23-62.54-62.05-76.18-103.47c-12.68-36.76-18-78.28-15.8-123.41c2.2-45.28,14.44-89.92,36.4-132.68
				c21.95-42.75,55.21-82.11,98.85-116.99c43.66-34.91,101.3-61.07,171.3-77.74c13.45-2.76,32.79-1.25,50.09,21.39
				c12.4,16.23,22.22,35.19,29.18,56.34c6.88,20.94,11.04,41.09,12.35,59.91c1.09,15.64,0.76,34.11-11.57,38.24
				c-10.87,3.79-22.22,7.55-33.95,11.24c-6.28,1.98-12.71,4.66-19.24,7.98c30.57,13.13,58.31,35.44,82.63,66.55
				c28.68,36.66,44.02,76.85,45.6,119.43c2.1,58.82-16.53,108.33-55.37,147.17c-38.46,38.47-84.58,61.55-137.05,68.59
				C724.01,599.28,712.65,600,701.3,600z M782.75,16.09c-2.14,0-4.33,0.24-6.59,0.71c-67.42,16.07-122.92,41.17-164.71,74.59
				c-41.84,33.46-73.66,71.05-94.56,111.74c-20.91,40.71-32.56,83.13-34.65,126.09c-2.09,43.1,2.94,82.6,14.96,117.41
				c0.01,0.04,0.03,0.08,0.04,0.11c12.57,38.21,36.27,70.37,70.45,95.59c23.28,17.23,49.62,29.15,78.25,35.46
				c28.84,6.37,58.21,7.72,87.31,4.05c48.82-6.56,91.81-28.09,127.71-64.01c35.54-35.53,52.58-81,50.65-135.14
				c-1.45-39.11-15.64-76.14-42.18-110.07c-26.57-33.97-57.26-56.56-91.22-67.17c-2.99-0.93-5.17-3.52-5.6-6.63
				c-0.42-3.1,0.98-6.17,3.62-7.88c12.73-8.22,25.4-14.34,37.67-18.2c11.54-3.65,22.71-7.35,33.49-11.11
				c-0.42-0.01,2-4.2,0.77-21.87c-1.22-17.48-5.11-36.31-11.58-55.97c-6.4-19.42-15.37-36.78-26.67-51.57
				C801.6,21.34,792.84,16.09,782.75,16.09z M699.96,422.62c-14.05,0-30.57-6.34-38.41-32.6c-9.44-31.58,8.41-43.97,19.93-48.56
				c14.01-5.73,27.09-3.55,37.75,6.32c9.82,9.07,15.41,20.08,16.61,32.7c2.1,33.87-18.44,40.76-30.87,41.87
				C703.35,422.52,701.67,422.62,699.96,422.62z M696.3,354.48c-2.7,0-5.59,0.66-8.76,1.94c-0.03,0.01-0.05,0.03-0.08,0.04
				c-8.44,3.34-16.28,9.4-10.44,28.94c6.06,20.26,17.3,21.81,26.41,20.87c8.81-0.8,17.55-4.32,16.31-24.53
				c-0.8-8.39-4.57-15.71-11.48-22.1C704.52,356.19,700.66,354.48,696.3,354.48z"/>
		</g>
		<g>
			<path class="st89" d="M698.36,307.61c12.99,5.58,26.05,10.85,39.26,15.38C726.18,313.35,712.72,308.07,698.36,307.61z"/>
		</g>
		<g>
			<path class="st89" d="M669.94,312.87c-34.54,13.81-49.42,47.53-37.93,85.98c10.2,34.17,35.62,54.59,67.98,54.59
				c2.61,0,5.28-0.13,7.96-0.4c38.22-3.53,61.25-32.63,58.69-74.18l-0.1-1.3c-1.92-20.12-11.04-38.24-26.38-52.42
				c-0.83-0.76-1.69-1.44-2.54-2.15c-13.2-4.53-26.26-9.8-39.26-15.38c-0.68-0.02-1.35-0.1-2.04-0.1
				C687.57,307.51,678.7,309.32,669.94,312.87z"/>
		</g>
		<g class="st86">
			<path class="st87" d="M738.32,323.23c-0.24-0.08-0.47-0.17-0.7-0.25c0.85,0.72,1.72,1.39,2.54,2.15
				c15.34,14.18,24.46,32.31,26.38,52.42l0.1,1.3c2.56,41.56-20.47,70.65-58.69,74.18c-2.68,0.26-5.35,0.4-7.96,0.4
				c-32.37,0-57.78-20.41-67.98-54.59c-11.49-38.45,3.39-72.17,37.93-85.98c8.75-3.56,17.63-5.36,26.38-5.36
				c0.69,0,1.36,0.07,2.04,0.1c-55.74-23.94-110.22-53.54-169.41-54.93c-9.24,25.62-14.64,51.74-15.91,78.03
				c-1.9,39.16,2.58,74.78,13.31,105.87l0.18,0.54c10.68,32.46,30.13,58.76,59.51,80.43c20.05,14.84,41.82,24.7,66.54,30.14
				c16.12,3.55,32.49,5.35,48.65,5.35c9.32,0,18.8-0.6,27.85-1.74c42.62-5.73,78.63-23.8,110.08-55.25
				c29.65-29.65,43.27-66.37,41.64-112.2c-0.53-14.23-3.01-27.94-7.49-41.27C827.61,344.29,781.64,338,738.32,323.23z"/>
		</g>
		<g>
			<g>
				<defs>
					<path id="SVGID_3_" d="M769.03,234.87l-79.32-24.76l69.81-45.07c15.03-9.7,30.21-17.01,45.13-21.71
						c4.22-1.33,8.41-2.67,12.57-4.03c-1.24-14.22-4.57-29.63-9.91-45.85c-5.32-16.16-12.69-30.46-21.88-42.49
						c-1.6-2.09-2.8-3.23-3.5-3.82c-62.46,15.06-113.34,38.05-151.22,68.33c-38.42,30.72-67.49,64.95-86.38,101.75
						c-6,11.68-11.06,23.52-15.36,35.46c59.18,1.4,113.67,31,169.41,54.93c14.36,0.46,27.82,5.74,39.26,15.38
						c0.24,0.08,0.47,0.17,0.7,0.25c43.32,14.77,89.29,21.05,134.99,19.33c-5.89-17.53-15.23-34.41-28.16-50.94
						C822.19,262.25,797.28,243.69,769.03,234.87z"/>
				</defs>
				<clipPath id="SVGID_4_">
					<use xlink:href="#SVGID_3_"  style="overflow:visible;"/>
				</clipPath>
				<rect x="528.95" y="342.84" class="st90" width="344.36" height="1.45"/>
				<rect x="528.95" y="341.16" class="st90" width="344.36" height="1.68"/>
				<rect x="528.95" y="339.48" class="st90" width="344.36" height="1.68"/>
				<rect x="528.95" y="337.81" class="st90" width="344.36" height="1.68"/>
				<rect x="528.95" y="336.13" class="st91" width="344.36" height="1.68"/>
				<rect x="528.95" y="334.45" class="st92" width="344.36" height="1.68"/>
				<rect x="528.95" y="332.78" class="st93" width="344.36" height="1.68"/>
				<rect x="528.95" y="331.1" class="st93" width="344.36" height="1.68"/>
				<rect x="528.95" y="329.42" class="st94" width="344.36" height="1.68"/>
				<rect x="528.95" y="327.74" class="st95" width="344.36" height="1.68"/>
				<rect x="528.95" y="326.07" class="st96" width="344.36" height="1.68"/>
				<rect x="528.95" y="324.39" class="st97" width="344.36" height="1.68"/>
				<rect x="528.95" y="322.71" class="st97" width="344.36" height="1.68"/>
				<rect x="528.95" y="321.03" class="st98" width="344.36" height="1.68"/>
				<rect x="528.95" y="319.36" class="st99" width="344.36" height="1.68"/>
				<rect x="528.95" y="317.68" class="st100" width="344.36" height="1.68"/>
				<rect x="528.95" y="316" class="st101" width="344.36" height="1.68"/>
				<rect x="528.95" y="314.33" class="st101" width="344.36" height="1.68"/>
				<rect x="528.95" y="312.65" class="st102" width="344.36" height="1.68"/>
				<rect x="528.95" y="310.97" class="st103" width="344.36" height="1.68"/>
				<rect x="528.95" y="309.29" class="st103" width="344.36" height="1.68"/>
				<rect x="528.95" y="307.62" class="st104" width="344.36" height="1.68"/>
				<rect x="528.95" y="305.94" class="st105" width="344.36" height="1.68"/>
				<rect x="528.95" y="304.26" class="st106" width="344.36" height="1.68"/>
				<rect x="528.95" y="302.58" class="st107" width="344.36" height="1.68"/>
				<rect x="528.95" y="300.91" class="st108" width="344.36" height="1.68"/>
				<rect x="528.95" y="299.23" class="st109" width="344.36" height="1.68"/>
				<rect x="528.95" y="297.55" class="st109" width="344.36" height="1.68"/>
				<rect x="528.95" y="295.87" class="st110" width="344.36" height="1.68"/>
				<rect x="528.95" y="294.2" class="st111" width="344.36" height="1.68"/>
				<rect x="528.95" y="292.52" class="st111" width="344.36" height="1.68"/>
				<rect x="528.95" y="290.84" class="st112" width="344.36" height="1.68"/>
				<rect x="528.95" y="289.17" class="st113" width="344.36" height="1.68"/>
				<rect x="528.95" y="287.49" class="st114" width="344.36" height="1.68"/>
				<rect x="528.95" y="285.81" class="st115" width="344.36" height="1.68"/>
				<rect x="528.95" y="284.13" class="st116" width="344.36" height="1.68"/>
				<rect x="528.95" y="282.46" class="st117" width="344.36" height="1.68"/>
				<rect x="528.95" y="280.78" class="st118" width="344.36" height="1.68"/>
				<rect x="528.95" y="279.1" class="st119" width="344.36" height="1.68"/>
				<rect x="528.95" y="277.42" class="st119" width="344.36" height="1.68"/>
				<rect x="528.95" y="275.75" class="st120" width="344.36" height="1.68"/>
				<rect x="528.95" y="274.07" class="st121" width="344.36" height="1.68"/>
				<rect x="528.95" y="272.39" class="st122" width="344.36" height="1.68"/>
				<rect x="528.95" y="270.72" class="st123" width="344.36" height="1.68"/>
				<rect x="528.95" y="269.04" class="st124" width="344.36" height="1.68"/>
				<rect x="528.95" y="267.36" class="st124" width="344.36" height="1.68"/>
				<rect x="528.95" y="265.68" class="st125" width="344.36" height="1.68"/>
				<rect x="528.95" y="264.01" class="st126" width="344.36" height="1.68"/>
				<rect x="528.95" y="262.33" class="st127" width="344.36" height="1.68"/>
				<rect x="528.95" y="260.65" class="st128" width="344.36" height="1.68"/>
				<rect x="528.95" y="258.97" class="st129" width="344.36" height="1.68"/>
				<rect x="528.95" y="257.3" class="st130" width="344.36" height="1.68"/>
				<rect x="528.95" y="255.62" class="st131" width="344.36" height="1.68"/>
				<rect x="528.95" y="253.94" class="st132" width="344.36" height="1.68"/>
				<rect x="528.95" y="252.27" class="st133" width="344.36" height="1.68"/>
				<rect x="528.95" y="250.59" class="st134" width="344.36" height="1.68"/>
				<rect x="528.95" y="248.91" class="st135" width="344.36" height="1.68"/>
				<rect x="528.95" y="247.23" class="st136" width="344.36" height="1.68"/>
				<rect x="528.95" y="245.56" class="st137" width="344.36" height="1.68"/>
				<rect x="528.95" y="243.88" class="st138" width="344.36" height="1.68"/>
				<rect x="528.95" y="242.2" class="st138" width="344.36" height="1.68"/>
				<rect x="528.95" y="240.52" class="st139" width="344.36" height="1.68"/>
				<rect x="528.95" y="238.85" class="st140" width="344.36" height="1.68"/>
				<rect x="528.95" y="237.17" class="st141" width="344.36" height="1.68"/>
				<rect x="528.95" y="235.49" class="st142" width="344.36" height="1.68"/>
				<rect x="528.95" y="233.82" class="st143" width="344.36" height="1.68"/>
				<rect x="528.95" y="232.14" class="st144" width="344.36" height="1.68"/>
				<rect x="528.95" y="230.46" class="st144" width="344.36" height="1.68"/>
				<rect x="528.95" y="228.78" class="st145" width="344.36" height="1.68"/>
				<rect x="528.95" y="227.11" class="st146" width="344.36" height="1.68"/>
				<rect x="528.95" y="225.43" class="st147" width="344.36" height="1.68"/>
				<rect x="528.95" y="223.75" class="st148" width="344.36" height="1.68"/>
				<rect x="528.95" y="222.07" class="st149" width="344.36" height="1.68"/>
				<rect x="528.95" y="220.4" class="st150" width="344.36" height="1.68"/>
				<rect x="528.95" y="218.72" class="st151" width="344.36" height="1.68"/>
				<rect x="528.95" y="217.04" class="st152" width="344.36" height="1.68"/>
				<rect x="528.95" y="215.37" class="st153" width="344.36" height="1.68"/>
				<rect x="528.95" y="213.69" class="st154" width="344.36" height="1.68"/>
				<rect x="528.95" y="212.01" class="st155" width="344.36" height="1.68"/>
				<rect x="528.95" y="210.33" class="st156" width="344.36" height="1.68"/>
				<rect x="528.95" y="208.66" class="st156" width="344.36" height="1.68"/>
				<rect x="528.95" y="206.98" class="st157" width="344.36" height="1.68"/>
				<rect x="528.95" y="205.3" class="st158" width="344.36" height="1.68"/>
				<rect x="528.95" y="203.62" class="st159" width="344.36" height="1.68"/>
				<rect x="528.95" y="201.95" class="st160" width="344.36" height="1.68"/>
				<rect x="528.95" y="200.27" class="st161" width="344.36" height="1.68"/>
				<rect x="528.95" y="198.59" class="st162" width="344.36" height="1.68"/>
				<rect x="528.95" y="196.92" class="st163" width="344.36" height="1.68"/>
				<rect x="528.95" y="195.24" class="st164" width="344.36" height="1.68"/>
				<rect x="528.95" y="193.56" class="st165" width="344.36" height="1.68"/>
				<rect x="528.95" y="191.88" class="st166" width="344.36" height="1.68"/>
				<rect x="528.95" y="190.21" class="st166" width="344.36" height="1.68"/>
				<rect x="528.95" y="188.53" class="st167" width="344.36" height="1.68"/>
				<rect x="528.95" y="186.85" class="st168" width="344.36" height="1.68"/>
				<rect x="528.95" y="185.17" class="st169" width="344.36" height="1.68"/>
				<rect x="528.95" y="183.5" class="st170" width="344.36" height="1.68"/>
				<rect x="528.95" y="181.82" class="st171" width="344.36" height="1.68"/>
				<rect x="528.95" y="180.14" class="st172" width="344.36" height="1.68"/>
				<rect x="528.95" y="178.47" class="st173" width="344.36" height="1.68"/>
				<rect x="528.95" y="177.12" class="st173" width="344.36" height="1.34"/>
				<rect x="528.95" y="175.78" class="st172" width="344.36" height="1.34"/>
				<rect x="528.95" y="174.44" class="st171" width="344.36" height="1.34"/>
				<rect x="528.95" y="173.1" class="st170" width="344.36" height="1.34"/>
				<rect x="528.95" y="171.76" class="st169" width="344.36" height="1.34"/>
				<rect x="528.95" y="170.42" class="st168" width="344.36" height="1.34"/>
				<rect x="528.95" y="169.08" class="st167" width="344.36" height="1.34"/>
				<rect x="528.95" y="167.74" class="st166" width="344.36" height="1.34"/>
				<rect x="528.95" y="166.4" class="st166" width="344.36" height="1.34"/>
				<rect x="528.95" y="165.06" class="st165" width="344.36" height="1.34"/>
				<rect x="528.95" y="163.72" class="st164" width="344.36" height="1.34"/>
				<rect x="528.95" y="162.38" class="st163" width="344.36" height="1.34"/>
				<rect x="528.95" y="161.04" class="st162" width="344.36" height="1.34"/>
				<rect x="528.95" y="159.7" class="st161" width="344.36" height="1.34"/>
				<rect x="528.95" y="158.36" class="st160" width="344.36" height="1.34"/>
				<rect x="528.95" y="157.02" class="st159" width="344.36" height="1.34"/>
				<rect x="528.95" y="155.68" class="st158" width="344.36" height="1.34"/>
				<rect x="528.95" y="154.34" class="st157" width="344.36" height="1.34"/>
				<rect x="528.95" y="153" class="st156" width="344.36" height="1.34"/>
				<rect x="528.95" y="151.66" class="st156" width="344.36" height="1.34"/>
				<rect x="528.95" y="150.32" class="st155" width="344.36" height="1.34"/>
				<rect x="528.95" y="148.98" class="st154" width="344.36" height="1.34"/>
				<rect x="528.95" y="147.64" class="st153" width="344.36" height="1.34"/>
				<rect x="528.95" y="146.3" class="st152" width="344.36" height="1.34"/>
				<rect x="528.95" y="144.96" class="st151" width="344.36" height="1.34"/>
				<rect x="528.95" y="143.62" class="st150" width="344.36" height="1.34"/>
				<rect x="528.95" y="142.28" class="st149" width="344.36" height="1.34"/>
				<rect x="528.95" y="140.94" class="st148" width="344.36" height="1.34"/>
				<rect x="528.95" y="139.6" class="st147" width="344.36" height="1.34"/>
				<rect x="528.95" y="138.26" class="st146" width="344.36" height="1.34"/>
				<rect x="528.95" y="136.92" class="st145" width="344.36" height="1.34"/>
				<rect x="528.95" y="135.58" class="st144" width="344.36" height="1.34"/>
				<rect x="528.95" y="134.24" class="st144" width="344.36" height="1.34"/>
				<rect x="528.95" y="132.9" class="st143" width="344.36" height="1.34"/>
				<rect x="528.95" y="131.56" class="st142" width="344.36" height="1.34"/>
				<rect x="528.95" y="130.22" class="st141" width="344.36" height="1.34"/>
				<rect x="528.95" y="128.88" class="st140" width="344.36" height="1.34"/>
				<rect x="528.95" y="127.54" class="st139" width="344.36" height="1.34"/>
				<rect x="528.95" y="126.2" class="st138" width="344.36" height="1.34"/>
				<rect x="528.95" y="124.86" class="st138" width="344.36" height="1.34"/>
				<rect x="528.95" y="123.52" class="st137" width="344.36" height="1.34"/>
				<rect x="528.95" y="122.18" class="st136" width="344.36" height="1.34"/>
				<rect x="528.95" y="120.84" class="st135" width="344.36" height="1.34"/>
				<rect x="528.95" y="119.5" class="st134" width="344.36" height="1.34"/>
				<rect x="528.95" y="118.16" class="st133" width="344.36" height="1.34"/>
				<rect x="528.95" y="116.82" class="st132" width="344.36" height="1.34"/>
				<rect x="528.95" y="115.48" class="st131" width="344.36" height="1.34"/>
				<rect x="528.95" y="114.14" class="st130" width="344.36" height="1.34"/>
				<rect x="528.95" y="112.8" class="st129" width="344.36" height="1.34"/>
				<rect x="528.95" y="111.46" class="st128" width="344.36" height="1.34"/>
				<rect x="528.95" y="110.12" class="st127" width="344.36" height="1.34"/>
				<rect x="528.95" y="108.78" class="st126" width="344.36" height="1.34"/>
				<rect x="528.95" y="107.44" class="st125" width="344.36" height="1.34"/>
				<rect x="528.95" y="106.1" class="st124" width="344.36" height="1.34"/>
				<rect x="528.95" y="104.76" class="st124" width="344.36" height="1.34"/>
				<rect x="528.95" y="103.42" class="st123" width="344.36" height="1.34"/>
				<rect x="528.95" y="102.08" class="st122" width="344.36" height="1.34"/>
				<rect x="528.95" y="100.74" class="st121" width="344.36" height="1.34"/>
				<rect x="528.95" y="99.4" class="st120" width="344.36" height="1.34"/>
				<rect x="528.95" y="98.06" class="st119" width="344.36" height="1.34"/>
				<rect x="528.95" y="96.72" class="st119" width="344.36" height="1.34"/>
				<rect x="528.95" y="95.38" class="st118" width="344.36" height="1.34"/>
				<rect x="528.95" y="94.04" class="st117" width="344.36" height="1.34"/>
				<rect x="528.95" y="92.7" class="st116" width="344.36" height="1.34"/>
				<rect x="528.95" y="91.36" class="st115" width="344.36" height="1.34"/>
				<rect x="528.95" y="90.02" class="st114" width="344.36" height="1.34"/>
				<rect x="528.95" y="88.68" class="st113" width="344.36" height="1.34"/>
				<rect x="528.95" y="87.34" class="st112" width="344.36" height="1.34"/>
				<rect x="528.95" y="86" class="st111" width="344.36" height="1.34"/>
				<rect x="528.95" y="84.66" class="st111" width="344.36" height="1.34"/>
				<rect x="528.95" y="83.32" class="st110" width="344.36" height="1.34"/>
				<rect x="528.95" y="81.98" class="st109" width="344.36" height="1.34"/>
				<rect x="528.95" y="80.63" class="st109" width="344.36" height="1.34"/>
				<rect x="528.95" y="79.29" class="st108" width="344.36" height="1.34"/>
				<rect x="528.95" y="77.95" class="st107" width="344.36" height="1.34"/>
				<rect x="528.95" y="76.61" class="st106" width="344.36" height="1.34"/>
				<rect x="528.95" y="75.27" class="st105" width="344.36" height="1.34"/>
				<rect x="528.95" y="73.93" class="st104" width="344.36" height="1.34"/>
				<rect x="528.95" y="72.59" class="st103" width="344.36" height="1.34"/>
				<rect x="528.95" y="71.25" class="st103" width="344.36" height="1.34"/>
				<rect x="528.95" y="69.91" class="st102" width="344.36" height="1.34"/>
				<rect x="528.95" y="68.57" class="st101" width="344.36" height="1.34"/>
				<rect x="528.95" y="67.23" class="st101" width="344.36" height="1.34"/>
				<rect x="528.95" y="65.89" class="st100" width="344.36" height="1.34"/>
				<rect x="528.95" y="64.55" class="st99" width="344.36" height="1.34"/>
				<rect x="528.95" y="63.21" class="st98" width="344.36" height="1.34"/>
				<rect x="528.95" y="61.87" class="st97" width="344.36" height="1.34"/>
				<rect x="528.95" y="60.53" class="st97" width="344.36" height="1.34"/>
				<rect x="528.95" y="59.19" class="st96" width="344.36" height="1.34"/>
				<rect x="528.95" y="57.85" class="st95" width="344.36" height="1.34"/>
				<rect x="528.95" y="56.51" class="st94" width="344.36" height="1.34"/>
				<rect x="528.95" y="55.17" class="st93" width="344.36" height="1.34"/>
				<rect x="528.95" y="53.83" class="st93" width="344.36" height="1.34"/>
				<rect x="528.95" y="52.49" class="st92" width="344.36" height="1.34"/>
				<rect x="528.95" y="51.15" class="st91" width="344.36" height="1.34"/>
				<rect x="528.95" y="49.81" class="st90" width="344.36" height="1.34"/>
				<rect x="528.95" y="48.47" class="st90" width="344.36" height="1.34"/>
				<rect x="528.95" y="47.13" class="st90" width="344.36" height="1.34"/>
				<path class="st90" d="M873.31,47.13H528.95H873.31z"/>
			</g>
		</g>
		<g class="st88">
			<path class="st87" d="M785.16,519.94L785.16,519.94c-7.07-4.82-8.91-14.55-4.09-21.63l0,0c4.82-7.07,14.55-8.91,21.63-4.09l0,0
				c7.07,4.82,8.91,14.55,4.09,21.63l0,0C801.96,522.92,792.23,524.77,785.16,519.94z"/>
		</g>
		<g class="st88">
			<path class="st87" d="M815.69,488.96L815.69,488.96c-3.54-2.41-4.46-7.28-2.05-10.81l0,0c2.41-3.54,7.28-4.46,10.81-2.05l0,0
				c3.54,2.41,4.46,7.28,2.05,10.81l0,0C824.09,490.45,819.23,491.37,815.69,488.96z"/>
		</g>
	</g>
</g>
</svg>
