<?xml version="1.0" encoding="utf-8"?>
<!-- Generator: Adobe Illustrator 24.1.0, SVG Export Plug-In . SVG Version: 6.00 Build 0)  -->
<svg version="1.1" id="Layer_1" xmlns="http://www.w3.org/2000/svg" xmlns:xlink="http://www.w3.org/1999/xlink" x="0px" y="0px"
	 viewBox="0 0 600 600" style="enable-background:new 0 0 600 600;" xml:space="preserve">
<style type="text/css">
	.st0{fill:#F7DE03;}
	.st1{fill:#E3A925;}
	.st2{clip-path:url(#SVGID_2_);fill:#FFFFFF;}
	.st3{clip-path:url(#SVGID_2_);fill:#FFFFFD;}
	.st4{clip-path:url(#SVGID_2_);fill:#FFFFFC;}
	.st5{clip-path:url(#SVGID_2_);fill:#FFFFFA;}
	.st6{clip-path:url(#SVGID_2_);fill:#FFFEF9;}
	.st7{clip-path:url(#SVGID_2_);fill:#FFFEF8;}
	.st8{clip-path:url(#SVGID_2_);fill:#FFFEF6;}
	.st9{clip-path:url(#SVGID_2_);fill:#FFFEF5;}
	.st10{clip-path:url(#SVGID_2_);fill:#FFFEF4;}
	.st11{clip-path:url(#SVGID_2_);fill:#FFFEF3;}
	.st12{clip-path:url(#SVGID_2_);fill:#FFFEF2;}
	.st13{clip-path:url(#SVGID_2_);fill:#FFFEF1;}
	.st14{clip-path:url(#SVGID_2_);fill:#FFFEEF;}
	.st15{clip-path:url(#SVGID_2_);fill:#FEFDEE;}
	.st16{clip-path:url(#SVGID_2_);fill:#FEFDED;}
	.st17{clip-path:url(#SVGID_2_);fill:#FEFDEB;}
	.st18{clip-path:url(#SVGID_2_);fill:#FFFDEA;}
	.st19{clip-path:url(#SVGID_2_);fill:#FFFCEA;}
	.st20{clip-path:url(#SVGID_2_);fill:#FDFCE8;}
	.st21{clip-path:url(#SVGID_2_);fill:#FDFCE7;}
	.st22{clip-path:url(#SVGID_2_);fill:#FDFBE5;}
	.st23{clip-path:url(#SVGID_2_);fill:#FDFBE4;}
	.st24{clip-path:url(#SVGID_2_);fill:#FDFBE2;}
	.st25{clip-path:url(#SVGID_2_);fill:#FDFBE1;}
	.st26{clip-path:url(#SVGID_2_);fill:#FDFBE0;}
	.st27{clip-path:url(#SVGID_2_);fill:#FEFBDF;}
	.st28{clip-path:url(#SVGID_2_);fill:#FEFBDE;}
	.st29{clip-path:url(#SVGID_2_);fill:#FEFBDD;}
	.st30{clip-path:url(#SVGID_2_);fill:#FEFBDC;}
	.st31{clip-path:url(#SVGID_2_);fill:#FCFADB;}
	.st32{clip-path:url(#SVGID_2_);fill:#FCFADA;}
	.st33{clip-path:url(#SVGID_2_);fill:#FCFAD9;}
	.st34{clip-path:url(#SVGID_2_);fill:#FCFAD8;}
	.st35{clip-path:url(#SVGID_2_);fill:#FDFAD7;}
	.st36{clip-path:url(#SVGID_2_);fill:#FDFAD5;}
	.st37{clip-path:url(#SVGID_2_);fill:#FDFAD4;}
	.st38{clip-path:url(#SVGID_2_);fill:#FDF9D2;}
	.st39{clip-path:url(#SVGID_2_);fill:#FCF9D2;}
	.st40{clip-path:url(#SVGID_2_);fill:#FCF9D1;}
	.st41{clip-path:url(#SVGID_2_);fill:#FCF9CF;}
	.st42{clip-path:url(#SVGID_2_);fill:#FCF9CE;}
	.st43{clip-path:url(#SVGID_2_);fill:#FCF8CD;}
	.st44{clip-path:url(#SVGID_2_);fill:#FCF8CC;}
	.st45{clip-path:url(#SVGID_2_);fill:#FCF8CB;}
	.st46{clip-path:url(#SVGID_2_);fill:#FCF8CA;}
	.st47{clip-path:url(#SVGID_2_);fill:#FCF8C9;}
	.st48{clip-path:url(#SVGID_2_);fill:#FCF8C8;}
	.st49{clip-path:url(#SVGID_2_);fill:#FCF8C7;}
	.st50{clip-path:url(#SVGID_2_);fill:#FCF8C6;}
	.st51{clip-path:url(#SVGID_2_);fill:#FCF8C5;}
	.st52{clip-path:url(#SVGID_2_);fill:#FCF8C3;}
	.st53{clip-path:url(#SVGID_2_);fill:#FDF8C2;}
	.st54{clip-path:url(#SVGID_2_);fill:#FDF8C1;}
	.st55{clip-path:url(#SVGID_2_);fill:#FDF8C0;}
	.st56{clip-path:url(#SVGID_2_);fill:#FBF7BF;}
	.st57{clip-path:url(#SVGID_2_);fill:#FCF7BE;}
	.st58{clip-path:url(#SVGID_2_);fill:#FCF7BD;}
	.st59{clip-path:url(#SVGID_2_);fill:#FCF7BC;}
	.st60{clip-path:url(#SVGID_2_);fill:#FCF7BB;}
	.st61{clip-path:url(#SVGID_2_);fill:#FCF7BA;}
	.st62{clip-path:url(#SVGID_2_);fill:#FCF7B9;}
	.st63{clip-path:url(#SVGID_2_);fill:#FCF6B7;}
	.st64{clip-path:url(#SVGID_2_);fill:#FCF6B6;}
	.st65{clip-path:url(#SVGID_2_);fill:#FCF6B5;}
	.st66{clip-path:url(#SVGID_2_);fill:#FCF6B4;}
	.st67{clip-path:url(#SVGID_2_);fill:#FCF6B3;}
	.st68{clip-path:url(#SVGID_2_);fill:#FBF6B2;}
	.st69{clip-path:url(#SVGID_2_);fill:#FBF6B1;}
	.st70{clip-path:url(#SVGID_2_);fill:#FBF5B0;}
	.st71{clip-path:url(#SVGID_2_);fill:#FBF5AF;}
	.st72{clip-path:url(#SVGID_2_);fill:#FBF5AE;}
	.st73{clip-path:url(#SVGID_2_);fill:#FBF5AD;}
	.st74{clip-path:url(#SVGID_2_);fill:#FBF5AC;}
	.st75{clip-path:url(#SVGID_2_);fill:#FBF5AB;}
	.st76{clip-path:url(#SVGID_2_);fill:#FBF5AA;}
	.st77{clip-path:url(#SVGID_2_);fill:#FBF5A9;}
	.st78{clip-path:url(#SVGID_2_);fill:#FCF5A8;}
	.st79{clip-path:url(#SVGID_2_);fill:#FCF5A7;}
	.st80{clip-path:url(#SVGID_2_);fill:#FCF5A6;}
	.st81{clip-path:url(#SVGID_2_);fill:#FCF5A4;}
	.st82{clip-path:url(#SVGID_2_);fill:#FBF4A4;}
	.st83{clip-path:url(#SVGID_2_);fill:#FBF4A2;}
	.st84{clip-path:url(#SVGID_2_);fill:#FBF4A1;}
	.st85{clip-path:url(#SVGID_2_);fill:#FBF4A0;}
	.st86{opacity:0.2;}
	.st87{fill:#FFFFFF;}
	.st88{opacity:0.6;}
</style>
<g>
	<g>
		<path class="st0" d="M396.64,582.56c-3.31,2.8-13.67,5.02-31.09,6.67c-17.42,1.66-36.87,2.54-58.36,2.67
			c-21.49,0.13-42.47-0.38-62.94-1.53c-20.47-1.14-35.41-3.11-44.82-5.91c-9.92-3.05-9.03-40.24,2.67-111.57
			c11.7-71.33,24.54-144.75,38.52-220.27c-37.38-0.25-69.48-1.72-96.31-4.39c-26.83-2.67-43.17-6.29-49.01-10.87
			c-5.34-2.8-9.22-13.16-11.63-31.09c-2.42-17.93-3.62-38.01-3.62-60.27c0-22.25,0.95-44.06,2.86-65.42
			c1.91-21.36,4.64-37.12,8.2-47.3c3.05-8.64,24.09-14.94,63.13-18.88c39.03-3.94,82.58-6.04,130.64-6.29
			c48.06-0.25,93.96,0.95,137.7,3.62c43.74,2.67,71.83,6.04,84.3,10.11c13.73,4.83,16.65,35.85,8.77,93.07
			c-7.88,57.21-19.83,119.64-35.85,187.28c-16.02,67.64-32.68,130.07-49.97,187.28C412.53,546.7,401.47,577.73,396.64,582.56z"/>
		<path class="st1" d="M300.96,600c-19.3,0-38.5-0.52-57.15-1.55c-21.33-1.2-36.6-3.24-46.68-6.25c-11-3.37-20.24-15.45-2.99-120.62
			c11.14-67.94,23.52-138.87,36.8-210.96c-33.44-0.43-62.81-1.89-87.42-4.34c-36.4-3.61-47.48-8.33-52.65-12.13
			c-7.69-4.53-12.39-15.94-15.2-36.8c-2.45-18.18-3.69-38.82-3.69-61.34c0-22.38,0.97-44.64,2.89-66.13
			c1.99-22.24,4.8-38.35,8.62-49.24c3.12-8.82,13.86-18.59,69.95-24.25c39.06-3.94,83.27-6.07,131.4-6.34
			c47.98-0.3,94.45,0.97,138.23,3.64c44.84,2.75,73.07,6.17,86.31,10.5c18.71,6.59,23.06,37.98,14.27,101.85
			c-7.88,57.17-19.99,120.44-36,188.04c-15.98,67.43-32.83,130.6-50.1,187.76c-26.53,87.77-32.18,93.41-35.21,96.44
			c-0.15,0.15-0.32,0.3-0.49,0.44c-3.57,3.03-10.36,6.17-35.54,8.56c-17.62,1.68-37.5,2.59-59.07,2.71
			C305.15,600,303.06,600,300.96,600z M202.83,577.03c8.77,2.44,22.87,4.22,41.89,5.29c20.33,1.14,41.38,1.65,62.43,1.51
			c21.1-0.13,40.5-1.01,57.65-2.64c19.24-1.83,24.94-3.98,26.36-4.68c2.35-3.38,9.68-19.02,30.94-89.35
			c17.17-56.84,33.94-119.7,49.83-186.81c15.89-67.11,27.91-129.86,35.72-186.51c10.61-77.07-1.98-83.83-3.45-84.35
			c-11.58-3.77-39.27-7.06-82.11-9.67c-43.41-2.65-89.51-3.93-137.15-3.61c-47.63,0.27-91.32,2.37-129.87,6.26
			c-51.35,5.18-56.17,13.27-56.36,13.61c-3.28,9.39-5.9,24.64-7.74,45.24c-1.87,21.02-2.83,42.78-2.83,64.7
			c0,21.8,1.19,41.72,3.55,59.18c2.96,21.98,7.36,25.01,7.4,25.03c0.22,0.15,0.99,0.62,1.2,0.78c1.63,1.27,9.66,5.71,44.83,9.19
			c26.46,2.64,58.61,4.1,95.57,4.36c2.39,0.01,4.65,1.09,6.17,2.93c1.52,1.84,2.15,4.27,1.72,6.63
			c-13.93,75.24-26.88,149.29-38.5,220.1C196.55,556.74,201.06,573.73,202.83,577.03z"/>
	</g>
	<g>
		<g>
			<defs>
				<path id="SVGID_1_" d="M476.96,109.6c3.85-27.94,4.23-44.3,3.79-53.37c-10.87-1.59-29.39-3.59-60.55-5.49
					c-38.96-2.38-80.31-3.58-122.91-3.58c-4.05,0-8.12,0.01-12.2,0.03c-46.6,0.25-89.3,2.3-126.92,6.1
					c-16.55,1.67-26.88,3.54-33.09,5c-1.08,5.97-2.23,14.29-3.26,25.79c-1.79,20.11-2.7,40.95-2.7,61.94
					c0,20.43,1.1,38.94,3.27,55.05c0.25,1.86,0.5,3.48,0.74,4.88c5.08,0.99,13.03,2.22,25.06,3.42c25.54,2.54,56.73,3.96,92.71,4.2
					l46.63,0.32l-7.88,42.58c23.5,15.35,44.24,35.11,68.4,49.56c25.52,15.26,54.76,23.74,84.42,25.54
					c3.13-12.63,6.25-25.39,9.32-38.36C457.44,227.1,469.27,165.33,476.96,109.6z"/>
			</defs>
			<clipPath id="SVGID_2_">
				<use xlink:href="#SVGID_1_"  style="overflow:visible;"/>
			</clipPath>
			<path class="st2" d="M119.12,331.56h362.07H119.12z"/>
			<rect x="119.12" y="329.95" class="st2" width="362.07" height="1.61"/>
			<rect x="119.12" y="328.34" class="st2" width="362.07" height="1.61"/>
			<rect x="119.12" y="326.72" class="st2" width="362.07" height="1.61"/>
			<rect x="119.12" y="325.11" class="st3" width="362.07" height="1.61"/>
			<rect x="119.12" y="323.5" class="st4" width="362.07" height="1.61"/>
			<rect x="119.12" y="321.88" class="st5" width="362.07" height="1.61"/>
			<rect x="119.12" y="320.27" class="st5" width="362.07" height="1.61"/>
			<rect x="119.12" y="318.66" class="st6" width="362.07" height="1.61"/>
			<rect x="119.12" y="317.04" class="st7" width="362.07" height="1.61"/>
			<rect x="119.12" y="315.43" class="st8" width="362.07" height="1.61"/>
			<rect x="119.12" y="313.82" class="st9" width="362.07" height="1.61"/>
			<rect x="119.12" y="312.2" class="st9" width="362.07" height="1.61"/>
			<rect x="119.12" y="310.59" class="st10" width="362.07" height="1.61"/>
			<rect x="119.12" y="308.98" class="st11" width="362.07" height="1.61"/>
			<rect x="119.12" y="307.36" class="st12" width="362.07" height="1.61"/>
			<rect x="119.12" y="305.75" class="st13" width="362.07" height="1.61"/>
			<rect x="119.12" y="304.14" class="st13" width="362.07" height="1.61"/>
			<rect x="119.12" y="302.52" class="st14" width="362.07" height="1.61"/>
			<rect x="119.12" y="300.91" class="st15" width="362.07" height="1.61"/>
			<rect x="119.12" y="299.3" class="st15" width="362.07" height="1.61"/>
			<rect x="119.12" y="297.68" class="st16" width="362.07" height="1.61"/>
			<rect x="119.12" y="296.07" class="st17" width="362.07" height="1.61"/>
			<rect x="119.12" y="294.46" class="st18" width="362.07" height="1.61"/>
			<rect x="119.12" y="292.85" class="st19" width="362.07" height="1.61"/>
			<rect x="119.12" y="291.23" class="st20" width="362.07" height="1.61"/>
			<rect x="119.12" y="289.62" class="st21" width="362.07" height="1.61"/>
			<rect x="119.12" y="288.01" class="st21" width="362.07" height="1.61"/>
			<rect x="119.12" y="286.39" class="st22" width="362.07" height="1.61"/>
			<rect x="119.12" y="284.78" class="st23" width="362.07" height="1.61"/>
			<rect x="119.12" y="283.17" class="st23" width="362.07" height="1.61"/>
			<rect x="119.12" y="281.55" class="st24" width="362.07" height="1.61"/>
			<rect x="119.12" y="279.94" class="st25" width="362.07" height="1.61"/>
			<rect x="119.12" y="278.33" class="st26" width="362.07" height="1.61"/>
			<rect x="119.12" y="276.71" class="st27" width="362.07" height="1.61"/>
			<rect x="119.12" y="275.1" class="st28" width="362.07" height="1.61"/>
			<rect x="119.12" y="273.49" class="st29" width="362.07" height="1.61"/>
			<rect x="119.12" y="271.87" class="st30" width="362.07" height="1.61"/>
			<rect x="119.12" y="270.26" class="st31" width="362.07" height="1.61"/>
			<rect x="119.12" y="268.65" class="st31" width="362.07" height="1.61"/>
			<rect x="119.12" y="267.03" class="st32" width="362.07" height="1.61"/>
			<rect x="119.12" y="265.42" class="st33" width="362.07" height="1.61"/>
			<rect x="119.12" y="263.81" class="st34" width="362.07" height="1.61"/>
			<rect x="119.12" y="262.19" class="st35" width="362.07" height="1.61"/>
			<rect x="119.12" y="260.58" class="st36" width="362.07" height="1.61"/>
			<rect x="119.12" y="258.97" class="st36" width="362.07" height="1.61"/>
			<rect x="119.12" y="257.35" class="st37" width="362.07" height="1.61"/>
			<rect x="119.12" y="255.74" class="st38" width="362.07" height="1.61"/>
			<rect x="119.12" y="254.13" class="st39" width="362.07" height="1.61"/>
			<rect x="119.12" y="252.51" class="st40" width="362.07" height="1.61"/>
			<rect x="119.12" y="250.9" class="st41" width="362.07" height="1.61"/>
			<rect x="119.12" y="249.29" class="st42" width="362.07" height="1.61"/>
			<rect x="119.12" y="247.68" class="st43" width="362.07" height="1.61"/>
			<rect x="119.12" y="246.06" class="st44" width="362.07" height="1.61"/>
			<rect x="119.12" y="244.45" class="st45" width="362.07" height="1.61"/>
			<rect x="119.12" y="242.84" class="st46" width="362.07" height="1.61"/>
			<rect x="119.12" y="241.22" class="st47" width="362.07" height="1.61"/>
			<rect x="119.12" y="239.61" class="st48" width="362.07" height="1.61"/>
			<rect x="119.12" y="238" class="st49" width="362.07" height="1.61"/>
			<rect x="119.12" y="236.38" class="st50" width="362.07" height="1.61"/>
			<rect x="119.12" y="234.77" class="st50" width="362.07" height="1.61"/>
			<rect x="119.12" y="233.16" class="st51" width="362.07" height="1.61"/>
			<rect x="119.12" y="231.54" class="st52" width="362.07" height="1.61"/>
			<rect x="119.12" y="229.93" class="st53" width="362.07" height="1.61"/>
			<rect x="119.12" y="228.32" class="st54" width="362.07" height="1.61"/>
			<rect x="119.12" y="226.7" class="st55" width="362.07" height="1.61"/>
			<rect x="119.12" y="225.09" class="st56" width="362.07" height="1.61"/>
			<rect x="119.12" y="223.48" class="st56" width="362.07" height="1.61"/>
			<rect x="119.12" y="221.86" class="st57" width="362.07" height="1.61"/>
			<rect x="119.12" y="220.25" class="st58" width="362.07" height="1.61"/>
			<rect x="119.12" y="218.64" class="st59" width="362.07" height="1.61"/>
			<rect x="119.12" y="217.02" class="st60" width="362.07" height="1.61"/>
			<rect x="119.12" y="215.41" class="st61" width="362.07" height="1.61"/>
			<rect x="119.12" y="213.8" class="st62" width="362.07" height="1.61"/>
			<rect x="119.12" y="212.18" class="st63" width="362.07" height="1.61"/>
			<rect x="119.12" y="210.57" class="st64" width="362.07" height="1.61"/>
			<rect x="119.12" y="208.96" class="st65" width="362.07" height="1.61"/>
			<rect x="119.12" y="207.34" class="st66" width="362.07" height="1.61"/>
			<rect x="119.12" y="205.73" class="st67" width="362.07" height="1.61"/>
			<rect x="119.12" y="204.12" class="st68" width="362.07" height="1.61"/>
			<rect x="119.12" y="202.51" class="st68" width="362.07" height="1.61"/>
			<rect x="119.12" y="200.89" class="st69" width="362.07" height="1.61"/>
			<rect x="119.12" y="199.28" class="st70" width="362.07" height="1.61"/>
			<rect x="119.12" y="197.67" class="st71" width="362.07" height="1.61"/>
			<rect x="119.12" y="196.05" class="st72" width="362.07" height="1.61"/>
			<rect x="119.12" y="194.44" class="st73" width="362.07" height="1.61"/>
			<rect x="119.12" y="192.83" class="st74" width="362.07" height="1.61"/>
			<rect x="119.12" y="191.21" class="st75" width="362.07" height="1.61"/>
			<rect x="119.12" y="189.6" class="st76" width="362.07" height="1.61"/>
			<rect x="119.12" y="187.99" class="st77" width="362.07" height="1.61"/>
			<rect x="119.12" y="186.37" class="st78" width="362.07" height="1.61"/>
			<rect x="119.12" y="184.76" class="st78" width="362.07" height="1.61"/>
			<rect x="119.12" y="183.15" class="st79" width="362.07" height="1.61"/>
			<rect x="119.12" y="181.53" class="st80" width="362.07" height="1.61"/>
			<rect x="119.12" y="179.92" class="st81" width="362.07" height="1.61"/>
			<rect x="119.12" y="178.31" class="st82" width="362.07" height="1.61"/>
			<rect x="119.12" y="176.69" class="st83" width="362.07" height="1.61"/>
			<rect x="119.12" y="175.08" class="st84" width="362.07" height="1.61"/>
			<rect x="119.12" y="173.47" class="st85" width="362.07" height="1.61"/>
			<rect x="119.12" y="172.18" class="st85" width="362.07" height="1.29"/>
			<rect x="119.12" y="170.89" class="st84" width="362.07" height="1.29"/>
			<rect x="119.12" y="169.6" class="st83" width="362.07" height="1.29"/>
			<rect x="119.12" y="168.31" class="st82" width="362.07" height="1.29"/>
			<rect x="119.12" y="167.02" class="st81" width="362.07" height="1.29"/>
			<rect x="119.12" y="165.73" class="st80" width="362.07" height="1.29"/>
			<rect x="119.12" y="164.44" class="st79" width="362.07" height="1.29"/>
			<rect x="119.12" y="163.16" class="st78" width="362.07" height="1.29"/>
			<rect x="119.12" y="161.87" class="st78" width="362.07" height="1.29"/>
			<rect x="119.12" y="160.58" class="st77" width="362.07" height="1.29"/>
			<rect x="119.12" y="159.29" class="st76" width="362.07" height="1.29"/>
			<rect x="119.12" y="158" class="st75" width="362.07" height="1.29"/>
			<rect x="119.12" y="156.71" class="st74" width="362.07" height="1.29"/>
			<rect x="119.12" y="155.42" class="st73" width="362.07" height="1.29"/>
			<rect x="119.12" y="154.13" class="st72" width="362.07" height="1.29"/>
			<rect x="119.12" y="152.84" class="st71" width="362.07" height="1.29"/>
			<rect x="119.12" y="151.56" class="st70" width="362.07" height="1.29"/>
			<rect x="119.12" y="150.27" class="st69" width="362.07" height="1.29"/>
			<rect x="119.12" y="148.98" class="st68" width="362.07" height="1.29"/>
			<rect x="119.12" y="147.69" class="st68" width="362.07" height="1.29"/>
			<rect x="119.12" y="146.4" class="st67" width="362.07" height="1.29"/>
			<rect x="119.12" y="145.11" class="st66" width="362.07" height="1.29"/>
			<rect x="119.12" y="143.82" class="st65" width="362.07" height="1.29"/>
			<rect x="119.12" y="142.53" class="st64" width="362.07" height="1.29"/>
			<rect x="119.12" y="141.24" class="st63" width="362.07" height="1.29"/>
			<rect x="119.12" y="139.95" class="st62" width="362.07" height="1.29"/>
			<rect x="119.12" y="138.67" class="st61" width="362.07" height="1.29"/>
			<rect x="119.12" y="137.38" class="st60" width="362.07" height="1.29"/>
			<rect x="119.12" y="136.09" class="st59" width="362.07" height="1.29"/>
			<rect x="119.12" y="134.8" class="st58" width="362.07" height="1.29"/>
			<rect x="119.12" y="133.51" class="st57" width="362.07" height="1.29"/>
			<rect x="119.12" y="132.22" class="st56" width="362.07" height="1.29"/>
			<rect x="119.12" y="130.93" class="st56" width="362.07" height="1.29"/>
			<rect x="119.12" y="129.64" class="st55" width="362.07" height="1.29"/>
			<rect x="119.12" y="128.35" class="st54" width="362.07" height="1.29"/>
			<rect x="119.12" y="127.07" class="st53" width="362.07" height="1.29"/>
			<rect x="119.12" y="125.78" class="st52" width="362.07" height="1.29"/>
			<rect x="119.12" y="124.49" class="st51" width="362.07" height="1.29"/>
			<rect x="119.12" y="123.2" class="st50" width="362.07" height="1.29"/>
			<rect x="119.12" y="121.91" class="st50" width="362.07" height="1.29"/>
			<rect x="119.12" y="120.62" class="st49" width="362.07" height="1.29"/>
			<rect x="119.12" y="119.33" class="st48" width="362.07" height="1.29"/>
			<rect x="119.12" y="118.04" class="st47" width="362.07" height="1.29"/>
			<rect x="119.12" y="116.75" class="st46" width="362.07" height="1.29"/>
			<rect x="119.12" y="115.46" class="st45" width="362.07" height="1.29"/>
			<rect x="119.12" y="114.18" class="st44" width="362.07" height="1.29"/>
			<rect x="119.12" y="112.89" class="st43" width="362.07" height="1.29"/>
			<rect x="119.12" y="111.6" class="st42" width="362.07" height="1.29"/>
			<rect x="119.12" y="110.31" class="st41" width="362.07" height="1.29"/>
			<rect x="119.12" y="109.02" class="st40" width="362.07" height="1.29"/>
			<rect x="119.12" y="107.73" class="st39" width="362.07" height="1.29"/>
			<rect x="119.12" y="106.44" class="st38" width="362.07" height="1.29"/>
			<rect x="119.12" y="105.15" class="st37" width="362.07" height="1.29"/>
			<rect x="119.12" y="103.86" class="st36" width="362.07" height="1.29"/>
			<rect x="119.12" y="102.58" class="st36" width="362.07" height="1.29"/>
			<rect x="119.12" y="101.29" class="st35" width="362.07" height="1.29"/>
			<rect x="119.12" y="100" class="st34" width="362.07" height="1.29"/>
			<rect x="119.12" y="98.71" class="st33" width="362.07" height="1.29"/>
			<rect x="119.12" y="97.42" class="st32" width="362.07" height="1.29"/>
			<rect x="119.12" y="96.13" class="st31" width="362.07" height="1.29"/>
			<rect x="119.12" y="94.84" class="st31" width="362.07" height="1.29"/>
			<rect x="119.12" y="93.55" class="st30" width="362.07" height="1.29"/>
			<rect x="119.12" y="92.26" class="st29" width="362.07" height="1.29"/>
			<rect x="119.12" y="90.97" class="st28" width="362.07" height="1.29"/>
			<rect x="119.12" y="89.69" class="st27" width="362.07" height="1.29"/>
			<rect x="119.12" y="88.4" class="st26" width="362.07" height="1.29"/>
			<rect x="119.12" y="87.11" class="st25" width="362.07" height="1.29"/>
			<rect x="119.12" y="85.82" class="st24" width="362.07" height="1.29"/>
			<rect x="119.12" y="84.53" class="st23" width="362.07" height="1.29"/>
			<rect x="119.12" y="83.24" class="st23" width="362.07" height="1.29"/>
			<rect x="119.12" y="81.95" class="st22" width="362.07" height="1.29"/>
			<rect x="119.12" y="80.66" class="st21" width="362.07" height="1.29"/>
			<rect x="119.12" y="79.37" class="st21" width="362.07" height="1.29"/>
			<rect x="119.12" y="78.09" class="st20" width="362.07" height="1.29"/>
			<rect x="119.12" y="76.8" class="st19" width="362.07" height="1.29"/>
			<rect x="119.12" y="75.51" class="st18" width="362.07" height="1.29"/>
			<rect x="119.12" y="74.22" class="st17" width="362.07" height="1.29"/>
			<rect x="119.12" y="72.93" class="st16" width="362.07" height="1.29"/>
			<rect x="119.12" y="71.64" class="st15" width="362.07" height="1.29"/>
			<rect x="119.12" y="70.35" class="st15" width="362.07" height="1.29"/>
			<rect x="119.12" y="69.06" class="st14" width="362.07" height="1.29"/>
			<rect x="119.12" y="67.77" class="st13" width="362.07" height="1.29"/>
			<rect x="119.12" y="66.48" class="st13" width="362.07" height="1.29"/>
			<rect x="119.12" y="65.2" class="st12" width="362.07" height="1.29"/>
			<rect x="119.12" y="63.91" class="st11" width="362.07" height="1.29"/>
			<rect x="119.12" y="62.62" class="st10" width="362.07" height="1.29"/>
			<rect x="119.12" y="61.33" class="st9" width="362.07" height="1.29"/>
			<rect x="119.12" y="60.04" class="st9" width="362.07" height="1.29"/>
			<rect x="119.12" y="58.75" class="st8" width="362.07" height="1.29"/>
			<rect x="119.12" y="57.46" class="st7" width="362.07" height="1.29"/>
			<rect x="119.12" y="56.17" class="st6" width="362.07" height="1.29"/>
			<rect x="119.12" y="54.88" class="st5" width="362.07" height="1.29"/>
			<rect x="119.12" y="53.6" class="st5" width="362.07" height="1.29"/>
			<rect x="119.12" y="52.31" class="st4" width="362.07" height="1.29"/>
			<rect x="119.12" y="51.02" class="st3" width="362.07" height="1.29"/>
			<rect x="119.12" y="49.73" class="st2" width="362.07" height="1.29"/>
			<rect x="119.12" y="48.44" class="st2" width="362.07" height="1.29"/>
			<rect x="119.12" y="47.15" class="st2" width="362.07" height="1.29"/>
			<path class="st2" d="M481.19,47.15H119.12H481.19z"/>
		</g>
	</g>
	<g class="st86">
		<path class="st87" d="M279.65,256.46l-0.61,3.27c-13.88,74.97-26.8,148.81-38.39,219.48c-5.96,36.32-8.11,58.21-8.76,71.11
			c4.11,0.38,8.92,0.74,14.55,1.06c17.62,0.98,35.87,1.48,54.24,1.48l6.28-0.02c20.25-0.12,38.71-0.96,54.9-2.49
			c2.85-0.27,5.28-0.54,7.35-0.8c4.06-10.79,11.21-31.62,23.22-71.36c13.68-45.26,27.1-94.47,40.03-146.63
			c-29.66-1.8-58.89-10.28-84.42-25.54C323.89,291.57,303.15,271.81,279.65,256.46z"/>
	</g>
	<g class="st88">
		<path class="st87" d="M341.86,530.46L341.86,530.46c-7.99-3.17-11.93-12.29-8.77-20.28l0,0c3.17-7.99,12.29-11.93,20.28-8.77l0,0
			c7.99,3.17,11.93,12.29,8.77,20.28l0,0C358.98,529.69,349.85,533.63,341.86,530.46z"/>
	</g>
	<g class="st88">
		<path class="st87" d="M364.96,493.4L364.96,493.4c-3.99-1.58-5.97-6.15-4.38-10.14v0c1.58-3.99,6.15-5.97,10.14-4.38l0,0
			c3.99,1.58,5.97,6.15,4.38,10.14l0,0C373.51,493.01,368.95,494.99,364.96,493.4z"/>
	</g>
</g>
</svg>
