<?xml version="1.0" encoding="utf-8"?>
<!-- Generator: Adobe Illustrator 24.1.0, SVG Export Plug-In . SVG Version: 6.00 Build 0)  -->
<svg version="1.1" id="Layer_1" xmlns="http://www.w3.org/2000/svg" xmlns:xlink="http://www.w3.org/1999/xlink" x="0px" y="0px"
	 viewBox="0 0 990.53 600" style="enable-background:new 0 0 990.53 600;" xml:space="preserve">
<style type="text/css">
	.st0{fill:#F7DE03;}
	.st1{fill:#E3A925;}
	.st2{fill:none;}
	.st3{clip-path:url(#SVGID_2_);fill:#FFFFFF;}
	.st4{clip-path:url(#SVGID_2_);fill:#FFFFFD;}
	.st5{clip-path:url(#SVGID_2_);fill:#FFFFFC;}
	.st6{clip-path:url(#SVGID_2_);fill:#FFFFFA;}
	.st7{clip-path:url(#SVGID_2_);fill:#FFFEF9;}
	.st8{clip-path:url(#SVGID_2_);fill:#FFFEF8;}
	.st9{clip-path:url(#SVGID_2_);fill:#FFFEF6;}
	.st10{clip-path:url(#SVGID_2_);fill:#FFFEF5;}
	.st11{clip-path:url(#SVGID_2_);fill:#FFFEF4;}
	.st12{clip-path:url(#SVGID_2_);fill:#FFFEF3;}
	.st13{clip-path:url(#SVGID_2_);fill:#FFFEF2;}
	.st14{clip-path:url(#SVGID_2_);fill:#FFFEF1;}
	.st15{clip-path:url(#SVGID_2_);fill:#FFFEEF;}
	.st16{clip-path:url(#SVGID_2_);fill:#FEFDEE;}
	.st17{clip-path:url(#SVGID_2_);fill:#FEFDED;}
	.st18{clip-path:url(#SVGID_2_);fill:#FEFDEB;}
	.st19{clip-path:url(#SVGID_2_);fill:#FFFDEA;}
	.st20{clip-path:url(#SVGID_2_);fill:#FFFCEA;}
	.st21{clip-path:url(#SVGID_2_);fill:#FDFCE8;}
	.st22{clip-path:url(#SVGID_2_);fill:#FDFCE7;}
	.st23{clip-path:url(#SVGID_2_);fill:#FDFBE5;}
	.st24{clip-path:url(#SVGID_2_);fill:#FDFBE4;}
	.st25{clip-path:url(#SVGID_2_);fill:#FDFBE2;}
	.st26{clip-path:url(#SVGID_2_);fill:#FDFBE1;}
	.st27{clip-path:url(#SVGID_2_);fill:#FDFBE0;}
	.st28{clip-path:url(#SVGID_2_);fill:#FEFBDF;}
	.st29{clip-path:url(#SVGID_2_);fill:#FEFBDE;}
	.st30{clip-path:url(#SVGID_2_);fill:#FEFBDD;}
	.st31{clip-path:url(#SVGID_2_);fill:#FEFBDC;}
	.st32{clip-path:url(#SVGID_2_);fill:#FCFADB;}
	.st33{clip-path:url(#SVGID_2_);fill:#FCFADA;}
	.st34{clip-path:url(#SVGID_2_);fill:#FCFAD9;}
	.st35{clip-path:url(#SVGID_2_);fill:#FCFAD8;}
	.st36{clip-path:url(#SVGID_2_);fill:#FDFAD7;}
	.st37{clip-path:url(#SVGID_2_);fill:#FDFAD5;}
	.st38{clip-path:url(#SVGID_2_);fill:#FDFAD4;}
	.st39{clip-path:url(#SVGID_2_);fill:#FDF9D2;}
	.st40{clip-path:url(#SVGID_2_);fill:#FCF9D2;}
	.st41{clip-path:url(#SVGID_2_);fill:#FCF9D1;}
	.st42{clip-path:url(#SVGID_2_);fill:#FCF9CF;}
	.st43{clip-path:url(#SVGID_2_);fill:#FCF9CE;}
	.st44{clip-path:url(#SVGID_2_);fill:#FCF8CD;}
	.st45{clip-path:url(#SVGID_2_);fill:#FCF8CC;}
	.st46{clip-path:url(#SVGID_2_);fill:#FCF8CB;}
	.st47{clip-path:url(#SVGID_2_);fill:#FCF8CA;}
	.st48{clip-path:url(#SVGID_2_);fill:#FCF8C9;}
	.st49{clip-path:url(#SVGID_2_);fill:#FCF8C8;}
	.st50{clip-path:url(#SVGID_2_);fill:#FCF8C7;}
	.st51{clip-path:url(#SVGID_2_);fill:#FCF8C6;}
	.st52{clip-path:url(#SVGID_2_);fill:#FCF8C5;}
	.st53{clip-path:url(#SVGID_2_);fill:#FCF8C3;}
	.st54{clip-path:url(#SVGID_2_);fill:#FDF8C2;}
	.st55{clip-path:url(#SVGID_2_);fill:#FDF8C1;}
	.st56{clip-path:url(#SVGID_2_);fill:#FDF8C0;}
	.st57{clip-path:url(#SVGID_2_);fill:#FBF7BF;}
	.st58{clip-path:url(#SVGID_2_);fill:#FCF7BE;}
	.st59{clip-path:url(#SVGID_2_);fill:#FCF7BD;}
	.st60{clip-path:url(#SVGID_2_);fill:#FCF7BC;}
	.st61{clip-path:url(#SVGID_2_);fill:#FCF7BB;}
	.st62{clip-path:url(#SVGID_2_);fill:#FCF7BA;}
	.st63{clip-path:url(#SVGID_2_);fill:#FCF7B9;}
	.st64{clip-path:url(#SVGID_2_);fill:#FCF6B7;}
	.st65{clip-path:url(#SVGID_2_);fill:#FCF6B6;}
	.st66{clip-path:url(#SVGID_2_);fill:#FCF6B5;}
	.st67{clip-path:url(#SVGID_2_);fill:#FCF6B4;}
	.st68{clip-path:url(#SVGID_2_);fill:#FCF6B3;}
	.st69{clip-path:url(#SVGID_2_);fill:#FBF6B2;}
	.st70{clip-path:url(#SVGID_2_);fill:#FBF6B1;}
	.st71{clip-path:url(#SVGID_2_);fill:#FBF5B0;}
	.st72{clip-path:url(#SVGID_2_);fill:#FBF5AF;}
	.st73{clip-path:url(#SVGID_2_);fill:#FBF5AE;}
	.st74{clip-path:url(#SVGID_2_);fill:#FBF5AD;}
	.st75{clip-path:url(#SVGID_2_);fill:#FBF5AC;}
	.st76{clip-path:url(#SVGID_2_);fill:#FBF5AB;}
	.st77{clip-path:url(#SVGID_2_);fill:#FBF5AA;}
	.st78{clip-path:url(#SVGID_2_);fill:#FBF5A9;}
	.st79{clip-path:url(#SVGID_2_);fill:#FCF5A8;}
	.st80{clip-path:url(#SVGID_2_);fill:#FCF5A7;}
	.st81{clip-path:url(#SVGID_2_);fill:#FCF5A6;}
	.st82{clip-path:url(#SVGID_2_);fill:#FCF5A4;}
	.st83{clip-path:url(#SVGID_2_);fill:#FBF4A4;}
	.st84{clip-path:url(#SVGID_2_);fill:#FBF4A2;}
	.st85{clip-path:url(#SVGID_2_);fill:#FBF4A1;}
	.st86{clip-path:url(#SVGID_2_);fill:#FBF4A0;}
	.st87{opacity:0.2;}
	.st88{fill:#FFFFFF;}
	.st89{opacity:0.6;}
	.st90{clip-path:url(#SVGID_4_);fill:#FFFFFF;}
	.st91{clip-path:url(#SVGID_4_);fill:#FFFFFD;}
	.st92{clip-path:url(#SVGID_4_);fill:#FFFFFC;}
	.st93{clip-path:url(#SVGID_4_);fill:#FFFFFA;}
	.st94{clip-path:url(#SVGID_4_);fill:#FFFEF9;}
	.st95{clip-path:url(#SVGID_4_);fill:#FFFEF8;}
	.st96{clip-path:url(#SVGID_4_);fill:#FFFEF6;}
	.st97{clip-path:url(#SVGID_4_);fill:#FFFEF5;}
	.st98{clip-path:url(#SVGID_4_);fill:#FFFEF4;}
	.st99{clip-path:url(#SVGID_4_);fill:#FFFEF3;}
	.st100{clip-path:url(#SVGID_4_);fill:#FFFEF2;}
	.st101{clip-path:url(#SVGID_4_);fill:#FFFEF1;}
	.st102{clip-path:url(#SVGID_4_);fill:#FFFEEF;}
	.st103{clip-path:url(#SVGID_4_);fill:#FEFDEE;}
	.st104{clip-path:url(#SVGID_4_);fill:#FEFDED;}
	.st105{clip-path:url(#SVGID_4_);fill:#FEFDEB;}
	.st106{clip-path:url(#SVGID_4_);fill:#FFFDEA;}
	.st107{clip-path:url(#SVGID_4_);fill:#FFFCEA;}
	.st108{clip-path:url(#SVGID_4_);fill:#FDFCE8;}
	.st109{clip-path:url(#SVGID_4_);fill:#FDFCE7;}
	.st110{clip-path:url(#SVGID_4_);fill:#FDFBE5;}
	.st111{clip-path:url(#SVGID_4_);fill:#FDFBE4;}
	.st112{clip-path:url(#SVGID_4_);fill:#FDFBE2;}
	.st113{clip-path:url(#SVGID_4_);fill:#FDFBE1;}
	.st114{clip-path:url(#SVGID_4_);fill:#FDFBE0;}
	.st115{clip-path:url(#SVGID_4_);fill:#FEFBDF;}
	.st116{clip-path:url(#SVGID_4_);fill:#FEFBDE;}
	.st117{clip-path:url(#SVGID_4_);fill:#FEFBDD;}
	.st118{clip-path:url(#SVGID_4_);fill:#FEFBDC;}
	.st119{clip-path:url(#SVGID_4_);fill:#FCFADB;}
	.st120{clip-path:url(#SVGID_4_);fill:#FCFADA;}
	.st121{clip-path:url(#SVGID_4_);fill:#FCFAD9;}
	.st122{clip-path:url(#SVGID_4_);fill:#FCFAD8;}
	.st123{clip-path:url(#SVGID_4_);fill:#FDFAD7;}
	.st124{clip-path:url(#SVGID_4_);fill:#FDFAD5;}
	.st125{clip-path:url(#SVGID_4_);fill:#FDFAD4;}
	.st126{clip-path:url(#SVGID_4_);fill:#FDF9D2;}
	.st127{clip-path:url(#SVGID_4_);fill:#FCF9D2;}
	.st128{clip-path:url(#SVGID_4_);fill:#FCF9D1;}
	.st129{clip-path:url(#SVGID_4_);fill:#FCF9CF;}
	.st130{clip-path:url(#SVGID_4_);fill:#FCF9CE;}
	.st131{clip-path:url(#SVGID_4_);fill:#FCF8CD;}
	.st132{clip-path:url(#SVGID_4_);fill:#FCF8CC;}
	.st133{clip-path:url(#SVGID_4_);fill:#FCF8CB;}
	.st134{clip-path:url(#SVGID_4_);fill:#FCF8CA;}
	.st135{clip-path:url(#SVGID_4_);fill:#FCF8C9;}
	.st136{clip-path:url(#SVGID_4_);fill:#FCF8C8;}
	.st137{clip-path:url(#SVGID_4_);fill:#FCF8C7;}
	.st138{clip-path:url(#SVGID_4_);fill:#FCF8C6;}
	.st139{clip-path:url(#SVGID_4_);fill:#FCF8C5;}
	.st140{clip-path:url(#SVGID_4_);fill:#FCF8C3;}
	.st141{clip-path:url(#SVGID_4_);fill:#FDF8C2;}
	.st142{clip-path:url(#SVGID_4_);fill:#FDF8C1;}
	.st143{clip-path:url(#SVGID_4_);fill:#FDF8C0;}
	.st144{clip-path:url(#SVGID_4_);fill:#FBF7BF;}
	.st145{clip-path:url(#SVGID_4_);fill:#FCF7BE;}
	.st146{clip-path:url(#SVGID_4_);fill:#FCF7BD;}
	.st147{clip-path:url(#SVGID_4_);fill:#FCF7BC;}
	.st148{clip-path:url(#SVGID_4_);fill:#FCF7BB;}
	.st149{clip-path:url(#SVGID_4_);fill:#FCF7BA;}
	.st150{clip-path:url(#SVGID_4_);fill:#FCF7B9;}
	.st151{clip-path:url(#SVGID_4_);fill:#FCF6B7;}
	.st152{clip-path:url(#SVGID_4_);fill:#FCF6B6;}
	.st153{clip-path:url(#SVGID_4_);fill:#FCF6B5;}
	.st154{clip-path:url(#SVGID_4_);fill:#FCF6B4;}
	.st155{clip-path:url(#SVGID_4_);fill:#FCF6B3;}
	.st156{clip-path:url(#SVGID_4_);fill:#FBF6B2;}
	.st157{clip-path:url(#SVGID_4_);fill:#FBF6B1;}
	.st158{clip-path:url(#SVGID_4_);fill:#FBF5B0;}
	.st159{clip-path:url(#SVGID_4_);fill:#FBF5AF;}
	.st160{clip-path:url(#SVGID_4_);fill:#FBF5AE;}
	.st161{clip-path:url(#SVGID_4_);fill:#FBF5AD;}
	.st162{clip-path:url(#SVGID_4_);fill:#FBF5AC;}
	.st163{clip-path:url(#SVGID_4_);fill:#FBF5AB;}
	.st164{clip-path:url(#SVGID_4_);fill:#FBF5AA;}
	.st165{clip-path:url(#SVGID_4_);fill:#FBF5A9;}
	.st166{clip-path:url(#SVGID_4_);fill:#FCF5A8;}
	.st167{clip-path:url(#SVGID_4_);fill:#FCF5A7;}
	.st168{clip-path:url(#SVGID_4_);fill:#FCF5A6;}
	.st169{clip-path:url(#SVGID_4_);fill:#FCF5A4;}
	.st170{clip-path:url(#SVGID_4_);fill:#FBF4A4;}
	.st171{clip-path:url(#SVGID_4_);fill:#FBF4A2;}
	.st172{clip-path:url(#SVGID_4_);fill:#FBF4A1;}
	.st173{clip-path:url(#SVGID_4_);fill:#FBF4A0;}
</style>
<g>
	<g>
		<g>
			<path class="st0" d="M981.79,315.58c-4.21,69.82-22.41,129.18-54.59,178.07c-32.19,48.9-88.88,75.08-170.09,78.54
				c-86.16,3.47-151.33-23.27-195.52-80.22c-44.19-56.94-63.69-132.58-58.49-226.91c4.21-66.85,21.48-124.59,51.81-173.24
				c30.33-48.65,86.22-76.32,167.67-83c86.65-6.68,152.94,19.5,198.87,78.54C967.36,146.43,987.48,222.5,981.79,315.58z
				 M812.81,297.76c1.49-27.48-4.52-49.89-18.01-67.22c-13.5-17.33-32.87-25-58.12-23.02c-23.77,2.23-40.17,10.46-49.21,24.7
				c-9.04,14.24-14.05,31.14-15.04,50.69c-1.73,27.73,3.9,50.01,16.9,66.85c13,16.84,32.12,24.64,57.38,23.4
				c23.77-0.99,40.35-8.66,49.76-23.02C805.88,335.76,811.33,318.31,812.81,297.76z"/>
			<path class="st1" d="M742.66,580.31c-81.27,0-144.2-28.06-187.25-83.53c-45.17-58.22-65.4-136.31-60.11-232.13
				c4.26-67.92,22.09-127.43,52.97-176.96c31.56-50.62,89.98-79.78,173.67-86.66c89.03-6.88,158.25,20.57,205.68,81.54
				c46.91,60.33,67.76,138.89,61.98,233.48c-4.28,70.87-23.08,132.07-55.86,181.89c-33.51,50.9-92.81,78.51-176.3,82.05
				C752.44,580.21,747.52,580.31,742.66,580.31z M747.91,15.65c-8.05,0-16.29,0.33-24.74,0.98
				c-78.44,6.45-132.84,33.15-161.63,79.35c-29.49,47.29-46.54,104.36-50.63,169.59c-5.07,91.89,14.05,166.47,56.86,221.63
				c42.33,54.56,106.07,80.4,189.03,77.19c78.15-3.34,133.29-28.58,163.87-75.04c31.26-47.5,49.21-106.12,53.32-174.24l0,0
				c5.55-90.69-14.21-165.69-58.7-222.93C875.71,41.33,819.49,15.65,747.91,15.65z M741.59,381.09c-25.18,0-44.84-8.92-58.45-26.56
				c-14.12-18.3-20.35-42.57-18.51-72.12c1.04-20.71,6.5-39.05,16.25-54.39c10.35-16.32,28.88-25.84,55.06-28.28
				c28.12-2.2,49.88,6.56,65.02,26c14.62,18.78,21.23,43.15,19.66,72.44c0,0.05,0,0.1-0.01,0.15c-1.58,21.81-7.5,40.67-17.61,56.09
				c-10.81,16.52-29.65,25.46-55.97,26.55C745.2,381.05,743.38,381.09,741.59,381.09z M744.33,215.03c-2.27,0-4.62,0.1-7.04,0.28
				c-21,1.97-35.58,9.07-43.21,21.09c-8.27,13.04-12.93,28.81-13.83,46.89c-1.61,25.75,3.53,46.47,15.28,61.69
				c11.42,14.82,28.08,21.44,50.8,20.37c21.34-0.89,35.59-7.27,43.6-19.51c8.61-13.15,13.68-29.48,15.08-48.58
				c1.36-25.39-4.15-46.22-16.38-61.92C778.02,221.72,763.49,215.03,744.33,215.03z"/>
		</g>
		<g>
			<path class="st2" d="M659.24,372.99c13.49,17.48,38.73,38.31,82.36,38.31c0,0,0,0,0.01,0c2.29,0,4.6-0.06,6.97-0.17
				c45.31-1.88,68.38-22.88,79.71-40.17c12.02-18.34,19.32-40.1,21.88-64.69c-41.76,1.61-83.82-4.24-123.43-17.62
				c-29.74-10.05-58.99-24.3-88.94-33.07c-1.72,8.07-2.87,16.45-3.33,25.18C632.2,317.73,640.53,348.77,659.24,372.99z"/>
		</g>
		<g>
			<path class="st2" d="M850.17,306.27c0.2-1.92,0.43-3.82,0.58-5.77l0.04-0.69c1.99-36.77-6.75-67.93-25.98-92.63
				c-19.36-24.86-47.21-38-80.55-38c-3.44,0-6.99,0.14-10.55,0.42l-0.58,0.05c-44.81,4.2-67.02,25.25-77.76,42.18
				c-8.32,13.1-14.16,27.77-17.58,43.75c29.95,8.77,59.2,23.03,88.94,33.07C766.34,302.03,808.4,307.88,850.17,306.27z"/>
		</g>
		<g>
			<g>
				<defs>
					<path id="SVGID_1_" d="M891.42,110.73c-33.96-43.66-80.75-64.88-143.05-64.88c-7.38,0-15.08,0.31-22.69,0.89
						c-69.4,5.69-114.71,27.03-138.51,65.22c-25.32,40.62-40.56,89.54-45.35,145.27c12.11-5.16,25-8.41,38.23-9.27
						c19.73-1.28,38.88,2.09,57.75,7.62c3.42-15.98,9.26-30.64,17.58-43.75c10.74-16.92,32.95-37.98,77.76-42.18l0.58-0.05
						c3.56-0.28,7.11-0.42,10.55-0.42c33.33,0,61.19,13.14,80.55,38c19.23,24.7,27.96,55.86,25.98,92.63l-0.04,0.69
						c-0.14,1.95-0.38,3.85-0.58,5.77c30.36-1.17,60.56-6.26,89.54-15.37c1.65-0.52,3.28-1.11,4.92-1.66
						C945.37,216.25,927.91,157.65,891.42,110.73z"/>
				</defs>
				<clipPath id="SVGID_2_">
					<use xlink:href="#SVGID_1_"  style="overflow:visible;"/>
				</clipPath>
				<path class="st3" d="M541.82,306.27h403.55H541.82z"/>
				<rect x="541.82" y="304.79" class="st3" width="403.55" height="1.48"/>
				<rect x="541.82" y="303.31" class="st3" width="403.55" height="1.48"/>
				<rect x="541.82" y="301.84" class="st3" width="403.55" height="1.48"/>
				<rect x="541.82" y="300.36" class="st4" width="403.55" height="1.48"/>
				<rect x="541.82" y="298.88" class="st5" width="403.55" height="1.48"/>
				<rect x="541.82" y="297.41" class="st6" width="403.55" height="1.48"/>
				<rect x="541.82" y="295.93" class="st6" width="403.55" height="1.48"/>
				<rect x="541.82" y="294.45" class="st7" width="403.55" height="1.48"/>
				<rect x="541.82" y="292.97" class="st8" width="403.55" height="1.48"/>
				<rect x="541.82" y="291.5" class="st9" width="403.55" height="1.48"/>
				<rect x="541.82" y="290.02" class="st10" width="403.55" height="1.48"/>
				<rect x="541.82" y="288.54" class="st10" width="403.55" height="1.48"/>
				<rect x="541.82" y="287.07" class="st11" width="403.55" height="1.48"/>
				<rect x="541.82" y="285.59" class="st12" width="403.55" height="1.48"/>
				<rect x="541.82" y="284.11" class="st13" width="403.55" height="1.48"/>
				<rect x="541.82" y="282.63" class="st14" width="403.55" height="1.48"/>
				<rect x="541.82" y="281.16" class="st14" width="403.55" height="1.48"/>
				<rect x="541.82" y="279.68" class="st15" width="403.55" height="1.48"/>
				<rect x="541.82" y="278.2" class="st16" width="403.55" height="1.48"/>
				<rect x="541.82" y="276.73" class="st16" width="403.55" height="1.48"/>
				<rect x="541.82" y="275.25" class="st17" width="403.55" height="1.48"/>
				<rect x="541.82" y="273.77" class="st18" width="403.55" height="1.48"/>
				<rect x="541.82" y="272.29" class="st19" width="403.55" height="1.48"/>
				<rect x="541.82" y="270.82" class="st20" width="403.55" height="1.48"/>
				<rect x="541.82" y="269.34" class="st21" width="403.55" height="1.48"/>
				<rect x="541.82" y="267.86" class="st22" width="403.55" height="1.48"/>
				<rect x="541.82" y="266.39" class="st22" width="403.55" height="1.48"/>
				<rect x="541.82" y="264.91" class="st23" width="403.55" height="1.48"/>
				<rect x="541.82" y="263.43" class="st24" width="403.55" height="1.48"/>
				<rect x="541.82" y="261.95" class="st24" width="403.55" height="1.48"/>
				<rect x="541.82" y="260.48" class="st25" width="403.55" height="1.48"/>
				<rect x="541.82" y="259" class="st26" width="403.55" height="1.48"/>
				<rect x="541.82" y="257.52" class="st27" width="403.55" height="1.48"/>
				<rect x="541.82" y="256.05" class="st28" width="403.55" height="1.48"/>
				<rect x="541.82" y="254.57" class="st29" width="403.55" height="1.48"/>
				<rect x="541.82" y="253.09" class="st30" width="403.55" height="1.48"/>
				<rect x="541.82" y="251.61" class="st31" width="403.55" height="1.48"/>
				<rect x="541.82" y="250.14" class="st32" width="403.55" height="1.48"/>
				<rect x="541.82" y="248.66" class="st32" width="403.55" height="1.48"/>
				<rect x="541.82" y="247.18" class="st33" width="403.55" height="1.48"/>
				<rect x="541.82" y="245.7" class="st34" width="403.55" height="1.48"/>
				<rect x="541.82" y="244.23" class="st35" width="403.55" height="1.48"/>
				<rect x="541.82" y="242.75" class="st36" width="403.55" height="1.48"/>
				<rect x="541.82" y="241.27" class="st37" width="403.55" height="1.48"/>
				<rect x="541.82" y="239.8" class="st37" width="403.55" height="1.48"/>
				<rect x="541.82" y="238.32" class="st38" width="403.55" height="1.48"/>
				<rect x="541.82" y="236.84" class="st39" width="403.55" height="1.48"/>
				<rect x="541.82" y="235.36" class="st40" width="403.55" height="1.48"/>
				<rect x="541.82" y="233.89" class="st41" width="403.55" height="1.48"/>
				<rect x="541.82" y="232.41" class="st42" width="403.55" height="1.48"/>
				<rect x="541.82" y="230.93" class="st43" width="403.55" height="1.48"/>
				<rect x="541.82" y="229.46" class="st44" width="403.55" height="1.48"/>
				<rect x="541.82" y="227.98" class="st45" width="403.55" height="1.48"/>
				<rect x="541.82" y="226.5" class="st46" width="403.55" height="1.48"/>
				<rect x="541.82" y="225.02" class="st47" width="403.55" height="1.48"/>
				<rect x="541.82" y="223.55" class="st48" width="403.55" height="1.48"/>
				<rect x="541.82" y="222.07" class="st49" width="403.55" height="1.48"/>
				<rect x="541.82" y="220.59" class="st50" width="403.55" height="1.48"/>
				<rect x="541.82" y="219.12" class="st51" width="403.55" height="1.48"/>
				<rect x="541.82" y="217.64" class="st51" width="403.55" height="1.48"/>
				<rect x="541.82" y="216.16" class="st52" width="403.55" height="1.48"/>
				<rect x="541.82" y="214.68" class="st53" width="403.55" height="1.48"/>
				<rect x="541.82" y="213.21" class="st54" width="403.55" height="1.48"/>
				<rect x="541.82" y="211.73" class="st55" width="403.55" height="1.48"/>
				<rect x="541.82" y="210.25" class="st56" width="403.55" height="1.48"/>
				<rect x="541.82" y="208.78" class="st57" width="403.55" height="1.48"/>
				<rect x="541.82" y="207.3" class="st57" width="403.55" height="1.48"/>
				<rect x="541.82" y="205.82" class="st58" width="403.55" height="1.48"/>
				<rect x="541.82" y="204.34" class="st59" width="403.55" height="1.48"/>
				<rect x="541.82" y="202.87" class="st60" width="403.55" height="1.48"/>
				<rect x="541.82" y="201.39" class="st61" width="403.55" height="1.48"/>
				<rect x="541.82" y="199.91" class="st62" width="403.55" height="1.48"/>
				<rect x="541.82" y="198.44" class="st63" width="403.55" height="1.48"/>
				<rect x="541.82" y="196.96" class="st64" width="403.55" height="1.48"/>
				<rect x="541.82" y="195.48" class="st65" width="403.55" height="1.48"/>
				<rect x="541.82" y="194" class="st66" width="403.55" height="1.48"/>
				<rect x="541.82" y="192.53" class="st67" width="403.55" height="1.48"/>
				<rect x="541.82" y="191.05" class="st68" width="403.55" height="1.48"/>
				<rect x="541.82" y="189.57" class="st69" width="403.55" height="1.48"/>
				<rect x="541.82" y="188.1" class="st69" width="403.55" height="1.48"/>
				<rect x="541.82" y="186.62" class="st70" width="403.55" height="1.48"/>
				<rect x="541.82" y="185.14" class="st71" width="403.55" height="1.48"/>
				<rect x="541.82" y="183.66" class="st72" width="403.55" height="1.48"/>
				<rect x="541.82" y="182.19" class="st73" width="403.55" height="1.48"/>
				<rect x="541.82" y="180.71" class="st74" width="403.55" height="1.48"/>
				<rect x="541.82" y="179.23" class="st75" width="403.55" height="1.48"/>
				<rect x="541.82" y="177.76" class="st76" width="403.55" height="1.48"/>
				<rect x="541.82" y="176.28" class="st77" width="403.55" height="1.48"/>
				<rect x="541.82" y="174.8" class="st78" width="403.55" height="1.48"/>
				<rect x="541.82" y="173.32" class="st79" width="403.55" height="1.48"/>
				<rect x="541.82" y="171.85" class="st79" width="403.55" height="1.48"/>
				<rect x="541.82" y="170.37" class="st80" width="403.55" height="1.48"/>
				<rect x="541.82" y="168.89" class="st81" width="403.55" height="1.48"/>
				<rect x="541.82" y="167.41" class="st82" width="403.55" height="1.48"/>
				<rect x="541.82" y="165.94" class="st83" width="403.55" height="1.48"/>
				<rect x="541.82" y="164.46" class="st84" width="403.55" height="1.48"/>
				<rect x="541.82" y="162.98" class="st85" width="403.55" height="1.48"/>
				<rect x="541.82" y="161.51" class="st86" width="403.55" height="1.48"/>
				<rect x="541.82" y="160.33" class="st86" width="403.55" height="1.18"/>
				<rect x="541.82" y="159.15" class="st85" width="403.55" height="1.18"/>
				<rect x="541.82" y="157.97" class="st84" width="403.55" height="1.18"/>
				<rect x="541.82" y="156.79" class="st83" width="403.55" height="1.18"/>
				<rect x="541.82" y="155.61" class="st82" width="403.55" height="1.18"/>
				<rect x="541.82" y="154.42" class="st81" width="403.55" height="1.18"/>
				<rect x="541.82" y="153.24" class="st80" width="403.55" height="1.18"/>
				<rect x="541.82" y="152.06" class="st79" width="403.55" height="1.18"/>
				<rect x="541.82" y="150.88" class="st79" width="403.55" height="1.18"/>
				<rect x="541.82" y="149.7" class="st78" width="403.55" height="1.18"/>
				<rect x="541.82" y="148.52" class="st77" width="403.55" height="1.18"/>
				<rect x="541.82" y="147.34" class="st76" width="403.55" height="1.18"/>
				<rect x="541.82" y="146.16" class="st75" width="403.55" height="1.18"/>
				<rect x="541.82" y="144.98" class="st74" width="403.55" height="1.18"/>
				<rect x="541.82" y="143.8" class="st73" width="403.55" height="1.18"/>
				<rect x="541.82" y="142.62" class="st72" width="403.55" height="1.18"/>
				<rect x="541.82" y="141.44" class="st71" width="403.55" height="1.18"/>
				<rect x="541.82" y="140.26" class="st70" width="403.55" height="1.18"/>
				<rect x="541.82" y="139.08" class="st69" width="403.55" height="1.18"/>
				<rect x="541.82" y="137.9" class="st69" width="403.55" height="1.18"/>
				<rect x="541.82" y="136.72" class="st68" width="403.55" height="1.18"/>
				<rect x="541.82" y="135.54" class="st67" width="403.55" height="1.18"/>
				<rect x="541.82" y="134.36" class="st66" width="403.55" height="1.18"/>
				<rect x="541.82" y="133.18" class="st65" width="403.55" height="1.18"/>
				<rect x="541.82" y="132" class="st64" width="403.55" height="1.18"/>
				<rect x="541.82" y="130.82" class="st63" width="403.55" height="1.18"/>
				<rect x="541.82" y="129.64" class="st62" width="403.55" height="1.18"/>
				<rect x="541.82" y="128.46" class="st61" width="403.55" height="1.18"/>
				<rect x="541.82" y="127.28" class="st60" width="403.55" height="1.18"/>
				<rect x="541.82" y="126.1" class="st59" width="403.55" height="1.18"/>
				<rect x="541.82" y="124.92" class="st58" width="403.55" height="1.18"/>
				<rect x="541.82" y="123.74" class="st57" width="403.55" height="1.18"/>
				<rect x="541.82" y="122.56" class="st57" width="403.55" height="1.18"/>
				<rect x="541.82" y="121.38" class="st56" width="403.55" height="1.18"/>
				<rect x="541.82" y="120.2" class="st55" width="403.55" height="1.18"/>
				<rect x="541.82" y="119.02" class="st54" width="403.55" height="1.18"/>
				<rect x="541.82" y="117.84" class="st53" width="403.55" height="1.18"/>
				<rect x="541.82" y="116.66" class="st52" width="403.55" height="1.18"/>
				<rect x="541.82" y="115.48" class="st51" width="403.55" height="1.18"/>
				<rect x="541.82" y="114.3" class="st51" width="403.55" height="1.18"/>
				<rect x="541.82" y="113.12" class="st50" width="403.55" height="1.18"/>
				<rect x="541.82" y="111.94" class="st49" width="403.55" height="1.18"/>
				<rect x="541.82" y="110.76" class="st48" width="403.55" height="1.18"/>
				<rect x="541.82" y="109.58" class="st47" width="403.55" height="1.18"/>
				<rect x="541.82" y="108.39" class="st46" width="403.55" height="1.18"/>
				<rect x="541.82" y="107.21" class="st45" width="403.55" height="1.18"/>
				<rect x="541.82" y="106.03" class="st44" width="403.55" height="1.18"/>
				<rect x="541.82" y="104.85" class="st43" width="403.55" height="1.18"/>
				<rect x="541.82" y="103.67" class="st42" width="403.55" height="1.18"/>
				<rect x="541.82" y="102.49" class="st41" width="403.55" height="1.18"/>
				<rect x="541.82" y="101.31" class="st40" width="403.55" height="1.18"/>
				<rect x="541.82" y="100.13" class="st39" width="403.55" height="1.18"/>
				<rect x="541.82" y="98.95" class="st38" width="403.55" height="1.18"/>
				<rect x="541.82" y="97.77" class="st37" width="403.55" height="1.18"/>
				<rect x="541.82" y="96.59" class="st37" width="403.55" height="1.18"/>
				<rect x="541.82" y="95.41" class="st36" width="403.55" height="1.18"/>
				<rect x="541.82" y="94.23" class="st35" width="403.55" height="1.18"/>
				<rect x="541.82" y="93.05" class="st34" width="403.55" height="1.18"/>
				<rect x="541.82" y="91.87" class="st33" width="403.55" height="1.18"/>
				<rect x="541.82" y="90.69" class="st32" width="403.55" height="1.18"/>
				<rect x="541.82" y="89.51" class="st32" width="403.55" height="1.18"/>
				<rect x="541.82" y="88.33" class="st31" width="403.55" height="1.18"/>
				<rect x="541.82" y="87.15" class="st30" width="403.55" height="1.18"/>
				<rect x="541.82" y="85.97" class="st29" width="403.55" height="1.18"/>
				<rect x="541.82" y="84.79" class="st28" width="403.55" height="1.18"/>
				<rect x="541.82" y="83.61" class="st27" width="403.55" height="1.18"/>
				<rect x="541.82" y="82.43" class="st26" width="403.55" height="1.18"/>
				<rect x="541.82" y="81.25" class="st25" width="403.55" height="1.18"/>
				<rect x="541.82" y="80.07" class="st24" width="403.55" height="1.18"/>
				<rect x="541.82" y="78.89" class="st24" width="403.55" height="1.18"/>
				<rect x="541.82" y="77.71" class="st23" width="403.55" height="1.18"/>
				<rect x="541.82" y="76.53" class="st22" width="403.55" height="1.18"/>
				<rect x="541.82" y="75.35" class="st22" width="403.55" height="1.18"/>
				<rect x="541.82" y="74.17" class="st21" width="403.55" height="1.18"/>
				<rect x="541.82" y="72.99" class="st20" width="403.55" height="1.18"/>
				<rect x="541.82" y="71.81" class="st19" width="403.55" height="1.18"/>
				<rect x="541.82" y="70.63" class="st18" width="403.55" height="1.18"/>
				<rect x="541.82" y="69.45" class="st17" width="403.55" height="1.18"/>
				<rect x="541.82" y="68.27" class="st16" width="403.55" height="1.18"/>
				<rect x="541.82" y="67.09" class="st16" width="403.55" height="1.18"/>
				<rect x="541.82" y="65.91" class="st15" width="403.55" height="1.18"/>
				<rect x="541.82" y="64.73" class="st14" width="403.55" height="1.18"/>
				<rect x="541.82" y="63.55" class="st14" width="403.55" height="1.18"/>
				<rect x="541.82" y="62.37" class="st13" width="403.55" height="1.18"/>
				<rect x="541.82" y="61.18" class="st12" width="403.55" height="1.18"/>
				<rect x="541.82" y="60" class="st11" width="403.55" height="1.18"/>
				<rect x="541.82" y="58.82" class="st10" width="403.55" height="1.18"/>
				<rect x="541.82" y="57.64" class="st10" width="403.55" height="1.18"/>
				<rect x="541.82" y="56.46" class="st9" width="403.55" height="1.18"/>
				<rect x="541.82" y="55.28" class="st8" width="403.55" height="1.18"/>
				<rect x="541.82" y="54.1" class="st7" width="403.55" height="1.18"/>
				<rect x="541.82" y="52.92" class="st6" width="403.55" height="1.18"/>
				<rect x="541.82" y="51.74" class="st6" width="403.55" height="1.18"/>
				<rect x="541.82" y="50.56" class="st5" width="403.55" height="1.18"/>
				<rect x="541.82" y="49.38" class="st4" width="403.55" height="1.18"/>
				<rect x="541.82" y="48.2" class="st3" width="403.55" height="1.18"/>
				<rect x="541.82" y="47.02" class="st3" width="403.55" height="1.18"/>
				<rect x="541.82" y="45.84" class="st3" width="403.55" height="1.18"/>
				<path class="st3" d="M945.37,45.84H541.82H945.37z"/>
			</g>
		</g>
		<g class="st87">
			<path class="st88" d="M850.17,306.27c-2.56,24.59-9.87,46.35-21.88,64.69c-11.33,17.28-34.4,38.28-79.71,40.17
				c-2.37,0.12-4.68,0.17-6.97,0.17c0,0,0,0-0.01,0c-43.63,0-68.87-20.83-82.36-38.31c-18.71-24.22-27.04-55.26-24.77-92.24
				c0.45-8.73,1.6-17.11,3.33-25.18c-18.87-5.53-38.02-8.89-57.75-7.62c-13.23,0.86-26.12,4.11-38.23,9.27
				c-0.28,3.29-0.54,6.6-0.75,9.95c-4.65,84.47,12.36,152.27,50.57,201.5c34.36,44.28,83.71,65.8,150.86,65.8
				c4.27,0,8.68-0.09,13-0.26c68.88-2.94,114.66-23.04,139.95-61.46c28.32-43.04,44.61-96.69,48.4-159.48
				c0.5-8.2,0.73-16.17,0.81-24.03c-1.64,0.55-3.27,1.14-4.92,1.66C910.73,300.01,880.52,305.1,850.17,306.27z"/>
		</g>
		<g class="st89">
			<path class="st88" d="M862.49,478.94L862.49,478.94c-7.95-2.59-12.34-11.22-9.75-19.18l0,0c2.59-7.95,11.22-12.34,19.18-9.75l0,0
				c7.95,2.59,12.34,11.22,9.75,19.18l0,0C879.07,477.15,870.44,481.54,862.49,478.94z"/>
		</g>
		<g class="st89">
			<path class="st88" d="M882.68,441.53L882.68,441.53c-3.98-1.3-6.17-5.61-4.87-9.59l0,0c1.3-3.98,5.61-6.17,9.59-4.87l0,0
				c3.98,1.3,6.17,5.61,4.88,9.59l0,0C890.97,440.63,886.66,442.82,882.68,441.53z"/>
		</g>
	</g>
	<g>
		<g>
			<path class="st0" d="M20.18,582.37c-8.66-4.83-12.66-26.48-12.03-64.92c0.63-38.44,1.97-61.87,4.01-70.27
				c14.26-59.83,40.73-104.7,79.43-134.62c38.7-29.91,84.4-55.31,137.1-76.19c21.39-8.4,31.25-17.19,29.6-26.35
				c-1.66-9.17-7.83-15.97-18.52-20.43c-10.69-4.45-22.34-5.28-34.94-2.48c-12.6,2.8-19.16,11.71-19.67,26.73
				c-0.51,5.6-2.55,10.44-6.11,14.51c-7.13,7.64-20.18,11.33-39.14,11.07c-18.97-0.25-37.62-2.29-55.95-6.11
				c-12.48-2.54-24.12-5.85-34.94-9.93c-10.82-4.07-20.43-11.07-28.83-21c-9.93-11.46-7.77-31.95,6.49-61.48
				c14.26-29.53,27.11-50.28,38.57-62.25c36.66-37.93,81.21-60.59,133.66-67.98c52.45-7.38,101.2,0.89,146.26,24.82
				c42.77,22.91,74.47,60.21,95.09,111.89c20.62,51.69,18.33,99.93-6.87,144.74c-21.64,38.44-52.96,63.97-93.95,76.57
				c-40.99,12.6-71.8,29.21-92.42,49.84c32.33-0.76,64.67-1.78,97-3.06c32.33-1.27,53.72-1.27,64.16,0
				c9.93,0.51,18.27,8.34,25.01,23.49c6.74,15.15,11.46,32.27,14.13,51.36c2.67,19.09,3.18,37.62,1.53,55.57
				c-1.66,17.95-5.92,29.98-12.79,36.09c-3.82,3.57-26.22,6.11-67.21,7.64c-40.99,1.53-86.06,2.29-135.19,2.29
				c-49.14,0-95.09-0.76-137.86-2.29C53.02,588.1,27.81,585.68,20.18,582.37z"/>
			<path class="st1" d="M233.65,600c-49.12,0-95.6-0.77-138.15-2.29c-58.85-2.11-73.01-5.53-78.54-7.93
				c-0.25-0.1-0.49-0.23-0.73-0.35C4.19,582.7-0.65,561.13,0.07,517.32c0.86-52.51,2.83-66.27,4.24-72.04
				c14.62-61.36,42.33-108.17,82.34-139.09c39.09-30.24,85.88-56.25,139.07-77.32c19.13-7.51,25.22-14.06,24.61-17.4
				c-0.73-4.04-2.94-9.94-13.67-14.41c-9.2-3.84-19.05-4.52-30.09-2.06c-6.32,1.4-12.85,4.77-13.35,19.13
				c-0.69,7.78-3.42,14.2-8.11,19.56c-9.01,9.66-23.8,14.22-45.33,13.82c-19.41-0.27-38.75-2.37-57.48-6.29
				c-12.8-2.6-24.97-6.06-36.14-10.26c-12.08-4.56-22.9-12.41-32.16-23.36c-12.31-14.19-10.57-37.18,5.38-70.21
				c14.76-30.57,27.85-51.61,40.01-64.33c37.79-39.1,84.33-62.77,138.37-70.39c53.89-7.63,104.77,1.05,151.18,25.69
				c44.33,23.74,77.56,62.77,98.81,116.04c21.47,53.81,19,104.84-7.34,151.68c-22.59,40.14-55.77,67.17-98.62,80.34
				c-29.39,9.03-53.49,20.24-71.97,33.46c24.62-0.68,49.24-1.5,73.86-2.47c33.07-1.29,54.47-1.29,65.45,0.06
				c12.6,0.62,23.36,10.13,31.41,28.22c7.03,15.78,11.99,33.79,14.76,53.52c2.75,19.65,3.27,38.96,1.57,57.43
				c-1.87,20.26-6.94,33.8-15.48,41.39c-3.02,2.83-7.8,7.27-72.27,9.68C328.35,599.23,282.77,600,233.65,600z M23.9,575.17
				c4.49,1.67,19.9,4.53,72.18,6.39c42.36,1.52,88.65,2.29,137.57,2.29c48.92,0,94.3-0.77,134.89-2.29
				c51.4-1.91,60.94-5.04,62.64-5.96c3.12-2.85,7.81-10.81,9.62-30.44c1.59-17.22,1.09-35.3-1.48-53.7
				c-2.56-18.24-7.1-34.8-13.51-49.2c-5.38-12.07-11.45-18.36-18.04-18.7c-10.54-1.28-31.67-1.24-63.43,0.01
				c-32.38,1.28-64.76,2.29-97.13,3.06c-3.36-0.15-6.32-1.87-7.62-4.9c-1.3-3.03-0.62-6.55,1.72-8.89
				c21.46-21.48,53.68-38.92,95.76-51.87c38.75-11.91,68.79-36.41,89.28-72.81c24.16-42.95,26.25-88.02,6.41-137.77
				c-19.8-49.63-50.55-85.88-91.4-107.77c-43.3-22.98-90.86-31.03-141.32-23.94c-50.39,7.1-93.78,29.16-128.97,65.59
				c-10.8,11.27-23.29,31.53-37.11,60.13c-12.49,25.86-15.14,44.08-7.67,52.69c7.52,8.89,16.1,15.16,25.58,18.74
				c10.37,3.91,21.71,7.13,33.7,9.57c17.76,3.7,36.06,5.71,54.45,5.95c16.23,0.34,27.71-2.7,33.12-8.51
				c2.26-2.58,3.62-5.82,3.97-9.72c0.61-18.1,9.84-30.31,25.96-33.9c14.22-3.14,27.62-2.17,39.8,2.92
				c16.61,6.92,21.87,18.21,23.36,26.45c3.67,20.29-25.12,31.6-34.59,35.31c-51.75,20.5-97.22,45.75-135.11,75.06
				c-37.02,28.61-62.77,72.38-76.52,130.09c-1.31,5.38-3.02,21.6-3.79,68.54C15.43,565.81,22.52,574.03,23.9,575.17z"/>
		</g>
		<g class="st87">
			<path class="st88" d="M295.51,342.82c-8.81-1.46-17.55-3.29-26.21-5.53c-32.29-8.35-63.09-21.73-94.67-32.4
				c-21.46,11.88-41.22,24.78-59.13,38.62C83.8,368.02,62.44,404.9,50.21,456.18c-0.35,1.72-2.16,12.77-2.97,61.92
				c-0.23,13.79,0.24,23.27,0.85,29.62c9.49,0.91,24.76,1.97,49.09,2.84c42.11,1.5,88.02,2.26,136.47,2.26
				c48.42,0,93.42-0.76,133.73-2.26c20.8-0.77,33.83-1.73,41.83-2.54c0.25-1.62,0.49-3.5,0.69-5.7c1.37-14.87,0.93-30.54-1.31-46.56
				c-2.15-15.38-5.9-29.13-11.12-40.87c-0.16-0.37-0.32-0.71-0.47-1.03c-2.98-0.13-7.1-0.22-12.69-0.22
				c-10.13,0-23.17,0.31-38.75,0.92c-32.22,1.27-65.07,2.31-97.62,3.07l-97.63,2.31l69.05-69.05
				C238.66,371.6,263.75,355.74,295.51,342.82z"/>
		</g>
		<g>
			<g>
				<defs>
					<path id="SVGID_3_" d="M295.51,342.82c10.13-4.12,20.92-7.95,32.43-11.49c31.33-9.63,54.67-28.73,71.35-58.36
						c19.27-34.26,20.79-70.59,4.64-111.07c-17.26-43.25-42.52-73.32-77.11-91.85c-28.97-15.39-58.89-22.87-91.45-22.87
						c-10.08,0-20.52,0.75-31.02,2.23c-43.98,6.19-80.28,24.65-110.87,56.29c-4.82,5.04-15.34,18.52-31.6,52.21
						c-5.78,11.96-7.73,19.21-8.39,22.89c2.97,2.8,6.04,4.77,9.29,5.99c8.84,3.33,18.59,6.09,29.14,8.24
						c15.81,3.3,32.12,5.08,48.5,5.29l1.3,0.01c2.23,0,4.11-0.08,5.66-0.2c4.88-26.56,22.53-45.32,48.95-51.2
						c7.62-1.7,15.24-2.55,22.64-2.55c12.44,0,24.49,2.39,35.82,7.11c23.01,9.59,37.91,27.19,41.96,49.59
						c3.73,20.69-2.57,49.57-53.68,69.65c-24.38,9.66-47.25,20.41-68.46,32.15c31.58,10.67,62.38,24.05,94.67,32.4
						C277.96,339.52,286.7,341.36,295.51,342.82z"/>
				</defs>
				<clipPath id="SVGID_4_">
					<use xlink:href="#SVGID_3_"  style="overflow:visible;"/>
				</clipPath>
				<path class="st90" d="M53.5,342.82h366.59H53.5z"/>
				<rect x="53.5" y="341.14" class="st90" width="366.59" height="1.68"/>
				<rect x="53.5" y="339.46" class="st90" width="366.59" height="1.68"/>
				<rect x="53.5" y="337.79" class="st90" width="366.59" height="1.68"/>
				<rect x="53.5" y="336.11" class="st91" width="366.59" height="1.68"/>
				<rect x="53.5" y="334.43" class="st92" width="366.59" height="1.68"/>
				<rect x="53.5" y="332.76" class="st93" width="366.59" height="1.68"/>
				<rect x="53.5" y="331.08" class="st93" width="366.59" height="1.68"/>
				<rect x="53.5" y="329.4" class="st94" width="366.59" height="1.68"/>
				<rect x="53.5" y="327.73" class="st95" width="366.59" height="1.68"/>
				<rect x="53.5" y="326.05" class="st96" width="366.59" height="1.68"/>
				<rect x="53.5" y="324.37" class="st97" width="366.59" height="1.68"/>
				<rect x="53.5" y="322.7" class="st97" width="366.59" height="1.68"/>
				<rect x="53.5" y="321.02" class="st98" width="366.59" height="1.68"/>
				<rect x="53.5" y="319.34" class="st99" width="366.59" height="1.68"/>
				<rect x="53.5" y="317.66" class="st100" width="366.59" height="1.68"/>
				<rect x="53.5" y="315.99" class="st101" width="366.59" height="1.68"/>
				<rect x="53.5" y="314.31" class="st101" width="366.59" height="1.68"/>
				<rect x="53.5" y="312.63" class="st102" width="366.59" height="1.68"/>
				<rect x="53.5" y="310.96" class="st103" width="366.59" height="1.68"/>
				<rect x="53.5" y="309.28" class="st103" width="366.59" height="1.68"/>
				<rect x="53.5" y="307.6" class="st104" width="366.59" height="1.68"/>
				<rect x="53.5" y="305.93" class="st105" width="366.59" height="1.68"/>
				<rect x="53.5" y="304.25" class="st106" width="366.59" height="1.68"/>
				<rect x="53.5" y="302.57" class="st107" width="366.59" height="1.68"/>
				<rect x="53.5" y="300.9" class="st108" width="366.59" height="1.68"/>
				<rect x="53.5" y="299.22" class="st109" width="366.59" height="1.68"/>
				<rect x="53.5" y="297.54" class="st109" width="366.59" height="1.68"/>
				<rect x="53.5" y="295.86" class="st110" width="366.59" height="1.68"/>
				<rect x="53.5" y="294.19" class="st111" width="366.59" height="1.68"/>
				<rect x="53.5" y="292.51" class="st111" width="366.59" height="1.68"/>
				<rect x="53.5" y="290.83" class="st112" width="366.59" height="1.68"/>
				<rect x="53.5" y="289.16" class="st113" width="366.59" height="1.68"/>
				<rect x="53.5" y="287.48" class="st114" width="366.59" height="1.68"/>
				<rect x="53.5" y="285.8" class="st115" width="366.59" height="1.68"/>
				<rect x="53.5" y="284.13" class="st116" width="366.59" height="1.68"/>
				<rect x="53.5" y="282.45" class="st117" width="366.59" height="1.68"/>
				<rect x="53.5" y="280.77" class="st118" width="366.59" height="1.68"/>
				<rect x="53.5" y="279.1" class="st119" width="366.59" height="1.68"/>
				<rect x="53.5" y="277.42" class="st119" width="366.59" height="1.68"/>
				<rect x="53.5" y="275.74" class="st120" width="366.59" height="1.68"/>
				<rect x="53.5" y="274.07" class="st121" width="366.59" height="1.68"/>
				<rect x="53.5" y="272.39" class="st122" width="366.59" height="1.68"/>
				<rect x="53.5" y="270.71" class="st123" width="366.59" height="1.68"/>
				<rect x="53.5" y="269.03" class="st124" width="366.59" height="1.68"/>
				<rect x="53.5" y="267.36" class="st124" width="366.59" height="1.68"/>
				<rect x="53.5" y="265.68" class="st125" width="366.59" height="1.68"/>
				<rect x="53.5" y="264" class="st126" width="366.59" height="1.68"/>
				<rect x="53.5" y="262.33" class="st127" width="366.59" height="1.68"/>
				<rect x="53.5" y="260.65" class="st128" width="366.59" height="1.68"/>
				<rect x="53.5" y="258.97" class="st129" width="366.59" height="1.68"/>
				<rect x="53.5" y="257.3" class="st130" width="366.59" height="1.68"/>
				<rect x="53.5" y="255.62" class="st131" width="366.59" height="1.68"/>
				<rect x="53.5" y="253.94" class="st132" width="366.59" height="1.68"/>
				<rect x="53.5" y="252.27" class="st133" width="366.59" height="1.68"/>
				<rect x="53.5" y="250.59" class="st134" width="366.59" height="1.68"/>
				<rect x="53.5" y="248.91" class="st135" width="366.59" height="1.68"/>
				<rect x="53.5" y="247.23" class="st136" width="366.59" height="1.68"/>
				<rect x="53.5" y="245.56" class="st137" width="366.59" height="1.68"/>
				<rect x="53.5" y="243.88" class="st138" width="366.59" height="1.68"/>
				<rect x="53.5" y="242.2" class="st138" width="366.59" height="1.68"/>
				<rect x="53.5" y="240.53" class="st139" width="366.59" height="1.68"/>
				<rect x="53.5" y="238.85" class="st140" width="366.59" height="1.68"/>
				<rect x="53.5" y="237.17" class="st141" width="366.59" height="1.68"/>
				<rect x="53.5" y="235.5" class="st142" width="366.59" height="1.68"/>
				<rect x="53.5" y="233.82" class="st143" width="366.59" height="1.68"/>
				<rect x="53.5" y="232.14" class="st144" width="366.59" height="1.68"/>
				<rect x="53.5" y="230.47" class="st144" width="366.59" height="1.68"/>
				<rect x="53.5" y="228.79" class="st145" width="366.59" height="1.68"/>
				<rect x="53.5" y="227.11" class="st146" width="366.59" height="1.68"/>
				<rect x="53.5" y="225.43" class="st147" width="366.59" height="1.68"/>
				<rect x="53.5" y="223.76" class="st148" width="366.59" height="1.68"/>
				<rect x="53.5" y="222.08" class="st149" width="366.59" height="1.68"/>
				<rect x="53.5" y="220.4" class="st150" width="366.59" height="1.68"/>
				<rect x="53.5" y="218.73" class="st151" width="366.59" height="1.68"/>
				<rect x="53.5" y="217.05" class="st152" width="366.59" height="1.68"/>
				<rect x="53.5" y="215.37" class="st153" width="366.59" height="1.68"/>
				<rect x="53.5" y="213.7" class="st154" width="366.59" height="1.68"/>
				<rect x="53.5" y="212.02" class="st155" width="366.59" height="1.68"/>
				<rect x="53.5" y="210.34" class="st156" width="366.59" height="1.68"/>
				<rect x="53.5" y="208.67" class="st156" width="366.59" height="1.68"/>
				<rect x="53.5" y="206.99" class="st157" width="366.59" height="1.68"/>
				<rect x="53.5" y="205.31" class="st158" width="366.59" height="1.68"/>
				<rect x="53.5" y="203.63" class="st159" width="366.59" height="1.68"/>
				<rect x="53.5" y="201.96" class="st160" width="366.59" height="1.68"/>
				<rect x="53.5" y="200.28" class="st161" width="366.59" height="1.68"/>
				<rect x="53.5" y="198.6" class="st162" width="366.59" height="1.68"/>
				<rect x="53.5" y="196.93" class="st163" width="366.59" height="1.68"/>
				<rect x="53.5" y="195.25" class="st164" width="366.59" height="1.68"/>
				<rect x="53.5" y="193.57" class="st165" width="366.59" height="1.68"/>
				<rect x="53.5" y="191.9" class="st166" width="366.59" height="1.68"/>
				<rect x="53.5" y="190.22" class="st166" width="366.59" height="1.68"/>
				<rect x="53.5" y="188.54" class="st167" width="366.59" height="1.68"/>
				<rect x="53.5" y="186.87" class="st168" width="366.59" height="1.68"/>
				<rect x="53.5" y="185.19" class="st169" width="366.59" height="1.68"/>
				<rect x="53.5" y="183.51" class="st170" width="366.59" height="1.68"/>
				<rect x="53.5" y="181.83" class="st171" width="366.59" height="1.68"/>
				<rect x="53.5" y="180.16" class="st172" width="366.59" height="1.68"/>
				<rect x="53.5" y="178.48" class="st173" width="366.59" height="1.68"/>
				<rect x="53.5" y="177.14" class="st173" width="366.59" height="1.34"/>
				<rect x="53.5" y="175.8" class="st172" width="366.59" height="1.34"/>
				<rect x="53.5" y="174.46" class="st171" width="366.59" height="1.34"/>
				<rect x="53.5" y="173.12" class="st170" width="366.59" height="1.34"/>
				<rect x="53.5" y="171.78" class="st169" width="366.59" height="1.34"/>
				<rect x="53.5" y="170.44" class="st168" width="366.59" height="1.34"/>
				<rect x="53.5" y="169.1" class="st167" width="366.59" height="1.34"/>
				<rect x="53.5" y="167.76" class="st166" width="366.59" height="1.34"/>
				<rect x="53.5" y="166.42" class="st166" width="366.59" height="1.34"/>
				<rect x="53.5" y="165.08" class="st165" width="366.59" height="1.34"/>
				<rect x="53.5" y="163.74" class="st164" width="366.59" height="1.34"/>
				<rect x="53.5" y="162.4" class="st163" width="366.59" height="1.34"/>
				<rect x="53.5" y="161.06" class="st162" width="366.59" height="1.34"/>
				<rect x="53.5" y="159.72" class="st161" width="366.59" height="1.34"/>
				<rect x="53.5" y="158.38" class="st160" width="366.59" height="1.34"/>
				<rect x="53.5" y="157.04" class="st159" width="366.59" height="1.34"/>
				<rect x="53.5" y="155.7" class="st158" width="366.59" height="1.34"/>
				<rect x="53.5" y="154.36" class="st157" width="366.59" height="1.34"/>
				<rect x="53.5" y="153.02" class="st156" width="366.59" height="1.34"/>
				<rect x="53.5" y="151.68" class="st156" width="366.59" height="1.34"/>
				<rect x="53.5" y="150.34" class="st155" width="366.59" height="1.34"/>
				<rect x="53.5" y="149" class="st154" width="366.59" height="1.34"/>
				<rect x="53.5" y="147.66" class="st153" width="366.59" height="1.34"/>
				<rect x="53.5" y="146.32" class="st152" width="366.59" height="1.34"/>
				<rect x="53.5" y="144.98" class="st151" width="366.59" height="1.34"/>
				<rect x="53.5" y="143.64" class="st150" width="366.59" height="1.34"/>
				<rect x="53.5" y="142.3" class="st149" width="366.59" height="1.34"/>
				<rect x="53.5" y="140.96" class="st148" width="366.59" height="1.34"/>
				<rect x="53.5" y="139.62" class="st147" width="366.59" height="1.34"/>
				<rect x="53.5" y="138.29" class="st146" width="366.59" height="1.34"/>
				<rect x="53.5" y="136.95" class="st145" width="366.59" height="1.34"/>
				<rect x="53.5" y="135.61" class="st144" width="366.59" height="1.34"/>
				<rect x="53.5" y="134.27" class="st144" width="366.59" height="1.34"/>
				<rect x="53.5" y="132.93" class="st143" width="366.59" height="1.34"/>
				<rect x="53.5" y="131.59" class="st142" width="366.59" height="1.34"/>
				<rect x="53.5" y="130.25" class="st141" width="366.59" height="1.34"/>
				<rect x="53.5" y="128.91" class="st140" width="366.59" height="1.34"/>
				<rect x="53.5" y="127.57" class="st139" width="366.59" height="1.34"/>
				<rect x="53.5" y="126.23" class="st138" width="366.59" height="1.34"/>
				<rect x="53.5" y="124.89" class="st138" width="366.59" height="1.34"/>
				<rect x="53.5" y="123.55" class="st137" width="366.59" height="1.34"/>
				<rect x="53.5" y="122.21" class="st136" width="366.59" height="1.34"/>
				<rect x="53.5" y="120.87" class="st135" width="366.59" height="1.34"/>
				<rect x="53.5" y="119.53" class="st134" width="366.59" height="1.34"/>
				<rect x="53.5" y="118.19" class="st133" width="366.59" height="1.34"/>
				<rect x="53.5" y="116.85" class="st132" width="366.59" height="1.34"/>
				<rect x="53.5" y="115.51" class="st131" width="366.59" height="1.34"/>
				<rect x="53.5" y="114.17" class="st130" width="366.59" height="1.34"/>
				<rect x="53.5" y="112.83" class="st129" width="366.59" height="1.34"/>
				<rect x="53.5" y="111.49" class="st128" width="366.59" height="1.34"/>
				<rect x="53.5" y="110.15" class="st127" width="366.59" height="1.34"/>
				<rect x="53.5" y="108.81" class="st126" width="366.59" height="1.34"/>
				<rect x="53.5" y="107.47" class="st125" width="366.59" height="1.34"/>
				<rect x="53.5" y="106.13" class="st124" width="366.59" height="1.34"/>
				<rect x="53.5" y="104.79" class="st124" width="366.59" height="1.34"/>
				<rect x="53.5" y="103.45" class="st123" width="366.59" height="1.34"/>
				<rect x="53.5" y="102.11" class="st122" width="366.59" height="1.34"/>
				<rect x="53.5" y="100.77" class="st121" width="366.59" height="1.34"/>
				<rect x="53.5" y="99.43" class="st120" width="366.59" height="1.34"/>
				<rect x="53.5" y="98.09" class="st119" width="366.59" height="1.34"/>
				<rect x="53.5" y="96.75" class="st119" width="366.59" height="1.34"/>
				<rect x="53.5" y="95.41" class="st118" width="366.59" height="1.34"/>
				<rect x="53.5" y="94.07" class="st117" width="366.59" height="1.34"/>
				<rect x="53.5" y="92.73" class="st116" width="366.59" height="1.34"/>
				<rect x="53.5" y="91.39" class="st115" width="366.59" height="1.34"/>
				<rect x="53.5" y="90.05" class="st114" width="366.59" height="1.34"/>
				<rect x="53.5" y="88.71" class="st113" width="366.59" height="1.34"/>
				<rect x="53.5" y="87.37" class="st112" width="366.59" height="1.34"/>
				<rect x="53.5" y="86.03" class="st111" width="366.59" height="1.34"/>
				<rect x="53.5" y="84.69" class="st111" width="366.59" height="1.34"/>
				<rect x="53.5" y="83.35" class="st110" width="366.59" height="1.34"/>
				<rect x="53.5" y="82.01" class="st109" width="366.59" height="1.34"/>
				<rect x="53.5" y="80.67" class="st109" width="366.59" height="1.34"/>
				<rect x="53.5" y="79.33" class="st108" width="366.59" height="1.34"/>
				<rect x="53.5" y="77.99" class="st107" width="366.59" height="1.34"/>
				<rect x="53.5" y="76.65" class="st106" width="366.59" height="1.34"/>
				<rect x="53.5" y="75.31" class="st105" width="366.59" height="1.34"/>
				<rect x="53.5" y="73.97" class="st104" width="366.59" height="1.34"/>
				<rect x="53.5" y="72.63" class="st103" width="366.59" height="1.34"/>
				<rect x="53.5" y="71.29" class="st103" width="366.59" height="1.34"/>
				<rect x="53.5" y="69.95" class="st102" width="366.59" height="1.34"/>
				<rect x="53.5" y="68.61" class="st101" width="366.59" height="1.34"/>
				<rect x="53.5" y="67.27" class="st101" width="366.59" height="1.34"/>
				<rect x="53.5" y="65.93" class="st100" width="366.59" height="1.34"/>
				<rect x="53.5" y="64.59" class="st99" width="366.59" height="1.34"/>
				<rect x="53.5" y="63.25" class="st98" width="366.59" height="1.34"/>
				<rect x="53.5" y="61.91" class="st97" width="366.59" height="1.34"/>
				<rect x="53.5" y="60.57" class="st97" width="366.59" height="1.34"/>
				<rect x="53.5" y="59.23" class="st96" width="366.59" height="1.34"/>
				<rect x="53.5" y="57.89" class="st95" width="366.59" height="1.34"/>
				<rect x="53.5" y="56.55" class="st94" width="366.59" height="1.34"/>
				<rect x="53.5" y="55.21" class="st93" width="366.59" height="1.34"/>
				<rect x="53.5" y="53.87" class="st93" width="366.59" height="1.34"/>
				<rect x="53.5" y="52.53" class="st92" width="366.59" height="1.34"/>
				<rect x="53.5" y="51.19" class="st91" width="366.59" height="1.34"/>
				<rect x="53.5" y="49.86" class="st90" width="366.59" height="1.34"/>
				<rect x="53.5" y="48.52" class="st90" width="366.59" height="1.34"/>
				<rect x="53.5" y="47.18" class="st90" width="366.59" height="1.34"/>
				<path class="st90" d="M420.09,47.18H53.5H420.09z"/>
			</g>
		</g>
		<g class="st89">
			<path class="st88" d="M370.87,532.24L370.87,532.24c-8.48-1.45-14.23-9.57-12.78-18.05l0,0c1.45-8.48,9.57-14.23,18.05-12.78l0,0
				c8.48,1.45,14.23,9.57,12.78,18.05l0,0C387.47,527.94,379.35,533.69,370.87,532.24z"/>
		</g>
		<g class="st89">
			<path class="st88" d="M385.82,491.16L385.82,491.16c-4.24-0.72-7.12-4.79-6.39-9.03l0,0c0.72-4.24,4.79-7.12,9.03-6.39l0,0
				c4.24,0.72,7.12,4.79,6.39,9.03l0,0C394.13,489.01,390.06,491.88,385.82,491.16z"/>
		</g>
	</g>
</g>
</svg>
