<?xml version="1.0" encoding="utf-8"?>
<!-- Generator: Adobe Illustrator 24.1.0, SVG Export Plug-In . SVG Version: 6.00 Build 0)  -->
<svg version="1.1" id="Layer_1" xmlns="http://www.w3.org/2000/svg" xmlns:xlink="http://www.w3.org/1999/xlink" x="0px" y="0px"
	 viewBox="0 0 600 600" style="enable-background:new 0 0 600 600;" xml:space="preserve">
<style type="text/css">
	.st0{fill:#F7DE03;}
	.st1{fill:#E3A925;}
	.st2{fill:none;}
	.st3{opacity:0.2;}
	.st4{fill:#FFFFFF;}
	.st5{clip-path:url(#SVGID_2_);fill:#FCFADB;}
	.st6{clip-path:url(#SVGID_2_);fill:#FCFADA;}
	.st7{clip-path:url(#SVGID_2_);fill:#FCFAD9;}
	.st8{clip-path:url(#SVGID_2_);fill:#FCFAD8;}
	.st9{clip-path:url(#SVGID_2_);fill:#FDFAD7;}
	.st10{clip-path:url(#SVGID_2_);fill:#FDFAD5;}
	.st11{clip-path:url(#SVGID_2_);fill:#FDFAD4;}
	.st12{clip-path:url(#SVGID_2_);fill:#FDF9D2;}
	.st13{clip-path:url(#SVGID_2_);fill:#FCF9D2;}
	.st14{clip-path:url(#SVGID_2_);fill:#FCF9D1;}
	.st15{clip-path:url(#SVGID_2_);fill:#FCF9CF;}
	.st16{clip-path:url(#SVGID_2_);fill:#FCF9CE;}
	.st17{clip-path:url(#SVGID_2_);fill:#FCF8CD;}
	.st18{clip-path:url(#SVGID_2_);fill:#FCF8CC;}
	.st19{clip-path:url(#SVGID_2_);fill:#FCF8CB;}
	.st20{clip-path:url(#SVGID_2_);fill:#FCF8CA;}
	.st21{clip-path:url(#SVGID_2_);fill:#FCF8C9;}
	.st22{clip-path:url(#SVGID_2_);fill:#FCF8C8;}
	.st23{clip-path:url(#SVGID_2_);fill:#FCF8C7;}
	.st24{clip-path:url(#SVGID_2_);fill:#FCF8C6;}
	.st25{clip-path:url(#SVGID_2_);fill:#FCF8C5;}
	.st26{clip-path:url(#SVGID_2_);fill:#FCF8C3;}
	.st27{clip-path:url(#SVGID_2_);fill:#FDF8C2;}
	.st28{clip-path:url(#SVGID_2_);fill:#FDF8C1;}
	.st29{clip-path:url(#SVGID_2_);fill:#FDF8C0;}
	.st30{clip-path:url(#SVGID_2_);fill:#FBF7BF;}
	.st31{clip-path:url(#SVGID_2_);fill:#FCF7BE;}
	.st32{clip-path:url(#SVGID_2_);fill:#FCF7BD;}
	.st33{clip-path:url(#SVGID_2_);fill:#FCF7BC;}
	.st34{clip-path:url(#SVGID_2_);fill:#FCF7BB;}
	.st35{clip-path:url(#SVGID_2_);fill:#FCF7BA;}
	.st36{clip-path:url(#SVGID_2_);fill:#FCF7B9;}
	.st37{clip-path:url(#SVGID_2_);fill:#FCF6B7;}
	.st38{clip-path:url(#SVGID_2_);fill:#FCF6B6;}
	.st39{clip-path:url(#SVGID_2_);fill:#FCF6B5;}
	.st40{clip-path:url(#SVGID_2_);fill:#FCF6B4;}
	.st41{clip-path:url(#SVGID_2_);fill:#FCF6B3;}
	.st42{clip-path:url(#SVGID_2_);fill:#FBF6B2;}
	.st43{clip-path:url(#SVGID_2_);fill:#FBF6B1;}
	.st44{clip-path:url(#SVGID_2_);fill:#FBF5B0;}
	.st45{clip-path:url(#SVGID_2_);fill:#FBF5AF;}
	.st46{clip-path:url(#SVGID_2_);fill:#FBF5AE;}
	.st47{clip-path:url(#SVGID_2_);fill:#FBF5AD;}
	.st48{clip-path:url(#SVGID_2_);fill:#FBF5AC;}
	.st49{clip-path:url(#SVGID_2_);fill:#FBF5AB;}
	.st50{clip-path:url(#SVGID_2_);fill:#FBF5AA;}
	.st51{clip-path:url(#SVGID_2_);fill:#FBF5A9;}
	.st52{clip-path:url(#SVGID_2_);fill:#FCF5A8;}
	.st53{clip-path:url(#SVGID_2_);fill:#FCF5A7;}
	.st54{clip-path:url(#SVGID_2_);fill:#FCF5A6;}
	.st55{clip-path:url(#SVGID_2_);fill:#FCF5A4;}
	.st56{clip-path:url(#SVGID_2_);fill:#FBF4A4;}
	.st57{clip-path:url(#SVGID_2_);fill:#FBF4A2;}
	.st58{clip-path:url(#SVGID_2_);fill:#FBF4A1;}
	.st59{clip-path:url(#SVGID_2_);fill:#FBF4A0;}
	.st60{clip-path:url(#SVGID_2_);fill:#FFFFFF;}
	.st61{clip-path:url(#SVGID_2_);fill:#FFFFFD;}
	.st62{clip-path:url(#SVGID_2_);fill:#FFFFFC;}
	.st63{clip-path:url(#SVGID_2_);fill:#FFFFFA;}
	.st64{clip-path:url(#SVGID_2_);fill:#FFFEF9;}
	.st65{clip-path:url(#SVGID_2_);fill:#FFFEF8;}
	.st66{clip-path:url(#SVGID_2_);fill:#FFFEF6;}
	.st67{clip-path:url(#SVGID_2_);fill:#FFFEF5;}
	.st68{clip-path:url(#SVGID_2_);fill:#FFFEF4;}
	.st69{clip-path:url(#SVGID_2_);fill:#FFFEF3;}
	.st70{clip-path:url(#SVGID_2_);fill:#FFFEF2;}
	.st71{clip-path:url(#SVGID_2_);fill:#FFFEF1;}
	.st72{clip-path:url(#SVGID_2_);fill:#FFFEEF;}
	.st73{clip-path:url(#SVGID_2_);fill:#FEFDEE;}
	.st74{clip-path:url(#SVGID_2_);fill:#FEFDED;}
	.st75{clip-path:url(#SVGID_2_);fill:#FEFDEB;}
	.st76{clip-path:url(#SVGID_2_);fill:#FFFDEA;}
	.st77{clip-path:url(#SVGID_2_);fill:#FFFCEA;}
	.st78{clip-path:url(#SVGID_2_);fill:#FDFCE8;}
	.st79{clip-path:url(#SVGID_2_);fill:#FDFCE7;}
	.st80{clip-path:url(#SVGID_2_);fill:#FDFBE5;}
	.st81{clip-path:url(#SVGID_2_);fill:#FDFBE4;}
	.st82{clip-path:url(#SVGID_2_);fill:#FDFBE2;}
	.st83{clip-path:url(#SVGID_2_);fill:#FDFBE1;}
	.st84{clip-path:url(#SVGID_2_);fill:#FDFBE0;}
	.st85{clip-path:url(#SVGID_2_);fill:#FEFBDF;}
	.st86{clip-path:url(#SVGID_2_);fill:#FEFBDE;}
	.st87{clip-path:url(#SVGID_2_);fill:#FEFBDD;}
	.st88{clip-path:url(#SVGID_2_);fill:#FEFBDC;}
	.st89{opacity:0.6;}
</style>
<g>
	<g>
		<path class="st0" d="M498.88,124.15c21.68,43.62,31.43,89.72,29.27,138.31c-2.17,48.59-14.22,94.82-36.15,138.69
			c-21.94,43.87-52.86,82.9-92.78,117.07c-39.92,34.18-86.79,58.67-140.6,73.46c-16.83,1.53-32.59-4.53-47.25-18.17
			c-14.67-13.64-26.53-29.39-35.58-47.25c-9.06-17.85-14.29-34.69-15.69-50.5c-1.4-15.81,2.74-25.12,12.43-27.93
			c6.63-1.78,18.81-5.23,36.54-10.33c17.73-5.1,29.01-11.6,33.86-19.51c-52.8-7.65-95.71-32.84-128.74-75.56
			c-33.03-42.72-46.87-91.12-41.51-145.2c5.87-56.62,30.35-101.83,73.46-135.63c43.1-33.79,90.8-51.59,143.09-53.37
			c43.62-1.53,84.49,7.65,122.62,27.55C449.97,55.67,478.99,85.13,498.88,124.15z M304.91,255c16.58-4.59,23.34-17.03,20.28-37.3
			c-3.06-20.28-13.39-30.42-30.99-30.42c-17.6,0-27.04,10.2-28.31,30.61c-0.77,11.23,2.49,21.11,9.76,29.65
			C282.91,256.09,292.66,258.57,304.91,255z"/>
		<path class="st1" d="M253.52,600c-16.97,0-32.97-6.91-47.66-20.58c-15.28-14.21-27.83-30.86-37.29-49.51
			c-9.47-18.68-15.04-36.66-16.53-53.44c-2.21-25.05,8.69-33.63,18.22-36.41c6.77-1.82,18.9-5.24,36.57-10.33
			c7.82-2.25,13.65-4.6,17.99-6.86c-47.11-10.58-86.44-35.93-117.03-75.51c-34.2-44.21-48.71-94.99-43.16-150.93
			c6.07-58.66,31.81-106.15,76.51-141.19c44.27-34.73,94-53.26,147.8-55.09c44.79-1.44,87.43,8.01,126.64,28.46
			c39.47,20.6,69.92,51.51,90.5,91.87c0.01,0.03,0.03,0.05,0.04,0.08c22.2,44.68,32.31,92.54,30.09,142.28
			c-2.2,49.48-14.65,97.23-37,141.94c-22.31,44.65-54.2,84.88-94.75,119.6c-40.64,34.8-88.99,60.07-143.72,75.11
			c-0.47,0.13-0.93,0.21-1.41,0.25C257.4,599.91,255.45,600,253.52,600z M298.36,16.14c-2.94,0-5.9,0.05-8.86,0.16
			c-50.3,1.7-96.86,19.09-138.38,51.66c-41.12,32.23-64.81,75.99-70.4,130.09c-5.13,51.66,8.28,98.59,39.85,139.41
			c31.56,40.81,73.1,65.21,123.51,72.52c2.69,0.38,5,2.1,6.15,4.56c1.16,2.46,1,5.34-0.42,7.67c-6.01,9.77-18.6,17.31-38.51,23.05
			c-17.79,5.14-30.03,8.59-36.68,10.37c-1.86,0.54-7.98,2.32-6.47,19.41c1.3,14.72,6.29,30.72,14.84,47.56
			c8.59,16.95,19.99,32.09,33.88,44.99c12.82,11.95,26.05,17.27,40.31,16.1c52.13-14.42,98.14-38.51,136.78-71.6
			c38.89-33.3,69.45-71.84,90.81-114.55c21.33-42.67,33.21-88.23,35.31-135.43c2.1-46.96-7.46-92.14-28.41-134.32
			c-19.03-37.29-47.14-65.84-83.56-84.86C374,25.15,337.11,16.14,298.36,16.14z M294.71,264.66c-12.16,0-20.24-6.02-25.23-11.9
			c-8.65-10.15-12.58-22.07-11.66-35.43c2.07-33.17,23.68-38.14,36.37-38.14c21.52,0,35.36,13.25,38.98,37.3
			c4.92,32.58-14.18,42.97-26.05,46.28C302.58,264.09,298.45,264.66,294.71,264.66z M294.19,195.36c-9.29,0-18.98,2.74-20.24,23.03
			c-0.63,9.17,1.93,16.97,7.84,23.9c3.5,4.1,8.99,8.38,20.86,4.95c0.04-0.01,0.06-0.03,0.1-0.04c8.37-2.31,17.57-7.61,14.43-28.3
			C314.04,198.03,303.25,195.36,294.19,195.36z"/>
	</g>
	<g>
		<path class="st2" d="M294.19,148.1c-38.4,0-64.86,26.43-67.41,67.34c-1.45,21.2,5.13,41.15,19.02,57.48
			c12.52,14.72,29.9,22.83,48.93,22.83c0,0,0,0,0,0c6.8,0,13.83-1.04,20.91-3.08c28.1-7.9,55.46-33.24,48.28-80.83
			C357.99,172.53,331.27,148.1,294.19,148.1z"/>
	</g>
	<g class="st3">
		<path class="st4" d="M334.65,347.28c-41.01-15.25-78.01-39.51-117.88-57.53c-31.01-14.02-65.3-24.19-98.85-22.5
			c5.68,17.99,14.71,35,27.25,51.22c26.82,34.69,60.63,54.56,103.37,60.75l58.87,8.53l-31.09,50.71
			c-10.24,16.71-28.7,28.71-56.42,36.69c-7.51,2.16-13.99,4.02-19.5,5.58c1.82,8.56,5.28,17.87,10.32,27.82
			c6.92,13.65,16.11,25.85,27.33,36.29c7.23,6.73,11.99,7.73,14.43,7.88c46.21-13.3,86.98-34.9,121.26-64.25
			c35.73-30.6,63.73-65.87,83.22-104.84c3.46-6.92,6.55-13.96,9.46-21.04C422.01,367.59,376.6,362.88,334.65,347.28z"/>
	</g>
	<g>
		<g>
			<defs>
				<path id="SVGID_1_" d="M463.89,141.77c-16.25-31.79-39.2-55.11-70.17-71.26c-30.01-15.66-61.15-23.27-95.19-23.27
					c-2.63,0-5.28,0.05-7.97,0.14c-44.18,1.51-83.52,16.25-120.26,45.05c-34.71,27.21-53.9,62.81-58.64,108.66
					c-2.34,23.59-0.25,45.52,6.27,66.15c33.54-1.68,67.83,8.48,98.85,22.5c39.87,18.02,76.87,42.28,117.88,57.53
					c41.95,15.6,87.36,20.32,131.77,15.31c13.37-32.54,21.03-66.69,22.6-101.87C490.89,218.54,482.67,179.63,463.89,141.77z
					 M315.64,292.68c-7.08,2.04-14.11,3.08-20.91,3.08c0,0,0,0,0,0c-19.03,0-36.41-8.11-48.93-22.83
					c-13.89-16.33-20.47-36.28-19.02-57.48c2.56-40.91,29.02-67.34,67.41-67.34c37.07,0,63.79,24.42,69.73,63.75
					C371.11,259.43,343.75,284.78,315.64,292.68z"/>
			</defs>
			<clipPath id="SVGID_2_">
				<use xlink:href="#SVGID_1_"  style="overflow:visible;"/>
			</clipPath>
			<rect x="225.33" y="294.32" class="st5" width="145.77" height="1.44"/>
			<rect x="225.33" y="292.52" class="st6" width="145.77" height="1.8"/>
			<rect x="225.33" y="290.72" class="st7" width="145.77" height="1.8"/>
			<rect x="225.33" y="288.92" class="st8" width="145.77" height="1.8"/>
			<rect x="225.33" y="287.12" class="st9" width="145.77" height="1.8"/>
			<rect x="225.33" y="285.32" class="st10" width="145.77" height="1.8"/>
			<rect x="225.33" y="283.52" class="st10" width="145.77" height="1.8"/>
			<rect x="225.33" y="281.72" class="st11" width="145.77" height="1.8"/>
			<rect x="225.33" y="279.92" class="st12" width="145.77" height="1.8"/>
			<rect x="225.33" y="278.12" class="st13" width="145.77" height="1.8"/>
			<rect x="225.33" y="276.32" class="st14" width="145.77" height="1.8"/>
			<rect x="225.33" y="274.52" class="st15" width="145.77" height="1.8"/>
			<rect x="225.33" y="272.72" class="st16" width="145.77" height="1.8"/>
			<rect x="225.33" y="270.92" class="st17" width="145.77" height="1.8"/>
			<rect x="225.33" y="269.12" class="st18" width="145.77" height="1.8"/>
			<rect x="225.33" y="267.33" class="st19" width="145.77" height="1.8"/>
			<rect x="225.33" y="265.53" class="st20" width="145.77" height="1.8"/>
			<rect x="225.33" y="263.73" class="st21" width="145.77" height="1.8"/>
			<rect x="225.33" y="261.93" class="st22" width="145.77" height="1.8"/>
			<rect x="225.33" y="260.13" class="st23" width="145.77" height="1.8"/>
			<rect x="225.33" y="258.33" class="st24" width="145.77" height="1.8"/>
			<rect x="225.33" y="256.53" class="st24" width="145.77" height="1.8"/>
			<rect x="225.33" y="254.73" class="st25" width="145.77" height="1.8"/>
			<rect x="225.33" y="252.93" class="st26" width="145.77" height="1.8"/>
			<rect x="225.33" y="251.13" class="st27" width="145.77" height="1.8"/>
			<rect x="225.33" y="249.33" class="st28" width="145.77" height="1.8"/>
			<rect x="225.33" y="247.53" class="st29" width="145.77" height="1.8"/>
			<rect x="225.33" y="245.73" class="st30" width="145.77" height="1.8"/>
			<rect x="225.33" y="243.93" class="st30" width="145.77" height="1.8"/>
			<rect x="225.33" y="242.13" class="st31" width="145.77" height="1.8"/>
			<rect x="225.33" y="240.33" class="st32" width="145.77" height="1.8"/>
			<rect x="225.33" y="238.53" class="st33" width="145.77" height="1.8"/>
			<rect x="225.33" y="236.73" class="st34" width="145.77" height="1.8"/>
			<rect x="225.33" y="234.93" class="st35" width="145.77" height="1.8"/>
			<rect x="225.33" y="233.13" class="st36" width="145.77" height="1.8"/>
			<rect x="225.33" y="231.33" class="st37" width="145.77" height="1.8"/>
			<rect x="225.33" y="229.53" class="st38" width="145.77" height="1.8"/>
			<rect x="225.33" y="227.74" class="st39" width="145.77" height="1.8"/>
			<rect x="225.33" y="225.94" class="st40" width="145.77" height="1.8"/>
			<rect x="225.33" y="224.14" class="st41" width="145.77" height="1.8"/>
			<rect x="225.33" y="222.34" class="st42" width="145.77" height="1.8"/>
			<rect x="225.33" y="220.54" class="st42" width="145.77" height="1.8"/>
			<rect x="225.33" y="218.74" class="st43" width="145.77" height="1.8"/>
			<rect x="225.33" y="216.94" class="st44" width="145.77" height="1.8"/>
			<rect x="225.33" y="215.14" class="st45" width="145.77" height="1.8"/>
			<rect x="225.33" y="213.34" class="st46" width="145.77" height="1.8"/>
			<rect x="225.33" y="211.54" class="st47" width="145.77" height="1.8"/>
			<rect x="225.33" y="209.74" class="st48" width="145.77" height="1.8"/>
			<rect x="225.33" y="207.94" class="st49" width="145.77" height="1.8"/>
			<rect x="225.33" y="206.14" class="st50" width="145.77" height="1.8"/>
			<rect x="225.33" y="204.34" class="st51" width="145.77" height="1.8"/>
			<rect x="225.33" y="202.54" class="st52" width="145.77" height="1.8"/>
			<rect x="225.33" y="200.74" class="st52" width="145.77" height="1.8"/>
			<rect x="225.33" y="198.94" class="st53" width="145.77" height="1.8"/>
			<rect x="225.33" y="197.14" class="st54" width="145.77" height="1.8"/>
			<rect x="225.33" y="195.34" class="st55" width="145.77" height="1.8"/>
			<rect x="225.33" y="193.54" class="st56" width="145.77" height="1.8"/>
			<rect x="225.33" y="191.74" class="st57" width="145.77" height="1.8"/>
			<rect x="225.33" y="189.94" class="st58" width="145.77" height="1.8"/>
			<rect x="225.33" y="188.15" class="st59" width="145.77" height="1.8"/>
			<rect x="225.33" y="186.71" class="st59" width="145.77" height="1.44"/>
			<rect x="225.33" y="185.27" class="st58" width="145.77" height="1.44"/>
			<rect x="225.33" y="183.83" class="st57" width="145.77" height="1.44"/>
			<rect x="225.33" y="182.39" class="st56" width="145.77" height="1.44"/>
			<rect x="225.33" y="180.96" class="st55" width="145.77" height="1.44"/>
			<rect x="225.33" y="179.52" class="st54" width="145.77" height="1.44"/>
			<rect x="225.33" y="178.08" class="st53" width="145.77" height="1.44"/>
			<rect x="225.33" y="176.64" class="st52" width="145.77" height="1.44"/>
			<rect x="225.33" y="175.2" class="st52" width="145.77" height="1.44"/>
			<rect x="225.33" y="173.77" class="st51" width="145.77" height="1.44"/>
			<rect x="225.33" y="172.33" class="st50" width="145.77" height="1.44"/>
			<rect x="225.33" y="170.89" class="st49" width="145.77" height="1.44"/>
			<rect x="225.33" y="169.45" class="st48" width="145.77" height="1.44"/>
			<rect x="225.33" y="168.02" class="st47" width="145.77" height="1.44"/>
			<rect x="225.33" y="166.58" class="st46" width="145.77" height="1.44"/>
			<rect x="225.33" y="165.14" class="st45" width="145.77" height="1.44"/>
			<rect x="225.33" y="163.7" class="st44" width="145.77" height="1.44"/>
			<rect x="225.33" y="162.26" class="st43" width="145.77" height="1.44"/>
			<rect x="225.33" y="160.83" class="st42" width="145.77" height="1.44"/>
			<rect x="225.33" y="159.39" class="st42" width="145.77" height="1.44"/>
			<rect x="225.33" y="157.95" class="st41" width="145.77" height="1.44"/>
			<rect x="225.33" y="156.51" class="st40" width="145.77" height="1.44"/>
			<rect x="225.33" y="155.07" class="st39" width="145.77" height="1.44"/>
			<rect x="225.33" y="153.64" class="st38" width="145.77" height="1.44"/>
			<rect x="225.33" y="152.2" class="st37" width="145.77" height="1.44"/>
			<rect x="225.33" y="150.76" class="st36" width="145.77" height="1.44"/>
			<rect x="225.33" y="149.32" class="st35" width="145.77" height="1.44"/>
			<rect x="225.33" y="148.1" class="st34" width="145.77" height="1.22"/>
			<rect x="109.32" y="364.5" class="st60" width="381.57" height="3.09"/>
			<rect x="109.32" y="362.7" class="st60" width="381.57" height="1.8"/>
			<rect x="109.32" y="360.9" class="st60" width="381.57" height="1.8"/>
			<rect x="109.32" y="359.1" class="st60" width="381.57" height="1.8"/>
			<rect x="109.32" y="357.3" class="st61" width="381.57" height="1.8"/>
			<rect x="109.32" y="355.5" class="st62" width="381.57" height="1.8"/>
			<rect x="109.32" y="353.7" class="st63" width="381.57" height="1.8"/>
			<rect x="109.32" y="351.9" class="st63" width="381.57" height="1.8"/>
			<rect x="109.32" y="350.1" class="st64" width="381.57" height="1.8"/>
			<rect x="109.32" y="348.31" class="st65" width="381.57" height="1.8"/>
			<rect x="109.32" y="346.51" class="st66" width="381.57" height="1.8"/>
			<rect x="109.32" y="344.71" class="st67" width="381.57" height="1.8"/>
			<rect x="109.32" y="342.91" class="st67" width="381.57" height="1.8"/>
			<rect x="109.32" y="341.11" class="st68" width="381.57" height="1.8"/>
			<rect x="109.32" y="339.31" class="st69" width="381.57" height="1.8"/>
			<rect x="109.32" y="337.51" class="st70" width="381.57" height="1.8"/>
			<rect x="109.32" y="335.71" class="st71" width="381.57" height="1.8"/>
			<rect x="109.32" y="333.91" class="st71" width="381.57" height="1.8"/>
			<rect x="109.32" y="332.11" class="st72" width="381.57" height="1.8"/>
			<rect x="109.32" y="330.31" class="st73" width="381.57" height="1.8"/>
			<rect x="109.32" y="328.51" class="st73" width="381.57" height="1.8"/>
			<rect x="109.32" y="326.71" class="st74" width="381.57" height="1.8"/>
			<rect x="109.32" y="324.91" class="st75" width="381.57" height="1.8"/>
			<rect x="109.32" y="323.11" class="st76" width="381.57" height="1.8"/>
			<rect x="109.32" y="321.31" class="st77" width="381.57" height="1.8"/>
			<rect x="109.32" y="319.51" class="st78" width="381.57" height="1.8"/>
			<rect x="109.32" y="317.71" class="st79" width="381.57" height="1.8"/>
			<rect x="109.32" y="315.91" class="st79" width="381.57" height="1.8"/>
			<rect x="109.32" y="314.11" class="st80" width="381.57" height="1.8"/>
			<rect x="109.32" y="312.31" class="st81" width="381.57" height="1.8"/>
			<rect x="109.32" y="310.51" class="st81" width="381.57" height="1.8"/>
			<rect x="109.32" y="308.72" class="st82" width="381.57" height="1.8"/>
			<rect x="109.32" y="306.92" class="st83" width="381.57" height="1.8"/>
			<rect x="109.32" y="305.12" class="st84" width="381.57" height="1.8"/>
			<rect x="109.32" y="303.32" class="st85" width="381.57" height="1.8"/>
			<rect x="109.32" y="301.52" class="st86" width="381.57" height="1.8"/>
			<rect x="109.32" y="299.72" class="st87" width="381.57" height="1.8"/>
			<rect x="109.32" y="297.92" class="st88" width="381.57" height="1.8"/>
			<rect x="109.32" y="296.12" class="st5" width="381.57" height="1.8"/>
			<rect x="109.32" y="294.32" class="st5" width="381.57" height="1.8"/>
			<rect x="109.32" y="292.52" class="st6" width="381.57" height="1.8"/>
			<rect x="109.32" y="290.72" class="st7" width="381.57" height="1.8"/>
			<rect x="109.32" y="288.92" class="st8" width="381.57" height="1.8"/>
			<rect x="109.32" y="287.12" class="st9" width="381.57" height="1.8"/>
			<rect x="109.32" y="285.32" class="st10" width="381.57" height="1.8"/>
			<rect x="109.32" y="283.52" class="st10" width="381.57" height="1.8"/>
			<rect x="109.32" y="281.72" class="st11" width="381.57" height="1.8"/>
			<rect x="109.32" y="279.92" class="st12" width="381.57" height="1.8"/>
			<rect x="109.32" y="278.12" class="st13" width="381.57" height="1.8"/>
			<rect x="109.32" y="276.32" class="st14" width="381.57" height="1.8"/>
			<rect x="109.32" y="274.52" class="st15" width="381.57" height="1.8"/>
			<rect x="109.32" y="272.72" class="st16" width="381.57" height="1.8"/>
			<rect x="109.32" y="270.92" class="st17" width="381.57" height="1.8"/>
			<rect x="109.32" y="269.12" class="st18" width="381.57" height="1.8"/>
			<rect x="109.32" y="267.33" class="st19" width="381.57" height="1.8"/>
			<rect x="109.32" y="265.53" class="st20" width="381.57" height="1.8"/>
			<rect x="109.32" y="263.73" class="st21" width="381.57" height="1.8"/>
			<rect x="109.32" y="261.93" class="st22" width="381.57" height="1.8"/>
			<rect x="109.32" y="260.13" class="st23" width="381.57" height="1.8"/>
			<rect x="109.32" y="258.33" class="st24" width="381.57" height="1.8"/>
			<rect x="109.32" y="256.53" class="st24" width="381.57" height="1.8"/>
			<rect x="109.32" y="254.73" class="st25" width="381.57" height="1.8"/>
			<rect x="109.32" y="252.93" class="st26" width="381.57" height="1.8"/>
			<rect x="109.32" y="251.13" class="st27" width="381.57" height="1.8"/>
			<rect x="109.32" y="249.33" class="st28" width="381.57" height="1.8"/>
			<rect x="109.32" y="247.53" class="st29" width="381.57" height="1.8"/>
			<rect x="109.32" y="245.73" class="st30" width="381.57" height="1.8"/>
			<rect x="109.32" y="243.93" class="st30" width="381.57" height="1.8"/>
			<rect x="109.32" y="242.13" class="st31" width="381.57" height="1.8"/>
			<rect x="109.32" y="240.33" class="st32" width="381.57" height="1.8"/>
			<rect x="109.32" y="238.53" class="st33" width="381.57" height="1.8"/>
			<rect x="109.32" y="236.73" class="st34" width="381.57" height="1.8"/>
			<rect x="109.32" y="234.93" class="st35" width="381.57" height="1.8"/>
			<rect x="109.32" y="233.13" class="st36" width="381.57" height="1.8"/>
			<rect x="109.32" y="231.33" class="st37" width="381.57" height="1.8"/>
			<rect x="109.32" y="229.53" class="st38" width="381.57" height="1.8"/>
			<rect x="109.32" y="227.74" class="st39" width="381.57" height="1.8"/>
			<rect x="109.32" y="225.94" class="st40" width="381.57" height="1.8"/>
			<rect x="109.32" y="224.14" class="st41" width="381.57" height="1.8"/>
			<rect x="109.32" y="222.34" class="st42" width="381.57" height="1.8"/>
			<rect x="109.32" y="220.54" class="st42" width="381.57" height="1.8"/>
			<rect x="109.32" y="218.74" class="st43" width="381.57" height="1.8"/>
			<rect x="109.32" y="216.94" class="st44" width="381.57" height="1.8"/>
			<rect x="109.32" y="215.14" class="st45" width="381.57" height="1.8"/>
			<rect x="109.32" y="213.34" class="st46" width="381.57" height="1.8"/>
			<rect x="109.32" y="211.54" class="st47" width="381.57" height="1.8"/>
			<rect x="109.32" y="209.74" class="st48" width="381.57" height="1.8"/>
			<rect x="109.32" y="207.94" class="st49" width="381.57" height="1.8"/>
			<rect x="109.32" y="206.14" class="st50" width="381.57" height="1.8"/>
			<rect x="109.32" y="204.34" class="st51" width="381.57" height="1.8"/>
			<rect x="109.32" y="202.54" class="st52" width="381.57" height="1.8"/>
			<rect x="109.32" y="200.74" class="st52" width="381.57" height="1.8"/>
			<rect x="109.32" y="198.94" class="st53" width="381.57" height="1.8"/>
			<rect x="109.32" y="197.14" class="st54" width="381.57" height="1.8"/>
			<rect x="109.32" y="195.34" class="st55" width="381.57" height="1.8"/>
			<rect x="109.32" y="193.54" class="st56" width="381.57" height="1.8"/>
			<rect x="109.32" y="191.74" class="st57" width="381.57" height="1.8"/>
			<rect x="109.32" y="189.94" class="st58" width="381.57" height="1.8"/>
			<rect x="109.32" y="188.15" class="st59" width="381.57" height="1.8"/>
			<rect x="109.32" y="186.71" class="st59" width="381.57" height="1.44"/>
			<rect x="109.32" y="185.27" class="st58" width="381.57" height="1.44"/>
			<rect x="109.32" y="183.83" class="st57" width="381.57" height="1.44"/>
			<rect x="109.32" y="182.39" class="st56" width="381.57" height="1.44"/>
			<rect x="109.32" y="180.96" class="st55" width="381.57" height="1.44"/>
			<rect x="109.32" y="179.52" class="st54" width="381.57" height="1.44"/>
			<rect x="109.32" y="178.08" class="st53" width="381.57" height="1.44"/>
			<rect x="109.32" y="176.64" class="st52" width="381.57" height="1.44"/>
			<rect x="109.32" y="175.2" class="st52" width="381.57" height="1.44"/>
			<rect x="109.32" y="173.77" class="st51" width="381.57" height="1.44"/>
			<rect x="109.32" y="172.33" class="st50" width="381.57" height="1.44"/>
			<rect x="109.32" y="170.89" class="st49" width="381.57" height="1.44"/>
			<rect x="109.32" y="169.45" class="st48" width="381.57" height="1.44"/>
			<rect x="109.32" y="168.02" class="st47" width="381.57" height="1.44"/>
			<rect x="109.32" y="166.58" class="st46" width="381.57" height="1.44"/>
			<rect x="109.32" y="165.14" class="st45" width="381.57" height="1.44"/>
			<rect x="109.32" y="163.7" class="st44" width="381.57" height="1.44"/>
			<rect x="109.32" y="162.26" class="st43" width="381.57" height="1.44"/>
			<rect x="109.32" y="160.83" class="st42" width="381.57" height="1.44"/>
			<rect x="109.32" y="159.39" class="st42" width="381.57" height="1.44"/>
			<rect x="109.32" y="157.95" class="st41" width="381.57" height="1.44"/>
			<rect x="109.32" y="156.51" class="st40" width="381.57" height="1.44"/>
			<rect x="109.32" y="155.07" class="st39" width="381.57" height="1.44"/>
			<rect x="109.32" y="153.64" class="st38" width="381.57" height="1.44"/>
			<rect x="109.32" y="152.2" class="st37" width="381.57" height="1.44"/>
			<rect x="109.32" y="150.76" class="st36" width="381.57" height="1.44"/>
			<rect x="109.32" y="149.32" class="st35" width="381.57" height="1.44"/>
			<rect x="109.32" y="147.89" class="st34" width="381.57" height="1.44"/>
			<rect x="109.32" y="146.45" class="st33" width="381.57" height="1.44"/>
			<rect x="109.32" y="145.01" class="st32" width="381.57" height="1.44"/>
			<rect x="109.32" y="143.57" class="st31" width="381.57" height="1.44"/>
			<rect x="109.32" y="142.13" class="st30" width="381.57" height="1.44"/>
			<rect x="109.32" y="140.7" class="st30" width="381.57" height="1.44"/>
			<rect x="109.32" y="139.26" class="st29" width="381.57" height="1.44"/>
			<rect x="109.32" y="137.82" class="st28" width="381.57" height="1.44"/>
			<rect x="109.32" y="136.38" class="st27" width="381.57" height="1.44"/>
			<rect x="109.32" y="134.95" class="st26" width="381.57" height="1.44"/>
			<rect x="109.32" y="133.51" class="st25" width="381.57" height="1.44"/>
			<rect x="109.32" y="132.07" class="st24" width="381.57" height="1.44"/>
			<rect x="109.32" y="130.63" class="st24" width="381.57" height="1.44"/>
			<rect x="109.32" y="129.19" class="st23" width="381.57" height="1.44"/>
			<rect x="109.32" y="127.76" class="st22" width="381.57" height="1.44"/>
			<rect x="109.32" y="126.32" class="st21" width="381.57" height="1.44"/>
			<rect x="109.32" y="124.88" class="st20" width="381.57" height="1.44"/>
			<rect x="109.32" y="123.44" class="st19" width="381.57" height="1.44"/>
			<rect x="109.32" y="122" class="st18" width="381.57" height="1.44"/>
			<rect x="109.32" y="120.57" class="st17" width="381.57" height="1.44"/>
			<rect x="109.32" y="119.13" class="st16" width="381.57" height="1.44"/>
			<rect x="109.32" y="117.69" class="st15" width="381.57" height="1.44"/>
			<rect x="109.32" y="116.25" class="st14" width="381.57" height="1.44"/>
			<rect x="109.32" y="114.82" class="st13" width="381.57" height="1.44"/>
			<rect x="109.32" y="113.38" class="st12" width="381.57" height="1.44"/>
			<rect x="109.32" y="111.94" class="st11" width="381.57" height="1.44"/>
			<rect x="109.32" y="110.5" class="st10" width="381.57" height="1.44"/>
			<rect x="109.32" y="109.06" class="st10" width="381.57" height="1.44"/>
			<rect x="109.32" y="107.63" class="st9" width="381.57" height="1.44"/>
			<rect x="109.32" y="106.19" class="st8" width="381.57" height="1.44"/>
			<rect x="109.32" y="104.75" class="st7" width="381.57" height="1.44"/>
			<rect x="109.32" y="103.31" class="st6" width="381.57" height="1.44"/>
			<rect x="109.32" y="101.88" class="st5" width="381.57" height="1.44"/>
			<rect x="109.32" y="100.44" class="st5" width="381.57" height="1.44"/>
			<rect x="109.32" y="99" class="st88" width="381.57" height="1.44"/>
			<rect x="109.32" y="97.56" class="st87" width="381.57" height="1.44"/>
			<rect x="109.32" y="96.12" class="st86" width="381.57" height="1.44"/>
			<rect x="109.32" y="94.69" class="st85" width="381.57" height="1.44"/>
			<rect x="109.32" y="93.25" class="st84" width="381.57" height="1.44"/>
			<rect x="109.32" y="91.81" class="st83" width="381.57" height="1.44"/>
			<rect x="109.32" y="90.37" class="st82" width="381.57" height="1.44"/>
			<rect x="109.32" y="88.93" class="st81" width="381.57" height="1.44"/>
			<rect x="109.32" y="87.5" class="st81" width="381.57" height="1.44"/>
			<rect x="109.32" y="86.06" class="st80" width="381.57" height="1.44"/>
			<rect x="109.32" y="84.62" class="st79" width="381.57" height="1.44"/>
			<rect x="109.32" y="83.18" class="st79" width="381.57" height="1.44"/>
			<rect x="109.32" y="81.75" class="st78" width="381.57" height="1.44"/>
			<rect x="109.32" y="80.31" class="st77" width="381.57" height="1.44"/>
			<rect x="109.32" y="78.87" class="st76" width="381.57" height="1.44"/>
			<rect x="109.32" y="77.43" class="st75" width="381.57" height="1.44"/>
			<rect x="109.32" y="75.99" class="st74" width="381.57" height="1.44"/>
			<rect x="109.32" y="74.56" class="st73" width="381.57" height="1.44"/>
			<rect x="109.32" y="73.12" class="st73" width="381.57" height="1.44"/>
			<rect x="109.32" y="71.68" class="st72" width="381.57" height="1.44"/>
			<rect x="109.32" y="70.24" class="st71" width="381.57" height="1.44"/>
			<rect x="109.32" y="68.8" class="st71" width="381.57" height="1.44"/>
			<rect x="109.32" y="67.37" class="st70" width="381.57" height="1.44"/>
			<rect x="109.32" y="65.93" class="st69" width="381.57" height="1.44"/>
			<rect x="109.32" y="64.49" class="st68" width="381.57" height="1.44"/>
			<rect x="109.32" y="63.05" class="st67" width="381.57" height="1.44"/>
			<rect x="109.32" y="61.62" class="st67" width="381.57" height="1.44"/>
			<rect x="109.32" y="60.18" class="st66" width="381.57" height="1.44"/>
			<rect x="109.32" y="58.74" class="st65" width="381.57" height="1.44"/>
			<rect x="109.32" y="57.3" class="st64" width="381.57" height="1.44"/>
			<rect x="109.32" y="55.86" class="st63" width="381.57" height="1.44"/>
			<rect x="109.32" y="54.43" class="st63" width="381.57" height="1.44"/>
			<rect x="109.32" y="52.99" class="st62" width="381.57" height="1.44"/>
			<rect x="109.32" y="51.55" class="st61" width="381.57" height="1.44"/>
			<rect x="109.32" y="50.11" class="st60" width="381.57" height="1.44"/>
			<rect x="109.32" y="48.68" class="st60" width="381.57" height="1.44"/>
			<rect x="109.32" y="47.24" class="st60" width="381.57" height="1.44"/>
			<path class="st60" d="M490.89,47.24H109.32H490.89z"/>
		</g>
	</g>
	<g class="st89">
		<path class="st4" d="M251.15,529.71L251.15,529.71c-5.56-6.59-4.71-16.53,1.88-22.08l0,0c6.59-5.56,16.53-4.71,22.08,1.88l0,0
			c5.56,6.59,4.71,16.53-1.88,22.08l0,0C266.64,537.14,256.71,536.3,251.15,529.71z"/>
	</g>
	<g class="st89">
		<path class="st4" d="M289.15,507.92L289.15,507.92c-2.78-3.29-2.36-8.26,0.94-11.04l0,0c3.29-2.78,8.26-2.36,11.04,0.94l0,0
			c2.78,3.29,2.36,8.26-0.94,11.04l0,0C296.89,511.64,291.92,511.21,289.15,507.92z"/>
	</g>
</g>
</svg>
